%
M48
M72
T01C0.0157
T02C0.0236
T03C0.0315
T04C0.0320
T05C0.0400
T06C0.0472
T07C0.0591
T08C0.1260
%
T01
X4780Y25500
X6860Y24620
X9740Y14220
X8460Y14220
X8940Y7820
X10060Y8460
X24940Y18860
X26220Y23340
X7940Y15580
X9500Y15580
X23340Y4460
X20940Y5900
X2140Y7480
X6800Y2140
X4480Y5960
X9840Y3800
X6890Y5640
X7980Y7180
X10270Y1800
X4980Y2140
X10750Y2890
X8780Y7180
X2140Y9300
X3040Y27370
X5620Y27070
X6390Y23650
X10380Y27660
X9740Y24620
X7660Y27020
X7180Y28140
X22220Y18380
X24700Y23140
X18100Y24220
X18100Y22020
X23500Y28140
X12780Y22380
X16620Y20940
X15820Y22540
X15020Y19820
X3900Y12860
X11980Y13100
X12780Y16620
X14540Y15020
X16780Y6380
X15780Y5700
X16780Y4420
X13740Y5100
X15820Y8300
X9100Y9420
X21420Y3500
X23100Y2380
X25420Y3980
X21180Y7660
X21300Y24940
X24460Y28460
X20780Y24940
X18060Y5100
X15980Y9420
X22660Y21620
X21100Y21260
X21740Y21260
X16380Y9740
X14780Y9340
X14380Y7180
X20460Y21260
X25100Y28460
X8140Y14700
X9740Y14860
X10220Y13900
X12300Y22220
X12300Y20940
X15820Y25900
T02
X9700Y21820
X8460Y21820
X9420Y22620
X7500Y22540
X3890Y10390
X3890Y9890
X5920Y10400
X5920Y9920
X4010Y9270
X4470Y9270
X4930Y9270
X5390Y9270
X5850Y9270
X3340Y18860
T03
X5040Y3940
X5540Y4440
X6040Y3940
X6540Y4440
X7040Y3940
X7540Y4440
X8040Y3940
T04
X16620Y16520
X16620Y13520
X18320Y16300
X21320Y16300
X15500Y13520
X15500Y16520
X5900Y11760
X5900Y14760
X2000Y15340
X5000Y15340
X18800Y27340
X21800Y27340
X20080Y25260
X23080Y25260
X18810Y28540
X21810Y28540
X17760Y28840
X17760Y25840
X21800Y26220
X18800Y26220
X21320Y18540
X18320Y18540
X19910Y20730
X22910Y20730
X18320Y19660
X21320Y19660
X18320Y17420
X21320Y17420
X17370Y18110
X17370Y21110
X2000Y11340
X5000Y11340
X14160Y11020
X17160Y11020
X14160Y12140
X17160Y12140
X13320Y11340
X10320Y11340
X2930Y21880
X5930Y21880
X17910Y3040
X20910Y3040
X19820Y7720
X19820Y4720
X13100Y6960
X13100Y9960
X20840Y1260
X17840Y1260
X8450Y23940
X11450Y23940
X13520Y24460
X16520Y24460
X13360Y18700
X16360Y18700
X16840Y2380
X13840Y2380
X14160Y9900
X17160Y9900
X11500Y20080
X11500Y23080
X16510Y25500
X13510Y25500
X17260Y25000
X17260Y22000
X16840Y3500
X13840Y3500
X13360Y17580
X16360Y17580
X17840Y8780
X20840Y8780
X1890Y16450
X4890Y16450
X1910Y20760
X4910Y20760
X18700Y4720
X18700Y7720
X11020Y6960
X11020Y9960
X13040Y28140
X16040Y28140
X28240Y32190
X31240Y32190
X28240Y30860
X31240Y30860
X22060Y11720
X22060Y8720
X20940Y12400
X20940Y15400
X22060Y12400
X22060Y15400
X19820Y13960
X19820Y10960
X16840Y1260
X13840Y1260
X17160Y8780
X14160Y8780
X11980Y1840
X11980Y4840
X11980Y6960
X11980Y9960
X14150Y32010
X14150Y29010
X10950Y28100
X10950Y25100
X12200Y25100
X12200Y28100
X29480Y4140
X26480Y4140
X25800Y5260
X22800Y5260
X26280Y780
X23280Y780
X29480Y5260
X26480Y5260
T05
X36360Y28830
X30460Y28830
X29160Y16390
X23260Y16390
X29160Y10390
X23260Y10390
X29160Y13390
X23260Y13390
X29160Y7390
X23260Y7390
T06
X11514Y33166
X9575Y32825
X7637Y32483
X11856Y31228
X9917Y30886
X7978Y30544
X31830Y36743
X29892Y36401
X27953Y36060
X32172Y34805
X30234Y34463
X28295Y34121
X21672Y34955
X19733Y34613
X17795Y34271
X22014Y33016
X20075Y32674
X18137Y32333
T07
X38829Y19022
X31447Y20022
X32699Y19522
X33947Y20022
X35199Y19522
X36447Y20022
X37697Y19522
X31447Y15022
X32699Y14522
X33947Y15022
X35199Y14522
X36447Y15022
X37697Y14522
X38829Y12329
X31447Y13329
X32699Y12829
X33947Y13329
X35199Y12829
X36447Y13329
X37697Y12829
X31447Y8329
X32699Y7829
X33947Y8329
X35199Y7829
X36447Y8329
X37697Y7829
X38829Y5636
X31447Y6636
X32699Y6136
X33947Y6636
X35199Y6136
X36447Y6636
X37697Y6136
X31447Y1636
X32699Y1136
X33947Y1636
X35199Y1136
X36447Y1636
X37697Y1136
X38829Y25715
X31447Y26715
X32699Y26215
X33947Y26715
X35199Y26215
X36447Y26715
X37697Y26215
X31447Y21715
X32699Y21215
X33947Y21715
X35199Y21215
X36447Y21715
X37697Y21215
X1900Y27340
X1900Y26220
X1900Y25100
X1900Y21740
X1900Y22860
X1900Y23980
X1900Y17420
X1900Y18540
X1900Y19660
X1900Y14380
X1900Y13260
X1900Y12140
X2060Y4460
X2060Y3340
X2060Y2220
T08
X28093Y1715
X37935Y37542
X1715Y31302
M30
