G75*
%MOIN*%
%OFA0B0*%
%FSLAX24Y24*%
%IPPOS*%
%LPD*%
%AMOC8*
5,1,8,0,0,1.08239X$1,22.5*
%
%ADD10C,0.0000*%
%ADD11C,0.0030*%
%ADD12C,0.0040*%
%ADD13C,0.0080*%
%ADD14C,0.0050*%
%ADD15C,0.0060*%
%ADD16C,0.0437*%
%ADD17R,0.1309X0.0384*%
%ADD18C,0.0039*%
%ADD19C,0.0160*%
%ADD20C,0.0200*%
%ADD21R,0.4200X0.0300*%
%ADD22R,0.0750X0.0200*%
%ADD23R,0.0300X0.0200*%
D10*
X000140Y000140D02*
X000140Y032569D01*
X039510Y039510D01*
X039510Y000140D01*
X000140Y000140D01*
X027463Y001715D02*
X027465Y001765D01*
X027471Y001815D01*
X027481Y001864D01*
X027495Y001912D01*
X027512Y001959D01*
X027533Y002004D01*
X027558Y002048D01*
X027586Y002089D01*
X027618Y002128D01*
X027652Y002165D01*
X027689Y002199D01*
X027729Y002229D01*
X027771Y002256D01*
X027815Y002280D01*
X027861Y002301D01*
X027908Y002317D01*
X027956Y002330D01*
X028006Y002339D01*
X028055Y002344D01*
X028106Y002345D01*
X028156Y002342D01*
X028205Y002335D01*
X028254Y002324D01*
X028302Y002309D01*
X028348Y002291D01*
X028393Y002269D01*
X028436Y002243D01*
X028477Y002214D01*
X028516Y002182D01*
X028552Y002147D01*
X028584Y002109D01*
X028614Y002069D01*
X028641Y002026D01*
X028664Y001982D01*
X028683Y001936D01*
X028699Y001888D01*
X028711Y001839D01*
X028719Y001790D01*
X028723Y001740D01*
X028723Y001690D01*
X028719Y001640D01*
X028711Y001591D01*
X028699Y001542D01*
X028683Y001494D01*
X028664Y001448D01*
X028641Y001404D01*
X028614Y001361D01*
X028584Y001321D01*
X028552Y001283D01*
X028516Y001248D01*
X028477Y001216D01*
X028436Y001187D01*
X028393Y001161D01*
X028348Y001139D01*
X028302Y001121D01*
X028254Y001106D01*
X028205Y001095D01*
X028156Y001088D01*
X028106Y001085D01*
X028055Y001086D01*
X028006Y001091D01*
X027956Y001100D01*
X027908Y001113D01*
X027861Y001129D01*
X027815Y001150D01*
X027771Y001174D01*
X027729Y001201D01*
X027689Y001231D01*
X027652Y001265D01*
X027618Y001302D01*
X027586Y001341D01*
X027558Y001382D01*
X027533Y001426D01*
X027512Y001471D01*
X027495Y001518D01*
X027481Y001566D01*
X027471Y001615D01*
X027465Y001665D01*
X027463Y001715D01*
X038534Y005636D02*
X038536Y005670D01*
X038542Y005704D01*
X038552Y005737D01*
X038565Y005768D01*
X038583Y005798D01*
X038603Y005826D01*
X038627Y005851D01*
X038653Y005873D01*
X038681Y005891D01*
X038712Y005907D01*
X038744Y005919D01*
X038778Y005927D01*
X038812Y005931D01*
X038846Y005931D01*
X038880Y005927D01*
X038914Y005919D01*
X038946Y005907D01*
X038976Y005891D01*
X039005Y005873D01*
X039031Y005851D01*
X039055Y005826D01*
X039075Y005798D01*
X039093Y005768D01*
X039106Y005737D01*
X039116Y005704D01*
X039122Y005670D01*
X039124Y005636D01*
X039122Y005602D01*
X039116Y005568D01*
X039106Y005535D01*
X039093Y005504D01*
X039075Y005474D01*
X039055Y005446D01*
X039031Y005421D01*
X039005Y005399D01*
X038977Y005381D01*
X038946Y005365D01*
X038914Y005353D01*
X038880Y005345D01*
X038846Y005341D01*
X038812Y005341D01*
X038778Y005345D01*
X038744Y005353D01*
X038712Y005365D01*
X038681Y005381D01*
X038653Y005399D01*
X038627Y005421D01*
X038603Y005446D01*
X038583Y005474D01*
X038565Y005504D01*
X038552Y005535D01*
X038542Y005568D01*
X038536Y005602D01*
X038534Y005636D01*
X038534Y012329D02*
X038536Y012363D01*
X038542Y012397D01*
X038552Y012430D01*
X038565Y012461D01*
X038583Y012491D01*
X038603Y012519D01*
X038627Y012544D01*
X038653Y012566D01*
X038681Y012584D01*
X038712Y012600D01*
X038744Y012612D01*
X038778Y012620D01*
X038812Y012624D01*
X038846Y012624D01*
X038880Y012620D01*
X038914Y012612D01*
X038946Y012600D01*
X038976Y012584D01*
X039005Y012566D01*
X039031Y012544D01*
X039055Y012519D01*
X039075Y012491D01*
X039093Y012461D01*
X039106Y012430D01*
X039116Y012397D01*
X039122Y012363D01*
X039124Y012329D01*
X039122Y012295D01*
X039116Y012261D01*
X039106Y012228D01*
X039093Y012197D01*
X039075Y012167D01*
X039055Y012139D01*
X039031Y012114D01*
X039005Y012092D01*
X038977Y012074D01*
X038946Y012058D01*
X038914Y012046D01*
X038880Y012038D01*
X038846Y012034D01*
X038812Y012034D01*
X038778Y012038D01*
X038744Y012046D01*
X038712Y012058D01*
X038681Y012074D01*
X038653Y012092D01*
X038627Y012114D01*
X038603Y012139D01*
X038583Y012167D01*
X038565Y012197D01*
X038552Y012228D01*
X038542Y012261D01*
X038536Y012295D01*
X038534Y012329D01*
X038534Y019022D02*
X038536Y019056D01*
X038542Y019090D01*
X038552Y019123D01*
X038565Y019154D01*
X038583Y019184D01*
X038603Y019212D01*
X038627Y019237D01*
X038653Y019259D01*
X038681Y019277D01*
X038712Y019293D01*
X038744Y019305D01*
X038778Y019313D01*
X038812Y019317D01*
X038846Y019317D01*
X038880Y019313D01*
X038914Y019305D01*
X038946Y019293D01*
X038976Y019277D01*
X039005Y019259D01*
X039031Y019237D01*
X039055Y019212D01*
X039075Y019184D01*
X039093Y019154D01*
X039106Y019123D01*
X039116Y019090D01*
X039122Y019056D01*
X039124Y019022D01*
X039122Y018988D01*
X039116Y018954D01*
X039106Y018921D01*
X039093Y018890D01*
X039075Y018860D01*
X039055Y018832D01*
X039031Y018807D01*
X039005Y018785D01*
X038977Y018767D01*
X038946Y018751D01*
X038914Y018739D01*
X038880Y018731D01*
X038846Y018727D01*
X038812Y018727D01*
X038778Y018731D01*
X038744Y018739D01*
X038712Y018751D01*
X038681Y018767D01*
X038653Y018785D01*
X038627Y018807D01*
X038603Y018832D01*
X038583Y018860D01*
X038565Y018890D01*
X038552Y018921D01*
X038542Y018954D01*
X038536Y018988D01*
X038534Y019022D01*
X038534Y025715D02*
X038536Y025749D01*
X038542Y025783D01*
X038552Y025816D01*
X038565Y025847D01*
X038583Y025877D01*
X038603Y025905D01*
X038627Y025930D01*
X038653Y025952D01*
X038681Y025970D01*
X038712Y025986D01*
X038744Y025998D01*
X038778Y026006D01*
X038812Y026010D01*
X038846Y026010D01*
X038880Y026006D01*
X038914Y025998D01*
X038946Y025986D01*
X038976Y025970D01*
X039005Y025952D01*
X039031Y025930D01*
X039055Y025905D01*
X039075Y025877D01*
X039093Y025847D01*
X039106Y025816D01*
X039116Y025783D01*
X039122Y025749D01*
X039124Y025715D01*
X039122Y025681D01*
X039116Y025647D01*
X039106Y025614D01*
X039093Y025583D01*
X039075Y025553D01*
X039055Y025525D01*
X039031Y025500D01*
X039005Y025478D01*
X038977Y025460D01*
X038946Y025444D01*
X038914Y025432D01*
X038880Y025424D01*
X038846Y025420D01*
X038812Y025420D01*
X038778Y025424D01*
X038744Y025432D01*
X038712Y025444D01*
X038681Y025460D01*
X038653Y025478D01*
X038627Y025500D01*
X038603Y025525D01*
X038583Y025553D01*
X038565Y025583D01*
X038552Y025614D01*
X038542Y025647D01*
X038536Y025681D01*
X038534Y025715D01*
X037305Y037542D02*
X037307Y037592D01*
X037313Y037642D01*
X037323Y037691D01*
X037337Y037739D01*
X037354Y037786D01*
X037375Y037831D01*
X037400Y037875D01*
X037428Y037916D01*
X037460Y037955D01*
X037494Y037992D01*
X037531Y038026D01*
X037571Y038056D01*
X037613Y038083D01*
X037657Y038107D01*
X037703Y038128D01*
X037750Y038144D01*
X037798Y038157D01*
X037848Y038166D01*
X037897Y038171D01*
X037948Y038172D01*
X037998Y038169D01*
X038047Y038162D01*
X038096Y038151D01*
X038144Y038136D01*
X038190Y038118D01*
X038235Y038096D01*
X038278Y038070D01*
X038319Y038041D01*
X038358Y038009D01*
X038394Y037974D01*
X038426Y037936D01*
X038456Y037896D01*
X038483Y037853D01*
X038506Y037809D01*
X038525Y037763D01*
X038541Y037715D01*
X038553Y037666D01*
X038561Y037617D01*
X038565Y037567D01*
X038565Y037517D01*
X038561Y037467D01*
X038553Y037418D01*
X038541Y037369D01*
X038525Y037321D01*
X038506Y037275D01*
X038483Y037231D01*
X038456Y037188D01*
X038426Y037148D01*
X038394Y037110D01*
X038358Y037075D01*
X038319Y037043D01*
X038278Y037014D01*
X038235Y036988D01*
X038190Y036966D01*
X038144Y036948D01*
X038096Y036933D01*
X038047Y036922D01*
X037998Y036915D01*
X037948Y036912D01*
X037897Y036913D01*
X037848Y036918D01*
X037798Y036927D01*
X037750Y036940D01*
X037703Y036956D01*
X037657Y036977D01*
X037613Y037001D01*
X037571Y037028D01*
X037531Y037058D01*
X037494Y037092D01*
X037460Y037129D01*
X037428Y037168D01*
X037400Y037209D01*
X037375Y037253D01*
X037354Y037298D01*
X037337Y037345D01*
X037323Y037393D01*
X037313Y037442D01*
X037307Y037492D01*
X037305Y037542D01*
X001085Y031302D02*
X001087Y031352D01*
X001093Y031402D01*
X001103Y031451D01*
X001117Y031499D01*
X001134Y031546D01*
X001155Y031591D01*
X001180Y031635D01*
X001208Y031676D01*
X001240Y031715D01*
X001274Y031752D01*
X001311Y031786D01*
X001351Y031816D01*
X001393Y031843D01*
X001437Y031867D01*
X001483Y031888D01*
X001530Y031904D01*
X001578Y031917D01*
X001628Y031926D01*
X001677Y031931D01*
X001728Y031932D01*
X001778Y031929D01*
X001827Y031922D01*
X001876Y031911D01*
X001924Y031896D01*
X001970Y031878D01*
X002015Y031856D01*
X002058Y031830D01*
X002099Y031801D01*
X002138Y031769D01*
X002174Y031734D01*
X002206Y031696D01*
X002236Y031656D01*
X002263Y031613D01*
X002286Y031569D01*
X002305Y031523D01*
X002321Y031475D01*
X002333Y031426D01*
X002341Y031377D01*
X002345Y031327D01*
X002345Y031277D01*
X002341Y031227D01*
X002333Y031178D01*
X002321Y031129D01*
X002305Y031081D01*
X002286Y031035D01*
X002263Y030991D01*
X002236Y030948D01*
X002206Y030908D01*
X002174Y030870D01*
X002138Y030835D01*
X002099Y030803D01*
X002058Y030774D01*
X002015Y030748D01*
X001970Y030726D01*
X001924Y030708D01*
X001876Y030693D01*
X001827Y030682D01*
X001778Y030675D01*
X001728Y030672D01*
X001677Y030673D01*
X001628Y030678D01*
X001578Y030687D01*
X001530Y030700D01*
X001483Y030716D01*
X001437Y030737D01*
X001393Y030761D01*
X001351Y030788D01*
X001311Y030818D01*
X001274Y030852D01*
X001240Y030889D01*
X001208Y030928D01*
X001180Y030969D01*
X001155Y031013D01*
X001134Y031058D01*
X001117Y031105D01*
X001103Y031153D01*
X001093Y031202D01*
X001087Y031252D01*
X001085Y031302D01*
D11*
X000818Y027534D02*
X000818Y027485D01*
X000818Y027388D02*
X000818Y027195D01*
X000770Y027195D02*
X000866Y027195D01*
X000966Y027195D02*
X000966Y027388D01*
X001111Y027388D01*
X001160Y027340D01*
X001160Y027195D01*
X001261Y027340D02*
X001454Y027340D01*
X000818Y027388D02*
X000770Y027388D01*
X000668Y027195D02*
X000475Y027195D01*
X000475Y027485D01*
X000523Y026365D02*
X000475Y026317D01*
X000475Y026123D01*
X000523Y026075D01*
X000620Y026075D01*
X000668Y026123D01*
X000668Y026220D01*
X000572Y026220D01*
X000668Y026317D02*
X000620Y026365D01*
X000523Y026365D01*
X000770Y026365D02*
X000963Y026075D01*
X000963Y026365D01*
X001064Y026365D02*
X001209Y026365D01*
X001258Y026317D01*
X001258Y026123D01*
X001209Y026075D01*
X001064Y026075D01*
X001064Y026365D01*
X000770Y026365D02*
X000770Y026075D01*
X000818Y025294D02*
X000818Y025245D01*
X000818Y025148D02*
X000818Y024955D01*
X000770Y024955D02*
X000866Y024955D01*
X000966Y024955D02*
X000966Y025148D01*
X001111Y025148D01*
X001160Y025100D01*
X001160Y024955D01*
X001261Y025100D02*
X001454Y025100D01*
X001357Y025197D02*
X001357Y025003D01*
X000818Y025148D02*
X000770Y025148D01*
X000668Y024955D02*
X000475Y024955D01*
X000475Y025245D01*
X000475Y024125D02*
X000620Y024125D01*
X000668Y024077D01*
X000668Y023980D01*
X000620Y023932D01*
X000475Y023932D01*
X000572Y023932D02*
X000668Y023835D01*
X000770Y023835D02*
X000866Y023835D01*
X000818Y023835D02*
X000818Y024028D01*
X000770Y024028D01*
X000818Y024125D02*
X000818Y024174D01*
X000966Y024028D02*
X001111Y024028D01*
X001160Y023980D01*
X001160Y023835D01*
X001261Y023980D02*
X001454Y023980D01*
X001357Y024077D02*
X001357Y023883D01*
X000966Y023835D02*
X000966Y024028D01*
X000475Y024125D02*
X000475Y023835D01*
X000523Y023005D02*
X000475Y022957D01*
X000475Y022763D01*
X000523Y022715D01*
X000620Y022715D01*
X000668Y022763D01*
X000668Y022860D01*
X000572Y022860D01*
X000668Y022957D02*
X000620Y023005D01*
X000523Y023005D01*
X000770Y023005D02*
X000963Y022715D01*
X000963Y023005D01*
X001064Y023005D02*
X001209Y023005D01*
X001258Y022957D01*
X001258Y022763D01*
X001209Y022715D01*
X001064Y022715D01*
X001064Y023005D01*
X000770Y023005D02*
X000770Y022715D01*
X000818Y021934D02*
X000818Y021885D01*
X000818Y021788D02*
X000818Y021595D01*
X000770Y021595D02*
X000866Y021595D01*
X000966Y021595D02*
X000966Y021788D01*
X001111Y021788D01*
X001160Y021740D01*
X001160Y021595D01*
X001261Y021740D02*
X001454Y021740D01*
X000818Y021788D02*
X000770Y021788D01*
X000668Y021740D02*
X000620Y021692D01*
X000475Y021692D01*
X000572Y021692D02*
X000668Y021595D01*
X000668Y021740D02*
X000668Y021837D01*
X000620Y021885D01*
X000475Y021885D01*
X000475Y021595D01*
X000475Y019485D02*
X000620Y019485D01*
X000668Y019437D01*
X000668Y019340D01*
X000620Y019292D01*
X000475Y019292D01*
X000572Y019292D02*
X000668Y019195D01*
X000770Y019243D02*
X000818Y019195D01*
X000915Y019195D01*
X000963Y019243D01*
X000963Y019340D01*
X000915Y019388D01*
X000818Y019388D01*
X000770Y019340D01*
X000770Y019243D01*
X001064Y019243D02*
X001113Y019195D01*
X001258Y019195D01*
X001258Y019388D01*
X001359Y019388D02*
X001456Y019388D01*
X001407Y019437D02*
X001407Y019243D01*
X001456Y019195D01*
X001555Y019340D02*
X001749Y019340D01*
X001064Y019388D02*
X001064Y019243D01*
X001064Y018685D02*
X001209Y018685D01*
X001258Y018637D01*
X001258Y018443D01*
X001209Y018395D01*
X001064Y018395D01*
X001064Y018685D01*
X000963Y018685D02*
X000963Y018395D01*
X000770Y018685D01*
X000770Y018395D01*
X000668Y018443D02*
X000668Y018540D01*
X000572Y018540D01*
X000668Y018443D02*
X000620Y018395D01*
X000523Y018395D01*
X000475Y018443D01*
X000475Y018637D01*
X000523Y018685D01*
X000620Y018685D01*
X000668Y018637D01*
X000620Y018045D02*
X000668Y017997D01*
X000668Y017900D01*
X000620Y017852D01*
X000475Y017852D01*
X000572Y017852D02*
X000668Y017755D01*
X000770Y017803D02*
X000818Y017755D01*
X000915Y017755D01*
X000963Y017803D01*
X000963Y017900D01*
X000915Y017948D01*
X000818Y017948D01*
X000770Y017900D01*
X000770Y017803D01*
X000620Y018045D02*
X000475Y018045D01*
X000475Y017755D01*
X001064Y017803D02*
X001064Y017948D01*
X001064Y017803D02*
X001113Y017755D01*
X001258Y017755D01*
X001258Y017948D01*
X001359Y017948D02*
X001456Y017948D01*
X001407Y017997D02*
X001407Y017803D01*
X001456Y017755D01*
X001555Y017900D02*
X001749Y017900D01*
X001652Y017997D02*
X001652Y017803D01*
X000475Y019195D02*
X000475Y019485D01*
X003794Y018868D02*
X003794Y018565D01*
X003855Y018504D01*
X003976Y018504D01*
X004037Y018565D01*
X004037Y018868D01*
X004156Y018807D02*
X004217Y018868D01*
X004338Y018868D01*
X004399Y018807D01*
X004399Y018747D01*
X004156Y018504D01*
X004399Y018504D01*
X000475Y014045D02*
X000475Y013755D01*
X000668Y013755D01*
X000770Y013803D02*
X000818Y013755D01*
X000915Y013755D01*
X000963Y013803D01*
X000963Y013900D01*
X000915Y013948D01*
X000818Y013948D01*
X000770Y013900D01*
X000770Y013803D01*
X001064Y013803D02*
X001113Y013755D01*
X001258Y013755D01*
X001258Y013948D01*
X001359Y013948D02*
X001456Y013948D01*
X001407Y013997D02*
X001407Y013803D01*
X001456Y013755D01*
X001555Y013900D02*
X001749Y013900D01*
X001652Y013997D02*
X001652Y013803D01*
X001064Y013803D02*
X001064Y013948D01*
X001064Y013405D02*
X001209Y013405D01*
X001258Y013357D01*
X001258Y013163D01*
X001209Y013115D01*
X001064Y013115D01*
X001064Y013405D01*
X000963Y013405D02*
X000963Y013115D01*
X000770Y013405D01*
X000770Y013115D01*
X000668Y013163D02*
X000620Y013115D01*
X000523Y013115D01*
X000475Y013163D01*
X000475Y013357D01*
X000523Y013405D01*
X000620Y013405D01*
X000668Y013357D01*
X000668Y013260D02*
X000572Y013260D01*
X000668Y013260D02*
X000668Y013163D01*
X000475Y012765D02*
X000475Y012475D01*
X000668Y012475D01*
X000770Y012523D02*
X000818Y012475D01*
X000915Y012475D01*
X000963Y012523D01*
X000963Y012620D01*
X000915Y012668D01*
X000818Y012668D01*
X000770Y012620D01*
X000770Y012523D01*
X001064Y012523D02*
X001113Y012475D01*
X001258Y012475D01*
X001258Y012668D01*
X001359Y012668D02*
X001456Y012668D01*
X001407Y012717D02*
X001407Y012523D01*
X001456Y012475D01*
X001555Y012620D02*
X001749Y012620D01*
X001064Y012668D02*
X001064Y012523D01*
X003151Y013153D02*
X003212Y013092D01*
X003333Y013092D01*
X003394Y013153D01*
X003394Y013456D01*
X003514Y013335D02*
X003635Y013456D01*
X003635Y013092D01*
X003514Y013092D02*
X003756Y013092D01*
X003151Y013153D02*
X003151Y013456D01*
X011365Y012608D02*
X011365Y012361D01*
X011427Y012299D01*
X011550Y012299D01*
X011612Y012361D01*
X011733Y012299D02*
X011980Y012299D01*
X011857Y012299D02*
X011857Y012669D01*
X011733Y012546D01*
X011612Y012608D02*
X011550Y012669D01*
X011427Y012669D01*
X011365Y012608D01*
X012102Y012608D02*
X012163Y012669D01*
X012287Y012669D01*
X012349Y012608D01*
X012349Y012546D01*
X012287Y012484D01*
X012349Y012423D01*
X012349Y012361D01*
X012287Y012299D01*
X012163Y012299D01*
X012102Y012361D01*
X012225Y012484D02*
X012287Y012484D01*
X013027Y015499D02*
X012965Y015561D01*
X012965Y015808D01*
X013027Y015869D01*
X013150Y015869D01*
X013212Y015808D01*
X013333Y015746D02*
X013457Y015869D01*
X013457Y015499D01*
X013580Y015499D02*
X013333Y015499D01*
X013212Y015561D02*
X013150Y015499D01*
X013027Y015499D01*
X013702Y015499D02*
X013949Y015746D01*
X013949Y015808D01*
X013887Y015869D01*
X013763Y015869D01*
X013702Y015808D01*
X013702Y015499D02*
X013949Y015499D01*
X013374Y019381D02*
X013127Y019381D01*
X013250Y019381D02*
X013250Y019751D01*
X013127Y019628D01*
X013005Y019628D02*
X012944Y019566D01*
X013005Y019504D01*
X013005Y019443D01*
X012944Y019381D01*
X012820Y019381D01*
X012758Y019443D01*
X012637Y019443D02*
X012575Y019381D01*
X012452Y019381D01*
X012390Y019443D01*
X012390Y019690D01*
X012452Y019751D01*
X012575Y019751D01*
X012637Y019690D01*
X012758Y019690D02*
X012820Y019751D01*
X012944Y019751D01*
X013005Y019690D01*
X013005Y019628D01*
X012944Y019566D02*
X012882Y019566D01*
X015422Y023291D02*
X015545Y023291D01*
X015607Y023353D01*
X015728Y023353D02*
X015790Y023291D01*
X015914Y023291D01*
X015975Y023353D01*
X015975Y023414D01*
X015914Y023476D01*
X015852Y023476D01*
X015914Y023476D02*
X015975Y023538D01*
X015975Y023600D01*
X015914Y023661D01*
X015790Y023661D01*
X015728Y023600D01*
X015607Y023600D02*
X015545Y023661D01*
X015422Y023661D01*
X015360Y023600D01*
X015360Y023353D01*
X015422Y023291D01*
X016097Y023291D02*
X016344Y023538D01*
X016344Y023600D01*
X016282Y023661D01*
X016158Y023661D01*
X016097Y023600D01*
X016097Y023291D02*
X016344Y023291D01*
X012641Y029180D02*
X012641Y029550D01*
X012456Y029365D01*
X012703Y029365D01*
X012334Y029180D02*
X012087Y029180D01*
X012211Y029180D02*
X012211Y029550D01*
X012087Y029426D01*
X011966Y029488D02*
X011904Y029550D01*
X011781Y029550D01*
X011719Y029488D01*
X011719Y029241D01*
X011781Y029180D01*
X011904Y029180D01*
X011966Y029241D01*
X008342Y024571D02*
X008218Y024571D01*
X008157Y024510D01*
X008157Y024448D01*
X008218Y024386D01*
X008404Y024386D01*
X008404Y024263D02*
X008404Y024510D01*
X008342Y024571D01*
X008404Y024263D02*
X008342Y024201D01*
X008218Y024201D01*
X008157Y024263D01*
X008035Y024201D02*
X007788Y024201D01*
X007912Y024201D02*
X007912Y024571D01*
X007788Y024448D01*
X007667Y024510D02*
X007605Y024571D01*
X007482Y024571D01*
X007420Y024510D01*
X007420Y024263D01*
X007482Y024201D01*
X007605Y024201D01*
X007667Y024263D01*
X017317Y008419D02*
X017255Y008358D01*
X017255Y008111D01*
X017317Y008049D01*
X017440Y008049D01*
X017502Y008111D01*
X017623Y008049D02*
X017870Y008049D01*
X017747Y008049D02*
X017747Y008419D01*
X017623Y008296D01*
X017502Y008358D02*
X017440Y008419D01*
X017317Y008419D01*
X017992Y008234D02*
X018177Y008234D01*
X018239Y008173D01*
X018239Y008111D01*
X018177Y008049D01*
X018053Y008049D01*
X017992Y008111D01*
X017992Y008234D01*
X018115Y008358D01*
X018239Y008419D01*
X021234Y006388D02*
X021234Y006085D01*
X021295Y006024D01*
X021416Y006024D01*
X021477Y006085D01*
X021477Y006388D01*
X021596Y006327D02*
X021657Y006388D01*
X021778Y006388D01*
X021839Y006327D01*
X021839Y006267D01*
X021778Y006206D01*
X021839Y006145D01*
X021839Y006085D01*
X021778Y006024D01*
X021657Y006024D01*
X021596Y006085D01*
X021718Y006206D02*
X021778Y006206D01*
X022511Y003376D02*
X022511Y003073D01*
X022572Y003012D01*
X022693Y003012D01*
X022754Y003073D01*
X022754Y003376D01*
X022874Y003194D02*
X023116Y003194D01*
X023056Y003012D02*
X023056Y003376D01*
X022874Y003194D01*
X017059Y004428D02*
X016812Y004181D01*
X016812Y004119D01*
X016690Y004119D02*
X016443Y004119D01*
X016567Y004119D02*
X016567Y004489D01*
X016443Y004366D01*
X016322Y004428D02*
X016260Y004489D01*
X016137Y004489D01*
X016075Y004428D01*
X016075Y004181D01*
X016137Y004119D01*
X016260Y004119D01*
X016322Y004181D01*
X015704Y004633D02*
X015642Y004571D01*
X015518Y004571D01*
X015457Y004633D01*
X015457Y004756D02*
X015580Y004818D01*
X015642Y004818D01*
X015704Y004756D01*
X015704Y004633D01*
X015457Y004756D02*
X015457Y004941D01*
X015704Y004941D01*
X015212Y004941D02*
X015212Y004571D01*
X015335Y004571D02*
X015088Y004571D01*
X014967Y004633D02*
X014905Y004571D01*
X014782Y004571D01*
X014720Y004633D01*
X014720Y004880D01*
X014782Y004941D01*
X014905Y004941D01*
X014967Y004880D01*
X015088Y004818D02*
X015212Y004941D01*
X016812Y004489D02*
X017059Y004489D01*
X017059Y004428D01*
X014562Y007691D02*
X014438Y007691D01*
X014377Y007753D01*
X014377Y007814D01*
X014438Y007876D01*
X014562Y007876D01*
X014624Y007814D01*
X014624Y007753D01*
X014562Y007691D01*
X014562Y007876D02*
X014624Y007938D01*
X014624Y008000D01*
X014562Y008061D01*
X014438Y008061D01*
X014377Y008000D01*
X014377Y007938D01*
X014438Y007876D01*
X014255Y007691D02*
X014008Y007691D01*
X014132Y007691D02*
X014132Y008061D01*
X014008Y007938D01*
X013887Y008000D02*
X013825Y008061D01*
X013702Y008061D01*
X013640Y008000D01*
X013640Y007753D01*
X013702Y007691D01*
X013825Y007691D01*
X013887Y007753D01*
X001443Y004460D02*
X001250Y004460D01*
X001148Y004412D02*
X001148Y004605D01*
X000955Y004605D02*
X000955Y004412D01*
X001052Y004315D01*
X001148Y004412D01*
X001346Y004363D02*
X001346Y004557D01*
X001369Y003485D02*
X001224Y003485D01*
X001224Y003195D01*
X001369Y003195D01*
X001418Y003243D01*
X001418Y003437D01*
X001369Y003485D01*
X001123Y003485D02*
X001123Y003195D01*
X000930Y003485D01*
X000930Y003195D01*
X000828Y003243D02*
X000828Y003340D01*
X000732Y003340D01*
X000828Y003243D02*
X000780Y003195D01*
X000683Y003195D01*
X000635Y003243D01*
X000635Y003437D01*
X000683Y003485D01*
X000780Y003485D01*
X000828Y003437D01*
X000955Y002365D02*
X000955Y002172D01*
X001052Y002075D01*
X001148Y002172D01*
X001148Y002365D01*
X001250Y002220D02*
X001443Y002220D01*
X031675Y023195D02*
X031675Y023565D01*
X031798Y023442D01*
X031922Y023565D01*
X031922Y023195D01*
X032043Y023257D02*
X032105Y023195D01*
X032228Y023195D01*
X032290Y023257D01*
X032290Y023504D01*
X032228Y023565D01*
X032105Y023565D01*
X032043Y023504D01*
X032043Y023257D01*
X032412Y023195D02*
X032412Y023565D01*
X032659Y023195D01*
X032659Y023565D01*
X033148Y023565D02*
X033272Y023565D01*
X033210Y023565D02*
X033210Y023195D01*
X033148Y023195D02*
X033272Y023195D01*
X033394Y023195D02*
X033394Y023565D01*
X033641Y023195D01*
X033641Y023565D01*
X034130Y023195D02*
X034377Y023565D01*
X034867Y023565D02*
X034867Y023195D01*
X034867Y023380D02*
X035114Y023380D01*
X035235Y023380D02*
X035359Y023380D01*
X035235Y023195D02*
X035482Y023195D01*
X035604Y023195D02*
X035604Y023442D01*
X035727Y023565D01*
X035851Y023442D01*
X035851Y023195D01*
X035972Y023195D02*
X036157Y023195D01*
X036219Y023257D01*
X036219Y023504D01*
X036157Y023565D01*
X035972Y023565D01*
X035972Y023195D01*
X035851Y023380D02*
X035604Y023380D01*
X035482Y023565D02*
X035235Y023565D01*
X035235Y023195D01*
X035114Y023195D02*
X035114Y023565D01*
X036340Y023565D02*
X036340Y023195D01*
X036340Y023318D02*
X036525Y023318D01*
X036587Y023380D01*
X036587Y023504D01*
X036525Y023565D01*
X036340Y023565D01*
X036709Y023565D02*
X036709Y023195D01*
X036709Y023380D02*
X036956Y023380D01*
X037077Y023257D02*
X037139Y023195D01*
X037262Y023195D01*
X037324Y023257D01*
X037324Y023504D01*
X037262Y023565D01*
X037139Y023565D01*
X037077Y023504D01*
X037077Y023257D01*
X036956Y023195D02*
X036956Y023565D01*
X037445Y023565D02*
X037692Y023195D01*
X037692Y023565D01*
X037814Y023565D02*
X037814Y023195D01*
X038060Y023195D01*
X037937Y023380D02*
X037814Y023380D01*
X037814Y023565D02*
X038060Y023565D01*
X038550Y023504D02*
X038550Y023257D01*
X038612Y023195D01*
X038735Y023195D01*
X038797Y023257D01*
X038797Y023504D01*
X038735Y023565D01*
X038612Y023565D01*
X038550Y023504D01*
X038919Y023565D02*
X038919Y023257D01*
X038980Y023195D01*
X039104Y023195D01*
X039165Y023257D01*
X039165Y023565D01*
X039287Y023565D02*
X039534Y023565D01*
X039410Y023565D02*
X039410Y023195D01*
X037445Y023195D02*
X037445Y023565D01*
X037915Y016845D02*
X038038Y016845D01*
X037977Y016845D02*
X037977Y016475D01*
X038038Y016475D02*
X037915Y016475D01*
X038161Y016475D02*
X038161Y016845D01*
X038407Y016475D01*
X038407Y016845D01*
X038529Y016722D02*
X038652Y016845D01*
X038652Y016475D01*
X038529Y016475D02*
X038776Y016475D01*
X038714Y010125D02*
X038591Y010125D01*
X038529Y010064D01*
X038407Y010125D02*
X038407Y009755D01*
X038161Y010125D01*
X038161Y009755D01*
X038038Y009755D02*
X037915Y009755D01*
X037977Y009755D02*
X037977Y010125D01*
X038038Y010125D02*
X037915Y010125D01*
X038529Y009755D02*
X038776Y010002D01*
X038776Y010064D01*
X038714Y010125D01*
X038776Y009755D02*
X038529Y009755D01*
X038601Y003405D02*
X038601Y003097D01*
X038539Y003035D01*
X038416Y003035D01*
X038354Y003097D01*
X038354Y003405D01*
X038232Y003344D02*
X038171Y003405D01*
X038047Y003405D01*
X037985Y003344D01*
X037985Y003097D01*
X038047Y003035D01*
X038171Y003035D01*
X038232Y003097D01*
X038232Y003344D01*
X038722Y003405D02*
X038969Y003405D01*
X038846Y003405D02*
X038846Y003035D01*
X037496Y003035D02*
X037249Y003405D01*
X037127Y003405D02*
X037003Y003405D01*
X037065Y003405D02*
X037065Y003035D01*
X037003Y003035D02*
X037127Y003035D01*
X037249Y003035D02*
X037496Y003405D01*
X036882Y003405D02*
X036882Y003035D01*
X036635Y003035D02*
X036635Y003405D01*
X036758Y003282D01*
X036882Y003405D01*
D12*
X025298Y003034D02*
X025298Y002727D01*
X025221Y002650D01*
X025068Y002650D01*
X024991Y002727D01*
X025068Y002880D02*
X025298Y002880D01*
X025298Y003034D02*
X025221Y003110D01*
X025068Y003110D01*
X024991Y003034D01*
X024991Y002957D01*
X025068Y002880D01*
X024837Y002880D02*
X024530Y002880D01*
X024761Y003110D01*
X024761Y002650D01*
X024377Y002727D02*
X024300Y002650D01*
X024147Y002650D01*
X024070Y002727D01*
X024070Y003034D01*
X024147Y003110D01*
X024300Y003110D01*
X024377Y003034D01*
X024366Y004210D02*
X024289Y004287D01*
X024366Y004210D02*
X024519Y004210D01*
X024596Y004287D01*
X024596Y004440D01*
X024519Y004517D01*
X024443Y004517D01*
X024289Y004440D01*
X024289Y004670D01*
X024596Y004670D01*
X024750Y004594D02*
X024826Y004670D01*
X024980Y004670D01*
X025057Y004594D01*
X024750Y004287D01*
X024826Y004210D01*
X024980Y004210D01*
X025057Y004287D01*
X025057Y004594D01*
X024750Y004594D02*
X024750Y004287D01*
X024136Y004287D02*
X024059Y004210D01*
X023906Y004210D01*
X023829Y004287D01*
X023829Y004594D01*
X023906Y004670D01*
X024059Y004670D01*
X024136Y004594D01*
X021790Y003071D02*
X021713Y003071D01*
X021406Y003378D01*
X021330Y003378D01*
X021330Y003071D01*
X021330Y002841D02*
X021560Y002610D01*
X021560Y002917D01*
X021790Y002841D02*
X021330Y002841D01*
X021406Y002457D02*
X021330Y002380D01*
X021330Y002227D01*
X021406Y002150D01*
X021713Y002150D01*
X021790Y002227D01*
X021790Y002380D01*
X021713Y002457D01*
X020257Y003647D02*
X020180Y003570D01*
X020026Y003570D01*
X019950Y003647D01*
X019950Y003723D01*
X020026Y003800D01*
X020180Y003800D01*
X020257Y003723D01*
X020257Y003647D01*
X020180Y003800D02*
X020257Y003877D01*
X020257Y003954D01*
X020180Y004030D01*
X020026Y004030D01*
X019950Y003954D01*
X019950Y003877D01*
X020026Y003800D01*
X019796Y003800D02*
X019489Y003800D01*
X019719Y004030D01*
X019719Y003570D01*
X019336Y003647D02*
X019259Y003570D01*
X019106Y003570D01*
X019029Y003647D01*
X019029Y003954D01*
X019106Y004030D01*
X019259Y004030D01*
X019336Y003954D01*
X016631Y008180D02*
X016477Y008180D01*
X016400Y008257D01*
X016247Y008257D02*
X016170Y008180D01*
X016017Y008180D01*
X015940Y008257D01*
X015940Y008564D01*
X016017Y008640D01*
X016170Y008640D01*
X016247Y008564D01*
X016400Y008564D02*
X016477Y008640D01*
X016631Y008640D01*
X016707Y008564D01*
X016707Y008487D01*
X016631Y008410D01*
X016707Y008333D01*
X016707Y008257D01*
X016631Y008180D01*
X016631Y008410D02*
X016554Y008410D01*
X014450Y006338D02*
X014450Y006184D01*
X014373Y006107D01*
X014373Y005954D02*
X014450Y005877D01*
X014450Y005724D01*
X014373Y005647D01*
X014066Y005647D01*
X013990Y005724D01*
X013990Y005877D01*
X014066Y005954D01*
X014066Y006107D02*
X013990Y006184D01*
X013990Y006338D01*
X014066Y006414D01*
X014143Y006414D01*
X014220Y006338D01*
X014297Y006414D01*
X014373Y006414D01*
X014450Y006338D01*
X014220Y006338D02*
X014220Y006261D01*
X014516Y005617D02*
X014440Y005540D01*
X014440Y005386D01*
X014516Y005310D01*
X014450Y005340D02*
X014450Y005493D01*
X014450Y005417D02*
X013990Y005417D01*
X013990Y005493D02*
X013990Y005340D01*
X014440Y005079D02*
X014440Y004926D01*
X014516Y004849D01*
X014823Y004849D01*
X014900Y004926D01*
X014900Y005079D01*
X014823Y005156D01*
X014900Y005310D02*
X014593Y005617D01*
X014516Y005617D01*
X014900Y005617D02*
X014900Y005310D01*
X014516Y005156D02*
X014440Y005079D01*
X010351Y004666D02*
X010197Y004589D01*
X010044Y004436D01*
X010274Y004436D01*
X010351Y004359D01*
X010351Y004282D01*
X010274Y004206D01*
X010121Y004206D01*
X010044Y004282D01*
X010044Y004436D01*
X009890Y004512D02*
X009814Y004436D01*
X009890Y004359D01*
X009890Y004282D01*
X009814Y004206D01*
X009660Y004206D01*
X009583Y004282D01*
X009430Y004282D02*
X009353Y004206D01*
X009200Y004206D01*
X009123Y004282D01*
X009123Y004589D01*
X009200Y004666D01*
X009353Y004666D01*
X009430Y004589D01*
X009583Y004589D02*
X009660Y004666D01*
X009814Y004666D01*
X009890Y004589D01*
X009890Y004512D01*
X009814Y004436D02*
X009737Y004436D01*
X007740Y005930D02*
X007280Y005930D01*
X007280Y006160D01*
X007356Y006237D01*
X007510Y006237D01*
X007587Y006160D01*
X007587Y005930D01*
X007587Y006083D02*
X007740Y006237D01*
X007510Y006390D02*
X007510Y006697D01*
X007587Y006851D02*
X007510Y006928D01*
X007510Y007081D01*
X007587Y007158D01*
X007663Y007158D01*
X007740Y007081D01*
X007740Y006928D01*
X007663Y006851D01*
X007587Y006851D01*
X007510Y006928D02*
X007433Y006851D01*
X007356Y006851D01*
X007280Y006928D01*
X007280Y007081D01*
X007356Y007158D01*
X007433Y007158D01*
X007510Y007081D01*
X007587Y007430D02*
X007587Y007660D01*
X007510Y007737D01*
X007356Y007737D01*
X007280Y007660D01*
X007280Y007430D01*
X007740Y007430D01*
X007846Y007401D02*
X007923Y007324D01*
X008076Y007324D01*
X008153Y007401D01*
X008306Y007401D02*
X008383Y007324D01*
X008536Y007324D01*
X008613Y007401D01*
X008613Y007478D01*
X008536Y007555D01*
X008460Y007555D01*
X008536Y007555D02*
X008613Y007631D01*
X008613Y007708D01*
X008536Y007785D01*
X008383Y007785D01*
X008306Y007708D01*
X008153Y007708D02*
X008076Y007785D01*
X007923Y007785D01*
X007846Y007708D01*
X007846Y007401D01*
X007587Y007583D02*
X007740Y007737D01*
X007510Y007890D02*
X007510Y008197D01*
X007663Y008351D02*
X007356Y008658D01*
X007280Y008658D01*
X007280Y008351D01*
X007280Y008121D02*
X007510Y007890D01*
X007740Y008121D02*
X007280Y008121D01*
X007663Y008351D02*
X007740Y008351D01*
X008767Y007785D02*
X008767Y007555D01*
X008920Y007631D01*
X008997Y007631D01*
X009074Y007555D01*
X009074Y007401D01*
X008997Y007324D01*
X008843Y007324D01*
X008767Y007401D01*
X008767Y007785D02*
X009074Y007785D01*
X007740Y006621D02*
X007280Y006621D01*
X007510Y006390D01*
X006198Y005994D02*
X006198Y005917D01*
X006121Y005840D01*
X006198Y005763D01*
X006198Y005687D01*
X006121Y005610D01*
X005968Y005610D01*
X005891Y005687D01*
X005737Y005687D02*
X005661Y005610D01*
X005507Y005610D01*
X005430Y005687D01*
X005277Y005687D02*
X005200Y005610D01*
X005047Y005610D01*
X004970Y005687D01*
X004970Y005994D01*
X005047Y006070D01*
X005200Y006070D01*
X005277Y005994D01*
X005430Y005994D02*
X005507Y006070D01*
X005661Y006070D01*
X005737Y005994D01*
X005737Y005917D01*
X005661Y005840D01*
X005737Y005763D01*
X005737Y005687D01*
X005661Y005840D02*
X005584Y005840D01*
X005891Y005994D02*
X005968Y006070D01*
X006121Y006070D01*
X006198Y005994D01*
X006121Y005840D02*
X006044Y005840D01*
X004658Y005274D02*
X004658Y004967D01*
X004581Y004890D01*
X004428Y004890D01*
X004351Y004967D01*
X004658Y005274D01*
X004581Y005350D01*
X004428Y005350D01*
X004351Y005274D01*
X004351Y004967D01*
X004197Y004967D02*
X004121Y004890D01*
X003967Y004890D01*
X003890Y004967D01*
X003737Y004967D02*
X003660Y004890D01*
X003507Y004890D01*
X003430Y004967D01*
X003430Y005274D01*
X003507Y005350D01*
X003660Y005350D01*
X003737Y005274D01*
X003890Y005274D02*
X003967Y005350D01*
X004121Y005350D01*
X004197Y005274D01*
X004197Y005197D01*
X004121Y005120D01*
X004197Y005043D01*
X004197Y004967D01*
X004121Y005120D02*
X004044Y005120D01*
X004037Y005610D02*
X003730Y005610D01*
X004037Y005917D01*
X004037Y005994D01*
X003961Y006070D01*
X003807Y006070D01*
X003730Y005994D01*
X003577Y005994D02*
X003500Y006070D01*
X003347Y006070D01*
X003270Y005994D01*
X003270Y005687D01*
X003347Y005610D01*
X003500Y005610D01*
X003577Y005687D01*
X004191Y005687D02*
X004268Y005610D01*
X004421Y005610D01*
X004498Y005687D01*
X004498Y005994D01*
X004421Y006070D01*
X004268Y006070D01*
X004191Y005994D01*
X004191Y005917D01*
X004268Y005840D01*
X004498Y005840D01*
X002871Y006822D02*
X002794Y006746D01*
X002641Y006746D01*
X002564Y006822D01*
X002564Y006976D01*
X002794Y006976D01*
X002871Y006899D01*
X002871Y006822D01*
X002717Y007129D02*
X002564Y006976D01*
X002410Y007052D02*
X002103Y006746D01*
X002410Y006746D01*
X002410Y007052D02*
X002410Y007129D01*
X002334Y007206D01*
X002180Y007206D01*
X002103Y007129D01*
X001950Y007129D02*
X001873Y007206D01*
X001720Y007206D01*
X001643Y007129D01*
X001643Y006822D01*
X001720Y006746D01*
X001873Y006746D01*
X001950Y006822D01*
X002717Y007129D02*
X002871Y007206D01*
X002759Y003210D02*
X002606Y003210D01*
X002529Y003134D01*
X002529Y002827D01*
X002606Y002750D01*
X002759Y002750D01*
X002836Y002827D01*
X002989Y002750D02*
X003296Y003057D01*
X003296Y003134D01*
X003219Y003210D01*
X003066Y003210D01*
X002989Y003134D01*
X002836Y003134D02*
X002759Y003210D01*
X002989Y002750D02*
X003296Y002750D01*
X003450Y002827D02*
X003450Y002903D01*
X003526Y002980D01*
X003680Y002980D01*
X003757Y002903D01*
X003757Y002827D01*
X003680Y002750D01*
X003526Y002750D01*
X003450Y002827D01*
X003526Y002980D02*
X003450Y003057D01*
X003450Y003134D01*
X003526Y003210D01*
X003680Y003210D01*
X003757Y003134D01*
X003757Y003057D01*
X003680Y002980D01*
X004100Y001926D02*
X004023Y001849D01*
X004023Y001542D01*
X004100Y001466D01*
X004253Y001466D01*
X004330Y001542D01*
X004483Y001466D02*
X004790Y001772D01*
X004790Y001849D01*
X004714Y001926D01*
X004560Y001926D01*
X004483Y001849D01*
X004330Y001849D02*
X004253Y001926D01*
X004100Y001926D01*
X004483Y001466D02*
X004790Y001466D01*
X004944Y001466D02*
X004944Y001542D01*
X005251Y001849D01*
X005251Y001926D01*
X004944Y001926D01*
X006109Y002787D02*
X006109Y003094D01*
X006186Y003170D01*
X006339Y003170D01*
X006416Y003094D01*
X006569Y003094D02*
X006646Y003170D01*
X006799Y003170D01*
X006876Y003094D01*
X006876Y003017D01*
X006799Y002940D01*
X006876Y002863D01*
X006876Y002787D01*
X006799Y002710D01*
X006646Y002710D01*
X006569Y002787D01*
X006416Y002787D02*
X006339Y002710D01*
X006186Y002710D01*
X006109Y002787D01*
X006723Y002940D02*
X006799Y002940D01*
X007030Y002940D02*
X007337Y002940D01*
X007260Y002710D02*
X007260Y003170D01*
X007030Y002940D01*
X007069Y001530D02*
X007299Y001530D01*
X007376Y001454D01*
X007376Y001300D01*
X007299Y001223D01*
X007069Y001223D01*
X007069Y001070D02*
X007069Y001530D01*
X007222Y001223D02*
X007376Y001070D01*
X007529Y001300D02*
X007836Y001300D01*
X007990Y001377D02*
X008066Y001300D01*
X008297Y001300D01*
X008297Y001147D02*
X008297Y001454D01*
X008220Y001530D01*
X008066Y001530D01*
X007990Y001454D01*
X007990Y001377D01*
X007990Y001147D02*
X008066Y001070D01*
X008220Y001070D01*
X008297Y001147D01*
X008729Y001223D02*
X008959Y001223D01*
X009036Y001300D01*
X009036Y001454D01*
X008959Y001530D01*
X008729Y001530D01*
X008729Y001070D01*
X008882Y001223D02*
X009036Y001070D01*
X009189Y001147D02*
X009266Y001070D01*
X009419Y001070D01*
X009496Y001147D01*
X009496Y001300D01*
X009419Y001377D01*
X009343Y001377D01*
X009189Y001300D01*
X009189Y001530D01*
X009496Y001530D01*
X009650Y001454D02*
X009726Y001530D01*
X009880Y001530D01*
X009957Y001454D01*
X009650Y001147D01*
X009726Y001070D01*
X009880Y001070D01*
X009957Y001147D01*
X009957Y001454D01*
X009650Y001454D02*
X009650Y001147D01*
X007759Y001070D02*
X007759Y001530D01*
X007529Y001300D01*
X013986Y013170D02*
X014139Y013170D01*
X014216Y013247D01*
X014369Y013170D02*
X014676Y013477D01*
X014676Y013554D01*
X014599Y013630D01*
X014446Y013630D01*
X014369Y013554D01*
X014216Y013554D02*
X014139Y013630D01*
X013986Y013630D01*
X013909Y013554D01*
X013909Y013247D01*
X013986Y013170D01*
X014369Y013170D02*
X014676Y013170D01*
X014830Y013247D02*
X015137Y013554D01*
X015137Y013247D01*
X015060Y013170D01*
X014906Y013170D01*
X014830Y013247D01*
X014830Y013554D01*
X014906Y013630D01*
X015060Y013630D01*
X015137Y013554D01*
X014630Y013762D02*
X014630Y013916D01*
X014630Y013839D02*
X014170Y013839D01*
X014170Y013762D02*
X014170Y013916D01*
X014246Y014069D02*
X014553Y014069D01*
X014630Y014146D01*
X014630Y014299D01*
X014553Y014376D01*
X014630Y014530D02*
X014323Y014837D01*
X014246Y014837D01*
X014170Y014760D01*
X014170Y014606D01*
X014246Y014530D01*
X014246Y014376D02*
X014170Y014299D01*
X014170Y014146D01*
X014246Y014069D01*
X014630Y014530D02*
X014630Y014837D01*
X012577Y015410D02*
X012270Y015410D01*
X012423Y015410D02*
X012423Y015870D01*
X012270Y015717D01*
X012116Y015717D02*
X011809Y015410D01*
X012116Y015410D01*
X012116Y015717D02*
X012116Y015794D01*
X012039Y015870D01*
X011886Y015870D01*
X011809Y015794D01*
X011656Y015794D02*
X011579Y015870D01*
X011426Y015870D01*
X011349Y015794D01*
X011349Y015487D01*
X011426Y015410D01*
X011579Y015410D01*
X011656Y015487D01*
X016410Y019586D02*
X016486Y019509D01*
X016793Y019509D01*
X016870Y019586D01*
X016870Y019739D01*
X016793Y019816D01*
X016870Y019969D02*
X016563Y020276D01*
X016486Y020276D01*
X016410Y020199D01*
X016410Y020046D01*
X016486Y019969D01*
X016486Y019816D02*
X016410Y019739D01*
X016410Y019586D01*
X016870Y019969D02*
X016870Y020276D01*
X016793Y020430D02*
X016870Y020506D01*
X016870Y020660D01*
X016793Y020737D01*
X016717Y020737D01*
X016640Y020660D01*
X016640Y020583D01*
X016640Y020660D02*
X016563Y020737D01*
X016486Y020737D01*
X016410Y020660D01*
X016410Y020506D01*
X016486Y020430D01*
X014997Y021407D02*
X014920Y021330D01*
X014766Y021330D01*
X014690Y021407D01*
X014690Y021560D02*
X014843Y021637D01*
X014920Y021637D01*
X014997Y021560D01*
X014997Y021407D01*
X014690Y021560D02*
X014690Y021790D01*
X014997Y021790D01*
X014536Y021714D02*
X014459Y021790D01*
X014306Y021790D01*
X014229Y021714D01*
X014229Y021407D01*
X014306Y021330D01*
X014459Y021330D01*
X014536Y021407D01*
X014076Y021330D02*
X013922Y021330D01*
X013999Y021330D02*
X013999Y021790D01*
X013922Y021790D02*
X014076Y021790D01*
X014108Y023290D02*
X013801Y023290D01*
X014108Y023597D01*
X014108Y023674D01*
X014031Y023750D01*
X013878Y023750D01*
X013801Y023674D01*
X013647Y023674D02*
X013571Y023750D01*
X013417Y023750D01*
X013340Y023674D01*
X013187Y023674D02*
X013110Y023750D01*
X012957Y023750D01*
X012880Y023674D01*
X012880Y023367D01*
X012957Y023290D01*
X013110Y023290D01*
X013187Y023367D01*
X013340Y023290D02*
X013647Y023597D01*
X013647Y023674D01*
X013647Y023290D02*
X013340Y023290D01*
X010220Y026550D02*
X010220Y027010D01*
X009990Y026780D01*
X010297Y026780D01*
X009836Y026627D02*
X009759Y026550D01*
X009606Y026550D01*
X009529Y026627D01*
X009529Y026934D01*
X009606Y027010D01*
X009759Y027010D01*
X009836Y026934D01*
X009376Y027010D02*
X009222Y027010D01*
X009299Y027010D02*
X009299Y026550D01*
X009222Y026550D02*
X009376Y026550D01*
X008727Y026530D02*
X008420Y026530D01*
X008574Y026530D02*
X008574Y026990D01*
X008420Y026837D01*
X008267Y026914D02*
X008190Y026990D01*
X008037Y026990D01*
X007960Y026914D01*
X007960Y026607D01*
X008037Y026530D01*
X008190Y026530D01*
X008267Y026607D01*
X008100Y028530D02*
X008100Y028990D01*
X007870Y028760D01*
X008177Y028760D01*
X007716Y028607D02*
X007639Y028530D01*
X007486Y028530D01*
X007409Y028607D01*
X007409Y028914D01*
X007486Y028990D01*
X007639Y028990D01*
X007716Y028914D01*
X004407Y028170D02*
X004100Y028170D01*
X004100Y027940D01*
X004253Y028017D01*
X004330Y028017D01*
X004407Y027940D01*
X004407Y027787D01*
X004330Y027710D01*
X004176Y027710D01*
X004100Y027787D01*
X003946Y027787D02*
X003869Y027710D01*
X003716Y027710D01*
X003639Y027787D01*
X003639Y028094D01*
X003716Y028170D01*
X003869Y028170D01*
X003946Y028094D01*
X005327Y023280D02*
X005250Y023204D01*
X005250Y022897D01*
X005327Y022820D01*
X005480Y022820D01*
X005557Y022897D01*
X005710Y022897D02*
X005787Y022820D01*
X005941Y022820D01*
X006017Y022897D01*
X006017Y022973D01*
X005941Y023050D01*
X005710Y023050D01*
X005710Y022897D01*
X005710Y023050D02*
X005864Y023204D01*
X006017Y023280D01*
X005557Y023204D02*
X005480Y023280D01*
X005327Y023280D01*
X017850Y023408D02*
X017850Y023101D01*
X018080Y023101D01*
X018003Y023254D01*
X018003Y023331D01*
X018080Y023408D01*
X018233Y023408D01*
X018310Y023331D01*
X018310Y023178D01*
X018233Y023101D01*
X018310Y022947D02*
X018310Y022640D01*
X018003Y022947D01*
X017926Y022947D01*
X017850Y022871D01*
X017850Y022717D01*
X017926Y022640D01*
X017926Y022487D02*
X017850Y022410D01*
X017850Y022257D01*
X017926Y022180D01*
X018233Y022180D01*
X018310Y022257D01*
X018310Y022410D01*
X018233Y022487D01*
X018233Y023600D02*
X017926Y023600D01*
X017850Y023677D01*
X017850Y023830D01*
X017926Y023907D01*
X017926Y024060D02*
X017850Y024137D01*
X017850Y024291D01*
X017926Y024367D01*
X018003Y024367D01*
X018310Y024060D01*
X018310Y024367D01*
X018080Y024521D02*
X018080Y024828D01*
X018310Y024751D02*
X017850Y024751D01*
X018080Y024521D01*
X018233Y023907D02*
X018310Y023830D01*
X018310Y023677D01*
X018233Y023600D01*
X018577Y025390D02*
X018730Y025390D01*
X018807Y025467D01*
X018960Y025467D02*
X019037Y025390D01*
X019191Y025390D01*
X019267Y025467D01*
X019267Y025543D01*
X019191Y025620D01*
X019114Y025620D01*
X019191Y025620D02*
X019267Y025697D01*
X019267Y025774D01*
X019191Y025850D01*
X019037Y025850D01*
X018960Y025774D01*
X018807Y025774D02*
X018730Y025850D01*
X018577Y025850D01*
X018500Y025774D01*
X018500Y025467D01*
X018577Y025390D01*
X019421Y025390D02*
X019421Y025467D01*
X019728Y025774D01*
X019728Y025850D01*
X019421Y025850D01*
X021999Y028357D02*
X022076Y028280D01*
X022229Y028280D01*
X022306Y028357D01*
X022459Y028510D02*
X022766Y028510D01*
X022920Y028357D02*
X022996Y028280D01*
X023150Y028280D01*
X023227Y028357D01*
X023227Y028433D01*
X023150Y028510D01*
X023073Y028510D01*
X023150Y028510D02*
X023227Y028587D01*
X023227Y028664D01*
X023150Y028740D01*
X022996Y028740D01*
X022920Y028664D01*
X022689Y028740D02*
X022459Y028510D01*
X022306Y028664D02*
X022229Y028740D01*
X022076Y028740D01*
X021999Y028664D01*
X021999Y028357D01*
X022689Y028280D02*
X022689Y028740D01*
X024629Y027794D02*
X024629Y027487D01*
X024706Y027410D01*
X024859Y027410D01*
X024936Y027487D01*
X025089Y027640D02*
X025396Y027640D01*
X025550Y027640D02*
X025857Y027640D01*
X025780Y027410D02*
X025780Y027870D01*
X025550Y027640D01*
X025319Y027410D02*
X025319Y027870D01*
X025089Y027640D01*
X024936Y027794D02*
X024859Y027870D01*
X024706Y027870D01*
X024629Y027794D01*
X024331Y024520D02*
X024408Y024444D01*
X024101Y024137D01*
X024178Y024060D01*
X024331Y024060D01*
X024408Y024137D01*
X024408Y024444D01*
X024331Y024520D02*
X024178Y024520D01*
X024101Y024444D01*
X024101Y024137D01*
X023947Y024290D02*
X023640Y024290D01*
X023871Y024520D01*
X023871Y024060D01*
X023871Y023680D02*
X023640Y023450D01*
X023947Y023450D01*
X024101Y023450D02*
X024254Y023527D01*
X024331Y023527D01*
X024408Y023450D01*
X024408Y023297D01*
X024331Y023220D01*
X024178Y023220D01*
X024101Y023297D01*
X024149Y023194D02*
X024149Y022887D01*
X024226Y022810D01*
X024379Y022810D01*
X024456Y022887D01*
X024609Y022887D02*
X024686Y022810D01*
X024839Y022810D01*
X024916Y022887D01*
X024916Y022963D01*
X024839Y023040D01*
X024763Y023040D01*
X024839Y023040D02*
X024916Y023117D01*
X024916Y023194D01*
X024839Y023270D01*
X024686Y023270D01*
X024609Y023194D01*
X024456Y023194D02*
X024379Y023270D01*
X024226Y023270D01*
X024149Y023194D01*
X024101Y023450D02*
X024101Y023680D01*
X024408Y023680D01*
X025070Y023194D02*
X025070Y023117D01*
X025146Y023040D01*
X025377Y023040D01*
X025377Y022887D02*
X025377Y023194D01*
X025300Y023270D01*
X025146Y023270D01*
X025070Y023194D01*
X025070Y022887D02*
X025146Y022810D01*
X025300Y022810D01*
X025377Y022887D01*
X025377Y022430D02*
X025223Y022354D01*
X025070Y022200D01*
X025300Y022200D01*
X025377Y022123D01*
X025377Y022047D01*
X025300Y021970D01*
X025146Y021970D01*
X025070Y022047D01*
X025070Y022200D01*
X024916Y022200D02*
X024609Y022200D01*
X024839Y022430D01*
X024839Y021970D01*
X024456Y022047D02*
X024379Y021970D01*
X024226Y021970D01*
X024149Y022047D01*
X024149Y022354D01*
X024226Y022430D01*
X024379Y022430D01*
X024456Y022354D01*
X023871Y023220D02*
X023871Y023680D01*
X023487Y023604D02*
X023410Y023680D01*
X023257Y023680D01*
X023180Y023604D01*
X023180Y023297D01*
X023257Y023220D01*
X023410Y023220D01*
X023487Y023297D01*
X023070Y023229D02*
X022993Y023306D01*
X023070Y023229D02*
X023070Y023076D01*
X022993Y022999D01*
X022686Y022999D01*
X022610Y023076D01*
X022610Y023229D01*
X022686Y023306D01*
X022840Y023460D02*
X022840Y023690D01*
X022917Y023767D01*
X022993Y023767D01*
X023070Y023690D01*
X023070Y023536D01*
X022993Y023460D01*
X022840Y023460D01*
X022686Y023613D01*
X022610Y023767D01*
X023180Y024137D02*
X023257Y024060D01*
X023410Y024060D01*
X023487Y024137D01*
X023487Y024444D02*
X023410Y024520D01*
X023257Y024520D01*
X023180Y024444D01*
X023180Y024137D01*
X023070Y022846D02*
X023070Y022692D01*
X023070Y022769D02*
X022610Y022769D01*
X022610Y022692D02*
X022610Y022846D01*
X022400Y019867D02*
X022400Y019560D01*
X022093Y019867D01*
X022016Y019867D01*
X021940Y019790D01*
X021940Y019636D01*
X022016Y019560D01*
X022170Y019406D02*
X022170Y019099D01*
X021940Y019329D01*
X022400Y019329D01*
X022323Y018946D02*
X022400Y018869D01*
X022400Y018716D01*
X022323Y018639D01*
X022016Y018639D01*
X021940Y018716D01*
X021940Y018869D01*
X022016Y018946D01*
X021873Y018258D02*
X021797Y018258D01*
X021720Y018181D01*
X021720Y018028D01*
X021643Y017951D01*
X021566Y017951D01*
X021490Y018028D01*
X021490Y018181D01*
X021566Y018258D01*
X021643Y018258D01*
X021720Y018181D01*
X021720Y018028D02*
X021797Y017951D01*
X021873Y017951D01*
X021950Y018028D01*
X021950Y018181D01*
X021873Y018258D01*
X021873Y017797D02*
X021797Y017797D01*
X021720Y017721D01*
X021720Y017644D01*
X021720Y017721D02*
X021643Y017797D01*
X021566Y017797D01*
X021490Y017721D01*
X021490Y017567D01*
X021566Y017490D01*
X021566Y017337D02*
X021490Y017260D01*
X021490Y017107D01*
X021566Y017030D01*
X021873Y017030D01*
X021950Y017107D01*
X021950Y017260D01*
X021873Y017337D01*
X021873Y017490D02*
X021950Y017567D01*
X021950Y017721D01*
X021873Y017797D01*
X023349Y017887D02*
X023426Y017810D01*
X023579Y017810D01*
X023656Y017887D01*
X023809Y018040D02*
X024116Y018040D01*
X024270Y018117D02*
X024423Y018270D01*
X024423Y017810D01*
X024270Y017810D02*
X024577Y017810D01*
X024039Y017810D02*
X024039Y018270D01*
X023809Y018040D01*
X023656Y018194D02*
X023579Y018270D01*
X023426Y018270D01*
X023349Y018194D01*
X023349Y017887D01*
D13*
X025987Y018661D02*
X027965Y018661D01*
X025987Y018661D02*
X025987Y022579D01*
X027965Y022579D01*
X027965Y023661D02*
X025987Y023661D01*
X025987Y027579D01*
X027965Y027579D01*
X023490Y032237D02*
X017016Y031095D01*
X016243Y035477D01*
X022718Y036618D01*
X023490Y032237D01*
X022855Y035843D02*
X016380Y034701D01*
X018155Y035854D02*
X017738Y038219D01*
X017912Y038369D01*
X020160Y038766D01*
X020375Y038684D01*
X020792Y036319D01*
X020704Y036593D02*
X018180Y035938D01*
X018146Y036132D02*
X020669Y036787D01*
X020635Y036981D02*
X018112Y036326D01*
X018078Y036520D02*
X020601Y037175D01*
X020567Y037368D02*
X018044Y036714D01*
X018010Y036908D02*
X020533Y037562D01*
X020498Y037756D02*
X017975Y037101D01*
X017941Y037295D02*
X020464Y037950D01*
X020430Y038144D02*
X017907Y037489D01*
X017873Y037683D02*
X020396Y038338D01*
X020362Y038532D02*
X017839Y037877D01*
X017804Y038071D02*
X020240Y038710D01*
X020160Y038766D02*
X019921Y040123D01*
X017672Y039726D01*
X017912Y038369D01*
X022155Y037319D02*
X022285Y036582D01*
X022718Y036618D02*
X022581Y037394D01*
X022155Y037319D01*
X026401Y037265D02*
X027174Y032884D01*
X033649Y034026D01*
X032876Y038407D01*
X032739Y039182D01*
X032313Y039107D01*
X032443Y038370D01*
X032876Y038407D02*
X026401Y037265D01*
X026538Y036490D02*
X033013Y037631D01*
X030950Y038107D02*
X030533Y040472D01*
X030319Y040554D01*
X028070Y040158D01*
X027897Y040007D01*
X028314Y037642D01*
X028339Y037727D02*
X030862Y038381D01*
X030828Y038575D02*
X028305Y037920D01*
X028270Y038114D02*
X030793Y038769D01*
X030759Y038963D02*
X028236Y038308D01*
X028202Y038502D02*
X030725Y039157D01*
X030691Y039351D02*
X028168Y038696D01*
X028134Y038890D02*
X030657Y039545D01*
X030623Y039738D02*
X028099Y039084D01*
X028065Y039277D02*
X030588Y039932D01*
X030554Y040126D02*
X028031Y039471D01*
X027997Y039665D02*
X030520Y040320D01*
X030399Y040498D02*
X027963Y039859D01*
X028070Y040158D02*
X027831Y041515D01*
X030079Y041911D01*
X030319Y040554D01*
X037266Y037542D02*
X037268Y037593D01*
X037274Y037644D01*
X037284Y037694D01*
X037297Y037744D01*
X037315Y037792D01*
X037335Y037839D01*
X037360Y037884D01*
X037388Y037927D01*
X037419Y037968D01*
X037453Y038006D01*
X037490Y038041D01*
X037529Y038074D01*
X037571Y038104D01*
X037615Y038130D01*
X037661Y038152D01*
X037709Y038172D01*
X037758Y038187D01*
X037808Y038199D01*
X037858Y038207D01*
X037909Y038211D01*
X037961Y038211D01*
X038012Y038207D01*
X038062Y038199D01*
X038112Y038187D01*
X038161Y038172D01*
X038209Y038152D01*
X038255Y038130D01*
X038299Y038104D01*
X038341Y038074D01*
X038380Y038041D01*
X038417Y038006D01*
X038451Y037968D01*
X038482Y037927D01*
X038510Y037884D01*
X038535Y037839D01*
X038555Y037792D01*
X038573Y037744D01*
X038586Y037694D01*
X038596Y037644D01*
X038602Y037593D01*
X038604Y037542D01*
X038602Y037491D01*
X038596Y037440D01*
X038586Y037390D01*
X038573Y037340D01*
X038555Y037292D01*
X038535Y037245D01*
X038510Y037200D01*
X038482Y037157D01*
X038451Y037116D01*
X038417Y037078D01*
X038380Y037043D01*
X038341Y037010D01*
X038299Y036980D01*
X038255Y036954D01*
X038209Y036932D01*
X038161Y036912D01*
X038112Y036897D01*
X038062Y036885D01*
X038012Y036877D01*
X037961Y036873D01*
X037909Y036873D01*
X037858Y036877D01*
X037808Y036885D01*
X037758Y036897D01*
X037709Y036912D01*
X037661Y036932D01*
X037615Y036954D01*
X037571Y036980D01*
X037529Y037010D01*
X037490Y037043D01*
X037453Y037078D01*
X037419Y037116D01*
X037388Y037157D01*
X037360Y037200D01*
X037335Y037245D01*
X037315Y037292D01*
X037297Y037340D01*
X037284Y037390D01*
X037274Y037440D01*
X037268Y037491D01*
X037266Y037542D01*
X012560Y034830D02*
X013332Y030449D01*
X006857Y029307D01*
X006085Y033688D01*
X012560Y034830D01*
X012423Y035605D01*
X011996Y035530D01*
X012126Y034794D01*
X012696Y034055D02*
X006221Y032913D01*
X007954Y034538D02*
X010477Y035192D01*
X010511Y034999D02*
X007988Y034344D01*
X008022Y034150D02*
X010545Y034805D01*
X010634Y034530D02*
X010217Y036896D01*
X010002Y036978D01*
X007753Y036581D01*
X007580Y036431D01*
X007997Y034066D01*
X007920Y034731D02*
X010443Y035386D01*
X010409Y035580D02*
X007885Y034925D01*
X007851Y035119D02*
X010374Y035774D01*
X010340Y035968D02*
X007817Y035313D01*
X007783Y035507D02*
X010306Y036162D01*
X010272Y036356D02*
X007749Y035701D01*
X007715Y035895D02*
X010238Y036549D01*
X010203Y036743D02*
X007680Y036089D01*
X007646Y036282D02*
X010082Y036922D01*
X010002Y036978D02*
X009763Y038335D01*
X007514Y037938D01*
X007753Y036581D01*
X001046Y031302D02*
X001048Y031353D01*
X001054Y031404D01*
X001064Y031454D01*
X001077Y031504D01*
X001095Y031552D01*
X001115Y031599D01*
X001140Y031644D01*
X001168Y031687D01*
X001199Y031728D01*
X001233Y031766D01*
X001270Y031801D01*
X001309Y031834D01*
X001351Y031864D01*
X001395Y031890D01*
X001441Y031912D01*
X001489Y031932D01*
X001538Y031947D01*
X001588Y031959D01*
X001638Y031967D01*
X001689Y031971D01*
X001741Y031971D01*
X001792Y031967D01*
X001842Y031959D01*
X001892Y031947D01*
X001941Y031932D01*
X001989Y031912D01*
X002035Y031890D01*
X002079Y031864D01*
X002121Y031834D01*
X002160Y031801D01*
X002197Y031766D01*
X002231Y031728D01*
X002262Y031687D01*
X002290Y031644D01*
X002315Y031599D01*
X002335Y031552D01*
X002353Y031504D01*
X002366Y031454D01*
X002376Y031404D01*
X002382Y031353D01*
X002384Y031302D01*
X002382Y031251D01*
X002376Y031200D01*
X002366Y031150D01*
X002353Y031100D01*
X002335Y031052D01*
X002315Y031005D01*
X002290Y030960D01*
X002262Y030917D01*
X002231Y030876D01*
X002197Y030838D01*
X002160Y030803D01*
X002121Y030770D01*
X002079Y030740D01*
X002035Y030714D01*
X001989Y030692D01*
X001941Y030672D01*
X001892Y030657D01*
X001842Y030645D01*
X001792Y030637D01*
X001741Y030633D01*
X001689Y030633D01*
X001638Y030637D01*
X001588Y030645D01*
X001538Y030657D01*
X001489Y030672D01*
X001441Y030692D01*
X001395Y030714D01*
X001351Y030740D01*
X001309Y030770D01*
X001270Y030803D01*
X001233Y030838D01*
X001199Y030876D01*
X001168Y030917D01*
X001140Y030960D01*
X001115Y031005D01*
X001095Y031052D01*
X001077Y031100D01*
X001064Y031150D01*
X001054Y031200D01*
X001048Y031251D01*
X001046Y031302D01*
X027424Y001715D02*
X027426Y001766D01*
X027432Y001817D01*
X027442Y001867D01*
X027455Y001917D01*
X027473Y001965D01*
X027493Y002012D01*
X027518Y002057D01*
X027546Y002100D01*
X027577Y002141D01*
X027611Y002179D01*
X027648Y002214D01*
X027687Y002247D01*
X027729Y002277D01*
X027773Y002303D01*
X027819Y002325D01*
X027867Y002345D01*
X027916Y002360D01*
X027966Y002372D01*
X028016Y002380D01*
X028067Y002384D01*
X028119Y002384D01*
X028170Y002380D01*
X028220Y002372D01*
X028270Y002360D01*
X028319Y002345D01*
X028367Y002325D01*
X028413Y002303D01*
X028457Y002277D01*
X028499Y002247D01*
X028538Y002214D01*
X028575Y002179D01*
X028609Y002141D01*
X028640Y002100D01*
X028668Y002057D01*
X028693Y002012D01*
X028713Y001965D01*
X028731Y001917D01*
X028744Y001867D01*
X028754Y001817D01*
X028760Y001766D01*
X028762Y001715D01*
X028760Y001664D01*
X028754Y001613D01*
X028744Y001563D01*
X028731Y001513D01*
X028713Y001465D01*
X028693Y001418D01*
X028668Y001373D01*
X028640Y001330D01*
X028609Y001289D01*
X028575Y001251D01*
X028538Y001216D01*
X028499Y001183D01*
X028457Y001153D01*
X028413Y001127D01*
X028367Y001105D01*
X028319Y001085D01*
X028270Y001070D01*
X028220Y001058D01*
X028170Y001050D01*
X028119Y001046D01*
X028067Y001046D01*
X028016Y001050D01*
X027966Y001058D01*
X027916Y001070D01*
X027867Y001085D01*
X027819Y001105D01*
X027773Y001127D01*
X027729Y001153D01*
X027687Y001183D01*
X027648Y001216D01*
X027611Y001251D01*
X027577Y001289D01*
X027546Y001330D01*
X027518Y001373D01*
X027493Y001418D01*
X027473Y001465D01*
X027455Y001513D01*
X027442Y001563D01*
X027432Y001613D01*
X027426Y001664D01*
X027424Y001715D01*
D14*
X027304Y003915D02*
X027304Y004365D01*
X027529Y004365D01*
X027604Y004290D01*
X027604Y004140D01*
X027529Y004065D01*
X027304Y004065D01*
X027454Y004065D02*
X027604Y003915D01*
X027764Y003990D02*
X027839Y003915D01*
X027989Y003915D01*
X028064Y003990D01*
X028064Y004065D01*
X027989Y004140D01*
X027764Y004140D01*
X027764Y003990D01*
X027764Y004140D02*
X027914Y004290D01*
X028064Y004365D01*
X028225Y004215D02*
X028375Y004365D01*
X028375Y003915D01*
X028225Y003915D02*
X028525Y003915D01*
X028450Y005035D02*
X028450Y005485D01*
X028225Y005260D01*
X028525Y005260D01*
X028064Y005185D02*
X027989Y005260D01*
X027764Y005260D01*
X027764Y005110D01*
X027839Y005035D01*
X027989Y005035D01*
X028064Y005110D01*
X028064Y005185D01*
X027914Y005410D02*
X027764Y005260D01*
X027604Y005260D02*
X027529Y005185D01*
X027304Y005185D01*
X027454Y005185D02*
X027604Y005035D01*
X027604Y005260D02*
X027604Y005410D01*
X027529Y005485D01*
X027304Y005485D01*
X027304Y005035D01*
X027914Y005410D02*
X028064Y005485D01*
X026456Y007095D02*
X026456Y007685D01*
X025964Y007685D01*
X025964Y007095D01*
X026456Y007095D01*
X024845Y005410D02*
X024770Y005485D01*
X024620Y005485D01*
X024545Y005410D01*
X024384Y005485D02*
X024234Y005410D01*
X024084Y005260D01*
X024309Y005260D01*
X024384Y005185D01*
X024384Y005110D01*
X024309Y005035D01*
X024159Y005035D01*
X024084Y005110D01*
X024084Y005260D01*
X023924Y005260D02*
X023849Y005185D01*
X023624Y005185D01*
X023774Y005185D02*
X023924Y005035D01*
X023924Y005260D02*
X023924Y005410D01*
X023849Y005485D01*
X023624Y005485D01*
X023624Y005035D01*
X024545Y005035D02*
X024845Y005335D01*
X024845Y005410D01*
X024845Y005035D02*
X024545Y005035D01*
X024704Y001005D02*
X024554Y000930D01*
X024404Y000780D01*
X024629Y000780D01*
X024704Y000705D01*
X024704Y000630D01*
X024629Y000555D01*
X024479Y000555D01*
X024404Y000630D01*
X024404Y000780D01*
X024244Y000780D02*
X024244Y000930D01*
X024169Y001005D01*
X023944Y001005D01*
X023944Y000555D01*
X023944Y000705D02*
X024169Y000705D01*
X024244Y000780D01*
X024094Y000705D02*
X024244Y000555D01*
X024865Y000630D02*
X024940Y000555D01*
X025090Y000555D01*
X025165Y000630D01*
X025165Y000705D01*
X025090Y000780D01*
X025015Y000780D01*
X025090Y000780D02*
X025165Y000855D01*
X025165Y000930D01*
X025090Y001005D01*
X024940Y001005D01*
X024865Y000930D01*
X029943Y000455D02*
X039510Y000455D01*
X039510Y001518D01*
X039510Y005061D01*
X039510Y007148D01*
X029943Y007148D01*
X029943Y000455D01*
X029943Y007148D02*
X039510Y007148D01*
X039510Y008211D01*
X039510Y011754D01*
X039510Y013841D01*
X029943Y013841D01*
X029943Y007148D01*
X026456Y010095D02*
X026456Y010685D01*
X025964Y010685D01*
X025964Y010095D01*
X026456Y010095D01*
X026456Y013095D02*
X025964Y013095D01*
X025964Y013685D01*
X026456Y013685D01*
X026456Y013095D01*
X026456Y016095D02*
X025964Y016095D01*
X025964Y016685D01*
X026456Y016685D01*
X026456Y016095D01*
X029943Y013841D02*
X039510Y013841D01*
X039510Y014904D01*
X039510Y018447D01*
X039510Y020534D01*
X039510Y021597D01*
X039510Y025140D01*
X039510Y027227D01*
X029943Y027227D01*
X029943Y020534D01*
X039510Y020534D01*
X029943Y020534D01*
X029943Y013841D01*
X022285Y013780D02*
X022210Y013705D01*
X022285Y013780D02*
X022285Y013931D01*
X022210Y014006D01*
X022135Y014006D01*
X022060Y013931D01*
X022060Y013856D01*
X022060Y013931D02*
X021985Y014006D01*
X021910Y014006D01*
X021835Y013931D01*
X021835Y013780D01*
X021910Y013705D01*
X021910Y013545D02*
X021835Y013470D01*
X021835Y013245D01*
X022285Y013245D01*
X022135Y013245D02*
X022135Y013470D01*
X022060Y013545D01*
X021910Y013545D01*
X022135Y013395D02*
X022285Y013545D01*
X021165Y013405D02*
X020715Y013405D01*
X020715Y013630D01*
X020790Y013705D01*
X020940Y013705D01*
X021015Y013630D01*
X021015Y013405D01*
X021015Y013555D02*
X021165Y013705D01*
X021165Y013865D02*
X021165Y014166D01*
X021165Y014016D02*
X020715Y014016D01*
X020865Y013865D01*
X020045Y012930D02*
X019595Y012930D01*
X019820Y012705D01*
X019820Y013005D01*
X019820Y012544D02*
X019670Y012544D01*
X019595Y012469D01*
X019595Y012244D01*
X020045Y012244D01*
X019895Y012244D02*
X019895Y012469D01*
X019820Y012544D01*
X019895Y012394D02*
X020045Y012544D01*
X021835Y010690D02*
X021835Y010540D01*
X021910Y010465D01*
X021910Y010304D02*
X022060Y010304D01*
X022135Y010229D01*
X022135Y010004D01*
X022285Y010004D02*
X021835Y010004D01*
X021835Y010229D01*
X021910Y010304D01*
X022135Y010154D02*
X022285Y010304D01*
X022285Y010465D02*
X021985Y010765D01*
X021910Y010765D01*
X021835Y010690D01*
X022285Y010765D02*
X022285Y010465D01*
X020066Y008930D02*
X020066Y008630D01*
X019991Y008555D01*
X019841Y008555D01*
X019766Y008630D01*
X019841Y008780D02*
X020066Y008780D01*
X020066Y008930D02*
X019991Y009005D01*
X019841Y009005D01*
X019766Y008930D01*
X019766Y008855D01*
X019841Y008780D01*
X019606Y008555D02*
X019305Y008555D01*
X019456Y008555D02*
X019456Y009005D01*
X019305Y008855D01*
X019145Y008780D02*
X019070Y008705D01*
X018845Y008705D01*
X018845Y008555D02*
X018845Y009005D01*
X019070Y009005D01*
X019145Y008930D01*
X019145Y008780D01*
X018995Y008705D02*
X019145Y008555D01*
X018850Y006946D02*
X018925Y006871D01*
X018925Y006721D01*
X018850Y006646D01*
X018925Y006486D02*
X018925Y006185D01*
X018625Y006486D01*
X018550Y006486D01*
X018475Y006411D01*
X018475Y006260D01*
X018550Y006185D01*
X018550Y006025D02*
X018700Y006025D01*
X018775Y005950D01*
X018775Y005725D01*
X018925Y005725D02*
X018475Y005725D01*
X018475Y005950D01*
X018550Y006025D01*
X018775Y005875D02*
X018925Y006025D01*
X019595Y005909D02*
X019670Y005984D01*
X019745Y005984D01*
X019820Y005909D01*
X019895Y005984D01*
X019970Y005984D01*
X020045Y005909D01*
X020045Y005759D01*
X019970Y005684D01*
X020045Y005524D02*
X019895Y005374D01*
X019895Y005449D02*
X019895Y005224D01*
X020045Y005224D02*
X019595Y005224D01*
X019595Y005449D01*
X019670Y005524D01*
X019820Y005524D01*
X019895Y005449D01*
X019670Y005684D02*
X019595Y005759D01*
X019595Y005909D01*
X019820Y005909D02*
X019820Y005834D01*
X019820Y006145D02*
X019670Y006295D01*
X019595Y006445D01*
X019820Y006370D02*
X019820Y006145D01*
X019970Y006145D01*
X020045Y006220D01*
X020045Y006370D01*
X019970Y006445D01*
X019895Y006445D01*
X019820Y006370D01*
X018850Y006946D02*
X018775Y006946D01*
X018700Y006871D01*
X018700Y006796D01*
X018700Y006871D02*
X018625Y006946D01*
X018550Y006946D01*
X018475Y006871D01*
X018475Y006721D01*
X018550Y006646D01*
X016290Y008555D02*
X016290Y009005D01*
X016065Y008780D01*
X016365Y008780D01*
X015904Y008555D02*
X015604Y008555D01*
X015754Y008555D02*
X015754Y009005D01*
X015604Y008855D01*
X015444Y008930D02*
X015444Y008780D01*
X015369Y008705D01*
X015144Y008705D01*
X015294Y008705D02*
X015444Y008555D01*
X015144Y008555D02*
X015144Y009005D01*
X015369Y009005D01*
X015444Y008930D01*
X015465Y009675D02*
X015766Y009975D01*
X015766Y010050D01*
X015691Y010125D01*
X015540Y010125D01*
X015465Y010050D01*
X015305Y010050D02*
X015305Y009900D01*
X015230Y009825D01*
X015005Y009825D01*
X015005Y009675D02*
X015005Y010125D01*
X015230Y010125D01*
X015305Y010050D01*
X015155Y009825D02*
X015305Y009675D01*
X015465Y009675D02*
X015766Y009675D01*
X015926Y009750D02*
X016001Y009675D01*
X016151Y009675D01*
X016226Y009750D01*
X016226Y009825D01*
X016151Y009900D01*
X015926Y009900D01*
X015926Y009750D01*
X015926Y009900D02*
X016076Y010050D01*
X016226Y010125D01*
X015691Y010795D02*
X015540Y010795D01*
X015465Y010870D01*
X015465Y010945D01*
X015540Y011020D01*
X015691Y011020D01*
X015766Y010945D01*
X015766Y010870D01*
X015691Y010795D01*
X015691Y011020D02*
X015766Y011095D01*
X015766Y011170D01*
X015691Y011245D01*
X015540Y011245D01*
X015465Y011170D01*
X015465Y011095D01*
X015540Y011020D01*
X015305Y011020D02*
X015305Y011170D01*
X015230Y011245D01*
X015005Y011245D01*
X015005Y010795D01*
X015005Y010945D02*
X015230Y010945D01*
X015305Y011020D01*
X015155Y010945D02*
X015305Y010795D01*
X015305Y011915D02*
X015155Y012065D01*
X015230Y012065D02*
X015005Y012065D01*
X015005Y011915D02*
X015005Y012365D01*
X015230Y012365D01*
X015305Y012290D01*
X015305Y012140D01*
X015230Y012065D01*
X015465Y011990D02*
X015465Y011915D01*
X015465Y011990D02*
X015766Y012290D01*
X015766Y012365D01*
X015465Y012365D01*
X015575Y014365D02*
X015575Y014590D01*
X015500Y014665D01*
X015350Y014665D01*
X015275Y014590D01*
X015275Y014365D01*
X015725Y014365D01*
X015575Y014515D02*
X015725Y014665D01*
X015725Y014825D02*
X015725Y015126D01*
X015725Y014976D02*
X015275Y014976D01*
X015425Y014825D01*
X015500Y015286D02*
X015425Y015436D01*
X015425Y015511D01*
X015500Y015586D01*
X015650Y015586D01*
X015725Y015511D01*
X015725Y015361D01*
X015650Y015286D01*
X015500Y015286D02*
X015275Y015286D01*
X015275Y015586D01*
X016395Y015405D02*
X016470Y015255D01*
X016620Y015105D01*
X016620Y015330D01*
X016695Y015405D01*
X016770Y015405D01*
X016845Y015330D01*
X016845Y015180D01*
X016770Y015105D01*
X016620Y015105D01*
X016620Y014944D02*
X016695Y014869D01*
X016695Y014644D01*
X016845Y014644D02*
X016395Y014644D01*
X016395Y014869D01*
X016470Y014944D01*
X016620Y014944D01*
X016695Y014794D02*
X016845Y014944D01*
X019165Y016075D02*
X019165Y016525D01*
X019390Y016525D01*
X019465Y016450D01*
X019465Y016300D01*
X019390Y016225D01*
X019165Y016225D01*
X019315Y016225D02*
X019465Y016075D01*
X019625Y016150D02*
X019700Y016075D01*
X019851Y016075D01*
X019926Y016150D01*
X019926Y016300D01*
X019851Y016375D01*
X019776Y016375D01*
X019625Y016300D01*
X019625Y016525D01*
X019926Y016525D01*
X019851Y017195D02*
X019700Y017195D01*
X019625Y017270D01*
X019625Y017420D02*
X019776Y017495D01*
X019851Y017495D01*
X019926Y017420D01*
X019926Y017270D01*
X019851Y017195D01*
X020086Y017195D02*
X020386Y017495D01*
X020386Y017570D01*
X020311Y017645D01*
X020161Y017645D01*
X020086Y017570D01*
X019926Y017645D02*
X019625Y017645D01*
X019625Y017420D01*
X019465Y017420D02*
X019390Y017345D01*
X019165Y017345D01*
X019165Y017195D02*
X019165Y017645D01*
X019390Y017645D01*
X019465Y017570D01*
X019465Y017420D01*
X019315Y017345D02*
X019465Y017195D01*
X020086Y017195D02*
X020386Y017195D01*
X019905Y018315D02*
X019905Y018390D01*
X020205Y018690D01*
X020205Y018765D01*
X019905Y018765D01*
X019744Y018765D02*
X019444Y018765D01*
X019444Y018540D01*
X019594Y018615D01*
X019669Y018615D01*
X019744Y018540D01*
X019744Y018390D01*
X019669Y018315D01*
X019519Y018315D01*
X019444Y018390D01*
X019284Y018315D02*
X019134Y018465D01*
X019209Y018465D02*
X018984Y018465D01*
X018984Y018315D02*
X018984Y018765D01*
X019209Y018765D01*
X019284Y018690D01*
X019284Y018540D01*
X019209Y018465D01*
X019165Y019435D02*
X019165Y019885D01*
X019390Y019885D01*
X019465Y019810D01*
X019465Y019660D01*
X019390Y019585D01*
X019165Y019585D01*
X019315Y019585D02*
X019465Y019435D01*
X019625Y019510D02*
X019700Y019435D01*
X019851Y019435D01*
X019926Y019510D01*
X019926Y019660D01*
X019851Y019735D01*
X019776Y019735D01*
X019625Y019660D01*
X019625Y019885D01*
X019926Y019885D01*
X020086Y019810D02*
X020086Y019735D01*
X020161Y019660D01*
X020311Y019660D01*
X020386Y019585D01*
X020386Y019510D01*
X020311Y019435D01*
X020161Y019435D01*
X020086Y019510D01*
X020086Y019585D01*
X020161Y019660D01*
X020311Y019660D02*
X020386Y019735D01*
X020386Y019810D01*
X020311Y019885D01*
X020161Y019885D01*
X020086Y019810D01*
X020755Y020505D02*
X020755Y020955D01*
X020980Y020955D01*
X021055Y020880D01*
X021055Y020730D01*
X020980Y020655D01*
X020755Y020655D01*
X020905Y020655D02*
X021055Y020505D01*
X021215Y020580D02*
X021290Y020505D01*
X021441Y020505D01*
X021516Y020580D01*
X021516Y020655D01*
X021441Y020730D01*
X021215Y020730D01*
X021215Y020580D01*
X021215Y020730D02*
X021366Y020880D01*
X021516Y020955D01*
X021676Y020880D02*
X021751Y020955D01*
X021901Y020955D01*
X021976Y020880D01*
X021676Y020580D01*
X021751Y020505D01*
X021901Y020505D01*
X021976Y020580D01*
X021976Y020880D01*
X021676Y020880D02*
X021676Y020580D01*
X018285Y023144D02*
X017835Y023144D01*
X017835Y023369D01*
X017910Y023444D01*
X018060Y023444D01*
X018135Y023369D01*
X018135Y023144D01*
X018135Y023294D02*
X018285Y023444D01*
X018060Y023604D02*
X018060Y023904D01*
X017985Y024065D02*
X017835Y024215D01*
X018285Y024215D01*
X018285Y024065D02*
X018285Y024365D01*
X018285Y023829D02*
X017835Y023829D01*
X018060Y023604D01*
X015586Y024310D02*
X015511Y024235D01*
X015361Y024235D01*
X015286Y024310D01*
X015436Y024460D02*
X015511Y024460D01*
X015586Y024385D01*
X015586Y024310D01*
X015511Y024460D02*
X015586Y024535D01*
X015586Y024610D01*
X015511Y024685D01*
X015361Y024685D01*
X015286Y024610D01*
X015126Y024460D02*
X014825Y024460D01*
X015051Y024685D01*
X015051Y024235D01*
X014665Y024235D02*
X014515Y024385D01*
X014590Y024385D02*
X014365Y024385D01*
X014365Y024235D02*
X014365Y024685D01*
X014590Y024685D01*
X014665Y024610D01*
X014665Y024460D01*
X014590Y024385D01*
X014474Y025275D02*
X014324Y025425D01*
X014399Y025425D02*
X014174Y025425D01*
X014174Y025275D02*
X014174Y025725D01*
X014399Y025725D01*
X014474Y025650D01*
X014474Y025500D01*
X014399Y025425D01*
X014634Y025500D02*
X014934Y025500D01*
X015095Y025350D02*
X015095Y025650D01*
X015170Y025725D01*
X015320Y025725D01*
X015395Y025650D01*
X015095Y025350D01*
X015170Y025275D01*
X015320Y025275D01*
X015395Y025350D01*
X015395Y025650D01*
X014859Y025725D02*
X014859Y025275D01*
X014634Y025500D02*
X014859Y025725D01*
X014806Y027915D02*
X014505Y027915D01*
X014806Y028215D01*
X014806Y028290D01*
X014731Y028365D01*
X014580Y028365D01*
X014505Y028290D01*
X014345Y028290D02*
X014345Y028140D01*
X014270Y028065D01*
X014045Y028065D01*
X014045Y027915D02*
X014045Y028365D01*
X014270Y028365D01*
X014345Y028290D01*
X014195Y028065D02*
X014345Y027915D01*
X014966Y027915D02*
X014966Y027990D01*
X015266Y028290D01*
X015266Y028365D01*
X014966Y028365D01*
X014415Y029857D02*
X013965Y029857D01*
X013965Y030083D01*
X014040Y030158D01*
X014190Y030158D01*
X014265Y030083D01*
X014265Y029857D01*
X014265Y030007D02*
X014415Y030158D01*
X014415Y030318D02*
X014415Y030618D01*
X014415Y030468D02*
X013965Y030468D01*
X014115Y030318D01*
X013965Y030778D02*
X013965Y031078D01*
X014040Y031078D01*
X014340Y030778D01*
X014415Y030778D01*
X017535Y027575D02*
X017985Y027575D01*
X017985Y027425D02*
X017985Y027725D01*
X017685Y027425D02*
X017535Y027575D01*
X017535Y027264D02*
X017535Y026964D01*
X017760Y026964D01*
X017685Y027114D01*
X017685Y027189D01*
X017760Y027264D01*
X017910Y027264D01*
X017985Y027189D01*
X017985Y027039D01*
X017910Y026964D01*
X017985Y026804D02*
X017835Y026654D01*
X017835Y026729D02*
X017835Y026504D01*
X017985Y026504D02*
X017535Y026504D01*
X017535Y026729D01*
X017610Y026804D01*
X017760Y026804D01*
X017835Y026729D01*
X019304Y026445D02*
X019304Y025995D01*
X019304Y026145D02*
X019529Y026145D01*
X019604Y026220D01*
X019604Y026370D01*
X019529Y026445D01*
X019304Y026445D01*
X019454Y026145D02*
X019604Y025995D01*
X019764Y026070D02*
X019839Y025995D01*
X019989Y025995D01*
X020064Y026070D01*
X020064Y026220D01*
X019989Y026295D01*
X019914Y026295D01*
X019764Y026220D01*
X019764Y026445D01*
X020064Y026445D01*
X020225Y026220D02*
X020450Y026220D01*
X020525Y026145D01*
X020525Y026070D01*
X020450Y025995D01*
X020300Y025995D01*
X020225Y026070D01*
X020225Y026220D01*
X020375Y026370D01*
X020525Y026445D01*
X020641Y027115D02*
X020566Y027190D01*
X020641Y027115D02*
X020791Y027115D01*
X020866Y027190D01*
X020866Y027340D01*
X020791Y027415D01*
X020716Y027415D01*
X020566Y027340D01*
X020566Y027565D01*
X020866Y027565D01*
X020406Y027565D02*
X020105Y027565D01*
X020105Y027340D01*
X020256Y027415D01*
X020331Y027415D01*
X020406Y027340D01*
X020406Y027190D01*
X020331Y027115D01*
X020180Y027115D01*
X020105Y027190D01*
X019945Y027115D02*
X019795Y027265D01*
X019870Y027265D02*
X019645Y027265D01*
X019645Y027115D02*
X019645Y027565D01*
X019870Y027565D01*
X019945Y027490D01*
X019945Y027340D01*
X019870Y027265D01*
X019815Y028315D02*
X019815Y028765D01*
X020040Y028765D01*
X020115Y028690D01*
X020115Y028540D01*
X020040Y028465D01*
X019815Y028465D01*
X019965Y028465D02*
X020115Y028315D01*
X020275Y028390D02*
X020350Y028315D01*
X020501Y028315D01*
X020576Y028390D01*
X020576Y028540D01*
X020501Y028615D01*
X020426Y028615D01*
X020275Y028540D01*
X020275Y028765D01*
X020576Y028765D01*
X020736Y028690D02*
X020811Y028765D01*
X020961Y028765D01*
X021036Y028690D01*
X021036Y028615D01*
X020961Y028540D01*
X021036Y028465D01*
X021036Y028390D01*
X020961Y028315D01*
X020811Y028315D01*
X020736Y028390D01*
X020886Y028540D02*
X020961Y028540D01*
X021085Y025485D02*
X021310Y025485D01*
X021385Y025410D01*
X021385Y025260D01*
X021310Y025185D01*
X021085Y025185D01*
X021085Y025035D02*
X021085Y025485D01*
X021235Y025185D02*
X021385Y025035D01*
X021545Y025110D02*
X021620Y025035D01*
X021771Y025035D01*
X021846Y025110D01*
X021846Y025260D01*
X021771Y025335D01*
X021696Y025335D01*
X021545Y025260D01*
X021545Y025485D01*
X021846Y025485D01*
X022006Y025410D02*
X022081Y025485D01*
X022231Y025485D01*
X022306Y025410D01*
X022306Y025110D01*
X022231Y025035D01*
X022081Y025035D01*
X022006Y025110D01*
X022081Y025260D02*
X022306Y025260D01*
X022081Y025260D02*
X022006Y025335D01*
X022006Y025410D01*
X017595Y020101D02*
X017145Y020101D01*
X017370Y019876D01*
X017370Y020176D01*
X017370Y019716D02*
X017520Y019716D01*
X017595Y019641D01*
X017595Y019490D01*
X017520Y019415D01*
X017370Y019415D02*
X017295Y019566D01*
X017295Y019641D01*
X017370Y019716D01*
X017145Y019716D02*
X017145Y019415D01*
X017370Y019415D01*
X017370Y019255D02*
X017445Y019180D01*
X017445Y018955D01*
X017595Y018955D02*
X017145Y018955D01*
X017145Y019180D01*
X017220Y019255D01*
X017370Y019255D01*
X017445Y019105D02*
X017595Y019255D01*
X015426Y018850D02*
X015351Y018925D01*
X015201Y018925D01*
X015126Y018850D01*
X014966Y018700D02*
X014665Y018700D01*
X014891Y018925D01*
X014891Y018475D01*
X015126Y018475D02*
X015426Y018775D01*
X015426Y018850D01*
X015426Y018475D02*
X015126Y018475D01*
X014505Y018475D02*
X014355Y018625D01*
X014430Y018625D02*
X014205Y018625D01*
X014205Y018475D02*
X014205Y018925D01*
X014430Y018925D01*
X014505Y018850D01*
X014505Y018700D01*
X014430Y018625D01*
X014430Y017805D02*
X014205Y017805D01*
X014205Y017355D01*
X014205Y017505D02*
X014430Y017505D01*
X014505Y017580D01*
X014505Y017730D01*
X014430Y017805D01*
X014665Y017730D02*
X014740Y017805D01*
X014891Y017805D01*
X014966Y017730D01*
X014966Y017655D01*
X014891Y017580D01*
X014966Y017505D01*
X014966Y017430D01*
X014891Y017355D01*
X014740Y017355D01*
X014665Y017430D01*
X014505Y017355D02*
X014355Y017505D01*
X014816Y017580D02*
X014891Y017580D01*
X015126Y017655D02*
X015201Y017580D01*
X015426Y017580D01*
X015426Y017430D02*
X015426Y017730D01*
X015351Y017805D01*
X015201Y017805D01*
X015126Y017730D01*
X015126Y017655D01*
X015126Y017430D02*
X015201Y017355D01*
X015351Y017355D01*
X015426Y017430D01*
X011725Y020925D02*
X011275Y020925D01*
X011275Y021150D01*
X011350Y021225D01*
X011500Y021225D01*
X011575Y021150D01*
X011575Y020925D01*
X011575Y021075D02*
X011725Y021225D01*
X011650Y021385D02*
X011725Y021460D01*
X011725Y021611D01*
X011650Y021686D01*
X011575Y021686D01*
X011500Y021611D01*
X011500Y021536D01*
X011500Y021611D02*
X011425Y021686D01*
X011350Y021686D01*
X011275Y021611D01*
X011275Y021460D01*
X011350Y021385D01*
X011350Y021846D02*
X011275Y021921D01*
X011275Y022071D01*
X011350Y022146D01*
X011425Y022146D01*
X011500Y022071D01*
X011500Y021921D01*
X011425Y021846D01*
X011350Y021846D01*
X011500Y021921D02*
X011575Y021846D01*
X011650Y021846D01*
X011725Y021921D01*
X011725Y022071D01*
X011650Y022146D01*
X011575Y022146D01*
X011500Y022071D01*
X010761Y023715D02*
X010611Y023715D01*
X010536Y023790D01*
X010536Y023940D02*
X010686Y024015D01*
X010761Y024015D01*
X010836Y023940D01*
X010836Y023790D01*
X010761Y023715D01*
X010536Y023940D02*
X010536Y024165D01*
X010836Y024165D01*
X010376Y024090D02*
X010376Y024015D01*
X010301Y023940D01*
X010376Y023865D01*
X010376Y023790D01*
X010301Y023715D01*
X010150Y023715D01*
X010075Y023790D01*
X009915Y023715D02*
X009765Y023865D01*
X009840Y023865D02*
X009615Y023865D01*
X009615Y023715D02*
X009615Y024165D01*
X009840Y024165D01*
X009915Y024090D01*
X009915Y023940D01*
X009840Y023865D01*
X010075Y024090D02*
X010150Y024165D01*
X010301Y024165D01*
X010376Y024090D01*
X010301Y023940D02*
X010226Y023940D01*
X012005Y025764D02*
X012005Y025989D01*
X012080Y026064D01*
X012230Y026064D01*
X012305Y025989D01*
X012305Y025764D01*
X012305Y025914D02*
X012455Y026064D01*
X012455Y026224D02*
X012455Y026524D01*
X012455Y026374D02*
X012005Y026374D01*
X012155Y026224D01*
X012080Y026685D02*
X012005Y026760D01*
X012005Y026910D01*
X012080Y026985D01*
X012155Y026985D01*
X012455Y026685D01*
X012455Y026985D01*
X012455Y025764D02*
X012005Y025764D01*
X011145Y025945D02*
X010695Y025945D01*
X010695Y026170D01*
X010770Y026245D01*
X010920Y026245D01*
X010995Y026170D01*
X010995Y025945D01*
X010995Y026095D02*
X011145Y026245D01*
X011145Y026405D02*
X010845Y026706D01*
X010770Y026706D01*
X010695Y026631D01*
X010695Y026480D01*
X010770Y026405D01*
X011145Y026405D02*
X011145Y026706D01*
X011070Y026866D02*
X010995Y026866D01*
X010920Y026941D01*
X010920Y027091D01*
X010995Y027166D01*
X011070Y027166D01*
X011145Y027091D01*
X011145Y026941D01*
X011070Y026866D01*
X010920Y026941D02*
X010845Y026866D01*
X010770Y026866D01*
X010695Y026941D01*
X010695Y027091D01*
X010770Y027166D01*
X010845Y027166D01*
X010920Y027091D01*
X005010Y025093D02*
X005010Y024792D01*
X005010Y024942D02*
X004560Y024942D01*
X004710Y024792D01*
X004635Y024632D02*
X004560Y024557D01*
X004560Y024407D01*
X004635Y024332D01*
X004935Y024332D01*
X005010Y024407D01*
X005010Y024557D01*
X004935Y024632D01*
X005010Y024175D02*
X005010Y024025D01*
X005010Y024100D02*
X004560Y024100D01*
X004560Y024025D02*
X004560Y024175D01*
X004461Y022105D02*
X004310Y022105D01*
X004235Y022030D01*
X004075Y022030D02*
X004000Y022105D01*
X003775Y022105D01*
X003775Y021655D01*
X003775Y021805D02*
X004000Y021805D01*
X004075Y021880D01*
X004075Y022030D01*
X003925Y021805D02*
X004075Y021655D01*
X004235Y021655D02*
X004536Y021955D01*
X004536Y022030D01*
X004461Y022105D01*
X004696Y021955D02*
X004846Y022105D01*
X004846Y021655D01*
X004696Y021655D02*
X004996Y021655D01*
X004536Y021655D02*
X004235Y021655D01*
X004061Y020985D02*
X003911Y020985D01*
X003836Y020910D01*
X003676Y020910D02*
X003676Y020835D01*
X003601Y020760D01*
X003676Y020685D01*
X003676Y020610D01*
X003601Y020535D01*
X003450Y020535D01*
X003375Y020610D01*
X003215Y020535D02*
X003065Y020685D01*
X003140Y020685D02*
X002915Y020685D01*
X002915Y020535D02*
X002915Y020985D01*
X003140Y020985D01*
X003215Y020910D01*
X003215Y020760D01*
X003140Y020685D01*
X003375Y020910D02*
X003450Y020985D01*
X003601Y020985D01*
X003676Y020910D01*
X003601Y020760D02*
X003526Y020760D01*
X003836Y020535D02*
X004136Y020835D01*
X004136Y020910D01*
X004061Y020985D01*
X004136Y020535D02*
X003836Y020535D01*
X003966Y016675D02*
X003966Y016225D01*
X003816Y016225D02*
X004116Y016225D01*
X003816Y016525D02*
X003966Y016675D01*
X003656Y016600D02*
X003656Y016525D01*
X003581Y016450D01*
X003656Y016375D01*
X003656Y016300D01*
X003581Y016225D01*
X003430Y016225D01*
X003355Y016300D01*
X003195Y016225D02*
X003045Y016375D01*
X003120Y016375D02*
X002895Y016375D01*
X002895Y016225D02*
X002895Y016675D01*
X003120Y016675D01*
X003195Y016600D01*
X003195Y016450D01*
X003120Y016375D01*
X003355Y016600D02*
X003430Y016675D01*
X003581Y016675D01*
X003656Y016600D01*
X003581Y016450D02*
X003506Y016450D01*
X003531Y015565D02*
X003380Y015565D01*
X003305Y015490D01*
X003145Y015490D02*
X003145Y015340D01*
X003070Y015265D01*
X002845Y015265D01*
X002845Y015115D02*
X002845Y015565D01*
X003070Y015565D01*
X003145Y015490D01*
X002995Y015265D02*
X003145Y015115D01*
X003305Y015115D02*
X003606Y015415D01*
X003606Y015490D01*
X003531Y015565D01*
X003766Y015490D02*
X003766Y015415D01*
X003841Y015340D01*
X004066Y015340D01*
X004066Y015190D02*
X004066Y015490D01*
X003991Y015565D01*
X003841Y015565D01*
X003766Y015490D01*
X003766Y015190D02*
X003841Y015115D01*
X003991Y015115D01*
X004066Y015190D01*
X003606Y015115D02*
X003305Y015115D01*
X005675Y013911D02*
X005750Y013986D01*
X006050Y013686D01*
X006125Y013761D01*
X006125Y013911D01*
X006050Y013986D01*
X005750Y013986D01*
X005675Y013911D02*
X005675Y013761D01*
X005750Y013686D01*
X006050Y013686D01*
X006125Y013526D02*
X006125Y013225D01*
X005825Y013526D01*
X005750Y013526D01*
X005675Y013451D01*
X005675Y013300D01*
X005750Y013225D01*
X005750Y013065D02*
X005900Y013065D01*
X005975Y012990D01*
X005975Y012765D01*
X006125Y012765D02*
X005675Y012765D01*
X005675Y012990D01*
X005750Y013065D01*
X005975Y012915D02*
X006125Y013065D01*
X004066Y011490D02*
X004066Y011190D01*
X003991Y011115D01*
X003841Y011115D01*
X003766Y011190D01*
X004066Y011490D01*
X003991Y011565D01*
X003841Y011565D01*
X003766Y011490D01*
X003766Y011190D01*
X003606Y011190D02*
X003531Y011115D01*
X003380Y011115D01*
X003305Y011190D01*
X003145Y011115D02*
X002995Y011265D01*
X003070Y011265D02*
X002845Y011265D01*
X002845Y011115D02*
X002845Y011565D01*
X003070Y011565D01*
X003145Y011490D01*
X003145Y011340D01*
X003070Y011265D01*
X003305Y011490D02*
X003380Y011565D01*
X003531Y011565D01*
X003606Y011490D01*
X003606Y011415D01*
X003531Y011340D01*
X003606Y011265D01*
X003606Y011190D01*
X003531Y011340D02*
X003456Y011340D01*
X010795Y009026D02*
X010795Y008726D01*
X011020Y008726D01*
X010945Y008876D01*
X010945Y008951D01*
X011020Y009026D01*
X011170Y009026D01*
X011245Y008951D01*
X011245Y008801D01*
X011170Y008726D01*
X011245Y008566D02*
X011245Y008265D01*
X010945Y008566D01*
X010870Y008566D01*
X010795Y008491D01*
X010795Y008340D01*
X010870Y008265D01*
X010870Y008105D02*
X011020Y008105D01*
X011095Y008030D01*
X011095Y007805D01*
X011245Y007805D02*
X010795Y007805D01*
X010795Y008030D01*
X010870Y008105D01*
X011095Y007955D02*
X011245Y008105D01*
X011755Y008030D02*
X011830Y008105D01*
X011980Y008105D01*
X012055Y008030D01*
X012055Y007805D01*
X012205Y007805D02*
X011755Y007805D01*
X011755Y008030D01*
X011905Y008265D02*
X011755Y008416D01*
X012205Y008416D01*
X012205Y008566D02*
X012205Y008265D01*
X012205Y008105D02*
X012055Y007955D01*
X012205Y008726D02*
X012205Y009026D01*
X012205Y008876D02*
X011755Y008876D01*
X011905Y008726D01*
X012875Y008660D02*
X012875Y008811D01*
X012950Y008886D01*
X013025Y008886D01*
X013100Y008811D01*
X013175Y008886D01*
X013250Y008886D01*
X013325Y008811D01*
X013325Y008660D01*
X013250Y008585D01*
X013325Y008425D02*
X013175Y008275D01*
X013175Y008350D02*
X013175Y008125D01*
X013325Y008125D02*
X012875Y008125D01*
X012875Y008350D01*
X012950Y008425D01*
X013100Y008425D01*
X013175Y008350D01*
X012950Y008585D02*
X012875Y008660D01*
X013100Y008736D02*
X013100Y008811D01*
X013100Y009046D02*
X012875Y009271D01*
X013325Y009271D01*
X013100Y009346D02*
X013100Y009046D01*
X012130Y011115D02*
X012205Y011190D01*
X012205Y011265D01*
X012130Y011340D01*
X011905Y011340D01*
X011905Y011190D01*
X011980Y011115D01*
X012130Y011115D01*
X011905Y011340D02*
X012055Y011490D01*
X012205Y011565D01*
X011594Y011565D02*
X011594Y011115D01*
X011444Y011115D02*
X011744Y011115D01*
X011444Y011415D02*
X011594Y011565D01*
X011284Y011490D02*
X011284Y011340D01*
X011209Y011265D01*
X010984Y011265D01*
X011134Y011265D02*
X011284Y011115D01*
X010984Y011115D02*
X010984Y011565D01*
X011209Y011565D01*
X011284Y011490D01*
X011830Y004066D02*
X011755Y003991D01*
X011755Y003841D01*
X011830Y003766D01*
X012130Y003766D01*
X011830Y004066D01*
X012130Y004066D01*
X012205Y003991D01*
X012205Y003841D01*
X012130Y003766D01*
X012205Y003606D02*
X012205Y003305D01*
X012205Y003456D02*
X011755Y003456D01*
X011905Y003305D01*
X011980Y003145D02*
X012055Y003070D01*
X012055Y002845D01*
X012205Y002845D02*
X011755Y002845D01*
X011755Y003070D01*
X011830Y003145D01*
X011980Y003145D01*
X012055Y002995D02*
X012205Y003145D01*
X014344Y003275D02*
X014344Y003725D01*
X014569Y003725D01*
X014644Y003650D01*
X014644Y003500D01*
X014569Y003425D01*
X014344Y003425D01*
X014494Y003425D02*
X014644Y003275D01*
X014804Y003275D02*
X015104Y003275D01*
X014954Y003275D02*
X014954Y003725D01*
X014804Y003575D01*
X015265Y003575D02*
X015265Y003650D01*
X015340Y003725D01*
X015490Y003725D01*
X015565Y003650D01*
X015565Y003575D01*
X015490Y003500D01*
X015340Y003500D01*
X015265Y003575D01*
X015340Y003500D02*
X015265Y003425D01*
X015265Y003350D01*
X015340Y003275D01*
X015490Y003275D01*
X015565Y003350D01*
X015565Y003425D01*
X015490Y003500D01*
X015349Y002605D02*
X015199Y002605D01*
X015124Y002530D01*
X014964Y002530D02*
X014889Y002605D01*
X014664Y002605D01*
X014664Y002155D01*
X014664Y002305D02*
X014889Y002305D01*
X014964Y002380D01*
X014964Y002530D01*
X014814Y002305D02*
X014964Y002155D01*
X015124Y002155D02*
X015424Y002455D01*
X015424Y002530D01*
X015349Y002605D01*
X015585Y002380D02*
X015885Y002380D01*
X015810Y002155D02*
X015810Y002605D01*
X015585Y002380D01*
X015424Y002155D02*
X015124Y002155D01*
X014954Y001485D02*
X014954Y001035D01*
X014804Y001035D02*
X015104Y001035D01*
X015265Y001110D02*
X015340Y001035D01*
X015490Y001035D01*
X015565Y001110D01*
X015565Y001185D01*
X015490Y001260D01*
X015415Y001260D01*
X015490Y001260D02*
X015565Y001335D01*
X015565Y001410D01*
X015490Y001485D01*
X015340Y001485D01*
X015265Y001410D01*
X014954Y001485D02*
X014804Y001335D01*
X014644Y001260D02*
X014569Y001185D01*
X014344Y001185D01*
X014494Y001185D02*
X014644Y001035D01*
X014644Y001260D02*
X014644Y001410D01*
X014569Y001485D01*
X014344Y001485D01*
X014344Y001035D01*
X018344Y001035D02*
X018344Y001485D01*
X018569Y001485D01*
X018644Y001410D01*
X018644Y001260D01*
X018569Y001185D01*
X018344Y001185D01*
X018494Y001185D02*
X018644Y001035D01*
X018804Y001110D02*
X018879Y001035D01*
X019029Y001035D01*
X019104Y001110D01*
X019104Y001185D01*
X019029Y001260D01*
X018954Y001260D01*
X019029Y001260D02*
X019104Y001335D01*
X019104Y001410D01*
X019029Y001485D01*
X018879Y001485D01*
X018804Y001410D01*
X019265Y001485D02*
X019565Y001485D01*
X019565Y001410D01*
X019265Y001110D01*
X019265Y001035D01*
X019215Y002815D02*
X019065Y002965D01*
X019140Y002965D02*
X018915Y002965D01*
X018915Y002815D02*
X018915Y003265D01*
X019140Y003265D01*
X019215Y003190D01*
X019215Y003040D01*
X019140Y002965D01*
X019375Y002890D02*
X019450Y002815D01*
X019601Y002815D01*
X019676Y002890D01*
X019676Y002965D01*
X019601Y003040D01*
X019526Y003040D01*
X019601Y003040D02*
X019676Y003115D01*
X019676Y003190D01*
X019601Y003265D01*
X019450Y003265D01*
X019375Y003190D01*
X019836Y003190D02*
X019911Y003265D01*
X020061Y003265D01*
X020136Y003190D01*
X020136Y003115D01*
X020061Y003040D01*
X020136Y002965D01*
X020136Y002890D01*
X020061Y002815D01*
X019911Y002815D01*
X019836Y002890D01*
X019986Y003040D02*
X020061Y003040D01*
X039510Y001518D02*
X041872Y001518D01*
X041872Y005061D01*
X039510Y005061D01*
X039510Y008211D02*
X041872Y008211D01*
X041872Y011754D01*
X039510Y011754D01*
X039510Y014904D02*
X041872Y014904D01*
X041872Y018447D01*
X039510Y018447D01*
X039510Y021597D02*
X041872Y021597D01*
X041872Y025140D01*
X039510Y025140D01*
X033496Y028535D02*
X033496Y029125D01*
X033004Y029125D01*
X033004Y028535D01*
X033496Y028535D01*
X030306Y030710D02*
X030306Y030785D01*
X030231Y030860D01*
X030006Y030860D01*
X030006Y030710D01*
X030081Y030635D01*
X030231Y030635D01*
X030306Y030710D01*
X030156Y031010D02*
X030006Y030860D01*
X029846Y030860D02*
X029545Y030860D01*
X029771Y031085D01*
X029771Y030635D01*
X029385Y030635D02*
X029235Y030785D01*
X029310Y030785D02*
X029085Y030785D01*
X029085Y030635D02*
X029085Y031085D01*
X029310Y031085D01*
X029385Y031010D01*
X029385Y030860D01*
X029310Y030785D01*
X030156Y031010D02*
X030306Y031085D01*
X030241Y031965D02*
X030166Y032040D01*
X030241Y031965D02*
X030391Y031965D01*
X030466Y032040D01*
X030466Y032190D01*
X030391Y032265D01*
X030316Y032265D01*
X030166Y032190D01*
X030166Y032415D01*
X030466Y032415D01*
X030006Y032190D02*
X029705Y032190D01*
X029931Y032415D01*
X029931Y031965D01*
X029545Y031965D02*
X029395Y032115D01*
X029470Y032115D02*
X029245Y032115D01*
X029245Y031965D02*
X029245Y032415D01*
X029470Y032415D01*
X029545Y032340D01*
X029545Y032190D01*
X029470Y032115D01*
D15*
X028790Y031790D02*
X030690Y031790D01*
X030740Y031740D01*
X030890Y031740D01*
X030907Y031742D01*
X030924Y031746D01*
X030940Y031753D01*
X030954Y031763D01*
X030967Y031776D01*
X030977Y031790D01*
X030984Y031806D01*
X030988Y031823D01*
X030990Y031840D01*
X030990Y032540D02*
X030988Y032557D01*
X030984Y032574D01*
X030977Y032590D01*
X030967Y032604D01*
X030954Y032617D01*
X030940Y032627D01*
X030924Y032634D01*
X030907Y032638D01*
X030890Y032640D01*
X030740Y032640D01*
X030690Y032590D01*
X028790Y032590D01*
X028740Y032640D01*
X028590Y032640D01*
X028573Y032638D01*
X028556Y032634D01*
X028540Y032627D01*
X028526Y032617D01*
X028513Y032604D01*
X028503Y032590D01*
X028496Y032574D01*
X028492Y032557D01*
X028490Y032540D01*
X028490Y031840D02*
X028492Y031823D01*
X028496Y031806D01*
X028503Y031790D01*
X028513Y031776D01*
X028526Y031763D01*
X028540Y031753D01*
X028556Y031746D01*
X028573Y031742D01*
X028590Y031740D01*
X028740Y031740D01*
X028790Y031790D01*
X028740Y031310D02*
X028790Y031260D01*
X030690Y031260D01*
X030740Y031310D01*
X030890Y031310D01*
X030907Y031308D01*
X030924Y031304D01*
X030940Y031297D01*
X030954Y031287D01*
X030967Y031274D01*
X030977Y031260D01*
X030984Y031244D01*
X030988Y031227D01*
X030990Y031210D01*
X030990Y030510D02*
X030988Y030493D01*
X030984Y030476D01*
X030977Y030460D01*
X030967Y030446D01*
X030954Y030433D01*
X030940Y030423D01*
X030924Y030416D01*
X030907Y030412D01*
X030890Y030410D01*
X030740Y030410D01*
X030690Y030460D01*
X028790Y030460D01*
X028740Y030410D01*
X028590Y030410D01*
X028573Y030412D01*
X028556Y030416D01*
X028540Y030423D01*
X028526Y030433D01*
X028513Y030446D01*
X028503Y030460D01*
X028496Y030476D01*
X028492Y030493D01*
X028490Y030510D01*
X028490Y031210D02*
X028492Y031227D01*
X028496Y031244D01*
X028503Y031260D01*
X028513Y031274D01*
X028526Y031287D01*
X028540Y031297D01*
X028556Y031304D01*
X028573Y031308D01*
X028590Y031310D01*
X028740Y031310D01*
X029860Y030030D02*
X029860Y027630D01*
X029862Y027604D01*
X029867Y027578D01*
X029875Y027553D01*
X029887Y027530D01*
X029901Y027508D01*
X029919Y027489D01*
X029938Y027471D01*
X029960Y027457D01*
X029983Y027445D01*
X030008Y027437D01*
X030034Y027432D01*
X030060Y027430D01*
X036760Y027430D01*
X036691Y027610D02*
X036364Y027610D01*
X036527Y027610D02*
X036527Y028100D01*
X036364Y027937D01*
X036184Y027610D02*
X035857Y027610D01*
X036021Y027610D02*
X036021Y028100D01*
X035857Y027937D01*
X035678Y028019D02*
X035596Y028100D01*
X035432Y028100D01*
X035351Y028019D01*
X035351Y027692D01*
X035432Y027610D01*
X035596Y027610D01*
X035678Y027692D01*
X035810Y028830D02*
X035410Y028830D01*
X035060Y028830D02*
X031010Y028830D01*
X029860Y030030D02*
X029862Y030056D01*
X029867Y030082D01*
X029875Y030107D01*
X029887Y030130D01*
X029901Y030152D01*
X029919Y030171D01*
X029938Y030189D01*
X029960Y030203D01*
X029983Y030215D01*
X030008Y030223D01*
X030034Y030228D01*
X030060Y030230D01*
X036760Y030230D01*
X036786Y030228D01*
X036812Y030223D01*
X036837Y030215D01*
X036860Y030203D01*
X036882Y030189D01*
X036901Y030171D01*
X036919Y030152D01*
X036933Y030130D01*
X036945Y030107D01*
X036953Y030082D01*
X036958Y030056D01*
X036960Y030030D01*
X036960Y027630D01*
X036958Y027604D01*
X036953Y027578D01*
X036945Y027553D01*
X036933Y027530D01*
X036919Y027508D01*
X036901Y027489D01*
X036882Y027471D01*
X036860Y027457D01*
X036837Y027445D01*
X036812Y027437D01*
X036786Y027432D01*
X036760Y027430D01*
X029560Y017790D02*
X022860Y017790D01*
X022834Y017788D01*
X022808Y017783D01*
X022783Y017775D01*
X022760Y017763D01*
X022738Y017749D01*
X022719Y017731D01*
X022701Y017712D01*
X022687Y017690D01*
X022675Y017667D01*
X022667Y017642D01*
X022662Y017616D01*
X022660Y017590D01*
X022660Y015190D01*
X022662Y015164D01*
X022667Y015138D01*
X022675Y015113D01*
X022687Y015090D01*
X022701Y015068D01*
X022719Y015049D01*
X022738Y015031D01*
X022760Y015017D01*
X022783Y015005D01*
X022808Y014997D01*
X022834Y014992D01*
X022860Y014990D01*
X029560Y014990D01*
X029586Y014992D01*
X029612Y014997D01*
X029637Y015005D01*
X029660Y015017D01*
X029682Y015031D01*
X029701Y015049D01*
X029719Y015068D01*
X029733Y015090D01*
X029745Y015113D01*
X029753Y015138D01*
X029758Y015164D01*
X029760Y015190D01*
X029760Y017590D01*
X029758Y017616D01*
X029753Y017642D01*
X029745Y017667D01*
X029733Y017690D01*
X029719Y017712D01*
X029701Y017731D01*
X029682Y017749D01*
X029660Y017763D01*
X029637Y017775D01*
X029612Y017783D01*
X029586Y017788D01*
X029560Y017790D01*
X028610Y016390D02*
X028210Y016390D01*
X027860Y016390D02*
X023810Y016390D01*
X022510Y015050D02*
X022510Y014900D01*
X022460Y014850D01*
X022460Y012950D01*
X022510Y012900D01*
X022510Y012750D01*
X022508Y012733D01*
X022504Y012716D01*
X022497Y012700D01*
X022487Y012686D01*
X022474Y012673D01*
X022460Y012663D01*
X022444Y012656D01*
X022427Y012652D01*
X022410Y012650D01*
X022660Y012190D02*
X022660Y014590D01*
X022662Y014616D01*
X022667Y014642D01*
X022675Y014667D01*
X022687Y014690D01*
X022701Y014712D01*
X022719Y014731D01*
X022738Y014749D01*
X022760Y014763D01*
X022783Y014775D01*
X022808Y014783D01*
X022834Y014788D01*
X022860Y014790D01*
X029560Y014790D01*
X029586Y014788D01*
X029612Y014783D01*
X029637Y014775D01*
X029660Y014763D01*
X029682Y014749D01*
X029701Y014731D01*
X029719Y014712D01*
X029733Y014690D01*
X029745Y014667D01*
X029753Y014642D01*
X029758Y014616D01*
X029760Y014590D01*
X029760Y012190D01*
X029758Y012164D01*
X029753Y012138D01*
X029745Y012113D01*
X029733Y012090D01*
X029719Y012068D01*
X029701Y012049D01*
X029682Y012031D01*
X029660Y012017D01*
X029637Y012005D01*
X029612Y011997D01*
X029586Y011992D01*
X029560Y011990D01*
X022860Y011990D01*
X022834Y011992D01*
X022808Y011997D01*
X022783Y012005D01*
X022760Y012017D01*
X022738Y012031D01*
X022719Y012049D01*
X022701Y012068D01*
X022687Y012090D01*
X022675Y012113D01*
X022667Y012138D01*
X022662Y012164D01*
X022660Y012190D01*
X022860Y011790D02*
X029560Y011790D01*
X029586Y011788D01*
X029612Y011783D01*
X029637Y011775D01*
X029660Y011763D01*
X029682Y011749D01*
X029701Y011731D01*
X029719Y011712D01*
X029733Y011690D01*
X029745Y011667D01*
X029753Y011642D01*
X029758Y011616D01*
X029760Y011590D01*
X029760Y009190D01*
X029758Y009164D01*
X029753Y009138D01*
X029745Y009113D01*
X029733Y009090D01*
X029719Y009068D01*
X029701Y009049D01*
X029682Y009031D01*
X029660Y009017D01*
X029637Y009005D01*
X029612Y008997D01*
X029586Y008992D01*
X029560Y008990D01*
X022860Y008990D01*
X022834Y008992D01*
X022808Y008997D01*
X022783Y009005D01*
X022760Y009017D01*
X022738Y009031D01*
X022719Y009049D01*
X022701Y009068D01*
X022687Y009090D01*
X022675Y009113D01*
X022667Y009138D01*
X022662Y009164D01*
X022660Y009190D01*
X022660Y011590D01*
X022662Y011616D01*
X022667Y011642D01*
X022675Y011667D01*
X022687Y011690D01*
X022701Y011712D01*
X022719Y011731D01*
X022738Y011749D01*
X022760Y011763D01*
X022783Y011775D01*
X022808Y011783D01*
X022834Y011788D01*
X022860Y011790D01*
X022510Y011370D02*
X022510Y011220D01*
X022460Y011170D01*
X022460Y009270D01*
X022510Y009220D01*
X022510Y009070D01*
X022508Y009053D01*
X022504Y009036D01*
X022497Y009020D01*
X022487Y009006D01*
X022474Y008993D01*
X022460Y008983D01*
X022444Y008976D01*
X022427Y008972D01*
X022410Y008970D01*
X022660Y008590D02*
X022660Y006190D01*
X022662Y006164D01*
X022667Y006138D01*
X022675Y006113D01*
X022687Y006090D01*
X022701Y006068D01*
X022719Y006049D01*
X022738Y006031D01*
X022760Y006017D01*
X022783Y006005D01*
X022808Y005997D01*
X022834Y005992D01*
X022860Y005990D01*
X029560Y005990D01*
X029586Y005992D01*
X029612Y005997D01*
X029637Y006005D01*
X029660Y006017D01*
X029682Y006031D01*
X029701Y006049D01*
X029719Y006068D01*
X029733Y006090D01*
X029745Y006113D01*
X029753Y006138D01*
X029758Y006164D01*
X029760Y006190D01*
X029760Y008590D01*
X029758Y008616D01*
X029753Y008642D01*
X029745Y008667D01*
X029733Y008690D01*
X029719Y008712D01*
X029701Y008731D01*
X029682Y008749D01*
X029660Y008763D01*
X029637Y008775D01*
X029612Y008783D01*
X029586Y008788D01*
X029560Y008790D01*
X022860Y008790D01*
X022834Y008788D01*
X022808Y008783D01*
X022783Y008775D01*
X022760Y008763D01*
X022738Y008749D01*
X022719Y008731D01*
X022701Y008712D01*
X022687Y008690D01*
X022675Y008667D01*
X022667Y008642D01*
X022662Y008616D01*
X022660Y008590D01*
X021710Y008970D02*
X021693Y008972D01*
X021676Y008976D01*
X021660Y008983D01*
X021646Y008993D01*
X021633Y009006D01*
X021623Y009020D01*
X021616Y009036D01*
X021612Y009053D01*
X021610Y009070D01*
X021610Y009220D01*
X021660Y009270D01*
X021660Y011170D01*
X021610Y011220D01*
X021610Y011370D01*
X021612Y011387D01*
X021616Y011404D01*
X021623Y011420D01*
X021633Y011434D01*
X021646Y011447D01*
X021660Y011457D01*
X021676Y011464D01*
X021693Y011468D01*
X021710Y011470D01*
X022410Y011470D02*
X022427Y011468D01*
X022444Y011464D01*
X022460Y011457D01*
X022474Y011447D01*
X022487Y011434D01*
X022497Y011420D01*
X022504Y011404D01*
X022508Y011387D01*
X022510Y011370D01*
X023810Y010390D02*
X027860Y010390D01*
X028210Y010390D02*
X028610Y010390D01*
X028739Y009660D02*
X028657Y009579D01*
X028657Y009252D01*
X028739Y009170D01*
X028902Y009170D01*
X028984Y009252D01*
X029164Y009252D02*
X029164Y009333D01*
X029245Y009415D01*
X029409Y009415D01*
X029491Y009333D01*
X029491Y009252D01*
X029409Y009170D01*
X029245Y009170D01*
X029164Y009252D01*
X029245Y009415D02*
X029164Y009497D01*
X029164Y009579D01*
X029245Y009660D01*
X029409Y009660D01*
X029491Y009579D01*
X029491Y009497D01*
X029409Y009415D01*
X028984Y009579D02*
X028902Y009660D01*
X028739Y009660D01*
X028610Y007390D02*
X028210Y007390D01*
X027860Y007390D02*
X023810Y007390D01*
X023300Y005710D02*
X023150Y005710D01*
X023133Y005708D01*
X023116Y005704D01*
X023100Y005697D01*
X023086Y005687D01*
X023073Y005674D01*
X023063Y005660D01*
X023056Y005644D01*
X023052Y005627D01*
X023050Y005610D01*
X023300Y005710D02*
X023350Y005660D01*
X025250Y005660D01*
X025300Y005710D01*
X025450Y005710D01*
X025467Y005708D01*
X025484Y005704D01*
X025500Y005697D01*
X025514Y005687D01*
X025527Y005674D01*
X025537Y005660D01*
X025544Y005644D01*
X025548Y005627D01*
X025550Y005610D01*
X025550Y004910D02*
X025548Y004893D01*
X025544Y004876D01*
X025537Y004860D01*
X025527Y004846D01*
X025514Y004833D01*
X025500Y004823D01*
X025484Y004816D01*
X025467Y004812D01*
X025450Y004810D01*
X025300Y004810D01*
X025250Y004860D01*
X023350Y004860D01*
X023300Y004810D01*
X023150Y004810D01*
X023133Y004812D01*
X023116Y004816D01*
X023100Y004823D01*
X023086Y004833D01*
X023073Y004846D01*
X023063Y004860D01*
X023056Y004876D01*
X023052Y004893D01*
X023050Y004910D01*
X020270Y005070D02*
X020270Y005220D01*
X020220Y005270D01*
X020220Y007170D01*
X020270Y007220D01*
X020270Y007370D01*
X020268Y007387D01*
X020264Y007404D01*
X020257Y007420D01*
X020247Y007434D01*
X020234Y007447D01*
X020220Y007457D01*
X020204Y007464D01*
X020187Y007468D01*
X020170Y007470D01*
X019470Y007470D02*
X019453Y007468D01*
X019436Y007464D01*
X019420Y007457D01*
X019406Y007447D01*
X019393Y007434D01*
X019383Y007420D01*
X019376Y007404D01*
X019372Y007387D01*
X019370Y007370D01*
X019370Y007220D01*
X019420Y007170D01*
X019420Y005270D01*
X019370Y005220D01*
X019370Y005070D01*
X019372Y005053D01*
X019376Y005036D01*
X019383Y005020D01*
X019393Y005006D01*
X019406Y004993D01*
X019420Y004983D01*
X019436Y004976D01*
X019453Y004972D01*
X019470Y004970D01*
X019150Y005070D02*
X019150Y005220D01*
X019100Y005270D01*
X019100Y007170D01*
X019150Y007220D01*
X019150Y007370D01*
X019148Y007387D01*
X019144Y007404D01*
X019137Y007420D01*
X019127Y007434D01*
X019114Y007447D01*
X019100Y007457D01*
X019084Y007464D01*
X019067Y007468D01*
X019050Y007470D01*
X018350Y007470D02*
X018333Y007468D01*
X018316Y007464D01*
X018300Y007457D01*
X018286Y007447D01*
X018273Y007434D01*
X018263Y007420D01*
X018256Y007404D01*
X018252Y007387D01*
X018250Y007370D01*
X018250Y007220D01*
X018300Y007170D01*
X018300Y005270D01*
X018250Y005220D01*
X018250Y005070D01*
X018252Y005053D01*
X018256Y005036D01*
X018263Y005020D01*
X018273Y005006D01*
X018286Y004993D01*
X018300Y004983D01*
X018316Y004976D01*
X018333Y004972D01*
X018350Y004970D01*
X019050Y004970D02*
X019067Y004972D01*
X019084Y004976D01*
X019100Y004983D01*
X019114Y004993D01*
X019127Y005006D01*
X019137Y005020D01*
X019144Y005036D01*
X019148Y005053D01*
X019150Y005070D01*
X020170Y004970D02*
X020187Y004972D01*
X020204Y004976D01*
X020220Y004983D01*
X020234Y004993D01*
X020247Y005006D01*
X020257Y005020D01*
X020264Y005036D01*
X020268Y005053D01*
X020270Y005070D01*
X020410Y003490D02*
X020560Y003490D01*
X020577Y003488D01*
X020594Y003484D01*
X020610Y003477D01*
X020624Y003467D01*
X020637Y003454D01*
X020647Y003440D01*
X020654Y003424D01*
X020658Y003407D01*
X020660Y003390D01*
X020410Y003490D02*
X020360Y003440D01*
X018460Y003440D01*
X018410Y003490D01*
X018260Y003490D01*
X018243Y003488D01*
X018226Y003484D01*
X018210Y003477D01*
X018196Y003467D01*
X018183Y003454D01*
X018173Y003440D01*
X018166Y003424D01*
X018162Y003407D01*
X018160Y003390D01*
X018160Y002690D02*
X018162Y002673D01*
X018166Y002656D01*
X018173Y002640D01*
X018183Y002626D01*
X018196Y002613D01*
X018210Y002603D01*
X018226Y002596D01*
X018243Y002592D01*
X018260Y002590D01*
X018410Y002590D01*
X018460Y002640D01*
X020360Y002640D01*
X020410Y002590D01*
X020560Y002590D01*
X020577Y002592D01*
X020594Y002596D01*
X020610Y002603D01*
X020624Y002613D01*
X020637Y002626D01*
X020647Y002640D01*
X020654Y002656D01*
X020658Y002673D01*
X020660Y002690D01*
X020490Y001710D02*
X020340Y001710D01*
X020290Y001660D01*
X018390Y001660D01*
X018340Y001710D01*
X018190Y001710D01*
X018173Y001708D01*
X018156Y001704D01*
X018140Y001697D01*
X018126Y001687D01*
X018113Y001674D01*
X018103Y001660D01*
X018096Y001644D01*
X018092Y001627D01*
X018090Y001610D01*
X018090Y000910D02*
X018092Y000893D01*
X018096Y000876D01*
X018103Y000860D01*
X018113Y000846D01*
X018126Y000833D01*
X018140Y000823D01*
X018156Y000816D01*
X018173Y000812D01*
X018190Y000810D01*
X018340Y000810D01*
X018390Y000860D01*
X020290Y000860D01*
X020340Y000810D01*
X020490Y000810D01*
X020507Y000812D01*
X020524Y000816D01*
X020540Y000823D01*
X020554Y000833D01*
X020567Y000846D01*
X020577Y000860D01*
X020584Y000876D01*
X020588Y000893D01*
X020590Y000910D01*
X020590Y001610D02*
X020588Y001627D01*
X020584Y001644D01*
X020577Y001660D01*
X020567Y001674D01*
X020554Y001687D01*
X020540Y001697D01*
X020524Y001704D01*
X020507Y001708D01*
X020490Y001710D01*
X023630Y001230D02*
X023780Y001230D01*
X023830Y001180D01*
X025730Y001180D01*
X025780Y001230D01*
X025930Y001230D01*
X025947Y001228D01*
X025964Y001224D01*
X025980Y001217D01*
X025994Y001207D01*
X026007Y001194D01*
X026017Y001180D01*
X026024Y001164D01*
X026028Y001147D01*
X026030Y001130D01*
X026030Y000430D02*
X026028Y000413D01*
X026024Y000396D01*
X026017Y000380D01*
X026007Y000366D01*
X025994Y000353D01*
X025980Y000343D01*
X025964Y000336D01*
X025947Y000332D01*
X025930Y000330D01*
X025780Y000330D01*
X025730Y000380D01*
X023830Y000380D01*
X023780Y000330D01*
X023630Y000330D01*
X023613Y000332D01*
X023596Y000336D01*
X023580Y000343D01*
X023566Y000353D01*
X023553Y000366D01*
X023543Y000380D01*
X023536Y000396D01*
X023532Y000413D01*
X023530Y000430D01*
X023530Y001130D02*
X023532Y001147D01*
X023536Y001164D01*
X023543Y001180D01*
X023553Y001194D01*
X023566Y001207D01*
X023580Y001217D01*
X023596Y001224D01*
X023613Y001228D01*
X023630Y001230D01*
X026830Y003690D02*
X026980Y003690D01*
X027030Y003740D01*
X028930Y003740D01*
X028980Y003690D01*
X029130Y003690D01*
X029147Y003692D01*
X029164Y003696D01*
X029180Y003703D01*
X029194Y003713D01*
X029207Y003726D01*
X029217Y003740D01*
X029224Y003756D01*
X029228Y003773D01*
X029230Y003790D01*
X029230Y004490D02*
X029228Y004507D01*
X029224Y004524D01*
X029217Y004540D01*
X029207Y004554D01*
X029194Y004567D01*
X029180Y004577D01*
X029164Y004584D01*
X029147Y004588D01*
X029130Y004590D01*
X028980Y004590D01*
X028930Y004540D01*
X027030Y004540D01*
X026980Y004590D01*
X026830Y004590D01*
X026813Y004588D01*
X026796Y004584D01*
X026780Y004577D01*
X026766Y004567D01*
X026753Y004554D01*
X026743Y004540D01*
X026736Y004524D01*
X026732Y004507D01*
X026730Y004490D01*
X026830Y004810D02*
X026980Y004810D01*
X027030Y004860D01*
X028930Y004860D01*
X028980Y004810D01*
X029130Y004810D01*
X029147Y004812D01*
X029164Y004816D01*
X029180Y004823D01*
X029194Y004833D01*
X029207Y004846D01*
X029217Y004860D01*
X029224Y004876D01*
X029228Y004893D01*
X029230Y004910D01*
X029230Y005610D02*
X029228Y005627D01*
X029224Y005644D01*
X029217Y005660D01*
X029207Y005674D01*
X029194Y005687D01*
X029180Y005697D01*
X029164Y005704D01*
X029147Y005708D01*
X029130Y005710D01*
X028980Y005710D01*
X028930Y005660D01*
X027030Y005660D01*
X026980Y005710D01*
X026830Y005710D01*
X026813Y005708D01*
X026796Y005704D01*
X026780Y005697D01*
X026766Y005687D01*
X026753Y005674D01*
X026743Y005660D01*
X026736Y005644D01*
X026732Y005627D01*
X026730Y005610D01*
X026730Y004910D02*
X026732Y004893D01*
X026736Y004876D01*
X026743Y004860D01*
X026753Y004846D01*
X026766Y004833D01*
X026780Y004823D01*
X026796Y004816D01*
X026813Y004812D01*
X026830Y004810D01*
X026730Y003790D02*
X026732Y003773D01*
X026736Y003756D01*
X026743Y003740D01*
X026753Y003726D01*
X026766Y003713D01*
X026780Y003703D01*
X026796Y003696D01*
X026813Y003692D01*
X026830Y003690D01*
X026743Y001715D02*
X026745Y001788D01*
X026751Y001861D01*
X026761Y001933D01*
X026775Y002005D01*
X026792Y002076D01*
X026814Y002146D01*
X026839Y002215D01*
X026868Y002282D01*
X026900Y002347D01*
X026936Y002411D01*
X026976Y002473D01*
X027018Y002532D01*
X027064Y002589D01*
X027113Y002643D01*
X027165Y002695D01*
X027219Y002744D01*
X027276Y002790D01*
X027335Y002832D01*
X027397Y002872D01*
X027461Y002908D01*
X027526Y002940D01*
X027593Y002969D01*
X027662Y002994D01*
X027732Y003016D01*
X027803Y003033D01*
X027875Y003047D01*
X027947Y003057D01*
X028020Y003063D01*
X028093Y003065D01*
X028166Y003063D01*
X028239Y003057D01*
X028311Y003047D01*
X028383Y003033D01*
X028454Y003016D01*
X028524Y002994D01*
X028593Y002969D01*
X028660Y002940D01*
X028725Y002908D01*
X028789Y002872D01*
X028851Y002832D01*
X028910Y002790D01*
X028967Y002744D01*
X029021Y002695D01*
X029073Y002643D01*
X029122Y002589D01*
X029168Y002532D01*
X029210Y002473D01*
X029250Y002411D01*
X029286Y002347D01*
X029318Y002282D01*
X029347Y002215D01*
X029372Y002146D01*
X029394Y002076D01*
X029411Y002005D01*
X029425Y001933D01*
X029435Y001861D01*
X029441Y001788D01*
X029443Y001715D01*
X029441Y001642D01*
X029435Y001569D01*
X029425Y001497D01*
X029411Y001425D01*
X029394Y001354D01*
X029372Y001284D01*
X029347Y001215D01*
X029318Y001148D01*
X029286Y001083D01*
X029250Y001019D01*
X029210Y000957D01*
X029168Y000898D01*
X029122Y000841D01*
X029073Y000787D01*
X029021Y000735D01*
X028967Y000686D01*
X028910Y000640D01*
X028851Y000598D01*
X028789Y000558D01*
X028725Y000522D01*
X028660Y000490D01*
X028593Y000461D01*
X028524Y000436D01*
X028454Y000414D01*
X028383Y000397D01*
X028311Y000383D01*
X028239Y000373D01*
X028166Y000367D01*
X028093Y000365D01*
X028020Y000367D01*
X027947Y000373D01*
X027875Y000383D01*
X027803Y000397D01*
X027732Y000414D01*
X027662Y000436D01*
X027593Y000461D01*
X027526Y000490D01*
X027461Y000522D01*
X027397Y000558D01*
X027335Y000598D01*
X027276Y000640D01*
X027219Y000686D01*
X027165Y000735D01*
X027113Y000787D01*
X027064Y000841D01*
X027018Y000898D01*
X026976Y000957D01*
X026936Y001019D01*
X026900Y001083D01*
X026868Y001148D01*
X026839Y001215D01*
X026814Y001284D01*
X026792Y001354D01*
X026775Y001425D01*
X026761Y001497D01*
X026751Y001569D01*
X026745Y001642D01*
X026743Y001715D01*
X028232Y006170D02*
X028396Y006170D01*
X028478Y006252D01*
X028657Y006170D02*
X028984Y006170D01*
X028821Y006170D02*
X028821Y006660D01*
X028657Y006497D01*
X028478Y006579D02*
X028396Y006660D01*
X028232Y006660D01*
X028151Y006579D01*
X028151Y006252D01*
X028232Y006170D01*
X029164Y006252D02*
X029491Y006579D01*
X029491Y006252D01*
X029409Y006170D01*
X029245Y006170D01*
X029164Y006252D01*
X029164Y006579D01*
X029245Y006660D01*
X029409Y006660D01*
X029491Y006579D01*
X029409Y012170D02*
X029245Y012170D01*
X029164Y012252D01*
X028984Y012252D02*
X028902Y012170D01*
X028739Y012170D01*
X028657Y012252D01*
X028657Y012579D01*
X028739Y012660D01*
X028902Y012660D01*
X028984Y012579D01*
X029164Y012579D02*
X029164Y012497D01*
X029245Y012415D01*
X029491Y012415D01*
X029491Y012252D02*
X029491Y012579D01*
X029409Y012660D01*
X029245Y012660D01*
X029164Y012579D01*
X029491Y012252D02*
X029409Y012170D01*
X028610Y013390D02*
X028210Y013390D01*
X027860Y013390D02*
X023810Y013390D01*
X022510Y015050D02*
X022508Y015067D01*
X022504Y015084D01*
X022497Y015100D01*
X022487Y015114D01*
X022474Y015127D01*
X022460Y015137D01*
X022444Y015144D01*
X022427Y015148D01*
X022410Y015150D01*
X021710Y015150D02*
X021693Y015148D01*
X021676Y015144D01*
X021660Y015137D01*
X021646Y015127D01*
X021633Y015114D01*
X021623Y015100D01*
X021616Y015084D01*
X021612Y015067D01*
X021610Y015050D01*
X021610Y014900D01*
X021660Y014850D01*
X021660Y012950D01*
X021610Y012900D01*
X021610Y012750D01*
X021612Y012733D01*
X021616Y012716D01*
X021623Y012700D01*
X021633Y012686D01*
X021646Y012673D01*
X021660Y012663D01*
X021676Y012656D01*
X021693Y012652D01*
X021710Y012650D01*
X021390Y012750D02*
X021390Y012900D01*
X021340Y012950D01*
X021340Y014850D01*
X021390Y014900D01*
X021390Y015050D01*
X021388Y015067D01*
X021384Y015084D01*
X021377Y015100D01*
X021367Y015114D01*
X021354Y015127D01*
X021340Y015137D01*
X021324Y015144D01*
X021307Y015148D01*
X021290Y015150D01*
X020590Y015150D02*
X020573Y015148D01*
X020556Y015144D01*
X020540Y015137D01*
X020526Y015127D01*
X020513Y015114D01*
X020503Y015100D01*
X020496Y015084D01*
X020492Y015067D01*
X020490Y015050D01*
X020490Y014900D01*
X020540Y014850D01*
X020540Y012950D01*
X020490Y012900D01*
X020490Y012750D01*
X020492Y012733D01*
X020496Y012716D01*
X020503Y012700D01*
X020513Y012686D01*
X020526Y012673D01*
X020540Y012663D01*
X020556Y012656D01*
X020573Y012652D01*
X020590Y012650D01*
X021290Y012650D02*
X021307Y012652D01*
X021324Y012656D01*
X021340Y012663D01*
X021354Y012673D01*
X021367Y012686D01*
X021377Y012700D01*
X021384Y012716D01*
X021388Y012733D01*
X021390Y012750D01*
X020270Y013460D02*
X020270Y013610D01*
X020268Y013627D01*
X020264Y013644D01*
X020257Y013660D01*
X020247Y013674D01*
X020234Y013687D01*
X020220Y013697D01*
X020204Y013704D01*
X020187Y013708D01*
X020170Y013710D01*
X020270Y013460D02*
X020220Y013410D01*
X020220Y011510D01*
X020270Y011460D01*
X020270Y011310D01*
X020268Y011293D01*
X020264Y011276D01*
X020257Y011260D01*
X020247Y011246D01*
X020234Y011233D01*
X020220Y011223D01*
X020204Y011216D01*
X020187Y011212D01*
X020170Y011210D01*
X019470Y011210D02*
X019453Y011212D01*
X019436Y011216D01*
X019420Y011223D01*
X019406Y011233D01*
X019393Y011246D01*
X019383Y011260D01*
X019376Y011276D01*
X019372Y011293D01*
X019370Y011310D01*
X019370Y011460D01*
X019420Y011510D01*
X019420Y013410D01*
X019370Y013460D01*
X019370Y013610D01*
X019372Y013627D01*
X019376Y013644D01*
X019383Y013660D01*
X019393Y013674D01*
X019406Y013687D01*
X019420Y013697D01*
X019436Y013704D01*
X019453Y013708D01*
X019470Y013710D01*
X018820Y015850D02*
X018870Y015900D01*
X020770Y015900D01*
X020820Y015850D01*
X020970Y015850D01*
X020987Y015852D01*
X021004Y015856D01*
X021020Y015863D01*
X021034Y015873D01*
X021047Y015886D01*
X021057Y015900D01*
X021064Y015916D01*
X021068Y015933D01*
X021070Y015950D01*
X021070Y016650D02*
X021068Y016667D01*
X021064Y016684D01*
X021057Y016700D01*
X021047Y016714D01*
X021034Y016727D01*
X021020Y016737D01*
X021004Y016744D01*
X020987Y016748D01*
X020970Y016750D01*
X020820Y016750D01*
X020770Y016700D01*
X018870Y016700D01*
X018820Y016750D01*
X018670Y016750D01*
X018653Y016748D01*
X018636Y016744D01*
X018620Y016737D01*
X018606Y016727D01*
X018593Y016714D01*
X018583Y016700D01*
X018576Y016684D01*
X018572Y016667D01*
X018570Y016650D01*
X018670Y016970D02*
X018820Y016970D01*
X018870Y017020D01*
X020770Y017020D01*
X020820Y016970D01*
X020970Y016970D01*
X020987Y016972D01*
X021004Y016976D01*
X021020Y016983D01*
X021034Y016993D01*
X021047Y017006D01*
X021057Y017020D01*
X021064Y017036D01*
X021068Y017053D01*
X021070Y017070D01*
X021070Y017770D02*
X021068Y017787D01*
X021064Y017804D01*
X021057Y017820D01*
X021047Y017834D01*
X021034Y017847D01*
X021020Y017857D01*
X021004Y017864D01*
X020987Y017868D01*
X020970Y017870D01*
X020820Y017870D01*
X020770Y017820D01*
X018870Y017820D01*
X018820Y017870D01*
X018670Y017870D01*
X018653Y017868D01*
X018636Y017864D01*
X018620Y017857D01*
X018606Y017847D01*
X018593Y017834D01*
X018583Y017820D01*
X018576Y017804D01*
X018572Y017787D01*
X018570Y017770D01*
X018670Y018090D02*
X018820Y018090D01*
X018870Y018140D01*
X020770Y018140D01*
X020820Y018090D01*
X020970Y018090D01*
X020987Y018092D01*
X021004Y018096D01*
X021020Y018103D01*
X021034Y018113D01*
X021047Y018126D01*
X021057Y018140D01*
X021064Y018156D01*
X021068Y018173D01*
X021070Y018190D01*
X021070Y018890D02*
X021068Y018907D01*
X021064Y018924D01*
X021057Y018940D01*
X021047Y018954D01*
X021034Y018967D01*
X021020Y018977D01*
X021004Y018984D01*
X020987Y018988D01*
X020970Y018990D01*
X020820Y018990D01*
X020770Y018940D01*
X018870Y018940D01*
X018820Y018990D01*
X018670Y018990D01*
X018653Y018988D01*
X018636Y018984D01*
X018620Y018977D01*
X018606Y018967D01*
X018593Y018954D01*
X018583Y018940D01*
X018576Y018924D01*
X018572Y018907D01*
X018570Y018890D01*
X018670Y019210D02*
X018820Y019210D01*
X018870Y019260D01*
X020770Y019260D01*
X020820Y019210D01*
X020970Y019210D01*
X020987Y019212D01*
X021004Y019216D01*
X021020Y019223D01*
X021034Y019233D01*
X021047Y019246D01*
X021057Y019260D01*
X021064Y019276D01*
X021068Y019293D01*
X021070Y019310D01*
X021070Y020010D02*
X021068Y020027D01*
X021064Y020044D01*
X021057Y020060D01*
X021047Y020074D01*
X021034Y020087D01*
X021020Y020097D01*
X021004Y020104D01*
X020987Y020108D01*
X020970Y020110D01*
X020820Y020110D01*
X020770Y020060D01*
X018870Y020060D01*
X018820Y020110D01*
X018670Y020110D01*
X018653Y020108D01*
X018636Y020104D01*
X018620Y020097D01*
X018606Y020087D01*
X018593Y020074D01*
X018583Y020060D01*
X018576Y020044D01*
X018572Y020027D01*
X018570Y020010D01*
X018570Y019310D02*
X018572Y019293D01*
X018576Y019276D01*
X018583Y019260D01*
X018593Y019246D01*
X018606Y019233D01*
X018620Y019223D01*
X018636Y019216D01*
X018653Y019212D01*
X018670Y019210D01*
X017820Y018610D02*
X017770Y018660D01*
X017770Y020560D01*
X017820Y020610D01*
X017820Y020760D01*
X017818Y020777D01*
X017814Y020794D01*
X017807Y020810D01*
X017797Y020824D01*
X017784Y020837D01*
X017770Y020847D01*
X017754Y020854D01*
X017737Y020858D01*
X017720Y020860D01*
X017020Y020860D02*
X017003Y020858D01*
X016986Y020854D01*
X016970Y020847D01*
X016956Y020837D01*
X016943Y020824D01*
X016933Y020810D01*
X016926Y020794D01*
X016922Y020777D01*
X016920Y020760D01*
X016920Y020610D01*
X016970Y020560D01*
X016970Y018660D01*
X016920Y018610D01*
X016920Y018460D01*
X016922Y018443D01*
X016926Y018426D01*
X016933Y018410D01*
X016943Y018396D01*
X016956Y018383D01*
X016970Y018373D01*
X016986Y018366D01*
X017003Y018362D01*
X017020Y018360D01*
X017720Y018360D02*
X017737Y018362D01*
X017754Y018366D01*
X017770Y018373D01*
X017784Y018383D01*
X017797Y018396D01*
X017807Y018410D01*
X017814Y018426D01*
X017818Y018443D01*
X017820Y018460D01*
X017820Y018610D01*
X018570Y018190D02*
X018572Y018173D01*
X018576Y018156D01*
X018583Y018140D01*
X018593Y018126D01*
X018606Y018113D01*
X018620Y018103D01*
X018636Y018096D01*
X018653Y018092D01*
X018670Y018090D01*
X018570Y017070D02*
X018572Y017053D01*
X018576Y017036D01*
X018583Y017020D01*
X018593Y017006D01*
X018606Y016993D01*
X018620Y016983D01*
X018636Y016976D01*
X018653Y016972D01*
X018670Y016970D01*
X018570Y015950D02*
X018572Y015933D01*
X018576Y015916D01*
X018583Y015900D01*
X018593Y015886D01*
X018606Y015873D01*
X018620Y015863D01*
X018636Y015856D01*
X018653Y015852D01*
X018670Y015850D01*
X018820Y015850D01*
X017070Y016020D02*
X017020Y015970D01*
X017020Y014070D01*
X017070Y014020D01*
X017070Y013870D01*
X017068Y013853D01*
X017064Y013836D01*
X017057Y013820D01*
X017047Y013806D01*
X017034Y013793D01*
X017020Y013783D01*
X017004Y013776D01*
X016987Y013772D01*
X016970Y013770D01*
X016270Y013770D02*
X016253Y013772D01*
X016236Y013776D01*
X016220Y013783D01*
X016206Y013793D01*
X016193Y013806D01*
X016183Y013820D01*
X016176Y013836D01*
X016172Y013853D01*
X016170Y013870D01*
X016170Y014020D01*
X016220Y014070D01*
X016220Y015970D01*
X016170Y016020D01*
X016170Y016170D01*
X016172Y016187D01*
X016176Y016204D01*
X016183Y016220D01*
X016193Y016234D01*
X016206Y016247D01*
X016220Y016257D01*
X016236Y016264D01*
X016253Y016268D01*
X016270Y016270D01*
X015950Y016170D02*
X015950Y016020D01*
X015900Y015970D01*
X015900Y014070D01*
X015950Y014020D01*
X015950Y013870D01*
X015948Y013853D01*
X015944Y013836D01*
X015937Y013820D01*
X015927Y013806D01*
X015914Y013793D01*
X015900Y013783D01*
X015884Y013776D01*
X015867Y013772D01*
X015850Y013770D01*
X015150Y013770D02*
X015133Y013772D01*
X015116Y013776D01*
X015100Y013783D01*
X015086Y013793D01*
X015073Y013806D01*
X015063Y013820D01*
X015056Y013836D01*
X015052Y013853D01*
X015050Y013870D01*
X015050Y014020D01*
X015100Y014070D01*
X015100Y015970D01*
X015050Y016020D01*
X015050Y016170D01*
X015052Y016187D01*
X015056Y016204D01*
X015063Y016220D01*
X015073Y016234D01*
X015086Y016247D01*
X015100Y016257D01*
X015116Y016264D01*
X015133Y016268D01*
X015150Y016270D01*
X015850Y016270D02*
X015867Y016268D01*
X015884Y016264D01*
X015900Y016257D01*
X015914Y016247D01*
X015927Y016234D01*
X015937Y016220D01*
X015944Y016204D01*
X015948Y016187D01*
X015950Y016170D01*
X016010Y017130D02*
X015860Y017130D01*
X015810Y017180D01*
X013910Y017180D01*
X013860Y017130D01*
X013710Y017130D01*
X013693Y017132D01*
X013676Y017136D01*
X013660Y017143D01*
X013646Y017153D01*
X013633Y017166D01*
X013623Y017180D01*
X013616Y017196D01*
X013612Y017213D01*
X013610Y017230D01*
X013610Y017930D02*
X013612Y017947D01*
X013616Y017964D01*
X013623Y017980D01*
X013633Y017994D01*
X013646Y018007D01*
X013660Y018017D01*
X013676Y018024D01*
X013693Y018028D01*
X013710Y018030D01*
X013860Y018030D01*
X013910Y017980D01*
X015810Y017980D01*
X015860Y018030D01*
X016010Y018030D01*
X016027Y018028D01*
X016044Y018024D01*
X016060Y018017D01*
X016074Y018007D01*
X016087Y017994D01*
X016097Y017980D01*
X016104Y017964D01*
X016108Y017947D01*
X016110Y017930D01*
X016010Y018250D02*
X015860Y018250D01*
X015810Y018300D01*
X013910Y018300D01*
X013860Y018250D01*
X013710Y018250D01*
X013693Y018252D01*
X013676Y018256D01*
X013660Y018263D01*
X013646Y018273D01*
X013633Y018286D01*
X013623Y018300D01*
X013616Y018316D01*
X013612Y018333D01*
X013610Y018350D01*
X013610Y019050D02*
X013612Y019067D01*
X013616Y019084D01*
X013623Y019100D01*
X013633Y019114D01*
X013646Y019127D01*
X013660Y019137D01*
X013676Y019144D01*
X013693Y019148D01*
X013710Y019150D01*
X013860Y019150D01*
X013910Y019100D01*
X015810Y019100D01*
X015860Y019150D01*
X016010Y019150D01*
X016027Y019148D01*
X016044Y019144D01*
X016060Y019137D01*
X016074Y019127D01*
X016087Y019114D01*
X016097Y019100D01*
X016104Y019084D01*
X016108Y019067D01*
X016110Y019050D01*
X016110Y018350D02*
X016108Y018333D01*
X016104Y018316D01*
X016097Y018300D01*
X016087Y018286D01*
X016074Y018273D01*
X016060Y018263D01*
X016044Y018256D01*
X016027Y018252D01*
X016010Y018250D01*
X016110Y017230D02*
X016108Y017213D01*
X016104Y017196D01*
X016097Y017180D01*
X016087Y017166D01*
X016074Y017153D01*
X016060Y017143D01*
X016044Y017136D01*
X016027Y017132D01*
X016010Y017130D01*
X016970Y016270D02*
X016987Y016268D01*
X017004Y016264D01*
X017020Y016257D01*
X017034Y016247D01*
X017047Y016234D01*
X017057Y016220D01*
X017064Y016204D01*
X017068Y016187D01*
X017070Y016170D01*
X017070Y016020D01*
X016810Y012590D02*
X016660Y012590D01*
X016610Y012540D01*
X014710Y012540D01*
X014660Y012590D01*
X014510Y012590D01*
X014493Y012588D01*
X014476Y012584D01*
X014460Y012577D01*
X014446Y012567D01*
X014433Y012554D01*
X014423Y012540D01*
X014416Y012524D01*
X014412Y012507D01*
X014410Y012490D01*
X014410Y011790D02*
X014412Y011773D01*
X014416Y011756D01*
X014423Y011740D01*
X014433Y011726D01*
X014446Y011713D01*
X014460Y011703D01*
X014476Y011696D01*
X014493Y011692D01*
X014510Y011690D01*
X014660Y011690D01*
X014710Y011740D01*
X016610Y011740D01*
X016660Y011690D01*
X016810Y011690D01*
X016827Y011692D01*
X016844Y011696D01*
X016860Y011703D01*
X016874Y011713D01*
X016887Y011726D01*
X016897Y011740D01*
X016904Y011756D01*
X016908Y011773D01*
X016910Y011790D01*
X016810Y011470D02*
X016660Y011470D01*
X016610Y011420D01*
X014710Y011420D01*
X014660Y011470D01*
X014510Y011470D01*
X014493Y011468D01*
X014476Y011464D01*
X014460Y011457D01*
X014446Y011447D01*
X014433Y011434D01*
X014423Y011420D01*
X014416Y011404D01*
X014412Y011387D01*
X014410Y011370D01*
X014410Y010670D02*
X014412Y010653D01*
X014416Y010636D01*
X014423Y010620D01*
X014433Y010606D01*
X014446Y010593D01*
X014460Y010583D01*
X014476Y010576D01*
X014493Y010572D01*
X014510Y010570D01*
X014660Y010570D01*
X014710Y010620D01*
X016610Y010620D01*
X016660Y010570D01*
X016810Y010570D01*
X016827Y010572D01*
X016844Y010576D01*
X016860Y010583D01*
X016874Y010593D01*
X016887Y010606D01*
X016897Y010620D01*
X016904Y010636D01*
X016908Y010653D01*
X016910Y010670D01*
X016810Y010350D02*
X016660Y010350D01*
X016610Y010300D01*
X014710Y010300D01*
X014660Y010350D01*
X014510Y010350D01*
X014493Y010348D01*
X014476Y010344D01*
X014460Y010337D01*
X014446Y010327D01*
X014433Y010314D01*
X014423Y010300D01*
X014416Y010284D01*
X014412Y010267D01*
X014410Y010250D01*
X014410Y009550D02*
X014412Y009533D01*
X014416Y009516D01*
X014423Y009500D01*
X014433Y009486D01*
X014446Y009473D01*
X014460Y009463D01*
X014476Y009456D01*
X014493Y009452D01*
X014510Y009450D01*
X014660Y009450D01*
X014710Y009500D01*
X016610Y009500D01*
X016660Y009450D01*
X016810Y009450D01*
X016827Y009452D01*
X016844Y009456D01*
X016860Y009463D01*
X016874Y009473D01*
X016887Y009486D01*
X016897Y009500D01*
X016904Y009516D01*
X016908Y009533D01*
X016910Y009550D01*
X016810Y009230D02*
X016660Y009230D01*
X016610Y009180D01*
X014710Y009180D01*
X014660Y009230D01*
X014510Y009230D01*
X014493Y009228D01*
X014476Y009224D01*
X014460Y009217D01*
X014446Y009207D01*
X014433Y009194D01*
X014423Y009180D01*
X014416Y009164D01*
X014412Y009147D01*
X014410Y009130D01*
X014410Y008430D02*
X014412Y008413D01*
X014416Y008396D01*
X014423Y008380D01*
X014433Y008366D01*
X014446Y008353D01*
X014460Y008343D01*
X014476Y008336D01*
X014493Y008332D01*
X014510Y008330D01*
X014660Y008330D01*
X014710Y008380D01*
X016610Y008380D01*
X016660Y008330D01*
X016810Y008330D01*
X016827Y008332D01*
X016844Y008336D01*
X016860Y008343D01*
X016874Y008353D01*
X016887Y008366D01*
X016897Y008380D01*
X016904Y008396D01*
X016908Y008413D01*
X016910Y008430D01*
X016910Y009130D02*
X016908Y009147D01*
X016904Y009164D01*
X016897Y009180D01*
X016887Y009194D01*
X016874Y009207D01*
X016860Y009217D01*
X016844Y009224D01*
X016827Y009228D01*
X016810Y009230D01*
X016910Y010250D02*
X016908Y010267D01*
X016904Y010284D01*
X016897Y010300D01*
X016887Y010314D01*
X016874Y010327D01*
X016860Y010337D01*
X016844Y010344D01*
X016827Y010348D01*
X016810Y010350D01*
X016910Y011370D02*
X016908Y011387D01*
X016904Y011404D01*
X016897Y011420D01*
X016887Y011434D01*
X016874Y011447D01*
X016860Y011457D01*
X016844Y011464D01*
X016827Y011468D01*
X016810Y011470D01*
X016910Y012490D02*
X016908Y012507D01*
X016904Y012524D01*
X016897Y012540D01*
X016887Y012554D01*
X016874Y012567D01*
X016860Y012577D01*
X016844Y012584D01*
X016827Y012588D01*
X016810Y012590D01*
X018190Y009230D02*
X018340Y009230D01*
X018390Y009180D01*
X020290Y009180D01*
X020340Y009230D01*
X020490Y009230D01*
X020507Y009228D01*
X020524Y009224D01*
X020540Y009217D01*
X020554Y009207D01*
X020567Y009194D01*
X020577Y009180D01*
X020584Y009164D01*
X020588Y009147D01*
X020590Y009130D01*
X020590Y008430D02*
X020588Y008413D01*
X020584Y008396D01*
X020577Y008380D01*
X020567Y008366D01*
X020554Y008353D01*
X020540Y008343D01*
X020524Y008336D01*
X020507Y008332D01*
X020490Y008330D01*
X020340Y008330D01*
X020290Y008380D01*
X018390Y008380D01*
X018340Y008330D01*
X018190Y008330D01*
X018173Y008332D01*
X018156Y008336D01*
X018140Y008343D01*
X018126Y008353D01*
X018113Y008366D01*
X018103Y008380D01*
X018096Y008396D01*
X018092Y008413D01*
X018090Y008430D01*
X018090Y009130D02*
X018092Y009147D01*
X018096Y009164D01*
X018103Y009180D01*
X018113Y009194D01*
X018126Y009207D01*
X018140Y009217D01*
X018156Y009224D01*
X018173Y009228D01*
X018190Y009230D01*
X013550Y009460D02*
X013550Y009610D01*
X013548Y009627D01*
X013544Y009644D01*
X013537Y009660D01*
X013527Y009674D01*
X013514Y009687D01*
X013500Y009697D01*
X013484Y009704D01*
X013467Y009708D01*
X013450Y009710D01*
X013550Y009460D02*
X013500Y009410D01*
X013500Y007510D01*
X013550Y007460D01*
X013550Y007310D01*
X013548Y007293D01*
X013544Y007276D01*
X013537Y007260D01*
X013527Y007246D01*
X013514Y007233D01*
X013500Y007223D01*
X013484Y007216D01*
X013467Y007212D01*
X013450Y007210D01*
X012750Y007210D02*
X012733Y007212D01*
X012716Y007216D01*
X012700Y007223D01*
X012686Y007233D01*
X012673Y007246D01*
X012663Y007260D01*
X012656Y007276D01*
X012652Y007293D01*
X012650Y007310D01*
X012650Y007460D01*
X012700Y007510D01*
X012700Y009410D01*
X012650Y009460D01*
X012650Y009610D01*
X012652Y009627D01*
X012656Y009644D01*
X012663Y009660D01*
X012673Y009674D01*
X012686Y009687D01*
X012700Y009697D01*
X012716Y009704D01*
X012733Y009708D01*
X012750Y009710D01*
X012430Y009610D02*
X012430Y009460D01*
X012380Y009410D01*
X012380Y007510D01*
X012430Y007460D01*
X012430Y007310D01*
X012428Y007293D01*
X012424Y007276D01*
X012417Y007260D01*
X012407Y007246D01*
X012394Y007233D01*
X012380Y007223D01*
X012364Y007216D01*
X012347Y007212D01*
X012330Y007210D01*
X011630Y007210D02*
X011613Y007212D01*
X011596Y007216D01*
X011580Y007223D01*
X011566Y007233D01*
X011553Y007246D01*
X011543Y007260D01*
X011536Y007276D01*
X011532Y007293D01*
X011530Y007310D01*
X011530Y007460D01*
X011580Y007510D01*
X011580Y009410D01*
X011530Y009460D01*
X011530Y009610D01*
X011470Y009610D02*
X011470Y009460D01*
X011420Y009410D01*
X011420Y007510D01*
X011470Y007460D01*
X011470Y007310D01*
X011468Y007293D01*
X011464Y007276D01*
X011457Y007260D01*
X011447Y007246D01*
X011434Y007233D01*
X011420Y007223D01*
X011404Y007216D01*
X011387Y007212D01*
X011370Y007210D01*
X010670Y007210D02*
X010653Y007212D01*
X010636Y007216D01*
X010620Y007223D01*
X010606Y007233D01*
X010593Y007246D01*
X010583Y007260D01*
X010576Y007276D01*
X010572Y007293D01*
X010570Y007310D01*
X010570Y007460D01*
X010620Y007510D01*
X010620Y009410D01*
X010570Y009460D01*
X010570Y009610D01*
X010572Y009627D01*
X010576Y009644D01*
X010583Y009660D01*
X010593Y009674D01*
X010606Y009687D01*
X010620Y009697D01*
X010636Y009704D01*
X010653Y009708D01*
X010670Y009710D01*
X011370Y009710D02*
X011387Y009708D01*
X011404Y009704D01*
X011420Y009697D01*
X011434Y009687D01*
X011447Y009674D01*
X011457Y009660D01*
X011464Y009644D01*
X011468Y009627D01*
X011470Y009610D01*
X011530Y009610D02*
X011532Y009627D01*
X011536Y009644D01*
X011543Y009660D01*
X011553Y009674D01*
X011566Y009687D01*
X011580Y009697D01*
X011596Y009704D01*
X011613Y009708D01*
X011630Y009710D01*
X012330Y009710D02*
X012347Y009708D01*
X012364Y009704D01*
X012380Y009697D01*
X012394Y009687D01*
X012407Y009674D01*
X012417Y009660D01*
X012424Y009644D01*
X012428Y009627D01*
X012430Y009610D01*
X012820Y010890D02*
X012770Y010940D01*
X010870Y010940D01*
X010820Y010890D01*
X010670Y010890D01*
X010653Y010892D01*
X010636Y010896D01*
X010620Y010903D01*
X010606Y010913D01*
X010593Y010926D01*
X010583Y010940D01*
X010576Y010956D01*
X010572Y010973D01*
X010570Y010990D01*
X010570Y011690D02*
X010572Y011707D01*
X010576Y011724D01*
X010583Y011740D01*
X010593Y011754D01*
X010606Y011767D01*
X010620Y011777D01*
X010636Y011784D01*
X010653Y011788D01*
X010670Y011790D01*
X010820Y011790D01*
X010870Y011740D01*
X012770Y011740D01*
X012820Y011790D01*
X012970Y011790D01*
X012987Y011788D01*
X013004Y011784D01*
X013020Y011777D01*
X013034Y011767D01*
X013047Y011754D01*
X013057Y011740D01*
X013064Y011724D01*
X013068Y011707D01*
X013070Y011690D01*
X013070Y010990D02*
X013068Y010973D01*
X013064Y010956D01*
X013057Y010940D01*
X013047Y010926D01*
X013034Y010913D01*
X013020Y010903D01*
X013004Y010896D01*
X012987Y010892D01*
X012970Y010890D01*
X012820Y010890D01*
X012430Y004490D02*
X012430Y004340D01*
X012380Y004290D01*
X012380Y002390D01*
X012430Y002340D01*
X012430Y002190D01*
X012428Y002173D01*
X012424Y002156D01*
X012417Y002140D01*
X012407Y002126D01*
X012394Y002113D01*
X012380Y002103D01*
X012364Y002096D01*
X012347Y002092D01*
X012330Y002090D01*
X011630Y002090D02*
X011613Y002092D01*
X011596Y002096D01*
X011580Y002103D01*
X011566Y002113D01*
X011553Y002126D01*
X011543Y002140D01*
X011536Y002156D01*
X011532Y002173D01*
X011530Y002190D01*
X011530Y002340D01*
X011580Y002390D01*
X011580Y004290D01*
X011530Y004340D01*
X011530Y004490D01*
X011532Y004507D01*
X011536Y004524D01*
X011543Y004540D01*
X011553Y004554D01*
X011566Y004567D01*
X011580Y004577D01*
X011596Y004584D01*
X011613Y004588D01*
X011630Y004590D01*
X012330Y004590D02*
X012347Y004588D01*
X012364Y004584D01*
X012380Y004577D01*
X012394Y004567D01*
X012407Y004554D01*
X012417Y004540D01*
X012424Y004524D01*
X012428Y004507D01*
X012430Y004490D01*
X014190Y003950D02*
X014340Y003950D01*
X014390Y003900D01*
X016290Y003900D01*
X016340Y003950D01*
X016490Y003950D01*
X016507Y003948D01*
X016524Y003944D01*
X016540Y003937D01*
X016554Y003927D01*
X016567Y003914D01*
X016577Y003900D01*
X016584Y003884D01*
X016588Y003867D01*
X016590Y003850D01*
X016590Y003150D02*
X016588Y003133D01*
X016584Y003116D01*
X016577Y003100D01*
X016567Y003086D01*
X016554Y003073D01*
X016540Y003063D01*
X016524Y003056D01*
X016507Y003052D01*
X016490Y003050D01*
X016340Y003050D01*
X016290Y003100D01*
X014390Y003100D01*
X014340Y003050D01*
X014190Y003050D01*
X014173Y003052D01*
X014156Y003056D01*
X014140Y003063D01*
X014126Y003073D01*
X014113Y003086D01*
X014103Y003100D01*
X014096Y003116D01*
X014092Y003133D01*
X014090Y003150D01*
X014190Y002830D02*
X014340Y002830D01*
X014390Y002780D01*
X016290Y002780D01*
X016340Y002830D01*
X016490Y002830D01*
X016507Y002828D01*
X016524Y002824D01*
X016540Y002817D01*
X016554Y002807D01*
X016567Y002794D01*
X016577Y002780D01*
X016584Y002764D01*
X016588Y002747D01*
X016590Y002730D01*
X016590Y002030D02*
X016588Y002013D01*
X016584Y001996D01*
X016577Y001980D01*
X016567Y001966D01*
X016554Y001953D01*
X016540Y001943D01*
X016524Y001936D01*
X016507Y001932D01*
X016490Y001930D01*
X016340Y001930D01*
X016290Y001980D01*
X014390Y001980D01*
X014340Y001930D01*
X014190Y001930D01*
X014173Y001932D01*
X014156Y001936D01*
X014140Y001943D01*
X014126Y001953D01*
X014113Y001966D01*
X014103Y001980D01*
X014096Y001996D01*
X014092Y002013D01*
X014090Y002030D01*
X014190Y001710D02*
X014340Y001710D01*
X014390Y001660D01*
X016290Y001660D01*
X016340Y001710D01*
X016490Y001710D01*
X016507Y001708D01*
X016524Y001704D01*
X016540Y001697D01*
X016554Y001687D01*
X016567Y001674D01*
X016577Y001660D01*
X016584Y001644D01*
X016588Y001627D01*
X016590Y001610D01*
X016590Y000910D02*
X016588Y000893D01*
X016584Y000876D01*
X016577Y000860D01*
X016567Y000846D01*
X016554Y000833D01*
X016540Y000823D01*
X016524Y000816D01*
X016507Y000812D01*
X016490Y000810D01*
X016340Y000810D01*
X016290Y000860D01*
X014390Y000860D01*
X014340Y000810D01*
X014190Y000810D01*
X014173Y000812D01*
X014156Y000816D01*
X014140Y000823D01*
X014126Y000833D01*
X014113Y000846D01*
X014103Y000860D01*
X014096Y000876D01*
X014092Y000893D01*
X014090Y000910D01*
X014090Y001610D02*
X014092Y001627D01*
X014096Y001644D01*
X014103Y001660D01*
X014113Y001674D01*
X014126Y001687D01*
X014140Y001697D01*
X014156Y001704D01*
X014173Y001708D01*
X014190Y001710D01*
X014090Y002730D02*
X014092Y002747D01*
X014096Y002764D01*
X014103Y002780D01*
X014113Y002794D01*
X014126Y002807D01*
X014140Y002817D01*
X014156Y002824D01*
X014173Y002828D01*
X014190Y002830D01*
X014090Y003850D02*
X014092Y003867D01*
X014096Y003884D01*
X014103Y003900D01*
X014113Y003914D01*
X014126Y003927D01*
X014140Y003937D01*
X014156Y003944D01*
X014173Y003948D01*
X014190Y003950D01*
X008540Y004490D02*
X008490Y003340D01*
X008390Y003240D01*
X004690Y003240D01*
X004590Y003340D01*
X004540Y004490D01*
X003644Y008187D02*
X006203Y008187D01*
X006203Y009565D01*
X003644Y009565D01*
X003644Y008187D01*
X004500Y010890D02*
X004650Y010890D01*
X004667Y010892D01*
X004684Y010896D01*
X004700Y010903D01*
X004714Y010913D01*
X004727Y010926D01*
X004737Y010940D01*
X004744Y010956D01*
X004748Y010973D01*
X004750Y010990D01*
X004500Y010890D02*
X004450Y010940D01*
X002550Y010940D01*
X002500Y010890D01*
X002350Y010890D01*
X002333Y010892D01*
X002316Y010896D01*
X002300Y010903D01*
X002286Y010913D01*
X002273Y010926D01*
X002263Y010940D01*
X002256Y010956D01*
X002252Y010973D01*
X002250Y010990D01*
X002250Y011690D02*
X002252Y011707D01*
X002256Y011724D01*
X002263Y011740D01*
X002273Y011754D01*
X002286Y011767D01*
X002300Y011777D01*
X002316Y011784D01*
X002333Y011788D01*
X002350Y011790D01*
X002500Y011790D01*
X002550Y011740D01*
X004450Y011740D01*
X004500Y011790D01*
X004650Y011790D01*
X004667Y011788D01*
X004684Y011784D01*
X004700Y011777D01*
X004714Y011767D01*
X004727Y011754D01*
X004737Y011740D01*
X004744Y011724D01*
X004748Y011707D01*
X004750Y011690D01*
X005450Y012110D02*
X005450Y012260D01*
X005500Y012310D01*
X005500Y014210D01*
X005450Y014260D01*
X005450Y014410D01*
X005452Y014427D01*
X005456Y014444D01*
X005463Y014460D01*
X005473Y014474D01*
X005486Y014487D01*
X005500Y014497D01*
X005516Y014504D01*
X005533Y014508D01*
X005550Y014510D01*
X006250Y014510D02*
X006267Y014508D01*
X006284Y014504D01*
X006300Y014497D01*
X006314Y014487D01*
X006327Y014474D01*
X006337Y014460D01*
X006344Y014444D01*
X006348Y014427D01*
X006350Y014410D01*
X006350Y014260D01*
X006300Y014210D01*
X006300Y012310D01*
X006350Y012260D01*
X006350Y012110D01*
X006348Y012093D01*
X006344Y012076D01*
X006337Y012060D01*
X006327Y012046D01*
X006314Y012033D01*
X006300Y012023D01*
X006284Y012016D01*
X006267Y012012D01*
X006250Y012010D01*
X005550Y012010D02*
X005533Y012012D01*
X005516Y012016D01*
X005500Y012023D01*
X005486Y012033D01*
X005473Y012046D01*
X005463Y012060D01*
X005456Y012076D01*
X005452Y012093D01*
X005450Y012110D01*
X004650Y014890D02*
X004500Y014890D01*
X004450Y014940D01*
X002550Y014940D01*
X002500Y014890D01*
X002350Y014890D01*
X002333Y014892D01*
X002316Y014896D01*
X002300Y014903D01*
X002286Y014913D01*
X002273Y014926D01*
X002263Y014940D01*
X002256Y014956D01*
X002252Y014973D01*
X002250Y014990D01*
X002250Y015690D02*
X002252Y015707D01*
X002256Y015724D01*
X002263Y015740D01*
X002273Y015754D01*
X002286Y015767D01*
X002300Y015777D01*
X002316Y015784D01*
X002333Y015788D01*
X002350Y015790D01*
X002500Y015790D01*
X002550Y015740D01*
X004450Y015740D01*
X004500Y015790D01*
X004650Y015790D01*
X004667Y015788D01*
X004684Y015784D01*
X004700Y015777D01*
X004714Y015767D01*
X004727Y015754D01*
X004737Y015740D01*
X004744Y015724D01*
X004748Y015707D01*
X004750Y015690D01*
X004540Y016000D02*
X004390Y016000D01*
X004340Y016050D01*
X002440Y016050D01*
X002390Y016000D01*
X002240Y016000D01*
X002223Y016002D01*
X002206Y016006D01*
X002190Y016013D01*
X002176Y016023D01*
X002163Y016036D01*
X002153Y016050D01*
X002146Y016066D01*
X002142Y016083D01*
X002140Y016100D01*
X002140Y016800D02*
X002142Y016817D01*
X002146Y016834D01*
X002153Y016850D01*
X002163Y016864D01*
X002176Y016877D01*
X002190Y016887D01*
X002206Y016894D01*
X002223Y016898D01*
X002240Y016900D01*
X002390Y016900D01*
X002440Y016850D01*
X004340Y016850D01*
X004390Y016900D01*
X004540Y016900D01*
X004557Y016898D01*
X004574Y016894D01*
X004590Y016887D01*
X004604Y016877D01*
X004617Y016864D01*
X004627Y016850D01*
X004634Y016834D01*
X004638Y016817D01*
X004640Y016800D01*
X004640Y016100D02*
X004638Y016083D01*
X004634Y016066D01*
X004627Y016050D01*
X004617Y016036D01*
X004604Y016023D01*
X004590Y016013D01*
X004574Y016006D01*
X004557Y016002D01*
X004540Y016000D01*
X004750Y014990D02*
X004748Y014973D01*
X004744Y014956D01*
X004737Y014940D01*
X004727Y014926D01*
X004714Y014913D01*
X004700Y014903D01*
X004684Y014896D01*
X004667Y014892D01*
X004650Y014890D01*
X004560Y020310D02*
X004410Y020310D01*
X004360Y020360D01*
X002460Y020360D01*
X002410Y020310D01*
X002260Y020310D01*
X002243Y020312D01*
X002226Y020316D01*
X002210Y020323D01*
X002196Y020333D01*
X002183Y020346D01*
X002173Y020360D01*
X002166Y020376D01*
X002162Y020393D01*
X002160Y020410D01*
X002160Y021110D02*
X002162Y021127D01*
X002166Y021144D01*
X002173Y021160D01*
X002183Y021174D01*
X002196Y021187D01*
X002210Y021197D01*
X002226Y021204D01*
X002243Y021208D01*
X002260Y021210D01*
X002410Y021210D01*
X002460Y021160D01*
X004360Y021160D01*
X004410Y021210D01*
X004560Y021210D01*
X004577Y021208D01*
X004594Y021204D01*
X004610Y021197D01*
X004624Y021187D01*
X004637Y021174D01*
X004647Y021160D01*
X004654Y021144D01*
X004658Y021127D01*
X004660Y021110D01*
X004660Y020410D02*
X004658Y020393D01*
X004654Y020376D01*
X004647Y020360D01*
X004637Y020346D01*
X004624Y020333D01*
X004610Y020323D01*
X004594Y020316D01*
X004577Y020312D01*
X004560Y020310D01*
X005430Y021430D02*
X005580Y021430D01*
X005597Y021432D01*
X005614Y021436D01*
X005630Y021443D01*
X005644Y021453D01*
X005657Y021466D01*
X005667Y021480D01*
X005674Y021496D01*
X005678Y021513D01*
X005680Y021530D01*
X005430Y021430D02*
X005380Y021480D01*
X003480Y021480D01*
X003430Y021430D01*
X003280Y021430D01*
X003263Y021432D01*
X003246Y021436D01*
X003230Y021443D01*
X003216Y021453D01*
X003203Y021466D01*
X003193Y021480D01*
X003186Y021496D01*
X003182Y021513D01*
X003180Y021530D01*
X003180Y022230D02*
X003182Y022247D01*
X003186Y022264D01*
X003193Y022280D01*
X003203Y022294D01*
X003216Y022307D01*
X003230Y022317D01*
X003246Y022324D01*
X003263Y022328D01*
X003280Y022330D01*
X003430Y022330D01*
X003480Y022280D01*
X005380Y022280D01*
X005430Y022330D01*
X005580Y022330D01*
X005597Y022328D01*
X005614Y022324D01*
X005630Y022317D01*
X005644Y022307D01*
X005657Y022294D01*
X005667Y022280D01*
X005674Y022264D01*
X005678Y022247D01*
X005680Y022230D01*
X005345Y023470D02*
X003935Y023470D01*
X004125Y026530D02*
X004127Y026559D01*
X004133Y026587D01*
X004142Y026614D01*
X004156Y026639D01*
X004172Y026663D01*
X004192Y026683D01*
X004214Y026702D01*
X004238Y026716D01*
X004265Y026728D01*
X004292Y026736D01*
X004321Y026740D01*
X004349Y026740D01*
X004378Y026736D01*
X004405Y026728D01*
X004432Y026716D01*
X004456Y026702D01*
X004478Y026683D01*
X004498Y026663D01*
X004514Y026639D01*
X004528Y026614D01*
X004537Y026587D01*
X004543Y026559D01*
X004545Y026530D01*
X004543Y026501D01*
X004537Y026473D01*
X004528Y026446D01*
X004514Y026421D01*
X004498Y026397D01*
X004478Y026377D01*
X004456Y026358D01*
X004432Y026344D01*
X004405Y026332D01*
X004378Y026324D01*
X004349Y026320D01*
X004321Y026320D01*
X004292Y026324D01*
X004265Y026332D01*
X004238Y026344D01*
X004214Y026358D01*
X004192Y026377D01*
X004172Y026397D01*
X004156Y026421D01*
X004142Y026446D01*
X004133Y026473D01*
X004127Y026501D01*
X004125Y026530D01*
X003935Y026830D02*
X005345Y026830D01*
X008800Y024390D02*
X008950Y024390D01*
X009000Y024340D01*
X010900Y024340D01*
X010950Y024390D01*
X011100Y024390D01*
X011117Y024388D01*
X011134Y024384D01*
X011150Y024377D01*
X011164Y024367D01*
X011177Y024354D01*
X011187Y024340D01*
X011194Y024324D01*
X011198Y024307D01*
X011200Y024290D01*
X011200Y023590D02*
X011198Y023573D01*
X011194Y023556D01*
X011187Y023540D01*
X011177Y023526D01*
X011164Y023513D01*
X011150Y023503D01*
X011134Y023496D01*
X011117Y023492D01*
X011100Y023490D01*
X010950Y023490D01*
X010900Y023540D01*
X009000Y023540D01*
X008950Y023490D01*
X008800Y023490D01*
X008783Y023492D01*
X008766Y023496D01*
X008750Y023503D01*
X008736Y023513D01*
X008723Y023526D01*
X008713Y023540D01*
X008706Y023556D01*
X008702Y023573D01*
X008700Y023590D01*
X008700Y024290D02*
X008702Y024307D01*
X008706Y024324D01*
X008713Y024340D01*
X008723Y024354D01*
X008736Y024367D01*
X008750Y024377D01*
X008766Y024384D01*
X008783Y024388D01*
X008800Y024390D01*
X010500Y025450D02*
X010500Y025600D01*
X010550Y025650D01*
X010550Y027550D01*
X010500Y027600D01*
X010500Y027750D01*
X010502Y027767D01*
X010506Y027784D01*
X010513Y027800D01*
X010523Y027814D01*
X010536Y027827D01*
X010550Y027837D01*
X010566Y027844D01*
X010583Y027848D01*
X010600Y027850D01*
X011300Y027850D02*
X011317Y027848D01*
X011334Y027844D01*
X011350Y027837D01*
X011364Y027827D01*
X011377Y027814D01*
X011387Y027800D01*
X011394Y027784D01*
X011398Y027767D01*
X011400Y027750D01*
X011400Y027600D01*
X011350Y027550D01*
X011350Y025650D01*
X011400Y025600D01*
X011400Y025450D01*
X011398Y025433D01*
X011394Y025416D01*
X011387Y025400D01*
X011377Y025386D01*
X011364Y025373D01*
X011350Y025363D01*
X011334Y025356D01*
X011317Y025352D01*
X011300Y025350D01*
X011750Y025450D02*
X011750Y025600D01*
X011800Y025650D01*
X011800Y027550D01*
X011750Y027600D01*
X011750Y027750D01*
X011752Y027767D01*
X011756Y027784D01*
X011763Y027800D01*
X011773Y027814D01*
X011786Y027827D01*
X011800Y027837D01*
X011816Y027844D01*
X011833Y027848D01*
X011850Y027850D01*
X012550Y027850D02*
X012567Y027848D01*
X012584Y027844D01*
X012600Y027837D01*
X012614Y027827D01*
X012627Y027814D01*
X012637Y027800D01*
X012644Y027784D01*
X012648Y027767D01*
X012650Y027750D01*
X012650Y027600D01*
X012600Y027550D01*
X012600Y025650D01*
X012650Y025600D01*
X012650Y025450D01*
X012648Y025433D01*
X012644Y025416D01*
X012637Y025400D01*
X012627Y025386D01*
X012614Y025373D01*
X012600Y025363D01*
X012584Y025356D01*
X012567Y025352D01*
X012550Y025350D01*
X011850Y025350D02*
X011833Y025352D01*
X011816Y025356D01*
X011800Y025363D01*
X011786Y025373D01*
X011773Y025386D01*
X011763Y025400D01*
X011756Y025416D01*
X011752Y025433D01*
X011750Y025450D01*
X010600Y025350D02*
X010583Y025352D01*
X010566Y025356D01*
X010550Y025363D01*
X010536Y025373D01*
X010523Y025386D01*
X010513Y025400D01*
X010506Y025416D01*
X010502Y025433D01*
X010500Y025450D01*
X011050Y022730D02*
X011050Y022580D01*
X011100Y022530D01*
X011100Y020630D01*
X011050Y020580D01*
X011050Y020430D01*
X011052Y020413D01*
X011056Y020396D01*
X011063Y020380D01*
X011073Y020366D01*
X011086Y020353D01*
X011100Y020343D01*
X011116Y020336D01*
X011133Y020332D01*
X011150Y020330D01*
X011850Y020330D02*
X011867Y020332D01*
X011884Y020336D01*
X011900Y020343D01*
X011914Y020353D01*
X011927Y020366D01*
X011937Y020380D01*
X011944Y020396D01*
X011948Y020413D01*
X011950Y020430D01*
X011950Y020580D01*
X011900Y020630D01*
X011900Y022530D01*
X011950Y022580D01*
X011950Y022730D01*
X011948Y022747D01*
X011944Y022764D01*
X011937Y022780D01*
X011927Y022794D01*
X011914Y022807D01*
X011900Y022817D01*
X011884Y022824D01*
X011867Y022828D01*
X011850Y022830D01*
X011150Y022830D02*
X011133Y022828D01*
X011116Y022824D01*
X011100Y022817D01*
X011086Y022807D01*
X011073Y022794D01*
X011063Y022780D01*
X011056Y022764D01*
X011052Y022747D01*
X011050Y022730D01*
X013870Y024010D02*
X014020Y024010D01*
X014070Y024060D01*
X015970Y024060D01*
X016020Y024010D01*
X016170Y024010D01*
X016187Y024012D01*
X016204Y024016D01*
X016220Y024023D01*
X016234Y024033D01*
X016247Y024046D01*
X016257Y024060D01*
X016264Y024076D01*
X016268Y024093D01*
X016270Y024110D01*
X016810Y024500D02*
X016810Y024650D01*
X016812Y024667D01*
X016816Y024684D01*
X016823Y024700D01*
X016833Y024714D01*
X016846Y024727D01*
X016860Y024737D01*
X016876Y024744D01*
X016893Y024748D01*
X016910Y024750D01*
X016810Y024500D02*
X016860Y024450D01*
X016860Y022550D01*
X016810Y022500D01*
X016810Y022350D01*
X016812Y022333D01*
X016816Y022316D01*
X016823Y022300D01*
X016833Y022286D01*
X016846Y022273D01*
X016860Y022263D01*
X016876Y022256D01*
X016893Y022252D01*
X016910Y022250D01*
X017610Y022250D02*
X017627Y022252D01*
X017644Y022256D01*
X017660Y022263D01*
X017674Y022273D01*
X017687Y022286D01*
X017697Y022300D01*
X017704Y022316D01*
X017708Y022333D01*
X017710Y022350D01*
X017710Y022500D01*
X017660Y022550D01*
X017660Y024450D01*
X017710Y024500D01*
X017710Y024650D01*
X017708Y024667D01*
X017704Y024684D01*
X017697Y024700D01*
X017687Y024714D01*
X017674Y024727D01*
X017660Y024737D01*
X017644Y024744D01*
X017627Y024748D01*
X017610Y024750D01*
X016270Y024810D02*
X016268Y024827D01*
X016264Y024844D01*
X016257Y024860D01*
X016247Y024874D01*
X016234Y024887D01*
X016220Y024897D01*
X016204Y024904D01*
X016187Y024908D01*
X016170Y024910D01*
X016020Y024910D01*
X015970Y024860D01*
X014070Y024860D01*
X014020Y024910D01*
X013870Y024910D01*
X013853Y024908D01*
X013836Y024904D01*
X013820Y024897D01*
X013806Y024887D01*
X013793Y024874D01*
X013783Y024860D01*
X013776Y024844D01*
X013772Y024827D01*
X013770Y024810D01*
X013860Y025050D02*
X014010Y025050D01*
X014060Y025100D01*
X015960Y025100D01*
X016010Y025050D01*
X016160Y025050D01*
X016177Y025052D01*
X016194Y025056D01*
X016210Y025063D01*
X016224Y025073D01*
X016237Y025086D01*
X016247Y025100D01*
X016254Y025116D01*
X016258Y025133D01*
X016260Y025150D01*
X016260Y025850D02*
X016258Y025867D01*
X016254Y025884D01*
X016247Y025900D01*
X016237Y025914D01*
X016224Y025927D01*
X016210Y025937D01*
X016194Y025944D01*
X016177Y025948D01*
X016160Y025950D01*
X016010Y025950D01*
X015960Y025900D01*
X014060Y025900D01*
X014010Y025950D01*
X013860Y025950D01*
X013843Y025948D01*
X013826Y025944D01*
X013810Y025937D01*
X013796Y025927D01*
X013783Y025914D01*
X013773Y025900D01*
X013766Y025884D01*
X013762Y025867D01*
X013760Y025850D01*
X013760Y025150D02*
X013762Y025133D01*
X013766Y025116D01*
X013773Y025100D01*
X013783Y025086D01*
X013796Y025073D01*
X013810Y025063D01*
X013826Y025056D01*
X013843Y025052D01*
X013860Y025050D01*
X013770Y024110D02*
X013772Y024093D01*
X013776Y024076D01*
X013783Y024060D01*
X013793Y024046D01*
X013806Y024033D01*
X013820Y024023D01*
X013836Y024016D01*
X013853Y024012D01*
X013870Y024010D01*
X017310Y026190D02*
X017310Y026340D01*
X017360Y026390D01*
X017360Y028290D01*
X017310Y028340D01*
X017310Y028490D01*
X017312Y028507D01*
X017316Y028524D01*
X017323Y028540D01*
X017333Y028554D01*
X017346Y028567D01*
X017360Y028577D01*
X017376Y028584D01*
X017393Y028588D01*
X017410Y028590D01*
X018110Y028590D02*
X018127Y028588D01*
X018144Y028584D01*
X018160Y028577D01*
X018174Y028567D01*
X018187Y028554D01*
X018197Y028540D01*
X018204Y028524D01*
X018208Y028507D01*
X018210Y028490D01*
X018210Y028340D01*
X018160Y028290D01*
X018160Y026390D01*
X018210Y026340D01*
X018210Y026190D01*
X018208Y026173D01*
X018204Y026156D01*
X018197Y026140D01*
X018187Y026126D01*
X018174Y026113D01*
X018160Y026103D01*
X018144Y026096D01*
X018127Y026092D01*
X018110Y026090D01*
X017410Y026090D02*
X017393Y026092D01*
X017376Y026096D01*
X017360Y026103D01*
X017346Y026113D01*
X017333Y026126D01*
X017323Y026140D01*
X017316Y026156D01*
X017312Y026173D01*
X017310Y026190D01*
X019050Y025870D02*
X019052Y025853D01*
X019056Y025836D01*
X019063Y025820D01*
X019073Y025806D01*
X019086Y025793D01*
X019100Y025783D01*
X019116Y025776D01*
X019133Y025772D01*
X019150Y025770D01*
X019300Y025770D01*
X019350Y025820D01*
X021250Y025820D01*
X021300Y025770D01*
X021450Y025770D01*
X021467Y025772D01*
X021484Y025776D01*
X021500Y025783D01*
X021514Y025793D01*
X021527Y025806D01*
X021537Y025820D01*
X021544Y025836D01*
X021548Y025853D01*
X021550Y025870D01*
X021550Y026570D02*
X021548Y026587D01*
X021544Y026604D01*
X021537Y026620D01*
X021527Y026634D01*
X021514Y026647D01*
X021500Y026657D01*
X021484Y026664D01*
X021467Y026668D01*
X021450Y026670D01*
X021300Y026670D01*
X021250Y026620D01*
X019350Y026620D01*
X019300Y026670D01*
X019150Y026670D01*
X019133Y026668D01*
X019116Y026664D01*
X019100Y026657D01*
X019086Y026647D01*
X019073Y026634D01*
X019063Y026620D01*
X019056Y026604D01*
X019052Y026587D01*
X019050Y026570D01*
X019150Y026890D02*
X019300Y026890D01*
X019350Y026940D01*
X021250Y026940D01*
X021300Y026890D01*
X021450Y026890D01*
X021467Y026892D01*
X021484Y026896D01*
X021500Y026903D01*
X021514Y026913D01*
X021527Y026926D01*
X021537Y026940D01*
X021544Y026956D01*
X021548Y026973D01*
X021550Y026990D01*
X021550Y027690D02*
X021548Y027707D01*
X021544Y027724D01*
X021537Y027740D01*
X021527Y027754D01*
X021514Y027767D01*
X021500Y027777D01*
X021484Y027784D01*
X021467Y027788D01*
X021450Y027790D01*
X021300Y027790D01*
X021250Y027740D01*
X019350Y027740D01*
X019300Y027790D01*
X019150Y027790D01*
X019133Y027788D01*
X019116Y027784D01*
X019100Y027777D01*
X019086Y027767D01*
X019073Y027754D01*
X019063Y027740D01*
X019056Y027724D01*
X019052Y027707D01*
X019050Y027690D01*
X019160Y028090D02*
X019310Y028090D01*
X019360Y028140D01*
X021260Y028140D01*
X021310Y028090D01*
X021460Y028090D01*
X021477Y028092D01*
X021494Y028096D01*
X021510Y028103D01*
X021524Y028113D01*
X021537Y028126D01*
X021547Y028140D01*
X021554Y028156D01*
X021558Y028173D01*
X021560Y028190D01*
X021560Y028890D02*
X021558Y028907D01*
X021554Y028924D01*
X021547Y028940D01*
X021537Y028954D01*
X021524Y028967D01*
X021510Y028977D01*
X021494Y028984D01*
X021477Y028988D01*
X021460Y028990D01*
X021310Y028990D01*
X021260Y028940D01*
X019360Y028940D01*
X019310Y028990D01*
X019160Y028990D01*
X019143Y028988D01*
X019126Y028984D01*
X019110Y028977D01*
X019096Y028967D01*
X019083Y028954D01*
X019073Y028940D01*
X019066Y028924D01*
X019062Y028907D01*
X019060Y028890D01*
X019060Y028190D02*
X019062Y028173D01*
X019066Y028156D01*
X019073Y028140D01*
X019083Y028126D01*
X019096Y028113D01*
X019110Y028103D01*
X019126Y028096D01*
X019143Y028092D01*
X019160Y028090D01*
X019050Y026990D02*
X019052Y026973D01*
X019056Y026956D01*
X019063Y026940D01*
X019073Y026926D01*
X019086Y026913D01*
X019100Y026903D01*
X019116Y026896D01*
X019133Y026892D01*
X019150Y026890D01*
X020430Y025710D02*
X020580Y025710D01*
X020630Y025660D01*
X022530Y025660D01*
X022580Y025710D01*
X022730Y025710D01*
X022747Y025708D01*
X022764Y025704D01*
X022780Y025697D01*
X022794Y025687D01*
X022807Y025674D01*
X022817Y025660D01*
X022824Y025644D01*
X022828Y025627D01*
X022830Y025610D01*
X022830Y024910D02*
X022828Y024893D01*
X022824Y024876D01*
X022817Y024860D01*
X022807Y024846D01*
X022794Y024833D01*
X022780Y024823D01*
X022764Y024816D01*
X022747Y024812D01*
X022730Y024810D01*
X022580Y024810D01*
X022530Y024860D01*
X020630Y024860D01*
X020580Y024810D01*
X020430Y024810D01*
X020413Y024812D01*
X020396Y024816D01*
X020380Y024823D01*
X020366Y024833D01*
X020353Y024846D01*
X020343Y024860D01*
X020336Y024876D01*
X020332Y024893D01*
X020330Y024910D01*
X020330Y025610D02*
X020332Y025627D01*
X020336Y025644D01*
X020343Y025660D01*
X020353Y025674D01*
X020366Y025687D01*
X020380Y025697D01*
X020396Y025704D01*
X020413Y025708D01*
X020430Y025710D01*
X020410Y021180D02*
X020460Y021130D01*
X022360Y021130D01*
X022410Y021180D01*
X022560Y021180D01*
X022577Y021178D01*
X022594Y021174D01*
X022610Y021167D01*
X022624Y021157D01*
X022637Y021144D01*
X022647Y021130D01*
X022654Y021114D01*
X022658Y021097D01*
X022660Y021080D01*
X022660Y020380D02*
X022658Y020363D01*
X022654Y020346D01*
X022647Y020330D01*
X022637Y020316D01*
X022624Y020303D01*
X022610Y020293D01*
X022594Y020286D01*
X022577Y020282D01*
X022560Y020280D01*
X022410Y020280D01*
X022360Y020330D01*
X020460Y020330D01*
X020410Y020280D01*
X020260Y020280D01*
X020243Y020282D01*
X020226Y020286D01*
X020210Y020293D01*
X020196Y020303D01*
X020183Y020316D01*
X020173Y020330D01*
X020166Y020346D01*
X020162Y020363D01*
X020160Y020380D01*
X020160Y021080D02*
X020162Y021097D01*
X020166Y021114D01*
X020173Y021130D01*
X020183Y021144D01*
X020196Y021157D01*
X020210Y021167D01*
X020226Y021174D01*
X020243Y021178D01*
X020260Y021180D01*
X020410Y021180D01*
X015690Y027690D02*
X015540Y027690D01*
X015490Y027740D01*
X013590Y027740D01*
X013540Y027690D01*
X013390Y027690D01*
X013373Y027692D01*
X013356Y027696D01*
X013340Y027703D01*
X013326Y027713D01*
X013313Y027726D01*
X013303Y027740D01*
X013296Y027756D01*
X013292Y027773D01*
X013290Y027790D01*
X013290Y028490D02*
X013292Y028507D01*
X013296Y028524D01*
X013303Y028540D01*
X013313Y028554D01*
X013326Y028567D01*
X013340Y028577D01*
X013356Y028584D01*
X013373Y028588D01*
X013390Y028590D01*
X013540Y028590D01*
X013590Y028540D01*
X015490Y028540D01*
X015540Y028590D01*
X015690Y028590D01*
X015707Y028588D01*
X015724Y028584D01*
X015740Y028577D01*
X015754Y028567D01*
X015767Y028554D01*
X015777Y028540D01*
X015784Y028524D01*
X015788Y028507D01*
X015790Y028490D01*
X015790Y027790D02*
X015788Y027773D01*
X015784Y027756D01*
X015777Y027740D01*
X015767Y027726D01*
X015754Y027713D01*
X015740Y027703D01*
X015724Y027696D01*
X015707Y027692D01*
X015690Y027690D01*
X014600Y029360D02*
X014600Y029510D01*
X014550Y029560D01*
X014550Y031460D01*
X014600Y031510D01*
X014600Y031660D01*
X014598Y031677D01*
X014594Y031694D01*
X014587Y031710D01*
X014577Y031724D01*
X014564Y031737D01*
X014550Y031747D01*
X014534Y031754D01*
X014517Y031758D01*
X014500Y031760D01*
X013800Y031760D02*
X013783Y031758D01*
X013766Y031754D01*
X013750Y031747D01*
X013736Y031737D01*
X013723Y031724D01*
X013713Y031710D01*
X013706Y031694D01*
X013702Y031677D01*
X013700Y031660D01*
X013700Y031510D01*
X013750Y031460D01*
X013750Y029560D01*
X013700Y029510D01*
X013700Y029360D01*
X013702Y029343D01*
X013706Y029326D01*
X013713Y029310D01*
X013723Y029296D01*
X013736Y029283D01*
X013750Y029273D01*
X013766Y029266D01*
X013783Y029262D01*
X013800Y029260D01*
X014500Y029260D02*
X014517Y029262D01*
X014534Y029266D01*
X014550Y029273D01*
X014564Y029283D01*
X014577Y029296D01*
X014587Y029310D01*
X014594Y029326D01*
X014598Y029343D01*
X014600Y029360D01*
X000365Y031302D02*
X000367Y031375D01*
X000373Y031448D01*
X000383Y031520D01*
X000397Y031592D01*
X000414Y031663D01*
X000436Y031733D01*
X000461Y031802D01*
X000490Y031869D01*
X000522Y031934D01*
X000558Y031998D01*
X000598Y032060D01*
X000640Y032119D01*
X000686Y032176D01*
X000735Y032230D01*
X000787Y032282D01*
X000841Y032331D01*
X000898Y032377D01*
X000957Y032419D01*
X001019Y032459D01*
X001083Y032495D01*
X001148Y032527D01*
X001215Y032556D01*
X001284Y032581D01*
X001354Y032603D01*
X001425Y032620D01*
X001497Y032634D01*
X001569Y032644D01*
X001642Y032650D01*
X001715Y032652D01*
X001788Y032650D01*
X001861Y032644D01*
X001933Y032634D01*
X002005Y032620D01*
X002076Y032603D01*
X002146Y032581D01*
X002215Y032556D01*
X002282Y032527D01*
X002347Y032495D01*
X002411Y032459D01*
X002473Y032419D01*
X002532Y032377D01*
X002589Y032331D01*
X002643Y032282D01*
X002695Y032230D01*
X002744Y032176D01*
X002790Y032119D01*
X002832Y032060D01*
X002872Y031998D01*
X002908Y031934D01*
X002940Y031869D01*
X002969Y031802D01*
X002994Y031733D01*
X003016Y031663D01*
X003033Y031592D01*
X003047Y031520D01*
X003057Y031448D01*
X003063Y031375D01*
X003065Y031302D01*
X003063Y031229D01*
X003057Y031156D01*
X003047Y031084D01*
X003033Y031012D01*
X003016Y030941D01*
X002994Y030871D01*
X002969Y030802D01*
X002940Y030735D01*
X002908Y030670D01*
X002872Y030606D01*
X002832Y030544D01*
X002790Y030485D01*
X002744Y030428D01*
X002695Y030374D01*
X002643Y030322D01*
X002589Y030273D01*
X002532Y030227D01*
X002473Y030185D01*
X002411Y030145D01*
X002347Y030109D01*
X002282Y030077D01*
X002215Y030048D01*
X002146Y030023D01*
X002076Y030001D01*
X002005Y029984D01*
X001933Y029970D01*
X001861Y029960D01*
X001788Y029954D01*
X001715Y029952D01*
X001642Y029954D01*
X001569Y029960D01*
X001497Y029970D01*
X001425Y029984D01*
X001354Y030001D01*
X001284Y030023D01*
X001215Y030048D01*
X001148Y030077D01*
X001083Y030109D01*
X001019Y030145D01*
X000957Y030185D01*
X000898Y030227D01*
X000841Y030273D01*
X000787Y030322D01*
X000735Y030374D01*
X000686Y030428D01*
X000640Y030485D01*
X000598Y030544D01*
X000558Y030606D01*
X000522Y030670D01*
X000490Y030735D01*
X000461Y030802D01*
X000436Y030871D01*
X000414Y030941D01*
X000397Y031012D01*
X000383Y031084D01*
X000373Y031156D01*
X000367Y031229D01*
X000365Y031302D01*
X028657Y015579D02*
X028657Y015252D01*
X028739Y015170D01*
X028902Y015170D01*
X028984Y015252D01*
X029164Y015252D02*
X029164Y015170D01*
X029164Y015252D02*
X029491Y015579D01*
X029491Y015660D01*
X029164Y015660D01*
X028984Y015579D02*
X028902Y015660D01*
X028739Y015660D01*
X028657Y015579D01*
X036585Y037542D02*
X036587Y037615D01*
X036593Y037688D01*
X036603Y037760D01*
X036617Y037832D01*
X036634Y037903D01*
X036656Y037973D01*
X036681Y038042D01*
X036710Y038109D01*
X036742Y038174D01*
X036778Y038238D01*
X036818Y038300D01*
X036860Y038359D01*
X036906Y038416D01*
X036955Y038470D01*
X037007Y038522D01*
X037061Y038571D01*
X037118Y038617D01*
X037177Y038659D01*
X037239Y038699D01*
X037303Y038735D01*
X037368Y038767D01*
X037435Y038796D01*
X037504Y038821D01*
X037574Y038843D01*
X037645Y038860D01*
X037717Y038874D01*
X037789Y038884D01*
X037862Y038890D01*
X037935Y038892D01*
X038008Y038890D01*
X038081Y038884D01*
X038153Y038874D01*
X038225Y038860D01*
X038296Y038843D01*
X038366Y038821D01*
X038435Y038796D01*
X038502Y038767D01*
X038567Y038735D01*
X038631Y038699D01*
X038693Y038659D01*
X038752Y038617D01*
X038809Y038571D01*
X038863Y038522D01*
X038915Y038470D01*
X038964Y038416D01*
X039010Y038359D01*
X039052Y038300D01*
X039092Y038238D01*
X039128Y038174D01*
X039160Y038109D01*
X039189Y038042D01*
X039214Y037973D01*
X039236Y037903D01*
X039253Y037832D01*
X039267Y037760D01*
X039277Y037688D01*
X039283Y037615D01*
X039285Y037542D01*
X039283Y037469D01*
X039277Y037396D01*
X039267Y037324D01*
X039253Y037252D01*
X039236Y037181D01*
X039214Y037111D01*
X039189Y037042D01*
X039160Y036975D01*
X039128Y036910D01*
X039092Y036846D01*
X039052Y036784D01*
X039010Y036725D01*
X038964Y036668D01*
X038915Y036614D01*
X038863Y036562D01*
X038809Y036513D01*
X038752Y036467D01*
X038693Y036425D01*
X038631Y036385D01*
X038567Y036349D01*
X038502Y036317D01*
X038435Y036288D01*
X038366Y036263D01*
X038296Y036241D01*
X038225Y036224D01*
X038153Y036210D01*
X038081Y036200D01*
X038008Y036194D01*
X037935Y036192D01*
X037862Y036194D01*
X037789Y036200D01*
X037717Y036210D01*
X037645Y036224D01*
X037574Y036241D01*
X037504Y036263D01*
X037435Y036288D01*
X037368Y036317D01*
X037303Y036349D01*
X037239Y036385D01*
X037177Y036425D01*
X037118Y036467D01*
X037061Y036513D01*
X037007Y036562D01*
X036955Y036614D01*
X036906Y036668D01*
X036860Y036725D01*
X036818Y036784D01*
X036778Y036846D01*
X036742Y036910D01*
X036710Y036975D01*
X036681Y037042D01*
X036656Y037111D01*
X036634Y037181D01*
X036617Y037252D01*
X036603Y037324D01*
X036593Y037396D01*
X036587Y037469D01*
X036585Y037542D01*
D16*
X026432Y026970D03*
X026432Y021970D03*
D17*
X025313Y021954D03*
X025313Y021284D03*
X025313Y020615D03*
X025313Y019946D03*
X025313Y019276D03*
X025313Y024276D03*
X025313Y024946D03*
X025313Y025615D03*
X025313Y026284D03*
X025313Y026954D03*
D18*
X022404Y007007D02*
X020436Y007007D01*
X020436Y005433D01*
X022404Y005433D01*
X022404Y007007D01*
X022094Y006742D02*
X022096Y006760D01*
X022102Y006777D01*
X022111Y006793D01*
X022124Y006806D01*
X022139Y006816D01*
X022156Y006823D01*
X022173Y006826D01*
X022192Y006825D01*
X022209Y006820D01*
X022225Y006812D01*
X022239Y006800D01*
X022250Y006785D01*
X022258Y006769D01*
X022262Y006751D01*
X022262Y006733D01*
X022258Y006715D01*
X022250Y006699D01*
X022239Y006684D01*
X022225Y006672D01*
X022209Y006664D01*
X022192Y006659D01*
X022173Y006658D01*
X022156Y006661D01*
X022139Y006668D01*
X022124Y006678D01*
X022111Y006691D01*
X022102Y006707D01*
X022096Y006724D01*
X022094Y006742D01*
X021876Y003647D02*
X021876Y002073D01*
X023844Y002073D01*
X023844Y003647D01*
X021876Y003647D01*
X022018Y002338D02*
X022020Y002356D01*
X022026Y002373D01*
X022035Y002389D01*
X022048Y002402D01*
X022063Y002412D01*
X022080Y002419D01*
X022097Y002422D01*
X022116Y002421D01*
X022133Y002416D01*
X022149Y002408D01*
X022163Y002396D01*
X022174Y002381D01*
X022182Y002365D01*
X022186Y002347D01*
X022186Y002329D01*
X022182Y002311D01*
X022174Y002295D01*
X022163Y002280D01*
X022149Y002268D01*
X022133Y002260D01*
X022116Y002255D01*
X022097Y002254D01*
X022080Y002257D01*
X022063Y002264D01*
X022048Y002274D01*
X022035Y002287D01*
X022026Y002303D01*
X022020Y002320D01*
X022018Y002338D01*
X004644Y012473D02*
X004644Y014047D01*
X002676Y014047D01*
X002676Y012473D01*
X004644Y012473D01*
X002818Y012738D02*
X002820Y012756D01*
X002826Y012773D01*
X002835Y012789D01*
X002848Y012802D01*
X002863Y012812D01*
X002880Y012819D01*
X002897Y012822D01*
X002916Y012821D01*
X002933Y012816D01*
X002949Y012808D01*
X002963Y012796D01*
X002974Y012781D01*
X002982Y012765D01*
X002986Y012747D01*
X002986Y012729D01*
X002982Y012711D01*
X002974Y012695D01*
X002963Y012680D01*
X002949Y012668D01*
X002933Y012660D01*
X002916Y012655D01*
X002897Y012654D01*
X002880Y012657D01*
X002863Y012664D01*
X002848Y012674D01*
X002835Y012687D01*
X002826Y012703D01*
X002820Y012720D01*
X002818Y012738D01*
X002676Y017753D02*
X002676Y019327D01*
X004644Y019327D01*
X004644Y017753D01*
X002676Y017753D01*
X004334Y019062D02*
X004336Y019080D01*
X004342Y019097D01*
X004351Y019113D01*
X004364Y019126D01*
X004379Y019136D01*
X004396Y019143D01*
X004413Y019146D01*
X004432Y019145D01*
X004449Y019140D01*
X004465Y019132D01*
X004479Y019120D01*
X004490Y019105D01*
X004498Y019089D01*
X004502Y019071D01*
X004502Y019053D01*
X004498Y019035D01*
X004490Y019019D01*
X004479Y019004D01*
X004465Y018992D01*
X004449Y018984D01*
X004432Y018979D01*
X004413Y018978D01*
X004396Y018981D01*
X004379Y018988D01*
X004364Y018998D01*
X004351Y019011D01*
X004342Y019027D01*
X004336Y019044D01*
X004334Y019062D01*
D19*
X027860Y016890D02*
X027860Y016390D01*
X027860Y015890D01*
X028210Y015890D02*
X028210Y016390D01*
X028210Y016890D01*
X028210Y013890D02*
X028210Y013390D01*
X028210Y012890D01*
X027860Y012890D02*
X027860Y013390D01*
X027860Y013890D01*
X027860Y010890D02*
X027860Y010390D01*
X027860Y009890D01*
X028210Y009890D02*
X028210Y010390D01*
X028210Y010890D01*
X028210Y007890D02*
X028210Y007390D01*
X028210Y006890D01*
X027860Y006890D02*
X027860Y007390D01*
X027860Y007890D01*
X035060Y028330D02*
X035060Y028830D01*
X035060Y029330D01*
X035410Y029330D02*
X035410Y028830D01*
X035410Y028330D01*
D20*
X004770Y003480D03*
D21*
X006540Y004790D03*
D22*
X004815Y004540D03*
X008265Y004540D03*
D23*
X007040Y004540D03*
X006040Y004540D03*
M02*
