G75*
%MOIN*%
%OFA0B0*%
%FSLAX24Y24*%
%IPPOS*%
%LPD*%
%AMOC8*
5,1,8,0,0,1.08239X$1,22.5*
%
%ADD10C,0.0000*%
%ADD11C,0.0060*%
%ADD12C,0.0030*%
%ADD13R,0.0236X0.0866*%
%ADD14C,0.0860*%
%ADD15C,0.0886*%
%ADD16OC8,0.0520*%
%ADD17R,0.0413X0.0425*%
%ADD18R,0.0752X0.4252*%
%ADD19R,0.2362X0.3280*%
%ADD20R,0.0850X0.0421*%
%ADD21R,0.0394X0.0433*%
%ADD22R,0.0433X0.0394*%
%ADD23R,0.1378X0.0866*%
%ADD24R,0.0870X0.0240*%
%ADD25R,0.0197X0.0591*%
%ADD26R,0.0425X0.0413*%
%ADD27R,0.1063X0.1004*%
%ADD28R,0.1004X0.1063*%
%ADD29R,0.0630X0.0709*%
%ADD30R,0.0709X0.0630*%
%ADD31OC8,0.0850*%
%ADD32OC8,0.0560*%
%ADD33C,0.0160*%
%ADD34C,0.0240*%
%ADD35OC8,0.0277*%
%ADD36OC8,0.0356*%
%ADD37C,0.0080*%
%ADD38C,0.0400*%
%ADD39C,0.0320*%
D10*
X000140Y000140D02*
X000140Y032569D01*
X039510Y039510D01*
X039510Y000140D01*
X000140Y000140D01*
X027463Y001715D02*
X027465Y001765D01*
X027471Y001815D01*
X027481Y001864D01*
X027495Y001912D01*
X027512Y001959D01*
X027533Y002004D01*
X027558Y002048D01*
X027586Y002089D01*
X027618Y002128D01*
X027652Y002165D01*
X027689Y002199D01*
X027729Y002229D01*
X027771Y002256D01*
X027815Y002280D01*
X027861Y002301D01*
X027908Y002317D01*
X027956Y002330D01*
X028006Y002339D01*
X028055Y002344D01*
X028106Y002345D01*
X028156Y002342D01*
X028205Y002335D01*
X028254Y002324D01*
X028302Y002309D01*
X028348Y002291D01*
X028393Y002269D01*
X028436Y002243D01*
X028477Y002214D01*
X028516Y002182D01*
X028552Y002147D01*
X028584Y002109D01*
X028614Y002069D01*
X028641Y002026D01*
X028664Y001982D01*
X028683Y001936D01*
X028699Y001888D01*
X028711Y001839D01*
X028719Y001790D01*
X028723Y001740D01*
X028723Y001690D01*
X028719Y001640D01*
X028711Y001591D01*
X028699Y001542D01*
X028683Y001494D01*
X028664Y001448D01*
X028641Y001404D01*
X028614Y001361D01*
X028584Y001321D01*
X028552Y001283D01*
X028516Y001248D01*
X028477Y001216D01*
X028436Y001187D01*
X028393Y001161D01*
X028348Y001139D01*
X028302Y001121D01*
X028254Y001106D01*
X028205Y001095D01*
X028156Y001088D01*
X028106Y001085D01*
X028055Y001086D01*
X028006Y001091D01*
X027956Y001100D01*
X027908Y001113D01*
X027861Y001129D01*
X027815Y001150D01*
X027771Y001174D01*
X027729Y001201D01*
X027689Y001231D01*
X027652Y001265D01*
X027618Y001302D01*
X027586Y001341D01*
X027558Y001382D01*
X027533Y001426D01*
X027512Y001471D01*
X027495Y001518D01*
X027481Y001566D01*
X027471Y001615D01*
X027465Y001665D01*
X027463Y001715D01*
X038534Y005636D02*
X038536Y005670D01*
X038542Y005704D01*
X038552Y005737D01*
X038565Y005768D01*
X038583Y005798D01*
X038603Y005826D01*
X038627Y005851D01*
X038653Y005873D01*
X038681Y005891D01*
X038712Y005907D01*
X038744Y005919D01*
X038778Y005927D01*
X038812Y005931D01*
X038846Y005931D01*
X038880Y005927D01*
X038914Y005919D01*
X038946Y005907D01*
X038976Y005891D01*
X039005Y005873D01*
X039031Y005851D01*
X039055Y005826D01*
X039075Y005798D01*
X039093Y005768D01*
X039106Y005737D01*
X039116Y005704D01*
X039122Y005670D01*
X039124Y005636D01*
X039122Y005602D01*
X039116Y005568D01*
X039106Y005535D01*
X039093Y005504D01*
X039075Y005474D01*
X039055Y005446D01*
X039031Y005421D01*
X039005Y005399D01*
X038977Y005381D01*
X038946Y005365D01*
X038914Y005353D01*
X038880Y005345D01*
X038846Y005341D01*
X038812Y005341D01*
X038778Y005345D01*
X038744Y005353D01*
X038712Y005365D01*
X038681Y005381D01*
X038653Y005399D01*
X038627Y005421D01*
X038603Y005446D01*
X038583Y005474D01*
X038565Y005504D01*
X038552Y005535D01*
X038542Y005568D01*
X038536Y005602D01*
X038534Y005636D01*
X038534Y012329D02*
X038536Y012363D01*
X038542Y012397D01*
X038552Y012430D01*
X038565Y012461D01*
X038583Y012491D01*
X038603Y012519D01*
X038627Y012544D01*
X038653Y012566D01*
X038681Y012584D01*
X038712Y012600D01*
X038744Y012612D01*
X038778Y012620D01*
X038812Y012624D01*
X038846Y012624D01*
X038880Y012620D01*
X038914Y012612D01*
X038946Y012600D01*
X038976Y012584D01*
X039005Y012566D01*
X039031Y012544D01*
X039055Y012519D01*
X039075Y012491D01*
X039093Y012461D01*
X039106Y012430D01*
X039116Y012397D01*
X039122Y012363D01*
X039124Y012329D01*
X039122Y012295D01*
X039116Y012261D01*
X039106Y012228D01*
X039093Y012197D01*
X039075Y012167D01*
X039055Y012139D01*
X039031Y012114D01*
X039005Y012092D01*
X038977Y012074D01*
X038946Y012058D01*
X038914Y012046D01*
X038880Y012038D01*
X038846Y012034D01*
X038812Y012034D01*
X038778Y012038D01*
X038744Y012046D01*
X038712Y012058D01*
X038681Y012074D01*
X038653Y012092D01*
X038627Y012114D01*
X038603Y012139D01*
X038583Y012167D01*
X038565Y012197D01*
X038552Y012228D01*
X038542Y012261D01*
X038536Y012295D01*
X038534Y012329D01*
X038534Y019022D02*
X038536Y019056D01*
X038542Y019090D01*
X038552Y019123D01*
X038565Y019154D01*
X038583Y019184D01*
X038603Y019212D01*
X038627Y019237D01*
X038653Y019259D01*
X038681Y019277D01*
X038712Y019293D01*
X038744Y019305D01*
X038778Y019313D01*
X038812Y019317D01*
X038846Y019317D01*
X038880Y019313D01*
X038914Y019305D01*
X038946Y019293D01*
X038976Y019277D01*
X039005Y019259D01*
X039031Y019237D01*
X039055Y019212D01*
X039075Y019184D01*
X039093Y019154D01*
X039106Y019123D01*
X039116Y019090D01*
X039122Y019056D01*
X039124Y019022D01*
X039122Y018988D01*
X039116Y018954D01*
X039106Y018921D01*
X039093Y018890D01*
X039075Y018860D01*
X039055Y018832D01*
X039031Y018807D01*
X039005Y018785D01*
X038977Y018767D01*
X038946Y018751D01*
X038914Y018739D01*
X038880Y018731D01*
X038846Y018727D01*
X038812Y018727D01*
X038778Y018731D01*
X038744Y018739D01*
X038712Y018751D01*
X038681Y018767D01*
X038653Y018785D01*
X038627Y018807D01*
X038603Y018832D01*
X038583Y018860D01*
X038565Y018890D01*
X038552Y018921D01*
X038542Y018954D01*
X038536Y018988D01*
X038534Y019022D01*
X038534Y025715D02*
X038536Y025749D01*
X038542Y025783D01*
X038552Y025816D01*
X038565Y025847D01*
X038583Y025877D01*
X038603Y025905D01*
X038627Y025930D01*
X038653Y025952D01*
X038681Y025970D01*
X038712Y025986D01*
X038744Y025998D01*
X038778Y026006D01*
X038812Y026010D01*
X038846Y026010D01*
X038880Y026006D01*
X038914Y025998D01*
X038946Y025986D01*
X038976Y025970D01*
X039005Y025952D01*
X039031Y025930D01*
X039055Y025905D01*
X039075Y025877D01*
X039093Y025847D01*
X039106Y025816D01*
X039116Y025783D01*
X039122Y025749D01*
X039124Y025715D01*
X039122Y025681D01*
X039116Y025647D01*
X039106Y025614D01*
X039093Y025583D01*
X039075Y025553D01*
X039055Y025525D01*
X039031Y025500D01*
X039005Y025478D01*
X038977Y025460D01*
X038946Y025444D01*
X038914Y025432D01*
X038880Y025424D01*
X038846Y025420D01*
X038812Y025420D01*
X038778Y025424D01*
X038744Y025432D01*
X038712Y025444D01*
X038681Y025460D01*
X038653Y025478D01*
X038627Y025500D01*
X038603Y025525D01*
X038583Y025553D01*
X038565Y025583D01*
X038552Y025614D01*
X038542Y025647D01*
X038536Y025681D01*
X038534Y025715D01*
X037305Y037542D02*
X037307Y037592D01*
X037313Y037642D01*
X037323Y037691D01*
X037337Y037739D01*
X037354Y037786D01*
X037375Y037831D01*
X037400Y037875D01*
X037428Y037916D01*
X037460Y037955D01*
X037494Y037992D01*
X037531Y038026D01*
X037571Y038056D01*
X037613Y038083D01*
X037657Y038107D01*
X037703Y038128D01*
X037750Y038144D01*
X037798Y038157D01*
X037848Y038166D01*
X037897Y038171D01*
X037948Y038172D01*
X037998Y038169D01*
X038047Y038162D01*
X038096Y038151D01*
X038144Y038136D01*
X038190Y038118D01*
X038235Y038096D01*
X038278Y038070D01*
X038319Y038041D01*
X038358Y038009D01*
X038394Y037974D01*
X038426Y037936D01*
X038456Y037896D01*
X038483Y037853D01*
X038506Y037809D01*
X038525Y037763D01*
X038541Y037715D01*
X038553Y037666D01*
X038561Y037617D01*
X038565Y037567D01*
X038565Y037517D01*
X038561Y037467D01*
X038553Y037418D01*
X038541Y037369D01*
X038525Y037321D01*
X038506Y037275D01*
X038483Y037231D01*
X038456Y037188D01*
X038426Y037148D01*
X038394Y037110D01*
X038358Y037075D01*
X038319Y037043D01*
X038278Y037014D01*
X038235Y036988D01*
X038190Y036966D01*
X038144Y036948D01*
X038096Y036933D01*
X038047Y036922D01*
X037998Y036915D01*
X037948Y036912D01*
X037897Y036913D01*
X037848Y036918D01*
X037798Y036927D01*
X037750Y036940D01*
X037703Y036956D01*
X037657Y036977D01*
X037613Y037001D01*
X037571Y037028D01*
X037531Y037058D01*
X037494Y037092D01*
X037460Y037129D01*
X037428Y037168D01*
X037400Y037209D01*
X037375Y037253D01*
X037354Y037298D01*
X037337Y037345D01*
X037323Y037393D01*
X037313Y037442D01*
X037307Y037492D01*
X037305Y037542D01*
X001085Y031302D02*
X001087Y031352D01*
X001093Y031402D01*
X001103Y031451D01*
X001117Y031499D01*
X001134Y031546D01*
X001155Y031591D01*
X001180Y031635D01*
X001208Y031676D01*
X001240Y031715D01*
X001274Y031752D01*
X001311Y031786D01*
X001351Y031816D01*
X001393Y031843D01*
X001437Y031867D01*
X001483Y031888D01*
X001530Y031904D01*
X001578Y031917D01*
X001628Y031926D01*
X001677Y031931D01*
X001728Y031932D01*
X001778Y031929D01*
X001827Y031922D01*
X001876Y031911D01*
X001924Y031896D01*
X001970Y031878D01*
X002015Y031856D01*
X002058Y031830D01*
X002099Y031801D01*
X002138Y031769D01*
X002174Y031734D01*
X002206Y031696D01*
X002236Y031656D01*
X002263Y031613D01*
X002286Y031569D01*
X002305Y031523D01*
X002321Y031475D01*
X002333Y031426D01*
X002341Y031377D01*
X002345Y031327D01*
X002345Y031277D01*
X002341Y031227D01*
X002333Y031178D01*
X002321Y031129D01*
X002305Y031081D01*
X002286Y031035D01*
X002263Y030991D01*
X002236Y030948D01*
X002206Y030908D01*
X002174Y030870D01*
X002138Y030835D01*
X002099Y030803D01*
X002058Y030774D01*
X002015Y030748D01*
X001970Y030726D01*
X001924Y030708D01*
X001876Y030693D01*
X001827Y030682D01*
X001778Y030675D01*
X001728Y030672D01*
X001677Y030673D01*
X001628Y030678D01*
X001578Y030687D01*
X001530Y030700D01*
X001483Y030716D01*
X001437Y030737D01*
X001393Y030761D01*
X001351Y030788D01*
X001311Y030818D01*
X001274Y030852D01*
X001240Y030889D01*
X001208Y030928D01*
X001180Y030969D01*
X001155Y031013D01*
X001134Y031058D01*
X001117Y031105D01*
X001103Y031153D01*
X001093Y031202D01*
X001087Y031252D01*
X001085Y031302D01*
D11*
X032810Y032884D02*
X033044Y032650D01*
X033277Y032884D01*
X033277Y033351D01*
X033510Y033234D02*
X033510Y033117D01*
X033627Y033000D01*
X033860Y033000D01*
X033977Y032884D01*
X033977Y032767D01*
X033860Y032650D01*
X033627Y032650D01*
X033510Y032767D01*
X033510Y033234D02*
X033627Y033351D01*
X033860Y033351D01*
X033977Y033234D01*
X034210Y033351D02*
X034677Y033351D01*
X034443Y033351D02*
X034443Y032650D01*
X034909Y032650D02*
X035143Y032650D01*
X035026Y032650D02*
X035026Y033117D01*
X034909Y033117D01*
X035026Y033351D02*
X035026Y033467D01*
X035376Y033351D02*
X035726Y033351D01*
X035843Y033234D01*
X035843Y033117D01*
X035726Y033000D01*
X035376Y033000D01*
X035376Y032650D02*
X035726Y032650D01*
X035843Y032767D01*
X035843Y032884D01*
X035726Y033000D01*
X036076Y033000D02*
X036076Y032767D01*
X036192Y032650D01*
X036426Y032650D01*
X036543Y032767D01*
X036543Y033000D01*
X036426Y033117D01*
X036192Y033117D01*
X036076Y033000D01*
X035376Y032650D02*
X035376Y033351D01*
X036776Y033117D02*
X037243Y032650D01*
X036776Y032650D02*
X037243Y033117D01*
X032810Y033351D02*
X032810Y032884D01*
D12*
X034555Y032242D02*
X034617Y032242D01*
X034678Y032180D01*
X034740Y032242D01*
X034802Y032180D01*
X034802Y031995D01*
X034923Y031995D02*
X035047Y031995D01*
X034985Y031995D02*
X034985Y032242D01*
X034923Y032242D01*
X034985Y032365D02*
X034985Y032427D01*
X035169Y032242D02*
X035416Y031995D01*
X035537Y032057D02*
X035537Y032180D01*
X035599Y032242D01*
X035722Y032242D01*
X035784Y032180D01*
X035784Y032118D01*
X035537Y032118D01*
X035537Y032057D02*
X035599Y031995D01*
X035722Y031995D01*
X035905Y031995D02*
X035905Y032242D01*
X035905Y032118D02*
X036029Y032242D01*
X036091Y032242D01*
X035416Y032242D02*
X035169Y031995D01*
X034678Y031995D02*
X034678Y032180D01*
X034555Y032242D02*
X034555Y031995D01*
X036581Y032242D02*
X036704Y031995D01*
X036828Y032242D01*
X036949Y032242D02*
X037072Y032365D01*
X037072Y031995D01*
X036949Y031995D02*
X037196Y031995D01*
X037317Y031995D02*
X037379Y031995D01*
X037379Y032057D01*
X037317Y032057D01*
X037317Y031995D01*
X037502Y032057D02*
X037748Y032304D01*
X037748Y032057D01*
X037687Y031995D01*
X037563Y031995D01*
X037502Y032057D01*
X037502Y032304D01*
X037563Y032365D01*
X037687Y032365D01*
X037748Y032304D01*
D13*
X022290Y024174D03*
X021790Y024174D03*
X021290Y024174D03*
X020790Y024174D03*
X020290Y024174D03*
X019790Y024174D03*
X019290Y024174D03*
X019290Y022126D03*
X019790Y022126D03*
X020290Y022126D03*
X020790Y022126D03*
X021290Y022126D03*
X021790Y022126D03*
X022290Y022126D03*
X015450Y022604D03*
X014950Y022604D03*
X014450Y022604D03*
X013950Y022604D03*
X013950Y020556D03*
X014450Y020556D03*
X014950Y020556D03*
X015450Y020556D03*
X013850Y015244D03*
X013350Y015244D03*
X012850Y015244D03*
X012350Y015244D03*
X012350Y013196D03*
X012850Y013196D03*
X013350Y013196D03*
X013850Y013196D03*
X014770Y007094D03*
X015270Y007094D03*
X015770Y007094D03*
X016270Y007094D03*
X016770Y007094D03*
X017270Y007094D03*
X017770Y007094D03*
X017770Y005046D03*
X017270Y005046D03*
X016770Y005046D03*
X016270Y005046D03*
X015770Y005046D03*
X015270Y005046D03*
X014770Y005046D03*
X005923Y007577D03*
X005423Y007577D03*
X004923Y007577D03*
X004423Y007577D03*
X003923Y007577D03*
X008450Y025576D03*
X008950Y025576D03*
X009450Y025576D03*
X009950Y025576D03*
X009950Y027624D03*
X009450Y027624D03*
X008950Y027624D03*
X008450Y027624D03*
D14*
X007978Y030544D03*
X007637Y032483D03*
X009575Y032825D03*
X011514Y033166D03*
X011856Y031228D03*
X009917Y030886D03*
X017795Y034271D03*
X018137Y032333D03*
X020075Y032674D03*
X019733Y034613D03*
X021672Y034955D03*
X022014Y033016D03*
X027953Y036060D03*
X028295Y034121D03*
X030234Y034463D03*
X029892Y036401D03*
X031830Y036743D03*
X032172Y034805D03*
D15*
X031447Y026715D03*
X032699Y026215D03*
X033947Y026715D03*
X035199Y026215D03*
X036447Y026715D03*
X037697Y026215D03*
X036447Y021715D03*
X035199Y021215D03*
X033947Y021715D03*
X032699Y021215D03*
X031447Y021715D03*
X031447Y020022D03*
X032699Y019522D03*
X033947Y020022D03*
X035199Y019522D03*
X036447Y020022D03*
X037697Y019522D03*
X037697Y021215D03*
X036447Y015022D03*
X035199Y014522D03*
X033947Y015022D03*
X032699Y014522D03*
X031447Y015022D03*
X031447Y013329D03*
X032699Y012829D03*
X033947Y013329D03*
X035199Y012829D03*
X036447Y013329D03*
X037697Y012829D03*
X037697Y014522D03*
X036447Y008329D03*
X035199Y007829D03*
X033947Y008329D03*
X032699Y007829D03*
X031447Y008329D03*
X031447Y006636D03*
X032699Y006136D03*
X033947Y006636D03*
X035199Y006136D03*
X036447Y006636D03*
X037697Y006136D03*
X037697Y007829D03*
X036447Y001636D03*
X035199Y001136D03*
X033947Y001636D03*
X032699Y001136D03*
X031447Y001636D03*
X037697Y001136D03*
X002060Y002220D03*
X002060Y003340D03*
X002060Y004460D03*
X001900Y012140D03*
X001900Y013260D03*
X001900Y014380D03*
X001900Y017420D03*
X001900Y018540D03*
X001900Y019660D03*
X001900Y021740D03*
X001900Y022860D03*
X001900Y023980D03*
X001900Y025100D03*
X001900Y026220D03*
X001900Y027340D03*
D16*
X002930Y021880D03*
X001910Y020760D03*
X004910Y020760D03*
X005930Y021880D03*
X008450Y023940D03*
X010950Y025100D03*
X012200Y025100D03*
X013510Y025500D03*
X013520Y024460D03*
X011450Y023940D03*
X011500Y023080D03*
X011500Y020080D03*
X013360Y018700D03*
X013360Y017580D03*
X015500Y016520D03*
X016620Y016520D03*
X016360Y017580D03*
X016360Y018700D03*
X017370Y018110D03*
X018320Y018540D03*
X018320Y017420D03*
X018320Y016300D03*
X020940Y015400D03*
X021320Y016300D03*
X022060Y015400D03*
X021320Y017420D03*
X021320Y018540D03*
X021320Y019660D03*
X019910Y020730D03*
X018320Y019660D03*
X017370Y021110D03*
X017260Y022000D03*
X016520Y024460D03*
X017260Y025000D03*
X016510Y025500D03*
X017760Y025840D03*
X018800Y026220D03*
X018800Y027340D03*
X018810Y028540D03*
X017760Y028840D03*
X016040Y028140D03*
X014150Y029010D03*
X013040Y028140D03*
X012200Y028100D03*
X010950Y028100D03*
X014150Y032010D03*
X020080Y025260D03*
X021800Y026220D03*
X021800Y027340D03*
X021810Y028540D03*
X023080Y025260D03*
X022910Y020730D03*
X019820Y013960D03*
X020940Y012400D03*
X022060Y012400D03*
X022060Y011720D03*
X019820Y010960D03*
X020840Y008780D03*
X019820Y007720D03*
X018700Y007720D03*
X017840Y008780D03*
X017160Y008780D03*
X017160Y009900D03*
X017160Y011020D03*
X017160Y012140D03*
X016620Y013520D03*
X015500Y013520D03*
X014160Y012140D03*
X013320Y011340D03*
X014160Y011020D03*
X014160Y009900D03*
X013100Y009960D03*
X011980Y009960D03*
X011020Y009960D03*
X010320Y011340D03*
X014160Y008780D03*
X013100Y006960D03*
X011980Y006960D03*
X011020Y006960D03*
X011980Y004840D03*
X013840Y003500D03*
X013840Y002380D03*
X013840Y001260D03*
X011980Y001840D03*
X016840Y002380D03*
X017910Y003040D03*
X016840Y003500D03*
X018700Y004720D03*
X019820Y004720D03*
X020910Y003040D03*
X020840Y001260D03*
X023280Y000780D03*
X026280Y000780D03*
X026480Y004140D03*
X026480Y005260D03*
X025800Y005260D03*
X022800Y005260D03*
X022060Y008720D03*
X029480Y005260D03*
X029480Y004140D03*
X017840Y001260D03*
X016840Y001260D03*
X005900Y011760D03*
X005000Y011340D03*
X002000Y011340D03*
X002000Y015340D03*
X001890Y016450D03*
X004890Y016450D03*
X005000Y015340D03*
X005900Y014760D03*
X028240Y030860D03*
X028240Y032190D03*
X031240Y032190D03*
X031240Y030860D03*
D17*
X015044Y023500D03*
X014356Y023500D03*
X014474Y019590D03*
X013786Y019590D03*
X014084Y016140D03*
X013396Y016140D03*
X013444Y012300D03*
X012756Y012300D03*
X014556Y007900D03*
X015244Y007900D03*
X017206Y007890D03*
X017894Y007890D03*
X017994Y004280D03*
X017306Y004280D03*
X015364Y004300D03*
X014676Y004300D03*
X009024Y024730D03*
X008336Y024730D03*
D18*
X029164Y025620D03*
X029164Y020620D03*
D19*
X027971Y020620D03*
X027971Y025620D03*
D20*
X023961Y025620D03*
X023961Y026289D03*
X023961Y026959D03*
X023961Y024951D03*
X023961Y024281D03*
X023961Y021959D03*
X023961Y021289D03*
X023961Y020620D03*
X023961Y019951D03*
X023961Y019281D03*
D21*
X022220Y017595D03*
X022220Y016925D03*
X018580Y022075D03*
X018580Y022745D03*
X018580Y023495D03*
X018580Y024165D03*
X016140Y020955D03*
X016140Y020285D03*
X013260Y022355D03*
X013260Y023025D03*
X007700Y025835D03*
X007700Y026505D03*
X007700Y027565D03*
X007700Y028235D03*
X014540Y014555D03*
X014540Y013885D03*
X014170Y005835D03*
X014170Y005165D03*
X009695Y001800D03*
X009025Y001800D03*
X008355Y001800D03*
X007685Y001800D03*
X020780Y003805D03*
X021420Y003805D03*
X021420Y004475D03*
X020780Y004475D03*
D22*
X024285Y003980D03*
X024285Y003340D03*
X024955Y003340D03*
X024955Y003980D03*
X016505Y007910D03*
X015835Y007910D03*
X008355Y002640D03*
X007685Y002640D03*
X006890Y006305D03*
X006890Y006975D03*
X006890Y007805D03*
X006890Y008475D03*
X005975Y006460D03*
X005305Y006460D03*
X004475Y006460D03*
X003805Y006460D03*
X003995Y004620D03*
X003325Y004620D03*
X003305Y003640D03*
X003975Y003640D03*
X012125Y016140D03*
X012795Y016140D03*
X004975Y023150D03*
X004305Y023150D03*
X004225Y027400D03*
X003555Y027400D03*
X018395Y025120D03*
X019065Y025120D03*
X023805Y027660D03*
X024475Y027660D03*
X024925Y023540D03*
X025595Y023540D03*
X025595Y022700D03*
X024925Y022700D03*
X024475Y018540D03*
X023805Y018540D03*
D23*
X004923Y010136D03*
D24*
X005665Y023650D03*
X005665Y024150D03*
X005665Y024650D03*
X005665Y025150D03*
X005665Y025650D03*
X005665Y026150D03*
X005665Y026650D03*
X003615Y026650D03*
X003615Y026150D03*
X003615Y025650D03*
X003615Y025150D03*
X003615Y024650D03*
X003615Y024150D03*
X003615Y023650D03*
D25*
X003410Y019540D03*
X003910Y019540D03*
X004410Y019540D03*
X002910Y019540D03*
X002910Y017540D03*
X003410Y017540D03*
X003910Y017540D03*
X004410Y017540D03*
X004410Y014260D03*
X003910Y014260D03*
X003410Y014260D03*
X002910Y014260D03*
X002910Y012260D03*
X003410Y012260D03*
X003910Y012260D03*
X004410Y012260D03*
X020670Y007220D03*
X021170Y007220D03*
X021670Y007220D03*
X022170Y007220D03*
X022170Y005220D03*
X021670Y005220D03*
X021170Y005220D03*
X020670Y005220D03*
X022110Y003860D03*
X022610Y003860D03*
X023110Y003860D03*
X023610Y003860D03*
X023610Y001860D03*
X023110Y001860D03*
X022610Y001860D03*
X022110Y001860D03*
X026062Y007390D03*
X026358Y007390D03*
X026358Y010390D03*
X026062Y010390D03*
X026062Y013390D03*
X026358Y013390D03*
X026358Y016390D03*
X026062Y016390D03*
X033102Y028830D03*
X033398Y028830D03*
D26*
X011480Y028976D03*
X011480Y029664D03*
D27*
X008390Y008640D03*
X008390Y006140D03*
X009840Y005390D03*
X009840Y002890D03*
X002140Y005890D03*
X002140Y008390D03*
D28*
X003390Y002140D03*
X005890Y002140D03*
D29*
X023109Y022700D03*
X023109Y023540D03*
X024211Y023540D03*
X024211Y022700D03*
D30*
X022860Y019571D03*
X022860Y018469D03*
X022860Y026629D03*
X022860Y027731D03*
D31*
X030460Y028830D03*
X036360Y028830D03*
X029160Y016390D03*
X029160Y013390D03*
X029160Y010390D03*
X029160Y007390D03*
X023260Y007390D03*
X023260Y010390D03*
X023260Y013390D03*
X023260Y016390D03*
D32*
X008040Y003940D03*
X007540Y004440D03*
X007040Y003940D03*
X006540Y004440D03*
X006040Y003940D03*
X005540Y004440D03*
X005040Y003940D03*
D33*
X006040Y003940D01*
X005540Y004440D02*
X005360Y004620D01*
X003995Y004620D01*
X003325Y004620D02*
X003325Y003660D01*
X003305Y003640D01*
X002805Y003140D01*
X004480Y005960D02*
X004480Y006455D01*
X004475Y006460D01*
X003923Y007340D02*
X003923Y007577D01*
X004423Y007577D01*
X007540Y004440D02*
X007540Y002740D01*
X007685Y002595D01*
X008355Y002640D02*
X008355Y003625D01*
X008040Y003940D01*
X008940Y007820D02*
X008940Y008340D01*
X008640Y008640D01*
X009100Y009420D02*
X008940Y009580D01*
X008940Y022220D01*
X007180Y023980D01*
X007180Y025740D01*
X007700Y025835D02*
X008245Y026380D01*
X009740Y026380D01*
X009950Y026170D01*
X009950Y025576D01*
X009450Y025576D02*
X009450Y024910D01*
X009740Y024620D01*
X009024Y024730D02*
X009024Y024376D01*
X009460Y023940D01*
X011450Y023940D01*
X011450Y024350D01*
X012200Y025100D01*
X012460Y024580D02*
X012460Y023970D01*
X011830Y023340D01*
X011500Y023340D01*
X011500Y023080D01*
X011500Y023340D02*
X009050Y023340D01*
X008450Y023940D01*
X008336Y024054D01*
X008336Y024730D01*
X008450Y024844D01*
X008450Y025576D01*
X008950Y025576D02*
X008950Y024804D01*
X009024Y024730D01*
X007700Y026505D02*
X007735Y026540D01*
X007660Y026540D01*
X007660Y027020D01*
X007700Y028140D02*
X007180Y028140D01*
X007700Y028140D02*
X007700Y028235D01*
X008950Y028630D02*
X008950Y027624D01*
X009450Y027624D02*
X009450Y028490D01*
X009936Y028976D01*
X010950Y028976D01*
X010950Y028100D01*
X010380Y027660D02*
X009986Y027660D01*
X009950Y027624D01*
X008950Y028630D02*
X009984Y029664D01*
X011480Y029664D01*
X011804Y029664D01*
X014150Y032010D01*
X016411Y034271D01*
X017795Y034271D01*
X017900Y033100D02*
X018220Y033100D01*
X019733Y034613D01*
X017900Y033100D02*
X014860Y030060D01*
X014860Y028780D01*
X014220Y028140D01*
X013040Y028140D01*
X013000Y028100D01*
X012200Y028100D01*
X011480Y028976D02*
X010950Y028976D01*
X011480Y028976D02*
X011514Y029010D01*
X014150Y029010D01*
X014060Y027020D02*
X018220Y031180D01*
X023074Y031180D01*
X027953Y036060D01*
X029260Y035770D02*
X029260Y033210D01*
X028240Y032190D01*
X028190Y032190D01*
X024460Y028460D01*
X024140Y028140D02*
X023180Y029100D01*
X020140Y029100D01*
X019020Y027980D01*
X017900Y027980D01*
X015820Y025900D01*
X016510Y025500D02*
X016520Y025510D01*
X016510Y025500D02*
X016520Y025490D01*
X016520Y025100D01*
X016520Y025000D01*
X017260Y025000D01*
X016520Y025000D02*
X016520Y024460D01*
X015560Y023500D01*
X015044Y023500D01*
X014950Y023406D01*
X014950Y022604D01*
X014450Y022604D02*
X014450Y023406D01*
X014356Y023500D01*
X014356Y023624D01*
X013520Y024460D01*
X013740Y024460D01*
X016780Y027500D01*
X016780Y028780D01*
X018060Y030060D01*
X024234Y030060D01*
X028295Y034121D01*
X029260Y035770D02*
X029892Y036401D01*
X030234Y034463D02*
X030234Y032854D01*
X028240Y030860D01*
X025840Y028460D01*
X025100Y028460D01*
X024140Y028140D02*
X029770Y028140D01*
X030460Y028830D01*
X033102Y028830D01*
X033102Y028782D01*
X033398Y028780D02*
X033398Y028118D01*
X031995Y026715D01*
X031447Y026715D01*
X029164Y025620D02*
X027971Y025620D01*
X031340Y022540D02*
X030220Y021420D01*
X030220Y018700D01*
X029740Y018220D01*
X026220Y018220D01*
X024489Y019951D01*
X023961Y019951D01*
X023932Y019980D01*
X023660Y019980D01*
X022910Y020730D01*
X022170Y020730D01*
X022060Y020620D01*
X021100Y020620D01*
X020300Y019820D01*
X018480Y019820D01*
X018320Y019660D01*
X018140Y019100D02*
X017740Y019500D01*
X017740Y019980D01*
X017900Y020140D01*
X017900Y021360D01*
X017260Y022000D01*
X017370Y021110D02*
X017370Y019490D01*
X018320Y018540D01*
X018540Y017900D02*
X017980Y017900D01*
X017660Y017580D01*
X016360Y017580D01*
X016620Y016520D02*
X015500Y016520D01*
X014480Y016520D01*
X014380Y016620D01*
X013876Y016620D01*
X013396Y016140D01*
X013350Y016094D01*
X013350Y015244D01*
X013850Y015244D02*
X013850Y014810D01*
X013580Y014540D01*
X010060Y014540D01*
X009740Y014860D01*
X009300Y015180D02*
X012286Y015180D01*
X012350Y015244D01*
X012350Y015915D01*
X012125Y016140D01*
X012795Y016140D02*
X012850Y016085D01*
X012850Y015244D01*
X012850Y016620D01*
X012780Y016620D01*
X013360Y017580D02*
X013360Y018220D01*
X013740Y018220D01*
X014780Y019260D01*
X015340Y018700D01*
X016360Y018700D01*
X016140Y020285D02*
X015450Y020285D01*
X015450Y020556D01*
X015450Y021420D01*
X015500Y021420D01*
X016140Y020955D02*
X016140Y020940D01*
X016620Y020940D01*
X014950Y020556D02*
X014950Y019890D01*
X015020Y019820D01*
X014474Y019590D02*
X014474Y019566D01*
X014780Y019260D01*
X014474Y019590D02*
X014450Y019614D01*
X014450Y020556D01*
X013950Y020556D02*
X012684Y020556D01*
X012300Y020940D01*
X011500Y020080D02*
X011500Y019660D01*
X012940Y018220D01*
X013360Y018220D01*
X013360Y018700D02*
X013786Y019126D01*
X013786Y019590D01*
X013950Y019754D01*
X013950Y020556D01*
X013950Y021820D02*
X013900Y021820D01*
X013950Y021820D02*
X013950Y022604D01*
X013900Y022654D01*
X013900Y022860D01*
X013735Y023025D01*
X013260Y023025D01*
X012780Y022860D02*
X012300Y022380D01*
X012300Y022220D01*
X012780Y022380D02*
X013260Y022380D01*
X013260Y022355D01*
X012780Y022860D02*
X012780Y024460D01*
X013260Y024940D01*
X013740Y024940D01*
X014060Y025260D01*
X014060Y027020D01*
X013510Y025500D02*
X013380Y025500D01*
X012460Y024580D01*
X015450Y022604D02*
X015514Y022540D01*
X015820Y022540D01*
X018395Y025120D02*
X018395Y025205D01*
X017760Y025840D01*
X018300Y025820D02*
X018300Y026840D01*
X018800Y027340D01*
X018800Y026220D02*
X019500Y025520D01*
X019500Y025100D01*
X019790Y024810D01*
X019790Y024174D01*
X020290Y024174D02*
X020290Y024610D01*
X020620Y024940D01*
X020780Y024940D01*
X021060Y025260D02*
X021060Y026600D01*
X021800Y027340D01*
X021800Y028530D01*
X021810Y028540D01*
X021980Y026660D02*
X021580Y026660D01*
X021340Y026420D01*
X021340Y026020D01*
X022290Y025070D01*
X022290Y024174D01*
X021790Y024174D02*
X021790Y024930D01*
X021460Y025260D01*
X021060Y025260D01*
X020080Y025260D01*
X019290Y024895D02*
X019290Y024174D01*
X019290Y024895D02*
X019065Y025120D01*
X019065Y025375D01*
X018860Y025580D01*
X018540Y025580D01*
X018300Y025820D01*
X021300Y024940D02*
X021300Y024174D01*
X021290Y024174D01*
X022220Y025580D02*
X022760Y025580D01*
X023080Y025260D01*
X023389Y024951D01*
X023961Y024951D01*
X023340Y025900D02*
X023660Y026220D01*
X023892Y026220D01*
X023961Y026289D01*
X023340Y025900D02*
X022540Y025900D01*
X022260Y026180D01*
X022260Y026380D01*
X021980Y026660D01*
X021800Y026220D02*
X021800Y026000D01*
X022220Y025580D01*
X022290Y022126D02*
X022300Y022116D01*
X022300Y021780D01*
X022460Y021620D01*
X022660Y021620D01*
X022260Y021260D02*
X021900Y020900D01*
X020740Y020900D01*
X019980Y020140D01*
X019660Y020140D01*
X019290Y020510D01*
X019290Y022126D01*
X019790Y022126D02*
X019790Y020850D01*
X019910Y020730D01*
X020460Y021260D02*
X020290Y021430D01*
X020290Y022126D01*
X021290Y022126D02*
X021290Y021450D01*
X021100Y021260D01*
X021740Y021260D02*
X021790Y021310D01*
X021790Y022126D01*
X022260Y021260D02*
X023932Y021260D01*
X023961Y021289D01*
X021320Y018540D02*
X021320Y018495D01*
X022220Y017595D01*
X021725Y017420D02*
X022220Y016925D01*
X021725Y017420D02*
X021320Y017420D01*
X021410Y016390D02*
X021320Y016300D01*
X020940Y015920D01*
X020940Y015400D01*
X021410Y016390D02*
X023260Y016390D01*
X026062Y016390D01*
X026358Y016390D02*
X029160Y016390D01*
X031470Y018700D01*
X035500Y018700D01*
X036447Y019647D01*
X036447Y020022D01*
X037697Y019522D02*
X034155Y015980D01*
X031180Y015980D01*
X029160Y013960D01*
X029160Y013390D01*
X026358Y013390D01*
X026062Y013390D02*
X023260Y013390D01*
X022060Y014590D01*
X019610Y014590D01*
X017160Y012140D01*
X017260Y012620D02*
X016460Y012620D01*
X016300Y012460D01*
X016300Y009740D01*
X016380Y009740D01*
X015980Y009420D02*
X015980Y012620D01*
X016300Y012940D01*
X017100Y012940D01*
X017420Y013260D01*
X017420Y014700D01*
X018860Y016140D01*
X018860Y017580D01*
X018540Y017900D01*
X019660Y018380D02*
X019660Y015820D01*
X017740Y013900D01*
X017740Y013100D01*
X017260Y012620D01*
X017160Y011020D02*
X017220Y010960D01*
X019820Y010960D01*
X020520Y010960D01*
X023260Y008220D01*
X023260Y007390D01*
X026062Y007390D01*
X026358Y007390D02*
X029160Y007390D01*
X029160Y007560D01*
X030860Y009260D01*
X034128Y009260D01*
X037697Y012829D01*
X036460Y012940D02*
X033910Y010390D01*
X029160Y010390D01*
X026358Y010390D01*
X026062Y010390D02*
X023260Y010390D01*
X022060Y011590D01*
X022060Y011720D01*
X022060Y014590D02*
X022060Y015400D01*
X019660Y018380D02*
X018940Y019100D01*
X018140Y019100D01*
X018100Y016520D02*
X016620Y016520D01*
X018100Y016520D02*
X018320Y016300D01*
X015500Y014700D02*
X015500Y013520D01*
X015500Y009420D01*
X015820Y009100D01*
X016620Y009100D01*
X016940Y009420D01*
X018060Y009420D01*
X018700Y008780D01*
X018700Y007720D01*
X019180Y007180D02*
X019094Y007094D01*
X017770Y007094D01*
X017770Y007766D01*
X017894Y007890D01*
X017206Y007890D02*
X017206Y007158D01*
X017270Y007094D01*
X017260Y006380D02*
X016940Y006060D01*
X016460Y006060D01*
X016140Y006380D01*
X014060Y006380D01*
X013900Y006540D01*
X013900Y007340D01*
X012300Y008940D01*
X009580Y008940D01*
X010060Y008460D02*
X012300Y008460D01*
X013580Y007180D01*
X013580Y006380D01*
X014125Y005835D01*
X014170Y005835D01*
X014170Y005850D01*
X014380Y006060D01*
X015980Y006060D01*
X016270Y005770D01*
X016270Y005046D01*
X016270Y005740D01*
X015780Y005700D02*
X015780Y005056D01*
X015770Y005046D01*
X015270Y005046D02*
X015270Y004394D01*
X015364Y004300D01*
X015364Y003500D01*
X016840Y003500D01*
X017306Y002846D02*
X016840Y002380D01*
X020250Y002380D01*
X020910Y003040D01*
X020780Y003805D02*
X021420Y003805D01*
X021420Y003500D01*
X022110Y003550D02*
X022110Y003860D01*
X022110Y003550D02*
X020300Y001740D01*
X020300Y001100D01*
X020620Y000780D01*
X023280Y000780D01*
X023300Y001260D02*
X023610Y001570D01*
X023610Y001860D01*
X023110Y001860D02*
X023110Y002310D01*
X023100Y002320D01*
X023100Y002380D01*
X022860Y002700D02*
X025900Y002700D01*
X027020Y003820D01*
X027020Y004720D01*
X026480Y005260D01*
X026280Y005740D02*
X031180Y005740D01*
X031500Y005420D01*
X033100Y005420D01*
X033947Y006267D01*
X033947Y006636D01*
X035199Y006136D02*
X033843Y004780D01*
X029960Y004780D01*
X029480Y005260D01*
X029480Y004140D02*
X034380Y004140D01*
X036447Y006207D01*
X036447Y006636D01*
X037697Y006136D02*
X035061Y003500D01*
X027180Y003500D01*
X026220Y002540D01*
X026220Y000840D01*
X026280Y000780D01*
X024955Y003340D02*
X024955Y003980D01*
X025420Y003980D01*
X025840Y004780D02*
X026480Y004140D01*
X025840Y004780D02*
X022540Y004780D01*
X022170Y005150D01*
X022170Y005220D01*
X021670Y005220D01*
X020940Y005900D02*
X020670Y005630D01*
X020670Y005220D01*
X020670Y004525D01*
X020780Y004475D01*
X020670Y005220D02*
X020500Y005220D01*
X019340Y006380D01*
X017260Y006380D01*
X016780Y006380D02*
X016770Y006380D01*
X016770Y007094D01*
X016270Y007094D02*
X016270Y006510D01*
X016140Y006380D01*
X016270Y007094D02*
X016270Y007675D01*
X016505Y007910D01*
X017160Y007936D02*
X017160Y008780D01*
X017840Y008780D01*
X017160Y007936D02*
X017206Y007890D01*
X015835Y007910D02*
X015820Y007925D01*
X015820Y008300D01*
X015835Y007910D02*
X015770Y007845D01*
X015770Y007094D01*
X015270Y007094D02*
X015270Y007874D01*
X015244Y007900D01*
X015230Y007914D01*
X015230Y009370D01*
X014700Y009900D01*
X014160Y009900D01*
X014100Y009960D01*
X013100Y009960D01*
X013100Y010860D02*
X012756Y011204D01*
X012756Y012300D01*
X011280Y012300D01*
X010320Y011340D01*
X011980Y013100D02*
X012350Y013100D01*
X012350Y013196D01*
X012850Y013196D02*
X012850Y012394D01*
X012756Y012300D01*
X013350Y012366D02*
X013444Y012300D01*
X013444Y011464D01*
X013320Y011340D01*
X013100Y010860D02*
X014000Y010860D01*
X014160Y011020D01*
X014160Y012140D01*
X013350Y012366D02*
X013350Y013196D01*
X013350Y013810D01*
X013260Y013900D01*
X010220Y013900D01*
X009740Y014220D02*
X013580Y014220D01*
X013850Y013950D01*
X013850Y013900D01*
X014525Y013900D01*
X014540Y013885D01*
X014540Y014555D02*
X014540Y015020D01*
X014700Y015500D02*
X013850Y015500D01*
X013850Y015906D01*
X014084Y016140D01*
X013850Y015500D02*
X013850Y015244D01*
X014700Y015500D02*
X015500Y014700D01*
X013850Y013900D02*
X013850Y013196D01*
X017160Y009900D02*
X018380Y009900D01*
X019180Y009100D01*
X019180Y008780D01*
X020840Y008780D01*
X021180Y007660D02*
X021180Y007230D01*
X021170Y007220D01*
X020670Y007220D02*
X020320Y007220D01*
X019820Y007720D01*
X019180Y007180D02*
X019180Y008780D01*
X021670Y007220D02*
X022170Y007220D01*
X022170Y006910D01*
X022800Y006280D01*
X022800Y005260D01*
X023340Y004460D02*
X023610Y004190D01*
X023610Y003860D01*
X023610Y003980D01*
X024285Y003980D01*
X024285Y003340D02*
X023180Y003340D01*
X023110Y003410D01*
X023110Y003860D01*
X022860Y002700D02*
X022610Y002450D01*
X022610Y001860D01*
X022110Y001860D01*
X023300Y001260D02*
X020840Y001260D01*
X017840Y001260D02*
X017360Y000780D01*
X015340Y000780D01*
X014380Y001740D01*
X013580Y001740D01*
X013100Y002220D01*
X013100Y006960D01*
X014380Y007180D02*
X014684Y007180D01*
X014770Y007094D01*
X014770Y007686D01*
X014556Y007900D01*
X014770Y007094D02*
X014770Y009330D01*
X014780Y009340D01*
X015770Y007910D02*
X015835Y007910D01*
X017580Y005740D02*
X017260Y005420D01*
X017260Y005056D01*
X017270Y005046D01*
X017270Y004316D01*
X017306Y004280D01*
X017306Y002846D01*
X017910Y003040D02*
X017910Y004196D01*
X017994Y004280D01*
X019380Y004280D01*
X019820Y004720D01*
X018700Y004720D02*
X018700Y005260D01*
X018220Y005740D01*
X017580Y005740D01*
X017824Y005100D02*
X017770Y005046D01*
X017770Y004504D01*
X017994Y004280D01*
X017770Y005046D02*
X017740Y005076D01*
X017824Y005100D02*
X018060Y005100D01*
X016780Y005056D02*
X016780Y004420D01*
X016770Y005046D02*
X016780Y005056D01*
X015364Y003500D02*
X015364Y002736D01*
X016840Y001260D01*
X013840Y002380D02*
X013840Y003500D01*
X014640Y004300D01*
X014676Y004300D01*
X014770Y004394D01*
X014770Y005046D01*
X014170Y005165D02*
X014105Y005100D01*
X013740Y005100D01*
X005900Y011760D02*
X005840Y011820D01*
X004620Y011820D01*
X004410Y012030D01*
X004410Y012260D01*
X003910Y012260D02*
X003900Y012260D01*
X003900Y012860D01*
X004140Y013580D02*
X008620Y013580D01*
X008620Y014220D02*
X008460Y014220D01*
X008140Y014700D02*
X005900Y014700D01*
X005900Y014760D01*
X005580Y015180D02*
X004660Y014260D01*
X004410Y014260D01*
X003910Y014260D02*
X003910Y013810D01*
X004140Y013580D01*
X003410Y014260D02*
X002910Y014260D01*
X003410Y014260D02*
X003410Y014610D01*
X004140Y015340D01*
X005000Y015340D01*
X005420Y015820D02*
X005580Y015660D01*
X005580Y015580D01*
X007940Y015580D01*
X009300Y015580D02*
X009500Y015580D01*
X005580Y015580D02*
X005580Y015180D01*
X005420Y015820D02*
X003820Y015820D01*
X002910Y016730D01*
X002910Y017540D01*
X001900Y017420D02*
X001900Y016460D01*
X001890Y016450D01*
X002000Y015340D02*
X002000Y014480D01*
X001900Y014380D01*
X001900Y012140D02*
X001900Y011440D01*
X002000Y011340D01*
X002910Y012260D02*
X003410Y012260D01*
X003410Y011750D01*
X003820Y011340D01*
X005000Y011340D01*
X001900Y019660D02*
X001910Y019670D01*
X001910Y020760D01*
X001900Y021740D02*
X002860Y022700D01*
X002860Y023980D01*
X003030Y024150D01*
X003615Y024150D01*
X003615Y024650D02*
X002570Y024650D01*
X001900Y023980D01*
X001900Y025100D02*
X002450Y025650D01*
X003615Y025650D01*
X003615Y026150D02*
X003090Y026150D01*
X001900Y027340D01*
X003040Y027370D02*
X003525Y027370D01*
X003555Y027400D01*
X003540Y027415D01*
X004225Y027400D02*
X004470Y027155D01*
X004470Y025800D01*
X004575Y025695D01*
X004585Y025695D01*
X004780Y025500D01*
X004575Y025695D02*
X005120Y025150D01*
X005665Y025150D01*
X005665Y024650D02*
X005665Y024150D01*
X005665Y023650D02*
X005475Y023650D01*
X004975Y023150D01*
X004305Y023150D02*
X004305Y024985D01*
X004140Y025150D01*
X003615Y025150D01*
X004850Y026440D02*
X004850Y029696D01*
X007637Y032483D01*
X006540Y029022D02*
X006540Y024940D01*
X006250Y024650D01*
X005665Y024650D01*
X005665Y025650D02*
X005665Y026150D01*
X005140Y026150D01*
X004850Y026440D01*
X005620Y026695D02*
X005620Y027070D01*
X005620Y026695D02*
X005665Y026650D01*
X005665Y023650D02*
X006390Y023650D01*
X025800Y005260D02*
X026280Y005740D01*
X036460Y012940D02*
X036460Y013316D01*
X036447Y013329D01*
X029164Y020620D02*
X027971Y020620D01*
X031340Y022540D02*
X034022Y022540D01*
X037697Y026215D01*
X036360Y028830D02*
X033398Y028830D01*
X033398Y028780D01*
X033480Y031260D02*
X033780Y031260D01*
X033780Y031560D01*
X033778Y031526D01*
X033772Y031493D01*
X033763Y031461D01*
X033750Y031430D01*
X033734Y031400D01*
X033715Y031373D01*
X033692Y031348D01*
X033667Y031325D01*
X033640Y031306D01*
X033610Y031290D01*
X033579Y031277D01*
X033547Y031268D01*
X033514Y031262D01*
X033480Y031260D01*
X033280Y031460D02*
X033280Y032260D01*
X033680Y032260D01*
X033680Y032060D01*
X033678Y032034D01*
X033673Y032008D01*
X033665Y031983D01*
X033653Y031960D01*
X033639Y031938D01*
X033621Y031919D01*
X033602Y031901D01*
X033580Y031887D01*
X033557Y031875D01*
X033532Y031867D01*
X033506Y031862D01*
X033480Y031860D01*
X033680Y032060D02*
X033678Y032086D01*
X033673Y032112D01*
X033665Y032137D01*
X033653Y032160D01*
X033639Y032182D01*
X033621Y032201D01*
X033602Y032219D01*
X033580Y032233D01*
X033557Y032245D01*
X033532Y032253D01*
X033506Y032258D01*
X033480Y032260D01*
X033280Y032260D01*
X033980Y031860D02*
X034280Y031260D01*
X033980Y031860D02*
X034180Y032260D01*
X033780Y031560D02*
X033778Y031594D01*
X033772Y031627D01*
X033763Y031659D01*
X033750Y031690D01*
X033734Y031720D01*
X033715Y031747D01*
X033692Y031772D01*
X033667Y031795D01*
X033640Y031814D01*
X033610Y031830D01*
X033579Y031843D01*
X033547Y031852D01*
X033514Y031858D01*
X033480Y031860D01*
X032880Y031460D02*
X032882Y031434D01*
X032887Y031408D01*
X032895Y031383D01*
X032907Y031360D01*
X032921Y031338D01*
X032939Y031319D01*
X032958Y031301D01*
X032980Y031287D01*
X033003Y031275D01*
X033028Y031267D01*
X033054Y031262D01*
X033080Y031260D01*
X033106Y031262D01*
X033132Y031267D01*
X033157Y031275D01*
X033180Y031287D01*
X033202Y031301D01*
X033221Y031319D01*
X033239Y031338D01*
X033253Y031360D01*
X033265Y031383D01*
X033273Y031408D01*
X033278Y031434D01*
X033280Y031460D01*
D34*
X027971Y025620D02*
X024820Y025620D01*
X024820Y026980D01*
X024475Y026980D01*
X024475Y027660D01*
X023805Y027660D02*
X023500Y027660D01*
X023500Y028140D01*
X023500Y027660D02*
X022860Y027660D01*
X022860Y027731D01*
X023091Y026860D02*
X022860Y026629D01*
X023091Y026860D02*
X023920Y026860D01*
X024040Y026980D01*
X024475Y026980D01*
X024245Y026965D02*
X024140Y026860D01*
X023920Y026860D01*
X023961Y026959D01*
X023961Y025620D02*
X024820Y025620D01*
X025260Y024300D02*
X023980Y024300D01*
X023961Y024281D01*
X023850Y024281D01*
X023109Y023540D01*
X023109Y023340D01*
X020790Y023340D01*
X020790Y024174D01*
X020790Y023340D02*
X018580Y023340D01*
X018580Y023495D01*
X018345Y023260D01*
X017180Y023260D01*
X015740Y021820D01*
X013900Y021820D01*
X009700Y021820D01*
X009300Y021420D02*
X009300Y022340D01*
X009300Y022500D01*
X009420Y022620D01*
X009300Y022340D02*
X007500Y024140D01*
X007500Y025635D01*
X007700Y025835D01*
X007660Y025795D01*
X006860Y026725D02*
X006860Y024620D01*
X006860Y023820D01*
X008620Y022060D01*
X008620Y021820D01*
X008620Y015980D01*
X006860Y015980D01*
X004620Y018220D01*
X003660Y018220D01*
X003410Y017970D01*
X003410Y017540D01*
X003910Y017540D02*
X004410Y017540D01*
X004890Y017060D01*
X004890Y016450D01*
X003340Y018860D02*
X003410Y018930D01*
X003410Y019540D01*
X003910Y019540D02*
X004410Y019540D01*
X004410Y020260D01*
X004910Y020760D01*
X004540Y022540D02*
X007500Y022540D01*
X008460Y021820D02*
X008620Y021820D01*
X009300Y021420D02*
X015500Y021420D01*
X015980Y021420D01*
X017420Y022860D01*
X018580Y022860D01*
X018580Y022745D01*
X018580Y022860D02*
X020790Y022860D01*
X020790Y022126D01*
X020790Y022860D02*
X023109Y022860D01*
X023109Y022700D01*
X023850Y021959D01*
X023961Y021959D01*
X023983Y021980D01*
X024940Y021980D01*
X024940Y020620D01*
X023961Y020620D01*
X023961Y019281D02*
X023150Y019281D01*
X022860Y019571D01*
X022860Y018469D02*
X023734Y018469D01*
X023805Y018540D01*
X024475Y018540D02*
X024620Y018685D01*
X024620Y018860D01*
X024940Y018860D01*
X024620Y018860D02*
X024199Y019281D01*
X023961Y019281D01*
X022860Y018469D02*
X022771Y018380D01*
X022220Y018380D01*
X024940Y021980D02*
X025580Y021980D01*
X025580Y022700D01*
X025595Y022700D01*
X024925Y022700D02*
X024211Y022700D01*
X024211Y023540D01*
X024211Y023140D01*
X024700Y023140D01*
X024925Y023540D02*
X024211Y023540D01*
X025260Y024300D02*
X025595Y023965D01*
X025595Y023540D01*
X026020Y023540D01*
X026220Y023340D01*
X025580Y021980D02*
X027971Y021980D01*
X027971Y025620D01*
X027971Y021980D02*
X027971Y020620D01*
X018580Y022020D02*
X018100Y022020D01*
X018580Y022020D02*
X018580Y022075D01*
X018580Y023495D02*
X018580Y023500D01*
X018580Y024165D02*
X018580Y024220D01*
X018100Y024220D01*
X009300Y021420D02*
X009300Y015580D01*
X009300Y015180D01*
X009300Y009860D01*
X009580Y009580D01*
X009580Y008940D01*
X009580Y005650D01*
X009840Y005390D01*
X008780Y006220D02*
X008460Y006220D01*
X008390Y006140D02*
X007980Y006140D01*
X007980Y007180D01*
X008780Y007180D02*
X008780Y006220D01*
X006890Y006305D02*
X006890Y005640D01*
X005975Y006460D02*
X005923Y006511D01*
X005923Y006890D01*
X006008Y006975D01*
X006890Y006975D01*
X006890Y007805D01*
X006890Y008475D02*
X007055Y008640D01*
X008390Y008640D01*
X008620Y008870D01*
X008620Y013580D01*
X008620Y014220D01*
X008620Y015980D01*
X008320Y010800D02*
X008320Y009322D01*
X007784Y009322D01*
X007679Y009217D01*
X007679Y008940D01*
X006996Y008940D01*
X006885Y008894D01*
X006843Y008851D01*
X006599Y008851D01*
X006522Y008775D01*
X005665Y008775D01*
X005555Y008729D01*
X005169Y008343D01*
X005123Y008233D01*
X005123Y008216D01*
X005071Y008230D01*
X004923Y008230D01*
X004776Y008230D01*
X004720Y008215D01*
X004670Y008186D01*
X004645Y008161D01*
X004616Y008190D01*
X004231Y008190D01*
X004173Y008133D01*
X004116Y008190D01*
X003731Y008190D01*
X003625Y008085D01*
X003625Y007720D01*
X003424Y007720D01*
X003285Y007662D01*
X003263Y007640D01*
X001560Y007640D01*
X001560Y007673D01*
X001580Y007668D01*
X002020Y007668D01*
X002020Y008270D01*
X002260Y008270D01*
X002260Y008510D01*
X002020Y008510D01*
X002020Y009112D01*
X001580Y009112D01*
X001560Y009107D01*
X001560Y010800D01*
X008320Y010800D01*
X008320Y010634D02*
X005823Y010634D01*
X005817Y010654D02*
X005788Y010704D01*
X005748Y010745D01*
X005697Y010774D01*
X005641Y010789D01*
X005020Y010789D01*
X005020Y010233D01*
X004827Y010233D01*
X004827Y010789D01*
X004206Y010789D01*
X004150Y010774D01*
X004099Y010745D01*
X004058Y010704D01*
X004029Y010654D01*
X004014Y010598D01*
X004014Y010233D01*
X004827Y010233D01*
X004827Y010040D01*
X004014Y010040D01*
X004014Y009674D01*
X004029Y009618D01*
X004058Y009568D01*
X004099Y009527D01*
X004150Y009498D01*
X004206Y009483D01*
X004827Y009483D01*
X004827Y010040D01*
X005020Y010040D01*
X005020Y010233D01*
X005832Y010233D01*
X005832Y010598D01*
X005817Y010654D01*
X005832Y010396D02*
X008320Y010396D01*
X008320Y010157D02*
X005020Y010157D01*
X004923Y010136D02*
X004923Y007577D01*
X004923Y007640D02*
X004923Y008230D01*
X004923Y007640D01*
X004923Y007640D01*
X004923Y007772D02*
X004923Y007772D01*
X004923Y008011D02*
X004923Y008011D01*
X005130Y008249D02*
X002891Y008249D01*
X002891Y008270D02*
X002891Y007859D01*
X002877Y007803D01*
X002848Y007753D01*
X002807Y007712D01*
X002756Y007683D01*
X002700Y007668D01*
X002260Y007668D01*
X002260Y008270D01*
X002891Y008270D01*
X002891Y008510D02*
X002260Y008510D01*
X002260Y009112D01*
X002700Y009112D01*
X002756Y009097D01*
X002807Y009068D01*
X002848Y009027D01*
X002877Y008977D01*
X002891Y008921D01*
X002891Y008510D01*
X002891Y008726D02*
X005552Y008726D01*
X005725Y008475D02*
X005423Y008173D01*
X005423Y007577D01*
X005423Y006578D01*
X005305Y006460D01*
X005923Y006890D02*
X005923Y007577D01*
X005725Y008475D02*
X006890Y008475D01*
X007679Y008965D02*
X002880Y008965D01*
X002260Y008965D02*
X002020Y008965D01*
X002020Y008726D02*
X002260Y008726D01*
X002260Y008488D02*
X005313Y008488D01*
X005020Y009483D02*
X005641Y009483D01*
X005697Y009498D01*
X005748Y009527D01*
X005788Y009568D01*
X005817Y009618D01*
X005832Y009674D01*
X005832Y010040D01*
X005020Y010040D01*
X005020Y009483D01*
X005020Y009680D02*
X004827Y009680D01*
X004827Y009919D02*
X005020Y009919D01*
X004827Y010157D02*
X001560Y010157D01*
X001560Y009919D02*
X004014Y009919D01*
X004014Y009680D02*
X001560Y009680D01*
X001560Y009442D02*
X008320Y009442D01*
X008320Y009680D02*
X005832Y009680D01*
X005832Y009919D02*
X008320Y009919D01*
X007679Y009203D02*
X001560Y009203D01*
X002020Y008249D02*
X002260Y008249D01*
X002260Y008011D02*
X002020Y008011D01*
X002020Y007772D02*
X002260Y007772D01*
X002859Y007772D02*
X003625Y007772D01*
X003625Y008011D02*
X002891Y008011D01*
X003820Y007340D02*
X003820Y006460D01*
X003805Y006460D01*
X003820Y007340D02*
X003923Y007340D01*
X004014Y010396D02*
X001560Y010396D01*
X001560Y010634D02*
X004024Y010634D01*
X004827Y010634D02*
X005020Y010634D01*
X005020Y010396D02*
X004827Y010396D01*
X008390Y008640D02*
X008640Y008640D01*
X008355Y002640D02*
X008355Y001800D01*
X009025Y001800D01*
X009695Y001800D02*
X010270Y001800D01*
X007685Y001800D02*
X007685Y002595D01*
X007685Y002640D01*
X002910Y019540D02*
X002910Y021880D01*
X002930Y021880D01*
X004305Y022775D02*
X004540Y022540D01*
X004305Y022775D02*
X004305Y023150D01*
X006860Y026725D02*
X007700Y027565D01*
X007725Y027565D01*
X007784Y027624D01*
X008450Y027624D01*
D35*
X007660Y027020D03*
X007180Y028140D03*
X005620Y027070D03*
X004780Y025500D03*
X003040Y027370D03*
X006860Y024620D03*
X006390Y023650D03*
X009740Y024620D03*
X012300Y022220D03*
X012780Y022380D03*
X012300Y020940D03*
X015020Y019820D03*
X016620Y020940D03*
X015820Y022540D03*
X018100Y022020D03*
X020460Y021260D03*
X021100Y021260D03*
X021740Y021260D03*
X022660Y021620D03*
X024700Y023140D03*
X026220Y023340D03*
X024940Y018860D03*
X022220Y018380D03*
X018100Y024220D03*
X020780Y024940D03*
X021300Y024940D03*
X023500Y028140D03*
X024460Y028460D03*
X025100Y028460D03*
X015820Y025900D03*
X010380Y027660D03*
X012780Y016620D03*
X014540Y015020D03*
X011980Y013100D03*
X010220Y013900D03*
X009740Y014220D03*
X009740Y014860D03*
X009500Y015580D03*
X008140Y014700D03*
X008460Y014220D03*
X007940Y015580D03*
X003900Y012860D03*
X002140Y009300D03*
X002140Y007480D03*
X004480Y005960D03*
X006890Y005640D03*
X007980Y007180D03*
X008780Y007180D03*
X008940Y007820D03*
X010060Y008460D03*
X009100Y009420D03*
X013740Y005100D03*
X014380Y007180D03*
X015820Y008300D03*
X015980Y009420D03*
X016380Y009740D03*
X014780Y009340D03*
X016780Y006380D03*
X015780Y005700D03*
X016780Y004420D03*
X018060Y005100D03*
X020940Y005900D03*
X021180Y007660D03*
X023340Y004460D03*
X021420Y003500D03*
X023100Y002380D03*
X025420Y003980D03*
X010750Y002890D03*
X010270Y001800D03*
X009840Y003800D03*
X006800Y002140D03*
X004980Y002140D03*
D36*
X004930Y009270D03*
X004470Y009270D03*
X004010Y009270D03*
X003890Y009890D03*
X003890Y010390D03*
X005390Y009270D03*
X005850Y009270D03*
X005920Y009920D03*
X005920Y010400D03*
X003340Y018860D03*
X007500Y022540D03*
X008460Y021820D03*
X009420Y022620D03*
X009700Y021820D03*
D37*
X017420Y006060D02*
X019180Y006060D01*
X020300Y004940D01*
X020300Y004140D01*
X021085Y004140D01*
X021420Y004475D01*
X022685Y004475D01*
X023110Y004050D01*
X023110Y003860D01*
X021420Y004475D02*
X021170Y004725D01*
X021170Y005220D01*
X017420Y006060D02*
X017100Y005740D01*
X016270Y005740D01*
D38*
X010750Y002890D02*
X009840Y002890D01*
X010140Y005140D02*
X007940Y005140D01*
X007540Y004740D01*
X007540Y004440D01*
X005040Y003940D02*
X004370Y003270D01*
X004000Y003640D01*
X003975Y003640D01*
X004370Y003270D02*
X003490Y002390D01*
X003390Y002390D01*
X003390Y002140D01*
X003310Y002220D01*
X002060Y002220D01*
X002060Y004460D02*
X002060Y005610D01*
X001960Y005710D01*
X002140Y005890D01*
X002236Y005890D01*
X002236Y006076D01*
X003500Y007340D01*
X003820Y007340D01*
X002140Y007480D02*
X002140Y008390D01*
X002140Y009300D01*
X004980Y002140D02*
X005890Y002140D01*
X009840Y005390D02*
X010140Y005140D01*
D39*
X009840Y003800D02*
X009840Y002890D01*
X006800Y002140D02*
X005890Y002140D01*
M02*
