G75*
%MOIN*%
%OFA0B0*%
%FSLAX25Y25*%
%IPPOS*%
%LPD*%
%AMOC8*
5,1,8,0,0,1.08239X$1,22.5*
%
%ADD10C,0.00000*%
%ADD11R,0.04724X0.03543*%
%ADD12R,0.03543X0.04724*%
%ADD13R,0.03937X0.04331*%
%ADD14R,0.04331X0.03937*%
%ADD15R,0.07087X0.06299*%
%ADD16C,0.00591*%
%ADD17R,0.06300X0.04600*%
%ADD18R,0.04600X0.06300*%
%ADD19R,0.06299X0.07087*%
%ADD20R,0.03150X0.06299*%
%ADD21R,0.10630X0.06299*%
%ADD22R,0.06299X0.10630*%
D10*
X0022017Y0016053D02*
X0022017Y0034163D01*
X0022014Y0034448D01*
X0022003Y0034734D01*
X0021986Y0035019D01*
X0021962Y0035303D01*
X0021931Y0035587D01*
X0021893Y0035870D01*
X0021848Y0036151D01*
X0021797Y0036432D01*
X0021739Y0036712D01*
X0021674Y0036990D01*
X0021602Y0037266D01*
X0021524Y0037540D01*
X0021439Y0037813D01*
X0021347Y0038083D01*
X0021249Y0038351D01*
X0021145Y0038617D01*
X0021034Y0038880D01*
X0020917Y0039140D01*
X0020794Y0039398D01*
X0020664Y0039652D01*
X0020528Y0039903D01*
X0020387Y0040151D01*
X0020239Y0040395D01*
X0020086Y0040636D01*
X0019926Y0040872D01*
X0019761Y0041105D01*
X0019591Y0041334D01*
X0019415Y0041559D01*
X0019233Y0041779D01*
X0019047Y0041995D01*
X0018855Y0042206D01*
X0018658Y0042413D01*
X0018456Y0042615D01*
X0018249Y0042812D01*
X0018038Y0043004D01*
X0017822Y0043190D01*
X0017602Y0043372D01*
X0017377Y0043548D01*
X0017148Y0043718D01*
X0016915Y0043883D01*
X0016679Y0044043D01*
X0016438Y0044196D01*
X0016194Y0044344D01*
X0015946Y0044485D01*
X0015695Y0044621D01*
X0015441Y0044751D01*
X0015183Y0044874D01*
X0014923Y0044991D01*
X0014660Y0045102D01*
X0014394Y0045206D01*
X0014126Y0045304D01*
X0013856Y0045396D01*
X0013583Y0045481D01*
X0013309Y0045559D01*
X0013033Y0045631D01*
X0012755Y0045696D01*
X0012475Y0045754D01*
X0012194Y0045805D01*
X0011913Y0045850D01*
X0011630Y0045888D01*
X0011346Y0045919D01*
X0011062Y0045943D01*
X0010777Y0045960D01*
X0010491Y0045971D01*
X0010206Y0045974D01*
X0010206Y0045975D02*
X0001545Y0045975D01*
X0001545Y0289282D01*
X0010206Y0289282D01*
X0010491Y0289285D01*
X0010777Y0289296D01*
X0011062Y0289313D01*
X0011346Y0289337D01*
X0011630Y0289368D01*
X0011913Y0289406D01*
X0012194Y0289451D01*
X0012475Y0289502D01*
X0012755Y0289560D01*
X0013033Y0289625D01*
X0013309Y0289697D01*
X0013583Y0289775D01*
X0013856Y0289860D01*
X0014126Y0289952D01*
X0014394Y0290050D01*
X0014660Y0290154D01*
X0014923Y0290265D01*
X0015183Y0290382D01*
X0015441Y0290505D01*
X0015695Y0290635D01*
X0015946Y0290771D01*
X0016194Y0290912D01*
X0016438Y0291060D01*
X0016679Y0291213D01*
X0016915Y0291373D01*
X0017148Y0291538D01*
X0017377Y0291708D01*
X0017602Y0291884D01*
X0017822Y0292066D01*
X0018038Y0292252D01*
X0018249Y0292444D01*
X0018456Y0292641D01*
X0018658Y0292843D01*
X0018855Y0293050D01*
X0019047Y0293261D01*
X0019233Y0293477D01*
X0019415Y0293697D01*
X0019591Y0293922D01*
X0019761Y0294151D01*
X0019926Y0294384D01*
X0020086Y0294620D01*
X0020239Y0294861D01*
X0020387Y0295105D01*
X0020528Y0295353D01*
X0020664Y0295604D01*
X0020794Y0295858D01*
X0020917Y0296116D01*
X0021034Y0296376D01*
X0021145Y0296639D01*
X0021249Y0296905D01*
X0021347Y0297173D01*
X0021439Y0297443D01*
X0021524Y0297716D01*
X0021602Y0297990D01*
X0021674Y0298266D01*
X0021739Y0298544D01*
X0021797Y0298824D01*
X0021848Y0299105D01*
X0021893Y0299386D01*
X0021931Y0299669D01*
X0021962Y0299953D01*
X0021986Y0300237D01*
X0022003Y0300522D01*
X0022014Y0300808D01*
X0022017Y0301093D01*
X0022017Y0319203D01*
X0374773Y0319203D01*
X0374773Y0301093D01*
X0374776Y0300808D01*
X0374787Y0300522D01*
X0374804Y0300237D01*
X0374828Y0299953D01*
X0374859Y0299669D01*
X0374897Y0299386D01*
X0374942Y0299105D01*
X0374993Y0298824D01*
X0375051Y0298544D01*
X0375116Y0298266D01*
X0375188Y0297990D01*
X0375266Y0297716D01*
X0375351Y0297443D01*
X0375443Y0297173D01*
X0375541Y0296905D01*
X0375645Y0296639D01*
X0375756Y0296376D01*
X0375873Y0296116D01*
X0375996Y0295858D01*
X0376126Y0295604D01*
X0376262Y0295353D01*
X0376403Y0295105D01*
X0376551Y0294861D01*
X0376704Y0294620D01*
X0376864Y0294384D01*
X0377029Y0294151D01*
X0377199Y0293922D01*
X0377375Y0293697D01*
X0377557Y0293477D01*
X0377743Y0293261D01*
X0377935Y0293050D01*
X0378132Y0292843D01*
X0378334Y0292641D01*
X0378541Y0292444D01*
X0378752Y0292252D01*
X0378968Y0292066D01*
X0379188Y0291884D01*
X0379413Y0291708D01*
X0379642Y0291538D01*
X0379875Y0291373D01*
X0380111Y0291213D01*
X0380352Y0291060D01*
X0380596Y0290912D01*
X0380844Y0290771D01*
X0381095Y0290635D01*
X0381349Y0290505D01*
X0381607Y0290382D01*
X0381867Y0290265D01*
X0382130Y0290154D01*
X0382396Y0290050D01*
X0382664Y0289952D01*
X0382934Y0289860D01*
X0383207Y0289775D01*
X0383481Y0289697D01*
X0383757Y0289625D01*
X0384035Y0289560D01*
X0384315Y0289502D01*
X0384596Y0289451D01*
X0384877Y0289406D01*
X0385160Y0289368D01*
X0385444Y0289337D01*
X0385728Y0289313D01*
X0386013Y0289296D01*
X0386299Y0289285D01*
X0386584Y0289282D01*
X0395245Y0289282D01*
X0395245Y0045975D01*
X0386584Y0045975D01*
X0386584Y0045974D02*
X0386299Y0045971D01*
X0386013Y0045960D01*
X0385728Y0045943D01*
X0385444Y0045919D01*
X0385160Y0045888D01*
X0384877Y0045850D01*
X0384596Y0045805D01*
X0384315Y0045754D01*
X0384035Y0045696D01*
X0383757Y0045631D01*
X0383481Y0045559D01*
X0383207Y0045481D01*
X0382934Y0045396D01*
X0382664Y0045304D01*
X0382396Y0045206D01*
X0382130Y0045102D01*
X0381867Y0044991D01*
X0381607Y0044874D01*
X0381349Y0044751D01*
X0381095Y0044621D01*
X0380844Y0044485D01*
X0380596Y0044344D01*
X0380352Y0044196D01*
X0380111Y0044043D01*
X0379875Y0043883D01*
X0379642Y0043718D01*
X0379413Y0043548D01*
X0379188Y0043372D01*
X0378968Y0043190D01*
X0378752Y0043004D01*
X0378541Y0042812D01*
X0378334Y0042615D01*
X0378132Y0042413D01*
X0377935Y0042206D01*
X0377743Y0041995D01*
X0377557Y0041779D01*
X0377375Y0041559D01*
X0377199Y0041334D01*
X0377029Y0041105D01*
X0376864Y0040872D01*
X0376704Y0040636D01*
X0376551Y0040395D01*
X0376403Y0040151D01*
X0376262Y0039903D01*
X0376126Y0039652D01*
X0375996Y0039398D01*
X0375873Y0039140D01*
X0375756Y0038880D01*
X0375645Y0038617D01*
X0375541Y0038351D01*
X0375443Y0038083D01*
X0375351Y0037813D01*
X0375266Y0037540D01*
X0375188Y0037266D01*
X0375116Y0036990D01*
X0375051Y0036712D01*
X0374993Y0036432D01*
X0374942Y0036151D01*
X0374897Y0035870D01*
X0374859Y0035587D01*
X0374828Y0035303D01*
X0374804Y0035019D01*
X0374787Y0034734D01*
X0374776Y0034448D01*
X0374773Y0034163D01*
X0374773Y0016053D01*
X0022017Y0016053D01*
X0010600Y0045975D02*
X0010206Y0045975D01*
X0047805Y0055620D02*
X0047807Y0055778D01*
X0047813Y0055936D01*
X0047823Y0056094D01*
X0047837Y0056252D01*
X0047855Y0056409D01*
X0047876Y0056566D01*
X0047902Y0056722D01*
X0047932Y0056878D01*
X0047965Y0057033D01*
X0048003Y0057186D01*
X0048044Y0057339D01*
X0048089Y0057491D01*
X0048138Y0057642D01*
X0048191Y0057791D01*
X0048247Y0057939D01*
X0048307Y0058085D01*
X0048371Y0058230D01*
X0048439Y0058373D01*
X0048510Y0058515D01*
X0048584Y0058655D01*
X0048662Y0058792D01*
X0048744Y0058928D01*
X0048828Y0059062D01*
X0048917Y0059193D01*
X0049008Y0059322D01*
X0049103Y0059449D01*
X0049200Y0059574D01*
X0049301Y0059696D01*
X0049405Y0059815D01*
X0049512Y0059932D01*
X0049622Y0060046D01*
X0049735Y0060157D01*
X0049850Y0060266D01*
X0049968Y0060371D01*
X0050089Y0060473D01*
X0050212Y0060573D01*
X0050338Y0060669D01*
X0050466Y0060762D01*
X0050596Y0060852D01*
X0050729Y0060938D01*
X0050864Y0061022D01*
X0051000Y0061101D01*
X0051139Y0061178D01*
X0051280Y0061250D01*
X0051422Y0061320D01*
X0051566Y0061385D01*
X0051712Y0061447D01*
X0051859Y0061505D01*
X0052008Y0061560D01*
X0052158Y0061611D01*
X0052309Y0061658D01*
X0052461Y0061701D01*
X0052614Y0061740D01*
X0052769Y0061776D01*
X0052924Y0061807D01*
X0053080Y0061835D01*
X0053236Y0061859D01*
X0053393Y0061879D01*
X0053551Y0061895D01*
X0053708Y0061907D01*
X0053867Y0061915D01*
X0054025Y0061919D01*
X0054183Y0061919D01*
X0054341Y0061915D01*
X0054500Y0061907D01*
X0054657Y0061895D01*
X0054815Y0061879D01*
X0054972Y0061859D01*
X0055128Y0061835D01*
X0055284Y0061807D01*
X0055439Y0061776D01*
X0055594Y0061740D01*
X0055747Y0061701D01*
X0055899Y0061658D01*
X0056050Y0061611D01*
X0056200Y0061560D01*
X0056349Y0061505D01*
X0056496Y0061447D01*
X0056642Y0061385D01*
X0056786Y0061320D01*
X0056928Y0061250D01*
X0057069Y0061178D01*
X0057208Y0061101D01*
X0057344Y0061022D01*
X0057479Y0060938D01*
X0057612Y0060852D01*
X0057742Y0060762D01*
X0057870Y0060669D01*
X0057996Y0060573D01*
X0058119Y0060473D01*
X0058240Y0060371D01*
X0058358Y0060266D01*
X0058473Y0060157D01*
X0058586Y0060046D01*
X0058696Y0059932D01*
X0058803Y0059815D01*
X0058907Y0059696D01*
X0059008Y0059574D01*
X0059105Y0059449D01*
X0059200Y0059322D01*
X0059291Y0059193D01*
X0059380Y0059062D01*
X0059464Y0058928D01*
X0059546Y0058792D01*
X0059624Y0058655D01*
X0059698Y0058515D01*
X0059769Y0058373D01*
X0059837Y0058230D01*
X0059901Y0058085D01*
X0059961Y0057939D01*
X0060017Y0057791D01*
X0060070Y0057642D01*
X0060119Y0057491D01*
X0060164Y0057339D01*
X0060205Y0057186D01*
X0060243Y0057033D01*
X0060276Y0056878D01*
X0060306Y0056722D01*
X0060332Y0056566D01*
X0060353Y0056409D01*
X0060371Y0056252D01*
X0060385Y0056094D01*
X0060395Y0055936D01*
X0060401Y0055778D01*
X0060403Y0055620D01*
X0060401Y0055462D01*
X0060395Y0055304D01*
X0060385Y0055146D01*
X0060371Y0054988D01*
X0060353Y0054831D01*
X0060332Y0054674D01*
X0060306Y0054518D01*
X0060276Y0054362D01*
X0060243Y0054207D01*
X0060205Y0054054D01*
X0060164Y0053901D01*
X0060119Y0053749D01*
X0060070Y0053598D01*
X0060017Y0053449D01*
X0059961Y0053301D01*
X0059901Y0053155D01*
X0059837Y0053010D01*
X0059769Y0052867D01*
X0059698Y0052725D01*
X0059624Y0052585D01*
X0059546Y0052448D01*
X0059464Y0052312D01*
X0059380Y0052178D01*
X0059291Y0052047D01*
X0059200Y0051918D01*
X0059105Y0051791D01*
X0059008Y0051666D01*
X0058907Y0051544D01*
X0058803Y0051425D01*
X0058696Y0051308D01*
X0058586Y0051194D01*
X0058473Y0051083D01*
X0058358Y0050974D01*
X0058240Y0050869D01*
X0058119Y0050767D01*
X0057996Y0050667D01*
X0057870Y0050571D01*
X0057742Y0050478D01*
X0057612Y0050388D01*
X0057479Y0050302D01*
X0057344Y0050218D01*
X0057208Y0050139D01*
X0057069Y0050062D01*
X0056928Y0049990D01*
X0056786Y0049920D01*
X0056642Y0049855D01*
X0056496Y0049793D01*
X0056349Y0049735D01*
X0056200Y0049680D01*
X0056050Y0049629D01*
X0055899Y0049582D01*
X0055747Y0049539D01*
X0055594Y0049500D01*
X0055439Y0049464D01*
X0055284Y0049433D01*
X0055128Y0049405D01*
X0054972Y0049381D01*
X0054815Y0049361D01*
X0054657Y0049345D01*
X0054500Y0049333D01*
X0054341Y0049325D01*
X0054183Y0049321D01*
X0054025Y0049321D01*
X0053867Y0049325D01*
X0053708Y0049333D01*
X0053551Y0049345D01*
X0053393Y0049361D01*
X0053236Y0049381D01*
X0053080Y0049405D01*
X0052924Y0049433D01*
X0052769Y0049464D01*
X0052614Y0049500D01*
X0052461Y0049539D01*
X0052309Y0049582D01*
X0052158Y0049629D01*
X0052008Y0049680D01*
X0051859Y0049735D01*
X0051712Y0049793D01*
X0051566Y0049855D01*
X0051422Y0049920D01*
X0051280Y0049990D01*
X0051139Y0050062D01*
X0051000Y0050139D01*
X0050864Y0050218D01*
X0050729Y0050302D01*
X0050596Y0050388D01*
X0050466Y0050478D01*
X0050338Y0050571D01*
X0050212Y0050667D01*
X0050089Y0050767D01*
X0049968Y0050869D01*
X0049850Y0050974D01*
X0049735Y0051083D01*
X0049622Y0051194D01*
X0049512Y0051308D01*
X0049405Y0051425D01*
X0049301Y0051544D01*
X0049200Y0051666D01*
X0049103Y0051791D01*
X0049008Y0051918D01*
X0048917Y0052047D01*
X0048828Y0052178D01*
X0048744Y0052312D01*
X0048662Y0052448D01*
X0048584Y0052585D01*
X0048510Y0052725D01*
X0048439Y0052867D01*
X0048371Y0053010D01*
X0048307Y0053155D01*
X0048247Y0053301D01*
X0048191Y0053449D01*
X0048138Y0053598D01*
X0048089Y0053749D01*
X0048044Y0053901D01*
X0048003Y0054054D01*
X0047965Y0054207D01*
X0047932Y0054362D01*
X0047902Y0054518D01*
X0047876Y0054674D01*
X0047855Y0054831D01*
X0047837Y0054988D01*
X0047823Y0055146D01*
X0047813Y0055304D01*
X0047807Y0055462D01*
X0047805Y0055620D01*
X0192686Y0219990D02*
X0192689Y0220198D01*
X0192696Y0220405D01*
X0192709Y0220613D01*
X0192727Y0220820D01*
X0192750Y0221026D01*
X0192778Y0221232D01*
X0192811Y0221437D01*
X0192849Y0221641D01*
X0192892Y0221845D01*
X0192940Y0222047D01*
X0192993Y0222248D01*
X0193051Y0222447D01*
X0193113Y0222645D01*
X0193181Y0222842D01*
X0193253Y0223037D01*
X0193330Y0223229D01*
X0193412Y0223420D01*
X0193499Y0223609D01*
X0193590Y0223796D01*
X0193686Y0223980D01*
X0193786Y0224162D01*
X0193890Y0224342D01*
X0193999Y0224519D01*
X0194113Y0224693D01*
X0194230Y0224864D01*
X0194352Y0225033D01*
X0194478Y0225198D01*
X0194607Y0225360D01*
X0194741Y0225519D01*
X0194879Y0225675D01*
X0195020Y0225827D01*
X0195165Y0225976D01*
X0195314Y0226121D01*
X0195466Y0226262D01*
X0195622Y0226400D01*
X0195781Y0226534D01*
X0195943Y0226663D01*
X0196108Y0226789D01*
X0196277Y0226911D01*
X0196448Y0227028D01*
X0196622Y0227142D01*
X0196799Y0227251D01*
X0196979Y0227355D01*
X0197161Y0227455D01*
X0197345Y0227551D01*
X0197532Y0227642D01*
X0197721Y0227729D01*
X0197912Y0227811D01*
X0198104Y0227888D01*
X0198299Y0227960D01*
X0198496Y0228028D01*
X0198694Y0228090D01*
X0198893Y0228148D01*
X0199094Y0228201D01*
X0199296Y0228249D01*
X0199500Y0228292D01*
X0199704Y0228330D01*
X0199909Y0228363D01*
X0200115Y0228391D01*
X0200321Y0228414D01*
X0200528Y0228432D01*
X0200736Y0228445D01*
X0200943Y0228452D01*
X0201151Y0228455D01*
X0201359Y0228452D01*
X0201566Y0228445D01*
X0201774Y0228432D01*
X0201981Y0228414D01*
X0202187Y0228391D01*
X0202393Y0228363D01*
X0202598Y0228330D01*
X0202802Y0228292D01*
X0203006Y0228249D01*
X0203208Y0228201D01*
X0203409Y0228148D01*
X0203608Y0228090D01*
X0203806Y0228028D01*
X0204003Y0227960D01*
X0204198Y0227888D01*
X0204390Y0227811D01*
X0204581Y0227729D01*
X0204770Y0227642D01*
X0204957Y0227551D01*
X0205141Y0227455D01*
X0205323Y0227355D01*
X0205503Y0227251D01*
X0205680Y0227142D01*
X0205854Y0227028D01*
X0206025Y0226911D01*
X0206194Y0226789D01*
X0206359Y0226663D01*
X0206521Y0226534D01*
X0206680Y0226400D01*
X0206836Y0226262D01*
X0206988Y0226121D01*
X0207137Y0225976D01*
X0207282Y0225827D01*
X0207423Y0225675D01*
X0207561Y0225519D01*
X0207695Y0225360D01*
X0207824Y0225198D01*
X0207950Y0225033D01*
X0208072Y0224864D01*
X0208189Y0224693D01*
X0208303Y0224519D01*
X0208412Y0224342D01*
X0208516Y0224162D01*
X0208616Y0223980D01*
X0208712Y0223796D01*
X0208803Y0223609D01*
X0208890Y0223420D01*
X0208972Y0223229D01*
X0209049Y0223037D01*
X0209121Y0222842D01*
X0209189Y0222645D01*
X0209251Y0222447D01*
X0209309Y0222248D01*
X0209362Y0222047D01*
X0209410Y0221845D01*
X0209453Y0221641D01*
X0209491Y0221437D01*
X0209524Y0221232D01*
X0209552Y0221026D01*
X0209575Y0220820D01*
X0209593Y0220613D01*
X0209606Y0220405D01*
X0209613Y0220198D01*
X0209616Y0219990D01*
X0209613Y0219782D01*
X0209606Y0219575D01*
X0209593Y0219367D01*
X0209575Y0219160D01*
X0209552Y0218954D01*
X0209524Y0218748D01*
X0209491Y0218543D01*
X0209453Y0218339D01*
X0209410Y0218135D01*
X0209362Y0217933D01*
X0209309Y0217732D01*
X0209251Y0217533D01*
X0209189Y0217335D01*
X0209121Y0217138D01*
X0209049Y0216943D01*
X0208972Y0216751D01*
X0208890Y0216560D01*
X0208803Y0216371D01*
X0208712Y0216184D01*
X0208616Y0216000D01*
X0208516Y0215818D01*
X0208412Y0215638D01*
X0208303Y0215461D01*
X0208189Y0215287D01*
X0208072Y0215116D01*
X0207950Y0214947D01*
X0207824Y0214782D01*
X0207695Y0214620D01*
X0207561Y0214461D01*
X0207423Y0214305D01*
X0207282Y0214153D01*
X0207137Y0214004D01*
X0206988Y0213859D01*
X0206836Y0213718D01*
X0206680Y0213580D01*
X0206521Y0213446D01*
X0206359Y0213317D01*
X0206194Y0213191D01*
X0206025Y0213069D01*
X0205854Y0212952D01*
X0205680Y0212838D01*
X0205503Y0212729D01*
X0205323Y0212625D01*
X0205141Y0212525D01*
X0204957Y0212429D01*
X0204770Y0212338D01*
X0204581Y0212251D01*
X0204390Y0212169D01*
X0204198Y0212092D01*
X0204003Y0212020D01*
X0203806Y0211952D01*
X0203608Y0211890D01*
X0203409Y0211832D01*
X0203208Y0211779D01*
X0203006Y0211731D01*
X0202802Y0211688D01*
X0202598Y0211650D01*
X0202393Y0211617D01*
X0202187Y0211589D01*
X0201981Y0211566D01*
X0201774Y0211548D01*
X0201566Y0211535D01*
X0201359Y0211528D01*
X0201151Y0211525D01*
X0200943Y0211528D01*
X0200736Y0211535D01*
X0200528Y0211548D01*
X0200321Y0211566D01*
X0200115Y0211589D01*
X0199909Y0211617D01*
X0199704Y0211650D01*
X0199500Y0211688D01*
X0199296Y0211731D01*
X0199094Y0211779D01*
X0198893Y0211832D01*
X0198694Y0211890D01*
X0198496Y0211952D01*
X0198299Y0212020D01*
X0198104Y0212092D01*
X0197912Y0212169D01*
X0197721Y0212251D01*
X0197532Y0212338D01*
X0197345Y0212429D01*
X0197161Y0212525D01*
X0196979Y0212625D01*
X0196799Y0212729D01*
X0196622Y0212838D01*
X0196448Y0212952D01*
X0196277Y0213069D01*
X0196108Y0213191D01*
X0195943Y0213317D01*
X0195781Y0213446D01*
X0195622Y0213580D01*
X0195466Y0213718D01*
X0195314Y0213859D01*
X0195165Y0214004D01*
X0195020Y0214153D01*
X0194879Y0214305D01*
X0194741Y0214461D01*
X0194607Y0214620D01*
X0194478Y0214782D01*
X0194352Y0214947D01*
X0194230Y0215116D01*
X0194113Y0215287D01*
X0193999Y0215461D01*
X0193890Y0215638D01*
X0193786Y0215818D01*
X0193686Y0216000D01*
X0193590Y0216184D01*
X0193499Y0216371D01*
X0193412Y0216560D01*
X0193330Y0216751D01*
X0193253Y0216943D01*
X0193181Y0217138D01*
X0193113Y0217335D01*
X0193051Y0217533D01*
X0192993Y0217732D01*
X0192940Y0217933D01*
X0192892Y0218135D01*
X0192849Y0218339D01*
X0192811Y0218543D01*
X0192778Y0218748D01*
X0192750Y0218954D01*
X0192727Y0219160D01*
X0192709Y0219367D01*
X0192696Y0219575D01*
X0192689Y0219782D01*
X0192686Y0219990D01*
X0047805Y0279636D02*
X0047807Y0279794D01*
X0047813Y0279952D01*
X0047823Y0280110D01*
X0047837Y0280268D01*
X0047855Y0280425D01*
X0047876Y0280582D01*
X0047902Y0280738D01*
X0047932Y0280894D01*
X0047965Y0281049D01*
X0048003Y0281202D01*
X0048044Y0281355D01*
X0048089Y0281507D01*
X0048138Y0281658D01*
X0048191Y0281807D01*
X0048247Y0281955D01*
X0048307Y0282101D01*
X0048371Y0282246D01*
X0048439Y0282389D01*
X0048510Y0282531D01*
X0048584Y0282671D01*
X0048662Y0282808D01*
X0048744Y0282944D01*
X0048828Y0283078D01*
X0048917Y0283209D01*
X0049008Y0283338D01*
X0049103Y0283465D01*
X0049200Y0283590D01*
X0049301Y0283712D01*
X0049405Y0283831D01*
X0049512Y0283948D01*
X0049622Y0284062D01*
X0049735Y0284173D01*
X0049850Y0284282D01*
X0049968Y0284387D01*
X0050089Y0284489D01*
X0050212Y0284589D01*
X0050338Y0284685D01*
X0050466Y0284778D01*
X0050596Y0284868D01*
X0050729Y0284954D01*
X0050864Y0285038D01*
X0051000Y0285117D01*
X0051139Y0285194D01*
X0051280Y0285266D01*
X0051422Y0285336D01*
X0051566Y0285401D01*
X0051712Y0285463D01*
X0051859Y0285521D01*
X0052008Y0285576D01*
X0052158Y0285627D01*
X0052309Y0285674D01*
X0052461Y0285717D01*
X0052614Y0285756D01*
X0052769Y0285792D01*
X0052924Y0285823D01*
X0053080Y0285851D01*
X0053236Y0285875D01*
X0053393Y0285895D01*
X0053551Y0285911D01*
X0053708Y0285923D01*
X0053867Y0285931D01*
X0054025Y0285935D01*
X0054183Y0285935D01*
X0054341Y0285931D01*
X0054500Y0285923D01*
X0054657Y0285911D01*
X0054815Y0285895D01*
X0054972Y0285875D01*
X0055128Y0285851D01*
X0055284Y0285823D01*
X0055439Y0285792D01*
X0055594Y0285756D01*
X0055747Y0285717D01*
X0055899Y0285674D01*
X0056050Y0285627D01*
X0056200Y0285576D01*
X0056349Y0285521D01*
X0056496Y0285463D01*
X0056642Y0285401D01*
X0056786Y0285336D01*
X0056928Y0285266D01*
X0057069Y0285194D01*
X0057208Y0285117D01*
X0057344Y0285038D01*
X0057479Y0284954D01*
X0057612Y0284868D01*
X0057742Y0284778D01*
X0057870Y0284685D01*
X0057996Y0284589D01*
X0058119Y0284489D01*
X0058240Y0284387D01*
X0058358Y0284282D01*
X0058473Y0284173D01*
X0058586Y0284062D01*
X0058696Y0283948D01*
X0058803Y0283831D01*
X0058907Y0283712D01*
X0059008Y0283590D01*
X0059105Y0283465D01*
X0059200Y0283338D01*
X0059291Y0283209D01*
X0059380Y0283078D01*
X0059464Y0282944D01*
X0059546Y0282808D01*
X0059624Y0282671D01*
X0059698Y0282531D01*
X0059769Y0282389D01*
X0059837Y0282246D01*
X0059901Y0282101D01*
X0059961Y0281955D01*
X0060017Y0281807D01*
X0060070Y0281658D01*
X0060119Y0281507D01*
X0060164Y0281355D01*
X0060205Y0281202D01*
X0060243Y0281049D01*
X0060276Y0280894D01*
X0060306Y0280738D01*
X0060332Y0280582D01*
X0060353Y0280425D01*
X0060371Y0280268D01*
X0060385Y0280110D01*
X0060395Y0279952D01*
X0060401Y0279794D01*
X0060403Y0279636D01*
X0060401Y0279478D01*
X0060395Y0279320D01*
X0060385Y0279162D01*
X0060371Y0279004D01*
X0060353Y0278847D01*
X0060332Y0278690D01*
X0060306Y0278534D01*
X0060276Y0278378D01*
X0060243Y0278223D01*
X0060205Y0278070D01*
X0060164Y0277917D01*
X0060119Y0277765D01*
X0060070Y0277614D01*
X0060017Y0277465D01*
X0059961Y0277317D01*
X0059901Y0277171D01*
X0059837Y0277026D01*
X0059769Y0276883D01*
X0059698Y0276741D01*
X0059624Y0276601D01*
X0059546Y0276464D01*
X0059464Y0276328D01*
X0059380Y0276194D01*
X0059291Y0276063D01*
X0059200Y0275934D01*
X0059105Y0275807D01*
X0059008Y0275682D01*
X0058907Y0275560D01*
X0058803Y0275441D01*
X0058696Y0275324D01*
X0058586Y0275210D01*
X0058473Y0275099D01*
X0058358Y0274990D01*
X0058240Y0274885D01*
X0058119Y0274783D01*
X0057996Y0274683D01*
X0057870Y0274587D01*
X0057742Y0274494D01*
X0057612Y0274404D01*
X0057479Y0274318D01*
X0057344Y0274234D01*
X0057208Y0274155D01*
X0057069Y0274078D01*
X0056928Y0274006D01*
X0056786Y0273936D01*
X0056642Y0273871D01*
X0056496Y0273809D01*
X0056349Y0273751D01*
X0056200Y0273696D01*
X0056050Y0273645D01*
X0055899Y0273598D01*
X0055747Y0273555D01*
X0055594Y0273516D01*
X0055439Y0273480D01*
X0055284Y0273449D01*
X0055128Y0273421D01*
X0054972Y0273397D01*
X0054815Y0273377D01*
X0054657Y0273361D01*
X0054500Y0273349D01*
X0054341Y0273341D01*
X0054183Y0273337D01*
X0054025Y0273337D01*
X0053867Y0273341D01*
X0053708Y0273349D01*
X0053551Y0273361D01*
X0053393Y0273377D01*
X0053236Y0273397D01*
X0053080Y0273421D01*
X0052924Y0273449D01*
X0052769Y0273480D01*
X0052614Y0273516D01*
X0052461Y0273555D01*
X0052309Y0273598D01*
X0052158Y0273645D01*
X0052008Y0273696D01*
X0051859Y0273751D01*
X0051712Y0273809D01*
X0051566Y0273871D01*
X0051422Y0273936D01*
X0051280Y0274006D01*
X0051139Y0274078D01*
X0051000Y0274155D01*
X0050864Y0274234D01*
X0050729Y0274318D01*
X0050596Y0274404D01*
X0050466Y0274494D01*
X0050338Y0274587D01*
X0050212Y0274683D01*
X0050089Y0274783D01*
X0049968Y0274885D01*
X0049850Y0274990D01*
X0049735Y0275099D01*
X0049622Y0275210D01*
X0049512Y0275324D01*
X0049405Y0275441D01*
X0049301Y0275560D01*
X0049200Y0275682D01*
X0049103Y0275807D01*
X0049008Y0275934D01*
X0048917Y0276063D01*
X0048828Y0276194D01*
X0048744Y0276328D01*
X0048662Y0276464D01*
X0048584Y0276601D01*
X0048510Y0276741D01*
X0048439Y0276883D01*
X0048371Y0277026D01*
X0048307Y0277171D01*
X0048247Y0277317D01*
X0048191Y0277465D01*
X0048138Y0277614D01*
X0048089Y0277765D01*
X0048044Y0277917D01*
X0048003Y0278070D01*
X0047965Y0278223D01*
X0047932Y0278378D01*
X0047902Y0278534D01*
X0047876Y0278690D01*
X0047855Y0278847D01*
X0047837Y0279004D01*
X0047823Y0279162D01*
X0047813Y0279320D01*
X0047807Y0279478D01*
X0047805Y0279636D01*
X0336387Y0279636D02*
X0336389Y0279794D01*
X0336395Y0279952D01*
X0336405Y0280110D01*
X0336419Y0280268D01*
X0336437Y0280425D01*
X0336458Y0280582D01*
X0336484Y0280738D01*
X0336514Y0280894D01*
X0336547Y0281049D01*
X0336585Y0281202D01*
X0336626Y0281355D01*
X0336671Y0281507D01*
X0336720Y0281658D01*
X0336773Y0281807D01*
X0336829Y0281955D01*
X0336889Y0282101D01*
X0336953Y0282246D01*
X0337021Y0282389D01*
X0337092Y0282531D01*
X0337166Y0282671D01*
X0337244Y0282808D01*
X0337326Y0282944D01*
X0337410Y0283078D01*
X0337499Y0283209D01*
X0337590Y0283338D01*
X0337685Y0283465D01*
X0337782Y0283590D01*
X0337883Y0283712D01*
X0337987Y0283831D01*
X0338094Y0283948D01*
X0338204Y0284062D01*
X0338317Y0284173D01*
X0338432Y0284282D01*
X0338550Y0284387D01*
X0338671Y0284489D01*
X0338794Y0284589D01*
X0338920Y0284685D01*
X0339048Y0284778D01*
X0339178Y0284868D01*
X0339311Y0284954D01*
X0339446Y0285038D01*
X0339582Y0285117D01*
X0339721Y0285194D01*
X0339862Y0285266D01*
X0340004Y0285336D01*
X0340148Y0285401D01*
X0340294Y0285463D01*
X0340441Y0285521D01*
X0340590Y0285576D01*
X0340740Y0285627D01*
X0340891Y0285674D01*
X0341043Y0285717D01*
X0341196Y0285756D01*
X0341351Y0285792D01*
X0341506Y0285823D01*
X0341662Y0285851D01*
X0341818Y0285875D01*
X0341975Y0285895D01*
X0342133Y0285911D01*
X0342290Y0285923D01*
X0342449Y0285931D01*
X0342607Y0285935D01*
X0342765Y0285935D01*
X0342923Y0285931D01*
X0343082Y0285923D01*
X0343239Y0285911D01*
X0343397Y0285895D01*
X0343554Y0285875D01*
X0343710Y0285851D01*
X0343866Y0285823D01*
X0344021Y0285792D01*
X0344176Y0285756D01*
X0344329Y0285717D01*
X0344481Y0285674D01*
X0344632Y0285627D01*
X0344782Y0285576D01*
X0344931Y0285521D01*
X0345078Y0285463D01*
X0345224Y0285401D01*
X0345368Y0285336D01*
X0345510Y0285266D01*
X0345651Y0285194D01*
X0345790Y0285117D01*
X0345926Y0285038D01*
X0346061Y0284954D01*
X0346194Y0284868D01*
X0346324Y0284778D01*
X0346452Y0284685D01*
X0346578Y0284589D01*
X0346701Y0284489D01*
X0346822Y0284387D01*
X0346940Y0284282D01*
X0347055Y0284173D01*
X0347168Y0284062D01*
X0347278Y0283948D01*
X0347385Y0283831D01*
X0347489Y0283712D01*
X0347590Y0283590D01*
X0347687Y0283465D01*
X0347782Y0283338D01*
X0347873Y0283209D01*
X0347962Y0283078D01*
X0348046Y0282944D01*
X0348128Y0282808D01*
X0348206Y0282671D01*
X0348280Y0282531D01*
X0348351Y0282389D01*
X0348419Y0282246D01*
X0348483Y0282101D01*
X0348543Y0281955D01*
X0348599Y0281807D01*
X0348652Y0281658D01*
X0348701Y0281507D01*
X0348746Y0281355D01*
X0348787Y0281202D01*
X0348825Y0281049D01*
X0348858Y0280894D01*
X0348888Y0280738D01*
X0348914Y0280582D01*
X0348935Y0280425D01*
X0348953Y0280268D01*
X0348967Y0280110D01*
X0348977Y0279952D01*
X0348983Y0279794D01*
X0348985Y0279636D01*
X0348983Y0279478D01*
X0348977Y0279320D01*
X0348967Y0279162D01*
X0348953Y0279004D01*
X0348935Y0278847D01*
X0348914Y0278690D01*
X0348888Y0278534D01*
X0348858Y0278378D01*
X0348825Y0278223D01*
X0348787Y0278070D01*
X0348746Y0277917D01*
X0348701Y0277765D01*
X0348652Y0277614D01*
X0348599Y0277465D01*
X0348543Y0277317D01*
X0348483Y0277171D01*
X0348419Y0277026D01*
X0348351Y0276883D01*
X0348280Y0276741D01*
X0348206Y0276601D01*
X0348128Y0276464D01*
X0348046Y0276328D01*
X0347962Y0276194D01*
X0347873Y0276063D01*
X0347782Y0275934D01*
X0347687Y0275807D01*
X0347590Y0275682D01*
X0347489Y0275560D01*
X0347385Y0275441D01*
X0347278Y0275324D01*
X0347168Y0275210D01*
X0347055Y0275099D01*
X0346940Y0274990D01*
X0346822Y0274885D01*
X0346701Y0274783D01*
X0346578Y0274683D01*
X0346452Y0274587D01*
X0346324Y0274494D01*
X0346194Y0274404D01*
X0346061Y0274318D01*
X0345926Y0274234D01*
X0345790Y0274155D01*
X0345651Y0274078D01*
X0345510Y0274006D01*
X0345368Y0273936D01*
X0345224Y0273871D01*
X0345078Y0273809D01*
X0344931Y0273751D01*
X0344782Y0273696D01*
X0344632Y0273645D01*
X0344481Y0273598D01*
X0344329Y0273555D01*
X0344176Y0273516D01*
X0344021Y0273480D01*
X0343866Y0273449D01*
X0343710Y0273421D01*
X0343554Y0273397D01*
X0343397Y0273377D01*
X0343239Y0273361D01*
X0343082Y0273349D01*
X0342923Y0273341D01*
X0342765Y0273337D01*
X0342607Y0273337D01*
X0342449Y0273341D01*
X0342290Y0273349D01*
X0342133Y0273361D01*
X0341975Y0273377D01*
X0341818Y0273397D01*
X0341662Y0273421D01*
X0341506Y0273449D01*
X0341351Y0273480D01*
X0341196Y0273516D01*
X0341043Y0273555D01*
X0340891Y0273598D01*
X0340740Y0273645D01*
X0340590Y0273696D01*
X0340441Y0273751D01*
X0340294Y0273809D01*
X0340148Y0273871D01*
X0340004Y0273936D01*
X0339862Y0274006D01*
X0339721Y0274078D01*
X0339582Y0274155D01*
X0339446Y0274234D01*
X0339311Y0274318D01*
X0339178Y0274404D01*
X0339048Y0274494D01*
X0338920Y0274587D01*
X0338794Y0274683D01*
X0338671Y0274783D01*
X0338550Y0274885D01*
X0338432Y0274990D01*
X0338317Y0275099D01*
X0338204Y0275210D01*
X0338094Y0275324D01*
X0337987Y0275441D01*
X0337883Y0275560D01*
X0337782Y0275682D01*
X0337685Y0275807D01*
X0337590Y0275934D01*
X0337499Y0276063D01*
X0337410Y0276194D01*
X0337326Y0276328D01*
X0337244Y0276464D01*
X0337166Y0276601D01*
X0337092Y0276741D01*
X0337021Y0276883D01*
X0336953Y0277026D01*
X0336889Y0277171D01*
X0336829Y0277317D01*
X0336773Y0277465D01*
X0336720Y0277614D01*
X0336671Y0277765D01*
X0336626Y0277917D01*
X0336585Y0278070D01*
X0336547Y0278223D01*
X0336514Y0278378D01*
X0336484Y0278534D01*
X0336458Y0278690D01*
X0336437Y0278847D01*
X0336419Y0279004D01*
X0336405Y0279162D01*
X0336395Y0279320D01*
X0336389Y0279478D01*
X0336387Y0279636D01*
X0336387Y0055620D02*
X0336389Y0055778D01*
X0336395Y0055936D01*
X0336405Y0056094D01*
X0336419Y0056252D01*
X0336437Y0056409D01*
X0336458Y0056566D01*
X0336484Y0056722D01*
X0336514Y0056878D01*
X0336547Y0057033D01*
X0336585Y0057186D01*
X0336626Y0057339D01*
X0336671Y0057491D01*
X0336720Y0057642D01*
X0336773Y0057791D01*
X0336829Y0057939D01*
X0336889Y0058085D01*
X0336953Y0058230D01*
X0337021Y0058373D01*
X0337092Y0058515D01*
X0337166Y0058655D01*
X0337244Y0058792D01*
X0337326Y0058928D01*
X0337410Y0059062D01*
X0337499Y0059193D01*
X0337590Y0059322D01*
X0337685Y0059449D01*
X0337782Y0059574D01*
X0337883Y0059696D01*
X0337987Y0059815D01*
X0338094Y0059932D01*
X0338204Y0060046D01*
X0338317Y0060157D01*
X0338432Y0060266D01*
X0338550Y0060371D01*
X0338671Y0060473D01*
X0338794Y0060573D01*
X0338920Y0060669D01*
X0339048Y0060762D01*
X0339178Y0060852D01*
X0339311Y0060938D01*
X0339446Y0061022D01*
X0339582Y0061101D01*
X0339721Y0061178D01*
X0339862Y0061250D01*
X0340004Y0061320D01*
X0340148Y0061385D01*
X0340294Y0061447D01*
X0340441Y0061505D01*
X0340590Y0061560D01*
X0340740Y0061611D01*
X0340891Y0061658D01*
X0341043Y0061701D01*
X0341196Y0061740D01*
X0341351Y0061776D01*
X0341506Y0061807D01*
X0341662Y0061835D01*
X0341818Y0061859D01*
X0341975Y0061879D01*
X0342133Y0061895D01*
X0342290Y0061907D01*
X0342449Y0061915D01*
X0342607Y0061919D01*
X0342765Y0061919D01*
X0342923Y0061915D01*
X0343082Y0061907D01*
X0343239Y0061895D01*
X0343397Y0061879D01*
X0343554Y0061859D01*
X0343710Y0061835D01*
X0343866Y0061807D01*
X0344021Y0061776D01*
X0344176Y0061740D01*
X0344329Y0061701D01*
X0344481Y0061658D01*
X0344632Y0061611D01*
X0344782Y0061560D01*
X0344931Y0061505D01*
X0345078Y0061447D01*
X0345224Y0061385D01*
X0345368Y0061320D01*
X0345510Y0061250D01*
X0345651Y0061178D01*
X0345790Y0061101D01*
X0345926Y0061022D01*
X0346061Y0060938D01*
X0346194Y0060852D01*
X0346324Y0060762D01*
X0346452Y0060669D01*
X0346578Y0060573D01*
X0346701Y0060473D01*
X0346822Y0060371D01*
X0346940Y0060266D01*
X0347055Y0060157D01*
X0347168Y0060046D01*
X0347278Y0059932D01*
X0347385Y0059815D01*
X0347489Y0059696D01*
X0347590Y0059574D01*
X0347687Y0059449D01*
X0347782Y0059322D01*
X0347873Y0059193D01*
X0347962Y0059062D01*
X0348046Y0058928D01*
X0348128Y0058792D01*
X0348206Y0058655D01*
X0348280Y0058515D01*
X0348351Y0058373D01*
X0348419Y0058230D01*
X0348483Y0058085D01*
X0348543Y0057939D01*
X0348599Y0057791D01*
X0348652Y0057642D01*
X0348701Y0057491D01*
X0348746Y0057339D01*
X0348787Y0057186D01*
X0348825Y0057033D01*
X0348858Y0056878D01*
X0348888Y0056722D01*
X0348914Y0056566D01*
X0348935Y0056409D01*
X0348953Y0056252D01*
X0348967Y0056094D01*
X0348977Y0055936D01*
X0348983Y0055778D01*
X0348985Y0055620D01*
X0348983Y0055462D01*
X0348977Y0055304D01*
X0348967Y0055146D01*
X0348953Y0054988D01*
X0348935Y0054831D01*
X0348914Y0054674D01*
X0348888Y0054518D01*
X0348858Y0054362D01*
X0348825Y0054207D01*
X0348787Y0054054D01*
X0348746Y0053901D01*
X0348701Y0053749D01*
X0348652Y0053598D01*
X0348599Y0053449D01*
X0348543Y0053301D01*
X0348483Y0053155D01*
X0348419Y0053010D01*
X0348351Y0052867D01*
X0348280Y0052725D01*
X0348206Y0052585D01*
X0348128Y0052448D01*
X0348046Y0052312D01*
X0347962Y0052178D01*
X0347873Y0052047D01*
X0347782Y0051918D01*
X0347687Y0051791D01*
X0347590Y0051666D01*
X0347489Y0051544D01*
X0347385Y0051425D01*
X0347278Y0051308D01*
X0347168Y0051194D01*
X0347055Y0051083D01*
X0346940Y0050974D01*
X0346822Y0050869D01*
X0346701Y0050767D01*
X0346578Y0050667D01*
X0346452Y0050571D01*
X0346324Y0050478D01*
X0346194Y0050388D01*
X0346061Y0050302D01*
X0345926Y0050218D01*
X0345790Y0050139D01*
X0345651Y0050062D01*
X0345510Y0049990D01*
X0345368Y0049920D01*
X0345224Y0049855D01*
X0345078Y0049793D01*
X0344931Y0049735D01*
X0344782Y0049680D01*
X0344632Y0049629D01*
X0344481Y0049582D01*
X0344329Y0049539D01*
X0344176Y0049500D01*
X0344021Y0049464D01*
X0343866Y0049433D01*
X0343710Y0049405D01*
X0343554Y0049381D01*
X0343397Y0049361D01*
X0343239Y0049345D01*
X0343082Y0049333D01*
X0342923Y0049325D01*
X0342765Y0049321D01*
X0342607Y0049321D01*
X0342449Y0049325D01*
X0342290Y0049333D01*
X0342133Y0049345D01*
X0341975Y0049361D01*
X0341818Y0049381D01*
X0341662Y0049405D01*
X0341506Y0049433D01*
X0341351Y0049464D01*
X0341196Y0049500D01*
X0341043Y0049539D01*
X0340891Y0049582D01*
X0340740Y0049629D01*
X0340590Y0049680D01*
X0340441Y0049735D01*
X0340294Y0049793D01*
X0340148Y0049855D01*
X0340004Y0049920D01*
X0339862Y0049990D01*
X0339721Y0050062D01*
X0339582Y0050139D01*
X0339446Y0050218D01*
X0339311Y0050302D01*
X0339178Y0050388D01*
X0339048Y0050478D01*
X0338920Y0050571D01*
X0338794Y0050667D01*
X0338671Y0050767D01*
X0338550Y0050869D01*
X0338432Y0050974D01*
X0338317Y0051083D01*
X0338204Y0051194D01*
X0338094Y0051308D01*
X0337987Y0051425D01*
X0337883Y0051544D01*
X0337782Y0051666D01*
X0337685Y0051791D01*
X0337590Y0051918D01*
X0337499Y0052047D01*
X0337410Y0052178D01*
X0337326Y0052312D01*
X0337244Y0052448D01*
X0337166Y0052585D01*
X0337092Y0052725D01*
X0337021Y0052867D01*
X0336953Y0053010D01*
X0336889Y0053155D01*
X0336829Y0053301D01*
X0336773Y0053449D01*
X0336720Y0053598D01*
X0336671Y0053749D01*
X0336626Y0053901D01*
X0336585Y0054054D01*
X0336547Y0054207D01*
X0336514Y0054362D01*
X0336484Y0054518D01*
X0336458Y0054674D01*
X0336437Y0054831D01*
X0336419Y0054988D01*
X0336405Y0055146D01*
X0336395Y0055304D01*
X0336389Y0055462D01*
X0336387Y0055620D01*
D11*
X0348789Y0152077D03*
D12*
X0228907Y0051880D03*
D13*
X0229891Y0036723D03*
X0229891Y0030030D03*
X0221230Y0030030D03*
X0221230Y0036723D03*
X0199379Y0030030D03*
X0199379Y0023337D03*
X0184222Y0030030D03*
X0184222Y0036723D03*
X0168867Y0099321D03*
X0168867Y0106014D03*
X0141308Y0106014D03*
X0135403Y0106014D03*
X0135403Y0099321D03*
X0141308Y0099321D03*
X0107844Y0099321D03*
X0107844Y0106014D03*
X0224970Y0103258D03*
X0224970Y0109951D03*
X0250560Y0108179D03*
X0250560Y0114872D03*
X0263356Y0101093D03*
X0263356Y0094400D03*
X0288946Y0105226D03*
X0288946Y0111919D03*
X0326608Y0161809D03*
X0326608Y0168502D03*
X0334608Y0168502D03*
X0334608Y0161809D03*
X0323198Y0185148D03*
X0316505Y0185148D03*
D14*
X0310993Y0185148D03*
X0304301Y0185148D03*
X0316505Y0193022D03*
X0323198Y0193022D03*
X0334812Y0183770D03*
X0341505Y0183770D03*
X0191899Y0049518D03*
X0185206Y0049518D03*
X0192489Y0036723D03*
X0192489Y0030030D03*
D15*
X0175560Y0028258D03*
X0175560Y0039282D03*
X0238159Y0037707D03*
X0238159Y0026683D03*
D16*
X0221230Y0048632D02*
X0218868Y0048632D01*
X0221230Y0048632D02*
X0221230Y0048042D01*
X0218868Y0048042D01*
X0218868Y0048632D01*
X0221230Y0048632D01*
X0221230Y0051191D02*
X0218868Y0051191D01*
X0221230Y0051191D02*
X0221230Y0050601D01*
X0218868Y0050601D01*
X0218868Y0051191D01*
X0221230Y0051191D01*
X0221230Y0053750D02*
X0218868Y0053750D01*
X0221230Y0053750D02*
X0221230Y0053160D01*
X0218868Y0053160D01*
X0218868Y0053750D01*
X0221230Y0053750D01*
X0221230Y0056309D02*
X0218868Y0056309D01*
X0221230Y0056309D02*
X0221230Y0055719D01*
X0218868Y0055719D01*
X0218868Y0056309D01*
X0221230Y0056309D01*
X0221230Y0058868D02*
X0218868Y0058868D01*
X0221230Y0058868D02*
X0221230Y0058278D01*
X0218868Y0058278D01*
X0218868Y0058868D01*
X0221230Y0058868D01*
X0215619Y0064478D02*
X0215029Y0064478D01*
X0215619Y0064478D02*
X0215619Y0062116D01*
X0215029Y0062116D01*
X0215029Y0064478D01*
X0215029Y0062706D02*
X0215619Y0062706D01*
X0215619Y0063296D02*
X0215029Y0063296D01*
X0215029Y0063886D02*
X0215619Y0063886D01*
X0215619Y0064476D02*
X0215029Y0064476D01*
X0213060Y0064478D02*
X0212470Y0064478D01*
X0213060Y0064478D02*
X0213060Y0062116D01*
X0212470Y0062116D01*
X0212470Y0064478D01*
X0212470Y0062706D02*
X0213060Y0062706D01*
X0213060Y0063296D02*
X0212470Y0063296D01*
X0212470Y0063886D02*
X0213060Y0063886D01*
X0213060Y0064476D02*
X0212470Y0064476D01*
X0210501Y0064478D02*
X0209911Y0064478D01*
X0210501Y0064478D02*
X0210501Y0062116D01*
X0209911Y0062116D01*
X0209911Y0064478D01*
X0209911Y0062706D02*
X0210501Y0062706D01*
X0210501Y0063296D02*
X0209911Y0063296D01*
X0209911Y0063886D02*
X0210501Y0063886D01*
X0210501Y0064476D02*
X0209911Y0064476D01*
X0207942Y0064478D02*
X0207352Y0064478D01*
X0207942Y0064478D02*
X0207942Y0062116D01*
X0207352Y0062116D01*
X0207352Y0064478D01*
X0207352Y0062706D02*
X0207942Y0062706D01*
X0207942Y0063296D02*
X0207352Y0063296D01*
X0207352Y0063886D02*
X0207942Y0063886D01*
X0207942Y0064476D02*
X0207352Y0064476D01*
X0205383Y0064478D02*
X0204793Y0064478D01*
X0205383Y0064478D02*
X0205383Y0062116D01*
X0204793Y0062116D01*
X0204793Y0064478D01*
X0204793Y0062706D02*
X0205383Y0062706D01*
X0205383Y0063296D02*
X0204793Y0063296D01*
X0204793Y0063886D02*
X0205383Y0063886D01*
X0205383Y0064476D02*
X0204793Y0064476D01*
X0201545Y0058868D02*
X0199183Y0058868D01*
X0201545Y0058868D02*
X0201545Y0058278D01*
X0199183Y0058278D01*
X0199183Y0058868D01*
X0201545Y0058868D01*
X0201545Y0056309D02*
X0199183Y0056309D01*
X0201545Y0056309D02*
X0201545Y0055719D01*
X0199183Y0055719D01*
X0199183Y0056309D01*
X0201545Y0056309D01*
X0201545Y0053750D02*
X0199183Y0053750D01*
X0201545Y0053750D02*
X0201545Y0053160D01*
X0199183Y0053160D01*
X0199183Y0053750D01*
X0201545Y0053750D01*
X0201545Y0051191D02*
X0199183Y0051191D01*
X0201545Y0051191D02*
X0201545Y0050601D01*
X0199183Y0050601D01*
X0199183Y0051191D01*
X0201545Y0051191D01*
X0201545Y0048632D02*
X0199183Y0048632D01*
X0201545Y0048632D02*
X0201545Y0048042D01*
X0199183Y0048042D01*
X0199183Y0048632D01*
X0201545Y0048632D01*
X0204793Y0044793D02*
X0205383Y0044793D01*
X0205383Y0042431D01*
X0204793Y0042431D01*
X0204793Y0044793D01*
X0204793Y0043021D02*
X0205383Y0043021D01*
X0205383Y0043611D02*
X0204793Y0043611D01*
X0204793Y0044201D02*
X0205383Y0044201D01*
X0205383Y0044791D02*
X0204793Y0044791D01*
X0207352Y0044793D02*
X0207942Y0044793D01*
X0207942Y0042431D01*
X0207352Y0042431D01*
X0207352Y0044793D01*
X0207352Y0043021D02*
X0207942Y0043021D01*
X0207942Y0043611D02*
X0207352Y0043611D01*
X0207352Y0044201D02*
X0207942Y0044201D01*
X0207942Y0044791D02*
X0207352Y0044791D01*
X0209911Y0044793D02*
X0210501Y0044793D01*
X0210501Y0042431D01*
X0209911Y0042431D01*
X0209911Y0044793D01*
X0209911Y0043021D02*
X0210501Y0043021D01*
X0210501Y0043611D02*
X0209911Y0043611D01*
X0209911Y0044201D02*
X0210501Y0044201D01*
X0210501Y0044791D02*
X0209911Y0044791D01*
X0212470Y0044793D02*
X0213060Y0044793D01*
X0213060Y0042431D01*
X0212470Y0042431D01*
X0212470Y0044793D01*
X0212470Y0043021D02*
X0213060Y0043021D01*
X0213060Y0043611D02*
X0212470Y0043611D01*
X0212470Y0044201D02*
X0213060Y0044201D01*
X0213060Y0044791D02*
X0212470Y0044791D01*
X0215029Y0044793D02*
X0215619Y0044793D01*
X0215619Y0042431D01*
X0215029Y0042431D01*
X0215029Y0044793D01*
X0215029Y0043021D02*
X0215619Y0043021D01*
X0215619Y0043611D02*
X0215029Y0043611D01*
X0215029Y0044201D02*
X0215619Y0044201D01*
X0215619Y0044791D02*
X0215029Y0044791D01*
X0345540Y0156801D02*
X0345540Y0159163D01*
X0345540Y0156801D02*
X0344950Y0156801D01*
X0344950Y0159163D01*
X0345540Y0159163D01*
X0345540Y0157391D02*
X0344950Y0157391D01*
X0344950Y0157981D02*
X0345540Y0157981D01*
X0345540Y0158571D02*
X0344950Y0158571D01*
X0344950Y0159161D02*
X0345540Y0159161D01*
X0348099Y0159163D02*
X0348099Y0156801D01*
X0347509Y0156801D01*
X0347509Y0159163D01*
X0348099Y0159163D01*
X0348099Y0157391D02*
X0347509Y0157391D01*
X0347509Y0157981D02*
X0348099Y0157981D01*
X0348099Y0158571D02*
X0347509Y0158571D01*
X0347509Y0159161D02*
X0348099Y0159161D01*
X0350659Y0159163D02*
X0350659Y0156801D01*
X0350069Y0156801D01*
X0350069Y0159163D01*
X0350659Y0159163D01*
X0350659Y0157391D02*
X0350069Y0157391D01*
X0350069Y0157981D02*
X0350659Y0157981D01*
X0350659Y0158571D02*
X0350069Y0158571D01*
X0350069Y0159161D02*
X0350659Y0159161D01*
X0353218Y0159163D02*
X0353218Y0156801D01*
X0352628Y0156801D01*
X0352628Y0159163D01*
X0353218Y0159163D01*
X0353218Y0157391D02*
X0352628Y0157391D01*
X0352628Y0157981D02*
X0353218Y0157981D01*
X0353218Y0158571D02*
X0352628Y0158571D01*
X0352628Y0159161D02*
X0353218Y0159161D01*
X0355777Y0159163D02*
X0355777Y0156801D01*
X0355187Y0156801D01*
X0355187Y0159163D01*
X0355777Y0159163D01*
X0355777Y0157391D02*
X0355187Y0157391D01*
X0355187Y0157981D02*
X0355777Y0157981D01*
X0355777Y0158571D02*
X0355187Y0158571D01*
X0355187Y0159161D02*
X0355777Y0159161D01*
X0361387Y0162412D02*
X0361387Y0163002D01*
X0361387Y0162412D02*
X0359025Y0162412D01*
X0359025Y0163002D01*
X0361387Y0163002D01*
X0359025Y0163002D01*
X0361387Y0164971D02*
X0361387Y0165561D01*
X0361387Y0164971D02*
X0359025Y0164971D01*
X0359025Y0165561D01*
X0361387Y0165561D01*
X0359025Y0165561D01*
X0361387Y0167530D02*
X0361387Y0168120D01*
X0361387Y0167530D02*
X0359025Y0167530D01*
X0359025Y0168120D01*
X0361387Y0168120D01*
X0359025Y0168120D01*
X0361387Y0170089D02*
X0361387Y0170679D01*
X0361387Y0170089D02*
X0359025Y0170089D01*
X0359025Y0170679D01*
X0361387Y0170679D01*
X0359025Y0170679D01*
X0361387Y0172648D02*
X0361387Y0173238D01*
X0361387Y0172648D02*
X0359025Y0172648D01*
X0359025Y0173238D01*
X0361387Y0173238D01*
X0359025Y0173238D01*
X0355777Y0176486D02*
X0355777Y0178848D01*
X0355777Y0176486D02*
X0355187Y0176486D01*
X0355187Y0178848D01*
X0355777Y0178848D01*
X0355777Y0177076D02*
X0355187Y0177076D01*
X0355187Y0177666D02*
X0355777Y0177666D01*
X0355777Y0178256D02*
X0355187Y0178256D01*
X0355187Y0178846D02*
X0355777Y0178846D01*
X0353218Y0178848D02*
X0353218Y0176486D01*
X0352628Y0176486D01*
X0352628Y0178848D01*
X0353218Y0178848D01*
X0353218Y0177076D02*
X0352628Y0177076D01*
X0352628Y0177666D02*
X0353218Y0177666D01*
X0353218Y0178256D02*
X0352628Y0178256D01*
X0352628Y0178846D02*
X0353218Y0178846D01*
X0350659Y0178848D02*
X0350659Y0176486D01*
X0350069Y0176486D01*
X0350069Y0178848D01*
X0350659Y0178848D01*
X0350659Y0177076D02*
X0350069Y0177076D01*
X0350069Y0177666D02*
X0350659Y0177666D01*
X0350659Y0178256D02*
X0350069Y0178256D01*
X0350069Y0178846D02*
X0350659Y0178846D01*
X0348099Y0178848D02*
X0348099Y0176486D01*
X0347509Y0176486D01*
X0347509Y0178848D01*
X0348099Y0178848D01*
X0348099Y0177076D02*
X0347509Y0177076D01*
X0347509Y0177666D02*
X0348099Y0177666D01*
X0348099Y0178256D02*
X0347509Y0178256D01*
X0347509Y0178846D02*
X0348099Y0178846D01*
X0345540Y0178848D02*
X0345540Y0176486D01*
X0344950Y0176486D01*
X0344950Y0178848D01*
X0345540Y0178848D01*
X0345540Y0177076D02*
X0344950Y0177076D01*
X0344950Y0177666D02*
X0345540Y0177666D01*
X0345540Y0178256D02*
X0344950Y0178256D01*
X0344950Y0178846D02*
X0345540Y0178846D01*
X0341702Y0173238D02*
X0341702Y0172648D01*
X0339340Y0172648D01*
X0339340Y0173238D01*
X0341702Y0173238D01*
X0339340Y0173238D01*
X0341702Y0170679D02*
X0341702Y0170089D01*
X0339340Y0170089D01*
X0339340Y0170679D01*
X0341702Y0170679D01*
X0339340Y0170679D01*
X0341702Y0168120D02*
X0341702Y0167530D01*
X0339340Y0167530D01*
X0339340Y0168120D01*
X0341702Y0168120D01*
X0339340Y0168120D01*
X0341702Y0165561D02*
X0341702Y0164971D01*
X0339340Y0164971D01*
X0339340Y0165561D01*
X0341702Y0165561D01*
X0339340Y0165561D01*
X0341702Y0163002D02*
X0341702Y0162412D01*
X0339340Y0162412D01*
X0339340Y0163002D01*
X0341702Y0163002D01*
X0339340Y0163002D01*
D17*
X0291702Y0094447D03*
X0291702Y0088447D03*
X0243671Y0082045D03*
X0243671Y0076045D03*
X0233828Y0076045D03*
X0233828Y0082045D03*
X0223986Y0082045D03*
X0223986Y0076045D03*
X0214143Y0076045D03*
X0214143Y0082045D03*
X0204301Y0082045D03*
X0204301Y0076045D03*
X0194458Y0076045D03*
X0194458Y0082045D03*
X0184615Y0082045D03*
X0184615Y0076045D03*
X0174773Y0076045D03*
X0174773Y0082045D03*
D18*
X0207206Y0035738D03*
X0213206Y0035738D03*
X0378466Y0115660D03*
X0384466Y0115660D03*
X0384466Y0124518D03*
X0378466Y0124518D03*
X0378466Y0133376D03*
X0384466Y0133376D03*
X0384466Y0142234D03*
X0378466Y0142234D03*
X0378466Y0151093D03*
X0384466Y0151093D03*
X0384466Y0159951D03*
X0378466Y0159951D03*
X0378466Y0168809D03*
X0384466Y0168809D03*
X0384466Y0177667D03*
X0378466Y0177667D03*
D19*
X0324119Y0154549D03*
X0313096Y0154549D03*
X0311190Y0200896D03*
X0322214Y0200896D03*
D20*
X0313749Y0220384D03*
X0313749Y0233770D03*
X0281072Y0110345D03*
X0271230Y0110345D03*
X0271230Y0096959D03*
X0281072Y0096959D03*
X0242686Y0099912D03*
X0232844Y0099912D03*
X0232844Y0113297D03*
X0242686Y0113297D03*
X0160993Y0109360D03*
X0149182Y0109360D03*
X0149182Y0095975D03*
X0160993Y0095975D03*
X0127529Y0095975D03*
X0115718Y0095975D03*
X0115718Y0109360D03*
X0127529Y0109360D03*
D21*
X0248592Y0037510D03*
X0248592Y0026486D03*
D22*
X0313096Y0144549D03*
X0324119Y0144549D03*
M02*
