G75*
%MOIN*%
%OFA0B0*%
%FSLAX25Y25*%
%IPPOS*%
%LPD*%
%AMOC8*
5,1,8,0,0,1.08239X$1,22.5*
%
%ADD10C,0.00000*%
%ADD11C,0.15000*%
%ADD12C,0.06000*%
%ADD13OC8,0.08600*%
%ADD14OC8,0.12400*%
%ADD15C,0.12400*%
%ADD16R,0.03937X0.04331*%
%ADD17R,0.04331X0.03937*%
%ADD18R,0.07087X0.06299*%
%ADD19C,0.07874*%
%ADD20OC8,0.06000*%
%ADD21C,0.04724*%
%ADD22C,0.00591*%
%ADD23C,0.00500*%
%ADD24R,0.06300X0.04600*%
%ADD25R,0.04600X0.06300*%
%ADD26R,0.06299X0.07087*%
%ADD27R,0.03150X0.06299*%
%ADD28OC8,0.04800*%
%ADD29R,0.10630X0.06299*%
%ADD30R,0.06299X0.10630*%
%ADD31C,0.03740*%
%ADD32C,0.03937*%
%ADD33C,0.02756*%
%ADD34OC8,0.05906*%
%ADD35C,0.04000*%
%ADD36C,0.01600*%
%ADD37C,0.05000*%
%ADD38C,0.01200*%
%ADD39OC8,0.03150*%
%ADD40C,0.01181*%
%ADD41R,0.03150X0.03150*%
%ADD42OC8,0.03200*%
%ADD43C,0.03200*%
D10*
X0022017Y0016053D02*
X0022017Y0034163D01*
X0022014Y0034448D01*
X0022003Y0034734D01*
X0021986Y0035019D01*
X0021962Y0035303D01*
X0021931Y0035587D01*
X0021893Y0035870D01*
X0021848Y0036151D01*
X0021797Y0036432D01*
X0021739Y0036712D01*
X0021674Y0036990D01*
X0021602Y0037266D01*
X0021524Y0037540D01*
X0021439Y0037813D01*
X0021347Y0038083D01*
X0021249Y0038351D01*
X0021145Y0038617D01*
X0021034Y0038880D01*
X0020917Y0039140D01*
X0020794Y0039398D01*
X0020664Y0039652D01*
X0020528Y0039903D01*
X0020387Y0040151D01*
X0020239Y0040395D01*
X0020086Y0040636D01*
X0019926Y0040872D01*
X0019761Y0041105D01*
X0019591Y0041334D01*
X0019415Y0041559D01*
X0019233Y0041779D01*
X0019047Y0041995D01*
X0018855Y0042206D01*
X0018658Y0042413D01*
X0018456Y0042615D01*
X0018249Y0042812D01*
X0018038Y0043004D01*
X0017822Y0043190D01*
X0017602Y0043372D01*
X0017377Y0043548D01*
X0017148Y0043718D01*
X0016915Y0043883D01*
X0016679Y0044043D01*
X0016438Y0044196D01*
X0016194Y0044344D01*
X0015946Y0044485D01*
X0015695Y0044621D01*
X0015441Y0044751D01*
X0015183Y0044874D01*
X0014923Y0044991D01*
X0014660Y0045102D01*
X0014394Y0045206D01*
X0014126Y0045304D01*
X0013856Y0045396D01*
X0013583Y0045481D01*
X0013309Y0045559D01*
X0013033Y0045631D01*
X0012755Y0045696D01*
X0012475Y0045754D01*
X0012194Y0045805D01*
X0011913Y0045850D01*
X0011630Y0045888D01*
X0011346Y0045919D01*
X0011062Y0045943D01*
X0010777Y0045960D01*
X0010491Y0045971D01*
X0010206Y0045974D01*
X0010206Y0045975D02*
X0001545Y0045975D01*
X0001545Y0289282D01*
X0010206Y0289282D01*
X0010491Y0289285D01*
X0010777Y0289296D01*
X0011062Y0289313D01*
X0011346Y0289337D01*
X0011630Y0289368D01*
X0011913Y0289406D01*
X0012194Y0289451D01*
X0012475Y0289502D01*
X0012755Y0289560D01*
X0013033Y0289625D01*
X0013309Y0289697D01*
X0013583Y0289775D01*
X0013856Y0289860D01*
X0014126Y0289952D01*
X0014394Y0290050D01*
X0014660Y0290154D01*
X0014923Y0290265D01*
X0015183Y0290382D01*
X0015441Y0290505D01*
X0015695Y0290635D01*
X0015946Y0290771D01*
X0016194Y0290912D01*
X0016438Y0291060D01*
X0016679Y0291213D01*
X0016915Y0291373D01*
X0017148Y0291538D01*
X0017377Y0291708D01*
X0017602Y0291884D01*
X0017822Y0292066D01*
X0018038Y0292252D01*
X0018249Y0292444D01*
X0018456Y0292641D01*
X0018658Y0292843D01*
X0018855Y0293050D01*
X0019047Y0293261D01*
X0019233Y0293477D01*
X0019415Y0293697D01*
X0019591Y0293922D01*
X0019761Y0294151D01*
X0019926Y0294384D01*
X0020086Y0294620D01*
X0020239Y0294861D01*
X0020387Y0295105D01*
X0020528Y0295353D01*
X0020664Y0295604D01*
X0020794Y0295858D01*
X0020917Y0296116D01*
X0021034Y0296376D01*
X0021145Y0296639D01*
X0021249Y0296905D01*
X0021347Y0297173D01*
X0021439Y0297443D01*
X0021524Y0297716D01*
X0021602Y0297990D01*
X0021674Y0298266D01*
X0021739Y0298544D01*
X0021797Y0298824D01*
X0021848Y0299105D01*
X0021893Y0299386D01*
X0021931Y0299669D01*
X0021962Y0299953D01*
X0021986Y0300237D01*
X0022003Y0300522D01*
X0022014Y0300808D01*
X0022017Y0301093D01*
X0022017Y0319203D01*
X0374773Y0319203D01*
X0374773Y0301093D01*
X0374776Y0300808D01*
X0374787Y0300522D01*
X0374804Y0300237D01*
X0374828Y0299953D01*
X0374859Y0299669D01*
X0374897Y0299386D01*
X0374942Y0299105D01*
X0374993Y0298824D01*
X0375051Y0298544D01*
X0375116Y0298266D01*
X0375188Y0297990D01*
X0375266Y0297716D01*
X0375351Y0297443D01*
X0375443Y0297173D01*
X0375541Y0296905D01*
X0375645Y0296639D01*
X0375756Y0296376D01*
X0375873Y0296116D01*
X0375996Y0295858D01*
X0376126Y0295604D01*
X0376262Y0295353D01*
X0376403Y0295105D01*
X0376551Y0294861D01*
X0376704Y0294620D01*
X0376864Y0294384D01*
X0377029Y0294151D01*
X0377199Y0293922D01*
X0377375Y0293697D01*
X0377557Y0293477D01*
X0377743Y0293261D01*
X0377935Y0293050D01*
X0378132Y0292843D01*
X0378334Y0292641D01*
X0378541Y0292444D01*
X0378752Y0292252D01*
X0378968Y0292066D01*
X0379188Y0291884D01*
X0379413Y0291708D01*
X0379642Y0291538D01*
X0379875Y0291373D01*
X0380111Y0291213D01*
X0380352Y0291060D01*
X0380596Y0290912D01*
X0380844Y0290771D01*
X0381095Y0290635D01*
X0381349Y0290505D01*
X0381607Y0290382D01*
X0381867Y0290265D01*
X0382130Y0290154D01*
X0382396Y0290050D01*
X0382664Y0289952D01*
X0382934Y0289860D01*
X0383207Y0289775D01*
X0383481Y0289697D01*
X0383757Y0289625D01*
X0384035Y0289560D01*
X0384315Y0289502D01*
X0384596Y0289451D01*
X0384877Y0289406D01*
X0385160Y0289368D01*
X0385444Y0289337D01*
X0385728Y0289313D01*
X0386013Y0289296D01*
X0386299Y0289285D01*
X0386584Y0289282D01*
X0395245Y0289282D01*
X0395245Y0045975D01*
X0386584Y0045975D01*
X0386584Y0045974D02*
X0386299Y0045971D01*
X0386013Y0045960D01*
X0385728Y0045943D01*
X0385444Y0045919D01*
X0385160Y0045888D01*
X0384877Y0045850D01*
X0384596Y0045805D01*
X0384315Y0045754D01*
X0384035Y0045696D01*
X0383757Y0045631D01*
X0383481Y0045559D01*
X0383207Y0045481D01*
X0382934Y0045396D01*
X0382664Y0045304D01*
X0382396Y0045206D01*
X0382130Y0045102D01*
X0381867Y0044991D01*
X0381607Y0044874D01*
X0381349Y0044751D01*
X0381095Y0044621D01*
X0380844Y0044485D01*
X0380596Y0044344D01*
X0380352Y0044196D01*
X0380111Y0044043D01*
X0379875Y0043883D01*
X0379642Y0043718D01*
X0379413Y0043548D01*
X0379188Y0043372D01*
X0378968Y0043190D01*
X0378752Y0043004D01*
X0378541Y0042812D01*
X0378334Y0042615D01*
X0378132Y0042413D01*
X0377935Y0042206D01*
X0377743Y0041995D01*
X0377557Y0041779D01*
X0377375Y0041559D01*
X0377199Y0041334D01*
X0377029Y0041105D01*
X0376864Y0040872D01*
X0376704Y0040636D01*
X0376551Y0040395D01*
X0376403Y0040151D01*
X0376262Y0039903D01*
X0376126Y0039652D01*
X0375996Y0039398D01*
X0375873Y0039140D01*
X0375756Y0038880D01*
X0375645Y0038617D01*
X0375541Y0038351D01*
X0375443Y0038083D01*
X0375351Y0037813D01*
X0375266Y0037540D01*
X0375188Y0037266D01*
X0375116Y0036990D01*
X0375051Y0036712D01*
X0374993Y0036432D01*
X0374942Y0036151D01*
X0374897Y0035870D01*
X0374859Y0035587D01*
X0374828Y0035303D01*
X0374804Y0035019D01*
X0374787Y0034734D01*
X0374776Y0034448D01*
X0374773Y0034163D01*
X0374773Y0016053D01*
X0022017Y0016053D01*
X0010600Y0045975D02*
X0010206Y0045975D01*
X0047805Y0055620D02*
X0047807Y0055778D01*
X0047813Y0055936D01*
X0047823Y0056094D01*
X0047837Y0056252D01*
X0047855Y0056409D01*
X0047876Y0056566D01*
X0047902Y0056722D01*
X0047932Y0056878D01*
X0047965Y0057033D01*
X0048003Y0057186D01*
X0048044Y0057339D01*
X0048089Y0057491D01*
X0048138Y0057642D01*
X0048191Y0057791D01*
X0048247Y0057939D01*
X0048307Y0058085D01*
X0048371Y0058230D01*
X0048439Y0058373D01*
X0048510Y0058515D01*
X0048584Y0058655D01*
X0048662Y0058792D01*
X0048744Y0058928D01*
X0048828Y0059062D01*
X0048917Y0059193D01*
X0049008Y0059322D01*
X0049103Y0059449D01*
X0049200Y0059574D01*
X0049301Y0059696D01*
X0049405Y0059815D01*
X0049512Y0059932D01*
X0049622Y0060046D01*
X0049735Y0060157D01*
X0049850Y0060266D01*
X0049968Y0060371D01*
X0050089Y0060473D01*
X0050212Y0060573D01*
X0050338Y0060669D01*
X0050466Y0060762D01*
X0050596Y0060852D01*
X0050729Y0060938D01*
X0050864Y0061022D01*
X0051000Y0061101D01*
X0051139Y0061178D01*
X0051280Y0061250D01*
X0051422Y0061320D01*
X0051566Y0061385D01*
X0051712Y0061447D01*
X0051859Y0061505D01*
X0052008Y0061560D01*
X0052158Y0061611D01*
X0052309Y0061658D01*
X0052461Y0061701D01*
X0052614Y0061740D01*
X0052769Y0061776D01*
X0052924Y0061807D01*
X0053080Y0061835D01*
X0053236Y0061859D01*
X0053393Y0061879D01*
X0053551Y0061895D01*
X0053708Y0061907D01*
X0053867Y0061915D01*
X0054025Y0061919D01*
X0054183Y0061919D01*
X0054341Y0061915D01*
X0054500Y0061907D01*
X0054657Y0061895D01*
X0054815Y0061879D01*
X0054972Y0061859D01*
X0055128Y0061835D01*
X0055284Y0061807D01*
X0055439Y0061776D01*
X0055594Y0061740D01*
X0055747Y0061701D01*
X0055899Y0061658D01*
X0056050Y0061611D01*
X0056200Y0061560D01*
X0056349Y0061505D01*
X0056496Y0061447D01*
X0056642Y0061385D01*
X0056786Y0061320D01*
X0056928Y0061250D01*
X0057069Y0061178D01*
X0057208Y0061101D01*
X0057344Y0061022D01*
X0057479Y0060938D01*
X0057612Y0060852D01*
X0057742Y0060762D01*
X0057870Y0060669D01*
X0057996Y0060573D01*
X0058119Y0060473D01*
X0058240Y0060371D01*
X0058358Y0060266D01*
X0058473Y0060157D01*
X0058586Y0060046D01*
X0058696Y0059932D01*
X0058803Y0059815D01*
X0058907Y0059696D01*
X0059008Y0059574D01*
X0059105Y0059449D01*
X0059200Y0059322D01*
X0059291Y0059193D01*
X0059380Y0059062D01*
X0059464Y0058928D01*
X0059546Y0058792D01*
X0059624Y0058655D01*
X0059698Y0058515D01*
X0059769Y0058373D01*
X0059837Y0058230D01*
X0059901Y0058085D01*
X0059961Y0057939D01*
X0060017Y0057791D01*
X0060070Y0057642D01*
X0060119Y0057491D01*
X0060164Y0057339D01*
X0060205Y0057186D01*
X0060243Y0057033D01*
X0060276Y0056878D01*
X0060306Y0056722D01*
X0060332Y0056566D01*
X0060353Y0056409D01*
X0060371Y0056252D01*
X0060385Y0056094D01*
X0060395Y0055936D01*
X0060401Y0055778D01*
X0060403Y0055620D01*
X0060401Y0055462D01*
X0060395Y0055304D01*
X0060385Y0055146D01*
X0060371Y0054988D01*
X0060353Y0054831D01*
X0060332Y0054674D01*
X0060306Y0054518D01*
X0060276Y0054362D01*
X0060243Y0054207D01*
X0060205Y0054054D01*
X0060164Y0053901D01*
X0060119Y0053749D01*
X0060070Y0053598D01*
X0060017Y0053449D01*
X0059961Y0053301D01*
X0059901Y0053155D01*
X0059837Y0053010D01*
X0059769Y0052867D01*
X0059698Y0052725D01*
X0059624Y0052585D01*
X0059546Y0052448D01*
X0059464Y0052312D01*
X0059380Y0052178D01*
X0059291Y0052047D01*
X0059200Y0051918D01*
X0059105Y0051791D01*
X0059008Y0051666D01*
X0058907Y0051544D01*
X0058803Y0051425D01*
X0058696Y0051308D01*
X0058586Y0051194D01*
X0058473Y0051083D01*
X0058358Y0050974D01*
X0058240Y0050869D01*
X0058119Y0050767D01*
X0057996Y0050667D01*
X0057870Y0050571D01*
X0057742Y0050478D01*
X0057612Y0050388D01*
X0057479Y0050302D01*
X0057344Y0050218D01*
X0057208Y0050139D01*
X0057069Y0050062D01*
X0056928Y0049990D01*
X0056786Y0049920D01*
X0056642Y0049855D01*
X0056496Y0049793D01*
X0056349Y0049735D01*
X0056200Y0049680D01*
X0056050Y0049629D01*
X0055899Y0049582D01*
X0055747Y0049539D01*
X0055594Y0049500D01*
X0055439Y0049464D01*
X0055284Y0049433D01*
X0055128Y0049405D01*
X0054972Y0049381D01*
X0054815Y0049361D01*
X0054657Y0049345D01*
X0054500Y0049333D01*
X0054341Y0049325D01*
X0054183Y0049321D01*
X0054025Y0049321D01*
X0053867Y0049325D01*
X0053708Y0049333D01*
X0053551Y0049345D01*
X0053393Y0049361D01*
X0053236Y0049381D01*
X0053080Y0049405D01*
X0052924Y0049433D01*
X0052769Y0049464D01*
X0052614Y0049500D01*
X0052461Y0049539D01*
X0052309Y0049582D01*
X0052158Y0049629D01*
X0052008Y0049680D01*
X0051859Y0049735D01*
X0051712Y0049793D01*
X0051566Y0049855D01*
X0051422Y0049920D01*
X0051280Y0049990D01*
X0051139Y0050062D01*
X0051000Y0050139D01*
X0050864Y0050218D01*
X0050729Y0050302D01*
X0050596Y0050388D01*
X0050466Y0050478D01*
X0050338Y0050571D01*
X0050212Y0050667D01*
X0050089Y0050767D01*
X0049968Y0050869D01*
X0049850Y0050974D01*
X0049735Y0051083D01*
X0049622Y0051194D01*
X0049512Y0051308D01*
X0049405Y0051425D01*
X0049301Y0051544D01*
X0049200Y0051666D01*
X0049103Y0051791D01*
X0049008Y0051918D01*
X0048917Y0052047D01*
X0048828Y0052178D01*
X0048744Y0052312D01*
X0048662Y0052448D01*
X0048584Y0052585D01*
X0048510Y0052725D01*
X0048439Y0052867D01*
X0048371Y0053010D01*
X0048307Y0053155D01*
X0048247Y0053301D01*
X0048191Y0053449D01*
X0048138Y0053598D01*
X0048089Y0053749D01*
X0048044Y0053901D01*
X0048003Y0054054D01*
X0047965Y0054207D01*
X0047932Y0054362D01*
X0047902Y0054518D01*
X0047876Y0054674D01*
X0047855Y0054831D01*
X0047837Y0054988D01*
X0047823Y0055146D01*
X0047813Y0055304D01*
X0047807Y0055462D01*
X0047805Y0055620D01*
X0192686Y0219990D02*
X0192689Y0220198D01*
X0192696Y0220405D01*
X0192709Y0220613D01*
X0192727Y0220820D01*
X0192750Y0221026D01*
X0192778Y0221232D01*
X0192811Y0221437D01*
X0192849Y0221641D01*
X0192892Y0221845D01*
X0192940Y0222047D01*
X0192993Y0222248D01*
X0193051Y0222447D01*
X0193113Y0222645D01*
X0193181Y0222842D01*
X0193253Y0223037D01*
X0193330Y0223229D01*
X0193412Y0223420D01*
X0193499Y0223609D01*
X0193590Y0223796D01*
X0193686Y0223980D01*
X0193786Y0224162D01*
X0193890Y0224342D01*
X0193999Y0224519D01*
X0194113Y0224693D01*
X0194230Y0224864D01*
X0194352Y0225033D01*
X0194478Y0225198D01*
X0194607Y0225360D01*
X0194741Y0225519D01*
X0194879Y0225675D01*
X0195020Y0225827D01*
X0195165Y0225976D01*
X0195314Y0226121D01*
X0195466Y0226262D01*
X0195622Y0226400D01*
X0195781Y0226534D01*
X0195943Y0226663D01*
X0196108Y0226789D01*
X0196277Y0226911D01*
X0196448Y0227028D01*
X0196622Y0227142D01*
X0196799Y0227251D01*
X0196979Y0227355D01*
X0197161Y0227455D01*
X0197345Y0227551D01*
X0197532Y0227642D01*
X0197721Y0227729D01*
X0197912Y0227811D01*
X0198104Y0227888D01*
X0198299Y0227960D01*
X0198496Y0228028D01*
X0198694Y0228090D01*
X0198893Y0228148D01*
X0199094Y0228201D01*
X0199296Y0228249D01*
X0199500Y0228292D01*
X0199704Y0228330D01*
X0199909Y0228363D01*
X0200115Y0228391D01*
X0200321Y0228414D01*
X0200528Y0228432D01*
X0200736Y0228445D01*
X0200943Y0228452D01*
X0201151Y0228455D01*
X0201359Y0228452D01*
X0201566Y0228445D01*
X0201774Y0228432D01*
X0201981Y0228414D01*
X0202187Y0228391D01*
X0202393Y0228363D01*
X0202598Y0228330D01*
X0202802Y0228292D01*
X0203006Y0228249D01*
X0203208Y0228201D01*
X0203409Y0228148D01*
X0203608Y0228090D01*
X0203806Y0228028D01*
X0204003Y0227960D01*
X0204198Y0227888D01*
X0204390Y0227811D01*
X0204581Y0227729D01*
X0204770Y0227642D01*
X0204957Y0227551D01*
X0205141Y0227455D01*
X0205323Y0227355D01*
X0205503Y0227251D01*
X0205680Y0227142D01*
X0205854Y0227028D01*
X0206025Y0226911D01*
X0206194Y0226789D01*
X0206359Y0226663D01*
X0206521Y0226534D01*
X0206680Y0226400D01*
X0206836Y0226262D01*
X0206988Y0226121D01*
X0207137Y0225976D01*
X0207282Y0225827D01*
X0207423Y0225675D01*
X0207561Y0225519D01*
X0207695Y0225360D01*
X0207824Y0225198D01*
X0207950Y0225033D01*
X0208072Y0224864D01*
X0208189Y0224693D01*
X0208303Y0224519D01*
X0208412Y0224342D01*
X0208516Y0224162D01*
X0208616Y0223980D01*
X0208712Y0223796D01*
X0208803Y0223609D01*
X0208890Y0223420D01*
X0208972Y0223229D01*
X0209049Y0223037D01*
X0209121Y0222842D01*
X0209189Y0222645D01*
X0209251Y0222447D01*
X0209309Y0222248D01*
X0209362Y0222047D01*
X0209410Y0221845D01*
X0209453Y0221641D01*
X0209491Y0221437D01*
X0209524Y0221232D01*
X0209552Y0221026D01*
X0209575Y0220820D01*
X0209593Y0220613D01*
X0209606Y0220405D01*
X0209613Y0220198D01*
X0209616Y0219990D01*
X0209613Y0219782D01*
X0209606Y0219575D01*
X0209593Y0219367D01*
X0209575Y0219160D01*
X0209552Y0218954D01*
X0209524Y0218748D01*
X0209491Y0218543D01*
X0209453Y0218339D01*
X0209410Y0218135D01*
X0209362Y0217933D01*
X0209309Y0217732D01*
X0209251Y0217533D01*
X0209189Y0217335D01*
X0209121Y0217138D01*
X0209049Y0216943D01*
X0208972Y0216751D01*
X0208890Y0216560D01*
X0208803Y0216371D01*
X0208712Y0216184D01*
X0208616Y0216000D01*
X0208516Y0215818D01*
X0208412Y0215638D01*
X0208303Y0215461D01*
X0208189Y0215287D01*
X0208072Y0215116D01*
X0207950Y0214947D01*
X0207824Y0214782D01*
X0207695Y0214620D01*
X0207561Y0214461D01*
X0207423Y0214305D01*
X0207282Y0214153D01*
X0207137Y0214004D01*
X0206988Y0213859D01*
X0206836Y0213718D01*
X0206680Y0213580D01*
X0206521Y0213446D01*
X0206359Y0213317D01*
X0206194Y0213191D01*
X0206025Y0213069D01*
X0205854Y0212952D01*
X0205680Y0212838D01*
X0205503Y0212729D01*
X0205323Y0212625D01*
X0205141Y0212525D01*
X0204957Y0212429D01*
X0204770Y0212338D01*
X0204581Y0212251D01*
X0204390Y0212169D01*
X0204198Y0212092D01*
X0204003Y0212020D01*
X0203806Y0211952D01*
X0203608Y0211890D01*
X0203409Y0211832D01*
X0203208Y0211779D01*
X0203006Y0211731D01*
X0202802Y0211688D01*
X0202598Y0211650D01*
X0202393Y0211617D01*
X0202187Y0211589D01*
X0201981Y0211566D01*
X0201774Y0211548D01*
X0201566Y0211535D01*
X0201359Y0211528D01*
X0201151Y0211525D01*
X0200943Y0211528D01*
X0200736Y0211535D01*
X0200528Y0211548D01*
X0200321Y0211566D01*
X0200115Y0211589D01*
X0199909Y0211617D01*
X0199704Y0211650D01*
X0199500Y0211688D01*
X0199296Y0211731D01*
X0199094Y0211779D01*
X0198893Y0211832D01*
X0198694Y0211890D01*
X0198496Y0211952D01*
X0198299Y0212020D01*
X0198104Y0212092D01*
X0197912Y0212169D01*
X0197721Y0212251D01*
X0197532Y0212338D01*
X0197345Y0212429D01*
X0197161Y0212525D01*
X0196979Y0212625D01*
X0196799Y0212729D01*
X0196622Y0212838D01*
X0196448Y0212952D01*
X0196277Y0213069D01*
X0196108Y0213191D01*
X0195943Y0213317D01*
X0195781Y0213446D01*
X0195622Y0213580D01*
X0195466Y0213718D01*
X0195314Y0213859D01*
X0195165Y0214004D01*
X0195020Y0214153D01*
X0194879Y0214305D01*
X0194741Y0214461D01*
X0194607Y0214620D01*
X0194478Y0214782D01*
X0194352Y0214947D01*
X0194230Y0215116D01*
X0194113Y0215287D01*
X0193999Y0215461D01*
X0193890Y0215638D01*
X0193786Y0215818D01*
X0193686Y0216000D01*
X0193590Y0216184D01*
X0193499Y0216371D01*
X0193412Y0216560D01*
X0193330Y0216751D01*
X0193253Y0216943D01*
X0193181Y0217138D01*
X0193113Y0217335D01*
X0193051Y0217533D01*
X0192993Y0217732D01*
X0192940Y0217933D01*
X0192892Y0218135D01*
X0192849Y0218339D01*
X0192811Y0218543D01*
X0192778Y0218748D01*
X0192750Y0218954D01*
X0192727Y0219160D01*
X0192709Y0219367D01*
X0192696Y0219575D01*
X0192689Y0219782D01*
X0192686Y0219990D01*
X0047805Y0279636D02*
X0047807Y0279794D01*
X0047813Y0279952D01*
X0047823Y0280110D01*
X0047837Y0280268D01*
X0047855Y0280425D01*
X0047876Y0280582D01*
X0047902Y0280738D01*
X0047932Y0280894D01*
X0047965Y0281049D01*
X0048003Y0281202D01*
X0048044Y0281355D01*
X0048089Y0281507D01*
X0048138Y0281658D01*
X0048191Y0281807D01*
X0048247Y0281955D01*
X0048307Y0282101D01*
X0048371Y0282246D01*
X0048439Y0282389D01*
X0048510Y0282531D01*
X0048584Y0282671D01*
X0048662Y0282808D01*
X0048744Y0282944D01*
X0048828Y0283078D01*
X0048917Y0283209D01*
X0049008Y0283338D01*
X0049103Y0283465D01*
X0049200Y0283590D01*
X0049301Y0283712D01*
X0049405Y0283831D01*
X0049512Y0283948D01*
X0049622Y0284062D01*
X0049735Y0284173D01*
X0049850Y0284282D01*
X0049968Y0284387D01*
X0050089Y0284489D01*
X0050212Y0284589D01*
X0050338Y0284685D01*
X0050466Y0284778D01*
X0050596Y0284868D01*
X0050729Y0284954D01*
X0050864Y0285038D01*
X0051000Y0285117D01*
X0051139Y0285194D01*
X0051280Y0285266D01*
X0051422Y0285336D01*
X0051566Y0285401D01*
X0051712Y0285463D01*
X0051859Y0285521D01*
X0052008Y0285576D01*
X0052158Y0285627D01*
X0052309Y0285674D01*
X0052461Y0285717D01*
X0052614Y0285756D01*
X0052769Y0285792D01*
X0052924Y0285823D01*
X0053080Y0285851D01*
X0053236Y0285875D01*
X0053393Y0285895D01*
X0053551Y0285911D01*
X0053708Y0285923D01*
X0053867Y0285931D01*
X0054025Y0285935D01*
X0054183Y0285935D01*
X0054341Y0285931D01*
X0054500Y0285923D01*
X0054657Y0285911D01*
X0054815Y0285895D01*
X0054972Y0285875D01*
X0055128Y0285851D01*
X0055284Y0285823D01*
X0055439Y0285792D01*
X0055594Y0285756D01*
X0055747Y0285717D01*
X0055899Y0285674D01*
X0056050Y0285627D01*
X0056200Y0285576D01*
X0056349Y0285521D01*
X0056496Y0285463D01*
X0056642Y0285401D01*
X0056786Y0285336D01*
X0056928Y0285266D01*
X0057069Y0285194D01*
X0057208Y0285117D01*
X0057344Y0285038D01*
X0057479Y0284954D01*
X0057612Y0284868D01*
X0057742Y0284778D01*
X0057870Y0284685D01*
X0057996Y0284589D01*
X0058119Y0284489D01*
X0058240Y0284387D01*
X0058358Y0284282D01*
X0058473Y0284173D01*
X0058586Y0284062D01*
X0058696Y0283948D01*
X0058803Y0283831D01*
X0058907Y0283712D01*
X0059008Y0283590D01*
X0059105Y0283465D01*
X0059200Y0283338D01*
X0059291Y0283209D01*
X0059380Y0283078D01*
X0059464Y0282944D01*
X0059546Y0282808D01*
X0059624Y0282671D01*
X0059698Y0282531D01*
X0059769Y0282389D01*
X0059837Y0282246D01*
X0059901Y0282101D01*
X0059961Y0281955D01*
X0060017Y0281807D01*
X0060070Y0281658D01*
X0060119Y0281507D01*
X0060164Y0281355D01*
X0060205Y0281202D01*
X0060243Y0281049D01*
X0060276Y0280894D01*
X0060306Y0280738D01*
X0060332Y0280582D01*
X0060353Y0280425D01*
X0060371Y0280268D01*
X0060385Y0280110D01*
X0060395Y0279952D01*
X0060401Y0279794D01*
X0060403Y0279636D01*
X0060401Y0279478D01*
X0060395Y0279320D01*
X0060385Y0279162D01*
X0060371Y0279004D01*
X0060353Y0278847D01*
X0060332Y0278690D01*
X0060306Y0278534D01*
X0060276Y0278378D01*
X0060243Y0278223D01*
X0060205Y0278070D01*
X0060164Y0277917D01*
X0060119Y0277765D01*
X0060070Y0277614D01*
X0060017Y0277465D01*
X0059961Y0277317D01*
X0059901Y0277171D01*
X0059837Y0277026D01*
X0059769Y0276883D01*
X0059698Y0276741D01*
X0059624Y0276601D01*
X0059546Y0276464D01*
X0059464Y0276328D01*
X0059380Y0276194D01*
X0059291Y0276063D01*
X0059200Y0275934D01*
X0059105Y0275807D01*
X0059008Y0275682D01*
X0058907Y0275560D01*
X0058803Y0275441D01*
X0058696Y0275324D01*
X0058586Y0275210D01*
X0058473Y0275099D01*
X0058358Y0274990D01*
X0058240Y0274885D01*
X0058119Y0274783D01*
X0057996Y0274683D01*
X0057870Y0274587D01*
X0057742Y0274494D01*
X0057612Y0274404D01*
X0057479Y0274318D01*
X0057344Y0274234D01*
X0057208Y0274155D01*
X0057069Y0274078D01*
X0056928Y0274006D01*
X0056786Y0273936D01*
X0056642Y0273871D01*
X0056496Y0273809D01*
X0056349Y0273751D01*
X0056200Y0273696D01*
X0056050Y0273645D01*
X0055899Y0273598D01*
X0055747Y0273555D01*
X0055594Y0273516D01*
X0055439Y0273480D01*
X0055284Y0273449D01*
X0055128Y0273421D01*
X0054972Y0273397D01*
X0054815Y0273377D01*
X0054657Y0273361D01*
X0054500Y0273349D01*
X0054341Y0273341D01*
X0054183Y0273337D01*
X0054025Y0273337D01*
X0053867Y0273341D01*
X0053708Y0273349D01*
X0053551Y0273361D01*
X0053393Y0273377D01*
X0053236Y0273397D01*
X0053080Y0273421D01*
X0052924Y0273449D01*
X0052769Y0273480D01*
X0052614Y0273516D01*
X0052461Y0273555D01*
X0052309Y0273598D01*
X0052158Y0273645D01*
X0052008Y0273696D01*
X0051859Y0273751D01*
X0051712Y0273809D01*
X0051566Y0273871D01*
X0051422Y0273936D01*
X0051280Y0274006D01*
X0051139Y0274078D01*
X0051000Y0274155D01*
X0050864Y0274234D01*
X0050729Y0274318D01*
X0050596Y0274404D01*
X0050466Y0274494D01*
X0050338Y0274587D01*
X0050212Y0274683D01*
X0050089Y0274783D01*
X0049968Y0274885D01*
X0049850Y0274990D01*
X0049735Y0275099D01*
X0049622Y0275210D01*
X0049512Y0275324D01*
X0049405Y0275441D01*
X0049301Y0275560D01*
X0049200Y0275682D01*
X0049103Y0275807D01*
X0049008Y0275934D01*
X0048917Y0276063D01*
X0048828Y0276194D01*
X0048744Y0276328D01*
X0048662Y0276464D01*
X0048584Y0276601D01*
X0048510Y0276741D01*
X0048439Y0276883D01*
X0048371Y0277026D01*
X0048307Y0277171D01*
X0048247Y0277317D01*
X0048191Y0277465D01*
X0048138Y0277614D01*
X0048089Y0277765D01*
X0048044Y0277917D01*
X0048003Y0278070D01*
X0047965Y0278223D01*
X0047932Y0278378D01*
X0047902Y0278534D01*
X0047876Y0278690D01*
X0047855Y0278847D01*
X0047837Y0279004D01*
X0047823Y0279162D01*
X0047813Y0279320D01*
X0047807Y0279478D01*
X0047805Y0279636D01*
X0336387Y0279636D02*
X0336389Y0279794D01*
X0336395Y0279952D01*
X0336405Y0280110D01*
X0336419Y0280268D01*
X0336437Y0280425D01*
X0336458Y0280582D01*
X0336484Y0280738D01*
X0336514Y0280894D01*
X0336547Y0281049D01*
X0336585Y0281202D01*
X0336626Y0281355D01*
X0336671Y0281507D01*
X0336720Y0281658D01*
X0336773Y0281807D01*
X0336829Y0281955D01*
X0336889Y0282101D01*
X0336953Y0282246D01*
X0337021Y0282389D01*
X0337092Y0282531D01*
X0337166Y0282671D01*
X0337244Y0282808D01*
X0337326Y0282944D01*
X0337410Y0283078D01*
X0337499Y0283209D01*
X0337590Y0283338D01*
X0337685Y0283465D01*
X0337782Y0283590D01*
X0337883Y0283712D01*
X0337987Y0283831D01*
X0338094Y0283948D01*
X0338204Y0284062D01*
X0338317Y0284173D01*
X0338432Y0284282D01*
X0338550Y0284387D01*
X0338671Y0284489D01*
X0338794Y0284589D01*
X0338920Y0284685D01*
X0339048Y0284778D01*
X0339178Y0284868D01*
X0339311Y0284954D01*
X0339446Y0285038D01*
X0339582Y0285117D01*
X0339721Y0285194D01*
X0339862Y0285266D01*
X0340004Y0285336D01*
X0340148Y0285401D01*
X0340294Y0285463D01*
X0340441Y0285521D01*
X0340590Y0285576D01*
X0340740Y0285627D01*
X0340891Y0285674D01*
X0341043Y0285717D01*
X0341196Y0285756D01*
X0341351Y0285792D01*
X0341506Y0285823D01*
X0341662Y0285851D01*
X0341818Y0285875D01*
X0341975Y0285895D01*
X0342133Y0285911D01*
X0342290Y0285923D01*
X0342449Y0285931D01*
X0342607Y0285935D01*
X0342765Y0285935D01*
X0342923Y0285931D01*
X0343082Y0285923D01*
X0343239Y0285911D01*
X0343397Y0285895D01*
X0343554Y0285875D01*
X0343710Y0285851D01*
X0343866Y0285823D01*
X0344021Y0285792D01*
X0344176Y0285756D01*
X0344329Y0285717D01*
X0344481Y0285674D01*
X0344632Y0285627D01*
X0344782Y0285576D01*
X0344931Y0285521D01*
X0345078Y0285463D01*
X0345224Y0285401D01*
X0345368Y0285336D01*
X0345510Y0285266D01*
X0345651Y0285194D01*
X0345790Y0285117D01*
X0345926Y0285038D01*
X0346061Y0284954D01*
X0346194Y0284868D01*
X0346324Y0284778D01*
X0346452Y0284685D01*
X0346578Y0284589D01*
X0346701Y0284489D01*
X0346822Y0284387D01*
X0346940Y0284282D01*
X0347055Y0284173D01*
X0347168Y0284062D01*
X0347278Y0283948D01*
X0347385Y0283831D01*
X0347489Y0283712D01*
X0347590Y0283590D01*
X0347687Y0283465D01*
X0347782Y0283338D01*
X0347873Y0283209D01*
X0347962Y0283078D01*
X0348046Y0282944D01*
X0348128Y0282808D01*
X0348206Y0282671D01*
X0348280Y0282531D01*
X0348351Y0282389D01*
X0348419Y0282246D01*
X0348483Y0282101D01*
X0348543Y0281955D01*
X0348599Y0281807D01*
X0348652Y0281658D01*
X0348701Y0281507D01*
X0348746Y0281355D01*
X0348787Y0281202D01*
X0348825Y0281049D01*
X0348858Y0280894D01*
X0348888Y0280738D01*
X0348914Y0280582D01*
X0348935Y0280425D01*
X0348953Y0280268D01*
X0348967Y0280110D01*
X0348977Y0279952D01*
X0348983Y0279794D01*
X0348985Y0279636D01*
X0348983Y0279478D01*
X0348977Y0279320D01*
X0348967Y0279162D01*
X0348953Y0279004D01*
X0348935Y0278847D01*
X0348914Y0278690D01*
X0348888Y0278534D01*
X0348858Y0278378D01*
X0348825Y0278223D01*
X0348787Y0278070D01*
X0348746Y0277917D01*
X0348701Y0277765D01*
X0348652Y0277614D01*
X0348599Y0277465D01*
X0348543Y0277317D01*
X0348483Y0277171D01*
X0348419Y0277026D01*
X0348351Y0276883D01*
X0348280Y0276741D01*
X0348206Y0276601D01*
X0348128Y0276464D01*
X0348046Y0276328D01*
X0347962Y0276194D01*
X0347873Y0276063D01*
X0347782Y0275934D01*
X0347687Y0275807D01*
X0347590Y0275682D01*
X0347489Y0275560D01*
X0347385Y0275441D01*
X0347278Y0275324D01*
X0347168Y0275210D01*
X0347055Y0275099D01*
X0346940Y0274990D01*
X0346822Y0274885D01*
X0346701Y0274783D01*
X0346578Y0274683D01*
X0346452Y0274587D01*
X0346324Y0274494D01*
X0346194Y0274404D01*
X0346061Y0274318D01*
X0345926Y0274234D01*
X0345790Y0274155D01*
X0345651Y0274078D01*
X0345510Y0274006D01*
X0345368Y0273936D01*
X0345224Y0273871D01*
X0345078Y0273809D01*
X0344931Y0273751D01*
X0344782Y0273696D01*
X0344632Y0273645D01*
X0344481Y0273598D01*
X0344329Y0273555D01*
X0344176Y0273516D01*
X0344021Y0273480D01*
X0343866Y0273449D01*
X0343710Y0273421D01*
X0343554Y0273397D01*
X0343397Y0273377D01*
X0343239Y0273361D01*
X0343082Y0273349D01*
X0342923Y0273341D01*
X0342765Y0273337D01*
X0342607Y0273337D01*
X0342449Y0273341D01*
X0342290Y0273349D01*
X0342133Y0273361D01*
X0341975Y0273377D01*
X0341818Y0273397D01*
X0341662Y0273421D01*
X0341506Y0273449D01*
X0341351Y0273480D01*
X0341196Y0273516D01*
X0341043Y0273555D01*
X0340891Y0273598D01*
X0340740Y0273645D01*
X0340590Y0273696D01*
X0340441Y0273751D01*
X0340294Y0273809D01*
X0340148Y0273871D01*
X0340004Y0273936D01*
X0339862Y0274006D01*
X0339721Y0274078D01*
X0339582Y0274155D01*
X0339446Y0274234D01*
X0339311Y0274318D01*
X0339178Y0274404D01*
X0339048Y0274494D01*
X0338920Y0274587D01*
X0338794Y0274683D01*
X0338671Y0274783D01*
X0338550Y0274885D01*
X0338432Y0274990D01*
X0338317Y0275099D01*
X0338204Y0275210D01*
X0338094Y0275324D01*
X0337987Y0275441D01*
X0337883Y0275560D01*
X0337782Y0275682D01*
X0337685Y0275807D01*
X0337590Y0275934D01*
X0337499Y0276063D01*
X0337410Y0276194D01*
X0337326Y0276328D01*
X0337244Y0276464D01*
X0337166Y0276601D01*
X0337092Y0276741D01*
X0337021Y0276883D01*
X0336953Y0277026D01*
X0336889Y0277171D01*
X0336829Y0277317D01*
X0336773Y0277465D01*
X0336720Y0277614D01*
X0336671Y0277765D01*
X0336626Y0277917D01*
X0336585Y0278070D01*
X0336547Y0278223D01*
X0336514Y0278378D01*
X0336484Y0278534D01*
X0336458Y0278690D01*
X0336437Y0278847D01*
X0336419Y0279004D01*
X0336405Y0279162D01*
X0336395Y0279320D01*
X0336389Y0279478D01*
X0336387Y0279636D01*
X0336387Y0055620D02*
X0336389Y0055778D01*
X0336395Y0055936D01*
X0336405Y0056094D01*
X0336419Y0056252D01*
X0336437Y0056409D01*
X0336458Y0056566D01*
X0336484Y0056722D01*
X0336514Y0056878D01*
X0336547Y0057033D01*
X0336585Y0057186D01*
X0336626Y0057339D01*
X0336671Y0057491D01*
X0336720Y0057642D01*
X0336773Y0057791D01*
X0336829Y0057939D01*
X0336889Y0058085D01*
X0336953Y0058230D01*
X0337021Y0058373D01*
X0337092Y0058515D01*
X0337166Y0058655D01*
X0337244Y0058792D01*
X0337326Y0058928D01*
X0337410Y0059062D01*
X0337499Y0059193D01*
X0337590Y0059322D01*
X0337685Y0059449D01*
X0337782Y0059574D01*
X0337883Y0059696D01*
X0337987Y0059815D01*
X0338094Y0059932D01*
X0338204Y0060046D01*
X0338317Y0060157D01*
X0338432Y0060266D01*
X0338550Y0060371D01*
X0338671Y0060473D01*
X0338794Y0060573D01*
X0338920Y0060669D01*
X0339048Y0060762D01*
X0339178Y0060852D01*
X0339311Y0060938D01*
X0339446Y0061022D01*
X0339582Y0061101D01*
X0339721Y0061178D01*
X0339862Y0061250D01*
X0340004Y0061320D01*
X0340148Y0061385D01*
X0340294Y0061447D01*
X0340441Y0061505D01*
X0340590Y0061560D01*
X0340740Y0061611D01*
X0340891Y0061658D01*
X0341043Y0061701D01*
X0341196Y0061740D01*
X0341351Y0061776D01*
X0341506Y0061807D01*
X0341662Y0061835D01*
X0341818Y0061859D01*
X0341975Y0061879D01*
X0342133Y0061895D01*
X0342290Y0061907D01*
X0342449Y0061915D01*
X0342607Y0061919D01*
X0342765Y0061919D01*
X0342923Y0061915D01*
X0343082Y0061907D01*
X0343239Y0061895D01*
X0343397Y0061879D01*
X0343554Y0061859D01*
X0343710Y0061835D01*
X0343866Y0061807D01*
X0344021Y0061776D01*
X0344176Y0061740D01*
X0344329Y0061701D01*
X0344481Y0061658D01*
X0344632Y0061611D01*
X0344782Y0061560D01*
X0344931Y0061505D01*
X0345078Y0061447D01*
X0345224Y0061385D01*
X0345368Y0061320D01*
X0345510Y0061250D01*
X0345651Y0061178D01*
X0345790Y0061101D01*
X0345926Y0061022D01*
X0346061Y0060938D01*
X0346194Y0060852D01*
X0346324Y0060762D01*
X0346452Y0060669D01*
X0346578Y0060573D01*
X0346701Y0060473D01*
X0346822Y0060371D01*
X0346940Y0060266D01*
X0347055Y0060157D01*
X0347168Y0060046D01*
X0347278Y0059932D01*
X0347385Y0059815D01*
X0347489Y0059696D01*
X0347590Y0059574D01*
X0347687Y0059449D01*
X0347782Y0059322D01*
X0347873Y0059193D01*
X0347962Y0059062D01*
X0348046Y0058928D01*
X0348128Y0058792D01*
X0348206Y0058655D01*
X0348280Y0058515D01*
X0348351Y0058373D01*
X0348419Y0058230D01*
X0348483Y0058085D01*
X0348543Y0057939D01*
X0348599Y0057791D01*
X0348652Y0057642D01*
X0348701Y0057491D01*
X0348746Y0057339D01*
X0348787Y0057186D01*
X0348825Y0057033D01*
X0348858Y0056878D01*
X0348888Y0056722D01*
X0348914Y0056566D01*
X0348935Y0056409D01*
X0348953Y0056252D01*
X0348967Y0056094D01*
X0348977Y0055936D01*
X0348983Y0055778D01*
X0348985Y0055620D01*
X0348983Y0055462D01*
X0348977Y0055304D01*
X0348967Y0055146D01*
X0348953Y0054988D01*
X0348935Y0054831D01*
X0348914Y0054674D01*
X0348888Y0054518D01*
X0348858Y0054362D01*
X0348825Y0054207D01*
X0348787Y0054054D01*
X0348746Y0053901D01*
X0348701Y0053749D01*
X0348652Y0053598D01*
X0348599Y0053449D01*
X0348543Y0053301D01*
X0348483Y0053155D01*
X0348419Y0053010D01*
X0348351Y0052867D01*
X0348280Y0052725D01*
X0348206Y0052585D01*
X0348128Y0052448D01*
X0348046Y0052312D01*
X0347962Y0052178D01*
X0347873Y0052047D01*
X0347782Y0051918D01*
X0347687Y0051791D01*
X0347590Y0051666D01*
X0347489Y0051544D01*
X0347385Y0051425D01*
X0347278Y0051308D01*
X0347168Y0051194D01*
X0347055Y0051083D01*
X0346940Y0050974D01*
X0346822Y0050869D01*
X0346701Y0050767D01*
X0346578Y0050667D01*
X0346452Y0050571D01*
X0346324Y0050478D01*
X0346194Y0050388D01*
X0346061Y0050302D01*
X0345926Y0050218D01*
X0345790Y0050139D01*
X0345651Y0050062D01*
X0345510Y0049990D01*
X0345368Y0049920D01*
X0345224Y0049855D01*
X0345078Y0049793D01*
X0344931Y0049735D01*
X0344782Y0049680D01*
X0344632Y0049629D01*
X0344481Y0049582D01*
X0344329Y0049539D01*
X0344176Y0049500D01*
X0344021Y0049464D01*
X0343866Y0049433D01*
X0343710Y0049405D01*
X0343554Y0049381D01*
X0343397Y0049361D01*
X0343239Y0049345D01*
X0343082Y0049333D01*
X0342923Y0049325D01*
X0342765Y0049321D01*
X0342607Y0049321D01*
X0342449Y0049325D01*
X0342290Y0049333D01*
X0342133Y0049345D01*
X0341975Y0049361D01*
X0341818Y0049381D01*
X0341662Y0049405D01*
X0341506Y0049433D01*
X0341351Y0049464D01*
X0341196Y0049500D01*
X0341043Y0049539D01*
X0340891Y0049582D01*
X0340740Y0049629D01*
X0340590Y0049680D01*
X0340441Y0049735D01*
X0340294Y0049793D01*
X0340148Y0049855D01*
X0340004Y0049920D01*
X0339862Y0049990D01*
X0339721Y0050062D01*
X0339582Y0050139D01*
X0339446Y0050218D01*
X0339311Y0050302D01*
X0339178Y0050388D01*
X0339048Y0050478D01*
X0338920Y0050571D01*
X0338794Y0050667D01*
X0338671Y0050767D01*
X0338550Y0050869D01*
X0338432Y0050974D01*
X0338317Y0051083D01*
X0338204Y0051194D01*
X0338094Y0051308D01*
X0337987Y0051425D01*
X0337883Y0051544D01*
X0337782Y0051666D01*
X0337685Y0051791D01*
X0337590Y0051918D01*
X0337499Y0052047D01*
X0337410Y0052178D01*
X0337326Y0052312D01*
X0337244Y0052448D01*
X0337166Y0052585D01*
X0337092Y0052725D01*
X0337021Y0052867D01*
X0336953Y0053010D01*
X0336889Y0053155D01*
X0336829Y0053301D01*
X0336773Y0053449D01*
X0336720Y0053598D01*
X0336671Y0053749D01*
X0336626Y0053901D01*
X0336585Y0054054D01*
X0336547Y0054207D01*
X0336514Y0054362D01*
X0336484Y0054518D01*
X0336458Y0054674D01*
X0336437Y0054831D01*
X0336419Y0054988D01*
X0336405Y0055146D01*
X0336395Y0055304D01*
X0336389Y0055462D01*
X0336387Y0055620D01*
D11*
X0085403Y0050077D03*
X0085403Y0027077D03*
X0085403Y0082817D03*
X0085403Y0105817D03*
D12*
X0065875Y0112156D02*
X0059875Y0112156D01*
X0042135Y0131644D02*
X0042135Y0137644D01*
X0042489Y0158809D02*
X0042489Y0164809D01*
X0012489Y0172809D02*
X0012489Y0178809D01*
X0012135Y0151644D02*
X0012135Y0145644D01*
X0045875Y0082156D02*
X0051875Y0082156D01*
D13*
X0111151Y0129990D03*
X0131151Y0129990D03*
X0271151Y0129990D03*
X0291151Y0129990D03*
X0281151Y0309990D03*
X0261151Y0309990D03*
X0141151Y0309990D03*
X0121151Y0309990D03*
D14*
X0313395Y0104730D03*
X0286978Y0065502D03*
X0139340Y0038455D03*
X0377332Y0214045D03*
D15*
X0347332Y0214045D03*
X0343395Y0104730D03*
X0286978Y0035502D03*
X0139340Y0068455D03*
D16*
X0141308Y0099321D03*
X0135403Y0099321D03*
X0135403Y0106014D03*
X0141308Y0106014D03*
X0168867Y0106014D03*
X0168867Y0099321D03*
X0224970Y0103258D03*
X0224970Y0109951D03*
X0250560Y0108179D03*
X0250560Y0114872D03*
X0263356Y0101093D03*
X0263356Y0094400D03*
X0288946Y0105226D03*
X0288946Y0111919D03*
X0326608Y0161809D03*
X0326608Y0168502D03*
X0334608Y0168502D03*
X0334608Y0161809D03*
X0323198Y0185148D03*
X0316505Y0185148D03*
X0229891Y0036723D03*
X0229891Y0030030D03*
X0221230Y0030030D03*
X0221230Y0036723D03*
X0199379Y0030030D03*
X0199379Y0023337D03*
X0184222Y0030030D03*
X0184222Y0036723D03*
X0107844Y0099321D03*
X0107844Y0106014D03*
D17*
X0185206Y0049518D03*
X0191899Y0049518D03*
X0192489Y0036723D03*
X0192489Y0030030D03*
X0334812Y0183770D03*
X0341505Y0183770D03*
X0323198Y0193022D03*
X0316505Y0193022D03*
X0310993Y0185148D03*
X0304301Y0185148D03*
D18*
X0175560Y0039282D03*
X0175560Y0028258D03*
X0238159Y0026683D03*
X0238159Y0037707D03*
D19*
X0377923Y0056289D03*
X0377923Y0076289D03*
X0377923Y0096289D03*
X0377923Y0257392D03*
X0377923Y0277392D03*
X0018867Y0098628D03*
X0018867Y0078628D03*
X0018867Y0058628D03*
D20*
X0076741Y0139754D03*
X0093671Y0139754D03*
X0093671Y0179754D03*
X0076741Y0179754D03*
X0016505Y0200778D03*
X0016505Y0240778D03*
X0085797Y0271250D03*
X0085797Y0311250D03*
D21*
X0081860Y0255423D03*
X0050364Y0255423D03*
X0050364Y0227864D03*
X0081860Y0227864D03*
D22*
X0204793Y0064478D02*
X0205383Y0064478D01*
X0205383Y0062116D01*
X0204793Y0062116D01*
X0204793Y0064478D01*
X0204793Y0062706D02*
X0205383Y0062706D01*
X0205383Y0063296D02*
X0204793Y0063296D01*
X0204793Y0063886D02*
X0205383Y0063886D01*
X0205383Y0064476D02*
X0204793Y0064476D01*
X0207352Y0064478D02*
X0207942Y0064478D01*
X0207942Y0062116D01*
X0207352Y0062116D01*
X0207352Y0064478D01*
X0207352Y0062706D02*
X0207942Y0062706D01*
X0207942Y0063296D02*
X0207352Y0063296D01*
X0207352Y0063886D02*
X0207942Y0063886D01*
X0207942Y0064476D02*
X0207352Y0064476D01*
X0209911Y0064478D02*
X0210501Y0064478D01*
X0210501Y0062116D01*
X0209911Y0062116D01*
X0209911Y0064478D01*
X0209911Y0062706D02*
X0210501Y0062706D01*
X0210501Y0063296D02*
X0209911Y0063296D01*
X0209911Y0063886D02*
X0210501Y0063886D01*
X0210501Y0064476D02*
X0209911Y0064476D01*
X0212470Y0064478D02*
X0213060Y0064478D01*
X0213060Y0062116D01*
X0212470Y0062116D01*
X0212470Y0064478D01*
X0212470Y0062706D02*
X0213060Y0062706D01*
X0213060Y0063296D02*
X0212470Y0063296D01*
X0212470Y0063886D02*
X0213060Y0063886D01*
X0213060Y0064476D02*
X0212470Y0064476D01*
X0215029Y0064478D02*
X0215619Y0064478D01*
X0215619Y0062116D01*
X0215029Y0062116D01*
X0215029Y0064478D01*
X0215029Y0062706D02*
X0215619Y0062706D01*
X0215619Y0063296D02*
X0215029Y0063296D01*
X0215029Y0063886D02*
X0215619Y0063886D01*
X0215619Y0064476D02*
X0215029Y0064476D01*
X0218868Y0058868D02*
X0221230Y0058868D01*
X0221230Y0058278D01*
X0218868Y0058278D01*
X0218868Y0058868D01*
X0221230Y0058868D01*
X0221230Y0056309D02*
X0218868Y0056309D01*
X0221230Y0056309D02*
X0221230Y0055719D01*
X0218868Y0055719D01*
X0218868Y0056309D01*
X0221230Y0056309D01*
X0221230Y0053750D02*
X0218868Y0053750D01*
X0221230Y0053750D02*
X0221230Y0053160D01*
X0218868Y0053160D01*
X0218868Y0053750D01*
X0221230Y0053750D01*
X0221230Y0051191D02*
X0218868Y0051191D01*
X0221230Y0051191D02*
X0221230Y0050601D01*
X0218868Y0050601D01*
X0218868Y0051191D01*
X0221230Y0051191D01*
X0221230Y0048632D02*
X0218868Y0048632D01*
X0221230Y0048632D02*
X0221230Y0048042D01*
X0218868Y0048042D01*
X0218868Y0048632D01*
X0221230Y0048632D01*
X0216230Y0048632D02*
X0213868Y0048632D01*
X0216230Y0048632D02*
X0216230Y0048042D01*
X0213868Y0048042D01*
X0213868Y0048632D01*
X0216230Y0048632D01*
X0215619Y0044793D02*
X0215029Y0044793D01*
X0215619Y0044793D02*
X0215619Y0042431D01*
X0215029Y0042431D01*
X0215029Y0044793D01*
X0215029Y0043021D02*
X0215619Y0043021D01*
X0215619Y0043611D02*
X0215029Y0043611D01*
X0215029Y0044201D02*
X0215619Y0044201D01*
X0215619Y0044791D02*
X0215029Y0044791D01*
X0213060Y0044793D02*
X0212470Y0044793D01*
X0213060Y0044793D02*
X0213060Y0042431D01*
X0212470Y0042431D01*
X0212470Y0044793D01*
X0212470Y0043021D02*
X0213060Y0043021D01*
X0213060Y0043611D02*
X0212470Y0043611D01*
X0212470Y0044201D02*
X0213060Y0044201D01*
X0213060Y0044791D02*
X0212470Y0044791D01*
X0210501Y0044793D02*
X0209911Y0044793D01*
X0210501Y0044793D02*
X0210501Y0042431D01*
X0209911Y0042431D01*
X0209911Y0044793D01*
X0209911Y0043021D02*
X0210501Y0043021D01*
X0210501Y0043611D02*
X0209911Y0043611D01*
X0209911Y0044201D02*
X0210501Y0044201D01*
X0210501Y0044791D02*
X0209911Y0044791D01*
X0207942Y0044793D02*
X0207352Y0044793D01*
X0207942Y0044793D02*
X0207942Y0042431D01*
X0207352Y0042431D01*
X0207352Y0044793D01*
X0207352Y0043021D02*
X0207942Y0043021D01*
X0207942Y0043611D02*
X0207352Y0043611D01*
X0207352Y0044201D02*
X0207942Y0044201D01*
X0207942Y0044791D02*
X0207352Y0044791D01*
X0205383Y0044793D02*
X0204793Y0044793D01*
X0205383Y0044793D02*
X0205383Y0042431D01*
X0204793Y0042431D01*
X0204793Y0044793D01*
X0204793Y0043021D02*
X0205383Y0043021D01*
X0205383Y0043611D02*
X0204793Y0043611D01*
X0204793Y0044201D02*
X0205383Y0044201D01*
X0205383Y0044791D02*
X0204793Y0044791D01*
X0201545Y0048632D02*
X0199183Y0048632D01*
X0201545Y0048632D02*
X0201545Y0048042D01*
X0199183Y0048042D01*
X0199183Y0048632D01*
X0201545Y0048632D01*
X0201545Y0051191D02*
X0199183Y0051191D01*
X0201545Y0051191D02*
X0201545Y0050601D01*
X0199183Y0050601D01*
X0199183Y0051191D01*
X0201545Y0051191D01*
X0201545Y0053750D02*
X0199183Y0053750D01*
X0201545Y0053750D02*
X0201545Y0053160D01*
X0199183Y0053160D01*
X0199183Y0053750D01*
X0201545Y0053750D01*
X0200364Y0053455D02*
X0189537Y0053455D01*
X0188552Y0052471D01*
X0188552Y0043612D01*
X0199183Y0056309D02*
X0201545Y0056309D01*
X0201545Y0055719D01*
X0199183Y0055719D01*
X0199183Y0056309D01*
X0201545Y0056309D01*
X0201545Y0058868D02*
X0199183Y0058868D01*
X0201545Y0058868D02*
X0201545Y0058278D01*
X0199183Y0058278D01*
X0199183Y0058868D01*
X0201545Y0058868D01*
X0341702Y0162412D02*
X0341702Y0163002D01*
X0341702Y0162412D02*
X0339340Y0162412D01*
X0339340Y0163002D01*
X0341702Y0163002D01*
X0339340Y0163002D01*
X0341702Y0164971D02*
X0341702Y0165561D01*
X0341702Y0164971D02*
X0339340Y0164971D01*
X0339340Y0165561D01*
X0341702Y0165561D01*
X0339340Y0165561D01*
X0341702Y0167530D02*
X0341702Y0168120D01*
X0341702Y0167530D02*
X0339340Y0167530D01*
X0339340Y0168120D01*
X0341702Y0168120D01*
X0339340Y0168120D01*
X0341702Y0170089D02*
X0341702Y0170679D01*
X0341702Y0170089D02*
X0339340Y0170089D01*
X0339340Y0170679D01*
X0341702Y0170679D01*
X0339340Y0170679D01*
X0341702Y0172648D02*
X0341702Y0173238D01*
X0341702Y0172648D02*
X0339340Y0172648D01*
X0339340Y0173238D01*
X0341702Y0173238D01*
X0339340Y0173238D01*
X0345540Y0176486D02*
X0345540Y0178848D01*
X0345540Y0176486D02*
X0344950Y0176486D01*
X0344950Y0178848D01*
X0345540Y0178848D01*
X0345540Y0177076D02*
X0344950Y0177076D01*
X0344950Y0177666D02*
X0345540Y0177666D01*
X0345540Y0178256D02*
X0344950Y0178256D01*
X0344950Y0178846D02*
X0345540Y0178846D01*
X0348099Y0178848D02*
X0348099Y0176486D01*
X0347509Y0176486D01*
X0347509Y0178848D01*
X0348099Y0178848D01*
X0348099Y0177076D02*
X0347509Y0177076D01*
X0347509Y0177666D02*
X0348099Y0177666D01*
X0348099Y0178256D02*
X0347509Y0178256D01*
X0347509Y0178846D02*
X0348099Y0178846D01*
X0350659Y0178848D02*
X0350659Y0176486D01*
X0350069Y0176486D01*
X0350069Y0178848D01*
X0350659Y0178848D01*
X0350659Y0177076D02*
X0350069Y0177076D01*
X0350069Y0177666D02*
X0350659Y0177666D01*
X0350659Y0178256D02*
X0350069Y0178256D01*
X0350069Y0178846D02*
X0350659Y0178846D01*
X0353218Y0178848D02*
X0353218Y0176486D01*
X0352628Y0176486D01*
X0352628Y0178848D01*
X0353218Y0178848D01*
X0353218Y0177076D02*
X0352628Y0177076D01*
X0352628Y0177666D02*
X0353218Y0177666D01*
X0353218Y0178256D02*
X0352628Y0178256D01*
X0352628Y0178846D02*
X0353218Y0178846D01*
X0355777Y0178848D02*
X0355777Y0176486D01*
X0355187Y0176486D01*
X0355187Y0178848D01*
X0355777Y0178848D01*
X0355777Y0177076D02*
X0355187Y0177076D01*
X0355187Y0177666D02*
X0355777Y0177666D01*
X0355777Y0178256D02*
X0355187Y0178256D01*
X0355187Y0178846D02*
X0355777Y0178846D01*
X0361387Y0173238D02*
X0361387Y0172648D01*
X0359025Y0172648D01*
X0359025Y0173238D01*
X0361387Y0173238D01*
X0359025Y0173238D01*
X0361387Y0170679D02*
X0361387Y0170089D01*
X0359025Y0170089D01*
X0359025Y0170679D01*
X0361387Y0170679D01*
X0359025Y0170679D01*
X0361387Y0168120D02*
X0361387Y0167530D01*
X0359025Y0167530D01*
X0359025Y0168120D01*
X0361387Y0168120D01*
X0359025Y0168120D01*
X0361387Y0165561D02*
X0361387Y0164971D01*
X0359025Y0164971D01*
X0359025Y0165561D01*
X0361387Y0165561D01*
X0359025Y0165561D01*
X0361387Y0163002D02*
X0361387Y0162412D01*
X0359025Y0162412D01*
X0359025Y0163002D01*
X0361387Y0163002D01*
X0359025Y0163002D01*
X0355777Y0159163D02*
X0355777Y0156801D01*
X0355187Y0156801D01*
X0355187Y0159163D01*
X0355777Y0159163D01*
X0355777Y0157391D02*
X0355187Y0157391D01*
X0355187Y0157981D02*
X0355777Y0157981D01*
X0355777Y0158571D02*
X0355187Y0158571D01*
X0355187Y0159161D02*
X0355777Y0159161D01*
X0353218Y0159163D02*
X0353218Y0156801D01*
X0352628Y0156801D01*
X0352628Y0159163D01*
X0353218Y0159163D01*
X0353218Y0157391D02*
X0352628Y0157391D01*
X0352628Y0157981D02*
X0353218Y0157981D01*
X0353218Y0158571D02*
X0352628Y0158571D01*
X0352628Y0159161D02*
X0353218Y0159161D01*
X0350659Y0159163D02*
X0350659Y0156801D01*
X0350069Y0156801D01*
X0350069Y0159163D01*
X0350659Y0159163D01*
X0350659Y0157391D02*
X0350069Y0157391D01*
X0350069Y0157981D02*
X0350659Y0157981D01*
X0350659Y0158571D02*
X0350069Y0158571D01*
X0350069Y0159161D02*
X0350659Y0159161D01*
X0348099Y0159163D02*
X0348099Y0156801D01*
X0347509Y0156801D01*
X0347509Y0159163D01*
X0348099Y0159163D01*
X0348099Y0157391D02*
X0347509Y0157391D01*
X0347509Y0157981D02*
X0348099Y0157981D01*
X0348099Y0158571D02*
X0347509Y0158571D01*
X0347509Y0159161D02*
X0348099Y0159161D01*
X0345540Y0159163D02*
X0345540Y0156801D01*
X0344950Y0156801D01*
X0344950Y0159163D01*
X0345540Y0159163D01*
X0345540Y0157391D02*
X0344950Y0157391D01*
X0344950Y0157981D02*
X0345540Y0157981D01*
X0345540Y0158571D02*
X0344950Y0158571D01*
X0344950Y0159161D02*
X0345540Y0159161D01*
X0345540Y0161801D02*
X0345540Y0164163D01*
X0345540Y0161801D02*
X0344950Y0161801D01*
X0344950Y0164163D01*
X0345540Y0164163D01*
X0345540Y0162391D02*
X0344950Y0162391D01*
X0344950Y0162981D02*
X0345540Y0162981D01*
X0345540Y0163571D02*
X0344950Y0163571D01*
X0344950Y0164161D02*
X0345540Y0164161D01*
D23*
X0344163Y0164138D02*
X0356564Y0164138D01*
X0356564Y0163640D02*
X0344163Y0163640D01*
X0344163Y0163141D02*
X0356564Y0163141D01*
X0356564Y0162643D02*
X0344163Y0162643D01*
X0344163Y0162144D02*
X0356564Y0162144D01*
X0356564Y0161646D02*
X0344163Y0161646D01*
X0344163Y0161624D02*
X0356564Y0161624D01*
X0356564Y0174026D01*
X0344163Y0174026D01*
X0344163Y0161624D01*
X0344163Y0164637D02*
X0356564Y0164637D01*
X0356564Y0165135D02*
X0344163Y0165135D01*
X0344163Y0165634D02*
X0356564Y0165634D01*
X0356564Y0166133D02*
X0344163Y0166133D01*
X0344163Y0166631D02*
X0356564Y0166631D01*
X0356564Y0167130D02*
X0344163Y0167130D01*
X0344163Y0167628D02*
X0356564Y0167628D01*
X0356564Y0168127D02*
X0344163Y0168127D01*
X0344163Y0168625D02*
X0356564Y0168625D01*
X0356564Y0169124D02*
X0344163Y0169124D01*
X0344163Y0169622D02*
X0356564Y0169622D01*
X0356564Y0170121D02*
X0344163Y0170121D01*
X0344163Y0170619D02*
X0356564Y0170619D01*
X0356564Y0171118D02*
X0344163Y0171118D01*
X0344163Y0171616D02*
X0356564Y0171616D01*
X0356564Y0172115D02*
X0344163Y0172115D01*
X0344163Y0172613D02*
X0356564Y0172613D01*
X0356564Y0173112D02*
X0344163Y0173112D01*
X0344163Y0173610D02*
X0356564Y0173610D01*
X0216407Y0059656D02*
X0204005Y0059656D01*
X0204005Y0047254D01*
X0216407Y0047254D01*
X0216407Y0059656D01*
X0216407Y0059451D02*
X0204005Y0059451D01*
X0204005Y0058953D02*
X0216407Y0058953D01*
X0216407Y0058454D02*
X0204005Y0058454D01*
X0204005Y0057956D02*
X0216407Y0057956D01*
X0216407Y0057457D02*
X0204005Y0057457D01*
X0204005Y0056959D02*
X0216407Y0056959D01*
X0216407Y0056460D02*
X0204005Y0056460D01*
X0204005Y0055962D02*
X0216407Y0055962D01*
X0216407Y0055463D02*
X0204005Y0055463D01*
X0204005Y0054964D02*
X0216407Y0054964D01*
X0216407Y0054466D02*
X0204005Y0054466D01*
X0204005Y0053967D02*
X0216407Y0053967D01*
X0216407Y0053469D02*
X0204005Y0053469D01*
X0204005Y0052970D02*
X0216407Y0052970D01*
X0216407Y0052472D02*
X0204005Y0052472D01*
X0204005Y0051973D02*
X0216407Y0051973D01*
X0216407Y0051475D02*
X0204005Y0051475D01*
X0204005Y0050976D02*
X0216407Y0050976D01*
X0216407Y0050478D02*
X0204005Y0050478D01*
X0204005Y0049979D02*
X0216407Y0049979D01*
X0216407Y0049481D02*
X0204005Y0049481D01*
X0204005Y0048982D02*
X0216407Y0048982D01*
X0216407Y0048484D02*
X0204005Y0048484D01*
X0204005Y0047985D02*
X0216407Y0047985D01*
X0216407Y0047487D02*
X0204005Y0047487D01*
D24*
X0204301Y0076045D03*
X0204301Y0082045D03*
X0194458Y0082045D03*
X0194458Y0076045D03*
X0184615Y0076045D03*
X0184615Y0082045D03*
X0174773Y0082045D03*
X0174773Y0076045D03*
X0214143Y0076045D03*
X0214143Y0082045D03*
X0223986Y0082045D03*
X0223986Y0076045D03*
X0233828Y0076045D03*
X0233828Y0082045D03*
X0243671Y0082045D03*
X0243671Y0076045D03*
X0291702Y0088447D03*
X0291702Y0094447D03*
D25*
X0213206Y0035738D03*
X0207206Y0035738D03*
X0378466Y0115660D03*
X0384466Y0115660D03*
X0384466Y0124518D03*
X0378466Y0124518D03*
X0378466Y0133376D03*
X0384466Y0133376D03*
X0384466Y0142234D03*
X0378466Y0142234D03*
X0378466Y0151093D03*
X0384466Y0151093D03*
X0384466Y0159951D03*
X0378466Y0159951D03*
X0378466Y0168809D03*
X0384466Y0168809D03*
X0384466Y0177667D03*
X0378466Y0177667D03*
D26*
X0324119Y0154549D03*
X0313096Y0154549D03*
X0311190Y0200896D03*
X0322214Y0200896D03*
D27*
X0313749Y0220384D03*
X0313749Y0233770D03*
X0281072Y0110345D03*
X0271230Y0110345D03*
X0271230Y0096959D03*
X0281072Y0096959D03*
X0242686Y0099912D03*
X0232844Y0099912D03*
X0232844Y0113297D03*
X0242686Y0113297D03*
X0160993Y0109360D03*
X0149182Y0109360D03*
X0149182Y0095975D03*
X0160993Y0095975D03*
X0127529Y0095975D03*
X0115718Y0095975D03*
X0115718Y0109360D03*
X0127529Y0109360D03*
D28*
X0309025Y0260345D03*
X0309025Y0310345D03*
X0213395Y0309360D03*
X0213395Y0293612D03*
X0213395Y0277077D03*
X0183395Y0277077D03*
X0183395Y0293612D03*
X0183395Y0309360D03*
D29*
X0248592Y0037510D03*
X0248592Y0026486D03*
D30*
X0313096Y0144549D03*
X0324119Y0144549D03*
D31*
X0090049Y0194636D03*
X0070049Y0194636D03*
X0060049Y0194636D03*
X0050049Y0194636D03*
X0050049Y0214636D03*
X0060049Y0214636D03*
X0070049Y0214636D03*
X0090049Y0214636D03*
D32*
X0116505Y0238888D02*
X0116505Y0256604D01*
X0117293Y0257392D01*
X0240127Y0257392D01*
X0251545Y0268809D01*
X0226741Y0293612D01*
X0213395Y0293612D01*
X0251545Y0268809D02*
X0281151Y0298415D01*
X0281151Y0309990D01*
X0320797Y0177667D02*
X0301938Y0158809D01*
X0301938Y0156809D01*
X0117293Y0257392D02*
X0116505Y0257392D01*
X0102647Y0271250D01*
X0085797Y0271250D01*
X0076348Y0271250D01*
X0060521Y0255423D01*
X0050364Y0255423D01*
X0076033Y0271250D02*
X0076348Y0271250D01*
X0050364Y0227864D02*
X0050049Y0227549D01*
X0050049Y0214636D01*
X0050049Y0194636D01*
X0042489Y0187077D01*
X0028789Y0200778D01*
X0016505Y0200778D01*
X0042489Y0187077D02*
X0042489Y0161809D01*
X0042135Y0161455D02*
X0042135Y0134644D01*
X0062875Y0125888D02*
X0062875Y0112156D01*
X0056143Y0105423D01*
X0025663Y0105423D01*
X0018867Y0098628D01*
X0012135Y0105360D01*
X0012135Y0148644D01*
X0062875Y0125888D02*
X0076741Y0139754D01*
X0076348Y0139754D01*
X0076741Y0139754D02*
X0093671Y0139754D01*
X0085403Y0105817D02*
X0085403Y0082817D01*
X0085403Y0050077D02*
X0085403Y0027077D01*
X0050419Y0027077D01*
X0018867Y0058628D01*
X0018867Y0078628D02*
X0045348Y0078628D01*
X0048875Y0082156D01*
D33*
X0081860Y0227864D02*
X0068080Y0241644D01*
X0017371Y0241644D01*
X0016505Y0240778D01*
D34*
X0116505Y0238888D03*
D35*
X0242686Y0120384D02*
X0252293Y0129990D01*
X0271151Y0129990D01*
X0275167Y0120384D02*
X0281072Y0126289D01*
X0281072Y0133376D01*
X0286978Y0139282D01*
X0301938Y0139282D01*
X0301938Y0156809D01*
X0301938Y0139282D02*
X0301938Y0118415D01*
X0296820Y0113297D01*
X0296820Y0100699D01*
X0293080Y0096959D01*
X0290521Y0096959D01*
X0288946Y0096959D01*
X0281072Y0096959D01*
X0291702Y0088447D02*
X0343277Y0088447D01*
X0343277Y0094400D01*
X0291151Y0126526D02*
X0291151Y0129990D01*
X0291151Y0126526D02*
X0281072Y0116447D01*
X0281072Y0110345D01*
X0281072Y0111329D01*
X0281269Y0111526D01*
X0281072Y0110345D02*
X0271230Y0110345D01*
X0275167Y0120384D02*
X0266308Y0120384D01*
X0257450Y0111526D01*
X0257450Y0102667D01*
X0253513Y0098730D01*
X0250560Y0098730D01*
X0242883Y0098730D01*
X0242686Y0113297D02*
X0232844Y0113297D01*
X0242686Y0113297D02*
X0242686Y0120384D01*
X0320797Y0177667D02*
X0328710Y0177667D01*
X0328710Y0188100D01*
X0328710Y0192825D01*
X0328710Y0195423D01*
X0330560Y0197274D01*
X0347332Y0214045D01*
X0341308Y0177667D02*
X0328710Y0177667D01*
X0308671Y0309990D02*
X0281151Y0309990D01*
X0308671Y0309990D02*
X0309025Y0310345D01*
X0200364Y0043612D02*
X0200364Y0041644D01*
X0200364Y0038691D01*
X0203316Y0035738D01*
X0207206Y0035738D01*
D36*
X0214143Y0035738D02*
X0214143Y0036088D01*
X0217093Y0036088D01*
X0217093Y0039097D01*
X0216985Y0039501D01*
X0216776Y0039863D01*
X0216481Y0040159D01*
X0216119Y0040367D01*
X0215715Y0040476D01*
X0214143Y0040476D01*
X0214143Y0040769D01*
X0214302Y0040677D01*
X0214781Y0040549D01*
X0215324Y0040549D01*
X0215324Y0043612D01*
X0215324Y0043612D01*
X0215324Y0040549D01*
X0215867Y0040549D01*
X0216346Y0040677D01*
X0216775Y0040925D01*
X0217126Y0041275D01*
X0217374Y0041705D01*
X0217502Y0042183D01*
X0217502Y0043612D01*
X0215324Y0043612D01*
X0215324Y0043612D01*
X0217502Y0043612D01*
X0217502Y0044597D01*
X0218080Y0044597D01*
X0218080Y0046322D01*
X0218141Y0046287D01*
X0218620Y0046159D01*
X0220048Y0046159D01*
X0220048Y0048337D01*
X0220048Y0048337D01*
X0218080Y0048337D01*
X0218080Y0048337D01*
X0220048Y0048337D01*
X0220048Y0048915D01*
X0220049Y0048915D01*
X0220049Y0048337D01*
X0223112Y0048337D01*
X0223112Y0048880D01*
X0222984Y0049359D01*
X0222760Y0049747D01*
X0222915Y0049902D01*
X0222915Y0050699D01*
X0316112Y0050699D01*
X0333434Y0033376D01*
X0351938Y0033376D01*
X0366899Y0048337D01*
X0366899Y0062904D01*
X0370049Y0066053D01*
X0390521Y0066053D01*
X0392883Y0063691D01*
X0392883Y0047759D01*
X0384431Y0047759D01*
X0380335Y0046428D01*
X0376851Y0043897D01*
X0374320Y0040413D01*
X0374320Y0040413D01*
X0372989Y0036317D01*
X0372989Y0018022D01*
X0274182Y0018022D01*
X0257253Y0034951D01*
X0256860Y0034951D01*
X0255494Y0034976D01*
X0255494Y0036735D01*
X0249367Y0036735D01*
X0249367Y0038285D01*
X0255494Y0038285D01*
X0255494Y0040869D01*
X0255386Y0041272D01*
X0255177Y0041634D01*
X0254881Y0041930D01*
X0254520Y0042139D01*
X0254116Y0042247D01*
X0249367Y0042247D01*
X0249367Y0038285D01*
X0247817Y0038285D01*
X0247817Y0042247D01*
X0243068Y0042247D01*
X0242664Y0042139D01*
X0242660Y0042136D01*
X0242315Y0042336D01*
X0241911Y0042444D01*
X0238934Y0042444D01*
X0238934Y0038482D01*
X0241689Y0038482D01*
X0241689Y0038285D01*
X0247817Y0038285D01*
X0247817Y0036735D01*
X0243289Y0036735D01*
X0243289Y0036932D01*
X0238934Y0036932D01*
X0238934Y0038482D01*
X0237384Y0038482D01*
X0237384Y0042444D01*
X0234406Y0042444D01*
X0234003Y0042336D01*
X0233641Y0042127D01*
X0233345Y0041831D01*
X0233136Y0041469D01*
X0233028Y0041065D01*
X0233028Y0039964D01*
X0232834Y0040158D01*
X0232472Y0040367D01*
X0232069Y0040475D01*
X0230075Y0040475D01*
X0230075Y0036907D01*
X0229707Y0036907D01*
X0229707Y0040475D01*
X0227714Y0040475D01*
X0227310Y0040367D01*
X0226948Y0040158D01*
X0226652Y0039863D01*
X0226443Y0039501D01*
X0226335Y0039097D01*
X0226335Y0036907D01*
X0229707Y0036907D01*
X0229707Y0036538D01*
X0226335Y0036538D01*
X0226335Y0035514D01*
X0224786Y0035542D01*
X0224786Y0036538D01*
X0221414Y0036538D01*
X0221414Y0036907D01*
X0221045Y0036907D01*
X0221045Y0036538D01*
X0217674Y0036538D01*
X0217674Y0035673D01*
X0214143Y0035738D01*
X0217093Y0036550D02*
X0221045Y0036550D01*
X0221045Y0036907D02*
X0217674Y0036907D01*
X0217674Y0039097D01*
X0217782Y0039501D01*
X0217991Y0039863D01*
X0218286Y0040158D01*
X0218648Y0040367D01*
X0219052Y0040475D01*
X0221045Y0040475D01*
X0221045Y0036907D01*
X0221414Y0036907D02*
X0221414Y0040475D01*
X0223407Y0040475D01*
X0223811Y0040367D01*
X0224173Y0040158D01*
X0224468Y0039863D01*
X0224677Y0039501D01*
X0224786Y0039097D01*
X0224786Y0036907D01*
X0221414Y0036907D01*
X0221414Y0036550D02*
X0229707Y0036550D01*
X0229707Y0038149D02*
X0230075Y0038149D01*
X0230075Y0039747D02*
X0229707Y0039747D01*
X0226586Y0039747D02*
X0224535Y0039747D01*
X0224786Y0038149D02*
X0226335Y0038149D01*
X0233103Y0041346D02*
X0217167Y0041346D01*
X0216843Y0039747D02*
X0217924Y0039747D01*
X0217674Y0038149D02*
X0217093Y0038149D01*
X0215324Y0041346D02*
X0215324Y0041346D01*
X0215324Y0042944D02*
X0215324Y0042944D01*
X0217502Y0042944D02*
X0284664Y0042944D01*
X0284469Y0042892D02*
X0283526Y0042501D01*
X0282642Y0041991D01*
X0281832Y0041370D01*
X0281110Y0040648D01*
X0280489Y0039838D01*
X0279978Y0038954D01*
X0279588Y0038011D01*
X0279324Y0037025D01*
X0279190Y0036012D01*
X0279190Y0035702D01*
X0286778Y0035702D01*
X0286778Y0043289D01*
X0286467Y0043289D01*
X0285455Y0043156D01*
X0284469Y0042892D01*
X0286778Y0042944D02*
X0287178Y0042944D01*
X0287178Y0043289D02*
X0287178Y0035702D01*
X0294765Y0035702D01*
X0294765Y0036012D01*
X0294632Y0037025D01*
X0294368Y0038011D01*
X0293977Y0038954D01*
X0293467Y0039838D01*
X0292845Y0040648D01*
X0292123Y0041370D01*
X0291313Y0041991D01*
X0290429Y0042501D01*
X0289486Y0042892D01*
X0288500Y0043156D01*
X0287488Y0043289D01*
X0287178Y0043289D01*
X0287178Y0041346D02*
X0286778Y0041346D01*
X0286778Y0039747D02*
X0287178Y0039747D01*
X0287178Y0038149D02*
X0286778Y0038149D01*
X0286778Y0036550D02*
X0287178Y0036550D01*
X0287178Y0035702D02*
X0286778Y0035702D01*
X0286778Y0035302D01*
X0287178Y0035302D01*
X0287178Y0035702D01*
X0287178Y0035302D02*
X0294765Y0035302D01*
X0294765Y0034992D01*
X0294632Y0033980D01*
X0294368Y0032994D01*
X0293977Y0032050D01*
X0293467Y0031166D01*
X0292845Y0030356D01*
X0292123Y0029635D01*
X0291313Y0029013D01*
X0290429Y0028503D01*
X0289486Y0028112D01*
X0288500Y0027848D01*
X0287488Y0027715D01*
X0287178Y0027715D01*
X0287178Y0035302D01*
X0287178Y0034952D02*
X0286778Y0034952D01*
X0286778Y0035302D02*
X0286778Y0027715D01*
X0286467Y0027715D01*
X0285455Y0027848D01*
X0284469Y0028112D01*
X0283526Y0028503D01*
X0282642Y0029013D01*
X0281832Y0029635D01*
X0281110Y0030356D01*
X0280489Y0031166D01*
X0279978Y0032050D01*
X0279588Y0032994D01*
X0279324Y0033980D01*
X0279190Y0034992D01*
X0279190Y0035302D01*
X0286778Y0035302D01*
X0286778Y0033353D02*
X0287178Y0033353D01*
X0287178Y0031755D02*
X0286778Y0031755D01*
X0286778Y0030156D02*
X0287178Y0030156D01*
X0287178Y0028558D02*
X0286778Y0028558D01*
X0283431Y0028558D02*
X0263647Y0028558D01*
X0262048Y0030156D02*
X0281311Y0030156D01*
X0280149Y0031755D02*
X0260450Y0031755D01*
X0258851Y0033353D02*
X0279491Y0033353D01*
X0279196Y0034952D02*
X0256820Y0034952D01*
X0255494Y0036550D02*
X0279261Y0036550D01*
X0279645Y0038149D02*
X0249367Y0038149D01*
X0247817Y0038149D02*
X0238934Y0038149D01*
X0238934Y0039747D02*
X0237384Y0039747D01*
X0237384Y0041346D02*
X0238934Y0041346D01*
X0247817Y0041346D02*
X0249367Y0041346D01*
X0249367Y0039747D02*
X0247817Y0039747D01*
X0255494Y0039747D02*
X0280436Y0039747D01*
X0281808Y0041346D02*
X0255344Y0041346D01*
X0265245Y0026959D02*
X0372989Y0026959D01*
X0372989Y0025361D02*
X0266844Y0025361D01*
X0268442Y0023762D02*
X0372989Y0023762D01*
X0372989Y0022164D02*
X0270041Y0022164D01*
X0271639Y0020565D02*
X0372989Y0020565D01*
X0372989Y0018966D02*
X0273238Y0018966D01*
X0290524Y0028558D02*
X0372989Y0028558D01*
X0372989Y0030156D02*
X0292645Y0030156D01*
X0293806Y0031755D02*
X0372989Y0031755D01*
X0372989Y0033353D02*
X0294464Y0033353D01*
X0294760Y0034952D02*
X0331859Y0034952D01*
X0330260Y0036550D02*
X0294694Y0036550D01*
X0294310Y0038149D02*
X0328662Y0038149D01*
X0327063Y0039747D02*
X0293519Y0039747D01*
X0292147Y0041346D02*
X0325465Y0041346D01*
X0323866Y0042944D02*
X0289292Y0042944D01*
X0317472Y0049338D02*
X0222990Y0049338D01*
X0223112Y0048337D02*
X0220049Y0048337D01*
X0220049Y0048337D01*
X0220048Y0048337D01*
X0220049Y0048337D02*
X0220049Y0045581D01*
X0218080Y0043612D01*
X0220049Y0048337D01*
X0220049Y0046159D01*
X0221478Y0046159D01*
X0221956Y0046287D01*
X0222386Y0046535D01*
X0222736Y0046885D01*
X0222984Y0047315D01*
X0223112Y0047794D01*
X0223112Y0048337D01*
X0223098Y0047740D02*
X0319071Y0047740D01*
X0320669Y0046141D02*
X0218080Y0046141D01*
X0217502Y0044543D02*
X0322268Y0044543D01*
X0353514Y0034952D02*
X0372989Y0034952D01*
X0373065Y0036550D02*
X0355112Y0036550D01*
X0356711Y0038149D02*
X0373584Y0038149D01*
X0374103Y0039747D02*
X0358309Y0039747D01*
X0359908Y0041346D02*
X0374997Y0041346D01*
X0376159Y0042944D02*
X0361506Y0042944D01*
X0363105Y0044543D02*
X0377740Y0044543D01*
X0376851Y0043897D02*
X0376851Y0043897D01*
X0379940Y0046141D02*
X0364703Y0046141D01*
X0366302Y0047740D02*
X0384372Y0047740D01*
X0381521Y0052076D02*
X0380818Y0051565D01*
X0380043Y0051170D01*
X0379216Y0050901D01*
X0378402Y0050772D01*
X0378402Y0055810D01*
X0377443Y0055810D01*
X0372405Y0055810D01*
X0372534Y0054996D01*
X0372803Y0054169D01*
X0373198Y0053394D01*
X0373709Y0052691D01*
X0374324Y0052076D01*
X0375027Y0051565D01*
X0375802Y0051170D01*
X0376629Y0050901D01*
X0377443Y0050772D01*
X0377443Y0055810D01*
X0377443Y0056769D01*
X0372405Y0056769D01*
X0372534Y0057583D01*
X0372803Y0058410D01*
X0373198Y0059185D01*
X0373709Y0059888D01*
X0374324Y0060503D01*
X0375027Y0061014D01*
X0375802Y0061409D01*
X0376629Y0061678D01*
X0377443Y0061807D01*
X0377443Y0056769D01*
X0378402Y0056769D01*
X0378402Y0061807D01*
X0379216Y0061678D01*
X0380043Y0061409D01*
X0380818Y0061014D01*
X0381521Y0060503D01*
X0382136Y0059888D01*
X0382647Y0059185D01*
X0383042Y0058410D01*
X0383311Y0057583D01*
X0383440Y0056769D01*
X0378402Y0056769D01*
X0378402Y0055810D01*
X0383440Y0055810D01*
X0383311Y0054996D01*
X0383042Y0054169D01*
X0382647Y0053394D01*
X0382136Y0052691D01*
X0381521Y0052076D01*
X0381981Y0052535D02*
X0392883Y0052535D01*
X0392883Y0050937D02*
X0379326Y0050937D01*
X0378402Y0050937D02*
X0377443Y0050937D01*
X0376519Y0050937D02*
X0366899Y0050937D01*
X0366899Y0052535D02*
X0373864Y0052535D01*
X0372821Y0054134D02*
X0366899Y0054134D01*
X0366899Y0055732D02*
X0372418Y0055732D01*
X0372494Y0057331D02*
X0366899Y0057331D01*
X0366899Y0058929D02*
X0373067Y0058929D01*
X0374357Y0060528D02*
X0366899Y0060528D01*
X0366899Y0062126D02*
X0392883Y0062126D01*
X0392883Y0060528D02*
X0381488Y0060528D01*
X0382778Y0058929D02*
X0392883Y0058929D01*
X0392883Y0057331D02*
X0383351Y0057331D01*
X0383428Y0055732D02*
X0392883Y0055732D01*
X0392883Y0054134D02*
X0383024Y0054134D01*
X0378402Y0054134D02*
X0377443Y0054134D01*
X0377443Y0055732D02*
X0378402Y0055732D01*
X0378402Y0057331D02*
X0377443Y0057331D01*
X0377443Y0058929D02*
X0378402Y0058929D01*
X0378402Y0060528D02*
X0377443Y0060528D01*
X0369319Y0065323D02*
X0391251Y0065323D01*
X0392849Y0063725D02*
X0367720Y0063725D01*
X0377443Y0052535D02*
X0378402Y0052535D01*
X0366899Y0049338D02*
X0392883Y0049338D01*
X0288946Y0096959D02*
X0288946Y0105226D01*
X0288946Y0111919D02*
X0281663Y0111919D01*
X0281269Y0111526D01*
X0271033Y0111526D02*
X0266308Y0111526D01*
X0263356Y0108573D01*
X0263356Y0101093D01*
X0263356Y0095187D02*
X0271623Y0095187D01*
X0271230Y0096959D01*
X0271230Y0101683D01*
X0271230Y0096959D02*
X0271230Y0088888D01*
X0263356Y0088888D02*
X0263356Y0094400D01*
X0262962Y0094793D02*
X0258631Y0094793D01*
X0250560Y0098730D02*
X0250560Y0108179D01*
X0250560Y0114872D02*
X0242883Y0114872D01*
X0242686Y0113297D01*
X0232844Y0113297D02*
X0228316Y0113297D01*
X0224970Y0109951D01*
X0224773Y0103061D02*
X0224773Y0097943D01*
X0232253Y0097943D01*
X0232844Y0099912D02*
X0232844Y0104636D01*
X0232844Y0099912D02*
X0232844Y0091841D01*
X0220048Y0048337D02*
X0220049Y0048337D01*
X0220048Y0047740D02*
X0220049Y0047740D01*
X0221045Y0039747D02*
X0221414Y0039747D01*
X0221414Y0038149D02*
X0221045Y0038149D01*
X0199379Y0030030D02*
X0192489Y0030030D01*
X0192489Y0036723D02*
X0192489Y0043612D01*
X0184222Y0043219D02*
X0184222Y0036723D01*
X0175560Y0039282D02*
X0175560Y0043612D01*
X0165521Y0095975D02*
X0160993Y0095975D01*
X0165521Y0095975D02*
X0168867Y0099321D01*
X0168867Y0106014D02*
X0165521Y0109360D01*
X0160993Y0109360D01*
X0149182Y0109360D02*
X0144655Y0109360D01*
X0141308Y0106014D01*
X0135403Y0106014D02*
X0132056Y0109360D01*
X0127529Y0109360D01*
X0135403Y0099321D02*
X0132056Y0095975D01*
X0127529Y0095975D01*
X0115718Y0109360D02*
X0111190Y0109360D01*
X0107844Y0106014D01*
X0307056Y0145061D02*
X0314537Y0145061D01*
X0313608Y0144549D02*
X0313096Y0144549D01*
X0313608Y0144549D02*
X0313608Y0135549D01*
X0326608Y0168502D02*
X0326608Y0173156D01*
X0334608Y0173156D02*
X0334608Y0168502D01*
X0329104Y0184557D02*
X0329104Y0184754D01*
X0323986Y0184754D01*
X0316505Y0185148D02*
X0310993Y0185148D01*
X0323198Y0193022D02*
X0328710Y0193022D01*
X0328710Y0192825D01*
X0330167Y0197274D02*
X0330560Y0197274D01*
X0330167Y0197274D02*
X0326545Y0200896D01*
X0322214Y0200896D01*
D37*
X0160993Y0109360D02*
X0149182Y0109360D01*
X0149182Y0118415D01*
X0137608Y0129990D01*
X0131151Y0129990D01*
X0115718Y0118415D02*
X0115718Y0109360D01*
X0127529Y0109360D01*
X0127529Y0095975D02*
X0127529Y0080266D01*
X0139340Y0068455D01*
X0140560Y0068455D01*
X0160993Y0088888D01*
X0160993Y0095975D01*
X0139340Y0068455D02*
X0164182Y0043612D01*
X0175560Y0043612D01*
X0180678Y0043612D01*
X0188552Y0043612D01*
X0192489Y0043612D01*
X0200364Y0043612D01*
X0115718Y0118415D02*
X0111151Y0122982D01*
X0111151Y0129990D01*
D38*
X0107844Y0099321D02*
X0107844Y0094793D01*
X0115718Y0095975D02*
X0115718Y0088888D01*
X0116899Y0094793D02*
X0121623Y0094793D01*
X0116899Y0094793D02*
X0115718Y0095975D01*
X0141308Y0094793D02*
X0141308Y0099321D01*
X0149182Y0095975D02*
X0150364Y0094793D01*
X0155088Y0094793D01*
X0149182Y0094793D02*
X0149182Y0088888D01*
X0174773Y0086919D02*
X0174773Y0082045D01*
X0174773Y0076045D02*
X0174773Y0071171D01*
X0189930Y0056014D01*
X0200364Y0056014D01*
X0200364Y0058573D02*
X0193277Y0058573D01*
X0184615Y0067234D01*
X0184615Y0076045D01*
X0184615Y0082045D02*
X0184615Y0086919D01*
X0194458Y0086919D02*
X0194458Y0082045D01*
X0194458Y0076045D02*
X0194458Y0069203D01*
X0200364Y0063297D01*
X0205088Y0063297D01*
X0207647Y0063297D02*
X0207647Y0067825D01*
X0204301Y0071171D01*
X0204301Y0076045D01*
X0204301Y0082045D02*
X0204301Y0086919D01*
X0214143Y0086919D02*
X0214143Y0082045D01*
X0214143Y0076045D02*
X0214143Y0071565D01*
X0210206Y0067628D01*
X0210206Y0063297D01*
X0212765Y0063297D02*
X0212765Y0057982D01*
X0211584Y0057982D01*
X0215324Y0063297D02*
X0217883Y0063297D01*
X0223986Y0069400D01*
X0223986Y0076045D01*
X0223986Y0082045D02*
X0223986Y0086919D01*
X0233828Y0086919D02*
X0233828Y0082045D01*
X0233828Y0076045D02*
X0233828Y0068219D01*
X0224182Y0058573D01*
X0220049Y0058573D01*
X0220049Y0056014D02*
X0232450Y0056014D01*
X0243671Y0067234D01*
X0243671Y0076045D01*
X0243671Y0082045D02*
X0250560Y0082045D01*
X0250560Y0081998D01*
X0262962Y0094793D02*
X0263356Y0095187D01*
X0262962Y0094793D02*
X0263356Y0094400D01*
X0271230Y0110345D02*
X0271033Y0111526D01*
X0290521Y0096959D02*
X0290521Y0095628D01*
X0291702Y0094447D01*
X0318080Y0053455D02*
X0335009Y0036526D01*
X0350364Y0036526D01*
X0363356Y0049518D01*
X0363356Y0057392D01*
X0364537Y0058573D01*
X0376875Y0058573D01*
X0377923Y0056289D01*
X0377923Y0076289D02*
X0377923Y0086100D01*
X0376395Y0087628D01*
X0373190Y0087628D01*
X0360206Y0100612D01*
X0360206Y0140463D01*
X0350364Y0150305D01*
X0350364Y0157982D01*
X0352923Y0157982D02*
X0352923Y0151683D01*
X0362962Y0141644D01*
X0362962Y0127077D01*
X0374379Y0115660D01*
X0378466Y0115660D01*
X0384466Y0115660D02*
X0390324Y0115660D01*
X0390324Y0124518D02*
X0384466Y0124518D01*
X0378466Y0124518D02*
X0374182Y0124518D01*
X0365718Y0132982D01*
X0365718Y0142825D01*
X0355482Y0153061D01*
X0355482Y0157982D01*
X0360206Y0162707D02*
X0362765Y0162707D01*
X0364930Y0160541D01*
X0364930Y0147549D01*
X0368474Y0144006D01*
X0368474Y0139675D01*
X0374773Y0133376D01*
X0378466Y0133376D01*
X0384466Y0133376D02*
X0390324Y0133376D01*
X0384663Y0141053D02*
X0384466Y0142234D01*
X0390324Y0142234D01*
X0390324Y0151093D02*
X0384466Y0151093D01*
X0384860Y0150502D01*
X0378466Y0151093D02*
X0374379Y0151093D01*
X0370442Y0155030D01*
X0370442Y0165266D01*
X0365324Y0170384D01*
X0360206Y0170384D01*
X0360206Y0172943D02*
X0366702Y0172943D01*
X0373198Y0166447D01*
X0373198Y0160935D01*
X0374182Y0159951D01*
X0378466Y0159951D01*
X0384466Y0159951D02*
X0390324Y0159951D01*
X0390324Y0168809D02*
X0384466Y0168809D01*
X0378466Y0168809D02*
X0374773Y0168809D01*
X0361781Y0181801D01*
X0357056Y0181801D01*
X0355482Y0180226D01*
X0355482Y0177667D01*
X0352923Y0177667D02*
X0352923Y0181211D01*
X0355875Y0184163D01*
X0367686Y0184163D01*
X0374182Y0177667D01*
X0378466Y0177667D01*
X0384466Y0177667D02*
X0390324Y0177667D01*
X0367686Y0164085D02*
X0367686Y0148730D01*
X0374182Y0142234D01*
X0378466Y0142234D01*
X0367686Y0164085D02*
X0363946Y0167825D01*
X0360206Y0167825D01*
X0360206Y0165266D02*
X0354301Y0165266D01*
X0354301Y0166447D01*
X0348789Y0163691D02*
X0348789Y0162982D01*
X0345245Y0162982D01*
X0346033Y0165266D02*
X0346033Y0166447D01*
X0346033Y0165266D02*
X0340521Y0165266D01*
X0340521Y0167825D02*
X0346033Y0167825D01*
X0346033Y0169203D01*
X0346033Y0170384D02*
X0340521Y0170384D01*
X0340521Y0172943D02*
X0340521Y0177667D01*
X0341308Y0177667D01*
X0345245Y0177667D01*
X0347804Y0177667D02*
X0347804Y0181211D01*
X0345245Y0183770D01*
X0341505Y0183770D01*
X0334812Y0183770D02*
X0334615Y0183967D01*
X0334615Y0188100D01*
X0328710Y0188100D02*
X0328710Y0184754D01*
X0329104Y0184754D01*
X0328710Y0188100D02*
X0329497Y0191250D01*
X0341702Y0191250D01*
X0350364Y0182589D01*
X0350364Y0177667D01*
X0346033Y0171959D02*
X0346033Y0170384D01*
X0340521Y0162707D02*
X0340521Y0157982D01*
X0345245Y0157982D01*
X0313608Y0154549D02*
X0313608Y0161549D01*
X0313608Y0154549D02*
X0313096Y0154549D01*
X0306608Y0154549D01*
X0313946Y0145652D02*
X0313096Y0144549D01*
X0343395Y0104730D02*
X0343395Y0094400D01*
X0343277Y0094400D01*
X0318080Y0053455D02*
X0220049Y0053455D01*
X0215049Y0049124D02*
X0214537Y0049124D01*
X0215049Y0049124D02*
X0215049Y0048337D01*
X0212765Y0049124D02*
X0212765Y0043612D01*
X0210206Y0043612D02*
X0210206Y0049124D01*
X0211584Y0049124D01*
X0212765Y0049124D01*
X0208631Y0049124D02*
X0207647Y0049124D01*
X0207647Y0043612D01*
X0205088Y0043612D02*
X0200364Y0043612D01*
X0200364Y0041644D02*
X0200364Y0048337D01*
X0200364Y0050896D02*
X0197804Y0050896D01*
X0196427Y0049518D01*
X0191899Y0049518D01*
X0185206Y0049518D02*
X0178710Y0049518D01*
X0180678Y0043612D02*
X0184222Y0043219D01*
X0184222Y0030030D02*
X0184222Y0024715D01*
X0175560Y0021959D02*
X0175560Y0027864D01*
X0175560Y0028258D02*
X0175364Y0028455D01*
X0168867Y0028455D01*
X0194064Y0023534D02*
X0199182Y0023534D01*
X0199379Y0023337D01*
X0199182Y0023534D02*
X0204301Y0023534D01*
X0221230Y0025108D02*
X0221230Y0029833D01*
X0221230Y0030030D01*
X0221230Y0029833D02*
X0225560Y0029833D01*
X0230678Y0029833D01*
X0229891Y0030030D02*
X0229891Y0025108D01*
X0236584Y0025108D01*
X0238159Y0026683D01*
X0238159Y0020581D01*
X0248789Y0020384D02*
X0248789Y0026289D01*
X0248592Y0026486D01*
X0248594Y0026525D01*
X0248600Y0026563D01*
X0248609Y0026600D01*
X0248622Y0026637D01*
X0248639Y0026672D01*
X0248658Y0026705D01*
X0248681Y0026736D01*
X0248707Y0026765D01*
X0248736Y0026791D01*
X0248767Y0026814D01*
X0248800Y0026833D01*
X0248835Y0026850D01*
X0248872Y0026863D01*
X0248909Y0026872D01*
X0248947Y0026878D01*
X0248986Y0026880D01*
X0257450Y0026880D01*
X0242883Y0098730D02*
X0242883Y0099715D01*
X0242686Y0099912D01*
X0232844Y0099912D02*
X0232647Y0098337D01*
X0224970Y0103258D02*
X0224773Y0103061D01*
X0304301Y0185148D02*
X0303907Y0189872D01*
X0311978Y0193022D02*
X0316505Y0193022D01*
X0315324Y0191447D01*
X0323198Y0185148D02*
X0323592Y0185148D01*
X0323986Y0184754D01*
X0310797Y0200502D02*
X0310797Y0207195D01*
X0311190Y0200896D02*
X0305285Y0200896D01*
X0305482Y0221171D02*
X0314537Y0221171D01*
X0314537Y0219793D01*
X0313749Y0220384D01*
X0314537Y0221171D02*
X0332253Y0221171D01*
X0368474Y0257392D01*
X0377923Y0257392D01*
X0377923Y0277392D02*
X0333907Y0233376D01*
X0313749Y0233376D01*
X0313749Y0233770D01*
X0313749Y0233376D02*
X0301545Y0233376D01*
X0267686Y0199518D01*
X0166899Y0199518D01*
X0151781Y0214636D01*
X0090049Y0214636D01*
X0090049Y0194636D02*
X0278946Y0194636D01*
X0305482Y0221171D01*
D39*
X0155088Y0094793D03*
X0149182Y0088888D03*
X0141308Y0094793D03*
X0121623Y0094793D03*
X0115718Y0088888D03*
X0107844Y0094793D03*
X0174773Y0086919D03*
X0184615Y0086919D03*
X0194458Y0086919D03*
X0204301Y0086919D03*
X0214143Y0086919D03*
X0223986Y0086919D03*
X0233828Y0086919D03*
X0250560Y0081998D03*
X0225560Y0029833D03*
X0221230Y0025108D03*
X0229891Y0025108D03*
X0238159Y0020581D03*
X0248789Y0020384D03*
X0257450Y0026880D03*
X0204301Y0023534D03*
X0194064Y0023534D03*
X0184222Y0024715D03*
X0175560Y0021959D03*
X0168867Y0028455D03*
X0178710Y0049518D03*
D40*
X0318867Y0111645D02*
X0318867Y0159628D01*
X0323054Y0164303D01*
X0323190Y0164167D01*
X0323261Y0164138D01*
X0323261Y0162203D01*
X0326214Y0162203D01*
X0326214Y0161415D01*
X0323261Y0161415D01*
X0323261Y0159471D01*
X0320788Y0159471D01*
X0320438Y0159377D01*
X0320124Y0159195D01*
X0319867Y0158939D01*
X0319686Y0158624D01*
X0319592Y0158274D01*
X0319592Y0155140D01*
X0323529Y0155140D01*
X0323529Y0153959D01*
X0319592Y0153959D01*
X0319592Y0150825D01*
X0319686Y0150474D01*
X0319708Y0150435D01*
X0319686Y0150396D01*
X0319592Y0150046D01*
X0319592Y0145140D01*
X0323529Y0145140D01*
X0323529Y0151242D01*
X0323529Y0153959D01*
X0324710Y0153959D01*
X0324710Y0155140D01*
X0328647Y0155140D01*
X0328647Y0158266D01*
X0328758Y0158266D01*
X0329108Y0158360D01*
X0329422Y0158541D01*
X0329679Y0158798D01*
X0329860Y0159112D01*
X0329954Y0159462D01*
X0329954Y0161415D01*
X0327001Y0161415D01*
X0327001Y0162203D01*
X0329954Y0162203D01*
X0329954Y0164138D01*
X0330026Y0164167D01*
X0330608Y0164749D01*
X0331190Y0164167D01*
X0331261Y0164138D01*
X0331261Y0162203D01*
X0334214Y0162203D01*
X0334214Y0161415D01*
X0335001Y0161415D01*
X0335001Y0158266D01*
X0336758Y0158266D01*
X0337108Y0158360D01*
X0337422Y0158541D01*
X0337679Y0158798D01*
X0337860Y0159112D01*
X0337954Y0159462D01*
X0337954Y0161415D01*
X0335001Y0161415D01*
X0335001Y0162203D01*
X0337667Y0162203D01*
X0337667Y0162191D01*
X0337781Y0161766D01*
X0338001Y0161384D01*
X0338313Y0161073D01*
X0338694Y0160852D01*
X0339120Y0160738D01*
X0340521Y0160738D01*
X0341489Y0160738D01*
X0341781Y0160033D01*
X0342572Y0159243D01*
X0343277Y0158951D01*
X0343277Y0157982D01*
X0343277Y0156581D01*
X0343391Y0156155D01*
X0343611Y0155774D01*
X0343923Y0155462D01*
X0344304Y0155242D01*
X0344730Y0155128D01*
X0345146Y0155128D01*
X0345892Y0154381D01*
X0346941Y0153947D01*
X0347411Y0153947D01*
X0347411Y0149321D01*
X0357844Y0138888D01*
X0357844Y0099274D01*
X0372167Y0084951D01*
X0388946Y0084951D01*
X0392686Y0081211D01*
X0392686Y0073730D01*
X0388946Y0069990D01*
X0354305Y0069990D01*
X0350396Y0072502D01*
X0345328Y0073990D01*
X0340045Y0073990D01*
X0336103Y0072833D01*
X0321623Y0087313D01*
X0321623Y0100572D01*
X0322154Y0101102D01*
X0322154Y0108359D01*
X0318867Y0111645D01*
X0318867Y0112186D02*
X0341971Y0112186D01*
X0341913Y0112179D02*
X0340954Y0111922D01*
X0340036Y0111541D01*
X0339176Y0111045D01*
X0338388Y0110440D01*
X0337685Y0109738D01*
X0337081Y0108950D01*
X0336584Y0108089D01*
X0336204Y0107171D01*
X0335947Y0106212D01*
X0335817Y0105227D01*
X0335817Y0105140D01*
X0342985Y0105140D01*
X0342985Y0104321D01*
X0335817Y0104321D01*
X0335817Y0104234D01*
X0335947Y0103249D01*
X0336204Y0102289D01*
X0336584Y0101372D01*
X0337081Y0100511D01*
X0337685Y0099723D01*
X0338388Y0099021D01*
X0339176Y0098416D01*
X0340036Y0097919D01*
X0340954Y0097539D01*
X0341913Y0097282D01*
X0342898Y0097152D01*
X0342986Y0097152D01*
X0342986Y0104321D01*
X0343804Y0104321D01*
X0343804Y0097152D01*
X0343892Y0097152D01*
X0344877Y0097282D01*
X0345836Y0097539D01*
X0346754Y0097919D01*
X0347614Y0098416D01*
X0348402Y0099021D01*
X0349105Y0099723D01*
X0349709Y0100511D01*
X0350206Y0101372D01*
X0350586Y0102289D01*
X0350843Y0103249D01*
X0350973Y0104234D01*
X0350973Y0104321D01*
X0343805Y0104321D01*
X0343805Y0105140D01*
X0350973Y0105140D01*
X0350973Y0105227D01*
X0350843Y0106212D01*
X0350586Y0107171D01*
X0350206Y0108089D01*
X0349709Y0108950D01*
X0349105Y0109738D01*
X0348402Y0110440D01*
X0347614Y0111045D01*
X0346754Y0111541D01*
X0345836Y0111922D01*
X0344877Y0112179D01*
X0343892Y0112308D01*
X0343804Y0112308D01*
X0343804Y0105140D01*
X0342986Y0105140D01*
X0342986Y0112308D01*
X0342898Y0112308D01*
X0341913Y0112179D01*
X0342986Y0112186D02*
X0343804Y0112186D01*
X0344819Y0112186D02*
X0357844Y0112186D01*
X0357844Y0111007D02*
X0347664Y0111007D01*
X0349015Y0109827D02*
X0357844Y0109827D01*
X0357844Y0108647D02*
X0349884Y0108647D01*
X0350463Y0107468D02*
X0357844Y0107468D01*
X0357844Y0106288D02*
X0350823Y0106288D01*
X0350933Y0103929D02*
X0357844Y0103929D01*
X0357844Y0105109D02*
X0343805Y0105109D01*
X0342985Y0105109D02*
X0322154Y0105109D01*
X0322154Y0106288D02*
X0335967Y0106288D01*
X0336327Y0107468D02*
X0322154Y0107468D01*
X0321865Y0108647D02*
X0336906Y0108647D01*
X0337775Y0109827D02*
X0320686Y0109827D01*
X0319506Y0111007D02*
X0339126Y0111007D01*
X0342986Y0111007D02*
X0343804Y0111007D01*
X0343804Y0109827D02*
X0342986Y0109827D01*
X0342986Y0108647D02*
X0343804Y0108647D01*
X0343804Y0107468D02*
X0342986Y0107468D01*
X0342986Y0106288D02*
X0343804Y0106288D01*
X0343804Y0103929D02*
X0342986Y0103929D01*
X0342986Y0102749D02*
X0343804Y0102749D01*
X0343804Y0101570D02*
X0342986Y0101570D01*
X0342986Y0100390D02*
X0343804Y0100390D01*
X0343804Y0099210D02*
X0342986Y0099210D01*
X0342986Y0098031D02*
X0343804Y0098031D01*
X0346947Y0098031D02*
X0359087Y0098031D01*
X0360266Y0096851D02*
X0321623Y0096851D01*
X0321623Y0095672D02*
X0361446Y0095672D01*
X0362626Y0094492D02*
X0321623Y0094492D01*
X0321623Y0093312D02*
X0363805Y0093312D01*
X0364985Y0092133D02*
X0321623Y0092133D01*
X0321623Y0090953D02*
X0366164Y0090953D01*
X0367344Y0089774D02*
X0321623Y0089774D01*
X0321623Y0088594D02*
X0368524Y0088594D01*
X0369703Y0087414D02*
X0321623Y0087414D01*
X0322702Y0086235D02*
X0370883Y0086235D01*
X0372062Y0085055D02*
X0323881Y0085055D01*
X0325061Y0083875D02*
X0390022Y0083875D01*
X0391201Y0082696D02*
X0326241Y0082696D01*
X0327420Y0081516D02*
X0376948Y0081516D01*
X0376678Y0081474D02*
X0375882Y0081215D01*
X0375137Y0080835D01*
X0374460Y0080343D01*
X0373869Y0079752D01*
X0373377Y0079075D01*
X0372997Y0078330D01*
X0372738Y0077534D01*
X0372635Y0076880D01*
X0377332Y0076880D01*
X0377332Y0075699D01*
X0372635Y0075699D01*
X0372738Y0075045D01*
X0372997Y0074249D01*
X0373377Y0073504D01*
X0373869Y0072827D01*
X0374460Y0072235D01*
X0375137Y0071744D01*
X0375882Y0071364D01*
X0376678Y0071105D01*
X0377332Y0071002D01*
X0377332Y0075699D01*
X0378513Y0075699D01*
X0378513Y0071002D01*
X0379167Y0071105D01*
X0379963Y0071364D01*
X0380708Y0071744D01*
X0381385Y0072235D01*
X0381977Y0072827D01*
X0382468Y0073504D01*
X0382848Y0074249D01*
X0383107Y0075045D01*
X0383210Y0075699D01*
X0378513Y0075699D01*
X0378513Y0076880D01*
X0377332Y0076880D01*
X0377332Y0081577D01*
X0376678Y0081474D01*
X0377332Y0081516D02*
X0378513Y0081516D01*
X0378513Y0081577D02*
X0378513Y0076880D01*
X0383210Y0076880D01*
X0383107Y0077534D01*
X0382848Y0078330D01*
X0382468Y0079075D01*
X0381977Y0079752D01*
X0381385Y0080343D01*
X0380708Y0080835D01*
X0379963Y0081215D01*
X0379167Y0081474D01*
X0378513Y0081577D01*
X0378898Y0081516D02*
X0392381Y0081516D01*
X0392686Y0080337D02*
X0381392Y0080337D01*
X0382409Y0079157D02*
X0392686Y0079157D01*
X0392686Y0077977D02*
X0382963Y0077977D01*
X0383197Y0075618D02*
X0392686Y0075618D01*
X0392686Y0074439D02*
X0382910Y0074439D01*
X0382290Y0073259D02*
X0392215Y0073259D01*
X0391035Y0072079D02*
X0381170Y0072079D01*
X0378513Y0072079D02*
X0377332Y0072079D01*
X0377332Y0073259D02*
X0378513Y0073259D01*
X0378513Y0074439D02*
X0377332Y0074439D01*
X0377332Y0075618D02*
X0378513Y0075618D01*
X0378513Y0076798D02*
X0392686Y0076798D01*
X0389856Y0070900D02*
X0352889Y0070900D01*
X0351054Y0072079D02*
X0374675Y0072079D01*
X0373555Y0073259D02*
X0347818Y0073259D01*
X0350396Y0072502D02*
X0350396Y0072502D01*
X0337554Y0073259D02*
X0335677Y0073259D01*
X0334498Y0074439D02*
X0372935Y0074439D01*
X0372648Y0075618D02*
X0333318Y0075618D01*
X0332139Y0076798D02*
X0377332Y0076798D01*
X0377332Y0077977D02*
X0378513Y0077977D01*
X0378513Y0079157D02*
X0377332Y0079157D01*
X0377332Y0080337D02*
X0378513Y0080337D01*
X0374453Y0080337D02*
X0328600Y0080337D01*
X0329779Y0079157D02*
X0373436Y0079157D01*
X0372883Y0077977D02*
X0330959Y0077977D01*
X0339843Y0098031D02*
X0321623Y0098031D01*
X0321623Y0099210D02*
X0338198Y0099210D01*
X0337174Y0100390D02*
X0321623Y0100390D01*
X0322154Y0101570D02*
X0336502Y0101570D01*
X0336081Y0102749D02*
X0322154Y0102749D01*
X0322154Y0103929D02*
X0335857Y0103929D01*
X0348592Y0099210D02*
X0357907Y0099210D01*
X0357844Y0100390D02*
X0349616Y0100390D01*
X0350288Y0101570D02*
X0357844Y0101570D01*
X0357844Y0102749D02*
X0350709Y0102749D01*
X0357844Y0113366D02*
X0318867Y0113366D01*
X0318867Y0114545D02*
X0357844Y0114545D01*
X0357844Y0115725D02*
X0318867Y0115725D01*
X0318867Y0116905D02*
X0357844Y0116905D01*
X0357844Y0118084D02*
X0318867Y0118084D01*
X0318867Y0119264D02*
X0357844Y0119264D01*
X0357844Y0120444D02*
X0318867Y0120444D01*
X0318867Y0121623D02*
X0357844Y0121623D01*
X0357844Y0122803D02*
X0318867Y0122803D01*
X0318867Y0123982D02*
X0357844Y0123982D01*
X0357844Y0125162D02*
X0318867Y0125162D01*
X0318867Y0126342D02*
X0357844Y0126342D01*
X0357844Y0127521D02*
X0318867Y0127521D01*
X0318867Y0128701D02*
X0357844Y0128701D01*
X0357844Y0129880D02*
X0318867Y0129880D01*
X0318867Y0131060D02*
X0357844Y0131060D01*
X0357844Y0132240D02*
X0318867Y0132240D01*
X0318867Y0133419D02*
X0357844Y0133419D01*
X0357844Y0134599D02*
X0318867Y0134599D01*
X0318867Y0135778D02*
X0357844Y0135778D01*
X0357844Y0136958D02*
X0318867Y0136958D01*
X0318867Y0138138D02*
X0320118Y0138138D01*
X0320124Y0138132D02*
X0320438Y0137950D01*
X0320788Y0137856D01*
X0323529Y0137856D01*
X0323529Y0143959D01*
X0319592Y0143959D01*
X0319592Y0139053D01*
X0319686Y0138702D01*
X0319867Y0138388D01*
X0320124Y0138132D01*
X0319592Y0139317D02*
X0318867Y0139317D01*
X0318867Y0140497D02*
X0319592Y0140497D01*
X0319592Y0141677D02*
X0318867Y0141677D01*
X0318867Y0142856D02*
X0319592Y0142856D01*
X0318867Y0144036D02*
X0323529Y0144036D01*
X0323529Y0143959D02*
X0323529Y0145140D01*
X0324710Y0145140D01*
X0324710Y0153959D01*
X0328647Y0153959D01*
X0328647Y0150825D01*
X0328553Y0150474D01*
X0328531Y0150435D01*
X0328553Y0150396D01*
X0328647Y0150046D01*
X0328647Y0145140D01*
X0324710Y0145140D01*
X0324710Y0143959D01*
X0328647Y0143959D01*
X0328647Y0139053D01*
X0328553Y0138702D01*
X0328372Y0138388D01*
X0328115Y0138132D01*
X0327801Y0137950D01*
X0327450Y0137856D01*
X0324710Y0137856D01*
X0324710Y0143959D01*
X0323529Y0143959D01*
X0323529Y0142856D02*
X0324710Y0142856D01*
X0324710Y0141677D02*
X0323529Y0141677D01*
X0323529Y0140497D02*
X0324710Y0140497D01*
X0324710Y0139317D02*
X0323529Y0139317D01*
X0323529Y0138138D02*
X0324710Y0138138D01*
X0328121Y0138138D02*
X0357844Y0138138D01*
X0357414Y0139317D02*
X0328647Y0139317D01*
X0328647Y0140497D02*
X0356235Y0140497D01*
X0355055Y0141677D02*
X0328647Y0141677D01*
X0328647Y0142856D02*
X0353876Y0142856D01*
X0352696Y0144036D02*
X0324710Y0144036D01*
X0324710Y0145215D02*
X0323529Y0145215D01*
X0323529Y0146395D02*
X0324710Y0146395D01*
X0324710Y0147575D02*
X0323529Y0147575D01*
X0323529Y0148754D02*
X0324710Y0148754D01*
X0324710Y0149934D02*
X0323529Y0149934D01*
X0323529Y0151113D02*
X0324710Y0151113D01*
X0324710Y0152293D02*
X0323529Y0152293D01*
X0323529Y0153473D02*
X0324710Y0153473D01*
X0324710Y0154652D02*
X0345622Y0154652D01*
X0347411Y0153473D02*
X0328647Y0153473D01*
X0328647Y0152293D02*
X0347411Y0152293D01*
X0347411Y0151113D02*
X0328647Y0151113D01*
X0328647Y0149934D02*
X0347411Y0149934D01*
X0347977Y0148754D02*
X0328647Y0148754D01*
X0328647Y0147575D02*
X0349157Y0147575D01*
X0350337Y0146395D02*
X0328647Y0146395D01*
X0328647Y0145215D02*
X0351516Y0145215D01*
X0343578Y0155832D02*
X0328647Y0155832D01*
X0328647Y0157012D02*
X0343277Y0157012D01*
X0343277Y0157982D02*
X0344655Y0157982D01*
X0344655Y0157982D01*
X0343277Y0157982D01*
X0343277Y0158191D02*
X0328647Y0158191D01*
X0329929Y0159371D02*
X0331286Y0159371D01*
X0331261Y0159462D02*
X0331355Y0159112D01*
X0331536Y0158798D01*
X0331793Y0158541D01*
X0332107Y0158360D01*
X0332458Y0158266D01*
X0334214Y0158266D01*
X0334214Y0161415D01*
X0331261Y0161415D01*
X0331261Y0159462D01*
X0331261Y0160550D02*
X0329954Y0160550D01*
X0329954Y0162910D02*
X0331261Y0162910D01*
X0331261Y0164089D02*
X0329954Y0164089D01*
X0327001Y0161730D02*
X0334214Y0161730D01*
X0335001Y0161730D02*
X0337801Y0161730D01*
X0337954Y0160550D02*
X0341567Y0160550D01*
X0340521Y0160738D02*
X0340521Y0162107D01*
X0340521Y0162107D01*
X0340521Y0160738D01*
X0340521Y0161730D02*
X0340521Y0161730D01*
X0342443Y0159371D02*
X0337929Y0159371D01*
X0335001Y0159371D02*
X0334214Y0159371D01*
X0334214Y0160550D02*
X0335001Y0160550D01*
X0326214Y0161730D02*
X0320750Y0161730D01*
X0321806Y0162910D02*
X0323261Y0162910D01*
X0323261Y0164089D02*
X0322863Y0164089D01*
X0323261Y0160550D02*
X0319693Y0160550D01*
X0320428Y0159371D02*
X0318867Y0159371D01*
X0318867Y0158191D02*
X0319592Y0158191D01*
X0319592Y0157012D02*
X0318867Y0157012D01*
X0318867Y0155832D02*
X0319592Y0155832D01*
X0318867Y0154652D02*
X0323529Y0154652D01*
X0319592Y0153473D02*
X0318867Y0153473D01*
X0318867Y0152293D02*
X0319592Y0152293D01*
X0319592Y0151113D02*
X0318867Y0151113D01*
X0318867Y0149934D02*
X0319592Y0149934D01*
X0319592Y0148754D02*
X0318867Y0148754D01*
X0318867Y0147575D02*
X0319592Y0147575D01*
X0319592Y0146395D02*
X0318867Y0146395D01*
X0318867Y0145215D02*
X0319592Y0145215D01*
D41*
X0346033Y0163691D03*
X0348789Y0163691D03*
X0351545Y0163691D03*
X0354301Y0163691D03*
X0354301Y0166447D03*
X0354301Y0169203D03*
X0354301Y0171959D03*
X0351545Y0171959D03*
X0351545Y0169203D03*
X0351545Y0166447D03*
X0348789Y0166447D03*
X0348789Y0169203D03*
X0348789Y0171959D03*
X0346033Y0171959D03*
X0346033Y0169203D03*
X0346033Y0166447D03*
X0214537Y0057982D03*
X0214537Y0055030D03*
X0211584Y0055030D03*
X0211584Y0057982D03*
X0208631Y0057982D03*
X0208631Y0055030D03*
X0205678Y0055030D03*
X0205678Y0057982D03*
X0205678Y0052077D03*
X0205678Y0049124D03*
X0208631Y0049124D03*
X0208631Y0052077D03*
X0211584Y0052077D03*
X0214537Y0052077D03*
X0214537Y0049124D03*
X0211584Y0049124D03*
D42*
X0232844Y0091841D03*
X0224773Y0097943D03*
X0232844Y0104636D03*
X0258631Y0094793D03*
X0263356Y0088888D03*
X0271230Y0088888D03*
X0271230Y0101683D03*
X0313608Y0135549D03*
X0307056Y0145061D03*
X0306608Y0154549D03*
X0313608Y0161549D03*
X0326608Y0173156D03*
X0334608Y0173156D03*
X0334615Y0188100D03*
X0311978Y0193022D03*
X0303907Y0189872D03*
X0305285Y0200896D03*
X0310797Y0207195D03*
X0390324Y0177667D03*
X0390324Y0168809D03*
X0390324Y0159951D03*
X0390324Y0151093D03*
X0390324Y0142234D03*
X0390324Y0133376D03*
X0390324Y0124518D03*
X0390324Y0115660D03*
D43*
X0060049Y0194636D02*
X0060049Y0214636D01*
M02*
