%
M48
M72
T01C0.01575
T02C0.02362
T03C0.03150
T04C0.03200
T05C0.03937
T06C0.04000
T07C0.04724
T08C0.05118
T09C0.10000
T10C0.12598
T11C0.16929
%
T01
X107844Y94793
X115718Y88888
X121623Y94793
X141308Y94793
X149182Y88888
X155088Y94793
X168867Y28455
X175560Y21959
X184222Y24715
X194064Y23534
X204301Y23534
X229891Y25108
X238159Y20581
X178710Y49518
X174773Y86919
X184615Y86919
X194458Y86919
X204301Y86919
X214143Y86919
X223986Y86919
X233828Y86919
X221230Y25108
X257450Y26880
X248789Y20384
X250560Y81998
X205678Y57982
X208631Y57982
X211584Y57982
X214537Y57982
X205678Y55030
X208631Y55030
X211584Y55030
X214537Y55030
X214537Y52077
X211584Y52077
X208631Y52077
X205678Y52077
X205678Y49124
X208631Y49124
X211584Y49124
X214537Y49124
X225560Y29833
X224773Y97943
X232844Y91841
X271230Y88888
X263356Y88888
X258631Y94793
X303907Y189872
X311978Y193022
X305285Y200896
X334615Y188100
X390324Y177667
X390324Y168809
X390324Y159951
X390324Y151093
X390324Y133376
X390324Y124518
X390324Y115660
X313608Y135549
X307056Y145061
X326608Y173156
X313608Y161549
X334608Y173156
X390324Y142234
X232844Y104636
X271230Y101683
X346033Y171959
X348789Y171959
X351545Y171959
X354301Y171959
X354301Y169203
X351545Y169203
X348789Y169203
X346033Y169203
X346033Y166447
X346033Y163691
X348789Y163691
X348789Y166447
X351545Y166447
X351545Y163691
X354301Y163691
X354301Y166447
X310797Y207195
X306608Y154549
T02
X90049Y214636
X70049Y214636
X60049Y214636
X50049Y214636
X50049Y194636
X60049Y194636
X70049Y194636
X90049Y194636
T03
X50364Y227864
X50364Y255423
X81860Y255423
X81860Y227864
T04
X309025Y260345
X309025Y310345
X183395Y277077
X213395Y277077
X183395Y309360
X213395Y309360
X183395Y293612
X213395Y293612
T05
X116505Y238888
T06
X12135Y148644
X42135Y134644
X12489Y175809
X42489Y161809
X62875Y112156
X48875Y82156
X286978Y65502
X286978Y35502
X139340Y38455
X139340Y68455
X16505Y200778
X16505Y240778
X85797Y271250
X85797Y311250
X76741Y179754
X76741Y139754
X93671Y179754
X93671Y139754
X377332Y214045
X347332Y214045
X313395Y104730
X343395Y104730
T07
X121151Y309990
X141151Y309990
X261151Y309990
X281151Y309990
X291151Y129990
X271151Y129990
X131151Y129990
X111151Y129990
T08
X377923Y56289
X377923Y76289
X377923Y96289
X18867Y98628
X18867Y78628
X18867Y58628
X377923Y257392
X377923Y277392
T09
X85403Y27077
X85403Y50077
X85403Y105817
X85403Y82817
T10
X342686Y55620
X54104Y55620
X342686Y279636
X54104Y279636
T11
X201151Y219990
M30
