G75*
%MOIN*%
%OFA0B0*%
%FSLAX25Y25*%
%IPPOS*%
%LPD*%
%AMOC8*
5,1,8,0,0,1.08239X$1,22.5*
%
%ADD10C,0.00000*%
%ADD11C,0.15000*%
%ADD12C,0.06000*%
%ADD13OC8,0.08600*%
%ADD14OC8,0.12400*%
%ADD15C,0.12400*%
%ADD16C,0.07874*%
%ADD17OC8,0.06000*%
%ADD18C,0.04724*%
%ADD19OC8,0.04800*%
%ADD20C,0.03740*%
%ADD21C,0.03937*%
%ADD22OC8,0.05906*%
%ADD23C,0.01200*%
%ADD24C,0.04000*%
%ADD25C,0.01181*%
%ADD26OC8,0.03150*%
%ADD27R,0.03150X0.03150*%
%ADD28OC8,0.03200*%
%ADD29C,0.06600*%
%ADD30C,0.03200*%
D10*
X0022017Y0016053D02*
X0022017Y0034163D01*
X0022014Y0034448D01*
X0022003Y0034734D01*
X0021986Y0035019D01*
X0021962Y0035303D01*
X0021931Y0035587D01*
X0021893Y0035870D01*
X0021848Y0036151D01*
X0021797Y0036432D01*
X0021739Y0036712D01*
X0021674Y0036990D01*
X0021602Y0037266D01*
X0021524Y0037540D01*
X0021439Y0037813D01*
X0021347Y0038083D01*
X0021249Y0038351D01*
X0021145Y0038617D01*
X0021034Y0038880D01*
X0020917Y0039140D01*
X0020794Y0039398D01*
X0020664Y0039652D01*
X0020528Y0039903D01*
X0020387Y0040151D01*
X0020239Y0040395D01*
X0020086Y0040636D01*
X0019926Y0040872D01*
X0019761Y0041105D01*
X0019591Y0041334D01*
X0019415Y0041559D01*
X0019233Y0041779D01*
X0019047Y0041995D01*
X0018855Y0042206D01*
X0018658Y0042413D01*
X0018456Y0042615D01*
X0018249Y0042812D01*
X0018038Y0043004D01*
X0017822Y0043190D01*
X0017602Y0043372D01*
X0017377Y0043548D01*
X0017148Y0043718D01*
X0016915Y0043883D01*
X0016679Y0044043D01*
X0016438Y0044196D01*
X0016194Y0044344D01*
X0015946Y0044485D01*
X0015695Y0044621D01*
X0015441Y0044751D01*
X0015183Y0044874D01*
X0014923Y0044991D01*
X0014660Y0045102D01*
X0014394Y0045206D01*
X0014126Y0045304D01*
X0013856Y0045396D01*
X0013583Y0045481D01*
X0013309Y0045559D01*
X0013033Y0045631D01*
X0012755Y0045696D01*
X0012475Y0045754D01*
X0012194Y0045805D01*
X0011913Y0045850D01*
X0011630Y0045888D01*
X0011346Y0045919D01*
X0011062Y0045943D01*
X0010777Y0045960D01*
X0010491Y0045971D01*
X0010206Y0045974D01*
X0010206Y0045975D02*
X0001545Y0045975D01*
X0001545Y0289282D01*
X0010206Y0289282D01*
X0010491Y0289285D01*
X0010777Y0289296D01*
X0011062Y0289313D01*
X0011346Y0289337D01*
X0011630Y0289368D01*
X0011913Y0289406D01*
X0012194Y0289451D01*
X0012475Y0289502D01*
X0012755Y0289560D01*
X0013033Y0289625D01*
X0013309Y0289697D01*
X0013583Y0289775D01*
X0013856Y0289860D01*
X0014126Y0289952D01*
X0014394Y0290050D01*
X0014660Y0290154D01*
X0014923Y0290265D01*
X0015183Y0290382D01*
X0015441Y0290505D01*
X0015695Y0290635D01*
X0015946Y0290771D01*
X0016194Y0290912D01*
X0016438Y0291060D01*
X0016679Y0291213D01*
X0016915Y0291373D01*
X0017148Y0291538D01*
X0017377Y0291708D01*
X0017602Y0291884D01*
X0017822Y0292066D01*
X0018038Y0292252D01*
X0018249Y0292444D01*
X0018456Y0292641D01*
X0018658Y0292843D01*
X0018855Y0293050D01*
X0019047Y0293261D01*
X0019233Y0293477D01*
X0019415Y0293697D01*
X0019591Y0293922D01*
X0019761Y0294151D01*
X0019926Y0294384D01*
X0020086Y0294620D01*
X0020239Y0294861D01*
X0020387Y0295105D01*
X0020528Y0295353D01*
X0020664Y0295604D01*
X0020794Y0295858D01*
X0020917Y0296116D01*
X0021034Y0296376D01*
X0021145Y0296639D01*
X0021249Y0296905D01*
X0021347Y0297173D01*
X0021439Y0297443D01*
X0021524Y0297716D01*
X0021602Y0297990D01*
X0021674Y0298266D01*
X0021739Y0298544D01*
X0021797Y0298824D01*
X0021848Y0299105D01*
X0021893Y0299386D01*
X0021931Y0299669D01*
X0021962Y0299953D01*
X0021986Y0300237D01*
X0022003Y0300522D01*
X0022014Y0300808D01*
X0022017Y0301093D01*
X0022017Y0319203D01*
X0374773Y0319203D01*
X0374773Y0301093D01*
X0374776Y0300808D01*
X0374787Y0300522D01*
X0374804Y0300237D01*
X0374828Y0299953D01*
X0374859Y0299669D01*
X0374897Y0299386D01*
X0374942Y0299105D01*
X0374993Y0298824D01*
X0375051Y0298544D01*
X0375116Y0298266D01*
X0375188Y0297990D01*
X0375266Y0297716D01*
X0375351Y0297443D01*
X0375443Y0297173D01*
X0375541Y0296905D01*
X0375645Y0296639D01*
X0375756Y0296376D01*
X0375873Y0296116D01*
X0375996Y0295858D01*
X0376126Y0295604D01*
X0376262Y0295353D01*
X0376403Y0295105D01*
X0376551Y0294861D01*
X0376704Y0294620D01*
X0376864Y0294384D01*
X0377029Y0294151D01*
X0377199Y0293922D01*
X0377375Y0293697D01*
X0377557Y0293477D01*
X0377743Y0293261D01*
X0377935Y0293050D01*
X0378132Y0292843D01*
X0378334Y0292641D01*
X0378541Y0292444D01*
X0378752Y0292252D01*
X0378968Y0292066D01*
X0379188Y0291884D01*
X0379413Y0291708D01*
X0379642Y0291538D01*
X0379875Y0291373D01*
X0380111Y0291213D01*
X0380352Y0291060D01*
X0380596Y0290912D01*
X0380844Y0290771D01*
X0381095Y0290635D01*
X0381349Y0290505D01*
X0381607Y0290382D01*
X0381867Y0290265D01*
X0382130Y0290154D01*
X0382396Y0290050D01*
X0382664Y0289952D01*
X0382934Y0289860D01*
X0383207Y0289775D01*
X0383481Y0289697D01*
X0383757Y0289625D01*
X0384035Y0289560D01*
X0384315Y0289502D01*
X0384596Y0289451D01*
X0384877Y0289406D01*
X0385160Y0289368D01*
X0385444Y0289337D01*
X0385728Y0289313D01*
X0386013Y0289296D01*
X0386299Y0289285D01*
X0386584Y0289282D01*
X0395245Y0289282D01*
X0395245Y0045975D01*
X0386584Y0045975D01*
X0386584Y0045974D02*
X0386299Y0045971D01*
X0386013Y0045960D01*
X0385728Y0045943D01*
X0385444Y0045919D01*
X0385160Y0045888D01*
X0384877Y0045850D01*
X0384596Y0045805D01*
X0384315Y0045754D01*
X0384035Y0045696D01*
X0383757Y0045631D01*
X0383481Y0045559D01*
X0383207Y0045481D01*
X0382934Y0045396D01*
X0382664Y0045304D01*
X0382396Y0045206D01*
X0382130Y0045102D01*
X0381867Y0044991D01*
X0381607Y0044874D01*
X0381349Y0044751D01*
X0381095Y0044621D01*
X0380844Y0044485D01*
X0380596Y0044344D01*
X0380352Y0044196D01*
X0380111Y0044043D01*
X0379875Y0043883D01*
X0379642Y0043718D01*
X0379413Y0043548D01*
X0379188Y0043372D01*
X0378968Y0043190D01*
X0378752Y0043004D01*
X0378541Y0042812D01*
X0378334Y0042615D01*
X0378132Y0042413D01*
X0377935Y0042206D01*
X0377743Y0041995D01*
X0377557Y0041779D01*
X0377375Y0041559D01*
X0377199Y0041334D01*
X0377029Y0041105D01*
X0376864Y0040872D01*
X0376704Y0040636D01*
X0376551Y0040395D01*
X0376403Y0040151D01*
X0376262Y0039903D01*
X0376126Y0039652D01*
X0375996Y0039398D01*
X0375873Y0039140D01*
X0375756Y0038880D01*
X0375645Y0038617D01*
X0375541Y0038351D01*
X0375443Y0038083D01*
X0375351Y0037813D01*
X0375266Y0037540D01*
X0375188Y0037266D01*
X0375116Y0036990D01*
X0375051Y0036712D01*
X0374993Y0036432D01*
X0374942Y0036151D01*
X0374897Y0035870D01*
X0374859Y0035587D01*
X0374828Y0035303D01*
X0374804Y0035019D01*
X0374787Y0034734D01*
X0374776Y0034448D01*
X0374773Y0034163D01*
X0374773Y0016053D01*
X0022017Y0016053D01*
X0010600Y0045975D02*
X0010206Y0045975D01*
X0047805Y0055620D02*
X0047807Y0055778D01*
X0047813Y0055936D01*
X0047823Y0056094D01*
X0047837Y0056252D01*
X0047855Y0056409D01*
X0047876Y0056566D01*
X0047902Y0056722D01*
X0047932Y0056878D01*
X0047965Y0057033D01*
X0048003Y0057186D01*
X0048044Y0057339D01*
X0048089Y0057491D01*
X0048138Y0057642D01*
X0048191Y0057791D01*
X0048247Y0057939D01*
X0048307Y0058085D01*
X0048371Y0058230D01*
X0048439Y0058373D01*
X0048510Y0058515D01*
X0048584Y0058655D01*
X0048662Y0058792D01*
X0048744Y0058928D01*
X0048828Y0059062D01*
X0048917Y0059193D01*
X0049008Y0059322D01*
X0049103Y0059449D01*
X0049200Y0059574D01*
X0049301Y0059696D01*
X0049405Y0059815D01*
X0049512Y0059932D01*
X0049622Y0060046D01*
X0049735Y0060157D01*
X0049850Y0060266D01*
X0049968Y0060371D01*
X0050089Y0060473D01*
X0050212Y0060573D01*
X0050338Y0060669D01*
X0050466Y0060762D01*
X0050596Y0060852D01*
X0050729Y0060938D01*
X0050864Y0061022D01*
X0051000Y0061101D01*
X0051139Y0061178D01*
X0051280Y0061250D01*
X0051422Y0061320D01*
X0051566Y0061385D01*
X0051712Y0061447D01*
X0051859Y0061505D01*
X0052008Y0061560D01*
X0052158Y0061611D01*
X0052309Y0061658D01*
X0052461Y0061701D01*
X0052614Y0061740D01*
X0052769Y0061776D01*
X0052924Y0061807D01*
X0053080Y0061835D01*
X0053236Y0061859D01*
X0053393Y0061879D01*
X0053551Y0061895D01*
X0053708Y0061907D01*
X0053867Y0061915D01*
X0054025Y0061919D01*
X0054183Y0061919D01*
X0054341Y0061915D01*
X0054500Y0061907D01*
X0054657Y0061895D01*
X0054815Y0061879D01*
X0054972Y0061859D01*
X0055128Y0061835D01*
X0055284Y0061807D01*
X0055439Y0061776D01*
X0055594Y0061740D01*
X0055747Y0061701D01*
X0055899Y0061658D01*
X0056050Y0061611D01*
X0056200Y0061560D01*
X0056349Y0061505D01*
X0056496Y0061447D01*
X0056642Y0061385D01*
X0056786Y0061320D01*
X0056928Y0061250D01*
X0057069Y0061178D01*
X0057208Y0061101D01*
X0057344Y0061022D01*
X0057479Y0060938D01*
X0057612Y0060852D01*
X0057742Y0060762D01*
X0057870Y0060669D01*
X0057996Y0060573D01*
X0058119Y0060473D01*
X0058240Y0060371D01*
X0058358Y0060266D01*
X0058473Y0060157D01*
X0058586Y0060046D01*
X0058696Y0059932D01*
X0058803Y0059815D01*
X0058907Y0059696D01*
X0059008Y0059574D01*
X0059105Y0059449D01*
X0059200Y0059322D01*
X0059291Y0059193D01*
X0059380Y0059062D01*
X0059464Y0058928D01*
X0059546Y0058792D01*
X0059624Y0058655D01*
X0059698Y0058515D01*
X0059769Y0058373D01*
X0059837Y0058230D01*
X0059901Y0058085D01*
X0059961Y0057939D01*
X0060017Y0057791D01*
X0060070Y0057642D01*
X0060119Y0057491D01*
X0060164Y0057339D01*
X0060205Y0057186D01*
X0060243Y0057033D01*
X0060276Y0056878D01*
X0060306Y0056722D01*
X0060332Y0056566D01*
X0060353Y0056409D01*
X0060371Y0056252D01*
X0060385Y0056094D01*
X0060395Y0055936D01*
X0060401Y0055778D01*
X0060403Y0055620D01*
X0060401Y0055462D01*
X0060395Y0055304D01*
X0060385Y0055146D01*
X0060371Y0054988D01*
X0060353Y0054831D01*
X0060332Y0054674D01*
X0060306Y0054518D01*
X0060276Y0054362D01*
X0060243Y0054207D01*
X0060205Y0054054D01*
X0060164Y0053901D01*
X0060119Y0053749D01*
X0060070Y0053598D01*
X0060017Y0053449D01*
X0059961Y0053301D01*
X0059901Y0053155D01*
X0059837Y0053010D01*
X0059769Y0052867D01*
X0059698Y0052725D01*
X0059624Y0052585D01*
X0059546Y0052448D01*
X0059464Y0052312D01*
X0059380Y0052178D01*
X0059291Y0052047D01*
X0059200Y0051918D01*
X0059105Y0051791D01*
X0059008Y0051666D01*
X0058907Y0051544D01*
X0058803Y0051425D01*
X0058696Y0051308D01*
X0058586Y0051194D01*
X0058473Y0051083D01*
X0058358Y0050974D01*
X0058240Y0050869D01*
X0058119Y0050767D01*
X0057996Y0050667D01*
X0057870Y0050571D01*
X0057742Y0050478D01*
X0057612Y0050388D01*
X0057479Y0050302D01*
X0057344Y0050218D01*
X0057208Y0050139D01*
X0057069Y0050062D01*
X0056928Y0049990D01*
X0056786Y0049920D01*
X0056642Y0049855D01*
X0056496Y0049793D01*
X0056349Y0049735D01*
X0056200Y0049680D01*
X0056050Y0049629D01*
X0055899Y0049582D01*
X0055747Y0049539D01*
X0055594Y0049500D01*
X0055439Y0049464D01*
X0055284Y0049433D01*
X0055128Y0049405D01*
X0054972Y0049381D01*
X0054815Y0049361D01*
X0054657Y0049345D01*
X0054500Y0049333D01*
X0054341Y0049325D01*
X0054183Y0049321D01*
X0054025Y0049321D01*
X0053867Y0049325D01*
X0053708Y0049333D01*
X0053551Y0049345D01*
X0053393Y0049361D01*
X0053236Y0049381D01*
X0053080Y0049405D01*
X0052924Y0049433D01*
X0052769Y0049464D01*
X0052614Y0049500D01*
X0052461Y0049539D01*
X0052309Y0049582D01*
X0052158Y0049629D01*
X0052008Y0049680D01*
X0051859Y0049735D01*
X0051712Y0049793D01*
X0051566Y0049855D01*
X0051422Y0049920D01*
X0051280Y0049990D01*
X0051139Y0050062D01*
X0051000Y0050139D01*
X0050864Y0050218D01*
X0050729Y0050302D01*
X0050596Y0050388D01*
X0050466Y0050478D01*
X0050338Y0050571D01*
X0050212Y0050667D01*
X0050089Y0050767D01*
X0049968Y0050869D01*
X0049850Y0050974D01*
X0049735Y0051083D01*
X0049622Y0051194D01*
X0049512Y0051308D01*
X0049405Y0051425D01*
X0049301Y0051544D01*
X0049200Y0051666D01*
X0049103Y0051791D01*
X0049008Y0051918D01*
X0048917Y0052047D01*
X0048828Y0052178D01*
X0048744Y0052312D01*
X0048662Y0052448D01*
X0048584Y0052585D01*
X0048510Y0052725D01*
X0048439Y0052867D01*
X0048371Y0053010D01*
X0048307Y0053155D01*
X0048247Y0053301D01*
X0048191Y0053449D01*
X0048138Y0053598D01*
X0048089Y0053749D01*
X0048044Y0053901D01*
X0048003Y0054054D01*
X0047965Y0054207D01*
X0047932Y0054362D01*
X0047902Y0054518D01*
X0047876Y0054674D01*
X0047855Y0054831D01*
X0047837Y0054988D01*
X0047823Y0055146D01*
X0047813Y0055304D01*
X0047807Y0055462D01*
X0047805Y0055620D01*
X0192686Y0219990D02*
X0192689Y0220198D01*
X0192696Y0220405D01*
X0192709Y0220613D01*
X0192727Y0220820D01*
X0192750Y0221026D01*
X0192778Y0221232D01*
X0192811Y0221437D01*
X0192849Y0221641D01*
X0192892Y0221845D01*
X0192940Y0222047D01*
X0192993Y0222248D01*
X0193051Y0222447D01*
X0193113Y0222645D01*
X0193181Y0222842D01*
X0193253Y0223037D01*
X0193330Y0223229D01*
X0193412Y0223420D01*
X0193499Y0223609D01*
X0193590Y0223796D01*
X0193686Y0223980D01*
X0193786Y0224162D01*
X0193890Y0224342D01*
X0193999Y0224519D01*
X0194113Y0224693D01*
X0194230Y0224864D01*
X0194352Y0225033D01*
X0194478Y0225198D01*
X0194607Y0225360D01*
X0194741Y0225519D01*
X0194879Y0225675D01*
X0195020Y0225827D01*
X0195165Y0225976D01*
X0195314Y0226121D01*
X0195466Y0226262D01*
X0195622Y0226400D01*
X0195781Y0226534D01*
X0195943Y0226663D01*
X0196108Y0226789D01*
X0196277Y0226911D01*
X0196448Y0227028D01*
X0196622Y0227142D01*
X0196799Y0227251D01*
X0196979Y0227355D01*
X0197161Y0227455D01*
X0197345Y0227551D01*
X0197532Y0227642D01*
X0197721Y0227729D01*
X0197912Y0227811D01*
X0198104Y0227888D01*
X0198299Y0227960D01*
X0198496Y0228028D01*
X0198694Y0228090D01*
X0198893Y0228148D01*
X0199094Y0228201D01*
X0199296Y0228249D01*
X0199500Y0228292D01*
X0199704Y0228330D01*
X0199909Y0228363D01*
X0200115Y0228391D01*
X0200321Y0228414D01*
X0200528Y0228432D01*
X0200736Y0228445D01*
X0200943Y0228452D01*
X0201151Y0228455D01*
X0201359Y0228452D01*
X0201566Y0228445D01*
X0201774Y0228432D01*
X0201981Y0228414D01*
X0202187Y0228391D01*
X0202393Y0228363D01*
X0202598Y0228330D01*
X0202802Y0228292D01*
X0203006Y0228249D01*
X0203208Y0228201D01*
X0203409Y0228148D01*
X0203608Y0228090D01*
X0203806Y0228028D01*
X0204003Y0227960D01*
X0204198Y0227888D01*
X0204390Y0227811D01*
X0204581Y0227729D01*
X0204770Y0227642D01*
X0204957Y0227551D01*
X0205141Y0227455D01*
X0205323Y0227355D01*
X0205503Y0227251D01*
X0205680Y0227142D01*
X0205854Y0227028D01*
X0206025Y0226911D01*
X0206194Y0226789D01*
X0206359Y0226663D01*
X0206521Y0226534D01*
X0206680Y0226400D01*
X0206836Y0226262D01*
X0206988Y0226121D01*
X0207137Y0225976D01*
X0207282Y0225827D01*
X0207423Y0225675D01*
X0207561Y0225519D01*
X0207695Y0225360D01*
X0207824Y0225198D01*
X0207950Y0225033D01*
X0208072Y0224864D01*
X0208189Y0224693D01*
X0208303Y0224519D01*
X0208412Y0224342D01*
X0208516Y0224162D01*
X0208616Y0223980D01*
X0208712Y0223796D01*
X0208803Y0223609D01*
X0208890Y0223420D01*
X0208972Y0223229D01*
X0209049Y0223037D01*
X0209121Y0222842D01*
X0209189Y0222645D01*
X0209251Y0222447D01*
X0209309Y0222248D01*
X0209362Y0222047D01*
X0209410Y0221845D01*
X0209453Y0221641D01*
X0209491Y0221437D01*
X0209524Y0221232D01*
X0209552Y0221026D01*
X0209575Y0220820D01*
X0209593Y0220613D01*
X0209606Y0220405D01*
X0209613Y0220198D01*
X0209616Y0219990D01*
X0209613Y0219782D01*
X0209606Y0219575D01*
X0209593Y0219367D01*
X0209575Y0219160D01*
X0209552Y0218954D01*
X0209524Y0218748D01*
X0209491Y0218543D01*
X0209453Y0218339D01*
X0209410Y0218135D01*
X0209362Y0217933D01*
X0209309Y0217732D01*
X0209251Y0217533D01*
X0209189Y0217335D01*
X0209121Y0217138D01*
X0209049Y0216943D01*
X0208972Y0216751D01*
X0208890Y0216560D01*
X0208803Y0216371D01*
X0208712Y0216184D01*
X0208616Y0216000D01*
X0208516Y0215818D01*
X0208412Y0215638D01*
X0208303Y0215461D01*
X0208189Y0215287D01*
X0208072Y0215116D01*
X0207950Y0214947D01*
X0207824Y0214782D01*
X0207695Y0214620D01*
X0207561Y0214461D01*
X0207423Y0214305D01*
X0207282Y0214153D01*
X0207137Y0214004D01*
X0206988Y0213859D01*
X0206836Y0213718D01*
X0206680Y0213580D01*
X0206521Y0213446D01*
X0206359Y0213317D01*
X0206194Y0213191D01*
X0206025Y0213069D01*
X0205854Y0212952D01*
X0205680Y0212838D01*
X0205503Y0212729D01*
X0205323Y0212625D01*
X0205141Y0212525D01*
X0204957Y0212429D01*
X0204770Y0212338D01*
X0204581Y0212251D01*
X0204390Y0212169D01*
X0204198Y0212092D01*
X0204003Y0212020D01*
X0203806Y0211952D01*
X0203608Y0211890D01*
X0203409Y0211832D01*
X0203208Y0211779D01*
X0203006Y0211731D01*
X0202802Y0211688D01*
X0202598Y0211650D01*
X0202393Y0211617D01*
X0202187Y0211589D01*
X0201981Y0211566D01*
X0201774Y0211548D01*
X0201566Y0211535D01*
X0201359Y0211528D01*
X0201151Y0211525D01*
X0200943Y0211528D01*
X0200736Y0211535D01*
X0200528Y0211548D01*
X0200321Y0211566D01*
X0200115Y0211589D01*
X0199909Y0211617D01*
X0199704Y0211650D01*
X0199500Y0211688D01*
X0199296Y0211731D01*
X0199094Y0211779D01*
X0198893Y0211832D01*
X0198694Y0211890D01*
X0198496Y0211952D01*
X0198299Y0212020D01*
X0198104Y0212092D01*
X0197912Y0212169D01*
X0197721Y0212251D01*
X0197532Y0212338D01*
X0197345Y0212429D01*
X0197161Y0212525D01*
X0196979Y0212625D01*
X0196799Y0212729D01*
X0196622Y0212838D01*
X0196448Y0212952D01*
X0196277Y0213069D01*
X0196108Y0213191D01*
X0195943Y0213317D01*
X0195781Y0213446D01*
X0195622Y0213580D01*
X0195466Y0213718D01*
X0195314Y0213859D01*
X0195165Y0214004D01*
X0195020Y0214153D01*
X0194879Y0214305D01*
X0194741Y0214461D01*
X0194607Y0214620D01*
X0194478Y0214782D01*
X0194352Y0214947D01*
X0194230Y0215116D01*
X0194113Y0215287D01*
X0193999Y0215461D01*
X0193890Y0215638D01*
X0193786Y0215818D01*
X0193686Y0216000D01*
X0193590Y0216184D01*
X0193499Y0216371D01*
X0193412Y0216560D01*
X0193330Y0216751D01*
X0193253Y0216943D01*
X0193181Y0217138D01*
X0193113Y0217335D01*
X0193051Y0217533D01*
X0192993Y0217732D01*
X0192940Y0217933D01*
X0192892Y0218135D01*
X0192849Y0218339D01*
X0192811Y0218543D01*
X0192778Y0218748D01*
X0192750Y0218954D01*
X0192727Y0219160D01*
X0192709Y0219367D01*
X0192696Y0219575D01*
X0192689Y0219782D01*
X0192686Y0219990D01*
X0047805Y0279636D02*
X0047807Y0279794D01*
X0047813Y0279952D01*
X0047823Y0280110D01*
X0047837Y0280268D01*
X0047855Y0280425D01*
X0047876Y0280582D01*
X0047902Y0280738D01*
X0047932Y0280894D01*
X0047965Y0281049D01*
X0048003Y0281202D01*
X0048044Y0281355D01*
X0048089Y0281507D01*
X0048138Y0281658D01*
X0048191Y0281807D01*
X0048247Y0281955D01*
X0048307Y0282101D01*
X0048371Y0282246D01*
X0048439Y0282389D01*
X0048510Y0282531D01*
X0048584Y0282671D01*
X0048662Y0282808D01*
X0048744Y0282944D01*
X0048828Y0283078D01*
X0048917Y0283209D01*
X0049008Y0283338D01*
X0049103Y0283465D01*
X0049200Y0283590D01*
X0049301Y0283712D01*
X0049405Y0283831D01*
X0049512Y0283948D01*
X0049622Y0284062D01*
X0049735Y0284173D01*
X0049850Y0284282D01*
X0049968Y0284387D01*
X0050089Y0284489D01*
X0050212Y0284589D01*
X0050338Y0284685D01*
X0050466Y0284778D01*
X0050596Y0284868D01*
X0050729Y0284954D01*
X0050864Y0285038D01*
X0051000Y0285117D01*
X0051139Y0285194D01*
X0051280Y0285266D01*
X0051422Y0285336D01*
X0051566Y0285401D01*
X0051712Y0285463D01*
X0051859Y0285521D01*
X0052008Y0285576D01*
X0052158Y0285627D01*
X0052309Y0285674D01*
X0052461Y0285717D01*
X0052614Y0285756D01*
X0052769Y0285792D01*
X0052924Y0285823D01*
X0053080Y0285851D01*
X0053236Y0285875D01*
X0053393Y0285895D01*
X0053551Y0285911D01*
X0053708Y0285923D01*
X0053867Y0285931D01*
X0054025Y0285935D01*
X0054183Y0285935D01*
X0054341Y0285931D01*
X0054500Y0285923D01*
X0054657Y0285911D01*
X0054815Y0285895D01*
X0054972Y0285875D01*
X0055128Y0285851D01*
X0055284Y0285823D01*
X0055439Y0285792D01*
X0055594Y0285756D01*
X0055747Y0285717D01*
X0055899Y0285674D01*
X0056050Y0285627D01*
X0056200Y0285576D01*
X0056349Y0285521D01*
X0056496Y0285463D01*
X0056642Y0285401D01*
X0056786Y0285336D01*
X0056928Y0285266D01*
X0057069Y0285194D01*
X0057208Y0285117D01*
X0057344Y0285038D01*
X0057479Y0284954D01*
X0057612Y0284868D01*
X0057742Y0284778D01*
X0057870Y0284685D01*
X0057996Y0284589D01*
X0058119Y0284489D01*
X0058240Y0284387D01*
X0058358Y0284282D01*
X0058473Y0284173D01*
X0058586Y0284062D01*
X0058696Y0283948D01*
X0058803Y0283831D01*
X0058907Y0283712D01*
X0059008Y0283590D01*
X0059105Y0283465D01*
X0059200Y0283338D01*
X0059291Y0283209D01*
X0059380Y0283078D01*
X0059464Y0282944D01*
X0059546Y0282808D01*
X0059624Y0282671D01*
X0059698Y0282531D01*
X0059769Y0282389D01*
X0059837Y0282246D01*
X0059901Y0282101D01*
X0059961Y0281955D01*
X0060017Y0281807D01*
X0060070Y0281658D01*
X0060119Y0281507D01*
X0060164Y0281355D01*
X0060205Y0281202D01*
X0060243Y0281049D01*
X0060276Y0280894D01*
X0060306Y0280738D01*
X0060332Y0280582D01*
X0060353Y0280425D01*
X0060371Y0280268D01*
X0060385Y0280110D01*
X0060395Y0279952D01*
X0060401Y0279794D01*
X0060403Y0279636D01*
X0060401Y0279478D01*
X0060395Y0279320D01*
X0060385Y0279162D01*
X0060371Y0279004D01*
X0060353Y0278847D01*
X0060332Y0278690D01*
X0060306Y0278534D01*
X0060276Y0278378D01*
X0060243Y0278223D01*
X0060205Y0278070D01*
X0060164Y0277917D01*
X0060119Y0277765D01*
X0060070Y0277614D01*
X0060017Y0277465D01*
X0059961Y0277317D01*
X0059901Y0277171D01*
X0059837Y0277026D01*
X0059769Y0276883D01*
X0059698Y0276741D01*
X0059624Y0276601D01*
X0059546Y0276464D01*
X0059464Y0276328D01*
X0059380Y0276194D01*
X0059291Y0276063D01*
X0059200Y0275934D01*
X0059105Y0275807D01*
X0059008Y0275682D01*
X0058907Y0275560D01*
X0058803Y0275441D01*
X0058696Y0275324D01*
X0058586Y0275210D01*
X0058473Y0275099D01*
X0058358Y0274990D01*
X0058240Y0274885D01*
X0058119Y0274783D01*
X0057996Y0274683D01*
X0057870Y0274587D01*
X0057742Y0274494D01*
X0057612Y0274404D01*
X0057479Y0274318D01*
X0057344Y0274234D01*
X0057208Y0274155D01*
X0057069Y0274078D01*
X0056928Y0274006D01*
X0056786Y0273936D01*
X0056642Y0273871D01*
X0056496Y0273809D01*
X0056349Y0273751D01*
X0056200Y0273696D01*
X0056050Y0273645D01*
X0055899Y0273598D01*
X0055747Y0273555D01*
X0055594Y0273516D01*
X0055439Y0273480D01*
X0055284Y0273449D01*
X0055128Y0273421D01*
X0054972Y0273397D01*
X0054815Y0273377D01*
X0054657Y0273361D01*
X0054500Y0273349D01*
X0054341Y0273341D01*
X0054183Y0273337D01*
X0054025Y0273337D01*
X0053867Y0273341D01*
X0053708Y0273349D01*
X0053551Y0273361D01*
X0053393Y0273377D01*
X0053236Y0273397D01*
X0053080Y0273421D01*
X0052924Y0273449D01*
X0052769Y0273480D01*
X0052614Y0273516D01*
X0052461Y0273555D01*
X0052309Y0273598D01*
X0052158Y0273645D01*
X0052008Y0273696D01*
X0051859Y0273751D01*
X0051712Y0273809D01*
X0051566Y0273871D01*
X0051422Y0273936D01*
X0051280Y0274006D01*
X0051139Y0274078D01*
X0051000Y0274155D01*
X0050864Y0274234D01*
X0050729Y0274318D01*
X0050596Y0274404D01*
X0050466Y0274494D01*
X0050338Y0274587D01*
X0050212Y0274683D01*
X0050089Y0274783D01*
X0049968Y0274885D01*
X0049850Y0274990D01*
X0049735Y0275099D01*
X0049622Y0275210D01*
X0049512Y0275324D01*
X0049405Y0275441D01*
X0049301Y0275560D01*
X0049200Y0275682D01*
X0049103Y0275807D01*
X0049008Y0275934D01*
X0048917Y0276063D01*
X0048828Y0276194D01*
X0048744Y0276328D01*
X0048662Y0276464D01*
X0048584Y0276601D01*
X0048510Y0276741D01*
X0048439Y0276883D01*
X0048371Y0277026D01*
X0048307Y0277171D01*
X0048247Y0277317D01*
X0048191Y0277465D01*
X0048138Y0277614D01*
X0048089Y0277765D01*
X0048044Y0277917D01*
X0048003Y0278070D01*
X0047965Y0278223D01*
X0047932Y0278378D01*
X0047902Y0278534D01*
X0047876Y0278690D01*
X0047855Y0278847D01*
X0047837Y0279004D01*
X0047823Y0279162D01*
X0047813Y0279320D01*
X0047807Y0279478D01*
X0047805Y0279636D01*
X0336387Y0279636D02*
X0336389Y0279794D01*
X0336395Y0279952D01*
X0336405Y0280110D01*
X0336419Y0280268D01*
X0336437Y0280425D01*
X0336458Y0280582D01*
X0336484Y0280738D01*
X0336514Y0280894D01*
X0336547Y0281049D01*
X0336585Y0281202D01*
X0336626Y0281355D01*
X0336671Y0281507D01*
X0336720Y0281658D01*
X0336773Y0281807D01*
X0336829Y0281955D01*
X0336889Y0282101D01*
X0336953Y0282246D01*
X0337021Y0282389D01*
X0337092Y0282531D01*
X0337166Y0282671D01*
X0337244Y0282808D01*
X0337326Y0282944D01*
X0337410Y0283078D01*
X0337499Y0283209D01*
X0337590Y0283338D01*
X0337685Y0283465D01*
X0337782Y0283590D01*
X0337883Y0283712D01*
X0337987Y0283831D01*
X0338094Y0283948D01*
X0338204Y0284062D01*
X0338317Y0284173D01*
X0338432Y0284282D01*
X0338550Y0284387D01*
X0338671Y0284489D01*
X0338794Y0284589D01*
X0338920Y0284685D01*
X0339048Y0284778D01*
X0339178Y0284868D01*
X0339311Y0284954D01*
X0339446Y0285038D01*
X0339582Y0285117D01*
X0339721Y0285194D01*
X0339862Y0285266D01*
X0340004Y0285336D01*
X0340148Y0285401D01*
X0340294Y0285463D01*
X0340441Y0285521D01*
X0340590Y0285576D01*
X0340740Y0285627D01*
X0340891Y0285674D01*
X0341043Y0285717D01*
X0341196Y0285756D01*
X0341351Y0285792D01*
X0341506Y0285823D01*
X0341662Y0285851D01*
X0341818Y0285875D01*
X0341975Y0285895D01*
X0342133Y0285911D01*
X0342290Y0285923D01*
X0342449Y0285931D01*
X0342607Y0285935D01*
X0342765Y0285935D01*
X0342923Y0285931D01*
X0343082Y0285923D01*
X0343239Y0285911D01*
X0343397Y0285895D01*
X0343554Y0285875D01*
X0343710Y0285851D01*
X0343866Y0285823D01*
X0344021Y0285792D01*
X0344176Y0285756D01*
X0344329Y0285717D01*
X0344481Y0285674D01*
X0344632Y0285627D01*
X0344782Y0285576D01*
X0344931Y0285521D01*
X0345078Y0285463D01*
X0345224Y0285401D01*
X0345368Y0285336D01*
X0345510Y0285266D01*
X0345651Y0285194D01*
X0345790Y0285117D01*
X0345926Y0285038D01*
X0346061Y0284954D01*
X0346194Y0284868D01*
X0346324Y0284778D01*
X0346452Y0284685D01*
X0346578Y0284589D01*
X0346701Y0284489D01*
X0346822Y0284387D01*
X0346940Y0284282D01*
X0347055Y0284173D01*
X0347168Y0284062D01*
X0347278Y0283948D01*
X0347385Y0283831D01*
X0347489Y0283712D01*
X0347590Y0283590D01*
X0347687Y0283465D01*
X0347782Y0283338D01*
X0347873Y0283209D01*
X0347962Y0283078D01*
X0348046Y0282944D01*
X0348128Y0282808D01*
X0348206Y0282671D01*
X0348280Y0282531D01*
X0348351Y0282389D01*
X0348419Y0282246D01*
X0348483Y0282101D01*
X0348543Y0281955D01*
X0348599Y0281807D01*
X0348652Y0281658D01*
X0348701Y0281507D01*
X0348746Y0281355D01*
X0348787Y0281202D01*
X0348825Y0281049D01*
X0348858Y0280894D01*
X0348888Y0280738D01*
X0348914Y0280582D01*
X0348935Y0280425D01*
X0348953Y0280268D01*
X0348967Y0280110D01*
X0348977Y0279952D01*
X0348983Y0279794D01*
X0348985Y0279636D01*
X0348983Y0279478D01*
X0348977Y0279320D01*
X0348967Y0279162D01*
X0348953Y0279004D01*
X0348935Y0278847D01*
X0348914Y0278690D01*
X0348888Y0278534D01*
X0348858Y0278378D01*
X0348825Y0278223D01*
X0348787Y0278070D01*
X0348746Y0277917D01*
X0348701Y0277765D01*
X0348652Y0277614D01*
X0348599Y0277465D01*
X0348543Y0277317D01*
X0348483Y0277171D01*
X0348419Y0277026D01*
X0348351Y0276883D01*
X0348280Y0276741D01*
X0348206Y0276601D01*
X0348128Y0276464D01*
X0348046Y0276328D01*
X0347962Y0276194D01*
X0347873Y0276063D01*
X0347782Y0275934D01*
X0347687Y0275807D01*
X0347590Y0275682D01*
X0347489Y0275560D01*
X0347385Y0275441D01*
X0347278Y0275324D01*
X0347168Y0275210D01*
X0347055Y0275099D01*
X0346940Y0274990D01*
X0346822Y0274885D01*
X0346701Y0274783D01*
X0346578Y0274683D01*
X0346452Y0274587D01*
X0346324Y0274494D01*
X0346194Y0274404D01*
X0346061Y0274318D01*
X0345926Y0274234D01*
X0345790Y0274155D01*
X0345651Y0274078D01*
X0345510Y0274006D01*
X0345368Y0273936D01*
X0345224Y0273871D01*
X0345078Y0273809D01*
X0344931Y0273751D01*
X0344782Y0273696D01*
X0344632Y0273645D01*
X0344481Y0273598D01*
X0344329Y0273555D01*
X0344176Y0273516D01*
X0344021Y0273480D01*
X0343866Y0273449D01*
X0343710Y0273421D01*
X0343554Y0273397D01*
X0343397Y0273377D01*
X0343239Y0273361D01*
X0343082Y0273349D01*
X0342923Y0273341D01*
X0342765Y0273337D01*
X0342607Y0273337D01*
X0342449Y0273341D01*
X0342290Y0273349D01*
X0342133Y0273361D01*
X0341975Y0273377D01*
X0341818Y0273397D01*
X0341662Y0273421D01*
X0341506Y0273449D01*
X0341351Y0273480D01*
X0341196Y0273516D01*
X0341043Y0273555D01*
X0340891Y0273598D01*
X0340740Y0273645D01*
X0340590Y0273696D01*
X0340441Y0273751D01*
X0340294Y0273809D01*
X0340148Y0273871D01*
X0340004Y0273936D01*
X0339862Y0274006D01*
X0339721Y0274078D01*
X0339582Y0274155D01*
X0339446Y0274234D01*
X0339311Y0274318D01*
X0339178Y0274404D01*
X0339048Y0274494D01*
X0338920Y0274587D01*
X0338794Y0274683D01*
X0338671Y0274783D01*
X0338550Y0274885D01*
X0338432Y0274990D01*
X0338317Y0275099D01*
X0338204Y0275210D01*
X0338094Y0275324D01*
X0337987Y0275441D01*
X0337883Y0275560D01*
X0337782Y0275682D01*
X0337685Y0275807D01*
X0337590Y0275934D01*
X0337499Y0276063D01*
X0337410Y0276194D01*
X0337326Y0276328D01*
X0337244Y0276464D01*
X0337166Y0276601D01*
X0337092Y0276741D01*
X0337021Y0276883D01*
X0336953Y0277026D01*
X0336889Y0277171D01*
X0336829Y0277317D01*
X0336773Y0277465D01*
X0336720Y0277614D01*
X0336671Y0277765D01*
X0336626Y0277917D01*
X0336585Y0278070D01*
X0336547Y0278223D01*
X0336514Y0278378D01*
X0336484Y0278534D01*
X0336458Y0278690D01*
X0336437Y0278847D01*
X0336419Y0279004D01*
X0336405Y0279162D01*
X0336395Y0279320D01*
X0336389Y0279478D01*
X0336387Y0279636D01*
X0336387Y0055620D02*
X0336389Y0055778D01*
X0336395Y0055936D01*
X0336405Y0056094D01*
X0336419Y0056252D01*
X0336437Y0056409D01*
X0336458Y0056566D01*
X0336484Y0056722D01*
X0336514Y0056878D01*
X0336547Y0057033D01*
X0336585Y0057186D01*
X0336626Y0057339D01*
X0336671Y0057491D01*
X0336720Y0057642D01*
X0336773Y0057791D01*
X0336829Y0057939D01*
X0336889Y0058085D01*
X0336953Y0058230D01*
X0337021Y0058373D01*
X0337092Y0058515D01*
X0337166Y0058655D01*
X0337244Y0058792D01*
X0337326Y0058928D01*
X0337410Y0059062D01*
X0337499Y0059193D01*
X0337590Y0059322D01*
X0337685Y0059449D01*
X0337782Y0059574D01*
X0337883Y0059696D01*
X0337987Y0059815D01*
X0338094Y0059932D01*
X0338204Y0060046D01*
X0338317Y0060157D01*
X0338432Y0060266D01*
X0338550Y0060371D01*
X0338671Y0060473D01*
X0338794Y0060573D01*
X0338920Y0060669D01*
X0339048Y0060762D01*
X0339178Y0060852D01*
X0339311Y0060938D01*
X0339446Y0061022D01*
X0339582Y0061101D01*
X0339721Y0061178D01*
X0339862Y0061250D01*
X0340004Y0061320D01*
X0340148Y0061385D01*
X0340294Y0061447D01*
X0340441Y0061505D01*
X0340590Y0061560D01*
X0340740Y0061611D01*
X0340891Y0061658D01*
X0341043Y0061701D01*
X0341196Y0061740D01*
X0341351Y0061776D01*
X0341506Y0061807D01*
X0341662Y0061835D01*
X0341818Y0061859D01*
X0341975Y0061879D01*
X0342133Y0061895D01*
X0342290Y0061907D01*
X0342449Y0061915D01*
X0342607Y0061919D01*
X0342765Y0061919D01*
X0342923Y0061915D01*
X0343082Y0061907D01*
X0343239Y0061895D01*
X0343397Y0061879D01*
X0343554Y0061859D01*
X0343710Y0061835D01*
X0343866Y0061807D01*
X0344021Y0061776D01*
X0344176Y0061740D01*
X0344329Y0061701D01*
X0344481Y0061658D01*
X0344632Y0061611D01*
X0344782Y0061560D01*
X0344931Y0061505D01*
X0345078Y0061447D01*
X0345224Y0061385D01*
X0345368Y0061320D01*
X0345510Y0061250D01*
X0345651Y0061178D01*
X0345790Y0061101D01*
X0345926Y0061022D01*
X0346061Y0060938D01*
X0346194Y0060852D01*
X0346324Y0060762D01*
X0346452Y0060669D01*
X0346578Y0060573D01*
X0346701Y0060473D01*
X0346822Y0060371D01*
X0346940Y0060266D01*
X0347055Y0060157D01*
X0347168Y0060046D01*
X0347278Y0059932D01*
X0347385Y0059815D01*
X0347489Y0059696D01*
X0347590Y0059574D01*
X0347687Y0059449D01*
X0347782Y0059322D01*
X0347873Y0059193D01*
X0347962Y0059062D01*
X0348046Y0058928D01*
X0348128Y0058792D01*
X0348206Y0058655D01*
X0348280Y0058515D01*
X0348351Y0058373D01*
X0348419Y0058230D01*
X0348483Y0058085D01*
X0348543Y0057939D01*
X0348599Y0057791D01*
X0348652Y0057642D01*
X0348701Y0057491D01*
X0348746Y0057339D01*
X0348787Y0057186D01*
X0348825Y0057033D01*
X0348858Y0056878D01*
X0348888Y0056722D01*
X0348914Y0056566D01*
X0348935Y0056409D01*
X0348953Y0056252D01*
X0348967Y0056094D01*
X0348977Y0055936D01*
X0348983Y0055778D01*
X0348985Y0055620D01*
X0348983Y0055462D01*
X0348977Y0055304D01*
X0348967Y0055146D01*
X0348953Y0054988D01*
X0348935Y0054831D01*
X0348914Y0054674D01*
X0348888Y0054518D01*
X0348858Y0054362D01*
X0348825Y0054207D01*
X0348787Y0054054D01*
X0348746Y0053901D01*
X0348701Y0053749D01*
X0348652Y0053598D01*
X0348599Y0053449D01*
X0348543Y0053301D01*
X0348483Y0053155D01*
X0348419Y0053010D01*
X0348351Y0052867D01*
X0348280Y0052725D01*
X0348206Y0052585D01*
X0348128Y0052448D01*
X0348046Y0052312D01*
X0347962Y0052178D01*
X0347873Y0052047D01*
X0347782Y0051918D01*
X0347687Y0051791D01*
X0347590Y0051666D01*
X0347489Y0051544D01*
X0347385Y0051425D01*
X0347278Y0051308D01*
X0347168Y0051194D01*
X0347055Y0051083D01*
X0346940Y0050974D01*
X0346822Y0050869D01*
X0346701Y0050767D01*
X0346578Y0050667D01*
X0346452Y0050571D01*
X0346324Y0050478D01*
X0346194Y0050388D01*
X0346061Y0050302D01*
X0345926Y0050218D01*
X0345790Y0050139D01*
X0345651Y0050062D01*
X0345510Y0049990D01*
X0345368Y0049920D01*
X0345224Y0049855D01*
X0345078Y0049793D01*
X0344931Y0049735D01*
X0344782Y0049680D01*
X0344632Y0049629D01*
X0344481Y0049582D01*
X0344329Y0049539D01*
X0344176Y0049500D01*
X0344021Y0049464D01*
X0343866Y0049433D01*
X0343710Y0049405D01*
X0343554Y0049381D01*
X0343397Y0049361D01*
X0343239Y0049345D01*
X0343082Y0049333D01*
X0342923Y0049325D01*
X0342765Y0049321D01*
X0342607Y0049321D01*
X0342449Y0049325D01*
X0342290Y0049333D01*
X0342133Y0049345D01*
X0341975Y0049361D01*
X0341818Y0049381D01*
X0341662Y0049405D01*
X0341506Y0049433D01*
X0341351Y0049464D01*
X0341196Y0049500D01*
X0341043Y0049539D01*
X0340891Y0049582D01*
X0340740Y0049629D01*
X0340590Y0049680D01*
X0340441Y0049735D01*
X0340294Y0049793D01*
X0340148Y0049855D01*
X0340004Y0049920D01*
X0339862Y0049990D01*
X0339721Y0050062D01*
X0339582Y0050139D01*
X0339446Y0050218D01*
X0339311Y0050302D01*
X0339178Y0050388D01*
X0339048Y0050478D01*
X0338920Y0050571D01*
X0338794Y0050667D01*
X0338671Y0050767D01*
X0338550Y0050869D01*
X0338432Y0050974D01*
X0338317Y0051083D01*
X0338204Y0051194D01*
X0338094Y0051308D01*
X0337987Y0051425D01*
X0337883Y0051544D01*
X0337782Y0051666D01*
X0337685Y0051791D01*
X0337590Y0051918D01*
X0337499Y0052047D01*
X0337410Y0052178D01*
X0337326Y0052312D01*
X0337244Y0052448D01*
X0337166Y0052585D01*
X0337092Y0052725D01*
X0337021Y0052867D01*
X0336953Y0053010D01*
X0336889Y0053155D01*
X0336829Y0053301D01*
X0336773Y0053449D01*
X0336720Y0053598D01*
X0336671Y0053749D01*
X0336626Y0053901D01*
X0336585Y0054054D01*
X0336547Y0054207D01*
X0336514Y0054362D01*
X0336484Y0054518D01*
X0336458Y0054674D01*
X0336437Y0054831D01*
X0336419Y0054988D01*
X0336405Y0055146D01*
X0336395Y0055304D01*
X0336389Y0055462D01*
X0336387Y0055620D01*
D11*
X0085403Y0050077D03*
X0085403Y0027077D03*
X0085403Y0082817D03*
X0085403Y0105817D03*
D12*
X0065875Y0112156D02*
X0059875Y0112156D01*
X0042135Y0131644D02*
X0042135Y0137644D01*
X0042489Y0158809D02*
X0042489Y0164809D01*
X0012489Y0172809D02*
X0012489Y0178809D01*
X0012135Y0151644D02*
X0012135Y0145644D01*
X0045875Y0082156D02*
X0051875Y0082156D01*
D13*
X0111151Y0129990D03*
X0131151Y0129990D03*
X0271151Y0129990D03*
X0291151Y0129990D03*
X0281151Y0309990D03*
X0261151Y0309990D03*
X0141151Y0309990D03*
X0121151Y0309990D03*
D14*
X0313395Y0104730D03*
X0286978Y0065502D03*
X0139340Y0038455D03*
X0377332Y0214045D03*
D15*
X0347332Y0214045D03*
X0343395Y0104730D03*
X0286978Y0035502D03*
X0139340Y0068455D03*
D16*
X0018867Y0058628D03*
X0018867Y0078628D03*
X0018867Y0098628D03*
X0377923Y0096289D03*
X0377923Y0076289D03*
X0377923Y0056289D03*
X0377923Y0257392D03*
X0377923Y0277392D03*
D17*
X0093671Y0179754D03*
X0076741Y0179754D03*
X0076741Y0139754D03*
X0093671Y0139754D03*
X0016505Y0200778D03*
X0016505Y0240778D03*
X0085797Y0271250D03*
X0085797Y0311250D03*
D18*
X0081860Y0255423D03*
X0050364Y0255423D03*
X0050364Y0227864D03*
X0081860Y0227864D03*
D19*
X0183395Y0277077D03*
X0183395Y0293612D03*
X0183395Y0309360D03*
X0213395Y0309360D03*
X0213395Y0293612D03*
X0213395Y0277077D03*
X0309025Y0260345D03*
X0309025Y0310345D03*
D20*
X0090049Y0214636D03*
X0070049Y0214636D03*
X0060049Y0214636D03*
X0050049Y0214636D03*
X0050049Y0194636D03*
X0060049Y0194636D03*
X0070049Y0194636D03*
X0090049Y0194636D03*
D21*
X0093671Y0179754D02*
X0104222Y0179754D01*
X0116505Y0192037D01*
X0116505Y0238888D01*
X0132253Y0255423D02*
X0081860Y0255423D01*
X0121151Y0288967D02*
X0133041Y0277077D01*
X0133041Y0186526D01*
X0109812Y0163297D01*
X0085403Y0163297D01*
X0076741Y0171959D01*
X0076741Y0179754D01*
X0031466Y0180140D02*
X0031466Y0225817D01*
X0016505Y0240778D01*
X0031466Y0180140D02*
X0027135Y0175809D01*
X0012489Y0175809D01*
X0027135Y0175809D02*
X0027175Y0123809D01*
X0027253Y0123809D01*
X0036190Y0114872D01*
X0036190Y0084951D01*
X0029867Y0078628D01*
X0018867Y0078628D01*
X0200127Y0260345D02*
X0183395Y0277077D01*
X0133041Y0277077D01*
X0121151Y0288967D02*
X0121151Y0309990D01*
X0119891Y0311250D01*
X0085797Y0311250D01*
X0141151Y0309360D02*
X0183395Y0309360D01*
X0183395Y0293612D01*
X0213395Y0309360D02*
X0229104Y0309360D01*
X0261151Y0309360D01*
X0229104Y0309360D02*
X0229104Y0285738D01*
X0220442Y0277077D01*
X0213395Y0277077D01*
D22*
X0116505Y0238888D03*
D23*
X0132253Y0254242D02*
X0132253Y0255423D01*
X0132253Y0276289D01*
X0133041Y0277077D01*
X0342883Y0175108D02*
X0342883Y0160935D01*
X0357844Y0160935D01*
X0357844Y0175108D01*
X0342883Y0175108D01*
X0342883Y0174819D02*
X0357844Y0174819D01*
X0357844Y0173621D02*
X0342883Y0173621D01*
X0342883Y0172422D02*
X0357844Y0172422D01*
X0357844Y0171224D02*
X0342883Y0171224D01*
X0342883Y0170025D02*
X0357844Y0170025D01*
X0357844Y0168827D02*
X0342883Y0168827D01*
X0342883Y0167628D02*
X0357844Y0167628D01*
X0357844Y0166430D02*
X0342883Y0166430D01*
X0342883Y0165231D02*
X0357844Y0165231D01*
X0357844Y0164033D02*
X0342883Y0164033D01*
X0342883Y0162834D02*
X0357844Y0162834D01*
X0357844Y0161635D02*
X0342883Y0161635D01*
X0218867Y0061329D02*
X0218867Y0045581D01*
X0202332Y0045581D01*
X0202332Y0061329D01*
X0218867Y0061329D01*
X0218867Y0060961D02*
X0202332Y0060961D01*
X0202332Y0059762D02*
X0218867Y0059762D01*
X0218867Y0058564D02*
X0202332Y0058564D01*
X0202332Y0057365D02*
X0218867Y0057365D01*
X0218867Y0056166D02*
X0202332Y0056166D01*
X0202332Y0054968D02*
X0218867Y0054968D01*
X0218867Y0053769D02*
X0202332Y0053769D01*
X0202332Y0052571D02*
X0218867Y0052571D01*
X0218867Y0051372D02*
X0202332Y0051372D01*
X0202332Y0050174D02*
X0218867Y0050174D01*
X0218867Y0048975D02*
X0202332Y0048975D01*
X0202332Y0047777D02*
X0218867Y0047777D01*
X0218867Y0046578D02*
X0202332Y0046578D01*
D24*
X0200127Y0260345D02*
X0304025Y0260345D01*
X0309025Y0260345D01*
D25*
X0360543Y0212453D02*
X0369754Y0212453D01*
X0369754Y0211274D02*
X0359364Y0211274D01*
X0358184Y0210094D02*
X0370566Y0210094D01*
X0369754Y0210906D02*
X0374193Y0206467D01*
X0376923Y0206467D01*
X0376923Y0213636D01*
X0377741Y0213636D01*
X0377741Y0206467D01*
X0380471Y0206467D01*
X0384910Y0210906D01*
X0384910Y0213636D01*
X0377742Y0213636D01*
X0377742Y0214455D01*
X0384910Y0214455D01*
X0384910Y0217184D01*
X0380471Y0221623D01*
X0377741Y0221623D01*
X0377741Y0214455D01*
X0376923Y0214455D01*
X0376923Y0221623D01*
X0374193Y0221623D01*
X0369754Y0217184D01*
X0369754Y0214455D01*
X0376922Y0214455D01*
X0376922Y0213636D01*
X0369754Y0213636D01*
X0369754Y0210906D01*
X0369754Y0213633D02*
X0361723Y0213633D01*
X0362902Y0214813D02*
X0369754Y0214813D01*
X0369754Y0215992D02*
X0364082Y0215992D01*
X0365262Y0217172D02*
X0369754Y0217172D01*
X0370921Y0218351D02*
X0366441Y0218351D01*
X0367621Y0219531D02*
X0372101Y0219531D01*
X0373280Y0220711D02*
X0368800Y0220711D01*
X0369980Y0221890D02*
X0386259Y0221890D01*
X0387438Y0220711D02*
X0381384Y0220711D01*
X0382563Y0219531D02*
X0388618Y0219531D01*
X0389798Y0218351D02*
X0383743Y0218351D01*
X0384910Y0217172D02*
X0390977Y0217172D01*
X0392157Y0215992D02*
X0384910Y0215992D01*
X0384910Y0214813D02*
X0392883Y0214813D01*
X0392883Y0215266D02*
X0392883Y0179320D01*
X0391558Y0180645D01*
X0390324Y0180645D01*
X0389091Y0180645D01*
X0387346Y0178901D01*
X0387346Y0177667D01*
X0387346Y0176434D01*
X0389091Y0174689D01*
X0390324Y0174689D01*
X0390324Y0177667D01*
X0390324Y0177667D01*
X0390324Y0174689D01*
X0391558Y0174689D01*
X0392883Y0176015D01*
X0392883Y0170462D01*
X0391558Y0171787D01*
X0390324Y0171787D01*
X0389091Y0171787D01*
X0387346Y0170043D01*
X0387346Y0168809D01*
X0387346Y0167576D01*
X0389091Y0165831D01*
X0390324Y0165831D01*
X0390324Y0168809D01*
X0390324Y0168809D01*
X0387346Y0168809D01*
X0390324Y0168809D01*
X0390324Y0168809D01*
X0390324Y0165831D01*
X0391558Y0165831D01*
X0392883Y0167157D01*
X0392883Y0161603D01*
X0391558Y0162929D01*
X0390324Y0162929D01*
X0389091Y0162929D01*
X0387346Y0161184D01*
X0387346Y0159951D01*
X0390324Y0159951D01*
X0390324Y0159951D01*
X0390324Y0162929D01*
X0390324Y0159951D01*
X0390324Y0159951D01*
X0387346Y0159951D01*
X0387346Y0158717D01*
X0389091Y0156973D01*
X0390324Y0156973D01*
X0390324Y0159951D01*
X0390324Y0159951D01*
X0390324Y0156973D01*
X0391558Y0156973D01*
X0392883Y0158298D01*
X0392883Y0152745D01*
X0391558Y0154071D01*
X0390324Y0154071D01*
X0389091Y0154071D01*
X0387346Y0152326D01*
X0387346Y0151093D01*
X0390324Y0151093D01*
X0390324Y0154071D01*
X0390324Y0151093D01*
X0390324Y0151093D01*
X0390324Y0151093D01*
X0387346Y0151093D01*
X0387346Y0149859D01*
X0389091Y0148115D01*
X0390324Y0148115D01*
X0390324Y0151092D01*
X0390324Y0151092D01*
X0390324Y0148115D01*
X0391558Y0148115D01*
X0392883Y0149440D01*
X0392883Y0143887D01*
X0391558Y0145212D01*
X0390324Y0145212D01*
X0389091Y0145212D01*
X0387346Y0143468D01*
X0387346Y0142234D01*
X0387346Y0141001D01*
X0389091Y0139256D01*
X0390324Y0139256D01*
X0390324Y0142234D01*
X0390324Y0142234D01*
X0390324Y0139256D01*
X0391558Y0139256D01*
X0392883Y0140582D01*
X0392883Y0135028D01*
X0391558Y0136354D01*
X0390324Y0136354D01*
X0389091Y0136354D01*
X0387346Y0134610D01*
X0387346Y0133376D01*
X0387346Y0132143D01*
X0389091Y0130398D01*
X0390324Y0130398D01*
X0390324Y0133376D01*
X0387346Y0133376D01*
X0390324Y0133376D01*
X0390324Y0133376D01*
X0390324Y0133376D01*
X0390324Y0130398D01*
X0391558Y0130398D01*
X0392883Y0131724D01*
X0392883Y0126170D01*
X0391558Y0127496D01*
X0390324Y0127496D01*
X0389091Y0127496D01*
X0387346Y0125751D01*
X0387346Y0124518D01*
X0390324Y0124518D01*
X0390324Y0127496D01*
X0390324Y0124518D01*
X0390324Y0124518D01*
X0390324Y0124518D01*
X0387346Y0124518D01*
X0387346Y0123284D01*
X0389091Y0121540D01*
X0390324Y0121540D01*
X0390324Y0124518D01*
X0390324Y0124518D01*
X0390324Y0121540D01*
X0391558Y0121540D01*
X0392883Y0122865D01*
X0392883Y0117312D01*
X0391558Y0118637D01*
X0390324Y0118637D01*
X0389091Y0118637D01*
X0387346Y0116893D01*
X0387346Y0115660D01*
X0390324Y0115660D01*
X0390324Y0118637D01*
X0390324Y0115660D01*
X0390324Y0115660D01*
X0390324Y0115659D01*
X0390324Y0115659D01*
X0390324Y0112682D01*
X0389091Y0112682D01*
X0387346Y0114426D01*
X0387346Y0115659D01*
X0390324Y0115659D01*
X0390324Y0112682D01*
X0391558Y0112682D01*
X0392883Y0114007D01*
X0392883Y0091053D01*
X0388749Y0086919D01*
X0273473Y0086919D01*
X0274208Y0087654D01*
X0274208Y0088888D01*
X0274208Y0090121D01*
X0272463Y0091866D01*
X0271230Y0091866D01*
X0271230Y0088888D01*
X0274208Y0088888D01*
X0271230Y0088888D01*
X0271230Y0088888D01*
X0271230Y0088888D01*
X0271230Y0091866D01*
X0269996Y0091866D01*
X0268252Y0090121D01*
X0268252Y0088888D01*
X0271230Y0088888D01*
X0271230Y0088888D01*
X0268252Y0088888D01*
X0268252Y0087654D01*
X0268987Y0086919D01*
X0265599Y0086919D01*
X0266334Y0087654D01*
X0266334Y0088888D01*
X0266334Y0090121D01*
X0264589Y0091866D01*
X0263356Y0091866D01*
X0263356Y0088888D01*
X0266334Y0088888D01*
X0263356Y0088888D01*
X0263356Y0088888D01*
X0263356Y0088888D01*
X0263356Y0091866D01*
X0262122Y0091866D01*
X0260378Y0090121D01*
X0260378Y0088888D01*
X0263355Y0088888D01*
X0263355Y0088888D01*
X0260378Y0088888D01*
X0260378Y0087654D01*
X0261113Y0086919D01*
X0243671Y0086919D01*
X0239734Y0090856D01*
X0235822Y0090856D01*
X0235822Y0091841D01*
X0235822Y0093074D01*
X0234077Y0094819D01*
X0232844Y0094819D01*
X0232844Y0091841D01*
X0232844Y0091841D01*
X0235822Y0091841D01*
X0232844Y0091841D01*
X0232844Y0091841D01*
X0232844Y0094819D01*
X0231610Y0094819D01*
X0229866Y0093074D01*
X0229866Y0091841D01*
X0232844Y0091841D01*
X0232844Y0091841D01*
X0229866Y0091841D01*
X0229866Y0090856D01*
X0223986Y0090856D01*
X0221033Y0094793D01*
X0221033Y0100699D01*
X0234812Y0114478D01*
X0297804Y0114478D01*
X0303710Y0120384D01*
X0303072Y0186894D01*
X0303907Y0186894D01*
X0305140Y0186894D01*
X0306885Y0188639D01*
X0306885Y0189872D01*
X0303907Y0189872D01*
X0303907Y0189872D01*
X0303907Y0186894D01*
X0303907Y0189872D01*
X0303907Y0189872D01*
X0306885Y0189872D01*
X0306885Y0191106D01*
X0305140Y0192850D01*
X0303907Y0192850D01*
X0303907Y0189872D01*
X0303907Y0189872D01*
X0303907Y0192850D01*
X0303015Y0192850D01*
X0302956Y0199013D01*
X0304051Y0197918D01*
X0305285Y0197918D01*
X0306518Y0197918D01*
X0308263Y0199662D01*
X0308263Y0200896D01*
X0308263Y0202129D01*
X0306518Y0203874D01*
X0305285Y0203874D01*
X0305285Y0200896D01*
X0305285Y0200896D01*
X0308263Y0200896D01*
X0305285Y0200896D01*
X0305285Y0200896D01*
X0305285Y0203874D01*
X0304326Y0203874D01*
X0307819Y0207367D01*
X0307819Y0207195D01*
X0310796Y0207195D01*
X0307819Y0207195D01*
X0307819Y0205961D01*
X0309563Y0204217D01*
X0310797Y0204217D01*
X0312030Y0204217D01*
X0313775Y0205961D01*
X0313775Y0207195D01*
X0313775Y0208428D01*
X0312449Y0209754D01*
X0333041Y0209754D01*
X0340915Y0201880D01*
X0349970Y0201880D01*
X0372804Y0224715D01*
X0383434Y0224715D01*
X0392883Y0215266D01*
X0392883Y0213633D02*
X0384910Y0213633D01*
X0384910Y0212453D02*
X0392883Y0212453D01*
X0392883Y0211274D02*
X0384910Y0211274D01*
X0384098Y0210094D02*
X0392883Y0210094D01*
X0392883Y0208915D02*
X0382918Y0208915D01*
X0381738Y0207735D02*
X0392883Y0207735D01*
X0392883Y0206555D02*
X0380559Y0206555D01*
X0377741Y0206555D02*
X0376923Y0206555D01*
X0376923Y0207735D02*
X0377741Y0207735D01*
X0377741Y0208915D02*
X0376923Y0208915D01*
X0376923Y0210094D02*
X0377741Y0210094D01*
X0377741Y0211274D02*
X0376923Y0211274D01*
X0376923Y0212453D02*
X0377741Y0212453D01*
X0377741Y0213633D02*
X0376923Y0213633D01*
X0376923Y0214813D02*
X0377741Y0214813D01*
X0377741Y0215992D02*
X0376923Y0215992D01*
X0376923Y0217172D02*
X0377741Y0217172D01*
X0377741Y0218351D02*
X0376923Y0218351D01*
X0376923Y0219531D02*
X0377741Y0219531D01*
X0377741Y0220711D02*
X0376923Y0220711D01*
X0372339Y0224250D02*
X0383900Y0224250D01*
X0385079Y0223070D02*
X0371160Y0223070D01*
X0371746Y0208915D02*
X0357004Y0208915D01*
X0355825Y0207735D02*
X0372926Y0207735D01*
X0374105Y0206555D02*
X0354645Y0206555D01*
X0353465Y0205376D02*
X0392883Y0205376D01*
X0392883Y0204196D02*
X0352286Y0204196D01*
X0351106Y0203016D02*
X0392883Y0203016D01*
X0392883Y0201837D02*
X0308263Y0201837D01*
X0308263Y0200657D02*
X0392883Y0200657D01*
X0392883Y0199478D02*
X0308078Y0199478D01*
X0306898Y0198298D02*
X0392883Y0198298D01*
X0392883Y0197118D02*
X0302974Y0197118D01*
X0302985Y0195939D02*
X0310683Y0195939D01*
X0310744Y0196000D02*
X0309000Y0194255D01*
X0309000Y0193022D01*
X0311978Y0193022D01*
X0314956Y0193022D01*
X0314956Y0194255D01*
X0313211Y0196000D01*
X0311978Y0196000D01*
X0311978Y0193022D01*
X0311978Y0193022D01*
X0311978Y0193022D01*
X0314956Y0193022D01*
X0314956Y0191788D01*
X0313211Y0190044D01*
X0311978Y0190044D01*
X0311978Y0193022D01*
X0311978Y0196000D01*
X0310744Y0196000D01*
X0311978Y0195939D02*
X0311978Y0195939D01*
X0311978Y0194759D02*
X0311978Y0194759D01*
X0311978Y0193580D02*
X0311978Y0193580D01*
X0311978Y0193022D02*
X0311978Y0193022D01*
X0311978Y0193022D01*
X0311978Y0190044D01*
X0310744Y0190044D01*
X0309000Y0191788D01*
X0309000Y0193022D01*
X0311978Y0193022D01*
X0311978Y0192400D02*
X0311978Y0192400D01*
X0311978Y0191220D02*
X0311978Y0191220D01*
X0314388Y0191220D02*
X0392883Y0191220D01*
X0392883Y0190041D02*
X0336887Y0190041D01*
X0337593Y0189334D02*
X0335849Y0191078D01*
X0334616Y0191078D01*
X0334616Y0188101D01*
X0337593Y0188101D01*
X0337593Y0189334D01*
X0337593Y0188861D02*
X0392883Y0188861D01*
X0392883Y0187681D02*
X0337593Y0187681D01*
X0337593Y0188100D02*
X0334616Y0188100D01*
X0334616Y0188101D01*
X0334615Y0188101D01*
X0334615Y0191078D01*
X0333382Y0191078D01*
X0331638Y0189334D01*
X0331638Y0188101D01*
X0334615Y0188101D01*
X0334615Y0188100D01*
X0334616Y0188100D01*
X0334616Y0185123D01*
X0335849Y0185123D01*
X0337593Y0186867D01*
X0337593Y0188100D01*
X0337228Y0186502D02*
X0392883Y0186502D01*
X0392883Y0185322D02*
X0336049Y0185322D01*
X0334616Y0185322D02*
X0334615Y0185322D01*
X0334615Y0185123D02*
X0334615Y0188100D01*
X0331638Y0188100D01*
X0331638Y0186867D01*
X0333382Y0185123D01*
X0334615Y0185123D01*
X0334615Y0186502D02*
X0334616Y0186502D01*
X0334615Y0187681D02*
X0334616Y0187681D01*
X0334615Y0188861D02*
X0334616Y0188861D01*
X0334615Y0190041D02*
X0334616Y0190041D01*
X0332344Y0190041D02*
X0306885Y0190041D01*
X0306885Y0188861D02*
X0331638Y0188861D01*
X0331638Y0187681D02*
X0305928Y0187681D01*
X0303907Y0187681D02*
X0303907Y0187681D01*
X0303907Y0188861D02*
X0303907Y0188861D01*
X0303907Y0190041D02*
X0303907Y0190041D01*
X0303907Y0191220D02*
X0303907Y0191220D01*
X0303907Y0192400D02*
X0303907Y0192400D01*
X0303008Y0193580D02*
X0309000Y0193580D01*
X0309000Y0192400D02*
X0305590Y0192400D01*
X0306770Y0191220D02*
X0309568Y0191220D01*
X0309504Y0194759D02*
X0302997Y0194759D01*
X0302963Y0198298D02*
X0303671Y0198298D01*
X0305285Y0198298D02*
X0305285Y0198298D01*
X0305285Y0197918D02*
X0305285Y0200896D01*
X0305285Y0200896D01*
X0305285Y0197918D01*
X0305285Y0199478D02*
X0305285Y0199478D01*
X0305285Y0200657D02*
X0305285Y0200657D01*
X0305285Y0201837D02*
X0305285Y0201837D01*
X0305285Y0203016D02*
X0305285Y0203016D01*
X0304648Y0204196D02*
X0338599Y0204196D01*
X0339778Y0203016D02*
X0307376Y0203016D01*
X0308404Y0205376D02*
X0305828Y0205376D01*
X0307007Y0206555D02*
X0307819Y0206555D01*
X0310797Y0206555D02*
X0310797Y0206555D01*
X0310797Y0207195D02*
X0310797Y0204217D01*
X0310797Y0207195D01*
X0313775Y0207195D01*
X0310797Y0207195D01*
X0310797Y0207195D01*
X0310797Y0207195D01*
X0310796Y0207195D02*
X0310796Y0207195D01*
X0310797Y0205376D02*
X0310797Y0205376D01*
X0313189Y0205376D02*
X0337419Y0205376D01*
X0336239Y0206555D02*
X0313775Y0206555D01*
X0313775Y0207735D02*
X0335060Y0207735D01*
X0333880Y0208915D02*
X0313288Y0208915D01*
X0313272Y0195939D02*
X0392883Y0195939D01*
X0392883Y0194759D02*
X0314452Y0194759D01*
X0314956Y0193580D02*
X0392883Y0193580D01*
X0392883Y0192400D02*
X0314956Y0192400D01*
X0303076Y0186502D02*
X0332003Y0186502D01*
X0333182Y0185322D02*
X0303087Y0185322D01*
X0303098Y0184143D02*
X0392883Y0184143D01*
X0392883Y0182963D02*
X0303110Y0182963D01*
X0303121Y0181783D02*
X0392883Y0181783D01*
X0392883Y0180604D02*
X0391599Y0180604D01*
X0390324Y0180604D02*
X0390324Y0180604D01*
X0390324Y0180645D02*
X0390324Y0177668D01*
X0390324Y0177668D01*
X0390324Y0180645D01*
X0390324Y0179424D02*
X0390324Y0179424D01*
X0390324Y0178245D02*
X0390324Y0178245D01*
X0390324Y0177667D02*
X0390324Y0177667D01*
X0387346Y0177667D01*
X0390324Y0177667D01*
X0390324Y0177065D02*
X0390324Y0177065D01*
X0390324Y0175885D02*
X0390324Y0175885D01*
X0390324Y0174706D02*
X0390324Y0174706D01*
X0389074Y0174706D02*
X0356601Y0174706D01*
X0356721Y0174636D02*
X0356407Y0174818D01*
X0356057Y0174912D01*
X0354301Y0174912D01*
X0354301Y0174244D01*
X0354300Y0174244D02*
X0354300Y0174912D01*
X0351545Y0174912D01*
X0351545Y0174244D01*
X0351545Y0174244D01*
X0351545Y0174912D01*
X0348789Y0174912D01*
X0348789Y0174244D01*
X0348789Y0174244D01*
X0348789Y0174912D01*
X0347789Y0174912D01*
X0346033Y0174912D01*
X0346033Y0174244D01*
X0346033Y0174244D01*
X0346033Y0174912D01*
X0344277Y0174912D01*
X0343926Y0174818D01*
X0343612Y0174636D01*
X0343355Y0174380D01*
X0343174Y0174065D01*
X0343080Y0173715D01*
X0343080Y0171959D01*
X0343748Y0171959D01*
X0343748Y0171959D01*
X0343080Y0171959D01*
X0343080Y0169203D01*
X0343748Y0169203D01*
X0343748Y0169203D01*
X0343748Y0169203D01*
X0343080Y0169203D01*
X0343080Y0166447D01*
X0343748Y0166447D01*
X0343748Y0166447D01*
X0343748Y0166447D01*
X0343080Y0166447D01*
X0343080Y0163691D01*
X0343080Y0161935D01*
X0343174Y0161584D01*
X0343355Y0161270D01*
X0343612Y0161014D01*
X0343926Y0160832D01*
X0344277Y0160738D01*
X0346033Y0160738D01*
X0348789Y0160738D01*
X0351545Y0160738D01*
X0354300Y0160738D01*
X0354300Y0161406D01*
X0354301Y0161406D01*
X0354301Y0160738D01*
X0356057Y0160738D01*
X0356407Y0160832D01*
X0356721Y0161014D01*
X0356978Y0161270D01*
X0357159Y0161584D01*
X0357253Y0161935D01*
X0357253Y0163691D01*
X0356585Y0163691D01*
X0356586Y0163691D01*
X0357253Y0163691D01*
X0357253Y0166447D01*
X0357253Y0169203D01*
X0357253Y0171959D01*
X0357253Y0173715D01*
X0357159Y0174065D01*
X0356978Y0174380D01*
X0356721Y0174636D01*
X0357253Y0173526D02*
X0392883Y0173526D01*
X0392883Y0172347D02*
X0357253Y0172347D01*
X0357253Y0171959D02*
X0356585Y0171959D01*
X0356586Y0171959D01*
X0357253Y0171959D01*
X0357253Y0171167D02*
X0388470Y0171167D01*
X0387346Y0169987D02*
X0357253Y0169987D01*
X0357253Y0169203D02*
X0356586Y0169203D01*
X0356585Y0169203D01*
X0356586Y0169203D01*
X0357253Y0169203D01*
X0357253Y0168808D02*
X0387346Y0168808D01*
X0387346Y0167628D02*
X0357253Y0167628D01*
X0357253Y0166448D02*
X0388473Y0166448D01*
X0390324Y0166448D02*
X0390324Y0166448D01*
X0390324Y0167628D02*
X0390324Y0167628D01*
X0390324Y0168808D02*
X0390324Y0168808D01*
X0390324Y0168809D02*
X0390324Y0171787D01*
X0390324Y0168809D01*
X0390324Y0168809D01*
X0390324Y0169987D02*
X0390324Y0169987D01*
X0390324Y0171167D02*
X0390324Y0171167D01*
X0392178Y0171167D02*
X0392883Y0171167D01*
X0392883Y0174706D02*
X0391574Y0174706D01*
X0392754Y0175885D02*
X0392883Y0175885D01*
X0392883Y0179424D02*
X0392779Y0179424D01*
X0389049Y0180604D02*
X0303132Y0180604D01*
X0303144Y0179424D02*
X0387869Y0179424D01*
X0387346Y0178245D02*
X0303155Y0178245D01*
X0303166Y0177065D02*
X0387346Y0177065D01*
X0387895Y0175885D02*
X0336089Y0175885D01*
X0335841Y0176134D02*
X0334608Y0176134D01*
X0334608Y0173156D01*
X0337586Y0173156D01*
X0337586Y0174389D01*
X0335841Y0176134D01*
X0334608Y0176134D02*
X0333374Y0176134D01*
X0331630Y0174389D01*
X0331630Y0173156D01*
X0334607Y0173156D01*
X0334607Y0173156D01*
X0334608Y0173156D02*
X0334608Y0176134D01*
X0334608Y0175885D02*
X0334608Y0175885D01*
X0334608Y0174706D02*
X0334608Y0174706D01*
X0334608Y0173526D02*
X0334608Y0173526D01*
X0334608Y0173156D02*
X0334608Y0173156D01*
X0334608Y0173156D01*
X0337586Y0173156D01*
X0337586Y0171922D01*
X0335841Y0170178D01*
X0334608Y0170178D01*
X0334608Y0173155D01*
X0334608Y0173155D01*
X0334608Y0170178D01*
X0333374Y0170178D01*
X0331630Y0171922D01*
X0331630Y0173156D01*
X0334607Y0173156D01*
X0334608Y0172347D02*
X0334608Y0172347D01*
X0334608Y0171167D02*
X0334608Y0171167D01*
X0336830Y0171167D02*
X0343080Y0171167D01*
X0343080Y0172347D02*
X0337586Y0172347D01*
X0337586Y0173526D02*
X0343080Y0173526D01*
X0343732Y0174706D02*
X0337269Y0174706D01*
X0333126Y0175885D02*
X0328089Y0175885D01*
X0327841Y0176134D02*
X0326608Y0176134D01*
X0326608Y0173156D01*
X0329586Y0173156D01*
X0329586Y0174389D01*
X0327841Y0176134D01*
X0326608Y0176134D02*
X0325374Y0176134D01*
X0323630Y0174389D01*
X0323630Y0173156D01*
X0326607Y0173156D01*
X0326607Y0173156D01*
X0326608Y0173156D02*
X0326608Y0176134D01*
X0326608Y0175885D02*
X0326608Y0175885D01*
X0326608Y0174706D02*
X0326608Y0174706D01*
X0326608Y0173526D02*
X0326608Y0173526D01*
X0326608Y0173156D02*
X0326608Y0173156D01*
X0326608Y0173156D01*
X0329586Y0173156D01*
X0329586Y0171922D01*
X0327841Y0170178D01*
X0326608Y0170178D01*
X0326608Y0173155D01*
X0326608Y0173155D01*
X0326608Y0170178D01*
X0325374Y0170178D01*
X0323630Y0171922D01*
X0323630Y0173156D01*
X0326607Y0173156D01*
X0326608Y0172347D02*
X0326608Y0172347D01*
X0326608Y0171167D02*
X0326608Y0171167D01*
X0328830Y0171167D02*
X0332385Y0171167D01*
X0331630Y0172347D02*
X0329586Y0172347D01*
X0329586Y0173526D02*
X0331630Y0173526D01*
X0331946Y0174706D02*
X0329269Y0174706D01*
X0325126Y0175885D02*
X0303178Y0175885D01*
X0303189Y0174706D02*
X0323946Y0174706D01*
X0323630Y0173526D02*
X0303200Y0173526D01*
X0303212Y0172347D02*
X0323630Y0172347D01*
X0324385Y0171167D02*
X0303223Y0171167D01*
X0303234Y0169987D02*
X0343080Y0169987D01*
X0343080Y0168808D02*
X0303245Y0168808D01*
X0303257Y0167628D02*
X0343080Y0167628D01*
X0343080Y0166448D02*
X0303268Y0166448D01*
X0303279Y0165269D02*
X0343080Y0165269D01*
X0343080Y0164089D02*
X0315279Y0164089D01*
X0314841Y0164527D02*
X0313608Y0164527D01*
X0313608Y0161549D01*
X0313608Y0161549D01*
X0316586Y0161549D01*
X0316586Y0160316D01*
X0314841Y0158571D01*
X0313608Y0158571D01*
X0313608Y0161549D01*
X0313608Y0161549D01*
X0316586Y0161549D01*
X0316586Y0162783D01*
X0314841Y0164527D01*
X0313608Y0164527D02*
X0312374Y0164527D01*
X0310630Y0162783D01*
X0310630Y0161549D01*
X0310630Y0160316D01*
X0312374Y0158571D01*
X0313608Y0158571D01*
X0313608Y0161549D01*
X0313608Y0161549D01*
X0313607Y0161549D02*
X0310630Y0161549D01*
X0313607Y0161549D01*
X0313607Y0161549D01*
X0313608Y0161549D02*
X0313608Y0164527D01*
X0313608Y0164089D02*
X0313608Y0164089D01*
X0313608Y0162910D02*
X0313608Y0162910D01*
X0313608Y0161730D02*
X0313608Y0161730D01*
X0313608Y0160550D02*
X0313608Y0160550D01*
X0313608Y0159371D02*
X0313608Y0159371D01*
X0315641Y0159371D02*
X0387346Y0159371D01*
X0387346Y0160550D02*
X0316586Y0160550D01*
X0316586Y0161730D02*
X0343135Y0161730D01*
X0343080Y0162910D02*
X0316459Y0162910D01*
X0311936Y0164089D02*
X0303291Y0164089D01*
X0303302Y0162910D02*
X0310756Y0162910D01*
X0310630Y0161730D02*
X0303313Y0161730D01*
X0303325Y0160550D02*
X0310630Y0160550D01*
X0311575Y0159371D02*
X0303336Y0159371D01*
X0303347Y0158191D02*
X0387872Y0158191D01*
X0389052Y0157012D02*
X0308357Y0157012D01*
X0307841Y0157527D02*
X0306608Y0157527D01*
X0306608Y0154549D01*
X0306608Y0154549D01*
X0309586Y0154549D01*
X0309586Y0153316D01*
X0307841Y0151571D01*
X0306608Y0151571D01*
X0306608Y0154549D01*
X0306608Y0154549D01*
X0309586Y0154549D01*
X0309586Y0155783D01*
X0307841Y0157527D01*
X0306608Y0157527D02*
X0306608Y0154549D01*
X0306608Y0151571D01*
X0305374Y0151571D01*
X0303630Y0153316D01*
X0303630Y0154549D01*
X0306607Y0154549D01*
X0306607Y0154549D01*
X0303630Y0154549D01*
X0303630Y0155783D01*
X0305374Y0157527D01*
X0306608Y0157527D01*
X0306608Y0157012D02*
X0306608Y0157012D01*
X0306608Y0155832D02*
X0306608Y0155832D01*
X0306608Y0154652D02*
X0306608Y0154652D01*
X0306608Y0154549D02*
X0306608Y0154549D01*
X0306608Y0153473D02*
X0306608Y0153473D01*
X0306608Y0152293D02*
X0306608Y0152293D01*
X0308563Y0152293D02*
X0387346Y0152293D01*
X0387346Y0151113D02*
X0303415Y0151113D01*
X0303427Y0149934D02*
X0387346Y0149934D01*
X0388451Y0148754D02*
X0303438Y0148754D01*
X0303449Y0147575D02*
X0305358Y0147575D01*
X0305823Y0148039D02*
X0304078Y0146295D01*
X0304078Y0145061D01*
X0304078Y0143828D01*
X0305823Y0142083D01*
X0307056Y0142083D01*
X0307056Y0145061D01*
X0304078Y0145061D01*
X0307056Y0145061D01*
X0307056Y0145061D01*
X0307056Y0145061D01*
X0307056Y0148039D01*
X0305823Y0148039D01*
X0307056Y0148039D02*
X0308290Y0148039D01*
X0310034Y0146295D01*
X0310034Y0145061D01*
X0307057Y0145061D01*
X0307057Y0145061D01*
X0310034Y0145061D01*
X0310034Y0143828D01*
X0308290Y0142083D01*
X0307056Y0142083D01*
X0307056Y0145061D01*
X0307056Y0145061D01*
X0307056Y0148039D01*
X0307056Y0147575D02*
X0307056Y0147575D01*
X0307056Y0146395D02*
X0307056Y0146395D01*
X0307056Y0145215D02*
X0307056Y0145215D01*
X0307056Y0144036D02*
X0307056Y0144036D01*
X0307056Y0142856D02*
X0307056Y0142856D01*
X0305050Y0142856D02*
X0303494Y0142856D01*
X0303506Y0141677D02*
X0387346Y0141677D01*
X0387346Y0142234D02*
X0390324Y0142234D01*
X0390324Y0142234D01*
X0387346Y0142234D01*
X0387346Y0142856D02*
X0309063Y0142856D01*
X0310034Y0144036D02*
X0387914Y0144036D01*
X0390324Y0144036D02*
X0390324Y0144036D01*
X0390324Y0145212D02*
X0390324Y0142234D01*
X0390324Y0142234D01*
X0390324Y0145212D01*
X0390324Y0142856D02*
X0390324Y0142856D01*
X0390324Y0141677D02*
X0390324Y0141677D01*
X0390324Y0140497D02*
X0390324Y0140497D01*
X0390324Y0139317D02*
X0390324Y0139317D01*
X0389030Y0139317D02*
X0303528Y0139317D01*
X0303540Y0138138D02*
X0311985Y0138138D01*
X0312374Y0138527D02*
X0310630Y0136783D01*
X0310630Y0135549D01*
X0310630Y0134316D01*
X0312374Y0132571D01*
X0313608Y0132571D01*
X0314841Y0132571D01*
X0316586Y0134316D01*
X0316586Y0135549D01*
X0313608Y0135549D01*
X0313608Y0135549D01*
X0313608Y0132571D01*
X0313608Y0135549D01*
X0313608Y0135549D01*
X0316586Y0135549D01*
X0316586Y0136783D01*
X0314841Y0138527D01*
X0313608Y0138527D01*
X0313608Y0135549D01*
X0313608Y0135549D01*
X0313607Y0135549D02*
X0310630Y0135549D01*
X0313607Y0135549D01*
X0313607Y0135549D01*
X0313608Y0135549D02*
X0313608Y0138527D01*
X0312374Y0138527D01*
X0313608Y0138138D02*
X0313608Y0138138D01*
X0313608Y0136958D02*
X0313608Y0136958D01*
X0313608Y0135778D02*
X0313608Y0135778D01*
X0313608Y0134599D02*
X0313608Y0134599D01*
X0313608Y0133419D02*
X0313608Y0133419D01*
X0315689Y0133419D02*
X0387346Y0133419D01*
X0387346Y0132240D02*
X0303596Y0132240D01*
X0303585Y0133419D02*
X0311526Y0133419D01*
X0310630Y0134599D02*
X0303574Y0134599D01*
X0303562Y0135778D02*
X0310630Y0135778D01*
X0310805Y0136958D02*
X0303551Y0136958D01*
X0303517Y0140497D02*
X0387850Y0140497D01*
X0391619Y0139317D02*
X0392883Y0139317D01*
X0392883Y0138138D02*
X0315231Y0138138D01*
X0316410Y0136958D02*
X0392883Y0136958D01*
X0392883Y0135778D02*
X0392133Y0135778D01*
X0390324Y0135778D02*
X0390324Y0135778D01*
X0390324Y0136354D02*
X0390324Y0133376D01*
X0390324Y0133376D01*
X0390324Y0136354D01*
X0390324Y0134599D02*
X0390324Y0134599D01*
X0390324Y0133419D02*
X0390324Y0133419D01*
X0390324Y0132240D02*
X0390324Y0132240D01*
X0390324Y0131060D02*
X0390324Y0131060D01*
X0388429Y0131060D02*
X0303608Y0131060D01*
X0303619Y0129880D02*
X0392883Y0129880D01*
X0392883Y0128701D02*
X0303630Y0128701D01*
X0303642Y0127521D02*
X0392883Y0127521D01*
X0392883Y0126342D02*
X0392712Y0126342D01*
X0390324Y0126342D02*
X0390324Y0126342D01*
X0390324Y0125162D02*
X0390324Y0125162D01*
X0390324Y0123982D02*
X0390324Y0123982D01*
X0390324Y0122803D02*
X0390324Y0122803D01*
X0390324Y0121623D02*
X0390324Y0121623D01*
X0389007Y0121623D02*
X0303698Y0121623D01*
X0303709Y0120444D02*
X0392883Y0120444D01*
X0392883Y0121623D02*
X0391641Y0121623D01*
X0392821Y0122803D02*
X0392883Y0122803D01*
X0392883Y0119264D02*
X0302590Y0119264D01*
X0301410Y0118084D02*
X0388537Y0118084D01*
X0387358Y0116905D02*
X0300231Y0116905D01*
X0299051Y0115725D02*
X0387346Y0115725D01*
X0387346Y0114545D02*
X0297871Y0114545D01*
X0303687Y0122803D02*
X0387828Y0122803D01*
X0387346Y0123982D02*
X0303675Y0123982D01*
X0303664Y0125162D02*
X0387346Y0125162D01*
X0387936Y0126342D02*
X0303653Y0126342D01*
X0316586Y0134599D02*
X0387346Y0134599D01*
X0388515Y0135778D02*
X0316586Y0135778D01*
X0310034Y0145215D02*
X0392883Y0145215D01*
X0392883Y0144036D02*
X0392734Y0144036D01*
X0392883Y0146395D02*
X0309934Y0146395D01*
X0308754Y0147575D02*
X0392883Y0147575D01*
X0392883Y0148754D02*
X0392197Y0148754D01*
X0390324Y0148754D02*
X0390324Y0148754D01*
X0390324Y0149934D02*
X0390324Y0149934D01*
X0390324Y0151113D02*
X0390324Y0151113D01*
X0390324Y0152293D02*
X0390324Y0152293D01*
X0390324Y0153473D02*
X0390324Y0153473D01*
X0388493Y0153473D02*
X0309586Y0153473D01*
X0309586Y0154652D02*
X0392883Y0154652D01*
X0392883Y0153473D02*
X0392156Y0153473D01*
X0392883Y0155832D02*
X0309536Y0155832D01*
X0304858Y0157012D02*
X0303359Y0157012D01*
X0303370Y0155832D02*
X0303679Y0155832D01*
X0303630Y0154652D02*
X0303381Y0154652D01*
X0303393Y0153473D02*
X0303630Y0153473D01*
X0303404Y0152293D02*
X0304652Y0152293D01*
X0304179Y0146395D02*
X0303460Y0146395D01*
X0303472Y0145215D02*
X0304078Y0145215D01*
X0304078Y0144036D02*
X0303483Y0144036D01*
X0310256Y0112308D02*
X0305817Y0107869D01*
X0305817Y0105140D01*
X0312985Y0105140D01*
X0312985Y0104321D01*
X0305817Y0104321D01*
X0305817Y0101592D01*
X0310256Y0097152D01*
X0312986Y0097152D01*
X0312986Y0104321D01*
X0313804Y0104321D01*
X0313804Y0097152D01*
X0316534Y0097152D01*
X0320973Y0101592D01*
X0320973Y0104321D01*
X0313805Y0104321D01*
X0313805Y0105140D01*
X0320973Y0105140D01*
X0320973Y0107869D01*
X0316534Y0112308D01*
X0313804Y0112308D01*
X0313804Y0105140D01*
X0312986Y0105140D01*
X0312986Y0112308D01*
X0310256Y0112308D01*
X0310134Y0112186D02*
X0232520Y0112186D01*
X0231340Y0111007D02*
X0308954Y0111007D01*
X0307775Y0109827D02*
X0230161Y0109827D01*
X0228981Y0108647D02*
X0306595Y0108647D01*
X0305817Y0107468D02*
X0234223Y0107468D01*
X0234077Y0107614D02*
X0232844Y0107614D01*
X0232844Y0104636D01*
X0235822Y0104636D01*
X0235822Y0105869D01*
X0234077Y0107614D01*
X0232844Y0107614D02*
X0232844Y0104636D01*
X0232844Y0104636D01*
X0232844Y0104636D01*
X0235822Y0104636D01*
X0235822Y0103402D01*
X0234077Y0101658D01*
X0232844Y0101658D01*
X0232844Y0104636D01*
X0232844Y0104636D01*
X0232844Y0104636D01*
X0229866Y0104636D01*
X0229866Y0105869D01*
X0231610Y0107614D01*
X0232844Y0107614D01*
X0232844Y0107468D02*
X0232844Y0107468D01*
X0232844Y0106288D02*
X0232844Y0106288D01*
X0232844Y0105109D02*
X0232844Y0105109D01*
X0232844Y0104636D02*
X0229866Y0104636D01*
X0229866Y0103402D01*
X0231610Y0101658D01*
X0232844Y0101658D01*
X0232844Y0104636D01*
X0232844Y0103929D02*
X0232844Y0103929D01*
X0232844Y0102749D02*
X0232844Y0102749D01*
X0235169Y0102749D02*
X0268252Y0102749D01*
X0268252Y0102917D02*
X0268252Y0101683D01*
X0268252Y0100450D01*
X0269996Y0098705D01*
X0271230Y0098705D01*
X0272463Y0098705D01*
X0274208Y0100450D01*
X0274208Y0101683D01*
X0271230Y0101683D01*
X0271230Y0101683D01*
X0271230Y0098705D01*
X0271230Y0101683D01*
X0271230Y0101683D01*
X0274208Y0101683D01*
X0274208Y0102917D01*
X0272463Y0104661D01*
X0271230Y0104661D01*
X0271230Y0101683D01*
X0271230Y0101683D01*
X0268252Y0101683D01*
X0271230Y0101683D01*
X0271230Y0101683D01*
X0271230Y0104661D01*
X0269996Y0104661D01*
X0268252Y0102917D01*
X0268252Y0101570D02*
X0221904Y0101570D01*
X0221033Y0100390D02*
X0223009Y0100390D01*
X0223539Y0100921D02*
X0221795Y0099177D01*
X0221795Y0097943D01*
X0221795Y0096709D01*
X0223539Y0094965D01*
X0224773Y0094965D01*
X0226006Y0094965D01*
X0227751Y0096709D01*
X0227751Y0097943D01*
X0227751Y0099177D01*
X0226006Y0100921D01*
X0224773Y0100921D01*
X0224773Y0097943D01*
X0227751Y0097943D01*
X0224773Y0097943D01*
X0224773Y0097943D01*
X0224773Y0094965D01*
X0224773Y0097943D01*
X0224773Y0097943D01*
X0224773Y0097943D01*
X0221795Y0097943D01*
X0224773Y0097943D01*
X0224773Y0097943D01*
X0224773Y0100921D01*
X0223539Y0100921D01*
X0224773Y0100390D02*
X0224773Y0100390D01*
X0224773Y0099210D02*
X0224773Y0099210D01*
X0224773Y0098031D02*
X0224773Y0098031D01*
X0224773Y0096851D02*
X0224773Y0096851D01*
X0224773Y0095672D02*
X0224773Y0095672D01*
X0226713Y0095672D02*
X0255653Y0095672D01*
X0255653Y0096027D02*
X0255653Y0094793D01*
X0255653Y0093560D01*
X0257398Y0091815D01*
X0258631Y0091815D01*
X0258631Y0094793D01*
X0258631Y0094793D01*
X0255653Y0094793D01*
X0258631Y0094793D01*
X0258631Y0094793D01*
X0258631Y0091815D01*
X0259865Y0091815D01*
X0261609Y0093560D01*
X0261609Y0094793D01*
X0258631Y0094793D01*
X0258631Y0094793D01*
X0258631Y0094794D02*
X0258631Y0097771D01*
X0257398Y0097771D01*
X0255653Y0096027D01*
X0256478Y0096851D02*
X0227751Y0096851D01*
X0227751Y0098031D02*
X0309378Y0098031D01*
X0308198Y0099210D02*
X0272968Y0099210D01*
X0274148Y0100390D02*
X0307019Y0100390D01*
X0305839Y0101570D02*
X0274208Y0101570D01*
X0274208Y0102749D02*
X0305817Y0102749D01*
X0305817Y0103929D02*
X0273195Y0103929D01*
X0271230Y0103929D02*
X0271230Y0103929D01*
X0271230Y0102749D02*
X0271230Y0102749D01*
X0271230Y0101570D02*
X0271230Y0101570D01*
X0271230Y0100390D02*
X0271230Y0100390D01*
X0271230Y0099210D02*
X0271230Y0099210D01*
X0269491Y0099210D02*
X0227717Y0099210D01*
X0226537Y0100390D02*
X0268311Y0100390D01*
X0269264Y0103929D02*
X0235822Y0103929D01*
X0235822Y0105109D02*
X0312985Y0105109D01*
X0313805Y0105109D02*
X0335030Y0105109D01*
X0335030Y0106288D02*
X0320973Y0106288D01*
X0320973Y0107468D02*
X0335474Y0107468D01*
X0335030Y0106394D02*
X0335030Y0103066D01*
X0336303Y0099992D01*
X0338656Y0097639D01*
X0341731Y0096365D01*
X0345059Y0096365D01*
X0348134Y0097639D01*
X0350487Y0099992D01*
X0351760Y0103066D01*
X0351760Y0106394D01*
X0350487Y0109469D01*
X0348134Y0111822D01*
X0345059Y0113096D01*
X0341731Y0113096D01*
X0338656Y0111822D01*
X0336303Y0109469D01*
X0335030Y0106394D01*
X0335963Y0108647D02*
X0320195Y0108647D01*
X0319015Y0109827D02*
X0336661Y0109827D01*
X0337841Y0111007D02*
X0317836Y0111007D01*
X0316656Y0112186D02*
X0339535Y0112186D01*
X0347255Y0112186D02*
X0392883Y0112186D01*
X0392883Y0111007D02*
X0348949Y0111007D01*
X0350129Y0109827D02*
X0392883Y0109827D01*
X0392883Y0108647D02*
X0350827Y0108647D01*
X0351316Y0107468D02*
X0392883Y0107468D01*
X0392883Y0106288D02*
X0351760Y0106288D01*
X0351760Y0105109D02*
X0392883Y0105109D01*
X0392883Y0103929D02*
X0351760Y0103929D01*
X0351629Y0102749D02*
X0392883Y0102749D01*
X0392883Y0101570D02*
X0378560Y0101570D01*
X0378513Y0101570D02*
X0377332Y0101570D01*
X0377332Y0101577D02*
X0376678Y0101474D01*
X0375882Y0101215D01*
X0375137Y0100835D01*
X0374460Y0100343D01*
X0373869Y0099752D01*
X0373377Y0099075D01*
X0372997Y0098330D01*
X0372738Y0097534D01*
X0372635Y0096880D01*
X0377332Y0096880D01*
X0377332Y0095699D01*
X0372635Y0095699D01*
X0372738Y0095045D01*
X0372997Y0094249D01*
X0373377Y0093504D01*
X0373869Y0092827D01*
X0374460Y0092235D01*
X0375137Y0091744D01*
X0375882Y0091364D01*
X0376678Y0091105D01*
X0377332Y0091002D01*
X0377332Y0095699D01*
X0378513Y0095699D01*
X0378513Y0091002D01*
X0379167Y0091105D01*
X0379963Y0091364D01*
X0380708Y0091744D01*
X0381385Y0092235D01*
X0381977Y0092827D01*
X0382468Y0093504D01*
X0382848Y0094249D01*
X0383107Y0095045D01*
X0383210Y0095699D01*
X0378513Y0095699D01*
X0378513Y0096880D01*
X0377332Y0096880D01*
X0377332Y0101577D01*
X0377285Y0101570D02*
X0351140Y0101570D01*
X0350652Y0100390D02*
X0374524Y0100390D01*
X0373475Y0099210D02*
X0349705Y0099210D01*
X0348526Y0098031D02*
X0372900Y0098031D01*
X0372639Y0095672D02*
X0261609Y0095672D01*
X0261609Y0096027D02*
X0259865Y0097771D01*
X0258631Y0097771D01*
X0258631Y0094794D01*
X0258631Y0094794D01*
X0258631Y0094793D02*
X0261609Y0094793D01*
X0261609Y0096027D01*
X0260785Y0096851D02*
X0340557Y0096851D01*
X0338264Y0098031D02*
X0317412Y0098031D01*
X0318592Y0099210D02*
X0337085Y0099210D01*
X0336138Y0100390D02*
X0319771Y0100390D01*
X0320951Y0101570D02*
X0335650Y0101570D01*
X0335161Y0102749D02*
X0320973Y0102749D01*
X0320973Y0103929D02*
X0335030Y0103929D01*
X0346233Y0096851D02*
X0377332Y0096851D01*
X0377332Y0095672D02*
X0378513Y0095672D01*
X0378513Y0096851D02*
X0392883Y0096851D01*
X0392883Y0095672D02*
X0383206Y0095672D01*
X0383210Y0096880D02*
X0383107Y0097534D01*
X0382848Y0098330D01*
X0382468Y0099075D01*
X0381977Y0099752D01*
X0381385Y0100343D01*
X0380708Y0100835D01*
X0379963Y0101215D01*
X0379167Y0101474D01*
X0378513Y0101577D01*
X0378513Y0096880D01*
X0383210Y0096880D01*
X0382945Y0098031D02*
X0392883Y0098031D01*
X0392883Y0099210D02*
X0382370Y0099210D01*
X0381321Y0100390D02*
X0392883Y0100390D01*
X0392883Y0094492D02*
X0382927Y0094492D01*
X0382329Y0093312D02*
X0392883Y0093312D01*
X0392883Y0092133D02*
X0381244Y0092133D01*
X0378513Y0092133D02*
X0377332Y0092133D01*
X0377332Y0093312D02*
X0378513Y0093312D01*
X0378513Y0094492D02*
X0377332Y0094492D01*
X0377332Y0098031D02*
X0378513Y0098031D01*
X0378513Y0099210D02*
X0377332Y0099210D01*
X0377332Y0100390D02*
X0378513Y0100390D01*
X0372918Y0094492D02*
X0261609Y0094492D01*
X0261362Y0093312D02*
X0373516Y0093312D01*
X0374601Y0092133D02*
X0260182Y0092133D01*
X0258631Y0092133D02*
X0258631Y0092133D01*
X0258631Y0093312D02*
X0258631Y0093312D01*
X0258631Y0094492D02*
X0258631Y0094492D01*
X0258631Y0095672D02*
X0258631Y0095672D01*
X0258631Y0096851D02*
X0258631Y0096851D01*
X0255653Y0094492D02*
X0234404Y0094492D01*
X0232844Y0094492D02*
X0232844Y0094492D01*
X0232844Y0093312D02*
X0232844Y0093312D01*
X0232844Y0092133D02*
X0232844Y0092133D01*
X0231284Y0094492D02*
X0221259Y0094492D01*
X0221033Y0095672D02*
X0222833Y0095672D01*
X0221795Y0096851D02*
X0221033Y0096851D01*
X0221033Y0098031D02*
X0221795Y0098031D01*
X0221829Y0099210D02*
X0221033Y0099210D01*
X0223083Y0102749D02*
X0230519Y0102749D01*
X0229866Y0103929D02*
X0224263Y0103929D01*
X0225442Y0105109D02*
X0229866Y0105109D01*
X0230285Y0106288D02*
X0226622Y0106288D01*
X0227802Y0107468D02*
X0231464Y0107468D01*
X0235403Y0106288D02*
X0305817Y0106288D01*
X0312986Y0106288D02*
X0313804Y0106288D01*
X0313804Y0107468D02*
X0312986Y0107468D01*
X0312986Y0108647D02*
X0313804Y0108647D01*
X0313804Y0109827D02*
X0312986Y0109827D01*
X0312986Y0111007D02*
X0313804Y0111007D01*
X0313804Y0112186D02*
X0312986Y0112186D01*
X0312986Y0103929D02*
X0313804Y0103929D01*
X0313804Y0102749D02*
X0312986Y0102749D01*
X0312986Y0101570D02*
X0313804Y0101570D01*
X0313804Y0100390D02*
X0312986Y0100390D01*
X0312986Y0099210D02*
X0313804Y0099210D01*
X0313804Y0098031D02*
X0312986Y0098031D01*
X0330533Y0069646D02*
X0334977Y0072502D01*
X0334977Y0072502D01*
X0340045Y0073990D01*
X0345328Y0073990D01*
X0350396Y0072502D01*
X0350396Y0072502D01*
X0354840Y0069646D01*
X0354840Y0069646D01*
X0358299Y0065654D01*
X0358299Y0065654D01*
X0360494Y0060849D01*
X0360494Y0060849D01*
X0361245Y0055620D01*
X0360494Y0050391D01*
X0358299Y0045586D01*
X0358299Y0045586D01*
X0354840Y0041594D01*
X0354840Y0041594D01*
X0354840Y0041594D01*
X0350396Y0038738D01*
X0350396Y0038738D01*
X0345328Y0037250D01*
X0340045Y0037250D01*
X0334977Y0038738D01*
X0334977Y0038738D01*
X0330533Y0041594D01*
X0330533Y0041594D01*
X0327073Y0045586D01*
X0327073Y0045586D01*
X0324879Y0050391D01*
X0324879Y0050391D01*
X0324127Y0055620D01*
X0324127Y0055620D01*
X0324879Y0060849D01*
X0324879Y0060849D01*
X0327073Y0065654D01*
X0327073Y0065654D01*
X0330533Y0069646D01*
X0330533Y0069646D01*
X0330533Y0069646D01*
X0330648Y0069720D02*
X0293476Y0069720D01*
X0294556Y0068641D02*
X0290117Y0073080D01*
X0287387Y0073080D01*
X0287387Y0065912D01*
X0286568Y0065912D01*
X0286568Y0073080D01*
X0283839Y0073080D01*
X0279400Y0068641D01*
X0279400Y0065912D01*
X0286568Y0065912D01*
X0286568Y0065093D01*
X0279400Y0065093D01*
X0279400Y0062363D01*
X0283839Y0057924D01*
X0286568Y0057924D01*
X0286568Y0065093D01*
X0287387Y0065093D01*
X0287387Y0065912D01*
X0294556Y0065912D01*
X0294556Y0068641D01*
X0294556Y0068541D02*
X0329575Y0068541D01*
X0328553Y0067361D02*
X0294556Y0067361D01*
X0294556Y0066181D02*
X0327530Y0066181D01*
X0326776Y0065002D02*
X0294556Y0065002D01*
X0294556Y0065093D02*
X0287387Y0065093D01*
X0287387Y0057924D01*
X0290117Y0057924D01*
X0294556Y0062363D01*
X0294556Y0065093D01*
X0294556Y0063822D02*
X0326237Y0063822D01*
X0325698Y0062642D02*
X0294556Y0062642D01*
X0293655Y0061463D02*
X0325159Y0061463D01*
X0324798Y0060283D02*
X0292476Y0060283D01*
X0291296Y0059104D02*
X0324628Y0059104D01*
X0324459Y0057924D02*
X0217489Y0057924D01*
X0217489Y0057982D02*
X0216293Y0057982D01*
X0216293Y0057982D01*
X0214537Y0057982D01*
X0214537Y0055030D01*
X0214537Y0055030D01*
X0214537Y0056786D01*
X0214537Y0057982D01*
X0214537Y0057982D01*
X0214537Y0057982D01*
X0217489Y0057982D01*
X0217489Y0055030D01*
X0216293Y0055030D01*
X0216293Y0055030D01*
X0214537Y0055030D01*
X0214537Y0055030D01*
X0216293Y0055030D01*
X0216293Y0055030D01*
X0217489Y0055030D01*
X0217489Y0052077D01*
X0216293Y0052077D01*
X0216293Y0052077D01*
X0214537Y0052077D01*
X0214537Y0052077D01*
X0216293Y0052077D01*
X0216293Y0052077D01*
X0217489Y0052077D01*
X0217489Y0049124D01*
X0214537Y0049124D01*
X0214537Y0049124D01*
X0216293Y0049124D01*
X0216293Y0049124D01*
X0217489Y0049124D01*
X0217489Y0047368D01*
X0217396Y0047017D01*
X0217214Y0046703D01*
X0216958Y0046447D01*
X0216643Y0046265D01*
X0216293Y0046171D01*
X0214537Y0046171D01*
X0214537Y0049124D01*
X0214537Y0049124D01*
X0214537Y0047368D01*
X0214537Y0047368D01*
X0214537Y0046171D01*
X0211584Y0046171D01*
X0211584Y0047368D01*
X0211584Y0047368D01*
X0211584Y0049124D01*
X0211584Y0049124D01*
X0211584Y0047368D01*
X0211584Y0047368D01*
X0211584Y0046171D01*
X0208631Y0046171D01*
X0208631Y0047368D01*
X0208631Y0049124D01*
X0205679Y0049124D01*
X0205679Y0049124D01*
X0208631Y0049124D01*
X0208631Y0049124D01*
X0208631Y0049124D01*
X0208631Y0047368D01*
X0208631Y0047368D01*
X0208631Y0047368D01*
X0208631Y0046171D01*
X0205679Y0046171D01*
X0205679Y0047368D01*
X0205678Y0047368D01*
X0205678Y0049124D01*
X0202726Y0049124D01*
X0202726Y0047368D01*
X0202820Y0047017D01*
X0203001Y0046703D01*
X0203258Y0046447D01*
X0203572Y0046265D01*
X0203922Y0046171D01*
X0205678Y0046171D01*
X0205678Y0049124D01*
X0205678Y0049124D01*
X0203922Y0049124D01*
X0203922Y0049124D01*
X0202726Y0049124D01*
X0202726Y0052077D01*
X0203922Y0052077D01*
X0203922Y0052077D01*
X0202726Y0052077D01*
X0202726Y0055030D01*
X0203922Y0055030D01*
X0203922Y0055030D01*
X0202726Y0055030D01*
X0202726Y0057982D01*
X0203922Y0057982D01*
X0203922Y0057982D01*
X0205678Y0057982D01*
X0205678Y0055030D01*
X0205678Y0055030D01*
X0205678Y0055030D01*
X0203922Y0055030D01*
X0203922Y0055030D01*
X0205678Y0055030D01*
X0205678Y0057982D01*
X0205678Y0057982D01*
X0205678Y0057982D01*
X0202726Y0057982D01*
X0202726Y0059739D01*
X0202820Y0060089D01*
X0203001Y0060403D01*
X0203258Y0060660D01*
X0203572Y0060841D01*
X0203922Y0060935D01*
X0205678Y0060935D01*
X0205678Y0057983D01*
X0205678Y0057983D01*
X0205678Y0059739D01*
X0205679Y0059739D01*
X0205679Y0060935D01*
X0208631Y0060935D01*
X0208631Y0059739D01*
X0208631Y0059739D01*
X0208631Y0059739D01*
X0208631Y0060935D01*
X0211584Y0060935D01*
X0211584Y0059739D01*
X0211584Y0060935D01*
X0214537Y0060935D01*
X0214537Y0057983D01*
X0214537Y0057983D01*
X0214537Y0059739D01*
X0214537Y0060935D01*
X0216293Y0060935D01*
X0216643Y0060841D01*
X0216958Y0060660D01*
X0217214Y0060403D01*
X0217396Y0060089D01*
X0217489Y0059739D01*
X0217489Y0057982D01*
X0217489Y0059104D02*
X0282659Y0059104D01*
X0281480Y0060283D02*
X0217283Y0060283D01*
X0214537Y0060283D02*
X0214537Y0060283D01*
X0214537Y0059739D02*
X0214537Y0059739D01*
X0214537Y0059104D02*
X0214537Y0059104D01*
X0214537Y0057982D02*
X0214537Y0057982D01*
X0211584Y0057982D01*
X0211584Y0055030D01*
X0211584Y0056786D01*
X0211584Y0057982D01*
X0211584Y0057982D01*
X0211584Y0057982D01*
X0208631Y0057982D01*
X0208631Y0055030D01*
X0208631Y0056786D01*
X0208631Y0057982D01*
X0208631Y0057982D01*
X0205679Y0057982D01*
X0205679Y0057982D01*
X0208631Y0057982D01*
X0208631Y0057982D01*
X0208631Y0057982D01*
X0208631Y0057983D02*
X0208631Y0059739D01*
X0208631Y0057983D01*
X0208631Y0057983D01*
X0208631Y0057982D02*
X0211584Y0057982D01*
X0211584Y0057982D01*
X0214537Y0057982D01*
X0214537Y0057924D02*
X0214537Y0057924D01*
X0214537Y0056744D02*
X0214537Y0056744D01*
X0214537Y0055565D02*
X0214537Y0055565D01*
X0214537Y0055030D02*
X0214537Y0055030D01*
X0211584Y0055030D01*
X0211584Y0055030D01*
X0211584Y0055030D01*
X0211584Y0055030D01*
X0208631Y0055030D01*
X0208631Y0055030D01*
X0208631Y0055030D01*
X0205679Y0055030D01*
X0205679Y0055030D01*
X0208631Y0055030D01*
X0208631Y0055030D01*
X0211584Y0055030D01*
X0214537Y0055030D01*
X0214537Y0055029D02*
X0214537Y0052077D01*
X0214537Y0052077D01*
X0214537Y0053273D01*
X0214537Y0055029D01*
X0214537Y0055029D01*
X0214537Y0054385D02*
X0214537Y0054385D01*
X0214537Y0053206D02*
X0214537Y0053206D01*
X0214537Y0052077D02*
X0214537Y0052077D01*
X0214537Y0049124D01*
X0214537Y0049124D01*
X0214537Y0050321D01*
X0214537Y0052077D01*
X0214537Y0052077D01*
X0213340Y0052077D01*
X0211584Y0052077D01*
X0211584Y0052077D01*
X0211584Y0055029D01*
X0211584Y0055029D01*
X0211584Y0053273D01*
X0211584Y0052077D01*
X0211584Y0052077D01*
X0214537Y0052077D01*
X0214537Y0052026D02*
X0214537Y0052026D01*
X0214537Y0050846D02*
X0214537Y0050846D01*
X0214537Y0049667D02*
X0214537Y0049667D01*
X0214537Y0049124D02*
X0211584Y0049124D01*
X0214537Y0049124D01*
X0214537Y0049124D01*
X0214537Y0048487D02*
X0214537Y0048487D01*
X0214537Y0047307D02*
X0214537Y0047307D01*
X0217473Y0047307D02*
X0326287Y0047307D01*
X0326826Y0046128D02*
X0111781Y0046128D01*
X0111781Y0045581D02*
X0111781Y0079045D01*
X0105875Y0084951D01*
X0105875Y0092586D01*
X0106621Y0091841D01*
X0107844Y0091841D01*
X0109067Y0091841D01*
X0110797Y0093570D01*
X0110797Y0094793D01*
X0107844Y0094793D01*
X0107844Y0091841D01*
X0107844Y0094793D01*
X0107844Y0094793D01*
X0107844Y0094793D01*
X0110797Y0094793D01*
X0110797Y0096016D01*
X0109067Y0097746D01*
X0107844Y0097746D01*
X0107844Y0094794D01*
X0107844Y0094794D01*
X0107844Y0097746D01*
X0106621Y0097746D01*
X0105875Y0097001D01*
X0105875Y0098337D01*
X0108238Y0100699D01*
X0159025Y0100699D01*
X0170836Y0088888D01*
X0172566Y0088888D01*
X0171820Y0088142D01*
X0171820Y0086919D01*
X0171820Y0085696D01*
X0173550Y0083967D01*
X0174773Y0083967D01*
X0175996Y0083967D01*
X0177726Y0085696D01*
X0177726Y0086919D01*
X0174773Y0086919D01*
X0174773Y0083967D01*
X0174773Y0086919D01*
X0174773Y0086919D01*
X0174773Y0086919D01*
X0171820Y0086919D01*
X0174773Y0086919D01*
X0174773Y0086919D01*
X0177726Y0086919D01*
X0177726Y0088142D01*
X0176980Y0088888D01*
X0182408Y0088888D01*
X0181663Y0088142D01*
X0181663Y0086919D01*
X0181663Y0085696D01*
X0183392Y0083967D01*
X0184615Y0083967D01*
X0184615Y0086919D01*
X0181663Y0086919D01*
X0184615Y0086919D01*
X0184615Y0086919D01*
X0184616Y0086919D01*
X0184616Y0086919D01*
X0187568Y0086919D01*
X0187568Y0085696D01*
X0185839Y0083967D01*
X0184616Y0083967D01*
X0184616Y0086919D01*
X0187568Y0086919D01*
X0187568Y0088142D01*
X0186823Y0088888D01*
X0192251Y0088888D01*
X0191505Y0088142D01*
X0191505Y0086919D01*
X0191505Y0085696D01*
X0193235Y0083967D01*
X0194458Y0083967D01*
X0195681Y0083967D01*
X0197411Y0085696D01*
X0197411Y0086919D01*
X0194458Y0086919D01*
X0194458Y0083967D01*
X0194458Y0086919D01*
X0194458Y0086919D01*
X0194458Y0086919D01*
X0191505Y0086919D01*
X0194458Y0086919D01*
X0194458Y0086919D01*
X0197411Y0086919D01*
X0197411Y0088142D01*
X0196665Y0088888D01*
X0202093Y0088888D01*
X0201348Y0088142D01*
X0201348Y0086919D01*
X0201348Y0085696D01*
X0203077Y0083967D01*
X0204300Y0083967D01*
X0204300Y0086919D01*
X0201348Y0086919D01*
X0204300Y0086919D01*
X0204300Y0086919D01*
X0204301Y0086919D01*
X0204301Y0086919D01*
X0207253Y0086919D01*
X0207253Y0085696D01*
X0205524Y0083967D01*
X0204301Y0083967D01*
X0204301Y0086919D01*
X0207253Y0086919D01*
X0207253Y0088142D01*
X0206508Y0088888D01*
X0211936Y0088888D01*
X0211190Y0088142D01*
X0211190Y0086919D01*
X0211190Y0085696D01*
X0212920Y0083967D01*
X0214143Y0083967D01*
X0215366Y0083967D01*
X0217096Y0085696D01*
X0217096Y0086919D01*
X0214143Y0086919D01*
X0214143Y0086919D01*
X0214143Y0083967D01*
X0214143Y0086919D01*
X0211190Y0086919D01*
X0214143Y0086919D01*
X0214143Y0086919D01*
X0214143Y0086919D01*
X0217096Y0086919D01*
X0217096Y0088142D01*
X0216350Y0088888D01*
X0221500Y0088888D01*
X0221600Y0088788D01*
X0221634Y0088743D01*
X0221033Y0088142D01*
X0221033Y0086919D01*
X0221033Y0085696D01*
X0222762Y0083967D01*
X0223985Y0083967D01*
X0223985Y0086919D01*
X0221033Y0086919D01*
X0223985Y0086919D01*
X0223985Y0086919D01*
X0223986Y0086919D01*
X0223986Y0086919D01*
X0226938Y0086919D01*
X0226938Y0085696D01*
X0225209Y0083967D01*
X0223986Y0083967D01*
X0223986Y0086919D01*
X0226938Y0086919D01*
X0226938Y0087707D01*
X0230875Y0087707D01*
X0230875Y0086919D01*
X0230875Y0085696D01*
X0232605Y0083967D01*
X0233828Y0083967D01*
X0233828Y0086919D01*
X0233828Y0086919D01*
X0233828Y0083967D01*
X0235051Y0083967D01*
X0236781Y0085696D01*
X0236781Y0086919D01*
X0233828Y0086919D01*
X0230875Y0086919D01*
X0233828Y0086919D01*
X0233828Y0086919D01*
X0233828Y0086919D01*
X0236781Y0086919D01*
X0236781Y0087707D01*
X0238429Y0087707D01*
X0241000Y0085135D01*
X0241886Y0084249D01*
X0243044Y0083770D01*
X0248156Y0083770D01*
X0247608Y0083221D01*
X0247608Y0081998D01*
X0247608Y0080775D01*
X0249337Y0079045D01*
X0250560Y0079045D01*
X0250560Y0081998D01*
X0247608Y0081998D01*
X0250560Y0081998D01*
X0250560Y0081998D01*
X0250560Y0081998D01*
X0250560Y0079045D01*
X0251783Y0079045D01*
X0253513Y0080775D01*
X0253513Y0081998D01*
X0250560Y0081998D01*
X0250560Y0081998D01*
X0253513Y0081998D01*
X0253513Y0083221D01*
X0252964Y0083770D01*
X0389376Y0083770D01*
X0389907Y0083990D01*
X0392686Y0081211D01*
X0392686Y0048534D01*
X0384692Y0048534D01*
X0381037Y0047554D01*
X0377761Y0045662D01*
X0377761Y0045662D01*
X0375085Y0042987D01*
X0373193Y0039710D01*
X0372214Y0036055D01*
X0372214Y0018612D01*
X0251193Y0018612D01*
X0251741Y0019161D01*
X0251741Y0020384D01*
X0251741Y0021607D01*
X0250012Y0023337D01*
X0248789Y0023337D01*
X0248789Y0020384D01*
X0251741Y0020384D01*
X0248789Y0020384D01*
X0248789Y0020384D01*
X0248789Y0020384D01*
X0248789Y0023337D01*
X0247566Y0023337D01*
X0245836Y0021607D01*
X0245836Y0020384D01*
X0248789Y0020384D01*
X0248789Y0020384D01*
X0245836Y0020384D01*
X0245836Y0019161D01*
X0246385Y0018612D01*
X0240366Y0018612D01*
X0241112Y0019358D01*
X0241112Y0020581D01*
X0241112Y0021804D01*
X0239382Y0023534D01*
X0238159Y0023534D01*
X0238159Y0020581D01*
X0241112Y0020581D01*
X0238159Y0020581D01*
X0238159Y0020581D01*
X0238159Y0020581D01*
X0238159Y0023534D01*
X0236936Y0023534D01*
X0235206Y0021804D01*
X0235206Y0020581D01*
X0238159Y0020581D01*
X0238159Y0020581D01*
X0235206Y0020581D01*
X0235206Y0019358D01*
X0235951Y0018612D01*
X0138749Y0018612D01*
X0111781Y0045581D01*
X0112413Y0044948D02*
X0135116Y0044948D01*
X0136201Y0046033D02*
X0131762Y0041594D01*
X0131762Y0038864D01*
X0138930Y0038864D01*
X0138930Y0038045D01*
X0131762Y0038045D01*
X0131762Y0035316D01*
X0136201Y0030877D01*
X0138930Y0030877D01*
X0138930Y0038045D01*
X0139749Y0038045D01*
X0139749Y0030877D01*
X0142479Y0030877D01*
X0146918Y0035316D01*
X0146918Y0038045D01*
X0139749Y0038045D01*
X0139749Y0038864D01*
X0138930Y0038864D01*
X0138930Y0046033D01*
X0136201Y0046033D01*
X0138930Y0044948D02*
X0139749Y0044948D01*
X0139749Y0046033D02*
X0139749Y0038864D01*
X0146918Y0038864D01*
X0146918Y0041594D01*
X0142479Y0046033D01*
X0139749Y0046033D01*
X0139749Y0043769D02*
X0138930Y0043769D01*
X0138930Y0042589D02*
X0139749Y0042589D01*
X0139749Y0041409D02*
X0138930Y0041409D01*
X0138930Y0040230D02*
X0139749Y0040230D01*
X0139749Y0039050D02*
X0138930Y0039050D01*
X0138930Y0037871D02*
X0139749Y0037871D01*
X0139749Y0036691D02*
X0138930Y0036691D01*
X0138930Y0035511D02*
X0139749Y0035511D01*
X0139749Y0034332D02*
X0138930Y0034332D01*
X0138930Y0033152D02*
X0139749Y0033152D01*
X0139749Y0031972D02*
X0138930Y0031972D01*
X0135105Y0031972D02*
X0125389Y0031972D01*
X0126569Y0030793D02*
X0167030Y0030793D01*
X0167644Y0031408D02*
X0165915Y0029678D01*
X0165915Y0028455D01*
X0168867Y0028455D01*
X0168867Y0028455D01*
X0168867Y0031408D01*
X0167644Y0031408D01*
X0168867Y0031408D02*
X0170091Y0031408D01*
X0171820Y0029678D01*
X0171820Y0028455D01*
X0168868Y0028455D01*
X0168868Y0028455D01*
X0171820Y0028455D01*
X0171820Y0027232D01*
X0170091Y0025502D01*
X0168867Y0025502D01*
X0168867Y0028455D01*
X0168867Y0028455D01*
X0165915Y0028455D01*
X0165915Y0027232D01*
X0167644Y0025502D01*
X0168867Y0025502D01*
X0168867Y0028455D01*
X0168867Y0028455D01*
X0168867Y0031408D01*
X0168867Y0030793D02*
X0168867Y0030793D01*
X0168867Y0029613D02*
X0168867Y0029613D01*
X0168867Y0028434D02*
X0168867Y0028434D01*
X0168867Y0027254D02*
X0168867Y0027254D01*
X0168867Y0026074D02*
X0168867Y0026074D01*
X0167072Y0026074D02*
X0131287Y0026074D01*
X0132467Y0024895D02*
X0174321Y0024895D01*
X0174337Y0024912D02*
X0172608Y0023182D01*
X0172608Y0021959D01*
X0175560Y0021959D01*
X0175560Y0021959D01*
X0175560Y0024912D01*
X0174337Y0024912D01*
X0175560Y0024895D02*
X0175560Y0024895D01*
X0175560Y0024912D02*
X0176783Y0024912D01*
X0178513Y0023182D01*
X0178513Y0021959D01*
X0175560Y0021959D01*
X0175560Y0021959D01*
X0172608Y0021959D01*
X0172608Y0020736D01*
X0174337Y0019006D01*
X0175560Y0019006D01*
X0175560Y0021959D01*
X0175560Y0024912D01*
X0175560Y0023715D02*
X0175560Y0023715D01*
X0175560Y0022536D02*
X0175560Y0022536D01*
X0175560Y0021959D02*
X0175560Y0021959D01*
X0175560Y0021959D01*
X0175560Y0019006D01*
X0176783Y0019006D01*
X0178513Y0020736D01*
X0178513Y0021959D01*
X0175560Y0021959D01*
X0175560Y0021356D02*
X0175560Y0021356D01*
X0175560Y0020176D02*
X0175560Y0020176D01*
X0173167Y0020176D02*
X0137185Y0020176D01*
X0138365Y0018997D02*
X0235567Y0018997D01*
X0235206Y0020176D02*
X0177954Y0020176D01*
X0178513Y0021356D02*
X0192066Y0021356D01*
X0192841Y0020581D02*
X0191112Y0022310D01*
X0191112Y0023533D01*
X0194064Y0023533D01*
X0194064Y0023533D01*
X0194064Y0020581D01*
X0192841Y0020581D01*
X0194064Y0020581D02*
X0195287Y0020581D01*
X0197017Y0022310D01*
X0197017Y0023533D01*
X0194064Y0023533D01*
X0194064Y0023534D01*
X0194064Y0026486D01*
X0192841Y0026486D01*
X0191112Y0024757D01*
X0191112Y0023534D01*
X0194064Y0023534D01*
X0194064Y0023534D01*
X0194064Y0026486D01*
X0195287Y0026486D01*
X0197017Y0024757D01*
X0197017Y0023534D01*
X0194064Y0023534D01*
X0194064Y0023533D01*
X0194064Y0020581D01*
X0194064Y0021356D02*
X0194064Y0021356D01*
X0194064Y0022536D02*
X0194064Y0022536D01*
X0194064Y0023715D02*
X0194064Y0023715D01*
X0194064Y0024895D02*
X0194064Y0024895D01*
X0194064Y0026074D02*
X0194064Y0026074D01*
X0192429Y0026074D02*
X0187038Y0026074D01*
X0187175Y0025938D02*
X0185445Y0027667D01*
X0184222Y0027667D01*
X0184222Y0024715D01*
X0184222Y0024715D01*
X0187175Y0024715D01*
X0187175Y0025938D01*
X0187175Y0024895D02*
X0191250Y0024895D01*
X0191112Y0023715D02*
X0187175Y0023715D01*
X0187175Y0023492D02*
X0187175Y0024715D01*
X0184222Y0024715D01*
X0184222Y0024715D01*
X0184222Y0027667D01*
X0182999Y0027667D01*
X0181269Y0025938D01*
X0181269Y0024715D01*
X0184222Y0024715D01*
X0184222Y0024715D01*
X0184222Y0021762D01*
X0185445Y0021762D01*
X0187175Y0023492D01*
X0186218Y0022536D02*
X0191112Y0022536D01*
X0196062Y0021356D02*
X0202302Y0021356D01*
X0203077Y0020581D02*
X0201348Y0022310D01*
X0201348Y0023533D01*
X0204300Y0023533D01*
X0204301Y0023533D01*
X0204301Y0023534D01*
X0207253Y0023534D01*
X0207253Y0024757D01*
X0205524Y0026486D01*
X0204301Y0026486D01*
X0204301Y0023534D01*
X0204300Y0023534D01*
X0204300Y0023533D01*
X0204300Y0020581D01*
X0203077Y0020581D01*
X0204301Y0020581D02*
X0205524Y0020581D01*
X0207253Y0022310D01*
X0207253Y0023533D01*
X0204301Y0023533D01*
X0204301Y0020581D01*
X0204300Y0021356D02*
X0204301Y0021356D01*
X0204300Y0022536D02*
X0204301Y0022536D01*
X0204300Y0023534D02*
X0201348Y0023534D01*
X0201348Y0024757D01*
X0203077Y0026486D01*
X0204300Y0026486D01*
X0204300Y0023534D01*
X0204300Y0023715D02*
X0204301Y0023715D01*
X0204300Y0024895D02*
X0204301Y0024895D01*
X0204300Y0026074D02*
X0204301Y0026074D01*
X0205935Y0026074D02*
X0218277Y0026074D01*
X0218277Y0026331D02*
X0218277Y0025108D01*
X0218277Y0023885D01*
X0220007Y0022156D01*
X0221230Y0022156D01*
X0222453Y0022156D01*
X0224182Y0023885D01*
X0224182Y0025108D01*
X0221230Y0025108D01*
X0221230Y0025108D01*
X0221230Y0022156D01*
X0221230Y0025108D01*
X0221230Y0025108D01*
X0224182Y0025108D01*
X0224182Y0026331D01*
X0222453Y0028061D01*
X0221230Y0028061D01*
X0221230Y0025108D01*
X0218277Y0025108D01*
X0221230Y0025108D01*
X0221230Y0025108D01*
X0221230Y0025108D01*
X0221230Y0028061D01*
X0220007Y0028061D01*
X0218277Y0026331D01*
X0219199Y0027254D02*
X0185858Y0027254D01*
X0184222Y0027254D02*
X0184222Y0027254D01*
X0184222Y0026074D02*
X0184222Y0026074D01*
X0184222Y0024895D02*
X0184222Y0024895D01*
X0184222Y0024715D02*
X0181269Y0024715D01*
X0181269Y0023492D01*
X0182999Y0021762D01*
X0184222Y0021762D01*
X0184222Y0024715D01*
X0184222Y0024715D01*
X0184222Y0023715D02*
X0184222Y0023715D01*
X0184222Y0022536D02*
X0184222Y0022536D01*
X0182225Y0022536D02*
X0178513Y0022536D01*
X0177980Y0023715D02*
X0181269Y0023715D01*
X0181269Y0024895D02*
X0176800Y0024895D01*
X0173141Y0023715D02*
X0133646Y0023715D01*
X0134826Y0022536D02*
X0172608Y0022536D01*
X0172608Y0021356D02*
X0136006Y0021356D01*
X0130108Y0027254D02*
X0165915Y0027254D01*
X0165915Y0028434D02*
X0128928Y0028434D01*
X0127748Y0029613D02*
X0165915Y0029613D01*
X0170705Y0030793D02*
X0222608Y0030793D01*
X0222608Y0031056D02*
X0222608Y0029833D01*
X0225560Y0029833D01*
X0225560Y0029833D01*
X0225560Y0032786D01*
X0224337Y0032786D01*
X0222608Y0031056D01*
X0222608Y0029833D02*
X0222608Y0028610D01*
X0224337Y0026880D01*
X0225560Y0026880D01*
X0225560Y0029833D01*
X0225560Y0029833D01*
X0222608Y0029833D01*
X0222608Y0029613D02*
X0171820Y0029613D01*
X0171820Y0028434D02*
X0222784Y0028434D01*
X0223260Y0027254D02*
X0223963Y0027254D01*
X0224182Y0026074D02*
X0226938Y0026074D01*
X0226938Y0026331D02*
X0226938Y0025108D01*
X0226938Y0023885D01*
X0228668Y0022156D01*
X0229891Y0022156D01*
X0229891Y0025108D01*
X0229891Y0025108D01*
X0229891Y0022156D01*
X0231114Y0022156D01*
X0232844Y0023885D01*
X0232844Y0025108D01*
X0229891Y0025108D01*
X0226938Y0025108D01*
X0229891Y0025108D01*
X0229891Y0025108D01*
X0229891Y0025108D01*
X0232844Y0025108D01*
X0232844Y0026331D01*
X0231114Y0028061D01*
X0229891Y0028061D01*
X0228668Y0028061D01*
X0226938Y0026331D01*
X0226783Y0026880D02*
X0228513Y0028610D01*
X0228513Y0029833D01*
X0228513Y0031056D01*
X0226783Y0032786D01*
X0225560Y0032786D01*
X0225560Y0029833D01*
X0225560Y0029833D01*
X0228513Y0029833D01*
X0225560Y0029833D01*
X0225560Y0029833D01*
X0225560Y0026880D01*
X0226783Y0026880D01*
X0227157Y0027254D02*
X0227861Y0027254D01*
X0228337Y0028434D02*
X0254828Y0028434D01*
X0254497Y0028103D02*
X0256227Y0029833D01*
X0257450Y0029833D01*
X0257450Y0026880D01*
X0254497Y0026880D01*
X0254497Y0025657D01*
X0256227Y0023927D01*
X0257450Y0023927D01*
X0257450Y0026880D01*
X0257450Y0026880D01*
X0254497Y0026880D01*
X0254497Y0028103D01*
X0254497Y0027254D02*
X0231921Y0027254D01*
X0232844Y0026074D02*
X0254497Y0026074D01*
X0255260Y0024895D02*
X0232844Y0024895D01*
X0232674Y0023715D02*
X0372214Y0023715D01*
X0372214Y0022536D02*
X0250813Y0022536D01*
X0251741Y0021356D02*
X0372214Y0021356D01*
X0372214Y0020176D02*
X0251741Y0020176D01*
X0251577Y0018997D02*
X0372214Y0018997D01*
X0372214Y0024895D02*
X0259641Y0024895D01*
X0260403Y0025657D02*
X0260403Y0026880D01*
X0257450Y0026880D01*
X0257450Y0026880D01*
X0257450Y0026880D01*
X0257450Y0023927D01*
X0258673Y0023927D01*
X0260403Y0025657D01*
X0260403Y0026074D02*
X0372214Y0026074D01*
X0372214Y0027254D02*
X0289954Y0027254D01*
X0288720Y0026743D02*
X0291939Y0028077D01*
X0294403Y0030540D01*
X0295737Y0033760D01*
X0295737Y0037244D01*
X0294403Y0040464D01*
X0291939Y0042928D01*
X0288720Y0044261D01*
X0285235Y0044261D01*
X0282016Y0042928D01*
X0279552Y0040464D01*
X0278219Y0037244D01*
X0278219Y0033760D01*
X0279552Y0030540D01*
X0282016Y0028077D01*
X0285235Y0026743D01*
X0288720Y0026743D01*
X0292296Y0028434D02*
X0372214Y0028434D01*
X0372214Y0029613D02*
X0293476Y0029613D01*
X0294508Y0030793D02*
X0372214Y0030793D01*
X0372214Y0031972D02*
X0294996Y0031972D01*
X0295485Y0033152D02*
X0372214Y0033152D01*
X0372214Y0034332D02*
X0295737Y0034332D01*
X0295737Y0035511D02*
X0372214Y0035511D01*
X0372384Y0036691D02*
X0295737Y0036691D01*
X0295477Y0037871D02*
X0337932Y0037871D01*
X0334491Y0039050D02*
X0294989Y0039050D01*
X0294500Y0040230D02*
X0332656Y0040230D01*
X0330820Y0041409D02*
X0293458Y0041409D01*
X0292278Y0042589D02*
X0329671Y0042589D01*
X0328649Y0043769D02*
X0289909Y0043769D01*
X0284046Y0043769D02*
X0144743Y0043769D01*
X0143563Y0044948D02*
X0327626Y0044948D01*
X0325749Y0048487D02*
X0217489Y0048487D01*
X0217489Y0049667D02*
X0325210Y0049667D01*
X0324814Y0050846D02*
X0217489Y0050846D01*
X0217489Y0052026D02*
X0324644Y0052026D01*
X0324474Y0053206D02*
X0217489Y0053206D01*
X0217489Y0054385D02*
X0324305Y0054385D01*
X0324135Y0055565D02*
X0217489Y0055565D01*
X0217489Y0056744D02*
X0324289Y0056744D01*
X0332483Y0070900D02*
X0292297Y0070900D01*
X0291117Y0072079D02*
X0334319Y0072079D01*
X0337554Y0073259D02*
X0146831Y0073259D01*
X0146765Y0073416D02*
X0144301Y0075880D01*
X0141082Y0077214D01*
X0137598Y0077214D01*
X0134378Y0075880D01*
X0131914Y0073416D01*
X0130581Y0070197D01*
X0130581Y0066713D01*
X0131914Y0063493D01*
X0134378Y0061029D01*
X0137598Y0059696D01*
X0141082Y0059696D01*
X0144301Y0061029D01*
X0146765Y0063493D01*
X0148099Y0066713D01*
X0148099Y0070197D01*
X0146765Y0073416D01*
X0145743Y0074439D02*
X0372935Y0074439D01*
X0372997Y0074249D02*
X0372738Y0075045D01*
X0372635Y0075699D01*
X0377332Y0075699D01*
X0377332Y0076880D01*
X0372635Y0076880D01*
X0372738Y0077534D01*
X0372997Y0078330D01*
X0373377Y0079075D01*
X0373869Y0079752D01*
X0374460Y0080343D01*
X0375137Y0080835D01*
X0375882Y0081215D01*
X0376678Y0081474D01*
X0377332Y0081577D01*
X0377332Y0076880D01*
X0378513Y0076880D01*
X0378513Y0081577D01*
X0379167Y0081474D01*
X0379963Y0081215D01*
X0380708Y0080835D01*
X0381385Y0080343D01*
X0381977Y0079752D01*
X0382468Y0079075D01*
X0382848Y0078330D01*
X0383107Y0077534D01*
X0383210Y0076880D01*
X0378513Y0076880D01*
X0378513Y0075699D01*
X0378513Y0071002D01*
X0379167Y0071105D01*
X0379963Y0071364D01*
X0380708Y0071744D01*
X0381385Y0072235D01*
X0381977Y0072827D01*
X0382468Y0073504D01*
X0382848Y0074249D01*
X0383107Y0075045D01*
X0383210Y0075699D01*
X0378513Y0075699D01*
X0377332Y0075699D01*
X0377332Y0071002D01*
X0376678Y0071105D01*
X0375882Y0071364D01*
X0375137Y0071744D01*
X0374460Y0072235D01*
X0373869Y0072827D01*
X0373377Y0073504D01*
X0372997Y0074249D01*
X0373555Y0073259D02*
X0347818Y0073259D01*
X0351054Y0072079D02*
X0374675Y0072079D01*
X0377332Y0072079D02*
X0378513Y0072079D01*
X0378513Y0073259D02*
X0377332Y0073259D01*
X0377332Y0074439D02*
X0378513Y0074439D01*
X0378513Y0075618D02*
X0377332Y0075618D01*
X0377332Y0076798D02*
X0142087Y0076798D01*
X0144564Y0075618D02*
X0372648Y0075618D01*
X0372883Y0077977D02*
X0111781Y0077977D01*
X0111781Y0076798D02*
X0136593Y0076798D01*
X0134116Y0075618D02*
X0111781Y0075618D01*
X0111781Y0074439D02*
X0132936Y0074439D01*
X0131849Y0073259D02*
X0111781Y0073259D01*
X0111781Y0072079D02*
X0131360Y0072079D01*
X0130872Y0070900D02*
X0111781Y0070900D01*
X0111781Y0069720D02*
X0130581Y0069720D01*
X0130581Y0068541D02*
X0111781Y0068541D01*
X0111781Y0067361D02*
X0130581Y0067361D01*
X0130801Y0066181D02*
X0111781Y0066181D01*
X0111781Y0065002D02*
X0131289Y0065002D01*
X0131778Y0063822D02*
X0111781Y0063822D01*
X0111781Y0062642D02*
X0132765Y0062642D01*
X0133945Y0061463D02*
X0111781Y0061463D01*
X0111781Y0060283D02*
X0136179Y0060283D01*
X0142500Y0060283D02*
X0202932Y0060283D01*
X0202726Y0059104D02*
X0111781Y0059104D01*
X0111781Y0057924D02*
X0202726Y0057924D01*
X0202726Y0056744D02*
X0111781Y0056744D01*
X0111781Y0055565D02*
X0202726Y0055565D01*
X0202726Y0054385D02*
X0111781Y0054385D01*
X0111781Y0053206D02*
X0202726Y0053206D01*
X0202726Y0052026D02*
X0180378Y0052026D01*
X0179933Y0052471D02*
X0178710Y0052471D01*
X0178710Y0049518D01*
X0178710Y0049518D01*
X0178710Y0052471D01*
X0177487Y0052471D01*
X0175757Y0050741D01*
X0175757Y0049518D01*
X0178710Y0049518D01*
X0181663Y0049518D01*
X0181663Y0050741D01*
X0179933Y0052471D01*
X0178710Y0052026D02*
X0178710Y0052026D01*
X0178710Y0050846D02*
X0178710Y0050846D01*
X0178710Y0049667D02*
X0178710Y0049667D01*
X0178710Y0049518D02*
X0178710Y0049518D01*
X0178710Y0049518D01*
X0181663Y0049518D01*
X0181663Y0048295D01*
X0179933Y0046565D01*
X0178710Y0046565D01*
X0178710Y0049518D01*
X0175757Y0049518D01*
X0175757Y0048295D01*
X0177487Y0046565D01*
X0178710Y0046565D01*
X0178710Y0049518D01*
X0178710Y0049518D01*
X0178710Y0048487D02*
X0178710Y0048487D01*
X0178710Y0047307D02*
X0178710Y0047307D01*
X0180675Y0047307D02*
X0202742Y0047307D01*
X0202726Y0048487D02*
X0181663Y0048487D01*
X0181663Y0049667D02*
X0202726Y0049667D01*
X0202726Y0050846D02*
X0181557Y0050846D01*
X0177042Y0052026D02*
X0111781Y0052026D01*
X0111781Y0050846D02*
X0175863Y0050846D01*
X0175757Y0049667D02*
X0111781Y0049667D01*
X0111781Y0048487D02*
X0175757Y0048487D01*
X0176745Y0047307D02*
X0111781Y0047307D01*
X0113593Y0043769D02*
X0133937Y0043769D01*
X0132757Y0042589D02*
X0114773Y0042589D01*
X0115952Y0041409D02*
X0131762Y0041409D01*
X0131762Y0040230D02*
X0117132Y0040230D01*
X0118311Y0039050D02*
X0131762Y0039050D01*
X0131762Y0037871D02*
X0119491Y0037871D01*
X0120671Y0036691D02*
X0131762Y0036691D01*
X0131762Y0035511D02*
X0121850Y0035511D01*
X0123030Y0034332D02*
X0132746Y0034332D01*
X0133926Y0033152D02*
X0124210Y0033152D01*
X0143574Y0031972D02*
X0223524Y0031972D01*
X0225560Y0031972D02*
X0225560Y0031972D01*
X0225560Y0030793D02*
X0225560Y0030793D01*
X0225560Y0029613D02*
X0225560Y0029613D01*
X0225560Y0028434D02*
X0225560Y0028434D01*
X0225560Y0027254D02*
X0225560Y0027254D01*
X0224182Y0024895D02*
X0226938Y0024895D01*
X0227108Y0023715D02*
X0224012Y0023715D01*
X0222833Y0022536D02*
X0228288Y0022536D01*
X0229891Y0022536D02*
X0229891Y0022536D01*
X0229891Y0023715D02*
X0229891Y0023715D01*
X0229891Y0024895D02*
X0229891Y0024895D01*
X0229891Y0025108D02*
X0229891Y0028061D01*
X0229891Y0025108D01*
X0229891Y0025108D01*
X0229891Y0026074D02*
X0229891Y0026074D01*
X0229891Y0027254D02*
X0229891Y0027254D01*
X0228513Y0029613D02*
X0256008Y0029613D01*
X0257450Y0029613D02*
X0257450Y0029613D01*
X0257450Y0029833D02*
X0258673Y0029833D01*
X0260403Y0028103D01*
X0260403Y0026880D01*
X0257450Y0026880D01*
X0257450Y0029833D01*
X0257450Y0028434D02*
X0257450Y0028434D01*
X0257450Y0027254D02*
X0257450Y0027254D01*
X0257450Y0026880D02*
X0257450Y0026880D01*
X0257450Y0026074D02*
X0257450Y0026074D01*
X0257450Y0024895D02*
X0257450Y0024895D01*
X0260403Y0027254D02*
X0284002Y0027254D01*
X0281659Y0028434D02*
X0260072Y0028434D01*
X0258893Y0029613D02*
X0280479Y0029613D01*
X0279448Y0030793D02*
X0228513Y0030793D01*
X0227596Y0031972D02*
X0278959Y0031972D01*
X0278470Y0033152D02*
X0144754Y0033152D01*
X0145934Y0034332D02*
X0278219Y0034332D01*
X0278219Y0035511D02*
X0146918Y0035511D01*
X0146918Y0036691D02*
X0278219Y0036691D01*
X0278478Y0037871D02*
X0146918Y0037871D01*
X0146918Y0039050D02*
X0278967Y0039050D01*
X0279455Y0040230D02*
X0146918Y0040230D01*
X0146918Y0041409D02*
X0280498Y0041409D01*
X0281677Y0042589D02*
X0145923Y0042589D01*
X0144735Y0061463D02*
X0280300Y0061463D01*
X0279400Y0062642D02*
X0145915Y0062642D01*
X0146902Y0063822D02*
X0279400Y0063822D01*
X0279400Y0065002D02*
X0147390Y0065002D01*
X0147879Y0066181D02*
X0279400Y0066181D01*
X0279400Y0067361D02*
X0148099Y0067361D01*
X0148099Y0068541D02*
X0279400Y0068541D01*
X0280479Y0069720D02*
X0148099Y0069720D01*
X0147808Y0070900D02*
X0281659Y0070900D01*
X0282838Y0072079D02*
X0147319Y0072079D01*
X0147959Y0085935D02*
X0146230Y0087665D01*
X0146230Y0088888D01*
X0149182Y0088888D01*
X0149182Y0088888D01*
X0146230Y0088888D01*
X0146230Y0090111D01*
X0147959Y0091841D01*
X0149182Y0091841D01*
X0149182Y0088888D01*
X0149182Y0088888D01*
X0149182Y0088888D01*
X0149182Y0085935D01*
X0147959Y0085935D01*
X0147660Y0086235D02*
X0117240Y0086235D01*
X0116941Y0085935D02*
X0118671Y0087665D01*
X0118671Y0088888D01*
X0118671Y0090111D01*
X0116941Y0091841D01*
X0115718Y0091841D01*
X0115718Y0088888D01*
X0118671Y0088888D01*
X0115718Y0088888D01*
X0115718Y0088888D01*
X0115718Y0088888D01*
X0115718Y0091841D01*
X0114495Y0091841D01*
X0112765Y0090111D01*
X0112765Y0088888D01*
X0115718Y0088888D01*
X0115718Y0085935D01*
X0116941Y0085935D01*
X0115718Y0085935D02*
X0115718Y0088888D01*
X0115718Y0088888D01*
X0115718Y0088888D01*
X0112765Y0088888D01*
X0112765Y0087665D01*
X0114495Y0085935D01*
X0115718Y0085935D01*
X0115718Y0086235D02*
X0115718Y0086235D01*
X0115718Y0087414D02*
X0115718Y0087414D01*
X0115718Y0088594D02*
X0115718Y0088594D01*
X0115718Y0089774D02*
X0115718Y0089774D01*
X0115718Y0090953D02*
X0115718Y0090953D01*
X0117828Y0090953D02*
X0147072Y0090953D01*
X0146230Y0089774D02*
X0118671Y0089774D01*
X0118671Y0088594D02*
X0146230Y0088594D01*
X0146480Y0087414D02*
X0118420Y0087414D01*
X0114195Y0086235D02*
X0105875Y0086235D01*
X0105875Y0087414D02*
X0113016Y0087414D01*
X0112765Y0088594D02*
X0105875Y0088594D01*
X0105875Y0089774D02*
X0112765Y0089774D01*
X0113607Y0090953D02*
X0105875Y0090953D01*
X0105875Y0092133D02*
X0106329Y0092133D01*
X0107844Y0092133D02*
X0107844Y0092133D01*
X0107844Y0093312D02*
X0107844Y0093312D01*
X0107844Y0094492D02*
X0107844Y0094492D01*
X0107844Y0095672D02*
X0107844Y0095672D01*
X0107844Y0096851D02*
X0107844Y0096851D01*
X0109962Y0096851D02*
X0119505Y0096851D01*
X0118671Y0096016D02*
X0120400Y0097746D01*
X0121623Y0097746D01*
X0121623Y0094794D01*
X0121623Y0094794D01*
X0121623Y0094793D02*
X0121623Y0094793D01*
X0121623Y0094793D01*
X0121623Y0091841D01*
X0120400Y0091841D01*
X0118671Y0093570D01*
X0118671Y0094793D01*
X0121623Y0094793D01*
X0121623Y0091841D01*
X0122846Y0091841D01*
X0124576Y0093570D01*
X0124576Y0094793D01*
X0121623Y0094793D01*
X0118671Y0094793D01*
X0118671Y0096016D01*
X0118671Y0095672D02*
X0110797Y0095672D01*
X0110797Y0094492D02*
X0118671Y0094492D01*
X0118929Y0093312D02*
X0110539Y0093312D01*
X0109359Y0092133D02*
X0120108Y0092133D01*
X0121623Y0092133D02*
X0121623Y0092133D01*
X0121623Y0093312D02*
X0121623Y0093312D01*
X0121623Y0094492D02*
X0121623Y0094492D01*
X0121623Y0094793D02*
X0121623Y0094793D01*
X0124576Y0094793D01*
X0124576Y0096016D01*
X0122846Y0097746D01*
X0121623Y0097746D01*
X0121623Y0094794D01*
X0121623Y0095672D02*
X0121623Y0095672D01*
X0121623Y0096851D02*
X0121623Y0096851D01*
X0123741Y0096851D02*
X0139190Y0096851D01*
X0138356Y0096016D02*
X0138356Y0094793D01*
X0138356Y0093570D01*
X0140085Y0091841D01*
X0141308Y0091841D01*
X0141308Y0094793D01*
X0141308Y0094793D01*
X0138356Y0094793D01*
X0141308Y0094793D01*
X0141308Y0094793D01*
X0141308Y0091841D01*
X0142531Y0091841D01*
X0144261Y0093570D01*
X0144261Y0094793D01*
X0141309Y0094793D01*
X0141309Y0094793D01*
X0144261Y0094793D01*
X0144261Y0096016D01*
X0142531Y0097746D01*
X0141308Y0097746D01*
X0140085Y0097746D01*
X0138356Y0096016D01*
X0138356Y0095672D02*
X0124576Y0095672D01*
X0124576Y0094492D02*
X0138356Y0094492D01*
X0138614Y0093312D02*
X0124318Y0093312D01*
X0123139Y0092133D02*
X0139793Y0092133D01*
X0141308Y0092133D02*
X0141308Y0092133D01*
X0141308Y0093312D02*
X0141308Y0093312D01*
X0141308Y0094492D02*
X0141308Y0094492D01*
X0141308Y0094794D02*
X0141308Y0097746D01*
X0141308Y0094794D01*
X0141308Y0094794D01*
X0141308Y0095672D02*
X0141308Y0095672D01*
X0141308Y0096851D02*
X0141308Y0096851D01*
X0143426Y0096851D02*
X0152970Y0096851D01*
X0152135Y0096016D02*
X0152135Y0094793D01*
X0152135Y0093570D01*
X0153865Y0091841D01*
X0155088Y0091841D01*
X0156311Y0091841D01*
X0158041Y0093570D01*
X0158041Y0094793D01*
X0155088Y0094793D01*
X0155088Y0091841D01*
X0155088Y0094793D01*
X0155088Y0094793D01*
X0155088Y0094793D01*
X0152135Y0094793D01*
X0155088Y0094793D01*
X0155088Y0094793D01*
X0158041Y0094793D01*
X0158041Y0096016D01*
X0156311Y0097746D01*
X0155088Y0097746D01*
X0155088Y0094794D01*
X0155088Y0094794D01*
X0155088Y0097746D01*
X0153865Y0097746D01*
X0152135Y0096016D01*
X0152135Y0095672D02*
X0144261Y0095672D01*
X0144261Y0094492D02*
X0152135Y0094492D01*
X0152393Y0093312D02*
X0144003Y0093312D01*
X0142824Y0092133D02*
X0153573Y0092133D01*
X0155088Y0092133D02*
X0155088Y0092133D01*
X0155088Y0093312D02*
X0155088Y0093312D01*
X0155088Y0094492D02*
X0155088Y0094492D01*
X0155088Y0095672D02*
X0155088Y0095672D01*
X0155088Y0096851D02*
X0155088Y0096851D01*
X0157206Y0096851D02*
X0162873Y0096851D01*
X0164052Y0095672D02*
X0158041Y0095672D01*
X0158041Y0094492D02*
X0165232Y0094492D01*
X0166411Y0093312D02*
X0157783Y0093312D01*
X0156603Y0092133D02*
X0167591Y0092133D01*
X0168771Y0090953D02*
X0151293Y0090953D01*
X0152135Y0090111D02*
X0150405Y0091841D01*
X0149182Y0091841D01*
X0149182Y0088888D01*
X0149182Y0085935D01*
X0150405Y0085935D01*
X0152135Y0087665D01*
X0152135Y0088888D01*
X0152135Y0090111D01*
X0152135Y0089774D02*
X0169950Y0089774D01*
X0172272Y0088594D02*
X0152135Y0088594D01*
X0152135Y0088888D02*
X0149183Y0088888D01*
X0152135Y0088888D01*
X0151885Y0087414D02*
X0171820Y0087414D01*
X0171820Y0086235D02*
X0150705Y0086235D01*
X0149182Y0086235D02*
X0149182Y0086235D01*
X0149182Y0087414D02*
X0149182Y0087414D01*
X0149182Y0088594D02*
X0149182Y0088594D01*
X0149183Y0088888D02*
X0149183Y0088888D01*
X0149182Y0089774D02*
X0149182Y0089774D01*
X0149182Y0090953D02*
X0149182Y0090953D01*
X0159334Y0100390D02*
X0107929Y0100390D01*
X0106749Y0099210D02*
X0160513Y0099210D01*
X0161693Y0098031D02*
X0105875Y0098031D01*
X0105875Y0085055D02*
X0172461Y0085055D01*
X0174773Y0085055D02*
X0174773Y0085055D01*
X0174773Y0086235D02*
X0174773Y0086235D01*
X0177084Y0085055D02*
X0182304Y0085055D01*
X0181663Y0086235D02*
X0177726Y0086235D01*
X0177726Y0087414D02*
X0181663Y0087414D01*
X0182114Y0088594D02*
X0177274Y0088594D01*
X0184615Y0086235D02*
X0184616Y0086235D01*
X0184615Y0085055D02*
X0184616Y0085055D01*
X0186927Y0085055D02*
X0192146Y0085055D01*
X0191505Y0086235D02*
X0187568Y0086235D01*
X0187568Y0087414D02*
X0191505Y0087414D01*
X0191957Y0088594D02*
X0187117Y0088594D01*
X0194458Y0086235D02*
X0194458Y0086235D01*
X0194458Y0085055D02*
X0194458Y0085055D01*
X0196770Y0085055D02*
X0201989Y0085055D01*
X0201348Y0086235D02*
X0197411Y0086235D01*
X0197411Y0087414D02*
X0201348Y0087414D01*
X0201799Y0088594D02*
X0196959Y0088594D01*
X0204300Y0086235D02*
X0204301Y0086235D01*
X0204300Y0085055D02*
X0204301Y0085055D01*
X0206612Y0085055D02*
X0211832Y0085055D01*
X0211190Y0086235D02*
X0207253Y0086235D01*
X0207253Y0087414D02*
X0211190Y0087414D01*
X0211642Y0088594D02*
X0206802Y0088594D01*
X0214143Y0086235D02*
X0214143Y0086235D01*
X0214143Y0085055D02*
X0214143Y0085055D01*
X0216455Y0085055D02*
X0221674Y0085055D01*
X0221033Y0086235D02*
X0217096Y0086235D01*
X0217096Y0087414D02*
X0221033Y0087414D01*
X0221484Y0088594D02*
X0216644Y0088594D01*
X0222144Y0093312D02*
X0230104Y0093312D01*
X0229866Y0092133D02*
X0223028Y0092133D01*
X0223913Y0090953D02*
X0229866Y0090953D01*
X0230875Y0087414D02*
X0226938Y0087414D01*
X0226938Y0086235D02*
X0230875Y0086235D01*
X0231517Y0085055D02*
X0226297Y0085055D01*
X0223986Y0085055D02*
X0223985Y0085055D01*
X0223985Y0086235D02*
X0223986Y0086235D01*
X0233828Y0086235D02*
X0233828Y0086235D01*
X0233828Y0085055D02*
X0233828Y0085055D01*
X0236140Y0085055D02*
X0241081Y0085055D01*
X0239901Y0086235D02*
X0236781Y0086235D01*
X0236781Y0087414D02*
X0238721Y0087414D01*
X0240816Y0089774D02*
X0260378Y0089774D01*
X0260378Y0088594D02*
X0241996Y0088594D01*
X0243176Y0087414D02*
X0260618Y0087414D01*
X0261209Y0090953D02*
X0235822Y0090953D01*
X0235822Y0092133D02*
X0257080Y0092133D01*
X0255901Y0093312D02*
X0235584Y0093312D01*
X0242789Y0083875D02*
X0106951Y0083875D01*
X0108130Y0082696D02*
X0247608Y0082696D01*
X0247608Y0081516D02*
X0109310Y0081516D01*
X0110490Y0080337D02*
X0248046Y0080337D01*
X0249226Y0079157D02*
X0111669Y0079157D01*
X0170663Y0026074D02*
X0181406Y0026074D01*
X0182585Y0027254D02*
X0171820Y0027254D01*
X0195699Y0026074D02*
X0202666Y0026074D01*
X0201486Y0024895D02*
X0196879Y0024895D01*
X0197017Y0023715D02*
X0201348Y0023715D01*
X0201348Y0022536D02*
X0197017Y0022536D01*
X0206299Y0021356D02*
X0235206Y0021356D01*
X0235938Y0022536D02*
X0231494Y0022536D01*
X0238159Y0022536D02*
X0238159Y0022536D01*
X0238159Y0021356D02*
X0238159Y0021356D01*
X0240380Y0022536D02*
X0246765Y0022536D01*
X0245836Y0021356D02*
X0241112Y0021356D01*
X0241112Y0020176D02*
X0245836Y0020176D01*
X0246000Y0018997D02*
X0240751Y0018997D01*
X0248789Y0021356D02*
X0248789Y0021356D01*
X0248789Y0022536D02*
X0248789Y0022536D01*
X0221230Y0022536D02*
X0221230Y0022536D01*
X0221230Y0023715D02*
X0221230Y0023715D01*
X0221230Y0024895D02*
X0221230Y0024895D01*
X0221230Y0026074D02*
X0221230Y0026074D01*
X0221230Y0027254D02*
X0221230Y0027254D01*
X0218277Y0024895D02*
X0207115Y0024895D01*
X0207253Y0023715D02*
X0218447Y0023715D01*
X0219627Y0022536D02*
X0207253Y0022536D01*
X0208631Y0047307D02*
X0208631Y0047307D01*
X0208631Y0048487D02*
X0208631Y0048487D01*
X0208631Y0049124D02*
X0211584Y0049124D01*
X0211584Y0049124D01*
X0211584Y0049124D01*
X0208631Y0049124D01*
X0208631Y0050880D01*
X0208631Y0052077D01*
X0205679Y0052077D01*
X0206875Y0052077D01*
X0208631Y0052077D01*
X0208631Y0052077D01*
X0208631Y0053273D01*
X0208631Y0055029D01*
X0208631Y0052077D01*
X0208631Y0052077D01*
X0208631Y0052077D01*
X0208631Y0049124D01*
X0208631Y0049124D01*
X0208631Y0049124D01*
X0208631Y0049667D02*
X0208631Y0049667D01*
X0208631Y0050846D02*
X0208631Y0050846D01*
X0208631Y0052026D02*
X0208631Y0052026D01*
X0208631Y0052077D02*
X0208631Y0052077D01*
X0209828Y0052077D01*
X0211584Y0052077D01*
X0208631Y0052077D01*
X0208631Y0053206D02*
X0208631Y0053206D01*
X0208631Y0054385D02*
X0208631Y0054385D01*
X0208631Y0055029D02*
X0208631Y0055029D01*
X0208631Y0055565D02*
X0208631Y0055565D01*
X0208631Y0056744D02*
X0208631Y0056744D01*
X0208631Y0057924D02*
X0208631Y0057924D01*
X0208631Y0059104D02*
X0208631Y0059104D01*
X0208631Y0060283D02*
X0208631Y0060283D01*
X0205679Y0060283D02*
X0205678Y0060283D01*
X0205678Y0059104D02*
X0205678Y0059104D01*
X0205678Y0057924D02*
X0205678Y0057924D01*
X0205678Y0056744D02*
X0205678Y0056744D01*
X0205678Y0055565D02*
X0205678Y0055565D01*
X0205678Y0055029D02*
X0205678Y0052077D01*
X0203922Y0052077D01*
X0203922Y0052077D01*
X0205678Y0052077D01*
X0205678Y0052077D01*
X0205678Y0052077D01*
X0205678Y0055029D01*
X0205678Y0055029D01*
X0205678Y0054385D02*
X0205678Y0054385D01*
X0205678Y0053206D02*
X0205678Y0053206D01*
X0205679Y0052077D02*
X0205679Y0052077D01*
X0205678Y0052077D02*
X0205678Y0049124D01*
X0205678Y0049124D01*
X0205678Y0052077D01*
X0205678Y0052077D01*
X0205678Y0052026D02*
X0205678Y0052026D01*
X0205678Y0050846D02*
X0205678Y0050846D01*
X0205678Y0049667D02*
X0205678Y0049667D01*
X0205678Y0049124D02*
X0205678Y0049124D01*
X0205678Y0048487D02*
X0205678Y0048487D01*
X0205678Y0047307D02*
X0205679Y0047307D01*
X0211584Y0047307D02*
X0211584Y0047307D01*
X0211584Y0048487D02*
X0211584Y0048487D01*
X0211584Y0049124D02*
X0211584Y0050880D01*
X0211584Y0052077D01*
X0211584Y0052077D01*
X0211584Y0049124D01*
X0211584Y0049124D01*
X0211584Y0049667D02*
X0211584Y0049667D01*
X0211584Y0050846D02*
X0211584Y0050846D01*
X0211584Y0052026D02*
X0211584Y0052026D01*
X0211584Y0052077D02*
X0211584Y0052077D01*
X0211584Y0053206D02*
X0211584Y0053206D01*
X0211584Y0054385D02*
X0211584Y0054385D01*
X0211584Y0055565D02*
X0211584Y0055565D01*
X0211584Y0056744D02*
X0211584Y0056744D01*
X0211584Y0057924D02*
X0211584Y0057924D01*
X0211584Y0057983D02*
X0211584Y0059739D01*
X0211584Y0059739D01*
X0211584Y0059739D01*
X0211584Y0057983D01*
X0211584Y0057983D01*
X0211584Y0059104D02*
X0211584Y0059104D01*
X0211584Y0060283D02*
X0211584Y0060283D01*
X0250560Y0079157D02*
X0250560Y0079157D01*
X0250560Y0080337D02*
X0250560Y0080337D01*
X0250560Y0081516D02*
X0250560Y0081516D01*
X0251895Y0079157D02*
X0373436Y0079157D01*
X0374453Y0080337D02*
X0253075Y0080337D01*
X0253513Y0081516D02*
X0376948Y0081516D01*
X0377332Y0081516D02*
X0378513Y0081516D01*
X0378898Y0081516D02*
X0392381Y0081516D01*
X0392686Y0080337D02*
X0381392Y0080337D01*
X0382409Y0079157D02*
X0392686Y0079157D01*
X0392686Y0077977D02*
X0382963Y0077977D01*
X0383197Y0075618D02*
X0392686Y0075618D01*
X0392686Y0074439D02*
X0382910Y0074439D01*
X0382290Y0073259D02*
X0392686Y0073259D01*
X0392686Y0072079D02*
X0381170Y0072079D01*
X0378513Y0076798D02*
X0392686Y0076798D01*
X0392686Y0070900D02*
X0352889Y0070900D01*
X0354725Y0069720D02*
X0392686Y0069720D01*
X0392686Y0068541D02*
X0355798Y0068541D01*
X0356820Y0067361D02*
X0392686Y0067361D01*
X0392686Y0066181D02*
X0357842Y0066181D01*
X0358597Y0065002D02*
X0392686Y0065002D01*
X0392686Y0063822D02*
X0359136Y0063822D01*
X0359675Y0062642D02*
X0376285Y0062642D01*
X0376630Y0062786D02*
X0374243Y0061797D01*
X0372415Y0059969D01*
X0371427Y0057582D01*
X0371427Y0054997D01*
X0372415Y0052610D01*
X0374243Y0050782D01*
X0376630Y0049793D01*
X0379215Y0049793D01*
X0381602Y0050782D01*
X0383430Y0052610D01*
X0384419Y0054997D01*
X0384419Y0057582D01*
X0383430Y0059969D01*
X0381602Y0061797D01*
X0379215Y0062786D01*
X0376630Y0062786D01*
X0379560Y0062642D02*
X0392686Y0062642D01*
X0392686Y0061463D02*
X0381936Y0061463D01*
X0383116Y0060283D02*
X0392686Y0060283D01*
X0392686Y0059104D02*
X0383788Y0059104D01*
X0384277Y0057924D02*
X0392686Y0057924D01*
X0392686Y0056744D02*
X0384419Y0056744D01*
X0384419Y0055565D02*
X0392686Y0055565D01*
X0392686Y0054385D02*
X0384165Y0054385D01*
X0383676Y0053206D02*
X0392686Y0053206D01*
X0392686Y0052026D02*
X0382846Y0052026D01*
X0381666Y0050846D02*
X0392686Y0050846D01*
X0392686Y0049667D02*
X0360163Y0049667D01*
X0360494Y0050391D02*
X0360494Y0050391D01*
X0360559Y0050846D02*
X0374179Y0050846D01*
X0372999Y0052026D02*
X0360729Y0052026D01*
X0360898Y0053206D02*
X0372169Y0053206D01*
X0371680Y0054385D02*
X0361068Y0054385D01*
X0361237Y0055565D02*
X0371427Y0055565D01*
X0371427Y0056744D02*
X0361084Y0056744D01*
X0360914Y0057924D02*
X0371568Y0057924D01*
X0372057Y0059104D02*
X0360745Y0059104D01*
X0360575Y0060283D02*
X0372729Y0060283D01*
X0373909Y0061463D02*
X0360213Y0061463D01*
X0359624Y0048487D02*
X0384519Y0048487D01*
X0381037Y0047554D02*
X0381037Y0047554D01*
X0380610Y0047307D02*
X0359085Y0047307D01*
X0358546Y0046128D02*
X0378567Y0046128D01*
X0377046Y0044948D02*
X0357746Y0044948D01*
X0356724Y0043769D02*
X0375867Y0043769D01*
X0375085Y0042987D02*
X0375085Y0042987D01*
X0375085Y0042987D01*
X0374855Y0042589D02*
X0355702Y0042589D01*
X0354552Y0041409D02*
X0374174Y0041409D01*
X0373493Y0040230D02*
X0352717Y0040230D01*
X0350881Y0039050D02*
X0373016Y0039050D01*
X0373193Y0039710D02*
X0373193Y0039710D01*
X0372700Y0037871D02*
X0347441Y0037871D01*
X0377332Y0077977D02*
X0378513Y0077977D01*
X0378513Y0079157D02*
X0377332Y0079157D01*
X0377332Y0080337D02*
X0378513Y0080337D01*
X0389244Y0087414D02*
X0273968Y0087414D01*
X0274208Y0088594D02*
X0390424Y0088594D01*
X0391603Y0089774D02*
X0274208Y0089774D01*
X0273376Y0090953D02*
X0392783Y0090953D01*
X0390022Y0083875D02*
X0389631Y0083875D01*
X0391201Y0082696D02*
X0253513Y0082696D01*
X0263356Y0089774D02*
X0263356Y0089774D01*
X0263356Y0090953D02*
X0263356Y0090953D01*
X0265502Y0090953D02*
X0269083Y0090953D01*
X0268252Y0089774D02*
X0266334Y0089774D01*
X0266334Y0088594D02*
X0268252Y0088594D01*
X0268492Y0087414D02*
X0266094Y0087414D01*
X0271230Y0089774D02*
X0271230Y0089774D01*
X0271230Y0090953D02*
X0271230Y0090953D01*
X0286568Y0072079D02*
X0287387Y0072079D01*
X0287387Y0070900D02*
X0286568Y0070900D01*
X0286568Y0069720D02*
X0287387Y0069720D01*
X0287387Y0068541D02*
X0286568Y0068541D01*
X0286568Y0067361D02*
X0287387Y0067361D01*
X0287387Y0066181D02*
X0286568Y0066181D01*
X0286568Y0065002D02*
X0287387Y0065002D01*
X0287387Y0063822D02*
X0286568Y0063822D01*
X0286568Y0062642D02*
X0287387Y0062642D01*
X0287387Y0061463D02*
X0286568Y0061463D01*
X0286568Y0060283D02*
X0287387Y0060283D01*
X0287387Y0059104D02*
X0286568Y0059104D01*
X0233700Y0113366D02*
X0388406Y0113366D01*
X0390324Y0113366D02*
X0390324Y0113366D01*
X0390324Y0114545D02*
X0390324Y0114545D01*
X0390324Y0115725D02*
X0390324Y0115725D01*
X0390324Y0116905D02*
X0390324Y0116905D01*
X0390324Y0118084D02*
X0390324Y0118084D01*
X0392111Y0118084D02*
X0392883Y0118084D01*
X0392883Y0113366D02*
X0392242Y0113366D01*
X0392220Y0131060D02*
X0392883Y0131060D01*
X0392798Y0140497D02*
X0392883Y0140497D01*
X0392883Y0157012D02*
X0391596Y0157012D01*
X0390324Y0157012D02*
X0390324Y0157012D01*
X0390324Y0158191D02*
X0390324Y0158191D01*
X0390324Y0159371D02*
X0390324Y0159371D01*
X0390324Y0160550D02*
X0390324Y0160550D01*
X0390324Y0161730D02*
X0390324Y0161730D01*
X0390324Y0162910D02*
X0390324Y0162910D01*
X0389071Y0162910D02*
X0357253Y0162910D01*
X0357253Y0164089D02*
X0392883Y0164089D01*
X0392883Y0162910D02*
X0391577Y0162910D01*
X0392756Y0161730D02*
X0392883Y0161730D01*
X0392883Y0165269D02*
X0357253Y0165269D01*
X0357253Y0166447D02*
X0356586Y0166447D01*
X0357253Y0166447D01*
X0356586Y0166447D02*
X0356585Y0166447D01*
X0356586Y0166447D01*
X0357198Y0161730D02*
X0387892Y0161730D01*
X0392776Y0158191D02*
X0392883Y0158191D01*
X0392883Y0166448D02*
X0392175Y0166448D01*
X0354301Y0174244D02*
X0354300Y0174244D01*
X0354300Y0174706D02*
X0354301Y0174706D01*
X0351545Y0174706D02*
X0351545Y0174706D01*
X0351545Y0174244D02*
X0351545Y0174244D01*
X0348789Y0174244D02*
X0348789Y0174244D01*
X0348789Y0174706D02*
X0348789Y0174706D01*
X0346033Y0174706D02*
X0346033Y0174706D01*
X0343748Y0163691D02*
X0343748Y0163691D01*
X0343080Y0163691D01*
X0343748Y0163691D01*
X0346033Y0161406D02*
X0346033Y0161406D01*
X0346033Y0160738D01*
X0346033Y0161406D01*
X0348789Y0161406D02*
X0348789Y0161406D01*
X0348789Y0160738D01*
X0348789Y0161406D01*
X0348789Y0161406D01*
X0351545Y0161406D02*
X0351545Y0161406D01*
X0351545Y0160738D01*
X0351545Y0161406D01*
X0351545Y0161406D01*
D26*
X0250560Y0081998D03*
X0233828Y0086919D03*
X0223986Y0086919D03*
X0214143Y0086919D03*
X0204301Y0086919D03*
X0194458Y0086919D03*
X0184615Y0086919D03*
X0174773Y0086919D03*
X0155088Y0094793D03*
X0149182Y0088888D03*
X0141308Y0094793D03*
X0121623Y0094793D03*
X0115718Y0088888D03*
X0107844Y0094793D03*
X0178710Y0049518D03*
X0168867Y0028455D03*
X0175560Y0021959D03*
X0184222Y0024715D03*
X0194064Y0023534D03*
X0204301Y0023534D03*
X0221230Y0025108D03*
X0225560Y0029833D03*
X0229891Y0025108D03*
X0238159Y0020581D03*
X0248789Y0020384D03*
X0257450Y0026880D03*
D27*
X0214537Y0049124D03*
X0214537Y0052077D03*
X0214537Y0055030D03*
X0214537Y0057982D03*
X0211584Y0057982D03*
X0211584Y0055030D03*
X0208631Y0055030D03*
X0208631Y0057982D03*
X0205678Y0057982D03*
X0205678Y0055030D03*
X0205678Y0052077D03*
X0205678Y0049124D03*
X0208631Y0049124D03*
X0208631Y0052077D03*
X0211584Y0052077D03*
X0211584Y0049124D03*
X0346033Y0163691D03*
X0348789Y0163691D03*
X0351545Y0163691D03*
X0354301Y0163691D03*
X0354301Y0166447D03*
X0354301Y0169203D03*
X0354301Y0171959D03*
X0351545Y0171959D03*
X0351545Y0169203D03*
X0351545Y0166447D03*
X0348789Y0166447D03*
X0348789Y0169203D03*
X0348789Y0171959D03*
X0346033Y0171959D03*
X0346033Y0169203D03*
X0346033Y0166447D03*
D28*
X0334608Y0173156D03*
X0326608Y0173156D03*
X0313608Y0161549D03*
X0306608Y0154549D03*
X0307056Y0145061D03*
X0313608Y0135549D03*
X0271230Y0101683D03*
X0271230Y0088888D03*
X0263356Y0088888D03*
X0258631Y0094793D03*
X0232844Y0091841D03*
X0224773Y0097943D03*
X0232844Y0104636D03*
X0303907Y0189872D03*
X0311978Y0193022D03*
X0305285Y0200896D03*
X0310797Y0207195D03*
X0334615Y0188100D03*
X0390324Y0177667D03*
X0390324Y0168809D03*
X0390324Y0159951D03*
X0390324Y0151093D03*
X0390324Y0142234D03*
X0390324Y0133376D03*
X0390324Y0124518D03*
X0390324Y0115660D03*
D29*
X0261151Y0309360D02*
X0261151Y0309990D01*
X0141151Y0309990D02*
X0141151Y0309360D01*
D30*
X0060049Y0194636D02*
X0060049Y0138652D01*
X0060043Y0138370D01*
X0060045Y0138088D01*
X0060053Y0137806D01*
X0060067Y0137524D01*
X0060089Y0137243D01*
X0060117Y0136962D01*
X0060153Y0136682D01*
X0060195Y0136403D01*
X0060243Y0136125D01*
X0060299Y0135848D01*
X0060361Y0135573D01*
X0060429Y0135299D01*
X0060505Y0135028D01*
X0060586Y0134757D01*
X0060675Y0134490D01*
X0060769Y0134224D01*
X0060870Y0133960D01*
X0060978Y0133699D01*
X0061092Y0133441D01*
X0061212Y0133186D01*
X0061338Y0132933D01*
X0061470Y0132684D01*
X0061608Y0132438D01*
X0061752Y0132195D01*
X0061902Y0131956D01*
X0062057Y0131721D01*
X0062218Y0131489D01*
X0062385Y0131262D01*
X0062557Y0131038D01*
X0062735Y0130819D01*
X0062917Y0130604D01*
X0063105Y0130393D01*
X0063298Y0130188D01*
X0063496Y0129986D01*
X0063699Y0129790D01*
X0063906Y0129599D01*
X0064118Y0129412D01*
X0064334Y0129231D01*
X0064555Y0129055D01*
X0064780Y0128885D01*
X0065009Y0128720D01*
X0065241Y0128560D01*
X0065478Y0128407D01*
X0065718Y0128259D01*
X0075954Y0123533D02*
X0076390Y0123224D01*
X0076819Y0122905D01*
X0077240Y0122575D01*
X0077653Y0122235D01*
X0078058Y0121885D01*
X0078453Y0121525D01*
X0078840Y0121155D01*
X0079218Y0120776D01*
X0079586Y0120388D01*
X0079945Y0119992D01*
X0080293Y0119586D01*
X0080632Y0119172D01*
X0080961Y0118750D01*
X0081279Y0118320D01*
X0081586Y0117882D01*
X0081883Y0117437D01*
X0082169Y0116985D01*
X0082443Y0116526D01*
X0082706Y0116060D01*
X0082958Y0115588D01*
X0083198Y0115110D01*
X0083426Y0114626D01*
X0083643Y0114137D01*
X0083847Y0113643D01*
X0084039Y0113144D01*
X0084219Y0112640D01*
X0084387Y0112132D01*
X0084542Y0111620D01*
X0084684Y0111104D01*
X0084814Y0110586D01*
X0084931Y0110064D01*
X0085035Y0109539D01*
X0085127Y0109012D01*
X0085205Y0108483D01*
X0085271Y0107952D01*
X0085323Y0107420D01*
X0085363Y0106886D01*
X0085389Y0106352D01*
X0085402Y0105817D01*
X0075954Y0123534D02*
X0073950Y0124570D01*
X0071924Y0125562D01*
X0069876Y0126507D01*
X0067807Y0127406D01*
X0065718Y0128258D01*
M02*
