%
M48
M72
T01C0.0157
T02C0.0200
T03C0.0236
T04C0.0394
T05C0.0400
T06C0.1181
%
T01
X32063Y2023
X30143Y3543
X23903Y2663
X30703Y6423
X9823Y1943
X19583Y3703
X11023Y3223
X13263Y3623
X20623Y5903
X13223Y7343
X9943Y8063
X17183Y9703
X8703Y2743
X36783Y2063
X9823Y6663
X10063Y7063
X9663Y7063
X2783Y6183
X13663Y2023
X33983Y2583
X38463Y2983
X29263Y7223
X27023Y6743
X28343Y6903
X9743Y4183
X16303Y4983
X15103Y4983
X20783Y4663
X10703Y2903
X21863Y4703
X12223Y1623
X22103Y4983
X20303Y7183
X21023Y6423
X20703Y3143
X10543Y3463
X21903Y7783
X19943Y7663
X13023Y1343
X36623Y1223
X27043Y1543
X31823Y8583
X31343Y9143
X28943Y9263
X25223Y10063
X21383Y10063
X9023Y7863
X31903Y8103
X30943Y9143
X21423Y8743
X8703Y8503
X6703Y9143
X19103Y8343
X37263Y1943
X22543Y3183
X19223Y9143
X21023Y8863
X21183Y3223
X23183Y2383
X22383Y6583
X23823Y9943
X22983Y7623
X24143Y9703
X22903Y7263
X23383Y9503
X21023Y5623
X23723Y8103
X23223Y7903
X23583Y8943
X31423Y7063
X26063Y4503
X26703Y4503
X30463Y7943
X21763Y8283
X20583Y8143
X12383Y8503
X19743Y4263
X18143Y9383
X21343Y9223
X22143Y5863
X8223Y8743
X19743Y7143
X18623Y9383
X9583Y8183
X26703Y6263
X26063Y6503
T02
X17988Y5891
X18988Y6691
X8145Y5891
X9145Y6691
X37673Y5891
X38673Y6691
X27831Y5891
X28831Y6691
T03
X3663Y2383
T04
X16542Y5505
X15755Y5505
X14968Y5505
X17330Y5505
X6700Y5505
X5912Y5505
X5125Y5505
X7487Y5505
X36227Y5505
X35440Y5505
X34653Y5505
X37015Y5505
X26385Y5505
X25597Y5505
X24810Y5505
X27172Y5505
T05
X2133Y7083
X2033Y6083
X2133Y5083
X2033Y4083
X40353Y7083
X40253Y6083
X40353Y5083
X40253Y4083
X29654Y1670
X28654Y1670
X27654Y1670
X23683Y1550
X24683Y1550
X30183Y9863
X29183Y9863
X28183Y9863
X27183Y9863
X34823Y9863
X33823Y9863
X32823Y9863
X31823Y9863
X15143Y9863
X14143Y9863
X13143Y9863
X12143Y9863
X10583Y9863
X9583Y9863
X8583Y9863
X7583Y9863
T06
X11345Y5505
X20204Y1568
X2487Y1568
X20204Y9442
X2487Y9442
X31031Y5505
X39889Y1568
X22172Y1568
X39889Y9442
X22172Y9442
M30
