G75*
%MOIN*%
%OFA0B0*%
%FSLAX24Y24*%
%IPPOS*%
%LPD*%
%AMOC8*
5,1,8,0,0,1.08239X$1,22.5*
%
%ADD10C,0.0100*%
%ADD11C,0.0050*%
%ADD12C,0.0080*%
%ADD13C,0.0000*%
D10*
X001503Y000583D02*
X001503Y010426D01*
X005834Y010426D01*
X005833Y010426D02*
X005835Y010380D01*
X005840Y010334D01*
X005849Y010288D01*
X005862Y010243D01*
X005878Y010200D01*
X005897Y010158D01*
X005920Y010117D01*
X005946Y010079D01*
X005975Y010042D01*
X006006Y010008D01*
X006040Y009977D01*
X006077Y009948D01*
X006115Y009922D01*
X006156Y009899D01*
X006198Y009880D01*
X006241Y009864D01*
X006286Y009851D01*
X006332Y009842D01*
X006378Y009837D01*
X006424Y009835D01*
X006470Y009837D01*
X006516Y009842D01*
X006562Y009851D01*
X006607Y009864D01*
X006650Y009880D01*
X006692Y009899D01*
X006733Y009922D01*
X006771Y009948D01*
X006808Y009977D01*
X006842Y010008D01*
X006873Y010042D01*
X006902Y010079D01*
X006928Y010117D01*
X006951Y010158D01*
X006970Y010200D01*
X006986Y010243D01*
X006999Y010288D01*
X007008Y010334D01*
X007013Y010380D01*
X007015Y010426D01*
X015676Y010426D01*
X015678Y010380D01*
X015683Y010334D01*
X015692Y010288D01*
X015705Y010243D01*
X015721Y010200D01*
X015740Y010158D01*
X015763Y010117D01*
X015789Y010079D01*
X015818Y010042D01*
X015849Y010008D01*
X015883Y009977D01*
X015920Y009948D01*
X015958Y009922D01*
X015999Y009899D01*
X016041Y009880D01*
X016084Y009864D01*
X016129Y009851D01*
X016175Y009842D01*
X016221Y009837D01*
X016267Y009835D01*
X016313Y009837D01*
X016359Y009842D01*
X016405Y009851D01*
X016450Y009864D01*
X016493Y009880D01*
X016535Y009899D01*
X016576Y009922D01*
X016614Y009948D01*
X016651Y009977D01*
X016685Y010008D01*
X016716Y010042D01*
X016745Y010079D01*
X016771Y010117D01*
X016794Y010158D01*
X016813Y010200D01*
X016829Y010243D01*
X016842Y010288D01*
X016851Y010334D01*
X016856Y010380D01*
X016858Y010426D01*
X016857Y010426D02*
X025519Y010426D01*
X025518Y010426D02*
X025520Y010380D01*
X025525Y010334D01*
X025534Y010288D01*
X025547Y010243D01*
X025563Y010200D01*
X025582Y010158D01*
X025605Y010117D01*
X025631Y010079D01*
X025660Y010042D01*
X025691Y010008D01*
X025725Y009977D01*
X025762Y009948D01*
X025800Y009922D01*
X025841Y009899D01*
X025883Y009880D01*
X025926Y009864D01*
X025971Y009851D01*
X026017Y009842D01*
X026063Y009837D01*
X026109Y009835D01*
X026155Y009837D01*
X026201Y009842D01*
X026247Y009851D01*
X026292Y009864D01*
X026335Y009880D01*
X026377Y009899D01*
X026418Y009922D01*
X026456Y009948D01*
X026493Y009977D01*
X026527Y010008D01*
X026558Y010042D01*
X026587Y010079D01*
X026613Y010117D01*
X026636Y010158D01*
X026655Y010200D01*
X026671Y010243D01*
X026684Y010288D01*
X026693Y010334D01*
X026698Y010380D01*
X026700Y010426D01*
X035361Y010426D01*
X035363Y010380D01*
X035368Y010334D01*
X035377Y010288D01*
X035390Y010243D01*
X035406Y010200D01*
X035425Y010158D01*
X035448Y010117D01*
X035474Y010079D01*
X035503Y010042D01*
X035534Y010008D01*
X035568Y009977D01*
X035605Y009948D01*
X035643Y009922D01*
X035684Y009899D01*
X035726Y009880D01*
X035769Y009864D01*
X035814Y009851D01*
X035860Y009842D01*
X035906Y009837D01*
X035952Y009835D01*
X035998Y009837D01*
X036044Y009842D01*
X036090Y009851D01*
X036135Y009864D01*
X036178Y009880D01*
X036220Y009899D01*
X036261Y009922D01*
X036299Y009948D01*
X036336Y009977D01*
X036370Y010008D01*
X036401Y010042D01*
X036430Y010079D01*
X036456Y010117D01*
X036479Y010158D01*
X036498Y010200D01*
X036514Y010243D01*
X036527Y010288D01*
X036536Y010334D01*
X036541Y010380D01*
X036543Y010426D01*
X036542Y010426D02*
X040873Y010426D01*
X040873Y000583D01*
X036542Y000583D01*
X036543Y000583D02*
X036541Y000629D01*
X036536Y000675D01*
X036527Y000721D01*
X036514Y000766D01*
X036498Y000809D01*
X036479Y000851D01*
X036456Y000892D01*
X036430Y000930D01*
X036401Y000967D01*
X036370Y001001D01*
X036336Y001032D01*
X036299Y001061D01*
X036261Y001087D01*
X036220Y001110D01*
X036178Y001129D01*
X036135Y001145D01*
X036090Y001158D01*
X036044Y001167D01*
X035998Y001172D01*
X035952Y001174D01*
X035906Y001172D01*
X035860Y001167D01*
X035814Y001158D01*
X035769Y001145D01*
X035726Y001129D01*
X035684Y001110D01*
X035643Y001087D01*
X035605Y001061D01*
X035568Y001032D01*
X035534Y001001D01*
X035503Y000967D01*
X035474Y000930D01*
X035448Y000892D01*
X035425Y000851D01*
X035406Y000809D01*
X035390Y000766D01*
X035377Y000721D01*
X035368Y000675D01*
X035363Y000629D01*
X035361Y000583D01*
X026700Y000583D01*
X026698Y000629D01*
X026693Y000675D01*
X026684Y000721D01*
X026671Y000766D01*
X026655Y000809D01*
X026636Y000851D01*
X026613Y000892D01*
X026587Y000930D01*
X026558Y000967D01*
X026527Y001001D01*
X026493Y001032D01*
X026456Y001061D01*
X026418Y001087D01*
X026377Y001110D01*
X026335Y001129D01*
X026292Y001145D01*
X026247Y001158D01*
X026201Y001167D01*
X026155Y001172D01*
X026109Y001174D01*
X026063Y001172D01*
X026017Y001167D01*
X025971Y001158D01*
X025926Y001145D01*
X025883Y001129D01*
X025841Y001110D01*
X025800Y001087D01*
X025762Y001061D01*
X025725Y001032D01*
X025691Y001001D01*
X025660Y000967D01*
X025631Y000930D01*
X025605Y000892D01*
X025582Y000851D01*
X025563Y000809D01*
X025547Y000766D01*
X025534Y000721D01*
X025525Y000675D01*
X025520Y000629D01*
X025518Y000583D01*
X025519Y000583D02*
X016857Y000583D01*
X016858Y000583D02*
X016856Y000629D01*
X016851Y000675D01*
X016842Y000721D01*
X016829Y000766D01*
X016813Y000809D01*
X016794Y000851D01*
X016771Y000892D01*
X016745Y000930D01*
X016716Y000967D01*
X016685Y001001D01*
X016651Y001032D01*
X016614Y001061D01*
X016576Y001087D01*
X016535Y001110D01*
X016493Y001129D01*
X016450Y001145D01*
X016405Y001158D01*
X016359Y001167D01*
X016313Y001172D01*
X016267Y001174D01*
X016221Y001172D01*
X016175Y001167D01*
X016129Y001158D01*
X016084Y001145D01*
X016041Y001129D01*
X015999Y001110D01*
X015958Y001087D01*
X015920Y001061D01*
X015883Y001032D01*
X015849Y001001D01*
X015818Y000967D01*
X015789Y000930D01*
X015763Y000892D01*
X015740Y000851D01*
X015721Y000809D01*
X015705Y000766D01*
X015692Y000721D01*
X015683Y000675D01*
X015678Y000629D01*
X015676Y000583D01*
X007015Y000583D01*
X007013Y000629D01*
X007008Y000675D01*
X006999Y000721D01*
X006986Y000766D01*
X006970Y000809D01*
X006951Y000851D01*
X006928Y000892D01*
X006902Y000930D01*
X006873Y000967D01*
X006842Y001001D01*
X006808Y001032D01*
X006771Y001061D01*
X006733Y001087D01*
X006692Y001110D01*
X006650Y001129D01*
X006607Y001145D01*
X006562Y001158D01*
X006516Y001167D01*
X006470Y001172D01*
X006424Y001174D01*
X006378Y001172D01*
X006332Y001167D01*
X006286Y001158D01*
X006241Y001145D01*
X006198Y001129D01*
X006156Y001110D01*
X006115Y001087D01*
X006077Y001061D01*
X006040Y001032D01*
X006006Y001001D01*
X005975Y000967D01*
X005946Y000930D01*
X005920Y000892D01*
X005897Y000851D01*
X005878Y000809D01*
X005862Y000766D01*
X005849Y000721D01*
X005840Y000675D01*
X005835Y000629D01*
X005833Y000583D01*
X005834Y000583D02*
X001503Y000583D01*
D11*
X005834Y000583D01*
X005833Y000583D02*
X005835Y000631D01*
X005841Y000678D01*
X005850Y000724D01*
X005863Y000770D01*
X005880Y000815D01*
X005901Y000858D01*
X005924Y000899D01*
X005952Y000938D01*
X005982Y000975D01*
X006015Y001009D01*
X006050Y001041D01*
X006088Y001069D01*
X006129Y001095D01*
X006171Y001117D01*
X006214Y001136D01*
X006260Y001151D01*
X006306Y001162D01*
X006353Y001170D01*
X006400Y001174D01*
X006448Y001174D01*
X006495Y001170D01*
X006542Y001162D01*
X006588Y001151D01*
X006634Y001136D01*
X006677Y001117D01*
X006720Y001095D01*
X006760Y001069D01*
X006798Y001041D01*
X006833Y001009D01*
X006866Y000975D01*
X006896Y000938D01*
X006924Y000899D01*
X006947Y000858D01*
X006968Y000815D01*
X006985Y000770D01*
X006998Y000724D01*
X007007Y000678D01*
X007013Y000631D01*
X007015Y000583D01*
X015676Y000583D01*
X015678Y000631D01*
X015684Y000678D01*
X015693Y000724D01*
X015706Y000770D01*
X015723Y000815D01*
X015744Y000858D01*
X015767Y000899D01*
X015795Y000938D01*
X015825Y000975D01*
X015858Y001009D01*
X015893Y001041D01*
X015931Y001069D01*
X015972Y001095D01*
X016014Y001117D01*
X016057Y001136D01*
X016103Y001151D01*
X016149Y001162D01*
X016196Y001170D01*
X016243Y001174D01*
X016291Y001174D01*
X016338Y001170D01*
X016385Y001162D01*
X016431Y001151D01*
X016477Y001136D01*
X016520Y001117D01*
X016563Y001095D01*
X016603Y001069D01*
X016641Y001041D01*
X016676Y001009D01*
X016709Y000975D01*
X016739Y000938D01*
X016767Y000899D01*
X016790Y000858D01*
X016811Y000815D01*
X016828Y000770D01*
X016841Y000724D01*
X016850Y000678D01*
X016856Y000631D01*
X016858Y000583D01*
X016857Y000583D02*
X021188Y000583D01*
X025519Y000583D01*
X025518Y000583D02*
X025520Y000631D01*
X025526Y000678D01*
X025535Y000724D01*
X025548Y000770D01*
X025565Y000815D01*
X025586Y000858D01*
X025609Y000899D01*
X025637Y000938D01*
X025667Y000975D01*
X025700Y001009D01*
X025735Y001041D01*
X025773Y001069D01*
X025814Y001095D01*
X025856Y001117D01*
X025899Y001136D01*
X025945Y001151D01*
X025991Y001162D01*
X026038Y001170D01*
X026085Y001174D01*
X026133Y001174D01*
X026180Y001170D01*
X026227Y001162D01*
X026273Y001151D01*
X026319Y001136D01*
X026362Y001117D01*
X026405Y001095D01*
X026445Y001069D01*
X026483Y001041D01*
X026518Y001009D01*
X026551Y000975D01*
X026581Y000938D01*
X026609Y000899D01*
X026632Y000858D01*
X026653Y000815D01*
X026670Y000770D01*
X026683Y000724D01*
X026692Y000678D01*
X026698Y000631D01*
X026700Y000583D01*
X035361Y000583D01*
X035363Y000631D01*
X035369Y000678D01*
X035378Y000724D01*
X035391Y000770D01*
X035408Y000815D01*
X035429Y000858D01*
X035452Y000899D01*
X035480Y000938D01*
X035510Y000975D01*
X035543Y001009D01*
X035578Y001041D01*
X035616Y001069D01*
X035657Y001095D01*
X035699Y001117D01*
X035742Y001136D01*
X035788Y001151D01*
X035834Y001162D01*
X035881Y001170D01*
X035928Y001174D01*
X035976Y001174D01*
X036023Y001170D01*
X036070Y001162D01*
X036116Y001151D01*
X036162Y001136D01*
X036205Y001117D01*
X036248Y001095D01*
X036288Y001069D01*
X036326Y001041D01*
X036361Y001009D01*
X036394Y000975D01*
X036424Y000938D01*
X036452Y000899D01*
X036475Y000858D01*
X036496Y000815D01*
X036513Y000770D01*
X036526Y000724D01*
X036535Y000678D01*
X036541Y000631D01*
X036543Y000583D01*
X036542Y000583D02*
X040873Y000583D01*
X040873Y010426D01*
X036542Y010426D01*
X036543Y010426D02*
X036541Y010378D01*
X036535Y010331D01*
X036526Y010285D01*
X036513Y010239D01*
X036496Y010194D01*
X036475Y010151D01*
X036452Y010110D01*
X036424Y010071D01*
X036394Y010034D01*
X036361Y010000D01*
X036326Y009968D01*
X036288Y009940D01*
X036248Y009914D01*
X036205Y009892D01*
X036162Y009873D01*
X036116Y009858D01*
X036070Y009847D01*
X036023Y009839D01*
X035976Y009835D01*
X035928Y009835D01*
X035881Y009839D01*
X035834Y009847D01*
X035788Y009858D01*
X035742Y009873D01*
X035699Y009892D01*
X035657Y009914D01*
X035616Y009940D01*
X035578Y009968D01*
X035543Y010000D01*
X035510Y010034D01*
X035480Y010071D01*
X035452Y010110D01*
X035429Y010151D01*
X035408Y010194D01*
X035391Y010239D01*
X035378Y010285D01*
X035369Y010331D01*
X035363Y010378D01*
X035361Y010426D01*
X026700Y010426D01*
X026698Y010378D01*
X026692Y010331D01*
X026683Y010285D01*
X026670Y010239D01*
X026653Y010194D01*
X026632Y010151D01*
X026609Y010110D01*
X026581Y010071D01*
X026551Y010034D01*
X026518Y010000D01*
X026483Y009968D01*
X026445Y009940D01*
X026404Y009914D01*
X026362Y009892D01*
X026319Y009873D01*
X026273Y009858D01*
X026227Y009847D01*
X026180Y009839D01*
X026133Y009835D01*
X026085Y009835D01*
X026038Y009839D01*
X025991Y009847D01*
X025945Y009858D01*
X025899Y009873D01*
X025856Y009892D01*
X025814Y009914D01*
X025773Y009940D01*
X025735Y009968D01*
X025700Y010000D01*
X025667Y010034D01*
X025637Y010071D01*
X025609Y010110D01*
X025586Y010151D01*
X025565Y010194D01*
X025548Y010239D01*
X025535Y010285D01*
X025526Y010331D01*
X025520Y010378D01*
X025518Y010426D01*
X025519Y010426D02*
X021188Y010426D01*
X021188Y000583D01*
X021188Y010426D01*
X016857Y010426D01*
X016858Y010426D02*
X016856Y010378D01*
X016850Y010331D01*
X016841Y010285D01*
X016828Y010239D01*
X016811Y010194D01*
X016790Y010151D01*
X016767Y010110D01*
X016739Y010071D01*
X016709Y010034D01*
X016676Y010000D01*
X016641Y009968D01*
X016603Y009940D01*
X016562Y009914D01*
X016520Y009892D01*
X016477Y009873D01*
X016431Y009858D01*
X016385Y009847D01*
X016338Y009839D01*
X016291Y009835D01*
X016243Y009835D01*
X016196Y009839D01*
X016149Y009847D01*
X016103Y009858D01*
X016057Y009873D01*
X016014Y009892D01*
X015972Y009914D01*
X015931Y009940D01*
X015893Y009968D01*
X015858Y010000D01*
X015825Y010034D01*
X015795Y010071D01*
X015767Y010110D01*
X015744Y010151D01*
X015723Y010194D01*
X015706Y010239D01*
X015693Y010285D01*
X015684Y010331D01*
X015678Y010378D01*
X015676Y010426D01*
X007015Y010426D01*
X007013Y010378D01*
X007007Y010331D01*
X006998Y010285D01*
X006985Y010239D01*
X006968Y010194D01*
X006947Y010151D01*
X006924Y010110D01*
X006896Y010071D01*
X006866Y010034D01*
X006833Y010000D01*
X006798Y009968D01*
X006760Y009940D01*
X006719Y009914D01*
X006677Y009892D01*
X006634Y009873D01*
X006588Y009858D01*
X006542Y009847D01*
X006495Y009839D01*
X006448Y009835D01*
X006400Y009835D01*
X006353Y009839D01*
X006306Y009847D01*
X006260Y009858D01*
X006214Y009873D01*
X006171Y009892D01*
X006129Y009914D01*
X006088Y009940D01*
X006050Y009968D01*
X006015Y010000D01*
X005982Y010034D01*
X005952Y010071D01*
X005924Y010110D01*
X005901Y010151D01*
X005880Y010194D01*
X005863Y010239D01*
X005850Y010285D01*
X005841Y010331D01*
X005835Y010378D01*
X005833Y010426D01*
X005834Y010426D02*
X001503Y010426D01*
X001503Y000583D01*
X007619Y004696D02*
X007619Y006271D01*
X007620Y006271D02*
X007576Y006332D01*
X007530Y006390D01*
X007481Y006447D01*
X007429Y006500D01*
X007374Y006551D01*
X007316Y006599D01*
X007256Y006643D01*
X007194Y006685D01*
X007130Y006723D01*
X007064Y006758D01*
X006996Y006789D01*
X006926Y006816D01*
X006855Y006840D01*
X006783Y006860D01*
X006710Y006877D01*
X006637Y006889D01*
X006562Y006898D01*
X006488Y006902D01*
X006413Y006903D01*
X006338Y006899D01*
X006264Y006892D01*
X006190Y006881D01*
X006117Y006866D01*
X006044Y006847D01*
X005973Y006825D01*
X005903Y006798D01*
X005835Y006768D01*
X005768Y006735D01*
X005703Y006698D01*
X005640Y006658D01*
X005579Y006614D01*
X005521Y006567D01*
X005465Y006517D01*
X005412Y006465D01*
X005362Y006409D01*
X005315Y006352D01*
X005270Y006291D01*
X005230Y006229D01*
X005192Y006164D01*
X005158Y006097D01*
X005127Y006029D01*
X005100Y005960D01*
X005077Y005888D01*
X005058Y005816D01*
X005042Y005743D01*
X005030Y005669D01*
X005022Y005595D01*
X005018Y005520D01*
X005018Y005446D01*
X005022Y005371D01*
X005030Y005297D01*
X005042Y005223D01*
X005058Y005150D01*
X005077Y005078D01*
X005100Y005006D01*
X005127Y004937D01*
X005158Y004869D01*
X005192Y004802D01*
X005230Y004737D01*
X005270Y004675D01*
X005315Y004614D01*
X005362Y004557D01*
X005412Y004501D01*
X005465Y004449D01*
X005521Y004399D01*
X005579Y004352D01*
X005640Y004308D01*
X005703Y004268D01*
X005768Y004231D01*
X005835Y004198D01*
X005903Y004168D01*
X005973Y004141D01*
X006044Y004119D01*
X006117Y004100D01*
X006190Y004085D01*
X006264Y004074D01*
X006338Y004067D01*
X006413Y004063D01*
X006488Y004064D01*
X006562Y004068D01*
X006637Y004077D01*
X006710Y004089D01*
X006783Y004106D01*
X006855Y004126D01*
X006926Y004150D01*
X006996Y004177D01*
X007064Y004208D01*
X007130Y004243D01*
X007194Y004281D01*
X007256Y004323D01*
X007316Y004367D01*
X007374Y004415D01*
X007429Y004466D01*
X007481Y004519D01*
X007530Y004576D01*
X007576Y004634D01*
X007620Y004695D01*
X017470Y004695D02*
X017426Y004634D01*
X017380Y004576D01*
X017331Y004519D01*
X017279Y004466D01*
X017224Y004415D01*
X017166Y004367D01*
X017106Y004323D01*
X017044Y004281D01*
X016980Y004243D01*
X016914Y004208D01*
X016846Y004177D01*
X016776Y004150D01*
X016705Y004126D01*
X016633Y004106D01*
X016560Y004089D01*
X016487Y004077D01*
X016412Y004068D01*
X016338Y004064D01*
X016263Y004063D01*
X016188Y004067D01*
X016114Y004074D01*
X016040Y004085D01*
X015967Y004100D01*
X015894Y004119D01*
X015823Y004141D01*
X015753Y004168D01*
X015685Y004198D01*
X015618Y004231D01*
X015553Y004268D01*
X015490Y004308D01*
X015429Y004352D01*
X015371Y004399D01*
X015315Y004449D01*
X015262Y004501D01*
X015212Y004557D01*
X015165Y004614D01*
X015120Y004675D01*
X015080Y004737D01*
X015042Y004802D01*
X015008Y004869D01*
X014977Y004937D01*
X014950Y005006D01*
X014927Y005078D01*
X014908Y005150D01*
X014892Y005223D01*
X014880Y005297D01*
X014872Y005371D01*
X014868Y005446D01*
X014868Y005520D01*
X014872Y005595D01*
X014880Y005669D01*
X014892Y005743D01*
X014908Y005816D01*
X014927Y005888D01*
X014950Y005960D01*
X014977Y006029D01*
X015008Y006097D01*
X015042Y006164D01*
X015080Y006229D01*
X015120Y006291D01*
X015165Y006352D01*
X015212Y006409D01*
X015262Y006465D01*
X015315Y006517D01*
X015371Y006567D01*
X015429Y006614D01*
X015490Y006658D01*
X015553Y006698D01*
X015618Y006735D01*
X015685Y006768D01*
X015753Y006798D01*
X015823Y006825D01*
X015894Y006847D01*
X015967Y006866D01*
X016040Y006881D01*
X016114Y006892D01*
X016188Y006899D01*
X016263Y006903D01*
X016338Y006902D01*
X016412Y006898D01*
X016487Y006889D01*
X016560Y006877D01*
X016633Y006860D01*
X016705Y006840D01*
X016776Y006816D01*
X016846Y006789D01*
X016914Y006758D01*
X016980Y006723D01*
X017044Y006685D01*
X017106Y006643D01*
X017166Y006599D01*
X017224Y006551D01*
X017279Y006500D01*
X017331Y006447D01*
X017380Y006390D01*
X017426Y006332D01*
X017470Y006271D01*
X017469Y006271D02*
X017469Y004696D01*
X027305Y004695D02*
X027261Y004634D01*
X027215Y004576D01*
X027166Y004519D01*
X027114Y004466D01*
X027059Y004415D01*
X027001Y004367D01*
X026941Y004323D01*
X026879Y004281D01*
X026815Y004243D01*
X026749Y004208D01*
X026681Y004177D01*
X026611Y004150D01*
X026540Y004126D01*
X026468Y004106D01*
X026395Y004089D01*
X026322Y004077D01*
X026247Y004068D01*
X026173Y004064D01*
X026098Y004063D01*
X026023Y004067D01*
X025949Y004074D01*
X025875Y004085D01*
X025802Y004100D01*
X025729Y004119D01*
X025658Y004141D01*
X025588Y004168D01*
X025520Y004198D01*
X025453Y004231D01*
X025388Y004268D01*
X025325Y004308D01*
X025264Y004352D01*
X025206Y004399D01*
X025150Y004449D01*
X025097Y004501D01*
X025047Y004557D01*
X025000Y004614D01*
X024955Y004675D01*
X024915Y004737D01*
X024877Y004802D01*
X024843Y004869D01*
X024812Y004937D01*
X024785Y005006D01*
X024762Y005078D01*
X024743Y005150D01*
X024727Y005223D01*
X024715Y005297D01*
X024707Y005371D01*
X024703Y005446D01*
X024703Y005520D01*
X024707Y005595D01*
X024715Y005669D01*
X024727Y005743D01*
X024743Y005816D01*
X024762Y005888D01*
X024785Y005960D01*
X024812Y006029D01*
X024843Y006097D01*
X024877Y006164D01*
X024915Y006229D01*
X024955Y006291D01*
X025000Y006352D01*
X025047Y006409D01*
X025097Y006465D01*
X025150Y006517D01*
X025206Y006567D01*
X025264Y006614D01*
X025325Y006658D01*
X025388Y006698D01*
X025453Y006735D01*
X025520Y006768D01*
X025588Y006798D01*
X025658Y006825D01*
X025729Y006847D01*
X025802Y006866D01*
X025875Y006881D01*
X025949Y006892D01*
X026023Y006899D01*
X026098Y006903D01*
X026173Y006902D01*
X026247Y006898D01*
X026322Y006889D01*
X026395Y006877D01*
X026468Y006860D01*
X026540Y006840D01*
X026611Y006816D01*
X026681Y006789D01*
X026749Y006758D01*
X026815Y006723D01*
X026879Y006685D01*
X026941Y006643D01*
X027001Y006599D01*
X027059Y006551D01*
X027114Y006500D01*
X027166Y006447D01*
X027215Y006390D01*
X027261Y006332D01*
X027305Y006271D01*
X027304Y006271D02*
X027304Y004696D01*
X037155Y004695D02*
X037111Y004634D01*
X037065Y004576D01*
X037016Y004519D01*
X036964Y004466D01*
X036909Y004415D01*
X036851Y004367D01*
X036791Y004323D01*
X036729Y004281D01*
X036665Y004243D01*
X036599Y004208D01*
X036531Y004177D01*
X036461Y004150D01*
X036390Y004126D01*
X036318Y004106D01*
X036245Y004089D01*
X036172Y004077D01*
X036097Y004068D01*
X036023Y004064D01*
X035948Y004063D01*
X035873Y004067D01*
X035799Y004074D01*
X035725Y004085D01*
X035652Y004100D01*
X035579Y004119D01*
X035508Y004141D01*
X035438Y004168D01*
X035370Y004198D01*
X035303Y004231D01*
X035238Y004268D01*
X035175Y004308D01*
X035114Y004352D01*
X035056Y004399D01*
X035000Y004449D01*
X034947Y004501D01*
X034897Y004557D01*
X034850Y004614D01*
X034805Y004675D01*
X034765Y004737D01*
X034727Y004802D01*
X034693Y004869D01*
X034662Y004937D01*
X034635Y005006D01*
X034612Y005078D01*
X034593Y005150D01*
X034577Y005223D01*
X034565Y005297D01*
X034557Y005371D01*
X034553Y005446D01*
X034553Y005520D01*
X034557Y005595D01*
X034565Y005669D01*
X034577Y005743D01*
X034593Y005816D01*
X034612Y005888D01*
X034635Y005960D01*
X034662Y006029D01*
X034693Y006097D01*
X034727Y006164D01*
X034765Y006229D01*
X034805Y006291D01*
X034850Y006352D01*
X034897Y006409D01*
X034947Y006465D01*
X035000Y006517D01*
X035056Y006567D01*
X035114Y006614D01*
X035175Y006658D01*
X035238Y006698D01*
X035303Y006735D01*
X035370Y006768D01*
X035438Y006798D01*
X035508Y006825D01*
X035579Y006847D01*
X035652Y006866D01*
X035725Y006881D01*
X035799Y006892D01*
X035873Y006899D01*
X035948Y006903D01*
X036023Y006902D01*
X036097Y006898D01*
X036172Y006889D01*
X036245Y006877D01*
X036318Y006860D01*
X036390Y006840D01*
X036461Y006816D01*
X036531Y006789D01*
X036599Y006758D01*
X036665Y006723D01*
X036729Y006685D01*
X036791Y006643D01*
X036851Y006599D01*
X036909Y006551D01*
X036964Y006500D01*
X037016Y006447D01*
X037065Y006390D01*
X037111Y006332D01*
X037155Y006271D01*
X037154Y006271D02*
X037154Y004696D01*
D12*
X037015Y004717D02*
X037015Y005013D01*
X037015Y004718D02*
X036974Y004660D01*
X036930Y004605D01*
X036882Y004552D01*
X036832Y004503D01*
X036780Y004456D01*
X036724Y004412D01*
X036667Y004371D01*
X036607Y004333D01*
X036545Y004299D01*
X036482Y004268D01*
X036417Y004241D01*
X036350Y004217D01*
X036282Y004197D01*
X036214Y004181D01*
X036144Y004169D01*
X036074Y004160D01*
X036003Y004156D01*
X035933Y004155D01*
X035862Y004159D01*
X035792Y004166D01*
X035722Y004177D01*
X035653Y004192D01*
X035585Y004210D01*
X035518Y004233D01*
X035452Y004259D01*
X035388Y004289D01*
X035326Y004322D01*
X035266Y004359D01*
X035207Y004398D01*
X035151Y004441D01*
X035098Y004488D01*
X035047Y004537D01*
X034999Y004588D01*
X034954Y004643D01*
X034912Y004699D01*
X034873Y004758D01*
X034837Y004819D01*
X034805Y004882D01*
X034776Y004947D01*
X034751Y005013D01*
X034751Y005996D02*
X034776Y006062D01*
X034805Y006127D01*
X034837Y006190D01*
X034873Y006251D01*
X034912Y006310D01*
X034954Y006366D01*
X034999Y006421D01*
X035047Y006472D01*
X035098Y006521D01*
X035151Y006568D01*
X035207Y006611D01*
X035266Y006650D01*
X035326Y006687D01*
X035388Y006720D01*
X035452Y006750D01*
X035518Y006776D01*
X035585Y006799D01*
X035653Y006817D01*
X035722Y006832D01*
X035792Y006843D01*
X035862Y006850D01*
X035933Y006854D01*
X036003Y006853D01*
X036074Y006849D01*
X036144Y006840D01*
X036214Y006828D01*
X036282Y006812D01*
X036350Y006792D01*
X036417Y006768D01*
X036482Y006741D01*
X036545Y006710D01*
X036607Y006676D01*
X036667Y006638D01*
X036724Y006597D01*
X036780Y006553D01*
X036832Y006506D01*
X036882Y006457D01*
X036930Y006404D01*
X036974Y006349D01*
X037015Y006291D01*
X037015Y006292D02*
X037015Y005997D01*
X027172Y005997D02*
X027172Y006292D01*
X027172Y006291D02*
X027131Y006349D01*
X027087Y006404D01*
X027039Y006457D01*
X026989Y006506D01*
X026937Y006553D01*
X026881Y006597D01*
X026824Y006638D01*
X026764Y006676D01*
X026702Y006710D01*
X026639Y006741D01*
X026574Y006768D01*
X026507Y006792D01*
X026439Y006812D01*
X026371Y006828D01*
X026301Y006840D01*
X026231Y006849D01*
X026160Y006853D01*
X026090Y006854D01*
X026019Y006850D01*
X025949Y006843D01*
X025879Y006832D01*
X025810Y006817D01*
X025742Y006799D01*
X025675Y006776D01*
X025609Y006750D01*
X025545Y006720D01*
X025483Y006687D01*
X025423Y006650D01*
X025364Y006611D01*
X025308Y006568D01*
X025255Y006521D01*
X025204Y006472D01*
X025156Y006421D01*
X025111Y006366D01*
X025069Y006310D01*
X025030Y006251D01*
X024994Y006190D01*
X024962Y006127D01*
X024933Y006062D01*
X024908Y005996D01*
X024908Y005013D02*
X024933Y004947D01*
X024962Y004882D01*
X024994Y004819D01*
X025030Y004758D01*
X025069Y004699D01*
X025111Y004643D01*
X025156Y004588D01*
X025204Y004537D01*
X025255Y004488D01*
X025308Y004441D01*
X025364Y004398D01*
X025423Y004359D01*
X025483Y004322D01*
X025545Y004289D01*
X025609Y004259D01*
X025675Y004233D01*
X025742Y004210D01*
X025810Y004192D01*
X025879Y004177D01*
X025949Y004166D01*
X026019Y004159D01*
X026090Y004155D01*
X026160Y004156D01*
X026231Y004160D01*
X026301Y004169D01*
X026371Y004181D01*
X026439Y004197D01*
X026507Y004217D01*
X026574Y004241D01*
X026639Y004268D01*
X026702Y004299D01*
X026764Y004333D01*
X026824Y004371D01*
X026881Y004412D01*
X026937Y004456D01*
X026989Y004503D01*
X027039Y004552D01*
X027087Y004605D01*
X027131Y004660D01*
X027172Y004718D01*
X027172Y004717D02*
X027172Y005013D01*
X017330Y005013D02*
X017330Y004717D01*
X017330Y004718D02*
X017289Y004660D01*
X017245Y004605D01*
X017197Y004552D01*
X017147Y004503D01*
X017095Y004456D01*
X017039Y004412D01*
X016982Y004371D01*
X016922Y004333D01*
X016860Y004299D01*
X016797Y004268D01*
X016732Y004241D01*
X016665Y004217D01*
X016597Y004197D01*
X016529Y004181D01*
X016459Y004169D01*
X016389Y004160D01*
X016318Y004156D01*
X016248Y004155D01*
X016177Y004159D01*
X016107Y004166D01*
X016037Y004177D01*
X015968Y004192D01*
X015900Y004210D01*
X015833Y004233D01*
X015767Y004259D01*
X015703Y004289D01*
X015641Y004322D01*
X015581Y004359D01*
X015522Y004398D01*
X015466Y004441D01*
X015413Y004488D01*
X015362Y004537D01*
X015314Y004588D01*
X015269Y004643D01*
X015227Y004699D01*
X015188Y004758D01*
X015152Y004819D01*
X015120Y004882D01*
X015091Y004947D01*
X015066Y005013D01*
X015066Y005996D02*
X015091Y006062D01*
X015120Y006127D01*
X015152Y006190D01*
X015188Y006251D01*
X015227Y006310D01*
X015269Y006366D01*
X015314Y006421D01*
X015362Y006472D01*
X015413Y006521D01*
X015466Y006568D01*
X015522Y006611D01*
X015581Y006650D01*
X015641Y006687D01*
X015703Y006720D01*
X015767Y006750D01*
X015833Y006776D01*
X015900Y006799D01*
X015968Y006817D01*
X016037Y006832D01*
X016107Y006843D01*
X016177Y006850D01*
X016248Y006854D01*
X016318Y006853D01*
X016389Y006849D01*
X016459Y006840D01*
X016529Y006828D01*
X016597Y006812D01*
X016665Y006792D01*
X016732Y006768D01*
X016797Y006741D01*
X016860Y006710D01*
X016922Y006676D01*
X016982Y006638D01*
X017039Y006597D01*
X017095Y006553D01*
X017147Y006506D01*
X017197Y006457D01*
X017245Y006404D01*
X017289Y006349D01*
X017330Y006291D01*
X017330Y006292D02*
X017330Y005997D01*
X007487Y005997D02*
X007487Y006292D01*
X007487Y006291D02*
X007446Y006349D01*
X007402Y006404D01*
X007354Y006457D01*
X007304Y006506D01*
X007252Y006553D01*
X007196Y006597D01*
X007139Y006638D01*
X007079Y006676D01*
X007017Y006710D01*
X006954Y006741D01*
X006889Y006768D01*
X006822Y006792D01*
X006754Y006812D01*
X006686Y006828D01*
X006616Y006840D01*
X006546Y006849D01*
X006475Y006853D01*
X006405Y006854D01*
X006334Y006850D01*
X006264Y006843D01*
X006194Y006832D01*
X006125Y006817D01*
X006057Y006799D01*
X005990Y006776D01*
X005924Y006750D01*
X005860Y006720D01*
X005798Y006687D01*
X005738Y006650D01*
X005679Y006611D01*
X005623Y006568D01*
X005570Y006521D01*
X005519Y006472D01*
X005471Y006421D01*
X005426Y006366D01*
X005384Y006310D01*
X005345Y006251D01*
X005309Y006190D01*
X005277Y006127D01*
X005248Y006062D01*
X005223Y005996D01*
X005223Y005013D02*
X005248Y004947D01*
X005277Y004882D01*
X005309Y004819D01*
X005345Y004758D01*
X005384Y004699D01*
X005426Y004643D01*
X005471Y004588D01*
X005519Y004537D01*
X005570Y004488D01*
X005623Y004441D01*
X005679Y004398D01*
X005738Y004359D01*
X005798Y004322D01*
X005860Y004289D01*
X005924Y004259D01*
X005990Y004233D01*
X006057Y004210D01*
X006125Y004192D01*
X006194Y004177D01*
X006264Y004166D01*
X006334Y004159D01*
X006405Y004155D01*
X006475Y004156D01*
X006546Y004160D01*
X006616Y004169D01*
X006686Y004181D01*
X006754Y004197D01*
X006822Y004217D01*
X006889Y004241D01*
X006954Y004268D01*
X007017Y004299D01*
X007079Y004333D01*
X007139Y004371D01*
X007196Y004412D01*
X007252Y004456D01*
X007304Y004503D01*
X007354Y004552D01*
X007402Y004605D01*
X007446Y004660D01*
X007487Y004718D01*
X007487Y004717D02*
X007487Y005013D01*
D13*
X010754Y005505D02*
X010756Y005553D01*
X010762Y005601D01*
X010772Y005648D01*
X010785Y005694D01*
X010803Y005739D01*
X010823Y005783D01*
X010848Y005825D01*
X010876Y005864D01*
X010906Y005901D01*
X010940Y005935D01*
X010977Y005967D01*
X011015Y005996D01*
X011056Y006021D01*
X011099Y006043D01*
X011144Y006061D01*
X011190Y006075D01*
X011237Y006086D01*
X011285Y006093D01*
X011333Y006096D01*
X011381Y006095D01*
X011429Y006090D01*
X011477Y006081D01*
X011523Y006069D01*
X011568Y006052D01*
X011612Y006032D01*
X011654Y006009D01*
X011694Y005982D01*
X011732Y005952D01*
X011767Y005919D01*
X011799Y005883D01*
X011829Y005845D01*
X011855Y005804D01*
X011877Y005761D01*
X011897Y005717D01*
X011912Y005672D01*
X011924Y005625D01*
X011932Y005577D01*
X011936Y005529D01*
X011936Y005481D01*
X011932Y005433D01*
X011924Y005385D01*
X011912Y005338D01*
X011897Y005293D01*
X011877Y005249D01*
X011855Y005206D01*
X011829Y005165D01*
X011799Y005127D01*
X011767Y005091D01*
X011732Y005058D01*
X011694Y005028D01*
X011654Y005001D01*
X011612Y004978D01*
X011568Y004958D01*
X011523Y004941D01*
X011477Y004929D01*
X011429Y004920D01*
X011381Y004915D01*
X011333Y004914D01*
X011285Y004917D01*
X011237Y004924D01*
X011190Y004935D01*
X011144Y004949D01*
X011099Y004967D01*
X011056Y004989D01*
X011015Y005014D01*
X010977Y005043D01*
X010940Y005075D01*
X010906Y005109D01*
X010876Y005146D01*
X010848Y005185D01*
X010823Y005227D01*
X010803Y005271D01*
X010785Y005316D01*
X010772Y005362D01*
X010762Y005409D01*
X010756Y005457D01*
X010754Y005505D01*
X001896Y009442D02*
X001898Y009490D01*
X001904Y009538D01*
X001914Y009585D01*
X001927Y009631D01*
X001945Y009676D01*
X001965Y009720D01*
X001990Y009762D01*
X002018Y009801D01*
X002048Y009838D01*
X002082Y009872D01*
X002119Y009904D01*
X002157Y009933D01*
X002198Y009958D01*
X002241Y009980D01*
X002286Y009998D01*
X002332Y010012D01*
X002379Y010023D01*
X002427Y010030D01*
X002475Y010033D01*
X002523Y010032D01*
X002571Y010027D01*
X002619Y010018D01*
X002665Y010006D01*
X002710Y009989D01*
X002754Y009969D01*
X002796Y009946D01*
X002836Y009919D01*
X002874Y009889D01*
X002909Y009856D01*
X002941Y009820D01*
X002971Y009782D01*
X002997Y009741D01*
X003019Y009698D01*
X003039Y009654D01*
X003054Y009609D01*
X003066Y009562D01*
X003074Y009514D01*
X003078Y009466D01*
X003078Y009418D01*
X003074Y009370D01*
X003066Y009322D01*
X003054Y009275D01*
X003039Y009230D01*
X003019Y009186D01*
X002997Y009143D01*
X002971Y009102D01*
X002941Y009064D01*
X002909Y009028D01*
X002874Y008995D01*
X002836Y008965D01*
X002796Y008938D01*
X002754Y008915D01*
X002710Y008895D01*
X002665Y008878D01*
X002619Y008866D01*
X002571Y008857D01*
X002523Y008852D01*
X002475Y008851D01*
X002427Y008854D01*
X002379Y008861D01*
X002332Y008872D01*
X002286Y008886D01*
X002241Y008904D01*
X002198Y008926D01*
X002157Y008951D01*
X002119Y008980D01*
X002082Y009012D01*
X002048Y009046D01*
X002018Y009083D01*
X001990Y009122D01*
X001965Y009164D01*
X001945Y009208D01*
X001927Y009253D01*
X001914Y009299D01*
X001904Y009346D01*
X001898Y009394D01*
X001896Y009442D01*
X019613Y009442D02*
X019615Y009490D01*
X019621Y009538D01*
X019631Y009585D01*
X019644Y009631D01*
X019662Y009676D01*
X019682Y009720D01*
X019707Y009762D01*
X019735Y009801D01*
X019765Y009838D01*
X019799Y009872D01*
X019836Y009904D01*
X019874Y009933D01*
X019915Y009958D01*
X019958Y009980D01*
X020003Y009998D01*
X020049Y010012D01*
X020096Y010023D01*
X020144Y010030D01*
X020192Y010033D01*
X020240Y010032D01*
X020288Y010027D01*
X020336Y010018D01*
X020382Y010006D01*
X020427Y009989D01*
X020471Y009969D01*
X020513Y009946D01*
X020553Y009919D01*
X020591Y009889D01*
X020626Y009856D01*
X020658Y009820D01*
X020688Y009782D01*
X020714Y009741D01*
X020736Y009698D01*
X020756Y009654D01*
X020771Y009609D01*
X020783Y009562D01*
X020791Y009514D01*
X020795Y009466D01*
X020795Y009418D01*
X020791Y009370D01*
X020783Y009322D01*
X020771Y009275D01*
X020756Y009230D01*
X020736Y009186D01*
X020714Y009143D01*
X020688Y009102D01*
X020658Y009064D01*
X020626Y009028D01*
X020591Y008995D01*
X020553Y008965D01*
X020513Y008938D01*
X020471Y008915D01*
X020427Y008895D01*
X020382Y008878D01*
X020336Y008866D01*
X020288Y008857D01*
X020240Y008852D01*
X020192Y008851D01*
X020144Y008854D01*
X020096Y008861D01*
X020049Y008872D01*
X020003Y008886D01*
X019958Y008904D01*
X019915Y008926D01*
X019874Y008951D01*
X019836Y008980D01*
X019799Y009012D01*
X019765Y009046D01*
X019735Y009083D01*
X019707Y009122D01*
X019682Y009164D01*
X019662Y009208D01*
X019644Y009253D01*
X019631Y009299D01*
X019621Y009346D01*
X019615Y009394D01*
X019613Y009442D01*
X021581Y009442D02*
X021583Y009490D01*
X021589Y009538D01*
X021599Y009585D01*
X021612Y009631D01*
X021630Y009676D01*
X021650Y009720D01*
X021675Y009762D01*
X021703Y009801D01*
X021733Y009838D01*
X021767Y009872D01*
X021804Y009904D01*
X021842Y009933D01*
X021883Y009958D01*
X021926Y009980D01*
X021971Y009998D01*
X022017Y010012D01*
X022064Y010023D01*
X022112Y010030D01*
X022160Y010033D01*
X022208Y010032D01*
X022256Y010027D01*
X022304Y010018D01*
X022350Y010006D01*
X022395Y009989D01*
X022439Y009969D01*
X022481Y009946D01*
X022521Y009919D01*
X022559Y009889D01*
X022594Y009856D01*
X022626Y009820D01*
X022656Y009782D01*
X022682Y009741D01*
X022704Y009698D01*
X022724Y009654D01*
X022739Y009609D01*
X022751Y009562D01*
X022759Y009514D01*
X022763Y009466D01*
X022763Y009418D01*
X022759Y009370D01*
X022751Y009322D01*
X022739Y009275D01*
X022724Y009230D01*
X022704Y009186D01*
X022682Y009143D01*
X022656Y009102D01*
X022626Y009064D01*
X022594Y009028D01*
X022559Y008995D01*
X022521Y008965D01*
X022481Y008938D01*
X022439Y008915D01*
X022395Y008895D01*
X022350Y008878D01*
X022304Y008866D01*
X022256Y008857D01*
X022208Y008852D01*
X022160Y008851D01*
X022112Y008854D01*
X022064Y008861D01*
X022017Y008872D01*
X021971Y008886D01*
X021926Y008904D01*
X021883Y008926D01*
X021842Y008951D01*
X021804Y008980D01*
X021767Y009012D01*
X021733Y009046D01*
X021703Y009083D01*
X021675Y009122D01*
X021650Y009164D01*
X021630Y009208D01*
X021612Y009253D01*
X021599Y009299D01*
X021589Y009346D01*
X021583Y009394D01*
X021581Y009442D01*
X030440Y005505D02*
X030442Y005553D01*
X030448Y005601D01*
X030458Y005648D01*
X030471Y005694D01*
X030489Y005739D01*
X030509Y005783D01*
X030534Y005825D01*
X030562Y005864D01*
X030592Y005901D01*
X030626Y005935D01*
X030663Y005967D01*
X030701Y005996D01*
X030742Y006021D01*
X030785Y006043D01*
X030830Y006061D01*
X030876Y006075D01*
X030923Y006086D01*
X030971Y006093D01*
X031019Y006096D01*
X031067Y006095D01*
X031115Y006090D01*
X031163Y006081D01*
X031209Y006069D01*
X031254Y006052D01*
X031298Y006032D01*
X031340Y006009D01*
X031380Y005982D01*
X031418Y005952D01*
X031453Y005919D01*
X031485Y005883D01*
X031515Y005845D01*
X031541Y005804D01*
X031563Y005761D01*
X031583Y005717D01*
X031598Y005672D01*
X031610Y005625D01*
X031618Y005577D01*
X031622Y005529D01*
X031622Y005481D01*
X031618Y005433D01*
X031610Y005385D01*
X031598Y005338D01*
X031583Y005293D01*
X031563Y005249D01*
X031541Y005206D01*
X031515Y005165D01*
X031485Y005127D01*
X031453Y005091D01*
X031418Y005058D01*
X031380Y005028D01*
X031340Y005001D01*
X031298Y004978D01*
X031254Y004958D01*
X031209Y004941D01*
X031163Y004929D01*
X031115Y004920D01*
X031067Y004915D01*
X031019Y004914D01*
X030971Y004917D01*
X030923Y004924D01*
X030876Y004935D01*
X030830Y004949D01*
X030785Y004967D01*
X030742Y004989D01*
X030701Y005014D01*
X030663Y005043D01*
X030626Y005075D01*
X030592Y005109D01*
X030562Y005146D01*
X030534Y005185D01*
X030509Y005227D01*
X030489Y005271D01*
X030471Y005316D01*
X030458Y005362D01*
X030448Y005409D01*
X030442Y005457D01*
X030440Y005505D01*
X039298Y009442D02*
X039300Y009490D01*
X039306Y009538D01*
X039316Y009585D01*
X039329Y009631D01*
X039347Y009676D01*
X039367Y009720D01*
X039392Y009762D01*
X039420Y009801D01*
X039450Y009838D01*
X039484Y009872D01*
X039521Y009904D01*
X039559Y009933D01*
X039600Y009958D01*
X039643Y009980D01*
X039688Y009998D01*
X039734Y010012D01*
X039781Y010023D01*
X039829Y010030D01*
X039877Y010033D01*
X039925Y010032D01*
X039973Y010027D01*
X040021Y010018D01*
X040067Y010006D01*
X040112Y009989D01*
X040156Y009969D01*
X040198Y009946D01*
X040238Y009919D01*
X040276Y009889D01*
X040311Y009856D01*
X040343Y009820D01*
X040373Y009782D01*
X040399Y009741D01*
X040421Y009698D01*
X040441Y009654D01*
X040456Y009609D01*
X040468Y009562D01*
X040476Y009514D01*
X040480Y009466D01*
X040480Y009418D01*
X040476Y009370D01*
X040468Y009322D01*
X040456Y009275D01*
X040441Y009230D01*
X040421Y009186D01*
X040399Y009143D01*
X040373Y009102D01*
X040343Y009064D01*
X040311Y009028D01*
X040276Y008995D01*
X040238Y008965D01*
X040198Y008938D01*
X040156Y008915D01*
X040112Y008895D01*
X040067Y008878D01*
X040021Y008866D01*
X039973Y008857D01*
X039925Y008852D01*
X039877Y008851D01*
X039829Y008854D01*
X039781Y008861D01*
X039734Y008872D01*
X039688Y008886D01*
X039643Y008904D01*
X039600Y008926D01*
X039559Y008951D01*
X039521Y008980D01*
X039484Y009012D01*
X039450Y009046D01*
X039420Y009083D01*
X039392Y009122D01*
X039367Y009164D01*
X039347Y009208D01*
X039329Y009253D01*
X039316Y009299D01*
X039306Y009346D01*
X039300Y009394D01*
X039298Y009442D01*
X039298Y001568D02*
X039300Y001616D01*
X039306Y001664D01*
X039316Y001711D01*
X039329Y001757D01*
X039347Y001802D01*
X039367Y001846D01*
X039392Y001888D01*
X039420Y001927D01*
X039450Y001964D01*
X039484Y001998D01*
X039521Y002030D01*
X039559Y002059D01*
X039600Y002084D01*
X039643Y002106D01*
X039688Y002124D01*
X039734Y002138D01*
X039781Y002149D01*
X039829Y002156D01*
X039877Y002159D01*
X039925Y002158D01*
X039973Y002153D01*
X040021Y002144D01*
X040067Y002132D01*
X040112Y002115D01*
X040156Y002095D01*
X040198Y002072D01*
X040238Y002045D01*
X040276Y002015D01*
X040311Y001982D01*
X040343Y001946D01*
X040373Y001908D01*
X040399Y001867D01*
X040421Y001824D01*
X040441Y001780D01*
X040456Y001735D01*
X040468Y001688D01*
X040476Y001640D01*
X040480Y001592D01*
X040480Y001544D01*
X040476Y001496D01*
X040468Y001448D01*
X040456Y001401D01*
X040441Y001356D01*
X040421Y001312D01*
X040399Y001269D01*
X040373Y001228D01*
X040343Y001190D01*
X040311Y001154D01*
X040276Y001121D01*
X040238Y001091D01*
X040198Y001064D01*
X040156Y001041D01*
X040112Y001021D01*
X040067Y001004D01*
X040021Y000992D01*
X039973Y000983D01*
X039925Y000978D01*
X039877Y000977D01*
X039829Y000980D01*
X039781Y000987D01*
X039734Y000998D01*
X039688Y001012D01*
X039643Y001030D01*
X039600Y001052D01*
X039559Y001077D01*
X039521Y001106D01*
X039484Y001138D01*
X039450Y001172D01*
X039420Y001209D01*
X039392Y001248D01*
X039367Y001290D01*
X039347Y001334D01*
X039329Y001379D01*
X039316Y001425D01*
X039306Y001472D01*
X039300Y001520D01*
X039298Y001568D01*
X021581Y001568D02*
X021583Y001616D01*
X021589Y001664D01*
X021599Y001711D01*
X021612Y001757D01*
X021630Y001802D01*
X021650Y001846D01*
X021675Y001888D01*
X021703Y001927D01*
X021733Y001964D01*
X021767Y001998D01*
X021804Y002030D01*
X021842Y002059D01*
X021883Y002084D01*
X021926Y002106D01*
X021971Y002124D01*
X022017Y002138D01*
X022064Y002149D01*
X022112Y002156D01*
X022160Y002159D01*
X022208Y002158D01*
X022256Y002153D01*
X022304Y002144D01*
X022350Y002132D01*
X022395Y002115D01*
X022439Y002095D01*
X022481Y002072D01*
X022521Y002045D01*
X022559Y002015D01*
X022594Y001982D01*
X022626Y001946D01*
X022656Y001908D01*
X022682Y001867D01*
X022704Y001824D01*
X022724Y001780D01*
X022739Y001735D01*
X022751Y001688D01*
X022759Y001640D01*
X022763Y001592D01*
X022763Y001544D01*
X022759Y001496D01*
X022751Y001448D01*
X022739Y001401D01*
X022724Y001356D01*
X022704Y001312D01*
X022682Y001269D01*
X022656Y001228D01*
X022626Y001190D01*
X022594Y001154D01*
X022559Y001121D01*
X022521Y001091D01*
X022481Y001064D01*
X022439Y001041D01*
X022395Y001021D01*
X022350Y001004D01*
X022304Y000992D01*
X022256Y000983D01*
X022208Y000978D01*
X022160Y000977D01*
X022112Y000980D01*
X022064Y000987D01*
X022017Y000998D01*
X021971Y001012D01*
X021926Y001030D01*
X021883Y001052D01*
X021842Y001077D01*
X021804Y001106D01*
X021767Y001138D01*
X021733Y001172D01*
X021703Y001209D01*
X021675Y001248D01*
X021650Y001290D01*
X021630Y001334D01*
X021612Y001379D01*
X021599Y001425D01*
X021589Y001472D01*
X021583Y001520D01*
X021581Y001568D01*
X019613Y001568D02*
X019615Y001616D01*
X019621Y001664D01*
X019631Y001711D01*
X019644Y001757D01*
X019662Y001802D01*
X019682Y001846D01*
X019707Y001888D01*
X019735Y001927D01*
X019765Y001964D01*
X019799Y001998D01*
X019836Y002030D01*
X019874Y002059D01*
X019915Y002084D01*
X019958Y002106D01*
X020003Y002124D01*
X020049Y002138D01*
X020096Y002149D01*
X020144Y002156D01*
X020192Y002159D01*
X020240Y002158D01*
X020288Y002153D01*
X020336Y002144D01*
X020382Y002132D01*
X020427Y002115D01*
X020471Y002095D01*
X020513Y002072D01*
X020553Y002045D01*
X020591Y002015D01*
X020626Y001982D01*
X020658Y001946D01*
X020688Y001908D01*
X020714Y001867D01*
X020736Y001824D01*
X020756Y001780D01*
X020771Y001735D01*
X020783Y001688D01*
X020791Y001640D01*
X020795Y001592D01*
X020795Y001544D01*
X020791Y001496D01*
X020783Y001448D01*
X020771Y001401D01*
X020756Y001356D01*
X020736Y001312D01*
X020714Y001269D01*
X020688Y001228D01*
X020658Y001190D01*
X020626Y001154D01*
X020591Y001121D01*
X020553Y001091D01*
X020513Y001064D01*
X020471Y001041D01*
X020427Y001021D01*
X020382Y001004D01*
X020336Y000992D01*
X020288Y000983D01*
X020240Y000978D01*
X020192Y000977D01*
X020144Y000980D01*
X020096Y000987D01*
X020049Y000998D01*
X020003Y001012D01*
X019958Y001030D01*
X019915Y001052D01*
X019874Y001077D01*
X019836Y001106D01*
X019799Y001138D01*
X019765Y001172D01*
X019735Y001209D01*
X019707Y001248D01*
X019682Y001290D01*
X019662Y001334D01*
X019644Y001379D01*
X019631Y001425D01*
X019621Y001472D01*
X019615Y001520D01*
X019613Y001568D01*
X001896Y001568D02*
X001898Y001616D01*
X001904Y001664D01*
X001914Y001711D01*
X001927Y001757D01*
X001945Y001802D01*
X001965Y001846D01*
X001990Y001888D01*
X002018Y001927D01*
X002048Y001964D01*
X002082Y001998D01*
X002119Y002030D01*
X002157Y002059D01*
X002198Y002084D01*
X002241Y002106D01*
X002286Y002124D01*
X002332Y002138D01*
X002379Y002149D01*
X002427Y002156D01*
X002475Y002159D01*
X002523Y002158D01*
X002571Y002153D01*
X002619Y002144D01*
X002665Y002132D01*
X002710Y002115D01*
X002754Y002095D01*
X002796Y002072D01*
X002836Y002045D01*
X002874Y002015D01*
X002909Y001982D01*
X002941Y001946D01*
X002971Y001908D01*
X002997Y001867D01*
X003019Y001824D01*
X003039Y001780D01*
X003054Y001735D01*
X003066Y001688D01*
X003074Y001640D01*
X003078Y001592D01*
X003078Y001544D01*
X003074Y001496D01*
X003066Y001448D01*
X003054Y001401D01*
X003039Y001356D01*
X003019Y001312D01*
X002997Y001269D01*
X002971Y001228D01*
X002941Y001190D01*
X002909Y001154D01*
X002874Y001121D01*
X002836Y001091D01*
X002796Y001064D01*
X002754Y001041D01*
X002710Y001021D01*
X002665Y001004D01*
X002619Y000992D01*
X002571Y000983D01*
X002523Y000978D01*
X002475Y000977D01*
X002427Y000980D01*
X002379Y000987D01*
X002332Y000998D01*
X002286Y001012D01*
X002241Y001030D01*
X002198Y001052D01*
X002157Y001077D01*
X002119Y001106D01*
X002082Y001138D01*
X002048Y001172D01*
X002018Y001209D01*
X001990Y001248D01*
X001965Y001290D01*
X001945Y001334D01*
X001927Y001379D01*
X001914Y001425D01*
X001904Y001472D01*
X001898Y001520D01*
X001896Y001568D01*
M02*
