G75*
%MOIN*%
%OFA0B0*%
%FSLAX24Y24*%
%IPPOS*%
%LPD*%
%AMOC8*
5,1,8,0,0,1.08239X$1,22.5*
%
%ADD10C,0.0100*%
%ADD11C,0.0594*%
%ADD12C,0.0400*%
%ADD13C,0.0000*%
%ADD14R,0.0740X0.0740*%
%ADD15C,0.0740*%
%ADD16C,0.0600*%
%ADD17C,0.0160*%
%ADD18OC8,0.0356*%
%ADD19OC8,0.0277*%
%ADD20C,0.0080*%
%ADD21C,0.0240*%
D10*
X001503Y000583D02*
X001503Y010426D01*
X005834Y010426D01*
X005833Y010426D02*
X005835Y010380D01*
X005840Y010334D01*
X005849Y010288D01*
X005862Y010243D01*
X005878Y010200D01*
X005897Y010158D01*
X005920Y010117D01*
X005946Y010079D01*
X005975Y010042D01*
X006006Y010008D01*
X006040Y009977D01*
X006077Y009948D01*
X006115Y009922D01*
X006156Y009899D01*
X006198Y009880D01*
X006241Y009864D01*
X006286Y009851D01*
X006332Y009842D01*
X006378Y009837D01*
X006424Y009835D01*
X006470Y009837D01*
X006516Y009842D01*
X006562Y009851D01*
X006607Y009864D01*
X006650Y009880D01*
X006692Y009899D01*
X006733Y009922D01*
X006771Y009948D01*
X006808Y009977D01*
X006842Y010008D01*
X006873Y010042D01*
X006902Y010079D01*
X006928Y010117D01*
X006951Y010158D01*
X006970Y010200D01*
X006986Y010243D01*
X006999Y010288D01*
X007008Y010334D01*
X007013Y010380D01*
X007015Y010426D01*
X015676Y010426D01*
X015678Y010380D01*
X015683Y010334D01*
X015692Y010288D01*
X015705Y010243D01*
X015721Y010200D01*
X015740Y010158D01*
X015763Y010117D01*
X015789Y010079D01*
X015818Y010042D01*
X015849Y010008D01*
X015883Y009977D01*
X015920Y009948D01*
X015958Y009922D01*
X015999Y009899D01*
X016041Y009880D01*
X016084Y009864D01*
X016129Y009851D01*
X016175Y009842D01*
X016221Y009837D01*
X016267Y009835D01*
X016313Y009837D01*
X016359Y009842D01*
X016405Y009851D01*
X016450Y009864D01*
X016493Y009880D01*
X016535Y009899D01*
X016576Y009922D01*
X016614Y009948D01*
X016651Y009977D01*
X016685Y010008D01*
X016716Y010042D01*
X016745Y010079D01*
X016771Y010117D01*
X016794Y010158D01*
X016813Y010200D01*
X016829Y010243D01*
X016842Y010288D01*
X016851Y010334D01*
X016856Y010380D01*
X016858Y010426D01*
X016857Y010426D02*
X025519Y010426D01*
X025518Y010426D02*
X025520Y010380D01*
X025525Y010334D01*
X025534Y010288D01*
X025547Y010243D01*
X025563Y010200D01*
X025582Y010158D01*
X025605Y010117D01*
X025631Y010079D01*
X025660Y010042D01*
X025691Y010008D01*
X025725Y009977D01*
X025762Y009948D01*
X025800Y009922D01*
X025841Y009899D01*
X025883Y009880D01*
X025926Y009864D01*
X025971Y009851D01*
X026017Y009842D01*
X026063Y009837D01*
X026109Y009835D01*
X026155Y009837D01*
X026201Y009842D01*
X026247Y009851D01*
X026292Y009864D01*
X026335Y009880D01*
X026377Y009899D01*
X026418Y009922D01*
X026456Y009948D01*
X026493Y009977D01*
X026527Y010008D01*
X026558Y010042D01*
X026587Y010079D01*
X026613Y010117D01*
X026636Y010158D01*
X026655Y010200D01*
X026671Y010243D01*
X026684Y010288D01*
X026693Y010334D01*
X026698Y010380D01*
X026700Y010426D01*
X035361Y010426D01*
X035363Y010380D01*
X035368Y010334D01*
X035377Y010288D01*
X035390Y010243D01*
X035406Y010200D01*
X035425Y010158D01*
X035448Y010117D01*
X035474Y010079D01*
X035503Y010042D01*
X035534Y010008D01*
X035568Y009977D01*
X035605Y009948D01*
X035643Y009922D01*
X035684Y009899D01*
X035726Y009880D01*
X035769Y009864D01*
X035814Y009851D01*
X035860Y009842D01*
X035906Y009837D01*
X035952Y009835D01*
X035998Y009837D01*
X036044Y009842D01*
X036090Y009851D01*
X036135Y009864D01*
X036178Y009880D01*
X036220Y009899D01*
X036261Y009922D01*
X036299Y009948D01*
X036336Y009977D01*
X036370Y010008D01*
X036401Y010042D01*
X036430Y010079D01*
X036456Y010117D01*
X036479Y010158D01*
X036498Y010200D01*
X036514Y010243D01*
X036527Y010288D01*
X036536Y010334D01*
X036541Y010380D01*
X036543Y010426D01*
X036542Y010426D02*
X040873Y010426D01*
X040873Y000583D01*
X036542Y000583D01*
X036543Y000583D02*
X036541Y000629D01*
X036536Y000675D01*
X036527Y000721D01*
X036514Y000766D01*
X036498Y000809D01*
X036479Y000851D01*
X036456Y000892D01*
X036430Y000930D01*
X036401Y000967D01*
X036370Y001001D01*
X036336Y001032D01*
X036299Y001061D01*
X036261Y001087D01*
X036220Y001110D01*
X036178Y001129D01*
X036135Y001145D01*
X036090Y001158D01*
X036044Y001167D01*
X035998Y001172D01*
X035952Y001174D01*
X035906Y001172D01*
X035860Y001167D01*
X035814Y001158D01*
X035769Y001145D01*
X035726Y001129D01*
X035684Y001110D01*
X035643Y001087D01*
X035605Y001061D01*
X035568Y001032D01*
X035534Y001001D01*
X035503Y000967D01*
X035474Y000930D01*
X035448Y000892D01*
X035425Y000851D01*
X035406Y000809D01*
X035390Y000766D01*
X035377Y000721D01*
X035368Y000675D01*
X035363Y000629D01*
X035361Y000583D01*
X026700Y000583D01*
X026698Y000629D01*
X026693Y000675D01*
X026684Y000721D01*
X026671Y000766D01*
X026655Y000809D01*
X026636Y000851D01*
X026613Y000892D01*
X026587Y000930D01*
X026558Y000967D01*
X026527Y001001D01*
X026493Y001032D01*
X026456Y001061D01*
X026418Y001087D01*
X026377Y001110D01*
X026335Y001129D01*
X026292Y001145D01*
X026247Y001158D01*
X026201Y001167D01*
X026155Y001172D01*
X026109Y001174D01*
X026063Y001172D01*
X026017Y001167D01*
X025971Y001158D01*
X025926Y001145D01*
X025883Y001129D01*
X025841Y001110D01*
X025800Y001087D01*
X025762Y001061D01*
X025725Y001032D01*
X025691Y001001D01*
X025660Y000967D01*
X025631Y000930D01*
X025605Y000892D01*
X025582Y000851D01*
X025563Y000809D01*
X025547Y000766D01*
X025534Y000721D01*
X025525Y000675D01*
X025520Y000629D01*
X025518Y000583D01*
X025519Y000583D02*
X016857Y000583D01*
X016858Y000583D02*
X016856Y000629D01*
X016851Y000675D01*
X016842Y000721D01*
X016829Y000766D01*
X016813Y000809D01*
X016794Y000851D01*
X016771Y000892D01*
X016745Y000930D01*
X016716Y000967D01*
X016685Y001001D01*
X016651Y001032D01*
X016614Y001061D01*
X016576Y001087D01*
X016535Y001110D01*
X016493Y001129D01*
X016450Y001145D01*
X016405Y001158D01*
X016359Y001167D01*
X016313Y001172D01*
X016267Y001174D01*
X016221Y001172D01*
X016175Y001167D01*
X016129Y001158D01*
X016084Y001145D01*
X016041Y001129D01*
X015999Y001110D01*
X015958Y001087D01*
X015920Y001061D01*
X015883Y001032D01*
X015849Y001001D01*
X015818Y000967D01*
X015789Y000930D01*
X015763Y000892D01*
X015740Y000851D01*
X015721Y000809D01*
X015705Y000766D01*
X015692Y000721D01*
X015683Y000675D01*
X015678Y000629D01*
X015676Y000583D01*
X007015Y000583D01*
X007013Y000629D01*
X007008Y000675D01*
X006999Y000721D01*
X006986Y000766D01*
X006970Y000809D01*
X006951Y000851D01*
X006928Y000892D01*
X006902Y000930D01*
X006873Y000967D01*
X006842Y001001D01*
X006808Y001032D01*
X006771Y001061D01*
X006733Y001087D01*
X006692Y001110D01*
X006650Y001129D01*
X006607Y001145D01*
X006562Y001158D01*
X006516Y001167D01*
X006470Y001172D01*
X006424Y001174D01*
X006378Y001172D01*
X006332Y001167D01*
X006286Y001158D01*
X006241Y001145D01*
X006198Y001129D01*
X006156Y001110D01*
X006115Y001087D01*
X006077Y001061D01*
X006040Y001032D01*
X006006Y001001D01*
X005975Y000967D01*
X005946Y000930D01*
X005920Y000892D01*
X005897Y000851D01*
X005878Y000809D01*
X005862Y000766D01*
X005849Y000721D01*
X005840Y000675D01*
X005835Y000629D01*
X005833Y000583D01*
X005834Y000583D02*
X001503Y000583D01*
X006338Y002576D02*
X006310Y003453D01*
X006932Y003556D02*
X007223Y002717D01*
X006704Y002812D02*
X006570Y003705D01*
X006034Y003749D02*
X005857Y002843D01*
X005405Y002824D02*
X005696Y003583D01*
X005475Y003969D02*
X004995Y003146D01*
X004637Y003221D02*
X005097Y003906D01*
X005046Y004347D02*
X004452Y003725D01*
X003995Y003906D02*
X004676Y004410D01*
X004731Y004875D02*
X003920Y004473D01*
X003582Y004788D02*
X004436Y005064D01*
X004613Y005335D02*
X003719Y005272D01*
X003519Y005599D02*
X004385Y005611D01*
X004688Y005843D02*
X003743Y005969D01*
X003625Y006387D02*
X004499Y006221D01*
X004857Y006355D02*
X003983Y006745D01*
X004003Y007127D02*
X004794Y006705D01*
X005172Y006788D02*
X004452Y007355D01*
X004645Y007831D02*
X005255Y007135D01*
X005645Y007115D02*
X005109Y007871D01*
X005507Y008272D02*
X005834Y007481D01*
X006192Y007324D02*
X005991Y008178D01*
X006424Y008442D02*
X006424Y007619D01*
X006944Y007544D02*
X007275Y008304D01*
X006814Y008241D02*
X006664Y007304D01*
X007109Y007198D02*
X007546Y007977D01*
X008003Y007946D02*
X007444Y007221D01*
X007570Y006902D02*
X008172Y007568D01*
X008590Y007473D02*
X007999Y006883D01*
X007940Y006442D02*
X008696Y006946D01*
X009117Y006701D02*
X008306Y006292D01*
X008180Y005898D02*
X009097Y006190D01*
X009369Y005705D02*
X008464Y005650D01*
X008180Y005264D02*
X009086Y005209D01*
X009243Y004725D02*
X008349Y004926D01*
X008003Y004686D02*
X008790Y004316D01*
X008814Y003831D02*
X008066Y004272D01*
X007633Y004178D02*
X008361Y003568D01*
X008034Y003076D02*
X007511Y003784D01*
X007109Y003843D02*
X007499Y003020D01*
X013424Y004788D02*
X014279Y005064D01*
X014574Y004875D02*
X013763Y004473D01*
X013838Y003906D02*
X014519Y004410D01*
X014889Y004347D02*
X014294Y003725D01*
X014479Y003221D02*
X014940Y003906D01*
X015318Y003969D02*
X014838Y003146D01*
X015247Y002824D02*
X015538Y003583D01*
X015877Y003749D02*
X015700Y002843D01*
X016180Y002576D02*
X016153Y003453D01*
X016412Y003705D02*
X016546Y002812D01*
X017066Y002717D02*
X016775Y003556D01*
X016952Y003843D02*
X017342Y003020D01*
X017877Y003076D02*
X017353Y003784D01*
X017475Y004178D02*
X018204Y003568D01*
X018656Y003831D02*
X017908Y004272D01*
X017845Y004686D02*
X018633Y004316D01*
X019086Y004725D02*
X018192Y004926D01*
X018023Y005264D02*
X018928Y005209D01*
X019212Y005705D02*
X018306Y005650D01*
X018023Y005898D02*
X018940Y006190D01*
X018960Y006701D02*
X018149Y006292D01*
X017782Y006442D02*
X018538Y006946D01*
X018432Y007473D02*
X017842Y006883D01*
X017412Y006902D02*
X018015Y007568D01*
X017845Y007946D02*
X017286Y007221D01*
X016952Y007198D02*
X017389Y007977D01*
X016656Y008241D02*
X016507Y007304D01*
X016034Y007324D02*
X015834Y008178D01*
X015349Y008272D02*
X015676Y007481D01*
X016267Y007619D02*
X016267Y008442D01*
X017117Y008304D02*
X016786Y007544D01*
X015487Y007115D02*
X014952Y007871D01*
X014487Y007831D02*
X015097Y007135D01*
X015015Y006788D02*
X014294Y007355D01*
X013845Y007127D02*
X014637Y006705D01*
X014700Y006355D02*
X013826Y006745D01*
X013468Y006387D02*
X014342Y006221D01*
X014531Y005843D02*
X013586Y005969D01*
X013361Y005599D02*
X014227Y005611D01*
X014456Y005335D02*
X013562Y005272D01*
X014491Y005509D02*
X014493Y005593D01*
X014499Y005676D01*
X014509Y005759D01*
X014523Y005842D01*
X014540Y005924D01*
X014562Y006005D01*
X014587Y006084D01*
X014616Y006163D01*
X014649Y006240D01*
X014685Y006315D01*
X014725Y006389D01*
X014768Y006461D01*
X014815Y006530D01*
X014865Y006597D01*
X014918Y006662D01*
X014974Y006724D01*
X015032Y006784D01*
X015094Y006841D01*
X015158Y006894D01*
X015225Y006945D01*
X015294Y006992D01*
X015365Y007037D01*
X015438Y007077D01*
X015513Y007114D01*
X015590Y007148D01*
X015668Y007178D01*
X015747Y007204D01*
X015828Y007227D01*
X015910Y007245D01*
X015992Y007260D01*
X016075Y007271D01*
X016158Y007278D01*
X016242Y007281D01*
X016326Y007280D01*
X016409Y007275D01*
X016493Y007266D01*
X016575Y007253D01*
X016657Y007237D01*
X016738Y007216D01*
X016819Y007192D01*
X016897Y007164D01*
X016975Y007132D01*
X017051Y007096D01*
X017125Y007057D01*
X017197Y007015D01*
X017267Y006969D01*
X017335Y006920D01*
X017400Y006868D01*
X017463Y006813D01*
X017523Y006755D01*
X017581Y006694D01*
X017635Y006630D01*
X017687Y006564D01*
X017735Y006496D01*
X017780Y006425D01*
X017821Y006352D01*
X017860Y006278D01*
X017894Y006202D01*
X017925Y006124D01*
X017952Y006045D01*
X017976Y005964D01*
X017995Y005883D01*
X018011Y005801D01*
X018023Y005718D01*
X018031Y005634D01*
X018035Y005551D01*
X018035Y005467D01*
X018031Y005384D01*
X018023Y005300D01*
X018011Y005217D01*
X017995Y005135D01*
X017976Y005054D01*
X017952Y004973D01*
X017925Y004894D01*
X017894Y004816D01*
X017860Y004740D01*
X017821Y004666D01*
X017780Y004593D01*
X017735Y004522D01*
X017687Y004454D01*
X017635Y004388D01*
X017581Y004324D01*
X017523Y004263D01*
X017463Y004205D01*
X017400Y004150D01*
X017335Y004098D01*
X017267Y004049D01*
X017197Y004003D01*
X017125Y003961D01*
X017051Y003922D01*
X016975Y003886D01*
X016897Y003854D01*
X016819Y003826D01*
X016738Y003802D01*
X016657Y003781D01*
X016575Y003765D01*
X016493Y003752D01*
X016409Y003743D01*
X016326Y003738D01*
X016242Y003737D01*
X016158Y003740D01*
X016075Y003747D01*
X015992Y003758D01*
X015910Y003773D01*
X015828Y003791D01*
X015747Y003814D01*
X015668Y003840D01*
X015590Y003870D01*
X015513Y003904D01*
X015438Y003941D01*
X015365Y003981D01*
X015294Y004026D01*
X015225Y004073D01*
X015158Y004124D01*
X015094Y004177D01*
X015032Y004234D01*
X014974Y004294D01*
X014918Y004356D01*
X014865Y004421D01*
X014815Y004488D01*
X014768Y004557D01*
X014725Y004629D01*
X014685Y004703D01*
X014649Y004778D01*
X014616Y004855D01*
X014587Y004934D01*
X014562Y005013D01*
X014540Y005094D01*
X014523Y005176D01*
X014509Y005259D01*
X014499Y005342D01*
X014493Y005425D01*
X014491Y005509D01*
X013314Y005505D02*
X013316Y005613D01*
X013322Y005722D01*
X013332Y005830D01*
X013346Y005937D01*
X013364Y006044D01*
X013385Y006151D01*
X013411Y006256D01*
X013441Y006361D01*
X013474Y006464D01*
X013511Y006566D01*
X013552Y006666D01*
X013596Y006765D01*
X013645Y006863D01*
X013696Y006958D01*
X013751Y007051D01*
X013810Y007143D01*
X013872Y007232D01*
X013937Y007319D01*
X014005Y007403D01*
X014076Y007485D01*
X014150Y007564D01*
X014227Y007640D01*
X014307Y007714D01*
X014390Y007784D01*
X014475Y007852D01*
X014562Y007916D01*
X014652Y007977D01*
X014744Y008035D01*
X014838Y008089D01*
X014934Y008140D01*
X015031Y008187D01*
X015131Y008231D01*
X015232Y008271D01*
X015334Y008307D01*
X015437Y008339D01*
X015542Y008368D01*
X015648Y008392D01*
X015754Y008413D01*
X015861Y008430D01*
X015969Y008443D01*
X016077Y008452D01*
X016186Y008457D01*
X016294Y008458D01*
X016403Y008455D01*
X016511Y008448D01*
X016619Y008437D01*
X016726Y008422D01*
X016833Y008403D01*
X016939Y008380D01*
X017044Y008354D01*
X017149Y008323D01*
X017251Y008289D01*
X017353Y008251D01*
X017453Y008209D01*
X017552Y008164D01*
X017649Y008115D01*
X017743Y008062D01*
X017836Y008006D01*
X017927Y007947D01*
X018016Y007884D01*
X018102Y007819D01*
X018186Y007750D01*
X018267Y007678D01*
X018345Y007603D01*
X018421Y007525D01*
X018494Y007444D01*
X018564Y007361D01*
X018630Y007276D01*
X018694Y007188D01*
X018754Y007097D01*
X018811Y007005D01*
X018864Y006910D01*
X018914Y006814D01*
X018960Y006716D01*
X019003Y006616D01*
X019042Y006515D01*
X019077Y006412D01*
X019109Y006309D01*
X019136Y006204D01*
X019160Y006098D01*
X019180Y005991D01*
X019196Y005884D01*
X019208Y005776D01*
X019216Y005668D01*
X019220Y005559D01*
X019220Y005451D01*
X019216Y005342D01*
X019208Y005234D01*
X019196Y005126D01*
X019180Y005019D01*
X019160Y004912D01*
X019136Y004806D01*
X019109Y004701D01*
X019077Y004598D01*
X019042Y004495D01*
X019003Y004394D01*
X018960Y004294D01*
X018914Y004196D01*
X018864Y004100D01*
X018811Y004005D01*
X018754Y003913D01*
X018694Y003822D01*
X018630Y003734D01*
X018564Y003649D01*
X018494Y003566D01*
X018421Y003485D01*
X018345Y003407D01*
X018267Y003332D01*
X018186Y003260D01*
X018102Y003191D01*
X018016Y003126D01*
X017927Y003063D01*
X017836Y003004D01*
X017744Y002948D01*
X017649Y002895D01*
X017552Y002846D01*
X017453Y002801D01*
X017353Y002759D01*
X017251Y002721D01*
X017149Y002687D01*
X017044Y002656D01*
X016939Y002630D01*
X016833Y002607D01*
X016726Y002588D01*
X016619Y002573D01*
X016511Y002562D01*
X016403Y002555D01*
X016294Y002552D01*
X016186Y002553D01*
X016077Y002558D01*
X015969Y002567D01*
X015861Y002580D01*
X015754Y002597D01*
X015648Y002618D01*
X015542Y002642D01*
X015437Y002671D01*
X015334Y002703D01*
X015232Y002739D01*
X015131Y002779D01*
X015031Y002823D01*
X014934Y002870D01*
X014838Y002921D01*
X014744Y002975D01*
X014652Y003033D01*
X014562Y003094D01*
X014475Y003158D01*
X014390Y003226D01*
X014307Y003296D01*
X014227Y003370D01*
X014150Y003446D01*
X014076Y003525D01*
X014005Y003607D01*
X013937Y003691D01*
X013872Y003778D01*
X013810Y003867D01*
X013751Y003959D01*
X013696Y004052D01*
X013645Y004147D01*
X013596Y004245D01*
X013552Y004344D01*
X013511Y004444D01*
X013474Y004546D01*
X013441Y004649D01*
X013411Y004754D01*
X013385Y004859D01*
X013364Y004966D01*
X013346Y005073D01*
X013332Y005180D01*
X013322Y005288D01*
X013316Y005397D01*
X013314Y005505D01*
X003471Y005505D02*
X003473Y005613D01*
X003479Y005722D01*
X003489Y005830D01*
X003503Y005937D01*
X003521Y006044D01*
X003542Y006151D01*
X003568Y006256D01*
X003598Y006361D01*
X003631Y006464D01*
X003668Y006566D01*
X003709Y006666D01*
X003753Y006765D01*
X003802Y006863D01*
X003853Y006958D01*
X003908Y007051D01*
X003967Y007143D01*
X004029Y007232D01*
X004094Y007319D01*
X004162Y007403D01*
X004233Y007485D01*
X004307Y007564D01*
X004384Y007640D01*
X004464Y007714D01*
X004547Y007784D01*
X004632Y007852D01*
X004719Y007916D01*
X004809Y007977D01*
X004901Y008035D01*
X004995Y008089D01*
X005091Y008140D01*
X005188Y008187D01*
X005288Y008231D01*
X005389Y008271D01*
X005491Y008307D01*
X005594Y008339D01*
X005699Y008368D01*
X005805Y008392D01*
X005911Y008413D01*
X006018Y008430D01*
X006126Y008443D01*
X006234Y008452D01*
X006343Y008457D01*
X006451Y008458D01*
X006560Y008455D01*
X006668Y008448D01*
X006776Y008437D01*
X006883Y008422D01*
X006990Y008403D01*
X007096Y008380D01*
X007201Y008354D01*
X007306Y008323D01*
X007408Y008289D01*
X007510Y008251D01*
X007610Y008209D01*
X007709Y008164D01*
X007806Y008115D01*
X007900Y008062D01*
X007993Y008006D01*
X008084Y007947D01*
X008173Y007884D01*
X008259Y007819D01*
X008343Y007750D01*
X008424Y007678D01*
X008502Y007603D01*
X008578Y007525D01*
X008651Y007444D01*
X008721Y007361D01*
X008787Y007276D01*
X008851Y007188D01*
X008911Y007097D01*
X008968Y007005D01*
X009021Y006910D01*
X009071Y006814D01*
X009117Y006716D01*
X009160Y006616D01*
X009199Y006515D01*
X009234Y006412D01*
X009266Y006309D01*
X009293Y006204D01*
X009317Y006098D01*
X009337Y005991D01*
X009353Y005884D01*
X009365Y005776D01*
X009373Y005668D01*
X009377Y005559D01*
X009377Y005451D01*
X009373Y005342D01*
X009365Y005234D01*
X009353Y005126D01*
X009337Y005019D01*
X009317Y004912D01*
X009293Y004806D01*
X009266Y004701D01*
X009234Y004598D01*
X009199Y004495D01*
X009160Y004394D01*
X009117Y004294D01*
X009071Y004196D01*
X009021Y004100D01*
X008968Y004005D01*
X008911Y003913D01*
X008851Y003822D01*
X008787Y003734D01*
X008721Y003649D01*
X008651Y003566D01*
X008578Y003485D01*
X008502Y003407D01*
X008424Y003332D01*
X008343Y003260D01*
X008259Y003191D01*
X008173Y003126D01*
X008084Y003063D01*
X007993Y003004D01*
X007901Y002948D01*
X007806Y002895D01*
X007709Y002846D01*
X007610Y002801D01*
X007510Y002759D01*
X007408Y002721D01*
X007306Y002687D01*
X007201Y002656D01*
X007096Y002630D01*
X006990Y002607D01*
X006883Y002588D01*
X006776Y002573D01*
X006668Y002562D01*
X006560Y002555D01*
X006451Y002552D01*
X006343Y002553D01*
X006234Y002558D01*
X006126Y002567D01*
X006018Y002580D01*
X005911Y002597D01*
X005805Y002618D01*
X005699Y002642D01*
X005594Y002671D01*
X005491Y002703D01*
X005389Y002739D01*
X005288Y002779D01*
X005188Y002823D01*
X005091Y002870D01*
X004995Y002921D01*
X004901Y002975D01*
X004809Y003033D01*
X004719Y003094D01*
X004632Y003158D01*
X004547Y003226D01*
X004464Y003296D01*
X004384Y003370D01*
X004307Y003446D01*
X004233Y003525D01*
X004162Y003607D01*
X004094Y003691D01*
X004029Y003778D01*
X003967Y003867D01*
X003908Y003959D01*
X003853Y004052D01*
X003802Y004147D01*
X003753Y004245D01*
X003709Y004344D01*
X003668Y004444D01*
X003631Y004546D01*
X003598Y004649D01*
X003568Y004754D01*
X003542Y004859D01*
X003521Y004966D01*
X003503Y005073D01*
X003489Y005180D01*
X003479Y005288D01*
X003473Y005397D01*
X003471Y005505D01*
X004648Y005509D02*
X004650Y005593D01*
X004656Y005676D01*
X004666Y005759D01*
X004680Y005842D01*
X004697Y005924D01*
X004719Y006005D01*
X004744Y006084D01*
X004773Y006163D01*
X004806Y006240D01*
X004842Y006315D01*
X004882Y006389D01*
X004925Y006461D01*
X004972Y006530D01*
X005022Y006597D01*
X005075Y006662D01*
X005131Y006724D01*
X005189Y006784D01*
X005251Y006841D01*
X005315Y006894D01*
X005382Y006945D01*
X005451Y006992D01*
X005522Y007037D01*
X005595Y007077D01*
X005670Y007114D01*
X005747Y007148D01*
X005825Y007178D01*
X005904Y007204D01*
X005985Y007227D01*
X006067Y007245D01*
X006149Y007260D01*
X006232Y007271D01*
X006315Y007278D01*
X006399Y007281D01*
X006483Y007280D01*
X006566Y007275D01*
X006650Y007266D01*
X006732Y007253D01*
X006814Y007237D01*
X006895Y007216D01*
X006976Y007192D01*
X007054Y007164D01*
X007132Y007132D01*
X007208Y007096D01*
X007282Y007057D01*
X007354Y007015D01*
X007424Y006969D01*
X007492Y006920D01*
X007557Y006868D01*
X007620Y006813D01*
X007680Y006755D01*
X007738Y006694D01*
X007792Y006630D01*
X007844Y006564D01*
X007892Y006496D01*
X007937Y006425D01*
X007978Y006352D01*
X008017Y006278D01*
X008051Y006202D01*
X008082Y006124D01*
X008109Y006045D01*
X008133Y005964D01*
X008152Y005883D01*
X008168Y005801D01*
X008180Y005718D01*
X008188Y005634D01*
X008192Y005551D01*
X008192Y005467D01*
X008188Y005384D01*
X008180Y005300D01*
X008168Y005217D01*
X008152Y005135D01*
X008133Y005054D01*
X008109Y004973D01*
X008082Y004894D01*
X008051Y004816D01*
X008017Y004740D01*
X007978Y004666D01*
X007937Y004593D01*
X007892Y004522D01*
X007844Y004454D01*
X007792Y004388D01*
X007738Y004324D01*
X007680Y004263D01*
X007620Y004205D01*
X007557Y004150D01*
X007492Y004098D01*
X007424Y004049D01*
X007354Y004003D01*
X007282Y003961D01*
X007208Y003922D01*
X007132Y003886D01*
X007054Y003854D01*
X006976Y003826D01*
X006895Y003802D01*
X006814Y003781D01*
X006732Y003765D01*
X006650Y003752D01*
X006566Y003743D01*
X006483Y003738D01*
X006399Y003737D01*
X006315Y003740D01*
X006232Y003747D01*
X006149Y003758D01*
X006067Y003773D01*
X005985Y003791D01*
X005904Y003814D01*
X005825Y003840D01*
X005747Y003870D01*
X005670Y003904D01*
X005595Y003941D01*
X005522Y003981D01*
X005451Y004026D01*
X005382Y004073D01*
X005315Y004124D01*
X005251Y004177D01*
X005189Y004234D01*
X005131Y004294D01*
X005075Y004356D01*
X005022Y004421D01*
X004972Y004488D01*
X004925Y004557D01*
X004882Y004629D01*
X004842Y004703D01*
X004806Y004778D01*
X004773Y004855D01*
X004744Y004934D01*
X004719Y005013D01*
X004697Y005094D01*
X004680Y005176D01*
X004666Y005259D01*
X004656Y005342D01*
X004650Y005425D01*
X004648Y005509D01*
X023204Y005599D02*
X024070Y005611D01*
X024373Y005843D02*
X023428Y005969D01*
X023310Y006387D02*
X024184Y006221D01*
X024542Y006355D02*
X023668Y006745D01*
X023688Y007127D02*
X024479Y006705D01*
X024857Y006788D02*
X024137Y007355D01*
X024330Y007831D02*
X024940Y007135D01*
X025330Y007115D02*
X024794Y007871D01*
X025192Y008272D02*
X025519Y007481D01*
X025877Y007324D02*
X025676Y008178D01*
X026109Y008442D02*
X026109Y007619D01*
X026349Y007304D02*
X026499Y008241D01*
X026960Y008304D02*
X026629Y007544D01*
X027255Y006902D02*
X027857Y007568D01*
X028275Y007473D02*
X027684Y006883D01*
X027625Y006442D02*
X028381Y006946D01*
X028802Y006701D02*
X027991Y006292D01*
X027865Y005898D02*
X028782Y006190D01*
X029054Y005705D02*
X028149Y005650D01*
X027865Y005264D02*
X028771Y005209D01*
X028928Y004725D02*
X028034Y004926D01*
X027688Y004686D02*
X028475Y004316D01*
X028499Y003831D02*
X027751Y004272D01*
X027318Y004178D02*
X028046Y003568D01*
X027719Y003076D02*
X027196Y003784D01*
X026794Y003843D02*
X027184Y003020D01*
X026908Y002717D02*
X026617Y003556D01*
X026255Y003705D02*
X026389Y002812D01*
X026023Y002576D02*
X025995Y003453D01*
X025381Y003583D02*
X025090Y002824D01*
X025542Y002843D02*
X025719Y003749D01*
X025160Y003969D02*
X024680Y003146D01*
X024322Y003221D02*
X024782Y003906D01*
X024731Y004347D02*
X024137Y003725D01*
X023680Y003906D02*
X024361Y004410D01*
X024416Y004875D02*
X023605Y004473D01*
X023267Y004788D02*
X024121Y005064D01*
X024298Y005335D02*
X023405Y005272D01*
X024333Y005509D02*
X024335Y005593D01*
X024341Y005676D01*
X024351Y005759D01*
X024365Y005842D01*
X024382Y005924D01*
X024404Y006005D01*
X024429Y006084D01*
X024458Y006163D01*
X024491Y006240D01*
X024527Y006315D01*
X024567Y006389D01*
X024610Y006461D01*
X024657Y006530D01*
X024707Y006597D01*
X024760Y006662D01*
X024816Y006724D01*
X024874Y006784D01*
X024936Y006841D01*
X025000Y006894D01*
X025067Y006945D01*
X025136Y006992D01*
X025207Y007037D01*
X025280Y007077D01*
X025355Y007114D01*
X025432Y007148D01*
X025510Y007178D01*
X025589Y007204D01*
X025670Y007227D01*
X025752Y007245D01*
X025834Y007260D01*
X025917Y007271D01*
X026000Y007278D01*
X026084Y007281D01*
X026168Y007280D01*
X026251Y007275D01*
X026335Y007266D01*
X026417Y007253D01*
X026499Y007237D01*
X026580Y007216D01*
X026661Y007192D01*
X026739Y007164D01*
X026817Y007132D01*
X026893Y007096D01*
X026967Y007057D01*
X027039Y007015D01*
X027109Y006969D01*
X027177Y006920D01*
X027242Y006868D01*
X027305Y006813D01*
X027365Y006755D01*
X027423Y006694D01*
X027477Y006630D01*
X027529Y006564D01*
X027577Y006496D01*
X027622Y006425D01*
X027663Y006352D01*
X027702Y006278D01*
X027736Y006202D01*
X027767Y006124D01*
X027794Y006045D01*
X027818Y005964D01*
X027837Y005883D01*
X027853Y005801D01*
X027865Y005718D01*
X027873Y005634D01*
X027877Y005551D01*
X027877Y005467D01*
X027873Y005384D01*
X027865Y005300D01*
X027853Y005217D01*
X027837Y005135D01*
X027818Y005054D01*
X027794Y004973D01*
X027767Y004894D01*
X027736Y004816D01*
X027702Y004740D01*
X027663Y004666D01*
X027622Y004593D01*
X027577Y004522D01*
X027529Y004454D01*
X027477Y004388D01*
X027423Y004324D01*
X027365Y004263D01*
X027305Y004205D01*
X027242Y004150D01*
X027177Y004098D01*
X027109Y004049D01*
X027039Y004003D01*
X026967Y003961D01*
X026893Y003922D01*
X026817Y003886D01*
X026739Y003854D01*
X026661Y003826D01*
X026580Y003802D01*
X026499Y003781D01*
X026417Y003765D01*
X026335Y003752D01*
X026251Y003743D01*
X026168Y003738D01*
X026084Y003737D01*
X026000Y003740D01*
X025917Y003747D01*
X025834Y003758D01*
X025752Y003773D01*
X025670Y003791D01*
X025589Y003814D01*
X025510Y003840D01*
X025432Y003870D01*
X025355Y003904D01*
X025280Y003941D01*
X025207Y003981D01*
X025136Y004026D01*
X025067Y004073D01*
X025000Y004124D01*
X024936Y004177D01*
X024874Y004234D01*
X024816Y004294D01*
X024760Y004356D01*
X024707Y004421D01*
X024657Y004488D01*
X024610Y004557D01*
X024567Y004629D01*
X024527Y004703D01*
X024491Y004778D01*
X024458Y004855D01*
X024429Y004934D01*
X024404Y005013D01*
X024382Y005094D01*
X024365Y005176D01*
X024351Y005259D01*
X024341Y005342D01*
X024335Y005425D01*
X024333Y005509D01*
X023156Y005505D02*
X023158Y005613D01*
X023164Y005722D01*
X023174Y005830D01*
X023188Y005937D01*
X023206Y006044D01*
X023227Y006151D01*
X023253Y006256D01*
X023283Y006361D01*
X023316Y006464D01*
X023353Y006566D01*
X023394Y006666D01*
X023438Y006765D01*
X023487Y006863D01*
X023538Y006958D01*
X023593Y007051D01*
X023652Y007143D01*
X023714Y007232D01*
X023779Y007319D01*
X023847Y007403D01*
X023918Y007485D01*
X023992Y007564D01*
X024069Y007640D01*
X024149Y007714D01*
X024232Y007784D01*
X024317Y007852D01*
X024404Y007916D01*
X024494Y007977D01*
X024586Y008035D01*
X024680Y008089D01*
X024776Y008140D01*
X024873Y008187D01*
X024973Y008231D01*
X025074Y008271D01*
X025176Y008307D01*
X025279Y008339D01*
X025384Y008368D01*
X025490Y008392D01*
X025596Y008413D01*
X025703Y008430D01*
X025811Y008443D01*
X025919Y008452D01*
X026028Y008457D01*
X026136Y008458D01*
X026245Y008455D01*
X026353Y008448D01*
X026461Y008437D01*
X026568Y008422D01*
X026675Y008403D01*
X026781Y008380D01*
X026886Y008354D01*
X026991Y008323D01*
X027093Y008289D01*
X027195Y008251D01*
X027295Y008209D01*
X027394Y008164D01*
X027491Y008115D01*
X027585Y008062D01*
X027678Y008006D01*
X027769Y007947D01*
X027858Y007884D01*
X027944Y007819D01*
X028028Y007750D01*
X028109Y007678D01*
X028187Y007603D01*
X028263Y007525D01*
X028336Y007444D01*
X028406Y007361D01*
X028472Y007276D01*
X028536Y007188D01*
X028596Y007097D01*
X028653Y007005D01*
X028706Y006910D01*
X028756Y006814D01*
X028802Y006716D01*
X028845Y006616D01*
X028884Y006515D01*
X028919Y006412D01*
X028951Y006309D01*
X028978Y006204D01*
X029002Y006098D01*
X029022Y005991D01*
X029038Y005884D01*
X029050Y005776D01*
X029058Y005668D01*
X029062Y005559D01*
X029062Y005451D01*
X029058Y005342D01*
X029050Y005234D01*
X029038Y005126D01*
X029022Y005019D01*
X029002Y004912D01*
X028978Y004806D01*
X028951Y004701D01*
X028919Y004598D01*
X028884Y004495D01*
X028845Y004394D01*
X028802Y004294D01*
X028756Y004196D01*
X028706Y004100D01*
X028653Y004005D01*
X028596Y003913D01*
X028536Y003822D01*
X028472Y003734D01*
X028406Y003649D01*
X028336Y003566D01*
X028263Y003485D01*
X028187Y003407D01*
X028109Y003332D01*
X028028Y003260D01*
X027944Y003191D01*
X027858Y003126D01*
X027769Y003063D01*
X027678Y003004D01*
X027586Y002948D01*
X027491Y002895D01*
X027394Y002846D01*
X027295Y002801D01*
X027195Y002759D01*
X027093Y002721D01*
X026991Y002687D01*
X026886Y002656D01*
X026781Y002630D01*
X026675Y002607D01*
X026568Y002588D01*
X026461Y002573D01*
X026353Y002562D01*
X026245Y002555D01*
X026136Y002552D01*
X026028Y002553D01*
X025919Y002558D01*
X025811Y002567D01*
X025703Y002580D01*
X025596Y002597D01*
X025490Y002618D01*
X025384Y002642D01*
X025279Y002671D01*
X025176Y002703D01*
X025074Y002739D01*
X024973Y002779D01*
X024873Y002823D01*
X024776Y002870D01*
X024680Y002921D01*
X024586Y002975D01*
X024494Y003033D01*
X024404Y003094D01*
X024317Y003158D01*
X024232Y003226D01*
X024149Y003296D01*
X024069Y003370D01*
X023992Y003446D01*
X023918Y003525D01*
X023847Y003607D01*
X023779Y003691D01*
X023714Y003778D01*
X023652Y003867D01*
X023593Y003959D01*
X023538Y004052D01*
X023487Y004147D01*
X023438Y004245D01*
X023394Y004344D01*
X023353Y004444D01*
X023316Y004546D01*
X023283Y004649D01*
X023253Y004754D01*
X023227Y004859D01*
X023206Y004966D01*
X023188Y005073D01*
X023174Y005180D01*
X023164Y005288D01*
X023158Y005397D01*
X023156Y005505D01*
X026794Y007198D02*
X027231Y007977D01*
X027688Y007946D02*
X027129Y007221D01*
X033153Y006387D02*
X034027Y006221D01*
X034385Y006355D02*
X033511Y006745D01*
X033531Y007127D02*
X034322Y006705D01*
X034700Y006788D02*
X033979Y007355D01*
X034172Y007831D02*
X034782Y007135D01*
X035172Y007115D02*
X034637Y007871D01*
X035034Y008272D02*
X035361Y007481D01*
X035719Y007324D02*
X035519Y008178D01*
X035952Y008442D02*
X035952Y007619D01*
X036471Y007544D02*
X036802Y008304D01*
X036342Y008241D02*
X036192Y007304D01*
X036637Y007198D02*
X037074Y007977D01*
X037531Y007946D02*
X036971Y007221D01*
X037097Y006902D02*
X037700Y007568D01*
X038117Y007473D02*
X037527Y006883D01*
X037468Y006442D02*
X038223Y006946D01*
X038645Y006701D02*
X037834Y006292D01*
X037708Y005898D02*
X038625Y006190D01*
X038897Y005705D02*
X037991Y005650D01*
X037708Y005264D02*
X038613Y005209D01*
X038771Y004725D02*
X037877Y004926D01*
X037531Y004686D02*
X038318Y004316D01*
X038342Y003831D02*
X037594Y004272D01*
X037160Y004178D02*
X037889Y003568D01*
X037562Y003076D02*
X037038Y003784D01*
X036637Y003843D02*
X037027Y003020D01*
X036751Y002717D02*
X036460Y003556D01*
X036097Y003705D02*
X036231Y002812D01*
X035865Y002576D02*
X035838Y003453D01*
X035562Y003749D02*
X035385Y002843D01*
X034932Y002824D02*
X035223Y003583D01*
X035003Y003969D02*
X034523Y003146D01*
X034164Y003221D02*
X034625Y003906D01*
X034574Y004347D02*
X033979Y003725D01*
X033523Y003906D02*
X034204Y004410D01*
X034259Y004875D02*
X033448Y004473D01*
X033109Y004788D02*
X033964Y005064D01*
X034141Y005335D02*
X033247Y005272D01*
X033046Y005599D02*
X033912Y005611D01*
X034216Y005843D02*
X033271Y005969D01*
X034176Y005509D02*
X034178Y005593D01*
X034184Y005676D01*
X034194Y005759D01*
X034208Y005842D01*
X034225Y005924D01*
X034247Y006005D01*
X034272Y006084D01*
X034301Y006163D01*
X034334Y006240D01*
X034370Y006315D01*
X034410Y006389D01*
X034453Y006461D01*
X034500Y006530D01*
X034550Y006597D01*
X034603Y006662D01*
X034659Y006724D01*
X034717Y006784D01*
X034779Y006841D01*
X034843Y006894D01*
X034910Y006945D01*
X034979Y006992D01*
X035050Y007037D01*
X035123Y007077D01*
X035198Y007114D01*
X035275Y007148D01*
X035353Y007178D01*
X035432Y007204D01*
X035513Y007227D01*
X035595Y007245D01*
X035677Y007260D01*
X035760Y007271D01*
X035843Y007278D01*
X035927Y007281D01*
X036011Y007280D01*
X036094Y007275D01*
X036178Y007266D01*
X036260Y007253D01*
X036342Y007237D01*
X036423Y007216D01*
X036504Y007192D01*
X036582Y007164D01*
X036660Y007132D01*
X036736Y007096D01*
X036810Y007057D01*
X036882Y007015D01*
X036952Y006969D01*
X037020Y006920D01*
X037085Y006868D01*
X037148Y006813D01*
X037208Y006755D01*
X037266Y006694D01*
X037320Y006630D01*
X037372Y006564D01*
X037420Y006496D01*
X037465Y006425D01*
X037506Y006352D01*
X037545Y006278D01*
X037579Y006202D01*
X037610Y006124D01*
X037637Y006045D01*
X037661Y005964D01*
X037680Y005883D01*
X037696Y005801D01*
X037708Y005718D01*
X037716Y005634D01*
X037720Y005551D01*
X037720Y005467D01*
X037716Y005384D01*
X037708Y005300D01*
X037696Y005217D01*
X037680Y005135D01*
X037661Y005054D01*
X037637Y004973D01*
X037610Y004894D01*
X037579Y004816D01*
X037545Y004740D01*
X037506Y004666D01*
X037465Y004593D01*
X037420Y004522D01*
X037372Y004454D01*
X037320Y004388D01*
X037266Y004324D01*
X037208Y004263D01*
X037148Y004205D01*
X037085Y004150D01*
X037020Y004098D01*
X036952Y004049D01*
X036882Y004003D01*
X036810Y003961D01*
X036736Y003922D01*
X036660Y003886D01*
X036582Y003854D01*
X036504Y003826D01*
X036423Y003802D01*
X036342Y003781D01*
X036260Y003765D01*
X036178Y003752D01*
X036094Y003743D01*
X036011Y003738D01*
X035927Y003737D01*
X035843Y003740D01*
X035760Y003747D01*
X035677Y003758D01*
X035595Y003773D01*
X035513Y003791D01*
X035432Y003814D01*
X035353Y003840D01*
X035275Y003870D01*
X035198Y003904D01*
X035123Y003941D01*
X035050Y003981D01*
X034979Y004026D01*
X034910Y004073D01*
X034843Y004124D01*
X034779Y004177D01*
X034717Y004234D01*
X034659Y004294D01*
X034603Y004356D01*
X034550Y004421D01*
X034500Y004488D01*
X034453Y004557D01*
X034410Y004629D01*
X034370Y004703D01*
X034334Y004778D01*
X034301Y004855D01*
X034272Y004934D01*
X034247Y005013D01*
X034225Y005094D01*
X034208Y005176D01*
X034194Y005259D01*
X034184Y005342D01*
X034178Y005425D01*
X034176Y005509D01*
X032999Y005505D02*
X033001Y005613D01*
X033007Y005722D01*
X033017Y005830D01*
X033031Y005937D01*
X033049Y006044D01*
X033070Y006151D01*
X033096Y006256D01*
X033126Y006361D01*
X033159Y006464D01*
X033196Y006566D01*
X033237Y006666D01*
X033281Y006765D01*
X033330Y006863D01*
X033381Y006958D01*
X033436Y007051D01*
X033495Y007143D01*
X033557Y007232D01*
X033622Y007319D01*
X033690Y007403D01*
X033761Y007485D01*
X033835Y007564D01*
X033912Y007640D01*
X033992Y007714D01*
X034075Y007784D01*
X034160Y007852D01*
X034247Y007916D01*
X034337Y007977D01*
X034429Y008035D01*
X034523Y008089D01*
X034619Y008140D01*
X034716Y008187D01*
X034816Y008231D01*
X034917Y008271D01*
X035019Y008307D01*
X035122Y008339D01*
X035227Y008368D01*
X035333Y008392D01*
X035439Y008413D01*
X035546Y008430D01*
X035654Y008443D01*
X035762Y008452D01*
X035871Y008457D01*
X035979Y008458D01*
X036088Y008455D01*
X036196Y008448D01*
X036304Y008437D01*
X036411Y008422D01*
X036518Y008403D01*
X036624Y008380D01*
X036729Y008354D01*
X036834Y008323D01*
X036936Y008289D01*
X037038Y008251D01*
X037138Y008209D01*
X037237Y008164D01*
X037334Y008115D01*
X037428Y008062D01*
X037521Y008006D01*
X037612Y007947D01*
X037701Y007884D01*
X037787Y007819D01*
X037871Y007750D01*
X037952Y007678D01*
X038030Y007603D01*
X038106Y007525D01*
X038179Y007444D01*
X038249Y007361D01*
X038315Y007276D01*
X038379Y007188D01*
X038439Y007097D01*
X038496Y007005D01*
X038549Y006910D01*
X038599Y006814D01*
X038645Y006716D01*
X038688Y006616D01*
X038727Y006515D01*
X038762Y006412D01*
X038794Y006309D01*
X038821Y006204D01*
X038845Y006098D01*
X038865Y005991D01*
X038881Y005884D01*
X038893Y005776D01*
X038901Y005668D01*
X038905Y005559D01*
X038905Y005451D01*
X038901Y005342D01*
X038893Y005234D01*
X038881Y005126D01*
X038865Y005019D01*
X038845Y004912D01*
X038821Y004806D01*
X038794Y004701D01*
X038762Y004598D01*
X038727Y004495D01*
X038688Y004394D01*
X038645Y004294D01*
X038599Y004196D01*
X038549Y004100D01*
X038496Y004005D01*
X038439Y003913D01*
X038379Y003822D01*
X038315Y003734D01*
X038249Y003649D01*
X038179Y003566D01*
X038106Y003485D01*
X038030Y003407D01*
X037952Y003332D01*
X037871Y003260D01*
X037787Y003191D01*
X037701Y003126D01*
X037612Y003063D01*
X037521Y003004D01*
X037429Y002948D01*
X037334Y002895D01*
X037237Y002846D01*
X037138Y002801D01*
X037038Y002759D01*
X036936Y002721D01*
X036834Y002687D01*
X036729Y002656D01*
X036624Y002630D01*
X036518Y002607D01*
X036411Y002588D01*
X036304Y002573D01*
X036196Y002562D01*
X036088Y002555D01*
X035979Y002552D01*
X035871Y002553D01*
X035762Y002558D01*
X035654Y002567D01*
X035546Y002580D01*
X035439Y002597D01*
X035333Y002618D01*
X035227Y002642D01*
X035122Y002671D01*
X035019Y002703D01*
X034917Y002739D01*
X034816Y002779D01*
X034716Y002823D01*
X034619Y002870D01*
X034523Y002921D01*
X034429Y002975D01*
X034337Y003033D01*
X034247Y003094D01*
X034160Y003158D01*
X034075Y003226D01*
X033992Y003296D01*
X033912Y003370D01*
X033835Y003446D01*
X033761Y003525D01*
X033690Y003607D01*
X033622Y003691D01*
X033557Y003778D01*
X033495Y003867D01*
X033436Y003959D01*
X033381Y004052D01*
X033330Y004147D01*
X033281Y004245D01*
X033237Y004344D01*
X033196Y004444D01*
X033159Y004546D01*
X033126Y004649D01*
X033096Y004754D01*
X033070Y004859D01*
X033049Y004966D01*
X033031Y005073D01*
X033017Y005180D01*
X033007Y005288D01*
X033001Y005397D01*
X032999Y005505D01*
X030223Y003543D02*
X030143Y003543D01*
X031663Y002023D02*
X032063Y002023D01*
D11*
X034653Y005505D03*
X035440Y005505D03*
X036227Y005505D03*
X037015Y005505D03*
X027172Y005505D03*
X026385Y005505D03*
X025597Y005505D03*
X024810Y005505D03*
X017330Y005505D03*
X016542Y005505D03*
X015755Y005505D03*
X014968Y005505D03*
X007487Y005505D03*
X006700Y005505D03*
X005912Y005505D03*
X005125Y005505D03*
D12*
X008145Y005891D03*
X009145Y006691D03*
X017988Y005891D03*
X018988Y006691D03*
X027831Y005891D03*
X028831Y006691D03*
X037673Y005891D03*
X038673Y006691D03*
D13*
X030440Y005505D02*
X030442Y005553D01*
X030448Y005601D01*
X030458Y005648D01*
X030471Y005694D01*
X030489Y005739D01*
X030509Y005783D01*
X030534Y005825D01*
X030562Y005864D01*
X030592Y005901D01*
X030626Y005935D01*
X030663Y005967D01*
X030701Y005996D01*
X030742Y006021D01*
X030785Y006043D01*
X030830Y006061D01*
X030876Y006075D01*
X030923Y006086D01*
X030971Y006093D01*
X031019Y006096D01*
X031067Y006095D01*
X031115Y006090D01*
X031163Y006081D01*
X031209Y006069D01*
X031254Y006052D01*
X031298Y006032D01*
X031340Y006009D01*
X031380Y005982D01*
X031418Y005952D01*
X031453Y005919D01*
X031485Y005883D01*
X031515Y005845D01*
X031541Y005804D01*
X031563Y005761D01*
X031583Y005717D01*
X031598Y005672D01*
X031610Y005625D01*
X031618Y005577D01*
X031622Y005529D01*
X031622Y005481D01*
X031618Y005433D01*
X031610Y005385D01*
X031598Y005338D01*
X031583Y005293D01*
X031563Y005249D01*
X031541Y005206D01*
X031515Y005165D01*
X031485Y005127D01*
X031453Y005091D01*
X031418Y005058D01*
X031380Y005028D01*
X031340Y005001D01*
X031298Y004978D01*
X031254Y004958D01*
X031209Y004941D01*
X031163Y004929D01*
X031115Y004920D01*
X031067Y004915D01*
X031019Y004914D01*
X030971Y004917D01*
X030923Y004924D01*
X030876Y004935D01*
X030830Y004949D01*
X030785Y004967D01*
X030742Y004989D01*
X030701Y005014D01*
X030663Y005043D01*
X030626Y005075D01*
X030592Y005109D01*
X030562Y005146D01*
X030534Y005185D01*
X030509Y005227D01*
X030489Y005271D01*
X030471Y005316D01*
X030458Y005362D01*
X030448Y005409D01*
X030442Y005457D01*
X030440Y005505D01*
X021581Y009442D02*
X021583Y009490D01*
X021589Y009538D01*
X021599Y009585D01*
X021612Y009631D01*
X021630Y009676D01*
X021650Y009720D01*
X021675Y009762D01*
X021703Y009801D01*
X021733Y009838D01*
X021767Y009872D01*
X021804Y009904D01*
X021842Y009933D01*
X021883Y009958D01*
X021926Y009980D01*
X021971Y009998D01*
X022017Y010012D01*
X022064Y010023D01*
X022112Y010030D01*
X022160Y010033D01*
X022208Y010032D01*
X022256Y010027D01*
X022304Y010018D01*
X022350Y010006D01*
X022395Y009989D01*
X022439Y009969D01*
X022481Y009946D01*
X022521Y009919D01*
X022559Y009889D01*
X022594Y009856D01*
X022626Y009820D01*
X022656Y009782D01*
X022682Y009741D01*
X022704Y009698D01*
X022724Y009654D01*
X022739Y009609D01*
X022751Y009562D01*
X022759Y009514D01*
X022763Y009466D01*
X022763Y009418D01*
X022759Y009370D01*
X022751Y009322D01*
X022739Y009275D01*
X022724Y009230D01*
X022704Y009186D01*
X022682Y009143D01*
X022656Y009102D01*
X022626Y009064D01*
X022594Y009028D01*
X022559Y008995D01*
X022521Y008965D01*
X022481Y008938D01*
X022439Y008915D01*
X022395Y008895D01*
X022350Y008878D01*
X022304Y008866D01*
X022256Y008857D01*
X022208Y008852D01*
X022160Y008851D01*
X022112Y008854D01*
X022064Y008861D01*
X022017Y008872D01*
X021971Y008886D01*
X021926Y008904D01*
X021883Y008926D01*
X021842Y008951D01*
X021804Y008980D01*
X021767Y009012D01*
X021733Y009046D01*
X021703Y009083D01*
X021675Y009122D01*
X021650Y009164D01*
X021630Y009208D01*
X021612Y009253D01*
X021599Y009299D01*
X021589Y009346D01*
X021583Y009394D01*
X021581Y009442D01*
X019613Y009442D02*
X019615Y009490D01*
X019621Y009538D01*
X019631Y009585D01*
X019644Y009631D01*
X019662Y009676D01*
X019682Y009720D01*
X019707Y009762D01*
X019735Y009801D01*
X019765Y009838D01*
X019799Y009872D01*
X019836Y009904D01*
X019874Y009933D01*
X019915Y009958D01*
X019958Y009980D01*
X020003Y009998D01*
X020049Y010012D01*
X020096Y010023D01*
X020144Y010030D01*
X020192Y010033D01*
X020240Y010032D01*
X020288Y010027D01*
X020336Y010018D01*
X020382Y010006D01*
X020427Y009989D01*
X020471Y009969D01*
X020513Y009946D01*
X020553Y009919D01*
X020591Y009889D01*
X020626Y009856D01*
X020658Y009820D01*
X020688Y009782D01*
X020714Y009741D01*
X020736Y009698D01*
X020756Y009654D01*
X020771Y009609D01*
X020783Y009562D01*
X020791Y009514D01*
X020795Y009466D01*
X020795Y009418D01*
X020791Y009370D01*
X020783Y009322D01*
X020771Y009275D01*
X020756Y009230D01*
X020736Y009186D01*
X020714Y009143D01*
X020688Y009102D01*
X020658Y009064D01*
X020626Y009028D01*
X020591Y008995D01*
X020553Y008965D01*
X020513Y008938D01*
X020471Y008915D01*
X020427Y008895D01*
X020382Y008878D01*
X020336Y008866D01*
X020288Y008857D01*
X020240Y008852D01*
X020192Y008851D01*
X020144Y008854D01*
X020096Y008861D01*
X020049Y008872D01*
X020003Y008886D01*
X019958Y008904D01*
X019915Y008926D01*
X019874Y008951D01*
X019836Y008980D01*
X019799Y009012D01*
X019765Y009046D01*
X019735Y009083D01*
X019707Y009122D01*
X019682Y009164D01*
X019662Y009208D01*
X019644Y009253D01*
X019631Y009299D01*
X019621Y009346D01*
X019615Y009394D01*
X019613Y009442D01*
X010754Y005505D02*
X010756Y005553D01*
X010762Y005601D01*
X010772Y005648D01*
X010785Y005694D01*
X010803Y005739D01*
X010823Y005783D01*
X010848Y005825D01*
X010876Y005864D01*
X010906Y005901D01*
X010940Y005935D01*
X010977Y005967D01*
X011015Y005996D01*
X011056Y006021D01*
X011099Y006043D01*
X011144Y006061D01*
X011190Y006075D01*
X011237Y006086D01*
X011285Y006093D01*
X011333Y006096D01*
X011381Y006095D01*
X011429Y006090D01*
X011477Y006081D01*
X011523Y006069D01*
X011568Y006052D01*
X011612Y006032D01*
X011654Y006009D01*
X011694Y005982D01*
X011732Y005952D01*
X011767Y005919D01*
X011799Y005883D01*
X011829Y005845D01*
X011855Y005804D01*
X011877Y005761D01*
X011897Y005717D01*
X011912Y005672D01*
X011924Y005625D01*
X011932Y005577D01*
X011936Y005529D01*
X011936Y005481D01*
X011932Y005433D01*
X011924Y005385D01*
X011912Y005338D01*
X011897Y005293D01*
X011877Y005249D01*
X011855Y005206D01*
X011829Y005165D01*
X011799Y005127D01*
X011767Y005091D01*
X011732Y005058D01*
X011694Y005028D01*
X011654Y005001D01*
X011612Y004978D01*
X011568Y004958D01*
X011523Y004941D01*
X011477Y004929D01*
X011429Y004920D01*
X011381Y004915D01*
X011333Y004914D01*
X011285Y004917D01*
X011237Y004924D01*
X011190Y004935D01*
X011144Y004949D01*
X011099Y004967D01*
X011056Y004989D01*
X011015Y005014D01*
X010977Y005043D01*
X010940Y005075D01*
X010906Y005109D01*
X010876Y005146D01*
X010848Y005185D01*
X010823Y005227D01*
X010803Y005271D01*
X010785Y005316D01*
X010772Y005362D01*
X010762Y005409D01*
X010756Y005457D01*
X010754Y005505D01*
X001896Y009442D02*
X001898Y009490D01*
X001904Y009538D01*
X001914Y009585D01*
X001927Y009631D01*
X001945Y009676D01*
X001965Y009720D01*
X001990Y009762D01*
X002018Y009801D01*
X002048Y009838D01*
X002082Y009872D01*
X002119Y009904D01*
X002157Y009933D01*
X002198Y009958D01*
X002241Y009980D01*
X002286Y009998D01*
X002332Y010012D01*
X002379Y010023D01*
X002427Y010030D01*
X002475Y010033D01*
X002523Y010032D01*
X002571Y010027D01*
X002619Y010018D01*
X002665Y010006D01*
X002710Y009989D01*
X002754Y009969D01*
X002796Y009946D01*
X002836Y009919D01*
X002874Y009889D01*
X002909Y009856D01*
X002941Y009820D01*
X002971Y009782D01*
X002997Y009741D01*
X003019Y009698D01*
X003039Y009654D01*
X003054Y009609D01*
X003066Y009562D01*
X003074Y009514D01*
X003078Y009466D01*
X003078Y009418D01*
X003074Y009370D01*
X003066Y009322D01*
X003054Y009275D01*
X003039Y009230D01*
X003019Y009186D01*
X002997Y009143D01*
X002971Y009102D01*
X002941Y009064D01*
X002909Y009028D01*
X002874Y008995D01*
X002836Y008965D01*
X002796Y008938D01*
X002754Y008915D01*
X002710Y008895D01*
X002665Y008878D01*
X002619Y008866D01*
X002571Y008857D01*
X002523Y008852D01*
X002475Y008851D01*
X002427Y008854D01*
X002379Y008861D01*
X002332Y008872D01*
X002286Y008886D01*
X002241Y008904D01*
X002198Y008926D01*
X002157Y008951D01*
X002119Y008980D01*
X002082Y009012D01*
X002048Y009046D01*
X002018Y009083D01*
X001990Y009122D01*
X001965Y009164D01*
X001945Y009208D01*
X001927Y009253D01*
X001914Y009299D01*
X001904Y009346D01*
X001898Y009394D01*
X001896Y009442D01*
X001896Y001568D02*
X001898Y001616D01*
X001904Y001664D01*
X001914Y001711D01*
X001927Y001757D01*
X001945Y001802D01*
X001965Y001846D01*
X001990Y001888D01*
X002018Y001927D01*
X002048Y001964D01*
X002082Y001998D01*
X002119Y002030D01*
X002157Y002059D01*
X002198Y002084D01*
X002241Y002106D01*
X002286Y002124D01*
X002332Y002138D01*
X002379Y002149D01*
X002427Y002156D01*
X002475Y002159D01*
X002523Y002158D01*
X002571Y002153D01*
X002619Y002144D01*
X002665Y002132D01*
X002710Y002115D01*
X002754Y002095D01*
X002796Y002072D01*
X002836Y002045D01*
X002874Y002015D01*
X002909Y001982D01*
X002941Y001946D01*
X002971Y001908D01*
X002997Y001867D01*
X003019Y001824D01*
X003039Y001780D01*
X003054Y001735D01*
X003066Y001688D01*
X003074Y001640D01*
X003078Y001592D01*
X003078Y001544D01*
X003074Y001496D01*
X003066Y001448D01*
X003054Y001401D01*
X003039Y001356D01*
X003019Y001312D01*
X002997Y001269D01*
X002971Y001228D01*
X002941Y001190D01*
X002909Y001154D01*
X002874Y001121D01*
X002836Y001091D01*
X002796Y001064D01*
X002754Y001041D01*
X002710Y001021D01*
X002665Y001004D01*
X002619Y000992D01*
X002571Y000983D01*
X002523Y000978D01*
X002475Y000977D01*
X002427Y000980D01*
X002379Y000987D01*
X002332Y000998D01*
X002286Y001012D01*
X002241Y001030D01*
X002198Y001052D01*
X002157Y001077D01*
X002119Y001106D01*
X002082Y001138D01*
X002048Y001172D01*
X002018Y001209D01*
X001990Y001248D01*
X001965Y001290D01*
X001945Y001334D01*
X001927Y001379D01*
X001914Y001425D01*
X001904Y001472D01*
X001898Y001520D01*
X001896Y001568D01*
X019613Y001568D02*
X019615Y001616D01*
X019621Y001664D01*
X019631Y001711D01*
X019644Y001757D01*
X019662Y001802D01*
X019682Y001846D01*
X019707Y001888D01*
X019735Y001927D01*
X019765Y001964D01*
X019799Y001998D01*
X019836Y002030D01*
X019874Y002059D01*
X019915Y002084D01*
X019958Y002106D01*
X020003Y002124D01*
X020049Y002138D01*
X020096Y002149D01*
X020144Y002156D01*
X020192Y002159D01*
X020240Y002158D01*
X020288Y002153D01*
X020336Y002144D01*
X020382Y002132D01*
X020427Y002115D01*
X020471Y002095D01*
X020513Y002072D01*
X020553Y002045D01*
X020591Y002015D01*
X020626Y001982D01*
X020658Y001946D01*
X020688Y001908D01*
X020714Y001867D01*
X020736Y001824D01*
X020756Y001780D01*
X020771Y001735D01*
X020783Y001688D01*
X020791Y001640D01*
X020795Y001592D01*
X020795Y001544D01*
X020791Y001496D01*
X020783Y001448D01*
X020771Y001401D01*
X020756Y001356D01*
X020736Y001312D01*
X020714Y001269D01*
X020688Y001228D01*
X020658Y001190D01*
X020626Y001154D01*
X020591Y001121D01*
X020553Y001091D01*
X020513Y001064D01*
X020471Y001041D01*
X020427Y001021D01*
X020382Y001004D01*
X020336Y000992D01*
X020288Y000983D01*
X020240Y000978D01*
X020192Y000977D01*
X020144Y000980D01*
X020096Y000987D01*
X020049Y000998D01*
X020003Y001012D01*
X019958Y001030D01*
X019915Y001052D01*
X019874Y001077D01*
X019836Y001106D01*
X019799Y001138D01*
X019765Y001172D01*
X019735Y001209D01*
X019707Y001248D01*
X019682Y001290D01*
X019662Y001334D01*
X019644Y001379D01*
X019631Y001425D01*
X019621Y001472D01*
X019615Y001520D01*
X019613Y001568D01*
X021581Y001568D02*
X021583Y001616D01*
X021589Y001664D01*
X021599Y001711D01*
X021612Y001757D01*
X021630Y001802D01*
X021650Y001846D01*
X021675Y001888D01*
X021703Y001927D01*
X021733Y001964D01*
X021767Y001998D01*
X021804Y002030D01*
X021842Y002059D01*
X021883Y002084D01*
X021926Y002106D01*
X021971Y002124D01*
X022017Y002138D01*
X022064Y002149D01*
X022112Y002156D01*
X022160Y002159D01*
X022208Y002158D01*
X022256Y002153D01*
X022304Y002144D01*
X022350Y002132D01*
X022395Y002115D01*
X022439Y002095D01*
X022481Y002072D01*
X022521Y002045D01*
X022559Y002015D01*
X022594Y001982D01*
X022626Y001946D01*
X022656Y001908D01*
X022682Y001867D01*
X022704Y001824D01*
X022724Y001780D01*
X022739Y001735D01*
X022751Y001688D01*
X022759Y001640D01*
X022763Y001592D01*
X022763Y001544D01*
X022759Y001496D01*
X022751Y001448D01*
X022739Y001401D01*
X022724Y001356D01*
X022704Y001312D01*
X022682Y001269D01*
X022656Y001228D01*
X022626Y001190D01*
X022594Y001154D01*
X022559Y001121D01*
X022521Y001091D01*
X022481Y001064D01*
X022439Y001041D01*
X022395Y001021D01*
X022350Y001004D01*
X022304Y000992D01*
X022256Y000983D01*
X022208Y000978D01*
X022160Y000977D01*
X022112Y000980D01*
X022064Y000987D01*
X022017Y000998D01*
X021971Y001012D01*
X021926Y001030D01*
X021883Y001052D01*
X021842Y001077D01*
X021804Y001106D01*
X021767Y001138D01*
X021733Y001172D01*
X021703Y001209D01*
X021675Y001248D01*
X021650Y001290D01*
X021630Y001334D01*
X021612Y001379D01*
X021599Y001425D01*
X021589Y001472D01*
X021583Y001520D01*
X021581Y001568D01*
X039298Y001568D02*
X039300Y001616D01*
X039306Y001664D01*
X039316Y001711D01*
X039329Y001757D01*
X039347Y001802D01*
X039367Y001846D01*
X039392Y001888D01*
X039420Y001927D01*
X039450Y001964D01*
X039484Y001998D01*
X039521Y002030D01*
X039559Y002059D01*
X039600Y002084D01*
X039643Y002106D01*
X039688Y002124D01*
X039734Y002138D01*
X039781Y002149D01*
X039829Y002156D01*
X039877Y002159D01*
X039925Y002158D01*
X039973Y002153D01*
X040021Y002144D01*
X040067Y002132D01*
X040112Y002115D01*
X040156Y002095D01*
X040198Y002072D01*
X040238Y002045D01*
X040276Y002015D01*
X040311Y001982D01*
X040343Y001946D01*
X040373Y001908D01*
X040399Y001867D01*
X040421Y001824D01*
X040441Y001780D01*
X040456Y001735D01*
X040468Y001688D01*
X040476Y001640D01*
X040480Y001592D01*
X040480Y001544D01*
X040476Y001496D01*
X040468Y001448D01*
X040456Y001401D01*
X040441Y001356D01*
X040421Y001312D01*
X040399Y001269D01*
X040373Y001228D01*
X040343Y001190D01*
X040311Y001154D01*
X040276Y001121D01*
X040238Y001091D01*
X040198Y001064D01*
X040156Y001041D01*
X040112Y001021D01*
X040067Y001004D01*
X040021Y000992D01*
X039973Y000983D01*
X039925Y000978D01*
X039877Y000977D01*
X039829Y000980D01*
X039781Y000987D01*
X039734Y000998D01*
X039688Y001012D01*
X039643Y001030D01*
X039600Y001052D01*
X039559Y001077D01*
X039521Y001106D01*
X039484Y001138D01*
X039450Y001172D01*
X039420Y001209D01*
X039392Y001248D01*
X039367Y001290D01*
X039347Y001334D01*
X039329Y001379D01*
X039316Y001425D01*
X039306Y001472D01*
X039300Y001520D01*
X039298Y001568D01*
X039298Y009442D02*
X039300Y009490D01*
X039306Y009538D01*
X039316Y009585D01*
X039329Y009631D01*
X039347Y009676D01*
X039367Y009720D01*
X039392Y009762D01*
X039420Y009801D01*
X039450Y009838D01*
X039484Y009872D01*
X039521Y009904D01*
X039559Y009933D01*
X039600Y009958D01*
X039643Y009980D01*
X039688Y009998D01*
X039734Y010012D01*
X039781Y010023D01*
X039829Y010030D01*
X039877Y010033D01*
X039925Y010032D01*
X039973Y010027D01*
X040021Y010018D01*
X040067Y010006D01*
X040112Y009989D01*
X040156Y009969D01*
X040198Y009946D01*
X040238Y009919D01*
X040276Y009889D01*
X040311Y009856D01*
X040343Y009820D01*
X040373Y009782D01*
X040399Y009741D01*
X040421Y009698D01*
X040441Y009654D01*
X040456Y009609D01*
X040468Y009562D01*
X040476Y009514D01*
X040480Y009466D01*
X040480Y009418D01*
X040476Y009370D01*
X040468Y009322D01*
X040456Y009275D01*
X040441Y009230D01*
X040421Y009186D01*
X040399Y009143D01*
X040373Y009102D01*
X040343Y009064D01*
X040311Y009028D01*
X040276Y008995D01*
X040238Y008965D01*
X040198Y008938D01*
X040156Y008915D01*
X040112Y008895D01*
X040067Y008878D01*
X040021Y008866D01*
X039973Y008857D01*
X039925Y008852D01*
X039877Y008851D01*
X039829Y008854D01*
X039781Y008861D01*
X039734Y008872D01*
X039688Y008886D01*
X039643Y008904D01*
X039600Y008926D01*
X039559Y008951D01*
X039521Y008980D01*
X039484Y009012D01*
X039450Y009046D01*
X039420Y009083D01*
X039392Y009122D01*
X039367Y009164D01*
X039347Y009208D01*
X039329Y009253D01*
X039316Y009299D01*
X039306Y009346D01*
X039300Y009394D01*
X039298Y009442D01*
D14*
X034823Y009863D03*
X030183Y009863D03*
X040353Y007083D03*
X015143Y009863D03*
X010583Y009863D03*
X002133Y007083D03*
D15*
X002033Y006083D03*
X002133Y005083D03*
X002033Y004083D03*
X007583Y009863D03*
X008583Y009863D03*
X009583Y009863D03*
X012143Y009863D03*
X013143Y009863D03*
X014143Y009863D03*
X027183Y009863D03*
X028183Y009863D03*
X029183Y009863D03*
X031823Y009863D03*
X032823Y009863D03*
X033823Y009863D03*
X040253Y006083D03*
X040353Y005083D03*
X040253Y004083D03*
X024683Y001550D03*
X023683Y001550D03*
D16*
X027654Y001670D03*
X028654Y001670D03*
X029654Y001670D03*
D17*
X029634Y001690D02*
X029634Y001650D01*
X029174Y001650D01*
X029174Y001632D01*
X029186Y001558D01*
X029209Y001486D01*
X029241Y001423D01*
X029050Y001423D01*
X029114Y001578D01*
X029114Y001761D01*
X029044Y001931D01*
X028915Y002060D01*
X028746Y002130D01*
X028563Y002130D01*
X028394Y002060D01*
X028264Y001931D01*
X028263Y001928D01*
X028263Y001946D01*
X028146Y002063D01*
X027906Y002303D01*
X027578Y002303D01*
X027595Y002310D01*
X027609Y002312D01*
X027639Y002328D01*
X027670Y002342D01*
X027680Y002351D01*
X027943Y002497D01*
X027957Y002500D01*
X027985Y002520D01*
X028015Y002536D01*
X028023Y002547D01*
X028269Y002721D01*
X028282Y002726D01*
X028307Y002748D01*
X028335Y002768D01*
X028343Y002780D01*
X028567Y002980D01*
X028579Y002986D01*
X028602Y003012D01*
X028628Y003035D01*
X028634Y003047D01*
X028834Y003271D01*
X028846Y003279D01*
X028865Y003307D01*
X028888Y003332D01*
X028893Y003345D01*
X029067Y003590D01*
X029078Y003599D01*
X029094Y003629D01*
X029114Y003657D01*
X029117Y003671D01*
X029262Y003934D01*
X029272Y003943D01*
X029285Y003975D01*
X029302Y004005D01*
X029304Y004019D01*
X029419Y004297D01*
X029427Y004307D01*
X029437Y004340D01*
X029450Y004372D01*
X029450Y004386D01*
X029533Y004675D01*
X029540Y004686D01*
X029546Y004720D01*
X029556Y004753D01*
X029554Y004767D01*
X029604Y005063D01*
X029610Y005076D01*
X029612Y005110D01*
X029618Y005144D01*
X029615Y005157D01*
X029632Y005457D01*
X029636Y005470D01*
X029635Y005505D01*
X029636Y005539D01*
X029632Y005552D01*
X029615Y005852D01*
X029618Y005866D01*
X029612Y005899D01*
X029610Y005934D01*
X029604Y005946D01*
X029554Y006242D01*
X029556Y006256D01*
X029546Y006289D01*
X029540Y006323D01*
X029533Y006335D01*
X029450Y006623D01*
X029450Y006637D01*
X029437Y006669D01*
X029427Y006702D01*
X029419Y006713D01*
X029304Y006990D01*
X029302Y007004D01*
X029285Y007034D01*
X029272Y007066D01*
X029262Y007076D01*
X029117Y007339D01*
X029114Y007352D01*
X029094Y007380D01*
X029078Y007410D01*
X029067Y007419D01*
X028893Y007664D01*
X028888Y007677D01*
X028865Y007703D01*
X028846Y007731D01*
X028834Y007738D01*
X028634Y007962D01*
X028628Y007975D01*
X028602Y007997D01*
X028579Y008023D01*
X028567Y008029D01*
X028343Y008229D01*
X028335Y008241D01*
X028307Y008261D01*
X028282Y008284D01*
X028269Y008288D01*
X028023Y008462D01*
X028015Y008473D01*
X027985Y008490D01*
X027957Y008509D01*
X027943Y008512D01*
X027680Y008658D01*
X027670Y008668D01*
X027639Y008681D01*
X027609Y008697D01*
X027595Y008699D01*
X027317Y008814D01*
X027306Y008823D01*
X027274Y008832D01*
X027242Y008845D01*
X027228Y008845D01*
X026939Y008928D01*
X026927Y008936D01*
X026894Y008942D01*
X026861Y008951D01*
X026847Y008949D01*
X026551Y009000D01*
X026538Y009006D01*
X026504Y009008D01*
X026470Y009013D01*
X026457Y009010D01*
X026157Y009027D01*
X026143Y009032D01*
X026109Y009030D01*
X026075Y009032D01*
X026062Y009027D01*
X025762Y009010D01*
X025748Y009013D01*
X025715Y009008D01*
X025680Y009006D01*
X025668Y009000D01*
X025372Y008949D01*
X025358Y008951D01*
X025325Y008942D01*
X025291Y008936D01*
X025279Y008928D01*
X024990Y008845D01*
X024977Y008845D01*
X024945Y008832D01*
X024912Y008823D01*
X024901Y008814D01*
X024623Y008699D01*
X024610Y008697D01*
X024580Y008681D01*
X024548Y008668D01*
X024538Y008658D01*
X024275Y008512D01*
X024262Y008509D01*
X024234Y008490D01*
X024204Y008473D01*
X024195Y008462D01*
X023956Y008293D01*
X023847Y008402D01*
X023599Y008402D01*
X023424Y008227D01*
X023424Y008125D01*
X023423Y008126D01*
X023423Y008501D01*
X023567Y008645D01*
X023707Y008645D01*
X023882Y008820D01*
X023882Y009067D01*
X023756Y009193D01*
X023993Y009431D01*
X024019Y009405D01*
X024267Y009405D01*
X024442Y009580D01*
X024442Y009827D01*
X024267Y010002D01*
X024122Y010002D01*
X024122Y010067D01*
X023993Y010196D01*
X024933Y010196D01*
X024924Y010187D01*
X024924Y009940D01*
X025099Y009765D01*
X025239Y009765D01*
X025940Y009063D01*
X028720Y009063D01*
X028819Y008965D01*
X029067Y008965D01*
X029242Y009140D01*
X029242Y009333D01*
X029288Y009333D01*
X029483Y009414D01*
X029632Y009563D01*
X029633Y009565D01*
X029633Y009470D01*
X029645Y009424D01*
X029669Y009383D01*
X029702Y009349D01*
X029743Y009326D01*
X029789Y009313D01*
X030163Y009313D01*
X030163Y009843D01*
X030203Y009843D01*
X030203Y009313D01*
X030430Y009313D01*
X030263Y009146D01*
X030263Y008166D01*
X030164Y008067D01*
X030164Y007820D01*
X030339Y007645D01*
X030587Y007645D01*
X030762Y007820D01*
X030762Y008067D01*
X030663Y008166D01*
X030663Y008981D01*
X030673Y008991D01*
X030819Y008845D01*
X030879Y008845D01*
X031604Y008119D01*
X031604Y007980D01*
X031779Y007805D01*
X031881Y007805D01*
X031439Y007362D01*
X031299Y007362D01*
X031124Y007187D01*
X031124Y006940D01*
X031299Y006765D01*
X029397Y006765D01*
X029345Y006698D02*
X029336Y006703D01*
X029238Y006939D01*
X029241Y006949D01*
X029213Y006999D01*
X029191Y007052D01*
X029182Y007056D01*
X029058Y007281D01*
X029059Y007291D01*
X029026Y007338D01*
X028999Y007388D01*
X028989Y007391D01*
X028840Y007600D01*
X028841Y007610D01*
X028803Y007653D01*
X028770Y007699D01*
X028759Y007701D01*
X028589Y007892D01*
X028588Y007903D01*
X028545Y007941D01*
X028507Y007983D01*
X028497Y007984D01*
X028306Y008155D01*
X028304Y008165D01*
X028257Y008198D01*
X028215Y008236D01*
X028204Y008236D01*
X027995Y008384D01*
X027992Y008394D01*
X027942Y008422D01*
X027895Y008455D01*
X027885Y008453D01*
X027661Y008577D01*
X027657Y008587D01*
X027604Y008609D01*
X027554Y008636D01*
X027544Y008633D01*
X027307Y008732D01*
X027302Y008741D01*
X027247Y008756D01*
X027194Y008778D01*
X027185Y008774D01*
X026938Y008845D01*
X026932Y008854D01*
X026876Y008863D01*
X026821Y008879D01*
X026812Y008874D01*
X026559Y008917D01*
X026552Y008925D01*
X026495Y008928D01*
X026439Y008938D01*
X026430Y008932D01*
X026174Y008946D01*
X026166Y008953D01*
X026109Y008950D01*
X026052Y008953D01*
X026044Y008946D01*
X025788Y008932D01*
X025780Y008938D01*
X025724Y008928D01*
X025666Y008925D01*
X025659Y008917D01*
X025407Y008874D01*
X025398Y008879D01*
X025343Y008863D01*
X025286Y008854D01*
X025280Y008845D01*
X025034Y008774D01*
X025024Y008778D01*
X024971Y008756D01*
X024916Y008741D01*
X024911Y008732D01*
X024674Y008633D01*
X024665Y008636D01*
X024614Y008609D01*
X024562Y008587D01*
X024558Y008577D01*
X024333Y008453D01*
X024323Y008455D01*
X024276Y008422D01*
X024226Y008394D01*
X024223Y008384D01*
X024014Y008236D01*
X024004Y008236D01*
X023994Y008227D01*
X023838Y008382D01*
X023607Y008382D01*
X023444Y008219D01*
X023444Y008076D01*
X023403Y008118D01*
X023403Y008509D01*
X023559Y008665D01*
X023698Y008665D01*
X023862Y008828D01*
X023862Y009059D01*
X023727Y009193D01*
X023993Y009459D01*
X024027Y009425D01*
X024258Y009425D01*
X024422Y009588D01*
X024422Y009819D01*
X024258Y009982D01*
X024102Y009982D01*
X024102Y010059D01*
X023965Y010196D01*
X024961Y010196D01*
X024944Y010179D01*
X024944Y009948D01*
X025107Y009785D01*
X025247Y009785D01*
X025948Y009083D01*
X028729Y009083D01*
X028827Y008985D01*
X029058Y008985D01*
X029222Y009148D01*
X029222Y009353D01*
X029284Y009353D01*
X029472Y009431D01*
X029615Y009574D01*
X029633Y009617D01*
X029633Y009470D01*
X029645Y009424D01*
X029669Y009383D01*
X029702Y009349D01*
X029743Y009326D01*
X029789Y009313D01*
X030163Y009313D01*
X030163Y009843D01*
X030203Y009843D01*
X030203Y009313D01*
X030458Y009313D01*
X030283Y009138D01*
X030283Y008158D01*
X030184Y008059D01*
X030184Y007828D01*
X030347Y007665D01*
X030578Y007665D01*
X030742Y007828D01*
X030742Y008059D01*
X030643Y008158D01*
X030643Y008989D01*
X030673Y009019D01*
X030827Y008865D01*
X030887Y008865D01*
X031624Y008128D01*
X031624Y007988D01*
X031787Y007825D01*
X031930Y007825D01*
X031447Y007342D01*
X031307Y007342D01*
X031144Y007179D01*
X031144Y006948D01*
X031307Y006785D01*
X031538Y006785D01*
X031702Y006948D01*
X031702Y007088D01*
X032378Y007763D01*
X032483Y007869D01*
X032483Y009269D01*
X032613Y009398D01*
X032722Y009353D01*
X032924Y009353D01*
X033112Y009431D01*
X033255Y009574D01*
X033323Y009738D01*
X033391Y009574D01*
X033534Y009431D01*
X033722Y009353D01*
X033924Y009353D01*
X034112Y009431D01*
X034255Y009574D01*
X034273Y009617D01*
X034273Y009470D01*
X034285Y009424D01*
X034309Y009383D01*
X034342Y009349D01*
X034383Y009326D01*
X034429Y009313D01*
X034803Y009313D01*
X034803Y009843D01*
X034843Y009843D01*
X034843Y009313D01*
X035217Y009313D01*
X035262Y009326D01*
X035303Y009349D01*
X035337Y009383D01*
X035361Y009424D01*
X035373Y009470D01*
X035373Y009843D01*
X034843Y009843D01*
X034843Y009313D01*
X035217Y009313D01*
X035262Y009326D01*
X035303Y009349D01*
X035337Y009383D01*
X035361Y009424D01*
X035373Y009470D01*
X035373Y009843D01*
X034843Y009843D01*
X034803Y009843D01*
X034803Y009313D01*
X034429Y009313D01*
X034383Y009326D01*
X034342Y009349D01*
X034309Y009383D01*
X034285Y009424D01*
X034273Y009470D01*
X034273Y009565D01*
X034272Y009563D01*
X034123Y009414D01*
X033928Y009333D01*
X033718Y009333D01*
X033523Y009414D01*
X033374Y009563D01*
X033323Y009686D01*
X033272Y009563D01*
X033123Y009414D01*
X032928Y009333D01*
X032718Y009333D01*
X032617Y009375D01*
X032503Y009261D01*
X032503Y007861D01*
X032386Y007743D01*
X031722Y007079D01*
X031722Y006940D01*
X031547Y006765D01*
X032664Y006765D01*
X032642Y006713D02*
X032634Y006702D01*
X032624Y006669D01*
X032611Y006637D01*
X032611Y006623D01*
X032528Y006335D01*
X032521Y006323D01*
X032515Y006289D01*
X032505Y006256D01*
X032507Y006242D01*
X032457Y005946D01*
X032451Y005934D01*
X032449Y005899D01*
X032443Y005866D01*
X032446Y005852D01*
X032429Y005552D01*
X032425Y005539D01*
X032427Y005505D01*
X032425Y005470D01*
X032429Y005457D01*
X032446Y005157D01*
X032443Y005144D01*
X032449Y005110D01*
X032451Y005076D01*
X032457Y005063D01*
X032507Y004767D01*
X032505Y004753D01*
X032515Y004720D01*
X032521Y004686D01*
X032528Y004675D01*
X032611Y004386D01*
X032611Y004372D01*
X032624Y004340D01*
X032634Y004307D01*
X032642Y004297D01*
X032757Y004019D01*
X032759Y004005D01*
X032776Y003975D01*
X032789Y003943D01*
X032799Y003934D01*
X032944Y003671D01*
X032947Y003657D01*
X032967Y003629D01*
X032983Y003599D01*
X032994Y003590D01*
X033168Y003345D01*
X033173Y003332D01*
X033196Y003307D01*
X033215Y003279D01*
X033227Y003271D01*
X033427Y003047D01*
X033433Y003035D01*
X033459Y003012D01*
X033482Y002986D01*
X033494Y002980D01*
X033718Y002780D01*
X033726Y002768D01*
X033754Y002748D01*
X033779Y002726D01*
X033792Y002721D01*
X034038Y002547D01*
X034046Y002536D01*
X034076Y002520D01*
X034104Y002500D01*
X034118Y002497D01*
X034381Y002351D01*
X034391Y002342D01*
X034422Y002328D01*
X034452Y002312D01*
X034466Y002310D01*
X034744Y002195D01*
X034755Y002187D01*
X034787Y002177D01*
X034819Y002164D01*
X034833Y002164D01*
X035122Y002081D01*
X035134Y002074D01*
X035167Y002068D01*
X035200Y002058D01*
X035214Y002060D01*
X035510Y002009D01*
X035523Y002003D01*
X035557Y002002D01*
X035591Y001996D01*
X035604Y001999D01*
X035881Y001983D01*
X035180Y001983D01*
X034620Y001423D01*
X030067Y001423D01*
X030099Y001486D01*
X030122Y001558D01*
X030134Y001632D01*
X030134Y001650D01*
X029674Y001650D01*
X029674Y001690D01*
X029634Y001690D01*
X029174Y001690D01*
X029174Y001708D01*
X029186Y001782D01*
X029209Y001854D01*
X029244Y001922D01*
X029288Y001983D01*
X029341Y002036D01*
X029403Y002081D01*
X029470Y002115D01*
X029542Y002138D01*
X029616Y002150D01*
X029634Y002150D01*
X029634Y001690D01*
X029634Y001650D01*
X029174Y001650D01*
X029174Y001632D01*
X029186Y001558D01*
X029209Y001486D01*
X029244Y001418D01*
X029255Y001403D01*
X029010Y001403D01*
X029027Y001421D01*
X029094Y001582D01*
X029094Y001758D01*
X029027Y001919D01*
X028903Y002043D01*
X028742Y002110D01*
X028567Y002110D01*
X028405Y002043D01*
X028281Y001919D01*
X028243Y001827D01*
X028243Y001938D01*
X028138Y002043D01*
X027898Y002283D01*
X027428Y002283D01*
X027323Y002178D01*
X027108Y001963D01*
X025258Y001963D01*
X024978Y002243D01*
X023938Y002243D01*
X022818Y003363D01*
X022757Y003363D01*
X022658Y003462D01*
X022427Y003462D01*
X022264Y003299D01*
X022264Y003068D01*
X022409Y002923D01*
X021738Y002923D01*
X021462Y003199D01*
X021462Y003339D01*
X021298Y003502D01*
X021067Y003502D01*
X020904Y003339D01*
X020904Y003336D01*
X020818Y003422D01*
X020587Y003422D01*
X020489Y003323D01*
X020338Y003323D01*
X021578Y004563D01*
X021609Y004563D01*
X021747Y004425D01*
X021978Y004425D01*
X022142Y004588D01*
X022142Y004705D01*
X022218Y004705D01*
X022382Y004868D01*
X022382Y005099D01*
X022218Y005262D01*
X021987Y005262D01*
X021889Y005163D01*
X021428Y005163D01*
X021323Y005058D01*
X018548Y002283D01*
X017478Y002283D01*
X017701Y002376D01*
X017711Y002373D01*
X017762Y002401D01*
X017814Y002423D01*
X017818Y002432D01*
X018043Y002556D01*
X018053Y002554D01*
X018100Y002588D01*
X018150Y002615D01*
X018153Y002625D01*
X018362Y002774D01*
X018372Y002773D01*
X018415Y002811D01*
X018461Y002844D01*
X018463Y002854D01*
X018654Y003025D01*
X018665Y003026D01*
X018703Y003069D01*
X018746Y003107D01*
X018746Y003117D01*
X018917Y003308D01*
X018927Y003310D01*
X018960Y003357D01*
X018998Y003399D01*
X018998Y003410D01*
X019146Y003619D01*
X019156Y003622D01*
X019184Y003672D01*
X019217Y003718D01*
X019215Y003729D01*
X019339Y003953D01*
X019349Y003957D01*
X019371Y004010D01*
X019398Y004060D01*
X019396Y004070D01*
X019542Y004070D01*
X019513Y004070D02*
X019482Y004070D01*
X019491Y004092D02*
X019619Y003965D01*
X019867Y003965D01*
X019965Y004063D01*
X019986Y004063D01*
X020103Y004181D01*
X020103Y006666D01*
X019896Y006874D01*
X020042Y007020D01*
X020042Y007022D01*
X020179Y006885D01*
X020319Y006885D01*
X020724Y006479D01*
X020724Y006300D01*
X020899Y006125D01*
X021147Y006125D01*
X021322Y006300D01*
X021322Y006547D01*
X021147Y006722D01*
X021047Y006722D01*
X020602Y007167D01*
X020602Y007307D01*
X020445Y007463D01*
X021866Y007463D01*
X021887Y007485D01*
X021943Y007485D01*
X021943Y006086D01*
X021844Y005987D01*
X021844Y005740D01*
X021920Y005663D01*
X021322Y005663D01*
X021322Y005747D01*
X021147Y005922D01*
X020899Y005922D01*
X020724Y005747D01*
X020724Y005500D01*
X020899Y005325D01*
X021039Y005325D01*
X021100Y005263D01*
X021960Y005263D01*
X021880Y005183D01*
X021420Y005183D01*
X021303Y005066D01*
X018540Y002303D01*
X017736Y002303D01*
X017753Y002310D01*
X017766Y002312D01*
X017796Y002328D01*
X017828Y002342D01*
X017838Y002351D01*
X018101Y002497D01*
X018114Y002500D01*
X018142Y002520D01*
X018172Y002536D01*
X018181Y002547D01*
X018426Y002721D01*
X018439Y002726D01*
X018465Y002748D01*
X018493Y002768D01*
X018500Y002780D01*
X018724Y002980D01*
X018737Y002986D01*
X018759Y003012D01*
X018785Y003035D01*
X018791Y003047D01*
X018991Y003271D01*
X019003Y003279D01*
X019023Y003307D01*
X019046Y003332D01*
X019050Y003345D01*
X019224Y003590D01*
X019235Y003599D01*
X019252Y003629D01*
X019271Y003657D01*
X019275Y003671D01*
X019420Y003934D01*
X019430Y003943D01*
X019443Y003975D01*
X019459Y004005D01*
X019461Y004019D01*
X019491Y004092D01*
X019464Y004148D02*
X019627Y003985D01*
X019858Y003985D01*
X019957Y004083D01*
X019978Y004083D01*
X020083Y004189D01*
X020083Y006658D01*
X019867Y006874D01*
X020022Y007028D01*
X020022Y007259D01*
X019896Y007385D01*
X020058Y007385D01*
X020157Y007483D01*
X021858Y007483D01*
X021879Y007505D01*
X021963Y007505D01*
X021963Y006078D01*
X021864Y005979D01*
X021864Y005748D01*
X021969Y005643D01*
X021302Y005643D01*
X021302Y005739D01*
X021138Y005902D01*
X020907Y005902D01*
X020744Y005739D01*
X020744Y005508D01*
X020907Y005345D01*
X021047Y005345D01*
X021108Y005283D01*
X022218Y005283D01*
X022678Y005743D01*
X022668Y005570D01*
X022661Y005562D01*
X022664Y005505D01*
X022661Y005447D01*
X022668Y005440D01*
X022682Y005184D01*
X022676Y005175D01*
X022686Y005119D01*
X022689Y005062D01*
X022697Y005055D01*
X022740Y004802D01*
X022735Y004793D01*
X022750Y004738D01*
X022760Y004682D01*
X022768Y004676D01*
X022839Y004429D01*
X022836Y004420D01*
X022857Y004367D01*
X022873Y004312D01*
X022882Y004307D01*
X022980Y004070D01*
X022978Y004060D01*
X023005Y004010D01*
X023027Y003957D01*
X023037Y003953D01*
X023161Y003729D01*
X023159Y003718D01*
X023192Y003672D01*
X023220Y003622D01*
X023230Y003619D01*
X023378Y003410D01*
X023378Y003399D01*
X023416Y003357D01*
X023449Y003310D01*
X023459Y003308D01*
X023630Y003117D01*
X023630Y003107D01*
X023673Y003069D01*
X023711Y003026D01*
X023722Y003025D01*
X023913Y002854D01*
X023915Y002844D01*
X023961Y002811D01*
X024004Y002773D01*
X024014Y002774D01*
X024223Y002625D01*
X024226Y002615D01*
X024276Y002588D01*
X024323Y002554D01*
X024333Y002556D01*
X024558Y002432D01*
X024562Y002423D01*
X024614Y002401D01*
X024665Y002373D01*
X024674Y002376D01*
X024911Y002278D01*
X024916Y002269D01*
X024971Y002253D01*
X025024Y002231D01*
X025034Y002235D01*
X025280Y002164D01*
X025286Y002155D01*
X025343Y002146D01*
X025398Y002130D01*
X025407Y002135D01*
X025659Y002092D01*
X025666Y002084D01*
X025724Y002081D01*
X025780Y002072D01*
X025788Y002078D01*
X026044Y002063D01*
X026052Y002056D01*
X026109Y002060D01*
X026166Y002056D01*
X026174Y002063D01*
X026430Y002078D01*
X026439Y002072D01*
X026495Y002081D01*
X026552Y002084D01*
X026559Y002092D01*
X026812Y002135D01*
X026821Y002130D01*
X026876Y002146D01*
X026932Y002155D01*
X026938Y002164D01*
X027185Y002235D01*
X027194Y002231D01*
X027247Y002253D01*
X027302Y002269D01*
X027307Y002278D01*
X027544Y002376D01*
X027554Y002373D01*
X027604Y002401D01*
X027657Y002423D01*
X027661Y002432D01*
X027885Y002556D01*
X027895Y002554D01*
X027942Y002588D01*
X027992Y002615D01*
X027995Y002625D01*
X028204Y002774D01*
X028215Y002773D01*
X028257Y002811D01*
X028304Y002844D01*
X028306Y002854D01*
X028497Y003025D01*
X028507Y003026D01*
X028545Y003069D01*
X028588Y003107D01*
X028589Y003117D01*
X028759Y003308D01*
X028770Y003310D01*
X028803Y003357D01*
X028841Y003399D01*
X028840Y003410D01*
X028989Y003619D01*
X028999Y003622D01*
X029026Y003672D01*
X029059Y003718D01*
X029058Y003729D01*
X029182Y003953D01*
X029191Y003957D01*
X029213Y004010D01*
X029241Y004060D01*
X029238Y004070D01*
X029336Y004307D01*
X029345Y004312D01*
X029361Y004367D01*
X029383Y004420D01*
X029379Y004429D01*
X029450Y004676D01*
X029458Y004682D01*
X029468Y004738D01*
X029484Y004793D01*
X029479Y004802D01*
X029522Y005055D01*
X029530Y005062D01*
X029533Y005119D01*
X029542Y005175D01*
X029536Y005184D01*
X029551Y005440D01*
X029558Y005447D01*
X029554Y005505D01*
X029558Y005562D01*
X029551Y005570D01*
X029536Y005826D01*
X029542Y005834D01*
X029533Y005890D01*
X029530Y005948D01*
X029522Y005954D01*
X029479Y006207D01*
X029484Y006216D01*
X029468Y006271D01*
X029458Y006328D01*
X029450Y006334D01*
X029379Y006580D01*
X029383Y006590D01*
X029361Y006643D01*
X029345Y006698D01*
X029310Y006765D02*
X032751Y006765D01*
X032725Y006703D02*
X032716Y006698D01*
X032700Y006643D01*
X032678Y006590D01*
X032682Y006580D01*
X032611Y006334D01*
X032603Y006328D01*
X032593Y006271D01*
X032577Y006216D01*
X032582Y006207D01*
X032539Y005954D01*
X032532Y005948D01*
X032528Y005890D01*
X032519Y005834D01*
X032525Y005826D01*
X032510Y005570D01*
X032503Y005562D01*
X032507Y005505D01*
X032503Y005447D01*
X032510Y005440D01*
X032525Y005184D01*
X032519Y005175D01*
X032528Y005119D01*
X032532Y005062D01*
X032539Y005055D01*
X032582Y004802D01*
X032577Y004793D01*
X032593Y004738D01*
X032603Y004682D01*
X032611Y004676D01*
X032682Y004429D01*
X032678Y004420D01*
X032700Y004367D01*
X032716Y004312D01*
X032725Y004307D01*
X032823Y004070D01*
X032820Y004060D01*
X032848Y004010D01*
X032870Y003957D01*
X032879Y003953D01*
X033003Y003729D01*
X033002Y003718D01*
X033035Y003672D01*
X033062Y003622D01*
X033072Y003619D01*
X033221Y003410D01*
X033220Y003399D01*
X033258Y003357D01*
X033291Y003310D01*
X033302Y003308D01*
X033472Y003117D01*
X033473Y003107D01*
X033516Y003069D01*
X033554Y003026D01*
X033564Y003025D01*
X033755Y002854D01*
X033757Y002844D01*
X033804Y002811D01*
X033846Y002773D01*
X033857Y002774D01*
X034066Y002625D01*
X034069Y002615D01*
X034119Y002588D01*
X034166Y002554D01*
X034176Y002556D01*
X034400Y002432D01*
X034404Y002423D01*
X034457Y002401D01*
X034507Y002373D01*
X034517Y002376D01*
X034754Y002278D01*
X034759Y002269D01*
X034814Y002253D01*
X034867Y002231D01*
X034876Y002235D01*
X035123Y002164D01*
X035129Y002155D01*
X035185Y002146D01*
X035240Y002130D01*
X035249Y002135D01*
X035502Y002092D01*
X035509Y002084D01*
X035566Y002081D01*
X035623Y002072D01*
X035631Y002078D01*
X035887Y002063D01*
X035895Y002056D01*
X035952Y002060D01*
X036009Y002056D01*
X036017Y002063D01*
X036273Y002078D01*
X036281Y002072D01*
X036338Y002081D01*
X036395Y002084D01*
X036402Y002092D01*
X036654Y002135D01*
X036663Y002130D01*
X036718Y002146D01*
X036775Y002155D01*
X036781Y002164D01*
X037027Y002235D01*
X037037Y002231D01*
X037090Y002253D01*
X037145Y002269D01*
X037150Y002278D01*
X037387Y002376D01*
X037396Y002373D01*
X037447Y002401D01*
X037499Y002423D01*
X037503Y002432D01*
X037728Y002556D01*
X037738Y002554D01*
X037785Y002588D01*
X037835Y002615D01*
X037838Y002625D01*
X038047Y002774D01*
X038057Y002773D01*
X038100Y002811D01*
X038146Y002844D01*
X038148Y002854D01*
X038339Y003025D01*
X038350Y003026D01*
X038388Y003069D01*
X038431Y003107D01*
X038431Y003117D01*
X038602Y003308D01*
X038612Y003310D01*
X038645Y003357D01*
X038683Y003399D01*
X038683Y003410D01*
X038831Y003619D01*
X038841Y003622D01*
X038869Y003672D01*
X038902Y003718D01*
X038900Y003729D01*
X039024Y003953D01*
X039034Y003957D01*
X039056Y004010D01*
X039083Y004060D01*
X039081Y004070D01*
X039179Y004307D01*
X039188Y004312D01*
X039204Y004367D01*
X039225Y004420D01*
X039222Y004429D01*
X039293Y004676D01*
X039301Y004682D01*
X039311Y004738D01*
X039326Y004793D01*
X039321Y004802D01*
X039364Y005055D01*
X039372Y005062D01*
X039375Y005119D01*
X039385Y005175D01*
X039379Y005184D01*
X039393Y005440D01*
X039400Y005447D01*
X039397Y005505D01*
X039400Y005562D01*
X039393Y005570D01*
X039379Y005826D01*
X039385Y005834D01*
X039375Y005890D01*
X039372Y005948D01*
X039364Y005954D01*
X039321Y006207D01*
X039326Y006216D01*
X039311Y006271D01*
X039301Y006328D01*
X039293Y006334D01*
X039222Y006580D01*
X039225Y006590D01*
X039204Y006643D01*
X039188Y006698D01*
X039179Y006703D01*
X039081Y006939D01*
X039083Y006949D01*
X039056Y006999D01*
X039034Y007052D01*
X039024Y007056D01*
X038900Y007281D01*
X038902Y007291D01*
X038869Y007338D01*
X038841Y007388D01*
X038831Y007391D01*
X038683Y007600D01*
X038683Y007610D01*
X038645Y007653D01*
X038612Y007699D01*
X038602Y007701D01*
X038431Y007892D01*
X038431Y007903D01*
X038388Y007941D01*
X038350Y007983D01*
X038339Y007984D01*
X038148Y008155D01*
X038146Y008165D01*
X038100Y008198D01*
X038057Y008236D01*
X038047Y008236D01*
X037838Y008384D01*
X037835Y008394D01*
X037785Y008422D01*
X037738Y008455D01*
X037728Y008453D01*
X037503Y008577D01*
X037499Y008587D01*
X037447Y008609D01*
X037396Y008636D01*
X037387Y008633D01*
X037150Y008732D01*
X037145Y008741D01*
X037090Y008756D01*
X037037Y008778D01*
X037027Y008774D01*
X036781Y008845D01*
X036775Y008854D01*
X036718Y008863D01*
X036663Y008879D01*
X036654Y008874D01*
X036402Y008917D01*
X036395Y008925D01*
X036338Y008928D01*
X036281Y008938D01*
X036273Y008932D01*
X036017Y008946D01*
X036009Y008953D01*
X035952Y008950D01*
X035895Y008953D01*
X035887Y008946D01*
X035631Y008932D01*
X035623Y008938D01*
X035566Y008928D01*
X035509Y008925D01*
X035502Y008917D01*
X035249Y008874D01*
X035240Y008879D01*
X035185Y008863D01*
X035129Y008854D01*
X035123Y008845D01*
X034876Y008774D01*
X034867Y008778D01*
X034814Y008756D01*
X034759Y008741D01*
X034754Y008732D01*
X034517Y008633D01*
X034507Y008636D01*
X034457Y008609D01*
X034404Y008587D01*
X034400Y008577D01*
X034176Y008453D01*
X034166Y008455D01*
X034119Y008422D01*
X034069Y008394D01*
X034066Y008384D01*
X033857Y008236D01*
X033846Y008236D01*
X033804Y008198D01*
X033757Y008165D01*
X033755Y008155D01*
X033564Y007984D01*
X033554Y007983D01*
X033516Y007941D01*
X033473Y007903D01*
X033472Y007892D01*
X033302Y007701D01*
X033291Y007699D01*
X033258Y007653D01*
X033220Y007610D01*
X033221Y007600D01*
X033072Y007391D01*
X033062Y007388D01*
X033035Y007338D01*
X033002Y007291D01*
X033003Y007281D01*
X032879Y007056D01*
X032870Y007052D01*
X032848Y006999D01*
X032820Y006949D01*
X032823Y006939D01*
X032725Y006703D01*
X032642Y006713D02*
X032757Y006990D01*
X032759Y007004D01*
X032776Y007034D01*
X032789Y007066D01*
X032799Y007076D01*
X032944Y007339D01*
X032947Y007352D01*
X032967Y007380D01*
X032983Y007410D01*
X032994Y007419D01*
X033168Y007664D01*
X033173Y007677D01*
X033196Y007703D01*
X033215Y007731D01*
X033227Y007738D01*
X033427Y007962D01*
X033433Y007975D01*
X033459Y007997D01*
X033482Y008023D01*
X033494Y008029D01*
X033718Y008229D01*
X033726Y008241D01*
X033754Y008261D01*
X033779Y008284D01*
X033792Y008288D01*
X034038Y008462D01*
X034046Y008473D01*
X034076Y008490D01*
X034104Y008509D01*
X034118Y008512D01*
X034381Y008658D01*
X034391Y008668D01*
X034422Y008681D01*
X034452Y008697D01*
X034466Y008699D01*
X034744Y008814D01*
X034755Y008823D01*
X034787Y008832D01*
X034819Y008845D01*
X034833Y008845D01*
X035122Y008928D01*
X035134Y008936D01*
X035167Y008942D01*
X035200Y008951D01*
X035214Y008949D01*
X035510Y009000D01*
X035523Y009006D01*
X035557Y009008D01*
X035591Y009013D01*
X035604Y009010D01*
X035904Y009027D01*
X035918Y009032D01*
X035952Y009030D01*
X035986Y009032D01*
X035999Y009027D01*
X036299Y009010D01*
X036313Y009013D01*
X036346Y009008D01*
X036381Y009006D01*
X036393Y009000D01*
X036690Y008949D01*
X036703Y008951D01*
X036736Y008942D01*
X036770Y008936D01*
X036782Y008928D01*
X037071Y008845D01*
X037084Y008845D01*
X037116Y008832D01*
X037149Y008823D01*
X037160Y008814D01*
X037438Y008699D01*
X037451Y008697D01*
X037481Y008681D01*
X037513Y008668D01*
X037523Y008658D01*
X037786Y008512D01*
X037799Y008509D01*
X037827Y008490D01*
X037857Y008473D01*
X037866Y008462D01*
X038111Y008288D01*
X038124Y008284D01*
X038150Y008261D01*
X038178Y008241D01*
X038185Y008229D01*
X038409Y008029D01*
X038422Y008023D01*
X038445Y007997D01*
X038470Y007975D01*
X038476Y007962D01*
X038676Y007738D01*
X038688Y007731D01*
X038708Y007703D01*
X038731Y007677D01*
X038735Y007664D01*
X038909Y007419D01*
X038920Y007410D01*
X038937Y007380D01*
X038957Y007352D01*
X038960Y007339D01*
X039105Y007076D01*
X039115Y007066D01*
X039128Y007034D01*
X039144Y007004D01*
X039146Y006990D01*
X039261Y006713D01*
X039270Y006702D01*
X039279Y006669D01*
X039292Y006637D01*
X039292Y006623D01*
X039376Y006335D01*
X039383Y006323D01*
X039389Y006289D01*
X039398Y006256D01*
X039397Y006242D01*
X039447Y005946D01*
X039453Y005934D01*
X039455Y005899D01*
X039461Y005866D01*
X039458Y005852D01*
X039474Y005552D01*
X039479Y005539D01*
X039477Y005505D01*
X039479Y005470D01*
X039474Y005457D01*
X039458Y005157D01*
X039461Y005144D01*
X039455Y005110D01*
X039453Y005076D01*
X039447Y005063D01*
X039397Y004767D01*
X039398Y004753D01*
X039389Y004720D01*
X039383Y004686D01*
X039376Y004675D01*
X039292Y004386D01*
X039292Y004372D01*
X039279Y004340D01*
X039270Y004307D01*
X039261Y004297D01*
X039146Y004019D01*
X039144Y004005D01*
X039128Y003975D01*
X039115Y003943D01*
X039105Y003934D01*
X038960Y003671D01*
X038957Y003657D01*
X038937Y003629D01*
X038920Y003599D01*
X038909Y003590D01*
X038735Y003345D01*
X038731Y003332D01*
X038708Y003307D01*
X038688Y003279D01*
X038676Y003271D01*
X038476Y003047D01*
X038470Y003035D01*
X038445Y003012D01*
X038422Y002986D01*
X038409Y002980D01*
X038185Y002780D01*
X038178Y002768D01*
X038150Y002748D01*
X038124Y002726D01*
X038111Y002721D01*
X037866Y002547D01*
X037857Y002536D01*
X037827Y002520D01*
X037799Y002500D01*
X037786Y002497D01*
X037523Y002351D01*
X037513Y002342D01*
X037481Y002328D01*
X037451Y002312D01*
X037438Y002310D01*
X037273Y002242D01*
X037387Y002242D01*
X037562Y002067D01*
X037562Y001823D01*
X038427Y001823D01*
X039973Y003369D01*
X039973Y003626D01*
X039953Y003634D01*
X039804Y003783D01*
X039723Y003978D01*
X039723Y004189D01*
X039804Y004384D01*
X039953Y004533D01*
X040125Y004604D01*
X040053Y004634D01*
X039904Y004783D01*
X039823Y004978D01*
X039823Y005189D01*
X039904Y005384D01*
X040053Y005533D01*
X040125Y005563D01*
X039953Y005634D01*
X039804Y005783D01*
X039723Y005978D01*
X039723Y006189D01*
X039804Y006384D01*
X039953Y006533D01*
X039956Y006534D01*
X039913Y006546D01*
X039872Y006569D01*
X039839Y006603D01*
X039815Y006644D01*
X039803Y006690D01*
X039803Y007063D01*
X040333Y007063D01*
X040333Y007103D01*
X039803Y007103D01*
X039803Y007477D01*
X039815Y007523D01*
X039839Y007564D01*
X039872Y007597D01*
X039913Y007621D01*
X039959Y007633D01*
X040333Y007633D01*
X040333Y007103D01*
X040333Y007063D01*
X039803Y007063D01*
X039803Y006690D01*
X039815Y006644D01*
X039839Y006603D01*
X039872Y006569D01*
X039913Y006546D01*
X039959Y006533D01*
X040007Y006533D01*
X039964Y006516D01*
X039821Y006372D01*
X039743Y006185D01*
X039743Y005982D01*
X039821Y005794D01*
X039964Y005651D01*
X040152Y005573D01*
X040203Y005573D01*
X040064Y005516D01*
X039921Y005372D01*
X039843Y005185D01*
X039843Y004982D01*
X039921Y004794D01*
X040064Y004651D01*
X040203Y004593D01*
X040152Y004593D01*
X039964Y004516D01*
X039821Y004372D01*
X039743Y004185D01*
X039743Y003982D01*
X039821Y003794D01*
X039964Y003651D01*
X039993Y003639D01*
X039993Y003361D01*
X038435Y001803D01*
X037517Y001803D01*
X037542Y001828D01*
X037542Y002059D01*
X037378Y002222D01*
X037147Y002222D01*
X036984Y002059D01*
X036984Y001963D01*
X035188Y001963D01*
X034628Y001403D01*
X030054Y001403D01*
X030065Y001418D01*
X030099Y001486D01*
X030122Y001558D01*
X030134Y001632D01*
X030134Y001650D01*
X029674Y001650D01*
X029674Y001690D01*
X029674Y002150D01*
X029692Y002150D01*
X029767Y002138D01*
X029838Y002115D01*
X029906Y002081D01*
X029967Y002036D01*
X030020Y001983D01*
X030065Y001922D01*
X030099Y001854D01*
X030122Y001782D01*
X030134Y001708D01*
X030134Y001690D01*
X029674Y001690D01*
X029634Y001690D01*
X029174Y001690D01*
X029174Y001708D01*
X029186Y001782D01*
X029209Y001854D01*
X029244Y001922D01*
X029288Y001983D01*
X029341Y002036D01*
X029403Y002081D01*
X029470Y002115D01*
X029542Y002138D01*
X029616Y002150D01*
X029634Y002150D01*
X029634Y001690D01*
X029634Y001693D02*
X029674Y001693D01*
X029634Y001693D01*
X029674Y001690D02*
X029674Y002150D01*
X029692Y002150D01*
X029767Y002138D01*
X029838Y002115D01*
X029906Y002081D01*
X029967Y002036D01*
X030020Y001983D01*
X030065Y001922D01*
X030099Y001854D01*
X030122Y001782D01*
X030134Y001708D01*
X030134Y001690D01*
X029674Y001690D01*
X030134Y001693D02*
X034890Y001693D01*
X034918Y001693D02*
X030134Y001693D01*
X030115Y001534D02*
X034731Y001534D01*
X034759Y001534D02*
X030115Y001534D01*
X029193Y001534D02*
X029096Y001534D01*
X029074Y001534D02*
X029193Y001534D01*
X029174Y001693D02*
X029094Y001693D01*
X029114Y001693D02*
X029174Y001693D01*
X029208Y001851D02*
X029077Y001851D01*
X029055Y001851D02*
X029208Y001851D01*
X029315Y002010D02*
X028965Y002010D01*
X028936Y002010D02*
X029315Y002010D01*
X029634Y002010D02*
X029674Y002010D01*
X029634Y002010D01*
X029634Y001851D02*
X029674Y001851D01*
X029634Y001851D01*
X029993Y002010D02*
X035508Y002010D01*
X035107Y002168D02*
X028013Y002168D01*
X028041Y002168D02*
X034809Y002168D01*
X034635Y002327D02*
X027426Y002327D01*
X027636Y002327D02*
X034425Y002327D01*
X034304Y002485D02*
X027757Y002485D01*
X027923Y002485D02*
X034138Y002485D01*
X034039Y002644D02*
X028022Y002644D01*
X028160Y002644D02*
X033901Y002644D01*
X033814Y002802D02*
X028247Y002802D01*
X028368Y002802D02*
X033693Y002802D01*
X033636Y002961D02*
X028425Y002961D01*
X028545Y002961D02*
X033516Y002961D01*
X033470Y003119D02*
X028591Y003119D01*
X028698Y003119D02*
X033363Y003119D01*
X033329Y003278D02*
X028732Y003278D01*
X028844Y003278D02*
X033217Y003278D01*
X033202Y003436D02*
X028859Y003436D01*
X028957Y003436D02*
X033104Y003436D01*
X033089Y003595D02*
X028972Y003595D01*
X029072Y003595D02*
X032989Y003595D01*
X032990Y003753D02*
X029071Y003753D01*
X029163Y003753D02*
X032898Y003753D01*
X032902Y003912D02*
X029159Y003912D01*
X029250Y003912D02*
X032811Y003912D01*
X032823Y004070D02*
X029238Y004070D01*
X029325Y004070D02*
X032736Y004070D01*
X032757Y004229D02*
X029304Y004229D01*
X029391Y004229D02*
X032670Y004229D01*
X032691Y004387D02*
X029370Y004387D01*
X029450Y004387D02*
X032611Y004387D01*
X032648Y004546D02*
X029413Y004546D01*
X029496Y004546D02*
X032565Y004546D01*
X032599Y004704D02*
X029462Y004704D01*
X029543Y004704D02*
X032518Y004704D01*
X032491Y004863D02*
X031478Y004863D01*
X032572Y004863D01*
X032545Y005021D02*
X031637Y005021D01*
X032464Y005021D01*
X032445Y005180D02*
X031730Y005180D01*
X032522Y005180D01*
X032516Y005338D02*
X031796Y005338D01*
X032436Y005338D01*
X031801Y005351D02*
X031684Y005068D01*
X031467Y004851D01*
X031184Y004734D01*
X030877Y004734D01*
X030594Y004851D01*
X030377Y005068D01*
X030260Y005351D01*
X030260Y005658D01*
X030377Y005941D01*
X030594Y006158D01*
X030877Y006275D01*
X031184Y006275D01*
X031467Y006158D01*
X031684Y005941D01*
X031801Y005658D01*
X031801Y005351D01*
X031684Y005068D01*
X031467Y004851D01*
X031184Y004734D01*
X030877Y004734D01*
X030594Y004851D01*
X030377Y005068D01*
X030260Y005351D01*
X030260Y005658D01*
X030377Y005941D01*
X030594Y006158D01*
X030877Y006275D01*
X031184Y006275D01*
X031467Y006158D01*
X031684Y005941D01*
X031801Y005658D01*
X031801Y005351D01*
X031801Y005497D02*
X032426Y005497D01*
X032506Y005497D02*
X031801Y005497D01*
X031801Y005655D02*
X032435Y005655D01*
X032515Y005655D02*
X031801Y005655D01*
X031736Y005814D02*
X032444Y005814D01*
X032524Y005814D02*
X031736Y005814D01*
X031652Y005972D02*
X032461Y005972D01*
X032542Y005972D02*
X031652Y005972D01*
X031494Y006131D02*
X032488Y006131D01*
X032569Y006131D02*
X031494Y006131D01*
X030567Y006131D02*
X029573Y006131D01*
X029492Y006131D02*
X030567Y006131D01*
X030409Y005972D02*
X029600Y005972D01*
X029519Y005972D02*
X030409Y005972D01*
X030325Y005814D02*
X029617Y005814D01*
X029537Y005814D02*
X030325Y005814D01*
X030260Y005655D02*
X029626Y005655D01*
X029546Y005655D02*
X030260Y005655D01*
X030260Y005497D02*
X029635Y005497D01*
X029555Y005497D02*
X030260Y005497D01*
X030265Y005338D02*
X029625Y005338D01*
X029545Y005338D02*
X030265Y005338D01*
X030331Y005180D02*
X029616Y005180D01*
X029539Y005180D02*
X030331Y005180D01*
X030424Y005021D02*
X029597Y005021D01*
X029516Y005021D02*
X030424Y005021D01*
X030583Y004863D02*
X029570Y004863D01*
X029489Y004863D02*
X030583Y004863D01*
X029546Y006289D02*
X032515Y006289D01*
X032596Y006289D02*
X029465Y006289D01*
X029500Y006448D02*
X032561Y006448D01*
X032644Y006448D02*
X029417Y006448D01*
X029455Y006606D02*
X032606Y006606D01*
X032685Y006606D02*
X029376Y006606D01*
X029331Y006923D02*
X031140Y006923D01*
X031169Y006923D02*
X029245Y006923D01*
X029259Y007082D02*
X031124Y007082D01*
X031144Y007082D02*
X029168Y007082D01*
X029171Y007240D02*
X031177Y007240D01*
X031206Y007240D02*
X029080Y007240D01*
X029084Y007399D02*
X031476Y007399D01*
X031504Y007399D02*
X028983Y007399D01*
X028968Y007557D02*
X031634Y007557D01*
X031662Y007557D02*
X028870Y007557D01*
X028856Y007716D02*
X030268Y007716D01*
X030296Y007716D02*
X028746Y007716D01*
X028712Y007874D02*
X030164Y007874D01*
X030184Y007874D02*
X028605Y007874D01*
X028562Y008033D02*
X030164Y008033D01*
X030184Y008033D02*
X028442Y008033D01*
X028385Y008191D02*
X030263Y008191D01*
X030283Y008191D02*
X028267Y008191D01*
X028182Y008350D02*
X030263Y008350D01*
X030283Y008350D02*
X028043Y008350D01*
X027958Y008508D02*
X030263Y008508D01*
X030283Y008508D02*
X027785Y008508D01*
X027671Y008667D02*
X030263Y008667D01*
X030283Y008667D02*
X027463Y008667D01*
X027297Y008825D02*
X030263Y008825D01*
X030283Y008825D02*
X027008Y008825D01*
X026644Y008984D02*
X028800Y008984D01*
X029086Y008984D02*
X030263Y008984D01*
X030283Y008984D02*
X023862Y008984D01*
X023882Y008984D02*
X025574Y008984D01*
X025861Y009142D02*
X023806Y009142D01*
X023778Y009142D02*
X025889Y009142D01*
X025731Y009301D02*
X023835Y009301D01*
X023863Y009301D02*
X025703Y009301D01*
X025572Y009459D02*
X024293Y009459D01*
X024321Y009459D02*
X025544Y009459D01*
X025414Y009618D02*
X024422Y009618D01*
X024442Y009618D02*
X025386Y009618D01*
X025255Y009776D02*
X024422Y009776D01*
X024442Y009776D02*
X025087Y009776D01*
X024957Y009935D02*
X024306Y009935D01*
X024334Y009935D02*
X024929Y009935D01*
X024924Y010093D02*
X024095Y010093D01*
X024067Y010093D02*
X024944Y010093D01*
X024922Y008825D02*
X023882Y008825D01*
X023859Y008825D02*
X025211Y008825D01*
X024755Y008667D02*
X023701Y008667D01*
X023729Y008667D02*
X024547Y008667D01*
X024433Y008508D02*
X023403Y008508D01*
X023431Y008508D02*
X024260Y008508D01*
X024175Y008350D02*
X023871Y008350D01*
X023899Y008350D02*
X024037Y008350D01*
X023575Y008350D02*
X023403Y008350D01*
X023423Y008350D02*
X023547Y008350D01*
X023444Y008191D02*
X023403Y008191D01*
X023423Y008191D02*
X023424Y008191D01*
X021689Y007963D02*
X021624Y007899D01*
X021624Y007843D01*
X020157Y007843D01*
X020058Y007942D01*
X019827Y007942D01*
X019664Y007779D01*
X019664Y007548D01*
X019790Y007422D01*
X019627Y007422D01*
X019593Y007388D01*
X018803Y008178D01*
X018803Y009169D01*
X018902Y009268D01*
X018902Y009499D01*
X018738Y009662D01*
X018507Y009662D01*
X018383Y009538D01*
X018258Y009662D01*
X018027Y009662D01*
X017864Y009499D01*
X017864Y009268D01*
X018027Y009105D01*
X018167Y009105D01*
X018203Y009069D01*
X018203Y008348D01*
X018153Y008384D01*
X018150Y008394D01*
X018100Y008422D01*
X018053Y008455D01*
X018043Y008453D01*
X017818Y008577D01*
X017814Y008587D01*
X017762Y008609D01*
X017711Y008636D01*
X017701Y008633D01*
X017465Y008732D01*
X017460Y008741D01*
X017405Y008756D01*
X017352Y008778D01*
X017342Y008774D01*
X017096Y008845D01*
X017090Y008854D01*
X017033Y008863D01*
X016978Y008879D01*
X016969Y008874D01*
X016717Y008917D01*
X016710Y008925D01*
X016652Y008928D01*
X016596Y008938D01*
X016588Y008932D01*
X016332Y008946D01*
X016324Y008953D01*
X016267Y008950D01*
X016210Y008953D01*
X016202Y008946D01*
X015946Y008932D01*
X015937Y008938D01*
X015881Y008928D01*
X015824Y008925D01*
X015817Y008917D01*
X015564Y008874D01*
X015555Y008879D01*
X015500Y008863D01*
X015444Y008854D01*
X015438Y008845D01*
X015191Y008774D01*
X015182Y008778D01*
X015129Y008756D01*
X015074Y008741D01*
X015069Y008732D01*
X014832Y008633D01*
X014822Y008636D01*
X014772Y008609D01*
X014719Y008587D01*
X014715Y008577D01*
X014491Y008453D01*
X014481Y008455D01*
X014434Y008422D01*
X014384Y008394D01*
X014381Y008384D01*
X014172Y008236D01*
X014161Y008236D01*
X014119Y008198D01*
X014072Y008165D01*
X014070Y008155D01*
X013879Y007984D01*
X013869Y007983D01*
X013831Y007941D01*
X013788Y007903D01*
X013787Y007892D01*
X013617Y007701D01*
X013606Y007699D01*
X013573Y007653D01*
X013535Y007610D01*
X013536Y007600D01*
X013387Y007391D01*
X013377Y007388D01*
X013350Y007338D01*
X013317Y007291D01*
X013318Y007281D01*
X013194Y007056D01*
X013185Y007052D01*
X013163Y006999D01*
X013135Y006949D01*
X013138Y006939D01*
X013040Y006703D01*
X013031Y006698D01*
X013015Y006643D01*
X012993Y006590D01*
X012997Y006580D01*
X012926Y006334D01*
X012918Y006328D01*
X012908Y006271D01*
X012892Y006216D01*
X012897Y006207D01*
X012854Y005954D01*
X012846Y005948D01*
X012843Y005890D01*
X012834Y005834D01*
X012840Y005826D01*
X012825Y005570D01*
X012818Y005562D01*
X012822Y005505D01*
X012818Y005447D01*
X012825Y005440D01*
X012840Y005184D01*
X012834Y005175D01*
X012843Y005119D01*
X012846Y005062D01*
X012854Y005055D01*
X012897Y004802D01*
X012892Y004793D01*
X012908Y004738D01*
X012918Y004682D01*
X012926Y004676D01*
X012997Y004429D01*
X012993Y004420D01*
X013015Y004367D01*
X013031Y004312D01*
X013040Y004307D01*
X013138Y004070D01*
X013135Y004060D01*
X013163Y004010D01*
X013185Y003957D01*
X013194Y003953D01*
X013318Y003729D01*
X013317Y003718D01*
X013350Y003672D01*
X013377Y003622D01*
X013387Y003619D01*
X013536Y003410D01*
X013535Y003399D01*
X013573Y003357D01*
X013606Y003310D01*
X013617Y003308D01*
X013787Y003117D01*
X013788Y003107D01*
X013831Y003069D01*
X013869Y003026D01*
X013879Y003025D01*
X014070Y002854D01*
X014072Y002844D01*
X014119Y002811D01*
X014161Y002773D01*
X014172Y002774D01*
X014381Y002625D01*
X014384Y002615D01*
X014434Y002588D01*
X014481Y002554D01*
X014491Y002556D01*
X014715Y002432D01*
X014719Y002423D01*
X014772Y002401D01*
X014822Y002373D01*
X014832Y002376D01*
X015055Y002283D01*
X014948Y002283D01*
X014468Y001803D01*
X013638Y001803D01*
X013338Y002103D01*
X012708Y002103D01*
X012603Y001998D01*
X012423Y001818D01*
X012338Y001902D01*
X012107Y001902D01*
X011944Y001739D01*
X011944Y001563D01*
X011338Y001563D01*
X010883Y002018D01*
X010883Y002689D01*
X010982Y002788D01*
X010982Y003019D01*
X010818Y003182D01*
X010587Y003182D01*
X010483Y003078D01*
X010483Y003149D01*
X010519Y003185D01*
X010658Y003185D01*
X010822Y003348D01*
X010822Y003579D01*
X010658Y003742D01*
X010427Y003742D01*
X010264Y003579D01*
X010264Y003439D01*
X010123Y003298D01*
X010123Y002029D01*
X010908Y001243D01*
X007371Y001243D01*
X006923Y001691D01*
X006850Y001764D01*
X006755Y001803D01*
X003931Y001803D01*
X002293Y003441D01*
X002293Y003639D01*
X002322Y003651D01*
X002465Y003794D01*
X002543Y003982D01*
X002543Y004185D01*
X002465Y004372D01*
X002322Y004516D01*
X002183Y004573D01*
X002234Y004573D01*
X002422Y004651D01*
X002565Y004794D01*
X002643Y004982D01*
X002643Y005185D01*
X002565Y005372D01*
X002422Y005516D01*
X002234Y005593D01*
X002183Y005593D01*
X002322Y005651D01*
X002465Y005794D01*
X002543Y005982D01*
X002543Y006185D01*
X002465Y006372D01*
X002322Y006516D01*
X002279Y006533D01*
X002527Y006533D01*
X002572Y006546D01*
X002613Y006569D01*
X002647Y006603D01*
X002671Y006644D01*
X002683Y006690D01*
X002683Y007063D01*
X002153Y007063D01*
X002153Y007103D01*
X002683Y007103D01*
X002683Y007477D01*
X002671Y007523D01*
X002647Y007564D01*
X002613Y007597D01*
X002572Y007621D01*
X002527Y007633D01*
X002153Y007633D01*
X002153Y007103D01*
X002683Y007103D01*
X002683Y007477D01*
X002671Y007523D01*
X002647Y007564D01*
X002613Y007597D01*
X002572Y007621D01*
X002527Y007633D01*
X002153Y007633D01*
X002153Y007103D01*
X002153Y007063D01*
X002683Y007063D01*
X002683Y006690D01*
X002671Y006644D01*
X002647Y006603D01*
X002613Y006569D01*
X002572Y006546D01*
X002527Y006533D01*
X002332Y006533D01*
X002333Y006533D01*
X002482Y006384D01*
X002563Y006189D01*
X002563Y005978D01*
X002482Y005783D01*
X002333Y005634D01*
X002261Y005604D01*
X002433Y005533D01*
X002582Y005384D01*
X002663Y005189D01*
X002663Y004978D01*
X002582Y004783D01*
X002433Y004634D01*
X002261Y004563D01*
X002333Y004533D01*
X002482Y004384D01*
X002563Y004189D01*
X002563Y003978D01*
X002482Y003783D01*
X002333Y003634D01*
X002313Y003626D01*
X002313Y003449D01*
X003939Y001823D01*
X006759Y001823D01*
X006862Y001781D01*
X006940Y001702D01*
X007379Y001263D01*
X010860Y001263D01*
X010103Y002021D01*
X010103Y003306D01*
X010244Y003447D01*
X010244Y003587D01*
X010419Y003762D01*
X010667Y003762D01*
X010842Y003587D01*
X010842Y003340D01*
X010704Y003202D01*
X010827Y003202D01*
X011002Y003027D01*
X011002Y002780D01*
X010903Y002681D01*
X010903Y002026D01*
X011346Y001583D01*
X011924Y001583D01*
X011924Y001747D01*
X012099Y001922D01*
X012347Y001922D01*
X012423Y001846D01*
X012583Y002006D01*
X012700Y002123D01*
X013346Y002123D01*
X013646Y001823D01*
X014460Y001823D01*
X014898Y002262D01*
X014781Y002310D01*
X014767Y002312D01*
X014737Y002328D01*
X014706Y002342D01*
X014696Y002351D01*
X014433Y002497D01*
X014419Y002500D01*
X014391Y002520D01*
X014361Y002536D01*
X014353Y002547D01*
X014107Y002721D01*
X014094Y002726D01*
X014069Y002748D01*
X014041Y002768D01*
X014033Y002780D01*
X013809Y002980D01*
X013797Y002986D01*
X013774Y003012D01*
X013748Y003035D01*
X013742Y003047D01*
X013542Y003271D01*
X013530Y003279D01*
X013511Y003307D01*
X013488Y003332D01*
X013483Y003345D01*
X013309Y003590D01*
X013298Y003599D01*
X013282Y003629D01*
X013262Y003657D01*
X013259Y003671D01*
X013113Y003934D01*
X013104Y003943D01*
X013091Y003975D01*
X013074Y004005D01*
X013072Y004019D01*
X012957Y004297D01*
X012949Y004307D01*
X012939Y004340D01*
X012926Y004372D01*
X012926Y004386D01*
X012843Y004675D01*
X012836Y004686D01*
X012830Y004720D01*
X012820Y004753D01*
X012822Y004767D01*
X012772Y005063D01*
X012766Y005076D01*
X012764Y005110D01*
X012758Y005144D01*
X012761Y005157D01*
X012744Y005457D01*
X012740Y005470D01*
X012741Y005505D01*
X012740Y005539D01*
X012744Y005552D01*
X012761Y005852D01*
X012758Y005866D01*
X012764Y005899D01*
X012766Y005934D01*
X012772Y005946D01*
X012822Y006242D01*
X012820Y006256D01*
X012830Y006289D01*
X012836Y006323D01*
X012843Y006335D01*
X012926Y006623D01*
X012926Y006637D01*
X012939Y006669D01*
X012949Y006702D01*
X012957Y006713D01*
X013072Y006990D01*
X013074Y007004D01*
X013091Y007034D01*
X013104Y007066D01*
X013113Y007076D01*
X013259Y007339D01*
X013262Y007352D01*
X013282Y007380D01*
X013298Y007410D01*
X013309Y007419D01*
X013483Y007664D01*
X013488Y007677D01*
X013511Y007703D01*
X013530Y007731D01*
X013542Y007738D01*
X013742Y007962D01*
X013748Y007975D01*
X013774Y007997D01*
X013797Y008023D01*
X013809Y008029D01*
X014033Y008229D01*
X014041Y008241D01*
X014069Y008261D01*
X014094Y008284D01*
X014107Y008288D01*
X014353Y008462D01*
X014361Y008473D01*
X014391Y008490D01*
X014419Y008509D01*
X014433Y008512D01*
X014696Y008658D01*
X014706Y008668D01*
X014737Y008681D01*
X014767Y008697D01*
X014781Y008699D01*
X015059Y008814D01*
X015069Y008823D01*
X015102Y008832D01*
X015134Y008845D01*
X015148Y008845D01*
X015437Y008928D01*
X015449Y008936D01*
X015482Y008942D01*
X015515Y008951D01*
X015529Y008949D01*
X015825Y009000D01*
X015838Y009006D01*
X015872Y009008D01*
X015906Y009013D01*
X015919Y009010D01*
X016219Y009027D01*
X016233Y009032D01*
X016267Y009030D01*
X016301Y009032D01*
X016314Y009027D01*
X016614Y009010D01*
X016628Y009013D01*
X016661Y009008D01*
X016696Y009006D01*
X016708Y009000D01*
X017004Y008949D01*
X017018Y008951D01*
X017051Y008942D01*
X017085Y008936D01*
X017097Y008928D01*
X017386Y008845D01*
X017399Y008845D01*
X017431Y008832D01*
X017464Y008823D01*
X017475Y008814D01*
X017753Y008699D01*
X017766Y008697D01*
X017796Y008681D01*
X017828Y008668D01*
X017838Y008658D01*
X018101Y008512D01*
X018114Y008509D01*
X018142Y008490D01*
X018172Y008473D01*
X018181Y008462D01*
X018183Y008461D01*
X018183Y009061D01*
X018159Y009085D01*
X018019Y009085D01*
X017844Y009260D01*
X017844Y009507D01*
X018019Y009682D01*
X018267Y009682D01*
X018383Y009566D01*
X018499Y009682D01*
X018747Y009682D01*
X018922Y009507D01*
X018922Y009260D01*
X018823Y009161D01*
X018823Y008486D01*
X018979Y008642D01*
X019227Y008642D01*
X019325Y008543D01*
X019500Y008543D01*
X019199Y008845D01*
X019099Y008845D01*
X018924Y009020D01*
X018924Y009267D01*
X019099Y009442D01*
X019347Y009442D01*
X019433Y009356D01*
X019433Y009595D01*
X019550Y009878D01*
X019656Y009983D01*
X017346Y009983D01*
X016583Y009221D01*
X016466Y009103D01*
X013646Y009103D01*
X012086Y007543D01*
X009293Y007543D01*
X009382Y007419D01*
X009393Y007410D01*
X009409Y007380D01*
X009429Y007352D01*
X009432Y007339D01*
X009577Y007076D01*
X009587Y007066D01*
X009600Y007034D01*
X009617Y007004D01*
X009618Y006990D01*
X009734Y006713D01*
X009742Y006702D01*
X009752Y006669D01*
X009765Y006637D01*
X009765Y006623D01*
X009848Y006335D01*
X009855Y006323D01*
X009861Y006289D01*
X009871Y006256D01*
X009869Y006242D01*
X009919Y005946D01*
X009925Y005934D01*
X009927Y005899D01*
X009933Y005866D01*
X009930Y005852D01*
X009947Y005552D01*
X009951Y005539D01*
X009949Y005505D01*
X009951Y005470D01*
X009947Y005457D01*
X009930Y005157D01*
X009933Y005144D01*
X009927Y005110D01*
X009925Y005076D01*
X009919Y005063D01*
X009869Y004767D01*
X009871Y004753D01*
X009861Y004720D01*
X009855Y004686D01*
X009848Y004675D01*
X009765Y004386D01*
X009765Y004372D01*
X009752Y004340D01*
X009742Y004307D01*
X009734Y004297D01*
X009618Y004019D01*
X009617Y004005D01*
X009600Y003975D01*
X009587Y003943D01*
X009577Y003934D01*
X009432Y003671D01*
X009429Y003657D01*
X009409Y003629D01*
X009393Y003599D01*
X009382Y003590D01*
X009208Y003345D01*
X009203Y003332D01*
X009180Y003307D01*
X009161Y003279D01*
X009149Y003271D01*
X008949Y003047D01*
X008942Y003035D01*
X008917Y003012D01*
X008894Y002986D01*
X008882Y002980D01*
X008657Y002780D01*
X008650Y002768D01*
X008622Y002748D01*
X008597Y002726D01*
X008584Y002721D01*
X008338Y002547D01*
X008330Y002536D01*
X008300Y002520D01*
X008272Y002500D01*
X008258Y002497D01*
X007995Y002351D01*
X007985Y002342D01*
X007954Y002328D01*
X007924Y002312D01*
X007910Y002310D01*
X007632Y002195D01*
X007621Y002187D01*
X007589Y002177D01*
X007557Y002164D01*
X007543Y002164D01*
X007254Y002081D01*
X007242Y002074D01*
X007209Y002068D01*
X007176Y002058D01*
X007162Y002060D01*
X006866Y002009D01*
X006853Y002003D01*
X006819Y002002D01*
X006785Y001996D01*
X006772Y001999D01*
X006471Y001982D01*
X006458Y001977D01*
X006424Y001979D01*
X006390Y001977D01*
X006377Y001982D01*
X006077Y001999D01*
X006063Y001996D01*
X006030Y002002D01*
X005995Y002003D01*
X005983Y002009D01*
X005686Y002060D01*
X005673Y002058D01*
X005640Y002068D01*
X005606Y002074D01*
X005594Y002081D01*
X005305Y002164D01*
X005292Y002164D01*
X005260Y002177D01*
X005227Y002187D01*
X005216Y002195D01*
X004938Y002310D01*
X004925Y002312D01*
X004895Y002328D01*
X004863Y002342D01*
X004853Y002351D01*
X004590Y002497D01*
X004577Y002500D01*
X004549Y002520D01*
X004519Y002536D01*
X004510Y002547D01*
X004265Y002721D01*
X004252Y002726D01*
X004226Y002748D01*
X004198Y002768D01*
X004191Y002780D01*
X003967Y002980D01*
X003954Y002986D01*
X003931Y003012D01*
X003906Y003035D01*
X003900Y003047D01*
X003700Y003271D01*
X003688Y003279D01*
X003668Y003307D01*
X003645Y003332D01*
X003641Y003345D01*
X003467Y003590D01*
X003456Y003599D01*
X003439Y003629D01*
X003419Y003657D01*
X003416Y003671D01*
X003271Y003934D01*
X003261Y003943D01*
X003248Y003975D01*
X003231Y004005D01*
X003230Y004019D01*
X003115Y004297D01*
X003106Y004307D01*
X003097Y004340D01*
X003084Y004372D01*
X003084Y004386D01*
X003000Y004675D01*
X002993Y004686D01*
X002987Y004720D01*
X002978Y004753D01*
X002979Y004767D01*
X002929Y005063D01*
X002923Y005076D01*
X002921Y005110D01*
X002915Y005144D01*
X002918Y005157D01*
X002902Y005457D01*
X002897Y005470D01*
X002899Y005505D01*
X002897Y005539D01*
X002902Y005552D01*
X002918Y005852D01*
X002915Y005866D01*
X002921Y005899D01*
X002923Y005934D01*
X002929Y005946D01*
X002979Y006242D01*
X002978Y006256D01*
X002987Y006289D01*
X002993Y006323D01*
X003000Y006335D01*
X003084Y006623D01*
X003084Y006637D01*
X003097Y006669D01*
X003106Y006702D01*
X003115Y006713D01*
X003230Y006990D01*
X003231Y007004D01*
X003248Y007034D01*
X003261Y007066D01*
X003271Y007076D01*
X003416Y007339D01*
X003419Y007352D01*
X003439Y007380D01*
X003456Y007410D01*
X003467Y007419D01*
X003641Y007664D01*
X003645Y007677D01*
X003668Y007703D01*
X003688Y007731D01*
X003700Y007738D01*
X003900Y007962D01*
X003906Y007975D01*
X003931Y007997D01*
X003954Y008023D01*
X003967Y008029D01*
X004191Y008229D01*
X004198Y008241D01*
X004226Y008261D01*
X004252Y008284D01*
X004265Y008288D01*
X004510Y008462D01*
X004519Y008473D01*
X004549Y008490D01*
X004577Y008509D01*
X004590Y008512D01*
X004853Y008658D01*
X004863Y008668D01*
X004895Y008681D01*
X004925Y008697D01*
X004938Y008699D01*
X005216Y008814D01*
X005227Y008823D01*
X005260Y008832D01*
X005292Y008845D01*
X005305Y008845D01*
X005594Y008928D01*
X005606Y008936D01*
X005640Y008942D01*
X005673Y008951D01*
X005686Y008949D01*
X005983Y009000D01*
X005995Y009006D01*
X006030Y009008D01*
X006063Y009013D01*
X006077Y009010D01*
X006377Y009027D01*
X006390Y009032D01*
X006404Y009031D01*
X006404Y009267D01*
X006579Y009442D01*
X006827Y009442D01*
X006925Y009343D01*
X007383Y009343D01*
X007383Y009373D01*
X007283Y009414D01*
X007134Y009563D01*
X007053Y009758D01*
X007053Y009894D01*
X006889Y009730D01*
X006587Y009605D01*
X006261Y009605D01*
X005959Y009730D01*
X005959Y009730D01*
X005729Y009961D01*
X005729Y009961D01*
X005631Y010196D01*
X002680Y010196D01*
X002924Y010095D01*
X003140Y009878D01*
X003258Y009595D01*
X003258Y009288D01*
X003140Y009005D01*
X002924Y008788D01*
X002640Y008671D01*
X002334Y008671D01*
X002051Y008788D01*
X001834Y009005D01*
X001733Y009249D01*
X001733Y007632D01*
X001739Y007633D01*
X002113Y007633D01*
X002113Y007103D01*
X002153Y007103D01*
X002113Y007103D01*
X002113Y007633D01*
X001739Y007633D01*
X001733Y007632D01*
X001733Y009249D01*
X001834Y009005D01*
X002051Y008788D01*
X002334Y008671D01*
X002640Y008671D01*
X002924Y008788D01*
X003140Y009005D01*
X003258Y009288D01*
X003258Y009595D01*
X003140Y009878D01*
X002924Y010095D01*
X002680Y010196D01*
X005631Y010196D01*
X005729Y009961D01*
X005959Y009730D01*
X005959Y009730D01*
X006261Y009605D01*
X006587Y009605D01*
X006889Y009730D01*
X007073Y009914D01*
X007073Y009762D01*
X007151Y009574D01*
X007294Y009431D01*
X007403Y009386D01*
X007403Y009323D01*
X006917Y009323D01*
X006818Y009422D01*
X006587Y009422D01*
X006424Y009259D01*
X006424Y009028D01*
X006507Y008945D01*
X006489Y008946D01*
X006481Y008953D01*
X006424Y008950D01*
X006367Y008953D01*
X006359Y008946D01*
X006103Y008932D01*
X006095Y008938D01*
X006038Y008928D01*
X005981Y008925D01*
X005974Y008917D01*
X005722Y008874D01*
X005713Y008879D01*
X005658Y008863D01*
X005601Y008854D01*
X005595Y008845D01*
X005349Y008774D01*
X005339Y008778D01*
X005286Y008756D01*
X005231Y008741D01*
X005226Y008732D01*
X004989Y008633D01*
X004980Y008636D01*
X004929Y008609D01*
X004876Y008587D01*
X004873Y008577D01*
X004648Y008453D01*
X004638Y008455D01*
X004591Y008422D01*
X004541Y008394D01*
X004538Y008384D01*
X004329Y008236D01*
X004319Y008236D01*
X004276Y008198D01*
X004229Y008165D01*
X004228Y008155D01*
X004037Y007984D01*
X004026Y007983D01*
X003988Y007941D01*
X003945Y007903D01*
X003945Y007892D01*
X003774Y007701D01*
X003764Y007699D01*
X003731Y007653D01*
X003693Y007610D01*
X003693Y007600D01*
X003545Y007391D01*
X003535Y007388D01*
X003507Y007338D01*
X003474Y007291D01*
X003476Y007281D01*
X003352Y007056D01*
X003342Y007052D01*
X003320Y006999D01*
X003293Y006949D01*
X003295Y006939D01*
X003197Y006703D01*
X003188Y006698D01*
X003172Y006643D01*
X003150Y006590D01*
X003154Y006580D01*
X003083Y006334D01*
X003075Y006328D01*
X003065Y006271D01*
X003050Y006216D01*
X003055Y006207D01*
X003012Y005954D01*
X003004Y005948D01*
X003001Y005890D01*
X002991Y005834D01*
X002997Y005826D01*
X002983Y005570D01*
X002976Y005562D01*
X002979Y005505D01*
X002976Y005447D01*
X002983Y005440D01*
X002997Y005184D01*
X002991Y005175D01*
X003001Y005119D01*
X003004Y005062D01*
X003012Y005055D01*
X003055Y004802D01*
X003050Y004793D01*
X003065Y004738D01*
X003075Y004682D01*
X003083Y004676D01*
X003154Y004429D01*
X003150Y004420D01*
X003172Y004367D01*
X003188Y004312D01*
X003197Y004307D01*
X003295Y004070D01*
X003293Y004060D01*
X003320Y004010D01*
X003342Y003957D01*
X003352Y003953D01*
X003476Y003729D01*
X003474Y003718D01*
X003507Y003672D01*
X003535Y003622D01*
X003545Y003619D01*
X003693Y003410D01*
X003693Y003399D01*
X003731Y003357D01*
X003764Y003310D01*
X003774Y003308D01*
X003945Y003117D01*
X003945Y003107D01*
X003988Y003069D01*
X004026Y003026D01*
X004037Y003025D01*
X004228Y002854D01*
X004229Y002844D01*
X004276Y002811D01*
X004319Y002773D01*
X004329Y002774D01*
X004538Y002625D01*
X004541Y002615D01*
X004591Y002588D01*
X004638Y002554D01*
X004648Y002556D01*
X004873Y002432D01*
X004876Y002423D01*
X004929Y002401D01*
X004980Y002373D01*
X004989Y002376D01*
X005226Y002278D01*
X005231Y002269D01*
X005286Y002253D01*
X005339Y002231D01*
X005349Y002235D01*
X005595Y002164D01*
X005601Y002155D01*
X005658Y002146D01*
X005713Y002130D01*
X005722Y002135D01*
X005974Y002092D01*
X005981Y002084D01*
X006038Y002081D01*
X006095Y002072D01*
X006103Y002078D01*
X006359Y002063D01*
X006367Y002056D01*
X006424Y002060D01*
X006481Y002056D01*
X006489Y002063D01*
X006745Y002078D01*
X006753Y002072D01*
X006810Y002081D01*
X006867Y002084D01*
X006874Y002092D01*
X007127Y002135D01*
X007136Y002130D01*
X007191Y002146D01*
X007247Y002155D01*
X007253Y002164D01*
X007500Y002235D01*
X007509Y002231D01*
X007562Y002253D01*
X007617Y002269D01*
X007622Y002278D01*
X007859Y002376D01*
X007869Y002373D01*
X007919Y002401D01*
X007972Y002423D01*
X007976Y002432D01*
X008200Y002556D01*
X008210Y002554D01*
X008257Y002588D01*
X008307Y002615D01*
X008310Y002625D01*
X008519Y002774D01*
X008530Y002773D01*
X008572Y002811D01*
X008619Y002844D01*
X008621Y002854D01*
X008812Y003025D01*
X008822Y003026D01*
X008860Y003069D01*
X008903Y003107D01*
X008904Y003117D01*
X009074Y003308D01*
X009085Y003310D01*
X009118Y003357D01*
X009156Y003399D01*
X009155Y003410D01*
X009304Y003619D01*
X009314Y003622D01*
X009341Y003672D01*
X009374Y003718D01*
X009373Y003729D01*
X009497Y003953D01*
X009506Y003957D01*
X009528Y004010D01*
X009556Y004060D01*
X009553Y004070D01*
X009651Y004307D01*
X009660Y004312D01*
X009676Y004367D01*
X009698Y004420D01*
X009694Y004429D01*
X009765Y004676D01*
X009773Y004682D01*
X009783Y004738D01*
X009799Y004793D01*
X009794Y004802D01*
X009837Y005055D01*
X009844Y005062D01*
X009848Y005119D01*
X009857Y005175D01*
X009851Y005184D01*
X009866Y005440D01*
X009873Y005447D01*
X009869Y005505D01*
X009873Y005562D01*
X009866Y005570D01*
X009851Y005826D01*
X009857Y005834D01*
X009848Y005890D01*
X009844Y005948D01*
X009837Y005954D01*
X009794Y006207D01*
X009799Y006216D01*
X009783Y006271D01*
X009773Y006328D01*
X009765Y006334D01*
X009694Y006580D01*
X009698Y006590D01*
X009676Y006643D01*
X009660Y006698D01*
X009651Y006703D01*
X009553Y006939D01*
X009556Y006949D01*
X009528Y006999D01*
X009506Y007052D01*
X009497Y007056D01*
X009373Y007281D01*
X009374Y007291D01*
X009341Y007338D01*
X009314Y007388D01*
X009304Y007391D01*
X009181Y007563D01*
X012078Y007563D01*
X013638Y009123D01*
X016458Y009123D01*
X016563Y009229D01*
X017338Y010003D01*
X019676Y010003D01*
X019550Y009878D01*
X019433Y009595D01*
X019433Y009327D01*
X019338Y009422D01*
X019107Y009422D01*
X018944Y009259D01*
X018944Y009028D01*
X019107Y008865D01*
X019207Y008865D01*
X019548Y008523D01*
X019317Y008523D01*
X019218Y008622D01*
X018987Y008622D01*
X018824Y008459D01*
X018824Y008228D01*
X018987Y008065D01*
X019218Y008065D01*
X019317Y008163D01*
X020304Y008163D01*
X020304Y008028D01*
X020467Y007865D01*
X020698Y007865D01*
X020797Y007963D01*
X021689Y007963D01*
X021624Y007874D02*
X020708Y007874D01*
X020458Y007874D02*
X020126Y007874D01*
X019760Y007874D02*
X019106Y007874D01*
X019265Y007716D02*
X019664Y007716D01*
X019664Y007557D02*
X019423Y007557D01*
X019582Y007399D02*
X019604Y007399D01*
X020024Y007299D02*
X020187Y007462D01*
X020418Y007462D01*
X020582Y007299D01*
X020582Y007159D01*
X021039Y006702D01*
X021138Y006702D01*
X021302Y006539D01*
X021302Y006308D01*
X021138Y006145D01*
X020907Y006145D01*
X020744Y006308D01*
X020744Y006488D01*
X020327Y006905D01*
X020187Y006905D01*
X020024Y007068D01*
X020024Y007299D01*
X020022Y007240D02*
X020024Y007240D01*
X020022Y007082D02*
X020024Y007082D01*
X019945Y006923D02*
X020140Y006923D01*
X020169Y006923D02*
X019917Y006923D01*
X019976Y006765D02*
X020467Y006765D01*
X020439Y006765D02*
X020004Y006765D01*
X020083Y006606D02*
X020625Y006606D01*
X020597Y006606D02*
X020103Y006606D01*
X020103Y006448D02*
X020724Y006448D01*
X020744Y006448D02*
X020083Y006448D01*
X020083Y006289D02*
X020763Y006289D01*
X020734Y006289D02*
X020103Y006289D01*
X020103Y006131D02*
X020893Y006131D01*
X021153Y006131D02*
X021943Y006131D01*
X021963Y006131D02*
X020083Y006131D01*
X020083Y005972D02*
X021864Y005972D01*
X021844Y005972D02*
X020103Y005972D01*
X020103Y005814D02*
X020791Y005814D01*
X020819Y005814D02*
X020083Y005814D01*
X020083Y005655D02*
X020744Y005655D01*
X020724Y005655D02*
X020103Y005655D01*
X020103Y005497D02*
X020727Y005497D01*
X020755Y005497D02*
X020083Y005497D01*
X020083Y005338D02*
X021053Y005338D01*
X020885Y005338D02*
X020103Y005338D01*
X020103Y005180D02*
X021417Y005180D01*
X021286Y005021D02*
X020083Y005021D01*
X020103Y005021D02*
X021258Y005021D01*
X021128Y004863D02*
X020083Y004863D01*
X020103Y004863D02*
X021100Y004863D01*
X020969Y004704D02*
X020083Y004704D01*
X020103Y004704D02*
X020941Y004704D01*
X020811Y004546D02*
X020083Y004546D01*
X020103Y004546D02*
X020783Y004546D01*
X020652Y004387D02*
X020083Y004387D01*
X020103Y004387D02*
X020624Y004387D01*
X020494Y004229D02*
X020083Y004229D01*
X020103Y004229D02*
X020466Y004229D01*
X020335Y004070D02*
X019944Y004070D01*
X019993Y004070D02*
X020307Y004070D01*
X020177Y003912D02*
X019317Y003912D01*
X019408Y003912D02*
X020149Y003912D01*
X020018Y003753D02*
X019229Y003753D01*
X019320Y003753D02*
X019990Y003753D01*
X019860Y003595D02*
X019129Y003595D01*
X019230Y003595D02*
X019832Y003595D01*
X019701Y003436D02*
X019017Y003436D01*
X019115Y003436D02*
X019673Y003436D01*
X019543Y003278D02*
X018890Y003278D01*
X019002Y003278D02*
X019515Y003278D01*
X019384Y003119D02*
X018748Y003119D01*
X018856Y003119D02*
X019356Y003119D01*
X019226Y002961D02*
X018582Y002961D01*
X018702Y002961D02*
X019198Y002961D01*
X019067Y002802D02*
X018405Y002802D01*
X018525Y002802D02*
X019039Y002802D01*
X018909Y002644D02*
X018179Y002644D01*
X018317Y002644D02*
X018881Y002644D01*
X018750Y002485D02*
X017915Y002485D01*
X018080Y002485D02*
X018722Y002485D01*
X018592Y002327D02*
X017583Y002327D01*
X017793Y002327D02*
X018564Y002327D01*
X021482Y003207D02*
X021482Y003347D01*
X021307Y003522D01*
X021059Y003522D01*
X020903Y003366D01*
X020827Y003442D01*
X020579Y003442D01*
X020480Y003343D01*
X020386Y003343D01*
X021586Y004543D01*
X021600Y004543D01*
X021739Y004405D01*
X021987Y004405D01*
X022162Y004580D01*
X022162Y004685D01*
X022227Y004685D01*
X022402Y004860D01*
X022402Y005107D01*
X022236Y005273D01*
X022591Y005629D01*
X022587Y005552D01*
X022582Y005539D01*
X022584Y005505D01*
X022582Y005470D01*
X022587Y005457D01*
X022604Y005157D01*
X022600Y005144D01*
X022606Y005110D01*
X022608Y005076D01*
X022614Y005063D01*
X022664Y004767D01*
X022663Y004753D01*
X022672Y004720D01*
X022678Y004686D01*
X022685Y004675D01*
X022769Y004386D01*
X022769Y004372D01*
X022782Y004340D01*
X022791Y004307D01*
X022800Y004297D01*
X022915Y004019D01*
X022917Y004005D01*
X022933Y003975D01*
X022946Y003943D01*
X022956Y003934D01*
X023101Y003671D01*
X023105Y003657D01*
X023124Y003629D01*
X023141Y003599D01*
X023152Y003590D01*
X023326Y003345D01*
X023330Y003332D01*
X023353Y003307D01*
X023373Y003279D01*
X023385Y003271D01*
X023585Y003047D01*
X023591Y003035D01*
X023617Y003012D01*
X023639Y002986D01*
X023652Y002980D01*
X023876Y002780D01*
X023883Y002768D01*
X023911Y002748D01*
X023937Y002726D01*
X023950Y002721D01*
X024195Y002547D01*
X024204Y002536D01*
X024234Y002520D01*
X024262Y002500D01*
X024275Y002497D01*
X024538Y002351D01*
X024548Y002342D01*
X024580Y002328D01*
X024610Y002312D01*
X024623Y002310D01*
X024737Y002263D01*
X023946Y002263D01*
X022826Y003383D01*
X022765Y003383D01*
X022667Y003482D01*
X022419Y003482D01*
X022244Y003307D01*
X022244Y003060D01*
X022360Y002943D01*
X021746Y002943D01*
X021482Y003207D01*
X021482Y003278D02*
X022244Y003278D01*
X022264Y003278D02*
X021462Y003278D01*
X021392Y003436D02*
X022373Y003436D01*
X022402Y003436D02*
X021364Y003436D01*
X021002Y003436D02*
X020451Y003436D01*
X020479Y003436D02*
X020573Y003436D01*
X020609Y003595D02*
X023247Y003595D01*
X023146Y003595D02*
X020637Y003595D01*
X020768Y003753D02*
X023147Y003753D01*
X023056Y003753D02*
X020796Y003753D01*
X020926Y003912D02*
X023059Y003912D01*
X022968Y003912D02*
X020954Y003912D01*
X021085Y004070D02*
X022980Y004070D01*
X022894Y004070D02*
X021113Y004070D01*
X021243Y004229D02*
X022915Y004229D01*
X022828Y004229D02*
X021271Y004229D01*
X021402Y004387D02*
X022849Y004387D01*
X022768Y004387D02*
X021430Y004387D01*
X021560Y004546D02*
X021626Y004546D01*
X022100Y004546D02*
X022806Y004546D01*
X022723Y004546D02*
X022128Y004546D01*
X022142Y004704D02*
X022756Y004704D01*
X022675Y004704D02*
X022246Y004704D01*
X022377Y004863D02*
X022729Y004863D01*
X022648Y004863D02*
X022402Y004863D01*
X022402Y005021D02*
X022621Y005021D01*
X022702Y005021D02*
X022382Y005021D01*
X022329Y005180D02*
X022602Y005180D01*
X022679Y005180D02*
X022301Y005180D01*
X022301Y005338D02*
X022593Y005338D01*
X022673Y005338D02*
X022273Y005338D01*
X021905Y005180D02*
X020083Y005180D01*
X021302Y005655D02*
X021957Y005655D01*
X021864Y005814D02*
X021227Y005814D01*
X021255Y005814D02*
X021844Y005814D01*
X022431Y005497D02*
X022664Y005497D01*
X022584Y005497D02*
X022459Y005497D01*
X022590Y005655D02*
X022673Y005655D01*
X021963Y006289D02*
X021283Y006289D01*
X021311Y006289D02*
X021943Y006289D01*
X021943Y006448D02*
X021322Y006448D01*
X021302Y006448D02*
X021963Y006448D01*
X021963Y006606D02*
X021234Y006606D01*
X021262Y006606D02*
X021943Y006606D01*
X021943Y006765D02*
X021004Y006765D01*
X020976Y006765D02*
X021963Y006765D01*
X021963Y006923D02*
X020818Y006923D01*
X020846Y006923D02*
X021943Y006923D01*
X021943Y007082D02*
X020687Y007082D01*
X020659Y007082D02*
X021963Y007082D01*
X021963Y007240D02*
X020582Y007240D01*
X020602Y007240D02*
X021943Y007240D01*
X021943Y007399D02*
X020510Y007399D01*
X020482Y007399D02*
X021963Y007399D01*
X020124Y007399D02*
X020073Y007399D01*
X020304Y008033D02*
X018948Y008033D01*
X018861Y008191D02*
X018803Y008191D01*
X018803Y008350D02*
X018824Y008350D01*
X018823Y008508D02*
X018845Y008508D01*
X018874Y008508D02*
X018803Y008508D01*
X018803Y008667D02*
X019405Y008667D01*
X019377Y008667D02*
X018823Y008667D01*
X018823Y008825D02*
X019218Y008825D01*
X019246Y008825D02*
X018803Y008825D01*
X018803Y008984D02*
X018988Y008984D01*
X018960Y008984D02*
X018823Y008984D01*
X018823Y009142D02*
X018924Y009142D01*
X018944Y009142D02*
X018803Y009142D01*
X018902Y009301D02*
X018986Y009301D01*
X018958Y009301D02*
X018922Y009301D01*
X018922Y009459D02*
X019433Y009459D01*
X018902Y009459D01*
X018811Y009618D02*
X019443Y009618D01*
X018783Y009618D01*
X018463Y009618D02*
X018303Y009618D01*
X018331Y009618D02*
X018435Y009618D01*
X017983Y009618D02*
X016952Y009618D01*
X016980Y009618D02*
X017955Y009618D01*
X017864Y009459D02*
X016794Y009459D01*
X016822Y009459D02*
X017844Y009459D01*
X017844Y009301D02*
X016663Y009301D01*
X016635Y009301D02*
X017864Y009301D01*
X017961Y009142D02*
X016505Y009142D01*
X016477Y009142D02*
X017990Y009142D01*
X018183Y008984D02*
X016802Y008984D01*
X017165Y008825D02*
X018203Y008825D01*
X018183Y008825D02*
X017454Y008825D01*
X017621Y008667D02*
X018203Y008667D01*
X018183Y008667D02*
X017829Y008667D01*
X017943Y008508D02*
X018203Y008508D01*
X018183Y008508D02*
X018116Y008508D01*
X018201Y008350D02*
X018203Y008350D01*
X018203Y008984D02*
X013498Y008984D01*
X013526Y008984D02*
X015732Y008984D01*
X015368Y008825D02*
X013340Y008825D01*
X013368Y008825D02*
X015079Y008825D01*
X014913Y008667D02*
X013181Y008667D01*
X013209Y008667D02*
X014705Y008667D01*
X014591Y008508D02*
X013023Y008508D01*
X013051Y008508D02*
X014418Y008508D01*
X014333Y008350D02*
X012864Y008350D01*
X012892Y008350D02*
X014194Y008350D01*
X014109Y008191D02*
X012706Y008191D01*
X012734Y008191D02*
X013991Y008191D01*
X013934Y008033D02*
X012547Y008033D01*
X012575Y008033D02*
X013814Y008033D01*
X013771Y007874D02*
X012389Y007874D01*
X012417Y007874D02*
X013664Y007874D01*
X013630Y007716D02*
X012230Y007716D01*
X012258Y007716D02*
X013520Y007716D01*
X013506Y007557D02*
X009185Y007557D01*
X009298Y007399D02*
X013393Y007399D01*
X013292Y007399D02*
X009399Y007399D01*
X009395Y007240D02*
X013296Y007240D01*
X013205Y007240D02*
X009486Y007240D01*
X009483Y007082D02*
X013208Y007082D01*
X013117Y007082D02*
X009574Y007082D01*
X009560Y006923D02*
X013131Y006923D01*
X013045Y006923D02*
X009646Y006923D01*
X009625Y006765D02*
X013066Y006765D01*
X012979Y006765D02*
X009712Y006765D01*
X009691Y006606D02*
X013000Y006606D01*
X012921Y006606D02*
X009770Y006606D01*
X009732Y006448D02*
X012959Y006448D01*
X012876Y006448D02*
X009815Y006448D01*
X009780Y006289D02*
X012911Y006289D01*
X012830Y006289D02*
X009861Y006289D01*
X009888Y006131D02*
X010882Y006131D01*
X009807Y006131D01*
X009834Y005972D02*
X010723Y005972D01*
X009915Y005972D01*
X009932Y005814D02*
X010640Y005814D01*
X009852Y005814D01*
X009861Y005655D02*
X010575Y005655D01*
X009941Y005655D01*
X009950Y005497D02*
X010575Y005497D01*
X009870Y005497D01*
X009860Y005338D02*
X010580Y005338D01*
X009940Y005338D01*
X009931Y005180D02*
X010646Y005180D01*
X009854Y005180D01*
X009831Y005021D02*
X010739Y005021D01*
X009912Y005021D01*
X009885Y004863D02*
X010898Y004863D01*
X009804Y004863D01*
X009777Y004704D02*
X012914Y004704D01*
X012833Y004704D02*
X009858Y004704D01*
X009811Y004546D02*
X012880Y004546D01*
X012963Y004546D02*
X009728Y004546D01*
X009765Y004387D02*
X012926Y004387D01*
X013006Y004387D02*
X009685Y004387D01*
X009705Y004229D02*
X012985Y004229D01*
X013072Y004229D02*
X009619Y004229D01*
X009743Y004183D02*
X009903Y004183D01*
X009640Y004070D02*
X013051Y004070D01*
X013138Y004070D02*
X009553Y004070D01*
X009565Y003912D02*
X013126Y003912D01*
X013217Y003912D02*
X009474Y003912D01*
X009478Y003753D02*
X010410Y003753D01*
X010280Y003595D02*
X009287Y003595D01*
X009387Y003595D02*
X010252Y003595D01*
X010261Y003436D02*
X009174Y003436D01*
X009272Y003436D02*
X010233Y003436D01*
X010123Y003278D02*
X009047Y003278D01*
X009159Y003278D02*
X010103Y003278D01*
X010752Y003278D02*
X013644Y003278D01*
X013532Y003278D02*
X010780Y003278D01*
X010822Y003436D02*
X013517Y003436D01*
X013419Y003436D02*
X010842Y003436D01*
X010834Y003595D02*
X013304Y003595D01*
X013404Y003595D02*
X010806Y003595D01*
X010675Y003753D02*
X013213Y003753D01*
X013305Y003753D02*
X009386Y003753D01*
X009013Y003119D02*
X010103Y003119D01*
X010123Y003119D02*
X008906Y003119D01*
X008860Y002961D02*
X010103Y002961D01*
X010123Y002961D02*
X008740Y002961D01*
X008682Y002802D02*
X010103Y002802D01*
X010123Y002802D02*
X008562Y002802D01*
X008475Y002644D02*
X010103Y002644D01*
X010123Y002644D02*
X008337Y002644D01*
X008238Y002485D02*
X010103Y002485D01*
X010123Y002485D02*
X008072Y002485D01*
X007951Y002327D02*
X010103Y002327D01*
X010123Y002327D02*
X007741Y002327D01*
X007567Y002168D02*
X010103Y002168D01*
X010123Y002168D02*
X007269Y002168D01*
X006868Y002010D02*
X010114Y002010D01*
X010142Y002010D02*
X003724Y002010D01*
X003752Y002010D02*
X005980Y002010D01*
X005579Y002168D02*
X003566Y002168D01*
X003594Y002168D02*
X005281Y002168D01*
X005108Y002327D02*
X003407Y002327D01*
X003435Y002327D02*
X004898Y002327D01*
X004776Y002485D02*
X003249Y002485D01*
X003277Y002485D02*
X004611Y002485D01*
X004512Y002644D02*
X003090Y002644D01*
X003118Y002644D02*
X004374Y002644D01*
X004286Y002802D02*
X002932Y002802D01*
X002960Y002802D02*
X004166Y002802D01*
X004109Y002961D02*
X002773Y002961D01*
X002801Y002961D02*
X003989Y002961D01*
X003943Y003119D02*
X002615Y003119D01*
X002643Y003119D02*
X003835Y003119D01*
X003801Y003278D02*
X002456Y003278D01*
X002484Y003278D02*
X003689Y003278D01*
X003674Y003436D02*
X002298Y003436D01*
X002326Y003436D02*
X003576Y003436D01*
X003562Y003595D02*
X002293Y003595D01*
X002313Y003595D02*
X003461Y003595D01*
X003462Y003753D02*
X002424Y003753D01*
X002452Y003753D02*
X003371Y003753D01*
X003374Y003912D02*
X002514Y003912D01*
X002536Y003912D02*
X003283Y003912D01*
X003295Y004070D02*
X002543Y004070D01*
X002563Y004070D02*
X003209Y004070D01*
X003230Y004229D02*
X002525Y004229D01*
X002546Y004229D02*
X003143Y004229D01*
X003164Y004387D02*
X002450Y004387D01*
X002478Y004387D02*
X003083Y004387D01*
X003121Y004546D02*
X002249Y004546D01*
X002301Y004546D02*
X003038Y004546D01*
X003071Y004704D02*
X002475Y004704D01*
X002503Y004704D02*
X002990Y004704D01*
X002963Y004863D02*
X002615Y004863D01*
X002594Y004863D02*
X003044Y004863D01*
X003017Y005021D02*
X002643Y005021D01*
X002663Y005021D02*
X002936Y005021D01*
X002917Y005180D02*
X002663Y005180D01*
X002643Y005180D02*
X002994Y005180D01*
X002988Y005338D02*
X002579Y005338D01*
X002601Y005338D02*
X002908Y005338D01*
X002899Y005497D02*
X002469Y005497D01*
X002441Y005497D02*
X002979Y005497D01*
X002988Y005655D02*
X002326Y005655D01*
X002354Y005655D02*
X002907Y005655D01*
X002916Y005814D02*
X002495Y005814D01*
X002473Y005814D02*
X002996Y005814D01*
X003015Y005972D02*
X002539Y005972D01*
X002561Y005972D02*
X002934Y005972D01*
X002783Y006023D02*
X002783Y006183D01*
X002960Y006131D02*
X002563Y006131D01*
X002543Y006131D02*
X003042Y006131D01*
X003069Y006289D02*
X002500Y006289D01*
X002521Y006289D02*
X002987Y006289D01*
X003033Y006448D02*
X002418Y006448D01*
X002390Y006448D02*
X003116Y006448D01*
X003079Y006606D02*
X002649Y006606D01*
X003157Y006606D01*
X003137Y006765D02*
X002683Y006765D01*
X003223Y006765D01*
X003202Y006923D02*
X002683Y006923D01*
X003289Y006923D01*
X003274Y007082D02*
X002153Y007082D01*
X003366Y007082D01*
X003362Y007240D02*
X002683Y007240D01*
X003453Y007240D01*
X003450Y007399D02*
X002683Y007399D01*
X003551Y007399D01*
X003565Y007557D02*
X002651Y007557D01*
X003663Y007557D01*
X003677Y007716D02*
X001733Y007716D01*
X003787Y007716D01*
X003822Y007874D02*
X001733Y007874D01*
X003929Y007874D01*
X003971Y008033D02*
X001733Y008033D01*
X004091Y008033D01*
X004149Y008191D02*
X001733Y008191D01*
X004267Y008191D01*
X004352Y008350D02*
X001733Y008350D01*
X004490Y008350D01*
X004575Y008508D02*
X001733Y008508D01*
X004748Y008508D01*
X004862Y008667D02*
X001733Y008667D01*
X005070Y008667D01*
X005237Y008825D02*
X002961Y008825D01*
X005526Y008825D01*
X005889Y008984D02*
X003119Y008984D01*
X006468Y008984D01*
X006424Y009142D02*
X003197Y009142D01*
X006404Y009142D01*
X006438Y009301D02*
X003258Y009301D01*
X006466Y009301D01*
X007237Y009459D02*
X003258Y009459D01*
X007266Y009459D01*
X007133Y009618D02*
X006618Y009618D01*
X007111Y009618D01*
X007073Y009776D02*
X006935Y009776D01*
X007053Y009776D01*
X006231Y009618D02*
X003248Y009618D01*
X006231Y009618D01*
X005913Y009776D02*
X003183Y009776D01*
X005913Y009776D01*
X005755Y009935D02*
X003084Y009935D01*
X005755Y009935D01*
X005729Y009961D02*
X005729Y009961D01*
X005674Y010093D02*
X002925Y010093D01*
X005674Y010093D01*
X001855Y008984D02*
X001733Y008984D01*
X001855Y008984D01*
X001777Y009142D02*
X001733Y009142D01*
X001777Y009142D01*
X001733Y008825D02*
X002014Y008825D01*
X001733Y008825D01*
X002113Y007557D02*
X002153Y007557D01*
X002113Y007557D01*
X002113Y007399D02*
X002153Y007399D01*
X002113Y007399D01*
X002113Y007240D02*
X002153Y007240D01*
X002113Y007240D01*
X009717Y007923D02*
X009862Y008068D01*
X009862Y008299D01*
X009763Y008398D01*
X009763Y009386D01*
X009872Y009431D01*
X010015Y009574D01*
X010033Y009617D01*
X010033Y009470D01*
X010045Y009424D01*
X010069Y009383D01*
X010102Y009349D01*
X010143Y009326D01*
X010189Y009313D01*
X010563Y009313D01*
X010563Y009843D01*
X010603Y009843D01*
X010603Y009313D01*
X010977Y009313D01*
X011022Y009326D01*
X011063Y009349D01*
X011097Y009383D01*
X011121Y009424D01*
X011133Y009470D01*
X011133Y009843D01*
X010603Y009843D01*
X010603Y009313D01*
X010977Y009313D01*
X011022Y009326D01*
X011063Y009349D01*
X011097Y009383D01*
X011121Y009424D01*
X011133Y009470D01*
X011133Y009843D01*
X010603Y009843D01*
X010563Y009843D01*
X010563Y009313D01*
X010189Y009313D01*
X010143Y009326D01*
X010102Y009349D01*
X010069Y009383D01*
X010045Y009424D01*
X010033Y009470D01*
X010033Y009565D01*
X010032Y009563D01*
X009883Y009414D01*
X009783Y009373D01*
X009783Y008406D01*
X009882Y008307D01*
X009882Y008060D01*
X009765Y007943D01*
X011920Y007943D01*
X012220Y008244D01*
X012084Y008380D01*
X012084Y008519D01*
X012060Y008543D01*
X012060Y008543D01*
X011943Y008661D01*
X011943Y009373D01*
X011843Y009414D01*
X011694Y009563D01*
X011613Y009758D01*
X011613Y009969D01*
X011694Y010164D01*
X011726Y010196D01*
X011133Y010196D01*
X011133Y009883D01*
X010603Y009883D01*
X010603Y009843D01*
X010603Y009883D01*
X011133Y009883D01*
X011133Y010196D01*
X011754Y010196D01*
X011711Y010152D01*
X011633Y009965D01*
X011633Y009762D01*
X011711Y009574D01*
X011854Y009431D01*
X011963Y009386D01*
X011963Y008669D01*
X012068Y008563D01*
X012068Y008563D01*
X012104Y008528D01*
X012104Y008388D01*
X012249Y008244D01*
X011928Y007923D01*
X009717Y007923D01*
X009827Y008033D02*
X012038Y008033D01*
X012010Y008033D02*
X009855Y008033D01*
X009862Y008191D02*
X012196Y008191D01*
X012168Y008191D02*
X009882Y008191D01*
X009839Y008350D02*
X012114Y008350D01*
X012142Y008350D02*
X009811Y008350D01*
X009783Y008508D02*
X012084Y008508D01*
X012104Y008508D02*
X009763Y008508D01*
X009763Y008667D02*
X011965Y008667D01*
X011943Y008667D02*
X009783Y008667D01*
X009783Y008825D02*
X011943Y008825D01*
X011963Y008825D02*
X009763Y008825D01*
X009763Y008984D02*
X011963Y008984D01*
X011943Y008984D02*
X009783Y008984D01*
X009783Y009142D02*
X011943Y009142D01*
X011963Y009142D02*
X009763Y009142D01*
X009763Y009301D02*
X011963Y009301D01*
X011943Y009301D02*
X009783Y009301D01*
X009900Y009459D02*
X010036Y009459D01*
X009928Y009459D01*
X010563Y009459D02*
X010603Y009459D01*
X010563Y009459D01*
X011130Y009459D02*
X011797Y009459D01*
X011826Y009459D02*
X011130Y009459D01*
X011133Y009618D02*
X011671Y009618D01*
X011693Y009618D02*
X011133Y009618D01*
X011133Y009776D02*
X011613Y009776D01*
X011633Y009776D02*
X011133Y009776D01*
X011133Y009935D02*
X011613Y009935D01*
X011633Y009935D02*
X011133Y009935D01*
X010603Y009776D02*
X010563Y009776D01*
X010603Y009776D01*
X010603Y009618D02*
X010563Y009618D01*
X010603Y009618D01*
X011133Y010093D02*
X011665Y010093D01*
X011686Y010093D02*
X011133Y010093D01*
X017111Y009776D02*
X019508Y009776D01*
X017139Y009776D01*
X017269Y009935D02*
X019607Y009935D01*
X017297Y009935D01*
X013408Y007557D02*
X012100Y007557D01*
X011499Y006275D02*
X011192Y006275D01*
X010909Y006158D01*
X010692Y005941D01*
X010575Y005658D01*
X010575Y005351D01*
X010692Y005068D01*
X010909Y004851D01*
X011192Y004734D01*
X011499Y004734D01*
X011782Y004851D01*
X011999Y005068D01*
X012116Y005351D01*
X012116Y005658D01*
X011999Y005941D01*
X011782Y006158D01*
X011499Y006275D01*
X011192Y006275D01*
X010909Y006158D01*
X010692Y005941D01*
X010575Y005658D01*
X010575Y005351D01*
X010692Y005068D01*
X010909Y004851D01*
X011192Y004734D01*
X011499Y004734D01*
X011782Y004851D01*
X011999Y005068D01*
X012116Y005351D01*
X012116Y005658D01*
X011999Y005941D01*
X011782Y006158D01*
X011499Y006275D01*
X011809Y006131D02*
X012803Y006131D01*
X012884Y006131D02*
X011809Y006131D01*
X011967Y005972D02*
X012776Y005972D01*
X012857Y005972D02*
X011967Y005972D01*
X012051Y005814D02*
X012759Y005814D01*
X012839Y005814D02*
X012051Y005814D01*
X012116Y005655D02*
X012750Y005655D01*
X012830Y005655D02*
X012116Y005655D01*
X012116Y005497D02*
X012741Y005497D01*
X012821Y005497D02*
X012116Y005497D01*
X012111Y005338D02*
X012751Y005338D01*
X012831Y005338D02*
X012111Y005338D01*
X012045Y005180D02*
X012760Y005180D01*
X012837Y005180D02*
X012045Y005180D01*
X011952Y005021D02*
X012779Y005021D01*
X012860Y005021D02*
X011952Y005021D01*
X011793Y004863D02*
X012806Y004863D01*
X012887Y004863D02*
X011793Y004863D01*
X010909Y003119D02*
X013678Y003119D01*
X013785Y003119D02*
X010881Y003119D01*
X010982Y002961D02*
X013951Y002961D01*
X013831Y002961D02*
X011002Y002961D01*
X011002Y002802D02*
X014008Y002802D01*
X014129Y002802D02*
X010982Y002802D01*
X010903Y002644D02*
X014216Y002644D01*
X014354Y002644D02*
X010883Y002644D01*
X010883Y002485D02*
X014619Y002485D01*
X014453Y002485D02*
X010903Y002485D01*
X010903Y002327D02*
X014740Y002327D01*
X014950Y002327D02*
X010883Y002327D01*
X010883Y002168D02*
X014833Y002168D01*
X014805Y002168D02*
X010903Y002168D01*
X010891Y002010D02*
X012615Y002010D01*
X012587Y002010D02*
X010919Y002010D01*
X011050Y001851D02*
X012057Y001851D01*
X012028Y001851D02*
X011078Y001851D01*
X011208Y001693D02*
X011944Y001693D01*
X011924Y001693D02*
X011236Y001693D01*
X010776Y001376D02*
X007238Y001376D01*
X007266Y001376D02*
X010748Y001376D01*
X010617Y001534D02*
X007080Y001534D01*
X007108Y001534D02*
X010589Y001534D01*
X010459Y001693D02*
X006921Y001693D01*
X006949Y001693D02*
X010431Y001693D01*
X010300Y001851D02*
X003883Y001851D01*
X003911Y001851D02*
X010272Y001851D01*
X012389Y001851D02*
X012456Y001851D01*
X012428Y001851D02*
X012417Y001851D01*
X013431Y002010D02*
X014675Y002010D01*
X014647Y002010D02*
X013459Y002010D01*
X013590Y001851D02*
X014516Y001851D01*
X014488Y001851D02*
X013618Y001851D01*
X010525Y003119D02*
X010483Y003119D01*
X019396Y004070D02*
X019464Y004236D01*
X019464Y004148D01*
X019461Y004229D02*
X019464Y004229D01*
X020832Y003436D02*
X020973Y003436D01*
X021542Y003119D02*
X022264Y003119D01*
X022244Y003119D02*
X021570Y003119D01*
X021700Y002961D02*
X022371Y002961D01*
X022343Y002961D02*
X021728Y002961D01*
X022903Y003278D02*
X023486Y003278D01*
X023374Y003278D02*
X022931Y003278D01*
X022712Y003436D02*
X023261Y003436D01*
X023359Y003436D02*
X022684Y003436D01*
X023062Y003119D02*
X023628Y003119D01*
X023520Y003119D02*
X023090Y003119D01*
X023220Y002961D02*
X023794Y002961D01*
X023674Y002961D02*
X023248Y002961D01*
X023379Y002802D02*
X023971Y002802D01*
X023851Y002802D02*
X023407Y002802D01*
X023537Y002644D02*
X024197Y002644D01*
X024059Y002644D02*
X023565Y002644D01*
X023696Y002485D02*
X024461Y002485D01*
X024296Y002485D02*
X023724Y002485D01*
X023854Y002327D02*
X024793Y002327D01*
X024583Y002327D02*
X023882Y002327D01*
X025053Y002168D02*
X025265Y002168D01*
X025211Y002010D02*
X027155Y002010D01*
X027313Y002168D02*
X026954Y002168D01*
X028171Y002010D02*
X028372Y002010D01*
X028343Y002010D02*
X028199Y002010D01*
X028243Y001851D02*
X028253Y001851D01*
X029993Y002010D02*
X036984Y002010D01*
X036964Y002010D02*
X036396Y002010D01*
X036393Y002009D02*
X036690Y002060D01*
X036703Y002058D01*
X036736Y002068D01*
X036770Y002074D01*
X036782Y002081D01*
X037057Y002160D01*
X036964Y002067D01*
X036964Y001983D01*
X036023Y001983D01*
X036299Y001999D01*
X036313Y001996D01*
X036346Y002002D01*
X036381Y002003D01*
X036393Y002009D01*
X036796Y002168D02*
X037094Y002168D01*
X037432Y002168D02*
X038800Y002168D01*
X038772Y002168D02*
X037460Y002168D01*
X037542Y002010D02*
X038642Y002010D01*
X038613Y002010D02*
X037562Y002010D01*
X037562Y001851D02*
X038455Y001851D01*
X038483Y001851D02*
X037542Y001851D01*
X036623Y001543D02*
X036623Y001223D01*
X035076Y001851D02*
X030100Y001851D01*
X035048Y001851D01*
X037268Y002327D02*
X038959Y002327D01*
X038930Y002327D02*
X037478Y002327D01*
X037600Y002485D02*
X039117Y002485D01*
X039089Y002485D02*
X037765Y002485D01*
X037864Y002644D02*
X039276Y002644D01*
X039247Y002644D02*
X038002Y002644D01*
X038090Y002802D02*
X039434Y002802D01*
X039406Y002802D02*
X038210Y002802D01*
X038267Y002961D02*
X039593Y002961D01*
X039564Y002961D02*
X038387Y002961D01*
X038433Y003119D02*
X039751Y003119D01*
X039723Y003119D02*
X038541Y003119D01*
X038575Y003278D02*
X039910Y003278D01*
X039881Y003278D02*
X038687Y003278D01*
X038702Y003436D02*
X039993Y003436D01*
X039973Y003436D02*
X038800Y003436D01*
X038814Y003595D02*
X039993Y003595D01*
X039973Y003595D02*
X038915Y003595D01*
X038914Y003753D02*
X039862Y003753D01*
X039833Y003753D02*
X039005Y003753D01*
X039002Y003912D02*
X039772Y003912D01*
X039750Y003912D02*
X039093Y003912D01*
X039081Y004070D02*
X039743Y004070D01*
X039723Y004070D02*
X039167Y004070D01*
X039146Y004229D02*
X039761Y004229D01*
X039740Y004229D02*
X039233Y004229D01*
X039212Y004387D02*
X039836Y004387D01*
X039807Y004387D02*
X039293Y004387D01*
X039255Y004546D02*
X040037Y004546D01*
X039985Y004546D02*
X039338Y004546D01*
X039305Y004704D02*
X040011Y004704D01*
X039982Y004704D02*
X039386Y004704D01*
X039413Y004863D02*
X039871Y004863D01*
X039892Y004863D02*
X039332Y004863D01*
X039359Y005021D02*
X039843Y005021D01*
X039823Y005021D02*
X039440Y005021D01*
X039459Y005180D02*
X039823Y005180D01*
X039843Y005180D02*
X039382Y005180D01*
X039388Y005338D02*
X039907Y005338D01*
X039885Y005338D02*
X039468Y005338D01*
X039477Y005497D02*
X040017Y005497D01*
X040045Y005497D02*
X039397Y005497D01*
X039388Y005655D02*
X039960Y005655D01*
X039931Y005655D02*
X039469Y005655D01*
X039460Y005814D02*
X039791Y005814D01*
X039813Y005814D02*
X039380Y005814D01*
X039361Y005972D02*
X039747Y005972D01*
X039725Y005972D02*
X039442Y005972D01*
X039416Y006131D02*
X039723Y006131D01*
X039743Y006131D02*
X039334Y006131D01*
X039307Y006289D02*
X039786Y006289D01*
X039765Y006289D02*
X039389Y006289D01*
X039343Y006448D02*
X039868Y006448D01*
X039896Y006448D02*
X039260Y006448D01*
X039297Y006606D02*
X039837Y006606D01*
X039219Y006606D01*
X039239Y006765D02*
X039803Y006765D01*
X039153Y006765D01*
X039174Y006923D02*
X039803Y006923D01*
X039087Y006923D01*
X039102Y007082D02*
X040333Y007082D01*
X039010Y007082D01*
X039014Y007240D02*
X039803Y007240D01*
X038923Y007240D01*
X038926Y007399D02*
X039803Y007399D01*
X038825Y007399D01*
X038811Y007557D02*
X039835Y007557D01*
X038713Y007557D01*
X038699Y007716D02*
X040643Y007716D01*
X038589Y007716D01*
X038554Y007874D02*
X040643Y007874D01*
X038447Y007874D01*
X038405Y008033D02*
X040643Y008033D01*
X038285Y008033D01*
X038227Y008191D02*
X040643Y008191D01*
X038109Y008191D01*
X038024Y008350D02*
X040643Y008350D01*
X037886Y008350D01*
X037801Y008508D02*
X040643Y008508D01*
X037628Y008508D01*
X037514Y008667D02*
X040643Y008667D01*
X037306Y008667D01*
X037139Y008825D02*
X039415Y008825D01*
X036850Y008825D01*
X036487Y008984D02*
X039257Y008984D01*
X032483Y008984D01*
X032503Y008984D02*
X035417Y008984D01*
X035053Y008825D02*
X032483Y008825D01*
X032503Y008825D02*
X034764Y008825D01*
X034598Y008667D02*
X032483Y008667D01*
X032503Y008667D02*
X034390Y008667D01*
X034276Y008508D02*
X032483Y008508D01*
X032503Y008508D02*
X034103Y008508D01*
X034018Y008350D02*
X032483Y008350D01*
X032503Y008350D02*
X033879Y008350D01*
X033794Y008191D02*
X032483Y008191D01*
X032503Y008191D02*
X033676Y008191D01*
X033619Y008033D02*
X032483Y008033D01*
X032503Y008033D02*
X033499Y008033D01*
X033456Y007874D02*
X032483Y007874D01*
X032503Y007874D02*
X033349Y007874D01*
X033315Y007716D02*
X032330Y007716D01*
X032358Y007716D02*
X033205Y007716D01*
X033191Y007557D02*
X032172Y007557D01*
X032200Y007557D02*
X033093Y007557D01*
X033078Y007399D02*
X032013Y007399D01*
X032041Y007399D02*
X032977Y007399D01*
X032981Y007240D02*
X031855Y007240D01*
X031883Y007240D02*
X032890Y007240D01*
X032893Y007082D02*
X031702Y007082D01*
X031724Y007082D02*
X032802Y007082D01*
X032816Y006923D02*
X031677Y006923D01*
X031705Y006923D02*
X032730Y006923D01*
X031547Y006765D02*
X031299Y006765D01*
X031793Y007716D02*
X030658Y007716D01*
X030630Y007716D02*
X031821Y007716D01*
X031738Y007874D02*
X030742Y007874D01*
X030762Y007874D02*
X031709Y007874D01*
X031624Y008033D02*
X030742Y008033D01*
X030762Y008033D02*
X031604Y008033D01*
X031560Y008191D02*
X030643Y008191D01*
X030663Y008191D02*
X031532Y008191D01*
X031402Y008350D02*
X030643Y008350D01*
X030663Y008350D02*
X031374Y008350D01*
X031243Y008508D02*
X030643Y008508D01*
X030663Y008508D02*
X031215Y008508D01*
X031085Y008667D02*
X030643Y008667D01*
X030663Y008667D02*
X031057Y008667D01*
X030926Y008825D02*
X030643Y008825D01*
X030663Y008825D02*
X030898Y008825D01*
X030708Y008984D02*
X030643Y008984D01*
X030666Y008984D02*
X030680Y008984D01*
X030287Y009142D02*
X029216Y009142D01*
X029242Y009142D02*
X030263Y009142D01*
X030418Y009301D02*
X029242Y009301D01*
X029222Y009301D02*
X030446Y009301D01*
X030203Y009459D02*
X030163Y009459D01*
X030203Y009459D01*
X030733Y009588D02*
X030733Y009843D01*
X030733Y009616D01*
X030780Y009663D01*
X031332Y009663D01*
X031293Y009758D01*
X031293Y009969D01*
X031374Y010164D01*
X031406Y010196D01*
X030733Y010196D01*
X030733Y009883D01*
X030203Y009883D01*
X030203Y009843D01*
X030733Y009843D01*
X030203Y009843D01*
X030203Y009883D01*
X030733Y009883D01*
X030733Y010196D01*
X031434Y010196D01*
X031391Y010152D01*
X031313Y009965D01*
X031313Y009762D01*
X031358Y009653D01*
X031348Y009643D01*
X030788Y009643D01*
X030733Y009588D01*
X030733Y009618D02*
X030735Y009618D01*
X030733Y009618D02*
X030763Y009618D01*
X030733Y009776D02*
X031293Y009776D01*
X031313Y009776D02*
X030733Y009776D01*
X030733Y009935D02*
X031293Y009935D01*
X031313Y009935D02*
X030733Y009935D01*
X030203Y009776D02*
X030163Y009776D01*
X030203Y009776D01*
X030203Y009618D02*
X030163Y009618D01*
X030203Y009618D01*
X029636Y009459D02*
X029500Y009459D01*
X029528Y009459D02*
X029636Y009459D01*
X030733Y010093D02*
X031345Y010093D01*
X031366Y010093D02*
X030733Y010093D01*
X033140Y009459D02*
X033506Y009459D01*
X033477Y009459D02*
X033168Y009459D01*
X032543Y009301D02*
X039118Y009301D01*
X032515Y009301D01*
X032503Y009142D02*
X039179Y009142D01*
X032483Y009142D01*
X033273Y009618D02*
X033373Y009618D01*
X033351Y009618D02*
X033295Y009618D01*
X034140Y009459D02*
X034276Y009459D01*
X034168Y009459D01*
X034803Y009459D02*
X034843Y009459D01*
X034803Y009459D01*
X034803Y009618D02*
X034843Y009618D01*
X034803Y009618D01*
X034803Y009776D02*
X034843Y009776D01*
X034803Y009776D01*
X034843Y009843D02*
X034843Y009883D01*
X035334Y009883D01*
X035487Y009730D01*
X035789Y009605D01*
X036115Y009605D01*
X036417Y009730D01*
X036647Y009961D01*
X036647Y009961D01*
X036647Y009961D01*
X036417Y009730D01*
X036417Y009730D01*
X036417Y009730D01*
X036115Y009605D01*
X035789Y009605D01*
X035487Y009730D01*
X035487Y009730D01*
X035487Y009730D01*
X035334Y009883D01*
X034843Y009883D01*
X034843Y009843D01*
X035373Y009776D02*
X035441Y009776D01*
X035373Y009776D01*
X035373Y009618D02*
X035758Y009618D01*
X035373Y009618D01*
X036145Y009618D02*
X039128Y009618D01*
X036145Y009618D01*
X036463Y009776D02*
X039193Y009776D01*
X036463Y009776D01*
X036621Y009935D02*
X039292Y009935D01*
X036621Y009935D01*
X036647Y009961D02*
X036745Y010196D01*
X039696Y010196D01*
X039452Y010095D01*
X039236Y009878D01*
X039118Y009595D01*
X039118Y009288D01*
X039236Y009005D01*
X039452Y008788D01*
X039736Y008671D01*
X040042Y008671D01*
X040325Y008788D01*
X040542Y009005D01*
X040643Y009249D01*
X040643Y007633D01*
X040373Y007633D01*
X040373Y007103D01*
X040333Y007103D01*
X039803Y007103D01*
X039803Y007477D01*
X039815Y007523D01*
X039839Y007564D01*
X039872Y007597D01*
X039913Y007621D01*
X039959Y007633D01*
X040333Y007633D01*
X040333Y007103D01*
X040373Y007103D01*
X040373Y007633D01*
X040643Y007633D01*
X040643Y009249D01*
X040542Y009005D01*
X040325Y008788D01*
X040042Y008671D01*
X039736Y008671D01*
X039452Y008788D01*
X039236Y009005D01*
X039118Y009288D01*
X039118Y009595D01*
X039236Y009878D01*
X039452Y010095D01*
X039696Y010196D01*
X036745Y010196D01*
X036647Y009961D01*
X036702Y010093D02*
X039451Y010093D01*
X036702Y010093D01*
X035370Y009459D02*
X039118Y009459D01*
X035370Y009459D01*
X040362Y008825D02*
X040643Y008825D01*
X040362Y008825D01*
X040521Y008984D02*
X040643Y008984D01*
X040521Y008984D01*
X040599Y009142D02*
X040643Y009142D01*
X040599Y009142D01*
X040373Y007557D02*
X040333Y007557D01*
X040373Y007557D01*
X040373Y007399D02*
X040333Y007399D01*
X040373Y007399D01*
X040373Y007240D02*
X040333Y007240D01*
X040373Y007240D01*
X025355Y001603D02*
X025228Y001476D01*
X025233Y001507D01*
X025233Y001530D01*
X024703Y001530D01*
X024703Y001570D01*
X025233Y001570D01*
X025233Y001583D01*
X025307Y001583D01*
X025233Y001509D01*
X025233Y001530D01*
X024703Y001530D01*
X024703Y001570D01*
X025233Y001570D01*
X025233Y001593D01*
X025231Y001603D01*
X025355Y001603D01*
X025286Y001534D02*
X024703Y001534D01*
X025258Y001534D01*
D18*
X003663Y002383D03*
D19*
X008703Y002743D03*
X010703Y002903D03*
X011023Y003223D03*
X010543Y003463D03*
X009743Y004183D03*
X013263Y003623D03*
X015103Y004983D03*
X016303Y004983D03*
X019743Y004263D03*
X020783Y004663D03*
X021863Y004703D03*
X022103Y004983D03*
X021023Y005623D03*
X020623Y005903D03*
X021023Y006423D03*
X022383Y006583D03*
X022903Y007263D03*
X022983Y007623D03*
X023223Y007903D03*
X023723Y008103D03*
X021903Y007783D03*
X020583Y008143D03*
X021763Y008283D03*
X021423Y008743D03*
X021023Y008863D03*
X021343Y009223D03*
X023383Y009503D03*
X024143Y009703D03*
X023823Y009943D03*
X025223Y010063D03*
X023583Y008943D03*
X021383Y010063D03*
X019223Y009143D03*
X018623Y009383D03*
X018143Y009383D03*
X017183Y009703D03*
X019103Y008343D03*
X019943Y007663D03*
X020303Y007183D03*
X019743Y007143D03*
X022143Y005863D03*
X026063Y006503D03*
X026703Y006263D03*
X027023Y006743D03*
X028343Y006903D03*
X029263Y007223D03*
X031423Y007063D03*
X030703Y006423D03*
X030463Y007943D03*
X031903Y008103D03*
X031823Y008583D03*
X031343Y009143D03*
X030943Y009143D03*
X028943Y009263D03*
X013223Y007343D03*
X010063Y007063D03*
X009663Y007063D03*
X009823Y006663D03*
X009023Y007863D03*
X009943Y008063D03*
X009583Y008183D03*
X008703Y008503D03*
X008223Y008743D03*
X006703Y009143D03*
X012383Y008503D03*
X002783Y006183D03*
X009823Y001943D03*
X012223Y001623D03*
X013023Y001343D03*
X013663Y002023D03*
X019583Y003703D03*
X021183Y003223D03*
X020703Y003143D03*
X022543Y003183D03*
X023903Y002663D03*
X023183Y002383D03*
X027043Y001543D03*
X032063Y002023D03*
X033983Y002583D03*
X036783Y002063D03*
X037263Y001943D03*
X036623Y001223D03*
X038463Y002983D03*
X030143Y003543D03*
X026703Y004503D03*
X026063Y004503D03*
D20*
X026703Y004503D01*
X027831Y005891D02*
X027811Y005972D01*
X027788Y006053D01*
X027761Y006132D01*
X027732Y006211D01*
X027699Y006288D01*
X027663Y006364D01*
X027663Y006363D02*
X027623Y006443D01*
X028343Y006903D01*
X027263Y006843D02*
X027163Y006923D01*
X027023Y006743D01*
X026063Y006503D02*
X025809Y006503D01*
X024810Y005505D01*
X025597Y005505D02*
X026036Y005943D01*
X026383Y005943D01*
X026703Y006263D01*
X027831Y005936D02*
X027831Y005891D01*
X027624Y006444D02*
X027580Y006508D01*
X027534Y006570D01*
X027485Y006630D01*
X027434Y006687D01*
X027379Y006742D01*
X027323Y006794D01*
X027263Y006844D01*
X030463Y007943D02*
X030463Y009063D01*
X030863Y009463D01*
X031423Y009463D01*
X031823Y009863D01*
X032303Y009343D02*
X032823Y009863D01*
X032303Y009343D02*
X032303Y007943D01*
X031423Y007063D01*
X031903Y008103D02*
X030943Y009063D01*
X030943Y009143D01*
X031343Y009143D02*
X031343Y009063D01*
X031823Y008583D01*
X028943Y009263D02*
X026023Y009263D01*
X025223Y010063D01*
X024143Y009703D02*
X023983Y009703D01*
X022943Y008663D01*
X022943Y007663D01*
X022983Y007623D01*
X023183Y007463D02*
X023183Y007143D01*
X022623Y006583D01*
X022623Y005943D01*
X022143Y005463D01*
X021183Y005463D01*
X021023Y005623D01*
X020703Y005983D02*
X020623Y005903D01*
X021023Y006423D02*
X021023Y006463D01*
X020303Y007183D01*
X019743Y007143D02*
X019583Y007143D01*
X018623Y008103D01*
X018623Y009383D01*
X018383Y009143D02*
X018143Y009383D01*
X018383Y009143D02*
X018383Y008103D01*
X019903Y006583D01*
X019903Y004263D01*
X019743Y004263D01*
X021503Y004743D02*
X021823Y004743D01*
X021863Y004703D01*
X021503Y004743D02*
X018703Y001943D01*
X015103Y001943D01*
X014623Y001463D01*
X013483Y001463D01*
X013183Y001763D01*
X012863Y001763D01*
X012483Y001383D01*
X011263Y001383D01*
X010703Y001943D01*
X010703Y002903D01*
X010303Y003223D02*
X010543Y003463D01*
X010303Y003223D02*
X010303Y002103D01*
X011183Y001223D01*
X012543Y001223D01*
X012923Y001603D01*
X013123Y001603D01*
X013423Y001303D01*
X014703Y001303D01*
X015183Y001783D01*
X018783Y001783D01*
X020143Y003143D01*
X020703Y003143D01*
X021183Y003223D02*
X021663Y002743D01*
X022823Y002743D01*
X023183Y002383D01*
X023683Y001883D01*
X023683Y001550D01*
X024903Y002063D02*
X025183Y001783D01*
X027183Y001783D01*
X027503Y002103D01*
X027823Y002103D01*
X028063Y001863D01*
X028063Y001623D01*
X028463Y001223D01*
X034703Y001223D01*
X035263Y001783D01*
X037103Y001783D01*
X037263Y001943D01*
X027043Y001543D02*
X026803Y001303D01*
X026783Y001303D01*
X024903Y002063D02*
X023863Y002063D01*
X022743Y003183D01*
X022543Y003183D01*
X022263Y003023D02*
X022223Y002983D01*
X022303Y002903D01*
X021503Y004983D02*
X018623Y002103D01*
X015023Y002103D01*
X014543Y001623D01*
X013563Y001623D01*
X013263Y001923D01*
X012783Y001923D01*
X012483Y001623D01*
X012223Y001623D01*
X013023Y001343D02*
X013023Y000983D01*
X009823Y001783D02*
X009823Y001943D01*
X015103Y004983D02*
X016303Y004983D01*
X021503Y004983D02*
X022103Y004983D01*
X022143Y005863D02*
X022143Y008423D01*
X021343Y009223D01*
X021023Y008863D02*
X020743Y008583D01*
X019743Y008583D01*
X019223Y009103D01*
X019223Y009143D01*
X021103Y008423D02*
X021423Y008743D01*
X022383Y008583D02*
X023103Y009303D01*
X023103Y009623D01*
X023423Y009943D01*
X023823Y009943D01*
X023383Y009503D02*
X023383Y009343D01*
X022703Y008663D01*
X022703Y007463D01*
X022903Y007263D01*
X023183Y007463D02*
X023723Y008003D01*
X023723Y008103D01*
X023223Y007903D02*
X023223Y008583D01*
X023583Y008943D01*
X022383Y008583D02*
X022383Y006583D01*
X021783Y007663D02*
X019943Y007663D01*
X020583Y008143D02*
X021623Y008143D01*
X021763Y008283D01*
X021103Y008423D02*
X020503Y008423D01*
X020423Y008343D01*
X019103Y008343D01*
X021783Y007663D02*
X021903Y007783D01*
X017263Y010183D02*
X016383Y009303D01*
X013563Y009303D01*
X012003Y007743D01*
X009143Y007743D01*
X009023Y007863D01*
X009583Y008183D02*
X009583Y009863D01*
X008223Y008743D02*
X007583Y009383D01*
X007583Y009863D01*
X007423Y009143D02*
X006703Y009143D01*
X007423Y009143D02*
X008063Y008503D01*
X008703Y008503D01*
X012143Y008743D02*
X012383Y008503D01*
X012143Y008743D02*
X012143Y009863D01*
X017263Y010183D02*
X021263Y010183D01*
X021383Y010063D01*
D21*
X040253Y004083D02*
X040253Y003253D01*
X038543Y001543D01*
X036623Y001543D01*
X035423Y001543D01*
X034863Y000983D01*
X027103Y000983D01*
X026783Y001303D01*
X026543Y001543D01*
X025663Y001543D01*
X025103Y000983D01*
X023423Y000983D01*
X023103Y001303D01*
X023103Y001943D01*
X022543Y002503D01*
X019823Y002503D01*
X018863Y001543D01*
X015343Y001543D01*
X014783Y000983D01*
X013023Y000983D01*
X007263Y000983D01*
X006703Y001543D01*
X003823Y001543D01*
X002033Y003333D01*
X002033Y004083D01*
M02*
