G75*
%MOIN*%
%OFA0B0*%
%FSLAX24Y24*%
%IPPOS*%
%LPD*%
%AMOC8*
5,1,8,0,0,1.08239X$1,22.5*
%
%ADD10C,0.0100*%
%ADD11C,0.0634*%
%ADD12C,0.0000*%
%ADD13C,0.1221*%
%ADD14R,0.0780X0.0780*%
%ADD15C,0.0780*%
%ADD16C,0.0640*%
D10*
X001503Y000583D02*
X001503Y010426D01*
X005834Y010426D01*
X005833Y010426D02*
X005835Y010380D01*
X005840Y010334D01*
X005849Y010288D01*
X005862Y010243D01*
X005878Y010200D01*
X005897Y010158D01*
X005920Y010117D01*
X005946Y010079D01*
X005975Y010042D01*
X006006Y010008D01*
X006040Y009977D01*
X006077Y009948D01*
X006115Y009922D01*
X006156Y009899D01*
X006198Y009880D01*
X006241Y009864D01*
X006286Y009851D01*
X006332Y009842D01*
X006378Y009837D01*
X006424Y009835D01*
X006470Y009837D01*
X006516Y009842D01*
X006562Y009851D01*
X006607Y009864D01*
X006650Y009880D01*
X006692Y009899D01*
X006733Y009922D01*
X006771Y009948D01*
X006808Y009977D01*
X006842Y010008D01*
X006873Y010042D01*
X006902Y010079D01*
X006928Y010117D01*
X006951Y010158D01*
X006970Y010200D01*
X006986Y010243D01*
X006999Y010288D01*
X007008Y010334D01*
X007013Y010380D01*
X007015Y010426D01*
X015676Y010426D01*
X015678Y010380D01*
X015683Y010334D01*
X015692Y010288D01*
X015705Y010243D01*
X015721Y010200D01*
X015740Y010158D01*
X015763Y010117D01*
X015789Y010079D01*
X015818Y010042D01*
X015849Y010008D01*
X015883Y009977D01*
X015920Y009948D01*
X015958Y009922D01*
X015999Y009899D01*
X016041Y009880D01*
X016084Y009864D01*
X016129Y009851D01*
X016175Y009842D01*
X016221Y009837D01*
X016267Y009835D01*
X016313Y009837D01*
X016359Y009842D01*
X016405Y009851D01*
X016450Y009864D01*
X016493Y009880D01*
X016535Y009899D01*
X016576Y009922D01*
X016614Y009948D01*
X016651Y009977D01*
X016685Y010008D01*
X016716Y010042D01*
X016745Y010079D01*
X016771Y010117D01*
X016794Y010158D01*
X016813Y010200D01*
X016829Y010243D01*
X016842Y010288D01*
X016851Y010334D01*
X016856Y010380D01*
X016858Y010426D01*
X016857Y010426D02*
X025519Y010426D01*
X025518Y010426D02*
X025520Y010380D01*
X025525Y010334D01*
X025534Y010288D01*
X025547Y010243D01*
X025563Y010200D01*
X025582Y010158D01*
X025605Y010117D01*
X025631Y010079D01*
X025660Y010042D01*
X025691Y010008D01*
X025725Y009977D01*
X025762Y009948D01*
X025800Y009922D01*
X025841Y009899D01*
X025883Y009880D01*
X025926Y009864D01*
X025971Y009851D01*
X026017Y009842D01*
X026063Y009837D01*
X026109Y009835D01*
X026155Y009837D01*
X026201Y009842D01*
X026247Y009851D01*
X026292Y009864D01*
X026335Y009880D01*
X026377Y009899D01*
X026418Y009922D01*
X026456Y009948D01*
X026493Y009977D01*
X026527Y010008D01*
X026558Y010042D01*
X026587Y010079D01*
X026613Y010117D01*
X026636Y010158D01*
X026655Y010200D01*
X026671Y010243D01*
X026684Y010288D01*
X026693Y010334D01*
X026698Y010380D01*
X026700Y010426D01*
X035361Y010426D01*
X035363Y010380D01*
X035368Y010334D01*
X035377Y010288D01*
X035390Y010243D01*
X035406Y010200D01*
X035425Y010158D01*
X035448Y010117D01*
X035474Y010079D01*
X035503Y010042D01*
X035534Y010008D01*
X035568Y009977D01*
X035605Y009948D01*
X035643Y009922D01*
X035684Y009899D01*
X035726Y009880D01*
X035769Y009864D01*
X035814Y009851D01*
X035860Y009842D01*
X035906Y009837D01*
X035952Y009835D01*
X035998Y009837D01*
X036044Y009842D01*
X036090Y009851D01*
X036135Y009864D01*
X036178Y009880D01*
X036220Y009899D01*
X036261Y009922D01*
X036299Y009948D01*
X036336Y009977D01*
X036370Y010008D01*
X036401Y010042D01*
X036430Y010079D01*
X036456Y010117D01*
X036479Y010158D01*
X036498Y010200D01*
X036514Y010243D01*
X036527Y010288D01*
X036536Y010334D01*
X036541Y010380D01*
X036543Y010426D01*
X036542Y010426D02*
X040873Y010426D01*
X040873Y000583D01*
X036542Y000583D01*
X036543Y000583D02*
X036541Y000629D01*
X036536Y000675D01*
X036527Y000721D01*
X036514Y000766D01*
X036498Y000809D01*
X036479Y000851D01*
X036456Y000892D01*
X036430Y000930D01*
X036401Y000967D01*
X036370Y001001D01*
X036336Y001032D01*
X036299Y001061D01*
X036261Y001087D01*
X036220Y001110D01*
X036178Y001129D01*
X036135Y001145D01*
X036090Y001158D01*
X036044Y001167D01*
X035998Y001172D01*
X035952Y001174D01*
X035906Y001172D01*
X035860Y001167D01*
X035814Y001158D01*
X035769Y001145D01*
X035726Y001129D01*
X035684Y001110D01*
X035643Y001087D01*
X035605Y001061D01*
X035568Y001032D01*
X035534Y001001D01*
X035503Y000967D01*
X035474Y000930D01*
X035448Y000892D01*
X035425Y000851D01*
X035406Y000809D01*
X035390Y000766D01*
X035377Y000721D01*
X035368Y000675D01*
X035363Y000629D01*
X035361Y000583D01*
X026700Y000583D01*
X026698Y000629D01*
X026693Y000675D01*
X026684Y000721D01*
X026671Y000766D01*
X026655Y000809D01*
X026636Y000851D01*
X026613Y000892D01*
X026587Y000930D01*
X026558Y000967D01*
X026527Y001001D01*
X026493Y001032D01*
X026456Y001061D01*
X026418Y001087D01*
X026377Y001110D01*
X026335Y001129D01*
X026292Y001145D01*
X026247Y001158D01*
X026201Y001167D01*
X026155Y001172D01*
X026109Y001174D01*
X026063Y001172D01*
X026017Y001167D01*
X025971Y001158D01*
X025926Y001145D01*
X025883Y001129D01*
X025841Y001110D01*
X025800Y001087D01*
X025762Y001061D01*
X025725Y001032D01*
X025691Y001001D01*
X025660Y000967D01*
X025631Y000930D01*
X025605Y000892D01*
X025582Y000851D01*
X025563Y000809D01*
X025547Y000766D01*
X025534Y000721D01*
X025525Y000675D01*
X025520Y000629D01*
X025518Y000583D01*
X025519Y000583D02*
X016857Y000583D01*
X016858Y000583D02*
X016856Y000629D01*
X016851Y000675D01*
X016842Y000721D01*
X016829Y000766D01*
X016813Y000809D01*
X016794Y000851D01*
X016771Y000892D01*
X016745Y000930D01*
X016716Y000967D01*
X016685Y001001D01*
X016651Y001032D01*
X016614Y001061D01*
X016576Y001087D01*
X016535Y001110D01*
X016493Y001129D01*
X016450Y001145D01*
X016405Y001158D01*
X016359Y001167D01*
X016313Y001172D01*
X016267Y001174D01*
X016221Y001172D01*
X016175Y001167D01*
X016129Y001158D01*
X016084Y001145D01*
X016041Y001129D01*
X015999Y001110D01*
X015958Y001087D01*
X015920Y001061D01*
X015883Y001032D01*
X015849Y001001D01*
X015818Y000967D01*
X015789Y000930D01*
X015763Y000892D01*
X015740Y000851D01*
X015721Y000809D01*
X015705Y000766D01*
X015692Y000721D01*
X015683Y000675D01*
X015678Y000629D01*
X015676Y000583D01*
X007015Y000583D01*
X007013Y000629D01*
X007008Y000675D01*
X006999Y000721D01*
X006986Y000766D01*
X006970Y000809D01*
X006951Y000851D01*
X006928Y000892D01*
X006902Y000930D01*
X006873Y000967D01*
X006842Y001001D01*
X006808Y001032D01*
X006771Y001061D01*
X006733Y001087D01*
X006692Y001110D01*
X006650Y001129D01*
X006607Y001145D01*
X006562Y001158D01*
X006516Y001167D01*
X006470Y001172D01*
X006424Y001174D01*
X006378Y001172D01*
X006332Y001167D01*
X006286Y001158D01*
X006241Y001145D01*
X006198Y001129D01*
X006156Y001110D01*
X006115Y001087D01*
X006077Y001061D01*
X006040Y001032D01*
X006006Y001001D01*
X005975Y000967D01*
X005946Y000930D01*
X005920Y000892D01*
X005897Y000851D01*
X005878Y000809D01*
X005862Y000766D01*
X005849Y000721D01*
X005840Y000675D01*
X005835Y000629D01*
X005833Y000583D01*
X005834Y000583D02*
X001503Y000583D01*
X006338Y002576D02*
X006310Y003453D01*
X006932Y003556D02*
X007231Y002698D01*
X006704Y002812D02*
X006566Y003729D01*
X006038Y003768D02*
X005857Y002843D01*
X005389Y002776D02*
X005696Y003583D01*
X005487Y003993D02*
X004995Y003150D01*
X004625Y003205D02*
X005097Y003906D01*
X005062Y004363D02*
X004452Y003725D01*
X003987Y003898D02*
X004676Y004410D01*
X004759Y004887D02*
X003920Y004473D01*
X003601Y004796D02*
X004436Y005064D01*
X004649Y005335D02*
X003719Y005272D01*
X003487Y005599D02*
X004389Y005611D01*
X004664Y005843D02*
X003743Y005969D01*
X003617Y006387D02*
X004499Y006221D01*
X004838Y006363D02*
X003983Y006745D01*
X003995Y007135D02*
X004794Y006705D01*
X005168Y006792D02*
X004452Y007355D01*
X004641Y007835D02*
X005255Y007135D01*
X005637Y007119D02*
X005109Y007871D01*
X005503Y008276D02*
X005834Y007481D01*
X006424Y007619D02*
X006424Y008453D01*
X006814Y008241D02*
X006653Y007268D01*
X006204Y007280D02*
X005991Y008178D01*
X006944Y007544D02*
X007282Y008320D01*
X007546Y007977D02*
X007109Y007198D01*
X007444Y007221D02*
X008015Y007961D01*
X008172Y007568D02*
X007558Y006890D01*
X007999Y006883D02*
X008597Y007477D01*
X008696Y006946D02*
X007964Y006461D01*
X008306Y006292D02*
X009117Y006698D01*
X009097Y006190D02*
X008164Y005890D01*
X008464Y005650D02*
X009365Y005705D01*
X009086Y005209D02*
X008180Y005268D01*
X008349Y004926D02*
X009247Y004725D01*
X008790Y004316D02*
X008003Y004686D01*
X008066Y004272D02*
X008834Y003820D01*
X008361Y003568D02*
X007625Y004190D01*
X007511Y003784D02*
X008038Y003056D01*
X007503Y003020D02*
X007113Y003831D01*
X003471Y005505D02*
X003473Y005613D01*
X003479Y005722D01*
X003489Y005830D01*
X003503Y005937D01*
X003521Y006044D01*
X003542Y006151D01*
X003568Y006256D01*
X003598Y006361D01*
X003631Y006464D01*
X003668Y006566D01*
X003709Y006666D01*
X003753Y006765D01*
X003802Y006863D01*
X003853Y006958D01*
X003908Y007051D01*
X003967Y007143D01*
X004029Y007232D01*
X004094Y007319D01*
X004162Y007403D01*
X004233Y007485D01*
X004307Y007564D01*
X004384Y007640D01*
X004464Y007714D01*
X004547Y007784D01*
X004632Y007852D01*
X004719Y007916D01*
X004809Y007977D01*
X004901Y008035D01*
X004995Y008089D01*
X005091Y008140D01*
X005188Y008187D01*
X005288Y008231D01*
X005389Y008271D01*
X005491Y008307D01*
X005594Y008339D01*
X005699Y008368D01*
X005805Y008392D01*
X005911Y008413D01*
X006018Y008430D01*
X006126Y008443D01*
X006234Y008452D01*
X006343Y008457D01*
X006451Y008458D01*
X006560Y008455D01*
X006668Y008448D01*
X006776Y008437D01*
X006883Y008422D01*
X006990Y008403D01*
X007096Y008380D01*
X007201Y008354D01*
X007306Y008323D01*
X007408Y008289D01*
X007510Y008251D01*
X007610Y008209D01*
X007709Y008164D01*
X007806Y008115D01*
X007900Y008062D01*
X007993Y008006D01*
X008084Y007947D01*
X008173Y007884D01*
X008259Y007819D01*
X008343Y007750D01*
X008424Y007678D01*
X008502Y007603D01*
X008578Y007525D01*
X008651Y007444D01*
X008721Y007361D01*
X008787Y007276D01*
X008851Y007188D01*
X008911Y007097D01*
X008968Y007005D01*
X009021Y006910D01*
X009071Y006814D01*
X009117Y006716D01*
X009160Y006616D01*
X009199Y006515D01*
X009234Y006412D01*
X009266Y006309D01*
X009293Y006204D01*
X009317Y006098D01*
X009337Y005991D01*
X009353Y005884D01*
X009365Y005776D01*
X009373Y005668D01*
X009377Y005559D01*
X009377Y005451D01*
X009373Y005342D01*
X009365Y005234D01*
X009353Y005126D01*
X009337Y005019D01*
X009317Y004912D01*
X009293Y004806D01*
X009266Y004701D01*
X009234Y004598D01*
X009199Y004495D01*
X009160Y004394D01*
X009117Y004294D01*
X009071Y004196D01*
X009021Y004100D01*
X008968Y004005D01*
X008911Y003913D01*
X008851Y003822D01*
X008787Y003734D01*
X008721Y003649D01*
X008651Y003566D01*
X008578Y003485D01*
X008502Y003407D01*
X008424Y003332D01*
X008343Y003260D01*
X008259Y003191D01*
X008173Y003126D01*
X008084Y003063D01*
X007993Y003004D01*
X007901Y002948D01*
X007806Y002895D01*
X007709Y002846D01*
X007610Y002801D01*
X007510Y002759D01*
X007408Y002721D01*
X007306Y002687D01*
X007201Y002656D01*
X007096Y002630D01*
X006990Y002607D01*
X006883Y002588D01*
X006776Y002573D01*
X006668Y002562D01*
X006560Y002555D01*
X006451Y002552D01*
X006343Y002553D01*
X006234Y002558D01*
X006126Y002567D01*
X006018Y002580D01*
X005911Y002597D01*
X005805Y002618D01*
X005699Y002642D01*
X005594Y002671D01*
X005491Y002703D01*
X005389Y002739D01*
X005288Y002779D01*
X005188Y002823D01*
X005091Y002870D01*
X004995Y002921D01*
X004901Y002975D01*
X004809Y003033D01*
X004719Y003094D01*
X004632Y003158D01*
X004547Y003226D01*
X004464Y003296D01*
X004384Y003370D01*
X004307Y003446D01*
X004233Y003525D01*
X004162Y003607D01*
X004094Y003691D01*
X004029Y003778D01*
X003967Y003867D01*
X003908Y003959D01*
X003853Y004052D01*
X003802Y004147D01*
X003753Y004245D01*
X003709Y004344D01*
X003668Y004444D01*
X003631Y004546D01*
X003598Y004649D01*
X003568Y004754D01*
X003542Y004859D01*
X003521Y004966D01*
X003503Y005073D01*
X003489Y005180D01*
X003479Y005288D01*
X003473Y005397D01*
X003471Y005505D01*
X004648Y005509D02*
X004650Y005593D01*
X004656Y005677D01*
X004666Y005760D01*
X004680Y005843D01*
X004697Y005925D01*
X004719Y006006D01*
X004744Y006086D01*
X004773Y006164D01*
X004806Y006242D01*
X004843Y006317D01*
X004882Y006391D01*
X004926Y006463D01*
X004973Y006532D01*
X005022Y006600D01*
X005076Y006665D01*
X005132Y006727D01*
X005191Y006787D01*
X005252Y006844D01*
X005317Y006898D01*
X005383Y006948D01*
X005453Y006996D01*
X005524Y007040D01*
X005597Y007081D01*
X005672Y007118D01*
X005749Y007152D01*
X005828Y007182D01*
X005907Y007208D01*
X005988Y007231D01*
X006070Y007249D01*
X006152Y007264D01*
X006236Y007275D01*
X006319Y007282D01*
X006403Y007285D01*
X006487Y007284D01*
X006571Y007279D01*
X006654Y007270D01*
X006737Y007257D01*
X006819Y007240D01*
X006901Y007220D01*
X006981Y007195D01*
X007060Y007167D01*
X007137Y007135D01*
X007213Y007100D01*
X007288Y007061D01*
X007360Y007018D01*
X007430Y006972D01*
X007498Y006923D01*
X007564Y006871D01*
X007627Y006816D01*
X007687Y006757D01*
X007745Y006696D01*
X007799Y006633D01*
X007851Y006566D01*
X007899Y006498D01*
X007944Y006427D01*
X007986Y006354D01*
X008024Y006280D01*
X008059Y006203D01*
X008090Y006125D01*
X008117Y006046D01*
X008140Y005965D01*
X008160Y005884D01*
X008176Y005801D01*
X008188Y005718D01*
X008196Y005635D01*
X008200Y005551D01*
X008200Y005467D01*
X008196Y005383D01*
X008188Y005300D01*
X008176Y005217D01*
X008160Y005134D01*
X008140Y005053D01*
X008117Y004972D01*
X008090Y004893D01*
X008059Y004815D01*
X008024Y004738D01*
X007986Y004664D01*
X007944Y004591D01*
X007899Y004520D01*
X007851Y004452D01*
X007799Y004385D01*
X007745Y004322D01*
X007687Y004261D01*
X007627Y004202D01*
X007564Y004147D01*
X007498Y004095D01*
X007430Y004046D01*
X007360Y004000D01*
X007288Y003957D01*
X007213Y003918D01*
X007137Y003883D01*
X007060Y003851D01*
X006981Y003823D01*
X006901Y003798D01*
X006819Y003778D01*
X006737Y003761D01*
X006654Y003748D01*
X006571Y003739D01*
X006487Y003734D01*
X006403Y003733D01*
X006319Y003736D01*
X006236Y003743D01*
X006152Y003754D01*
X006070Y003769D01*
X005988Y003787D01*
X005907Y003810D01*
X005828Y003836D01*
X005749Y003866D01*
X005672Y003900D01*
X005597Y003937D01*
X005524Y003978D01*
X005453Y004022D01*
X005383Y004070D01*
X005317Y004120D01*
X005252Y004174D01*
X005191Y004231D01*
X005132Y004291D01*
X005076Y004353D01*
X005022Y004418D01*
X004973Y004486D01*
X004926Y004555D01*
X004882Y004627D01*
X004843Y004701D01*
X004806Y004776D01*
X004773Y004854D01*
X004744Y004932D01*
X004719Y005012D01*
X004697Y005093D01*
X004680Y005175D01*
X004666Y005258D01*
X004656Y005341D01*
X004650Y005425D01*
X004648Y005509D01*
X013330Y005599D02*
X014231Y005611D01*
X014507Y005843D02*
X013586Y005969D01*
X013460Y006387D02*
X014342Y006221D01*
X014680Y006363D02*
X013826Y006745D01*
X013838Y007135D02*
X014637Y006705D01*
X015011Y006792D02*
X014294Y007355D01*
X014483Y007835D02*
X015097Y007135D01*
X015479Y007119D02*
X014952Y007871D01*
X015345Y008276D02*
X015676Y007481D01*
X016046Y007280D02*
X015834Y008178D01*
X016267Y008453D02*
X016267Y007619D01*
X016786Y007544D02*
X017125Y008320D01*
X016656Y008241D02*
X016495Y007268D01*
X016952Y007198D02*
X017389Y007977D01*
X017857Y007961D02*
X017286Y007221D01*
X017401Y006890D02*
X018015Y007568D01*
X018440Y007477D02*
X017842Y006883D01*
X017806Y006461D02*
X018538Y006946D01*
X018960Y006698D02*
X018149Y006292D01*
X018007Y005890D02*
X018940Y006190D01*
X019208Y005705D02*
X018306Y005650D01*
X018023Y005268D02*
X018928Y005209D01*
X019090Y004725D02*
X018192Y004926D01*
X017845Y004686D02*
X018633Y004316D01*
X018676Y003820D02*
X017908Y004272D01*
X017468Y004190D02*
X018204Y003568D01*
X017881Y003056D02*
X017353Y003784D01*
X016956Y003831D02*
X017345Y003020D01*
X017074Y002698D02*
X016775Y003556D01*
X016408Y003729D02*
X016546Y002812D01*
X016180Y002576D02*
X016153Y003453D01*
X015538Y003583D02*
X015231Y002776D01*
X015700Y002843D02*
X015881Y003768D01*
X015330Y003993D02*
X014838Y003150D01*
X014468Y003205D02*
X014940Y003906D01*
X014905Y004363D02*
X014294Y003725D01*
X013830Y003898D02*
X014519Y004410D01*
X014601Y004887D02*
X013763Y004473D01*
X013444Y004796D02*
X014279Y005064D01*
X014491Y005335D02*
X013562Y005272D01*
X013314Y005505D02*
X013316Y005613D01*
X013322Y005722D01*
X013332Y005830D01*
X013346Y005937D01*
X013364Y006044D01*
X013385Y006151D01*
X013411Y006256D01*
X013441Y006361D01*
X013474Y006464D01*
X013511Y006566D01*
X013552Y006666D01*
X013596Y006765D01*
X013645Y006863D01*
X013696Y006958D01*
X013751Y007051D01*
X013810Y007143D01*
X013872Y007232D01*
X013937Y007319D01*
X014005Y007403D01*
X014076Y007485D01*
X014150Y007564D01*
X014227Y007640D01*
X014307Y007714D01*
X014390Y007784D01*
X014475Y007852D01*
X014562Y007916D01*
X014652Y007977D01*
X014744Y008035D01*
X014838Y008089D01*
X014934Y008140D01*
X015031Y008187D01*
X015131Y008231D01*
X015232Y008271D01*
X015334Y008307D01*
X015437Y008339D01*
X015542Y008368D01*
X015648Y008392D01*
X015754Y008413D01*
X015861Y008430D01*
X015969Y008443D01*
X016077Y008452D01*
X016186Y008457D01*
X016294Y008458D01*
X016403Y008455D01*
X016511Y008448D01*
X016619Y008437D01*
X016726Y008422D01*
X016833Y008403D01*
X016939Y008380D01*
X017044Y008354D01*
X017149Y008323D01*
X017251Y008289D01*
X017353Y008251D01*
X017453Y008209D01*
X017552Y008164D01*
X017649Y008115D01*
X017743Y008062D01*
X017836Y008006D01*
X017927Y007947D01*
X018016Y007884D01*
X018102Y007819D01*
X018186Y007750D01*
X018267Y007678D01*
X018345Y007603D01*
X018421Y007525D01*
X018494Y007444D01*
X018564Y007361D01*
X018630Y007276D01*
X018694Y007188D01*
X018754Y007097D01*
X018811Y007005D01*
X018864Y006910D01*
X018914Y006814D01*
X018960Y006716D01*
X019003Y006616D01*
X019042Y006515D01*
X019077Y006412D01*
X019109Y006309D01*
X019136Y006204D01*
X019160Y006098D01*
X019180Y005991D01*
X019196Y005884D01*
X019208Y005776D01*
X019216Y005668D01*
X019220Y005559D01*
X019220Y005451D01*
X019216Y005342D01*
X019208Y005234D01*
X019196Y005126D01*
X019180Y005019D01*
X019160Y004912D01*
X019136Y004806D01*
X019109Y004701D01*
X019077Y004598D01*
X019042Y004495D01*
X019003Y004394D01*
X018960Y004294D01*
X018914Y004196D01*
X018864Y004100D01*
X018811Y004005D01*
X018754Y003913D01*
X018694Y003822D01*
X018630Y003734D01*
X018564Y003649D01*
X018494Y003566D01*
X018421Y003485D01*
X018345Y003407D01*
X018267Y003332D01*
X018186Y003260D01*
X018102Y003191D01*
X018016Y003126D01*
X017927Y003063D01*
X017836Y003004D01*
X017744Y002948D01*
X017649Y002895D01*
X017552Y002846D01*
X017453Y002801D01*
X017353Y002759D01*
X017251Y002721D01*
X017149Y002687D01*
X017044Y002656D01*
X016939Y002630D01*
X016833Y002607D01*
X016726Y002588D01*
X016619Y002573D01*
X016511Y002562D01*
X016403Y002555D01*
X016294Y002552D01*
X016186Y002553D01*
X016077Y002558D01*
X015969Y002567D01*
X015861Y002580D01*
X015754Y002597D01*
X015648Y002618D01*
X015542Y002642D01*
X015437Y002671D01*
X015334Y002703D01*
X015232Y002739D01*
X015131Y002779D01*
X015031Y002823D01*
X014934Y002870D01*
X014838Y002921D01*
X014744Y002975D01*
X014652Y003033D01*
X014562Y003094D01*
X014475Y003158D01*
X014390Y003226D01*
X014307Y003296D01*
X014227Y003370D01*
X014150Y003446D01*
X014076Y003525D01*
X014005Y003607D01*
X013937Y003691D01*
X013872Y003778D01*
X013810Y003867D01*
X013751Y003959D01*
X013696Y004052D01*
X013645Y004147D01*
X013596Y004245D01*
X013552Y004344D01*
X013511Y004444D01*
X013474Y004546D01*
X013441Y004649D01*
X013411Y004754D01*
X013385Y004859D01*
X013364Y004966D01*
X013346Y005073D01*
X013332Y005180D01*
X013322Y005288D01*
X013316Y005397D01*
X013314Y005505D01*
X014491Y005509D02*
X014493Y005593D01*
X014499Y005677D01*
X014509Y005760D01*
X014523Y005843D01*
X014540Y005925D01*
X014562Y006006D01*
X014587Y006086D01*
X014616Y006164D01*
X014649Y006242D01*
X014686Y006317D01*
X014725Y006391D01*
X014769Y006463D01*
X014816Y006532D01*
X014865Y006600D01*
X014919Y006665D01*
X014975Y006727D01*
X015034Y006787D01*
X015095Y006844D01*
X015160Y006898D01*
X015226Y006948D01*
X015296Y006996D01*
X015367Y007040D01*
X015440Y007081D01*
X015515Y007118D01*
X015592Y007152D01*
X015671Y007182D01*
X015750Y007208D01*
X015831Y007231D01*
X015913Y007249D01*
X015995Y007264D01*
X016079Y007275D01*
X016162Y007282D01*
X016246Y007285D01*
X016330Y007284D01*
X016414Y007279D01*
X016497Y007270D01*
X016580Y007257D01*
X016662Y007240D01*
X016744Y007220D01*
X016824Y007195D01*
X016903Y007167D01*
X016980Y007135D01*
X017056Y007100D01*
X017131Y007061D01*
X017203Y007018D01*
X017273Y006972D01*
X017341Y006923D01*
X017407Y006871D01*
X017470Y006816D01*
X017530Y006757D01*
X017588Y006696D01*
X017642Y006633D01*
X017694Y006566D01*
X017742Y006498D01*
X017787Y006427D01*
X017829Y006354D01*
X017867Y006280D01*
X017902Y006203D01*
X017933Y006125D01*
X017960Y006046D01*
X017983Y005965D01*
X018003Y005884D01*
X018019Y005801D01*
X018031Y005718D01*
X018039Y005635D01*
X018043Y005551D01*
X018043Y005467D01*
X018039Y005383D01*
X018031Y005300D01*
X018019Y005217D01*
X018003Y005134D01*
X017983Y005053D01*
X017960Y004972D01*
X017933Y004893D01*
X017902Y004815D01*
X017867Y004738D01*
X017829Y004664D01*
X017787Y004591D01*
X017742Y004520D01*
X017694Y004452D01*
X017642Y004385D01*
X017588Y004322D01*
X017530Y004261D01*
X017470Y004202D01*
X017407Y004147D01*
X017341Y004095D01*
X017273Y004046D01*
X017203Y004000D01*
X017131Y003957D01*
X017056Y003918D01*
X016980Y003883D01*
X016903Y003851D01*
X016824Y003823D01*
X016744Y003798D01*
X016662Y003778D01*
X016580Y003761D01*
X016497Y003748D01*
X016414Y003739D01*
X016330Y003734D01*
X016246Y003733D01*
X016162Y003736D01*
X016079Y003743D01*
X015995Y003754D01*
X015913Y003769D01*
X015831Y003787D01*
X015750Y003810D01*
X015671Y003836D01*
X015592Y003866D01*
X015515Y003900D01*
X015440Y003937D01*
X015367Y003978D01*
X015296Y004022D01*
X015226Y004070D01*
X015160Y004120D01*
X015095Y004174D01*
X015034Y004231D01*
X014975Y004291D01*
X014919Y004353D01*
X014865Y004418D01*
X014816Y004486D01*
X014769Y004555D01*
X014725Y004627D01*
X014686Y004701D01*
X014649Y004776D01*
X014616Y004854D01*
X014587Y004932D01*
X014562Y005012D01*
X014540Y005093D01*
X014523Y005175D01*
X014509Y005258D01*
X014499Y005341D01*
X014493Y005425D01*
X014491Y005509D01*
X023172Y005599D02*
X024074Y005611D01*
X024349Y005843D02*
X023428Y005969D01*
X023302Y006387D02*
X024184Y006221D01*
X024523Y006363D02*
X023668Y006745D01*
X023680Y007135D02*
X024479Y006705D01*
X024853Y006792D02*
X024137Y007355D01*
X024326Y007835D02*
X024940Y007135D01*
X025322Y007119D02*
X024794Y007871D01*
X025188Y008276D02*
X025519Y007481D01*
X026109Y007619D02*
X026109Y008453D01*
X026499Y008241D02*
X026338Y007268D01*
X025889Y007280D02*
X025676Y008178D01*
X026629Y007544D02*
X026968Y008320D01*
X027231Y007977D02*
X026794Y007198D01*
X027129Y007221D02*
X027700Y007961D01*
X027857Y007568D02*
X027243Y006890D01*
X027684Y006883D02*
X028282Y007477D01*
X028381Y006946D02*
X027649Y006461D01*
X027991Y006292D02*
X028802Y006698D01*
X028782Y006190D02*
X027849Y005890D01*
X028149Y005650D02*
X029050Y005705D01*
X028771Y005209D02*
X027865Y005268D01*
X028034Y004926D02*
X028932Y004725D01*
X028475Y004316D02*
X027688Y004686D01*
X027751Y004272D02*
X028519Y003820D01*
X028046Y003568D02*
X027310Y004190D01*
X027196Y003784D02*
X027723Y003056D01*
X027188Y003020D02*
X026798Y003831D01*
X026251Y003729D02*
X026389Y002812D01*
X026916Y002698D02*
X026617Y003556D01*
X025995Y003453D02*
X026023Y002576D01*
X025542Y002843D02*
X025723Y003768D01*
X025172Y003993D02*
X024680Y003150D01*
X024310Y003205D02*
X024782Y003906D01*
X024747Y004363D02*
X024137Y003725D01*
X023672Y003898D02*
X024361Y004410D01*
X024444Y004887D02*
X023605Y004473D01*
X023286Y004796D02*
X024121Y005064D01*
X024334Y005335D02*
X023405Y005272D01*
X023156Y005505D02*
X023158Y005613D01*
X023164Y005722D01*
X023174Y005830D01*
X023188Y005937D01*
X023206Y006044D01*
X023227Y006151D01*
X023253Y006256D01*
X023283Y006361D01*
X023316Y006464D01*
X023353Y006566D01*
X023394Y006666D01*
X023438Y006765D01*
X023487Y006863D01*
X023538Y006958D01*
X023593Y007051D01*
X023652Y007143D01*
X023714Y007232D01*
X023779Y007319D01*
X023847Y007403D01*
X023918Y007485D01*
X023992Y007564D01*
X024069Y007640D01*
X024149Y007714D01*
X024232Y007784D01*
X024317Y007852D01*
X024404Y007916D01*
X024494Y007977D01*
X024586Y008035D01*
X024680Y008089D01*
X024776Y008140D01*
X024873Y008187D01*
X024973Y008231D01*
X025074Y008271D01*
X025176Y008307D01*
X025279Y008339D01*
X025384Y008368D01*
X025490Y008392D01*
X025596Y008413D01*
X025703Y008430D01*
X025811Y008443D01*
X025919Y008452D01*
X026028Y008457D01*
X026136Y008458D01*
X026245Y008455D01*
X026353Y008448D01*
X026461Y008437D01*
X026568Y008422D01*
X026675Y008403D01*
X026781Y008380D01*
X026886Y008354D01*
X026991Y008323D01*
X027093Y008289D01*
X027195Y008251D01*
X027295Y008209D01*
X027394Y008164D01*
X027491Y008115D01*
X027585Y008062D01*
X027678Y008006D01*
X027769Y007947D01*
X027858Y007884D01*
X027944Y007819D01*
X028028Y007750D01*
X028109Y007678D01*
X028187Y007603D01*
X028263Y007525D01*
X028336Y007444D01*
X028406Y007361D01*
X028472Y007276D01*
X028536Y007188D01*
X028596Y007097D01*
X028653Y007005D01*
X028706Y006910D01*
X028756Y006814D01*
X028802Y006716D01*
X028845Y006616D01*
X028884Y006515D01*
X028919Y006412D01*
X028951Y006309D01*
X028978Y006204D01*
X029002Y006098D01*
X029022Y005991D01*
X029038Y005884D01*
X029050Y005776D01*
X029058Y005668D01*
X029062Y005559D01*
X029062Y005451D01*
X029058Y005342D01*
X029050Y005234D01*
X029038Y005126D01*
X029022Y005019D01*
X029002Y004912D01*
X028978Y004806D01*
X028951Y004701D01*
X028919Y004598D01*
X028884Y004495D01*
X028845Y004394D01*
X028802Y004294D01*
X028756Y004196D01*
X028706Y004100D01*
X028653Y004005D01*
X028596Y003913D01*
X028536Y003822D01*
X028472Y003734D01*
X028406Y003649D01*
X028336Y003566D01*
X028263Y003485D01*
X028187Y003407D01*
X028109Y003332D01*
X028028Y003260D01*
X027944Y003191D01*
X027858Y003126D01*
X027769Y003063D01*
X027678Y003004D01*
X027586Y002948D01*
X027491Y002895D01*
X027394Y002846D01*
X027295Y002801D01*
X027195Y002759D01*
X027093Y002721D01*
X026991Y002687D01*
X026886Y002656D01*
X026781Y002630D01*
X026675Y002607D01*
X026568Y002588D01*
X026461Y002573D01*
X026353Y002562D01*
X026245Y002555D01*
X026136Y002552D01*
X026028Y002553D01*
X025919Y002558D01*
X025811Y002567D01*
X025703Y002580D01*
X025596Y002597D01*
X025490Y002618D01*
X025384Y002642D01*
X025279Y002671D01*
X025176Y002703D01*
X025074Y002739D01*
X024973Y002779D01*
X024873Y002823D01*
X024776Y002870D01*
X024680Y002921D01*
X024586Y002975D01*
X024494Y003033D01*
X024404Y003094D01*
X024317Y003158D01*
X024232Y003226D01*
X024149Y003296D01*
X024069Y003370D01*
X023992Y003446D01*
X023918Y003525D01*
X023847Y003607D01*
X023779Y003691D01*
X023714Y003778D01*
X023652Y003867D01*
X023593Y003959D01*
X023538Y004052D01*
X023487Y004147D01*
X023438Y004245D01*
X023394Y004344D01*
X023353Y004444D01*
X023316Y004546D01*
X023283Y004649D01*
X023253Y004754D01*
X023227Y004859D01*
X023206Y004966D01*
X023188Y005073D01*
X023174Y005180D01*
X023164Y005288D01*
X023158Y005397D01*
X023156Y005505D01*
X024333Y005509D02*
X024335Y005593D01*
X024341Y005677D01*
X024351Y005760D01*
X024365Y005843D01*
X024382Y005925D01*
X024404Y006006D01*
X024429Y006086D01*
X024458Y006164D01*
X024491Y006242D01*
X024528Y006317D01*
X024567Y006391D01*
X024611Y006463D01*
X024658Y006532D01*
X024707Y006600D01*
X024761Y006665D01*
X024817Y006727D01*
X024876Y006787D01*
X024937Y006844D01*
X025002Y006898D01*
X025068Y006948D01*
X025138Y006996D01*
X025209Y007040D01*
X025282Y007081D01*
X025357Y007118D01*
X025434Y007152D01*
X025513Y007182D01*
X025592Y007208D01*
X025673Y007231D01*
X025755Y007249D01*
X025837Y007264D01*
X025921Y007275D01*
X026004Y007282D01*
X026088Y007285D01*
X026172Y007284D01*
X026256Y007279D01*
X026339Y007270D01*
X026422Y007257D01*
X026504Y007240D01*
X026586Y007220D01*
X026666Y007195D01*
X026745Y007167D01*
X026822Y007135D01*
X026898Y007100D01*
X026973Y007061D01*
X027045Y007018D01*
X027115Y006972D01*
X027183Y006923D01*
X027249Y006871D01*
X027312Y006816D01*
X027372Y006757D01*
X027430Y006696D01*
X027484Y006633D01*
X027536Y006566D01*
X027584Y006498D01*
X027629Y006427D01*
X027671Y006354D01*
X027709Y006280D01*
X027744Y006203D01*
X027775Y006125D01*
X027802Y006046D01*
X027825Y005965D01*
X027845Y005884D01*
X027861Y005801D01*
X027873Y005718D01*
X027881Y005635D01*
X027885Y005551D01*
X027885Y005467D01*
X027881Y005383D01*
X027873Y005300D01*
X027861Y005217D01*
X027845Y005134D01*
X027825Y005053D01*
X027802Y004972D01*
X027775Y004893D01*
X027744Y004815D01*
X027709Y004738D01*
X027671Y004664D01*
X027629Y004591D01*
X027584Y004520D01*
X027536Y004452D01*
X027484Y004385D01*
X027430Y004322D01*
X027372Y004261D01*
X027312Y004202D01*
X027249Y004147D01*
X027183Y004095D01*
X027115Y004046D01*
X027045Y004000D01*
X026973Y003957D01*
X026898Y003918D01*
X026822Y003883D01*
X026745Y003851D01*
X026666Y003823D01*
X026586Y003798D01*
X026504Y003778D01*
X026422Y003761D01*
X026339Y003748D01*
X026256Y003739D01*
X026172Y003734D01*
X026088Y003733D01*
X026004Y003736D01*
X025921Y003743D01*
X025837Y003754D01*
X025755Y003769D01*
X025673Y003787D01*
X025592Y003810D01*
X025513Y003836D01*
X025434Y003866D01*
X025357Y003900D01*
X025282Y003937D01*
X025209Y003978D01*
X025138Y004022D01*
X025068Y004070D01*
X025002Y004120D01*
X024937Y004174D01*
X024876Y004231D01*
X024817Y004291D01*
X024761Y004353D01*
X024707Y004418D01*
X024658Y004486D01*
X024611Y004555D01*
X024567Y004627D01*
X024528Y004701D01*
X024491Y004776D01*
X024458Y004854D01*
X024429Y004932D01*
X024404Y005012D01*
X024382Y005093D01*
X024365Y005175D01*
X024351Y005258D01*
X024341Y005341D01*
X024335Y005425D01*
X024333Y005509D01*
X025381Y003583D02*
X025074Y002776D01*
X033129Y004796D02*
X033964Y005064D01*
X034286Y004887D02*
X033448Y004473D01*
X033515Y003898D02*
X034204Y004410D01*
X034590Y004363D02*
X033979Y003725D01*
X034153Y003205D02*
X034625Y003906D01*
X035015Y003993D02*
X034523Y003150D01*
X035385Y002843D02*
X035566Y003768D01*
X036094Y003729D02*
X036231Y002812D01*
X036759Y002698D02*
X036460Y003556D01*
X035838Y003453D02*
X035865Y002576D01*
X034916Y002776D02*
X035223Y003583D01*
X036641Y003831D02*
X037031Y003020D01*
X037566Y003056D02*
X037038Y003784D01*
X037153Y004190D02*
X037889Y003568D01*
X038361Y003820D02*
X037594Y004272D01*
X037531Y004686D02*
X038318Y004316D01*
X038775Y004725D02*
X037877Y004926D01*
X037708Y005268D02*
X038613Y005209D01*
X038893Y005705D02*
X037991Y005650D01*
X037692Y005890D02*
X038625Y006190D01*
X038645Y006698D02*
X037834Y006292D01*
X037491Y006461D02*
X038223Y006946D01*
X038125Y007477D02*
X037527Y006883D01*
X037086Y006890D02*
X037700Y007568D01*
X037542Y007961D02*
X036971Y007221D01*
X036637Y007198D02*
X037074Y007977D01*
X036342Y008241D02*
X036180Y007268D01*
X035731Y007280D02*
X035519Y008178D01*
X035031Y008276D02*
X035361Y007481D01*
X035952Y007619D02*
X035952Y008453D01*
X036810Y008320D02*
X036471Y007544D01*
X035164Y007119D02*
X034637Y007871D01*
X034168Y007835D02*
X034782Y007135D01*
X034696Y006792D02*
X033979Y007355D01*
X033523Y007135D02*
X034322Y006705D01*
X034365Y006363D02*
X033511Y006745D01*
X033145Y006387D02*
X034027Y006221D01*
X034192Y005843D02*
X033271Y005969D01*
X033015Y005599D02*
X033916Y005611D01*
X034176Y005335D02*
X033247Y005272D01*
X032999Y005505D02*
X033001Y005613D01*
X033007Y005722D01*
X033017Y005830D01*
X033031Y005937D01*
X033049Y006044D01*
X033070Y006151D01*
X033096Y006256D01*
X033126Y006361D01*
X033159Y006464D01*
X033196Y006566D01*
X033237Y006666D01*
X033281Y006765D01*
X033330Y006863D01*
X033381Y006958D01*
X033436Y007051D01*
X033495Y007143D01*
X033557Y007232D01*
X033622Y007319D01*
X033690Y007403D01*
X033761Y007485D01*
X033835Y007564D01*
X033912Y007640D01*
X033992Y007714D01*
X034075Y007784D01*
X034160Y007852D01*
X034247Y007916D01*
X034337Y007977D01*
X034429Y008035D01*
X034523Y008089D01*
X034619Y008140D01*
X034716Y008187D01*
X034816Y008231D01*
X034917Y008271D01*
X035019Y008307D01*
X035122Y008339D01*
X035227Y008368D01*
X035333Y008392D01*
X035439Y008413D01*
X035546Y008430D01*
X035654Y008443D01*
X035762Y008452D01*
X035871Y008457D01*
X035979Y008458D01*
X036088Y008455D01*
X036196Y008448D01*
X036304Y008437D01*
X036411Y008422D01*
X036518Y008403D01*
X036624Y008380D01*
X036729Y008354D01*
X036834Y008323D01*
X036936Y008289D01*
X037038Y008251D01*
X037138Y008209D01*
X037237Y008164D01*
X037334Y008115D01*
X037428Y008062D01*
X037521Y008006D01*
X037612Y007947D01*
X037701Y007884D01*
X037787Y007819D01*
X037871Y007750D01*
X037952Y007678D01*
X038030Y007603D01*
X038106Y007525D01*
X038179Y007444D01*
X038249Y007361D01*
X038315Y007276D01*
X038379Y007188D01*
X038439Y007097D01*
X038496Y007005D01*
X038549Y006910D01*
X038599Y006814D01*
X038645Y006716D01*
X038688Y006616D01*
X038727Y006515D01*
X038762Y006412D01*
X038794Y006309D01*
X038821Y006204D01*
X038845Y006098D01*
X038865Y005991D01*
X038881Y005884D01*
X038893Y005776D01*
X038901Y005668D01*
X038905Y005559D01*
X038905Y005451D01*
X038901Y005342D01*
X038893Y005234D01*
X038881Y005126D01*
X038865Y005019D01*
X038845Y004912D01*
X038821Y004806D01*
X038794Y004701D01*
X038762Y004598D01*
X038727Y004495D01*
X038688Y004394D01*
X038645Y004294D01*
X038599Y004196D01*
X038549Y004100D01*
X038496Y004005D01*
X038439Y003913D01*
X038379Y003822D01*
X038315Y003734D01*
X038249Y003649D01*
X038179Y003566D01*
X038106Y003485D01*
X038030Y003407D01*
X037952Y003332D01*
X037871Y003260D01*
X037787Y003191D01*
X037701Y003126D01*
X037612Y003063D01*
X037521Y003004D01*
X037429Y002948D01*
X037334Y002895D01*
X037237Y002846D01*
X037138Y002801D01*
X037038Y002759D01*
X036936Y002721D01*
X036834Y002687D01*
X036729Y002656D01*
X036624Y002630D01*
X036518Y002607D01*
X036411Y002588D01*
X036304Y002573D01*
X036196Y002562D01*
X036088Y002555D01*
X035979Y002552D01*
X035871Y002553D01*
X035762Y002558D01*
X035654Y002567D01*
X035546Y002580D01*
X035439Y002597D01*
X035333Y002618D01*
X035227Y002642D01*
X035122Y002671D01*
X035019Y002703D01*
X034917Y002739D01*
X034816Y002779D01*
X034716Y002823D01*
X034619Y002870D01*
X034523Y002921D01*
X034429Y002975D01*
X034337Y003033D01*
X034247Y003094D01*
X034160Y003158D01*
X034075Y003226D01*
X033992Y003296D01*
X033912Y003370D01*
X033835Y003446D01*
X033761Y003525D01*
X033690Y003607D01*
X033622Y003691D01*
X033557Y003778D01*
X033495Y003867D01*
X033436Y003959D01*
X033381Y004052D01*
X033330Y004147D01*
X033281Y004245D01*
X033237Y004344D01*
X033196Y004444D01*
X033159Y004546D01*
X033126Y004649D01*
X033096Y004754D01*
X033070Y004859D01*
X033049Y004966D01*
X033031Y005073D01*
X033017Y005180D01*
X033007Y005288D01*
X033001Y005397D01*
X032999Y005505D01*
X034176Y005509D02*
X034178Y005593D01*
X034184Y005677D01*
X034194Y005760D01*
X034208Y005843D01*
X034225Y005925D01*
X034247Y006006D01*
X034272Y006086D01*
X034301Y006164D01*
X034334Y006242D01*
X034371Y006317D01*
X034410Y006391D01*
X034454Y006463D01*
X034501Y006532D01*
X034550Y006600D01*
X034604Y006665D01*
X034660Y006727D01*
X034719Y006787D01*
X034780Y006844D01*
X034845Y006898D01*
X034911Y006948D01*
X034981Y006996D01*
X035052Y007040D01*
X035125Y007081D01*
X035200Y007118D01*
X035277Y007152D01*
X035356Y007182D01*
X035435Y007208D01*
X035516Y007231D01*
X035598Y007249D01*
X035680Y007264D01*
X035764Y007275D01*
X035847Y007282D01*
X035931Y007285D01*
X036015Y007284D01*
X036099Y007279D01*
X036182Y007270D01*
X036265Y007257D01*
X036347Y007240D01*
X036429Y007220D01*
X036509Y007195D01*
X036588Y007167D01*
X036665Y007135D01*
X036741Y007100D01*
X036816Y007061D01*
X036888Y007018D01*
X036958Y006972D01*
X037026Y006923D01*
X037092Y006871D01*
X037155Y006816D01*
X037215Y006757D01*
X037273Y006696D01*
X037327Y006633D01*
X037379Y006566D01*
X037427Y006498D01*
X037472Y006427D01*
X037514Y006354D01*
X037552Y006280D01*
X037587Y006203D01*
X037618Y006125D01*
X037645Y006046D01*
X037668Y005965D01*
X037688Y005884D01*
X037704Y005801D01*
X037716Y005718D01*
X037724Y005635D01*
X037728Y005551D01*
X037728Y005467D01*
X037724Y005383D01*
X037716Y005300D01*
X037704Y005217D01*
X037688Y005134D01*
X037668Y005053D01*
X037645Y004972D01*
X037618Y004893D01*
X037587Y004815D01*
X037552Y004738D01*
X037514Y004664D01*
X037472Y004591D01*
X037427Y004520D01*
X037379Y004452D01*
X037327Y004385D01*
X037273Y004322D01*
X037215Y004261D01*
X037155Y004202D01*
X037092Y004147D01*
X037026Y004095D01*
X036958Y004046D01*
X036888Y004000D01*
X036816Y003957D01*
X036741Y003918D01*
X036665Y003883D01*
X036588Y003851D01*
X036509Y003823D01*
X036429Y003798D01*
X036347Y003778D01*
X036265Y003761D01*
X036182Y003748D01*
X036099Y003739D01*
X036015Y003734D01*
X035931Y003733D01*
X035847Y003736D01*
X035764Y003743D01*
X035680Y003754D01*
X035598Y003769D01*
X035516Y003787D01*
X035435Y003810D01*
X035356Y003836D01*
X035277Y003866D01*
X035200Y003900D01*
X035125Y003937D01*
X035052Y003978D01*
X034981Y004022D01*
X034911Y004070D01*
X034845Y004120D01*
X034780Y004174D01*
X034719Y004231D01*
X034660Y004291D01*
X034604Y004353D01*
X034550Y004418D01*
X034501Y004486D01*
X034454Y004555D01*
X034410Y004627D01*
X034371Y004701D01*
X034334Y004776D01*
X034301Y004854D01*
X034272Y004932D01*
X034247Y005012D01*
X034225Y005093D01*
X034208Y005175D01*
X034194Y005258D01*
X034184Y005341D01*
X034178Y005425D01*
X034176Y005509D01*
D11*
X034653Y005505D03*
X035440Y005505D03*
X036227Y005505D03*
X037015Y005505D03*
X027172Y005505D03*
X026385Y005505D03*
X025597Y005505D03*
X024810Y005505D03*
X017330Y005505D03*
X016542Y005505D03*
X015755Y005505D03*
X014968Y005505D03*
X007487Y005505D03*
X006700Y005505D03*
X005912Y005505D03*
X005125Y005505D03*
D12*
X010754Y005505D02*
X010756Y005553D01*
X010762Y005601D01*
X010772Y005648D01*
X010785Y005694D01*
X010803Y005739D01*
X010823Y005783D01*
X010848Y005825D01*
X010876Y005864D01*
X010906Y005901D01*
X010940Y005935D01*
X010977Y005967D01*
X011015Y005996D01*
X011056Y006021D01*
X011099Y006043D01*
X011144Y006061D01*
X011190Y006075D01*
X011237Y006086D01*
X011285Y006093D01*
X011333Y006096D01*
X011381Y006095D01*
X011429Y006090D01*
X011477Y006081D01*
X011523Y006069D01*
X011568Y006052D01*
X011612Y006032D01*
X011654Y006009D01*
X011694Y005982D01*
X011732Y005952D01*
X011767Y005919D01*
X011799Y005883D01*
X011829Y005845D01*
X011855Y005804D01*
X011877Y005761D01*
X011897Y005717D01*
X011912Y005672D01*
X011924Y005625D01*
X011932Y005577D01*
X011936Y005529D01*
X011936Y005481D01*
X011932Y005433D01*
X011924Y005385D01*
X011912Y005338D01*
X011897Y005293D01*
X011877Y005249D01*
X011855Y005206D01*
X011829Y005165D01*
X011799Y005127D01*
X011767Y005091D01*
X011732Y005058D01*
X011694Y005028D01*
X011654Y005001D01*
X011612Y004978D01*
X011568Y004958D01*
X011523Y004941D01*
X011477Y004929D01*
X011429Y004920D01*
X011381Y004915D01*
X011333Y004914D01*
X011285Y004917D01*
X011237Y004924D01*
X011190Y004935D01*
X011144Y004949D01*
X011099Y004967D01*
X011056Y004989D01*
X011015Y005014D01*
X010977Y005043D01*
X010940Y005075D01*
X010906Y005109D01*
X010876Y005146D01*
X010848Y005185D01*
X010823Y005227D01*
X010803Y005271D01*
X010785Y005316D01*
X010772Y005362D01*
X010762Y005409D01*
X010756Y005457D01*
X010754Y005505D01*
X001896Y009442D02*
X001898Y009490D01*
X001904Y009538D01*
X001914Y009585D01*
X001927Y009631D01*
X001945Y009676D01*
X001965Y009720D01*
X001990Y009762D01*
X002018Y009801D01*
X002048Y009838D01*
X002082Y009872D01*
X002119Y009904D01*
X002157Y009933D01*
X002198Y009958D01*
X002241Y009980D01*
X002286Y009998D01*
X002332Y010012D01*
X002379Y010023D01*
X002427Y010030D01*
X002475Y010033D01*
X002523Y010032D01*
X002571Y010027D01*
X002619Y010018D01*
X002665Y010006D01*
X002710Y009989D01*
X002754Y009969D01*
X002796Y009946D01*
X002836Y009919D01*
X002874Y009889D01*
X002909Y009856D01*
X002941Y009820D01*
X002971Y009782D01*
X002997Y009741D01*
X003019Y009698D01*
X003039Y009654D01*
X003054Y009609D01*
X003066Y009562D01*
X003074Y009514D01*
X003078Y009466D01*
X003078Y009418D01*
X003074Y009370D01*
X003066Y009322D01*
X003054Y009275D01*
X003039Y009230D01*
X003019Y009186D01*
X002997Y009143D01*
X002971Y009102D01*
X002941Y009064D01*
X002909Y009028D01*
X002874Y008995D01*
X002836Y008965D01*
X002796Y008938D01*
X002754Y008915D01*
X002710Y008895D01*
X002665Y008878D01*
X002619Y008866D01*
X002571Y008857D01*
X002523Y008852D01*
X002475Y008851D01*
X002427Y008854D01*
X002379Y008861D01*
X002332Y008872D01*
X002286Y008886D01*
X002241Y008904D01*
X002198Y008926D01*
X002157Y008951D01*
X002119Y008980D01*
X002082Y009012D01*
X002048Y009046D01*
X002018Y009083D01*
X001990Y009122D01*
X001965Y009164D01*
X001945Y009208D01*
X001927Y009253D01*
X001914Y009299D01*
X001904Y009346D01*
X001898Y009394D01*
X001896Y009442D01*
X019613Y009442D02*
X019615Y009490D01*
X019621Y009538D01*
X019631Y009585D01*
X019644Y009631D01*
X019662Y009676D01*
X019682Y009720D01*
X019707Y009762D01*
X019735Y009801D01*
X019765Y009838D01*
X019799Y009872D01*
X019836Y009904D01*
X019874Y009933D01*
X019915Y009958D01*
X019958Y009980D01*
X020003Y009998D01*
X020049Y010012D01*
X020096Y010023D01*
X020144Y010030D01*
X020192Y010033D01*
X020240Y010032D01*
X020288Y010027D01*
X020336Y010018D01*
X020382Y010006D01*
X020427Y009989D01*
X020471Y009969D01*
X020513Y009946D01*
X020553Y009919D01*
X020591Y009889D01*
X020626Y009856D01*
X020658Y009820D01*
X020688Y009782D01*
X020714Y009741D01*
X020736Y009698D01*
X020756Y009654D01*
X020771Y009609D01*
X020783Y009562D01*
X020791Y009514D01*
X020795Y009466D01*
X020795Y009418D01*
X020791Y009370D01*
X020783Y009322D01*
X020771Y009275D01*
X020756Y009230D01*
X020736Y009186D01*
X020714Y009143D01*
X020688Y009102D01*
X020658Y009064D01*
X020626Y009028D01*
X020591Y008995D01*
X020553Y008965D01*
X020513Y008938D01*
X020471Y008915D01*
X020427Y008895D01*
X020382Y008878D01*
X020336Y008866D01*
X020288Y008857D01*
X020240Y008852D01*
X020192Y008851D01*
X020144Y008854D01*
X020096Y008861D01*
X020049Y008872D01*
X020003Y008886D01*
X019958Y008904D01*
X019915Y008926D01*
X019874Y008951D01*
X019836Y008980D01*
X019799Y009012D01*
X019765Y009046D01*
X019735Y009083D01*
X019707Y009122D01*
X019682Y009164D01*
X019662Y009208D01*
X019644Y009253D01*
X019631Y009299D01*
X019621Y009346D01*
X019615Y009394D01*
X019613Y009442D01*
X021581Y009442D02*
X021583Y009490D01*
X021589Y009538D01*
X021599Y009585D01*
X021612Y009631D01*
X021630Y009676D01*
X021650Y009720D01*
X021675Y009762D01*
X021703Y009801D01*
X021733Y009838D01*
X021767Y009872D01*
X021804Y009904D01*
X021842Y009933D01*
X021883Y009958D01*
X021926Y009980D01*
X021971Y009998D01*
X022017Y010012D01*
X022064Y010023D01*
X022112Y010030D01*
X022160Y010033D01*
X022208Y010032D01*
X022256Y010027D01*
X022304Y010018D01*
X022350Y010006D01*
X022395Y009989D01*
X022439Y009969D01*
X022481Y009946D01*
X022521Y009919D01*
X022559Y009889D01*
X022594Y009856D01*
X022626Y009820D01*
X022656Y009782D01*
X022682Y009741D01*
X022704Y009698D01*
X022724Y009654D01*
X022739Y009609D01*
X022751Y009562D01*
X022759Y009514D01*
X022763Y009466D01*
X022763Y009418D01*
X022759Y009370D01*
X022751Y009322D01*
X022739Y009275D01*
X022724Y009230D01*
X022704Y009186D01*
X022682Y009143D01*
X022656Y009102D01*
X022626Y009064D01*
X022594Y009028D01*
X022559Y008995D01*
X022521Y008965D01*
X022481Y008938D01*
X022439Y008915D01*
X022395Y008895D01*
X022350Y008878D01*
X022304Y008866D01*
X022256Y008857D01*
X022208Y008852D01*
X022160Y008851D01*
X022112Y008854D01*
X022064Y008861D01*
X022017Y008872D01*
X021971Y008886D01*
X021926Y008904D01*
X021883Y008926D01*
X021842Y008951D01*
X021804Y008980D01*
X021767Y009012D01*
X021733Y009046D01*
X021703Y009083D01*
X021675Y009122D01*
X021650Y009164D01*
X021630Y009208D01*
X021612Y009253D01*
X021599Y009299D01*
X021589Y009346D01*
X021583Y009394D01*
X021581Y009442D01*
X030440Y005505D02*
X030442Y005553D01*
X030448Y005601D01*
X030458Y005648D01*
X030471Y005694D01*
X030489Y005739D01*
X030509Y005783D01*
X030534Y005825D01*
X030562Y005864D01*
X030592Y005901D01*
X030626Y005935D01*
X030663Y005967D01*
X030701Y005996D01*
X030742Y006021D01*
X030785Y006043D01*
X030830Y006061D01*
X030876Y006075D01*
X030923Y006086D01*
X030971Y006093D01*
X031019Y006096D01*
X031067Y006095D01*
X031115Y006090D01*
X031163Y006081D01*
X031209Y006069D01*
X031254Y006052D01*
X031298Y006032D01*
X031340Y006009D01*
X031380Y005982D01*
X031418Y005952D01*
X031453Y005919D01*
X031485Y005883D01*
X031515Y005845D01*
X031541Y005804D01*
X031563Y005761D01*
X031583Y005717D01*
X031598Y005672D01*
X031610Y005625D01*
X031618Y005577D01*
X031622Y005529D01*
X031622Y005481D01*
X031618Y005433D01*
X031610Y005385D01*
X031598Y005338D01*
X031583Y005293D01*
X031563Y005249D01*
X031541Y005206D01*
X031515Y005165D01*
X031485Y005127D01*
X031453Y005091D01*
X031418Y005058D01*
X031380Y005028D01*
X031340Y005001D01*
X031298Y004978D01*
X031254Y004958D01*
X031209Y004941D01*
X031163Y004929D01*
X031115Y004920D01*
X031067Y004915D01*
X031019Y004914D01*
X030971Y004917D01*
X030923Y004924D01*
X030876Y004935D01*
X030830Y004949D01*
X030785Y004967D01*
X030742Y004989D01*
X030701Y005014D01*
X030663Y005043D01*
X030626Y005075D01*
X030592Y005109D01*
X030562Y005146D01*
X030534Y005185D01*
X030509Y005227D01*
X030489Y005271D01*
X030471Y005316D01*
X030458Y005362D01*
X030448Y005409D01*
X030442Y005457D01*
X030440Y005505D01*
X039298Y009442D02*
X039300Y009490D01*
X039306Y009538D01*
X039316Y009585D01*
X039329Y009631D01*
X039347Y009676D01*
X039367Y009720D01*
X039392Y009762D01*
X039420Y009801D01*
X039450Y009838D01*
X039484Y009872D01*
X039521Y009904D01*
X039559Y009933D01*
X039600Y009958D01*
X039643Y009980D01*
X039688Y009998D01*
X039734Y010012D01*
X039781Y010023D01*
X039829Y010030D01*
X039877Y010033D01*
X039925Y010032D01*
X039973Y010027D01*
X040021Y010018D01*
X040067Y010006D01*
X040112Y009989D01*
X040156Y009969D01*
X040198Y009946D01*
X040238Y009919D01*
X040276Y009889D01*
X040311Y009856D01*
X040343Y009820D01*
X040373Y009782D01*
X040399Y009741D01*
X040421Y009698D01*
X040441Y009654D01*
X040456Y009609D01*
X040468Y009562D01*
X040476Y009514D01*
X040480Y009466D01*
X040480Y009418D01*
X040476Y009370D01*
X040468Y009322D01*
X040456Y009275D01*
X040441Y009230D01*
X040421Y009186D01*
X040399Y009143D01*
X040373Y009102D01*
X040343Y009064D01*
X040311Y009028D01*
X040276Y008995D01*
X040238Y008965D01*
X040198Y008938D01*
X040156Y008915D01*
X040112Y008895D01*
X040067Y008878D01*
X040021Y008866D01*
X039973Y008857D01*
X039925Y008852D01*
X039877Y008851D01*
X039829Y008854D01*
X039781Y008861D01*
X039734Y008872D01*
X039688Y008886D01*
X039643Y008904D01*
X039600Y008926D01*
X039559Y008951D01*
X039521Y008980D01*
X039484Y009012D01*
X039450Y009046D01*
X039420Y009083D01*
X039392Y009122D01*
X039367Y009164D01*
X039347Y009208D01*
X039329Y009253D01*
X039316Y009299D01*
X039306Y009346D01*
X039300Y009394D01*
X039298Y009442D01*
X039298Y001568D02*
X039300Y001616D01*
X039306Y001664D01*
X039316Y001711D01*
X039329Y001757D01*
X039347Y001802D01*
X039367Y001846D01*
X039392Y001888D01*
X039420Y001927D01*
X039450Y001964D01*
X039484Y001998D01*
X039521Y002030D01*
X039559Y002059D01*
X039600Y002084D01*
X039643Y002106D01*
X039688Y002124D01*
X039734Y002138D01*
X039781Y002149D01*
X039829Y002156D01*
X039877Y002159D01*
X039925Y002158D01*
X039973Y002153D01*
X040021Y002144D01*
X040067Y002132D01*
X040112Y002115D01*
X040156Y002095D01*
X040198Y002072D01*
X040238Y002045D01*
X040276Y002015D01*
X040311Y001982D01*
X040343Y001946D01*
X040373Y001908D01*
X040399Y001867D01*
X040421Y001824D01*
X040441Y001780D01*
X040456Y001735D01*
X040468Y001688D01*
X040476Y001640D01*
X040480Y001592D01*
X040480Y001544D01*
X040476Y001496D01*
X040468Y001448D01*
X040456Y001401D01*
X040441Y001356D01*
X040421Y001312D01*
X040399Y001269D01*
X040373Y001228D01*
X040343Y001190D01*
X040311Y001154D01*
X040276Y001121D01*
X040238Y001091D01*
X040198Y001064D01*
X040156Y001041D01*
X040112Y001021D01*
X040067Y001004D01*
X040021Y000992D01*
X039973Y000983D01*
X039925Y000978D01*
X039877Y000977D01*
X039829Y000980D01*
X039781Y000987D01*
X039734Y000998D01*
X039688Y001012D01*
X039643Y001030D01*
X039600Y001052D01*
X039559Y001077D01*
X039521Y001106D01*
X039484Y001138D01*
X039450Y001172D01*
X039420Y001209D01*
X039392Y001248D01*
X039367Y001290D01*
X039347Y001334D01*
X039329Y001379D01*
X039316Y001425D01*
X039306Y001472D01*
X039300Y001520D01*
X039298Y001568D01*
X021581Y001568D02*
X021583Y001616D01*
X021589Y001664D01*
X021599Y001711D01*
X021612Y001757D01*
X021630Y001802D01*
X021650Y001846D01*
X021675Y001888D01*
X021703Y001927D01*
X021733Y001964D01*
X021767Y001998D01*
X021804Y002030D01*
X021842Y002059D01*
X021883Y002084D01*
X021926Y002106D01*
X021971Y002124D01*
X022017Y002138D01*
X022064Y002149D01*
X022112Y002156D01*
X022160Y002159D01*
X022208Y002158D01*
X022256Y002153D01*
X022304Y002144D01*
X022350Y002132D01*
X022395Y002115D01*
X022439Y002095D01*
X022481Y002072D01*
X022521Y002045D01*
X022559Y002015D01*
X022594Y001982D01*
X022626Y001946D01*
X022656Y001908D01*
X022682Y001867D01*
X022704Y001824D01*
X022724Y001780D01*
X022739Y001735D01*
X022751Y001688D01*
X022759Y001640D01*
X022763Y001592D01*
X022763Y001544D01*
X022759Y001496D01*
X022751Y001448D01*
X022739Y001401D01*
X022724Y001356D01*
X022704Y001312D01*
X022682Y001269D01*
X022656Y001228D01*
X022626Y001190D01*
X022594Y001154D01*
X022559Y001121D01*
X022521Y001091D01*
X022481Y001064D01*
X022439Y001041D01*
X022395Y001021D01*
X022350Y001004D01*
X022304Y000992D01*
X022256Y000983D01*
X022208Y000978D01*
X022160Y000977D01*
X022112Y000980D01*
X022064Y000987D01*
X022017Y000998D01*
X021971Y001012D01*
X021926Y001030D01*
X021883Y001052D01*
X021842Y001077D01*
X021804Y001106D01*
X021767Y001138D01*
X021733Y001172D01*
X021703Y001209D01*
X021675Y001248D01*
X021650Y001290D01*
X021630Y001334D01*
X021612Y001379D01*
X021599Y001425D01*
X021589Y001472D01*
X021583Y001520D01*
X021581Y001568D01*
X019613Y001568D02*
X019615Y001616D01*
X019621Y001664D01*
X019631Y001711D01*
X019644Y001757D01*
X019662Y001802D01*
X019682Y001846D01*
X019707Y001888D01*
X019735Y001927D01*
X019765Y001964D01*
X019799Y001998D01*
X019836Y002030D01*
X019874Y002059D01*
X019915Y002084D01*
X019958Y002106D01*
X020003Y002124D01*
X020049Y002138D01*
X020096Y002149D01*
X020144Y002156D01*
X020192Y002159D01*
X020240Y002158D01*
X020288Y002153D01*
X020336Y002144D01*
X020382Y002132D01*
X020427Y002115D01*
X020471Y002095D01*
X020513Y002072D01*
X020553Y002045D01*
X020591Y002015D01*
X020626Y001982D01*
X020658Y001946D01*
X020688Y001908D01*
X020714Y001867D01*
X020736Y001824D01*
X020756Y001780D01*
X020771Y001735D01*
X020783Y001688D01*
X020791Y001640D01*
X020795Y001592D01*
X020795Y001544D01*
X020791Y001496D01*
X020783Y001448D01*
X020771Y001401D01*
X020756Y001356D01*
X020736Y001312D01*
X020714Y001269D01*
X020688Y001228D01*
X020658Y001190D01*
X020626Y001154D01*
X020591Y001121D01*
X020553Y001091D01*
X020513Y001064D01*
X020471Y001041D01*
X020427Y001021D01*
X020382Y001004D01*
X020336Y000992D01*
X020288Y000983D01*
X020240Y000978D01*
X020192Y000977D01*
X020144Y000980D01*
X020096Y000987D01*
X020049Y000998D01*
X020003Y001012D01*
X019958Y001030D01*
X019915Y001052D01*
X019874Y001077D01*
X019836Y001106D01*
X019799Y001138D01*
X019765Y001172D01*
X019735Y001209D01*
X019707Y001248D01*
X019682Y001290D01*
X019662Y001334D01*
X019644Y001379D01*
X019631Y001425D01*
X019621Y001472D01*
X019615Y001520D01*
X019613Y001568D01*
X001896Y001568D02*
X001898Y001616D01*
X001904Y001664D01*
X001914Y001711D01*
X001927Y001757D01*
X001945Y001802D01*
X001965Y001846D01*
X001990Y001888D01*
X002018Y001927D01*
X002048Y001964D01*
X002082Y001998D01*
X002119Y002030D01*
X002157Y002059D01*
X002198Y002084D01*
X002241Y002106D01*
X002286Y002124D01*
X002332Y002138D01*
X002379Y002149D01*
X002427Y002156D01*
X002475Y002159D01*
X002523Y002158D01*
X002571Y002153D01*
X002619Y002144D01*
X002665Y002132D01*
X002710Y002115D01*
X002754Y002095D01*
X002796Y002072D01*
X002836Y002045D01*
X002874Y002015D01*
X002909Y001982D01*
X002941Y001946D01*
X002971Y001908D01*
X002997Y001867D01*
X003019Y001824D01*
X003039Y001780D01*
X003054Y001735D01*
X003066Y001688D01*
X003074Y001640D01*
X003078Y001592D01*
X003078Y001544D01*
X003074Y001496D01*
X003066Y001448D01*
X003054Y001401D01*
X003039Y001356D01*
X003019Y001312D01*
X002997Y001269D01*
X002971Y001228D01*
X002941Y001190D01*
X002909Y001154D01*
X002874Y001121D01*
X002836Y001091D01*
X002796Y001064D01*
X002754Y001041D01*
X002710Y001021D01*
X002665Y001004D01*
X002619Y000992D01*
X002571Y000983D01*
X002523Y000978D01*
X002475Y000977D01*
X002427Y000980D01*
X002379Y000987D01*
X002332Y000998D01*
X002286Y001012D01*
X002241Y001030D01*
X002198Y001052D01*
X002157Y001077D01*
X002119Y001106D01*
X002082Y001138D01*
X002048Y001172D01*
X002018Y001209D01*
X001990Y001248D01*
X001965Y001290D01*
X001945Y001334D01*
X001927Y001379D01*
X001914Y001425D01*
X001904Y001472D01*
X001898Y001520D01*
X001896Y001568D01*
D13*
X002487Y001568D03*
X011345Y005505D03*
X002487Y009442D03*
X020204Y009442D03*
X022172Y009442D03*
X031031Y005505D03*
X039889Y009442D03*
X039889Y001568D03*
X022172Y001568D03*
X020204Y001568D03*
D14*
X002133Y007083D03*
X010583Y009863D03*
X015143Y009863D03*
X030183Y009863D03*
X034823Y009863D03*
X040353Y007083D03*
D15*
X040253Y006083D03*
X040353Y005083D03*
X040253Y004083D03*
X024683Y001550D03*
X023683Y001550D03*
X002133Y005083D03*
X002033Y004083D03*
X002033Y006083D03*
X007583Y009863D03*
X008583Y009863D03*
X009583Y009863D03*
X012143Y009863D03*
X013143Y009863D03*
X014143Y009863D03*
X027183Y009863D03*
X028183Y009863D03*
X029183Y009863D03*
X031823Y009863D03*
X032823Y009863D03*
X033823Y009863D03*
D16*
X029654Y001670D03*
X028654Y001670D03*
X027654Y001670D03*
M02*
